<svg width="24" height="24" viewBox="0 0 24 24" fill="none" xmlns="http://www.w3.org/2000/svg">
<path fill-rule="evenodd" clip-rule="evenodd" d="M7.50001 5.17495C6.21595 5.17495 5.17501 6.21589 5.17501 7.49995V16.5C5.17501 17.784 6.21595 18.825 7.50001 18.825H16.5C17.7841 18.825 18.825 17.784 18.825 16.5V7.49995C18.825 6.21589 17.7841 5.17495 16.5 5.17495H7.50001ZM3.82501 7.49995C3.82501 5.4703 5.47037 3.82495 7.50001 3.82495H16.5C18.5297 3.82495 20.175 5.4703 20.175 7.49995V16.5C20.175 18.5296 18.5297 20.175 16.5 20.175H7.50001C5.47037 20.175 3.82501 18.5296 3.82501 16.5V7.49995ZM15.9217 9.97287C16.2128 10.2057 16.26 10.6305 16.0271 10.9216L14.4566 12.8847C13.9949 13.4619 13.1685 13.5902 12.5535 13.1802L10.6977 11.943C10.6653 11.9214 10.6219 11.9282 10.5976 11.9586L9.0271 13.9216C8.79422 14.2127 8.36944 14.2599 8.07834 14.027C7.78724 13.7942 7.74004 13.3694 7.97293 13.0783L9.54338 11.1152C10.0051 10.538 10.8315 10.4097 11.4466 10.8197L13.3023 12.0569C13.3347 12.0785 13.3782 12.0717 13.4025 12.0413L14.9729 10.0783C15.2058 9.78718 15.6306 9.73998 15.9217 9.97287Z" fill="white"/>
</svg>
