<svg width="24" height="24" viewBox="0 0 24 24" fill="none" xmlns="http://www.w3.org/2000/svg">
<path fill-rule="evenodd" clip-rule="evenodd" d="M7.5 4C5.567 4 4 5.567 4 7.5V16.5C4 18.433 5.567 20 7.5 20H16.5C18.433 20 20 18.433 20 16.5V7.5C20 5.567 18.433 4 16.5 4H7.5ZM16.0271 10.9217C16.26 10.6306 16.2128 10.2058 15.9217 9.97291C15.6306 9.74003 15.2058 9.78723 14.9729 10.0783L13.4025 12.0414C13.3782 12.0718 13.3347 12.0785 13.3023 12.0569L11.4466 10.8198C10.8315 10.4098 10.0051 10.5381 9.54337 11.1153L7.97291 13.0783C7.74003 13.3694 7.78723 13.7942 8.07833 14.0271C8.36943 14.26 8.79421 14.2128 9.02709 13.9217L10.5975 11.9586C10.6218 11.9282 10.6653 11.9215 10.6977 11.9431L12.5534 13.1802C13.1685 13.5902 13.9949 13.4619 14.4566 12.8847L16.0271 10.9217Z" fill="white"/>
</svg>
