<svg width="16" height="16" viewBox="0 0 16 16" fill="none" xmlns="http://www.w3.org/2000/svg">
<path fill-rule="evenodd" clip-rule="evenodd" d="M5.5 3C4.11929 3 3 4.11929 3 5.5V10.5C3 11.8807 4.11929 13 5.5 13H10.5C11.8807 13 13 11.8807 13 10.5V5.5C13 4.11929 11.8807 3 10.5 3H5.5ZM10.7238 7.31235C10.8963 7.09672 10.8613 6.78207 10.6457 6.60957C10.4301 6.43706 10.1154 6.47202 9.9429 6.68765L8.89594 7.99636L7.65877 7.17159C7.22718 6.88386 6.64724 6.9739 6.3232 7.37894L5.27624 8.68765C5.10373 8.90328 5.13869 9.21793 5.35432 9.39043C5.56996 9.56294 5.8846 9.52798 6.05711 9.31235L7.10407 8.00364L8.34124 8.82841C8.77283 9.11614 9.35277 9.0261 9.6768 8.62106L10.7238 7.31235Z" fill="white"/>
</svg>
