<svg width="16" height="16" viewBox="0 0 16 16" fill="none" xmlns="http://www.w3.org/2000/svg">
<path fill-rule="evenodd" clip-rule="evenodd" d="M2.5 5C2.5 3.61929 3.61929 2.5 5 2.5H11C12.3807 2.5 13.5 3.61929 13.5 5V11C13.5 12.3807 12.3807 13.5 11 13.5H5C3.61929 13.5 2.5 12.3807 2.5 11V5ZM5 3.5C4.17157 3.5 3.5 4.17157 3.5 5V11C3.5 11.8284 4.17157 12.5 5 12.5H11C11.8284 12.5 12.5 11.8284 12.5 11V5C12.5 4.17157 11.8284 3.5 11 3.5H5ZM10.6457 6.60957C10.8613 6.78207 10.8963 7.09672 10.7238 7.31235L9.6768 8.62106C9.35277 9.0261 8.77282 9.11614 8.34123 8.82841L7.10407 8.00364L6.0571 9.31235C5.8846 9.52798 5.56995 9.56294 5.35432 9.39043C5.13869 9.21793 5.10373 8.90328 5.27623 8.68765L6.3232 7.37894C6.64723 6.9739 7.22718 6.88386 7.65877 7.17159L8.89593 7.99636L9.9429 6.68765C10.1154 6.47202 10.4301 6.43706 10.6457 6.60957Z" fill="white"/>
</svg>
