<svg width="20" height="16" viewBox="0 0 20 16" fill="none" xmlns="http://www.w3.org/2000/svg">
<path fill-rule="evenodd" clip-rule="evenodd" d="M13 3C10.2386 3 8 5.23858 8 8C8 10.7614 10.2386 13 13 13C15.7614 13 18 10.7614 18 8C18 5.23858 15.7614 3 13 3ZM7 8C7 4.68629 9.68629 2 13 2C16.3137 2 19 4.68629 19 8C19 11.3137 16.3137 14 13 14C9.68629 14 7 11.3137 7 8ZM3 5.5C3.27614 5.5 3.5 5.72386 3.5 6V7.5H5C5.27614 7.5 5.5 7.72386 5.5 8C5.5 8.27614 5.27614 8.5 5 8.5H3.5V10C3.5 10.2761 3.27614 10.5 3 10.5C2.72386 10.5 2.5 10.2761 2.5 10V8.5H1C0.723858 8.5 0.5 8.27614 0.5 8C0.5 7.72386 0.723858 7.5 1 7.5H2.5V6C2.5 5.72386 2.72386 5.5 3 5.5ZM11.5 6C11.7761 6 12 6.22386 12 6.5V7C12 7.27614 11.7761 7.5 11.5 7.5C11.2239 7.5 11 7.27614 11 7V6.5C11 6.22386 11.2239 6 11.5 6ZM14.5 6C14.7761 6 15 6.22386 15 6.5V7C15 7.27614 14.7761 7.5 14.5 7.5C14.2239 7.5 14 7.27614 14 7V6.5C14 6.22386 14.2239 6 14.5 6ZM9.74195 8.37554C9.97847 8.23302 10.2857 8.30923 10.4283 8.54575C10.954 9.41827 11.9093 10 13 10C14.0907 10 15.046 9.41827 15.5717 8.54575C15.7143 8.30923 16.0215 8.23302 16.2581 8.37554C16.4946 8.51806 16.5708 8.82533 16.4283 9.06186C15.7291 10.2222 14.4556 11 13 11C11.5444 11 10.2709 10.2222 9.57174 9.06186C9.42922 8.82533 9.50542 8.51806 9.74195 8.37554Z" fill="white"/>
</svg>
