<svg width="30" height="24" viewBox="0 0 30 24" fill="none" xmlns="http://www.w3.org/2000/svg">
<path fill-rule="evenodd" clip-rule="evenodd" d="M29 12C29 16.9706 24.9705 21 20 21C15.0294 21 11 16.9706 11 12C11 7.02945 15.0294 3 20 3C24.9705 3 29 7.02945 29 12ZM17.5002 8.82495C17.873 8.82495 18.1752 9.12717 18.1752 9.49994V10.4999C18.1752 10.8727 17.873 11.175 17.5002 11.175C17.1274 11.175 16.8253 10.8727 16.8253 10.4999V9.49994C16.8253 9.12717 17.1274 8.82495 17.5002 8.82495ZM22.5002 8.82495C22.873 8.82495 23.1752 9.12717 23.1752 9.49994V10.4999C23.1752 10.8727 22.873 11.175 22.5002 11.175C22.1274 11.175 21.8253 10.8727 21.8253 10.4999V9.49994C21.8253 9.12717 22.1274 8.82495 22.5002 8.82495ZM15.0209 12.4345C15.3332 12.2309 15.7514 12.319 15.955 12.6313C16.8171 13.9534 18.3071 14.825 20.0002 14.825C21.6933 14.825 23.1832 13.9534 24.0452 12.6313C24.2489 12.319 24.6671 12.2309 24.9793 12.4345C25.2917 12.6381 25.3797 13.0563 25.1761 13.3686C24.0755 15.0567 22.1685 16.175 20.0002 16.175C17.8317 16.175 15.9249 15.0567 14.8242 13.3686C14.6206 13.0563 14.7087 12.6381 15.0209 12.4345Z" fill="white"/>
<path d="M5.6752 8.49994C5.6752 8.12715 5.37299 7.82494 5.0002 7.82494C4.6274 7.82494 4.3252 8.12715 4.3252 8.49994V11.3249H1.5002C1.1274 11.3249 0.825195 11.6271 0.825195 11.9999C0.825195 12.3727 1.1274 12.6749 1.5002 12.6749H4.3252V15.4999C4.3252 15.8727 4.6274 16.1749 5.0002 16.1749C5.37299 16.1749 5.6752 15.8727 5.6752 15.4999V12.6749H8.5002C8.87299 12.6749 9.1752 12.3727 9.1752 11.9999C9.1752 11.6271 8.87299 11.3249 8.5002 11.3249H5.6752V8.49994Z" fill="white"/>
</svg>
