<svg width="20" height="16" viewBox="0 0 20 16" fill="none" xmlns="http://www.w3.org/2000/svg">
<path fill-rule="evenodd" clip-rule="evenodd" d="M18.9998 8C18.9998 11.3137 16.3135 14 12.9998 14C9.68604 14 6.99976 11.3137 6.99976 8C6.99976 4.68628 9.68604 2 12.9998 2C16.3135 2 18.9998 4.68628 18.9998 8ZM11.5 5.99994C11.7761 5.99994 12 6.22379 12 6.49994V6.99994C12 7.27609 11.7761 7.49994 11.5 7.49994C11.2238 7.49994 11 7.27609 11 6.99994V6.49994C11 6.22379 11.2238 5.99994 11.5 5.99994ZM14.5 5.99994C14.7761 5.99994 15 6.22379 15 6.49994V6.99994C15 7.27609 14.7761 7.49994 14.5 7.49994C14.2238 7.49994 14 7.27609 14 6.99994V6.49994C14 6.22379 14.2238 5.99994 14.5 5.99994ZM9.74194 8.37549C9.97839 8.23297 10.2856 8.30917 10.4282 8.54568C10.954 9.41821 11.9093 9.99994 13 9.99994C14.0907 9.99994 15.0459 9.41821 15.5717 8.54568C15.7142 8.30917 16.0215 8.23297 16.2581 8.37549C16.4945 8.51801 16.5707 8.82526 16.4282 9.0618C15.729 10.2221 14.4556 10.9999 13 10.9999C11.5443 10.9999 10.2709 10.2221 9.57166 9.0618C9.4292 8.82526 9.50537 8.51801 9.74194 8.37549Z" fill="white"/>
<path d="M3.5 5.99994C3.5 5.7238 3.27614 5.49994 3 5.49994C2.72386 5.49994 2.5 5.7238 2.5 5.99994V7.49994H1C0.723858 7.49994 0.5 7.7238 0.5 7.99994C0.5 8.27608 0.723858 8.49994 1 8.49994H2.5V9.99994C2.5 10.2761 2.72386 10.4999 3 10.4999C3.27614 10.4999 3.5 10.2761 3.5 9.99994V8.49994H5C5.27614 8.49994 5.5 8.27608 5.5 7.99994C5.5 7.7238 5.27614 7.49994 5 7.49994H3.5V5.99994Z" fill="white"/>
</svg>
