<svg width="30" height="24" viewBox="0 0 30 24" fill="none" xmlns="http://www.w3.org/2000/svg">
<path fill-rule="evenodd" clip-rule="evenodd" d="M20 4.17495C15.6783 4.17495 12.175 7.67832 12.175 12C12.175 16.3216 15.6783 19.825 20 19.825C24.3216 19.825 27.825 16.3216 27.825 12C27.825 7.67832 24.3216 4.17495 20 4.17495ZM10.825 12C10.825 6.93274 14.9327 2.82495 20 2.82495C25.0672 2.82495 29.1749 6.93274 29.1749 12C29.1749 17.0672 25.0672 21.1749 20 21.1749C14.9327 21.1749 10.825 17.0672 10.825 12ZM4.99995 7.82495C5.37274 7.82495 5.67495 8.12716 5.67495 8.49995V11.325H8.49995C8.87274 11.325 9.17495 11.6272 9.17495 12C9.17495 12.3727 8.87274 12.675 8.49995 12.675H5.67495V15.5C5.67495 15.8727 5.37274 16.175 4.99995 16.175C4.62716 16.175 4.32495 15.8727 4.32495 15.5V12.675H1.49995C1.12716 12.675 0.824951 12.3727 0.824951 12C0.824951 11.6272 1.12716 11.325 1.49995 11.325H4.32495V8.49995C4.32495 8.12716 4.62716 7.82495 4.99995 7.82495ZM17.5 8.82495C17.8727 8.82495 18.1749 9.12716 18.1749 9.49995V10.5C18.1749 10.8727 17.8727 11.175 17.5 11.175C17.1272 11.175 16.825 10.8727 16.825 10.5V9.49995C16.825 9.12716 17.1272 8.82495 17.5 8.82495ZM22.5 8.82495C22.8727 8.82495 23.1749 9.12716 23.1749 9.49995V10.5C23.1749 10.8727 22.8727 11.175 22.5 11.175C22.1272 11.175 21.825 10.8727 21.825 10.5V9.49995C21.825 9.12716 22.1272 8.82495 22.5 8.82495ZM15.0207 12.4345C15.333 12.2309 15.7512 12.319 15.9548 12.6313C16.8168 13.9534 18.3068 14.825 19.9999 14.825C21.693 14.825 23.183 13.9534 24.045 12.6313C24.2486 12.319 24.6668 12.2309 24.9791 12.4345C25.2914 12.6381 25.3795 13.0563 25.1759 13.3686C24.0752 15.0567 22.1683 16.175 19.9999 16.175C17.8315 16.175 15.9246 15.0567 14.8239 13.3686C14.6203 13.0563 14.7084 12.6381 15.0207 12.4345Z" fill="white"/>
</svg>
