<svg width="16" height="16" viewBox="0 0 16 16" fill="none" xmlns="http://www.w3.org/2000/svg">
<path d="M7.35361 2.64675C6.05378 1.34692 3.94634 1.34692 2.6465 2.64675C1.34667 3.94658 1.34667 6.05402 2.64651 7.35386L3.52956 8.23691C3.77126 8.27061 4.00568 8.32705 4.23059 8.40399C4.22595 8.13178 4.24824 7.8592 4.29744 7.59058L3.35361 6.64675C2.4443 5.73744 2.4443 4.26316 3.35361 3.35386C4.26292 2.44455 5.7372 2.44455 6.6465 3.35386L9.31317 6.02052C10.2225 6.92983 10.2225 8.40411 9.31317 9.31342C8.8911 9.73548 8.34731 9.96164 7.7948 9.99189L8.65034 10.8474C9.1516 10.6929 9.62356 10.4172 10.0203 10.0205C11.3201 8.72069 11.3201 6.61325 10.0203 5.31342L7.35361 2.64675Z" fill="white"/>
<path d="M8.64655 13.3539L6.76337 11.4707C6.60629 10.3442 5.9554 9.37592 5.03646 8.7915C4.89875 7.79435 5.21322 6.74674 5.97988 5.98008C6.3766 5.58336 6.84856 5.30772 7.34982 5.15316L8.20537 6.00871C7.65285 6.03896 7.10906 6.26512 6.68699 6.68719C5.77768 7.5965 5.77768 9.07077 6.68699 9.98008L9.35365 12.6467C10.263 13.5561 11.7372 13.5561 12.6465 12.6467C13.5559 11.7374 13.5559 10.2632 12.6465 9.35385L11.7027 8.41003C11.7874 7.94798 11.7923 7.4742 11.7177 7.01077L13.3537 8.64675C14.6535 9.94658 14.6535 12.054 13.3537 13.3539C12.0538 14.6537 9.94638 14.6537 8.64655 13.3539Z" fill="white"/>
<path fill-rule="evenodd" clip-rule="evenodd" d="M3 15.0003C4.65686 15.0003 6 13.6572 6 12.0003C6 10.3434 4.65686 9.00031 3 9.00031C1.34314 9.00031 0 10.3434 0 12.0003C0 13.6572 1.34314 15.0003 3 15.0003ZM3 10.3507C3.19336 10.3507 3.34998 10.5074 3.34998 10.7007V11.6503H4.29956C4.49292 11.6503 4.64966 11.807 4.64966 12.0003C4.64966 12.1936 4.49292 12.3503 4.29956 12.3503H3.34998V13.2999C3.34998 13.4932 3.19336 13.6499 3 13.6499C2.80676 13.6499 2.65002 13.4932 2.65002 13.2999V12.3503H1.70044C1.5072 12.3503 1.35046 12.1936 1.35046 12.0003C1.35046 11.807 1.5072 11.6503 1.70044 11.6503H2.65002V10.7007C2.65002 10.5074 2.80676 10.3507 3 10.3507Z" fill="white"/>
</svg>
