<svg width="24" height="24" viewBox="0 0 24 24" fill="none" xmlns="http://www.w3.org/2000/svg">
<path d="M4.02274 4.02238C5.9432 2.10192 9.05687 2.10191 10.9773 4.02237L14.9773 8.02238C16.8978 9.94284 16.8978 13.0565 14.9773 14.977C14.3632 15.5911 13.627 16.0089 12.8469 16.2302L11.6795 15.0628C12.5318 15.0202 13.3718 14.6733 14.0227 14.0224C15.416 12.6291 15.416 10.3702 14.0227 8.97697L10.0227 4.97697C8.62949 3.58372 6.37059 3.58372 4.97733 4.97697C3.58409 6.37022 3.58408 8.62913 4.97733 10.0224L6.48467 11.5297C6.41247 11.9798 6.39088 12.4365 6.41989 12.8905C6.24071 12.8614 6.05873 12.8406 5.87435 12.8286L4.02274 10.977C2.10228 9.05651 2.10228 5.94283 4.02274 4.02238Z" fill="white"/>
<path d="M11.1709 18.1252L13.0227 19.977C14.9432 21.8974 18.0569 21.8974 19.9773 19.977C21.8978 18.0565 21.8978 14.9428 19.9773 13.0224L17.5212 10.5663C17.6184 11.1968 17.6165 11.8397 17.5155 12.4697L19.0227 13.977C20.416 15.3702 20.416 17.6291 19.0227 19.0224C17.6295 20.4156 15.3706 20.4156 13.9773 19.0224L10.0533 15.0983C10.6929 15.9532 11.0974 16.994 11.1709 18.1252Z" fill="white"/>
<path d="M9.97733 9.97697C8.7396 11.2147 8.60144 13.1356 9.56287 14.5259C9.02097 13.9719 8.36669 13.5283 7.6369 13.2319C7.41378 11.7421 7.87573 10.1694 9.02274 9.02238C9.6369 8.40822 10.3731 7.99047 11.1532 7.76912L12.3206 8.93652C11.4683 8.97917 10.6283 9.32599 9.97733 9.97697Z" fill="white"/>
<path fill-rule="evenodd" clip-rule="evenodd" d="M5.5 22.9997C7.98523 22.9997 10 20.985 10 18.4997C10 16.0144 7.98523 13.9997 5.5 13.9997C3.01477 13.9997 1 16.0144 1 18.4997C1 20.985 3.01477 22.9997 5.5 22.9997ZM5.5 15.9997C5.77612 15.9997 6 16.2235 6 16.4997V17.9997H7.5C7.77612 17.9997 8 18.2235 8 18.4997C8 18.7758 7.77612 18.9997 7.5 18.9997H6V20.4997C6 20.7758 5.77612 20.9997 5.5 20.9997C5.22388 20.9997 5 20.7758 5 20.4997V18.9997H3.5C3.22388 18.9997 3 18.7758 3 18.4997C3 18.2235 3.22388 17.9997 3.5 17.9997H5V16.4997C5 16.2235 5.22388 15.9997 5.5 15.9997Z" fill="white"/>
</svg>
