<svg width="24" height="24" viewBox="0 0 24 24" fill="none" xmlns="http://www.w3.org/2000/svg">
<path fill-rule="evenodd" clip-rule="evenodd" d="M5.5 16C5.77614 16 6 16.2239 6 16.5V18H7.5C7.77614 18 8 18.2239 8 18.5C8 18.7761 7.77614 19 7.5 19H6V20.5C6 20.7761 5.77614 21 5.5 21C5.22386 21 5 20.7761 5 20.5V19H3.5C3.22386 19 3 18.7761 3 18.5C3 18.2239 3.22386 18 3.5 18H5V16.5C5 16.2239 5.22386 16 5.5 16Z" fill="white"/>
<path fill-rule="evenodd" clip-rule="evenodd" d="M10.0229 4.97697C8.62963 3.58372 6.37073 3.58372 4.97748 4.97697C3.58422 6.37022 3.58422 8.62913 4.97748 10.0224L5.98194 11.0268L5.02734 11.9814L4.02288 10.977C2.10242 9.05651 2.10242 5.94283 4.02288 4.02238C5.94334 2.10192 9.05701 2.10191 10.9775 4.02237L14.9775 8.02238C16.8979 9.94284 16.8979 13.0565 14.9775 14.977C14.4769 15.4776 13.8937 15.8486 13.271 16.0886L12.7856 14.8289C13.2357 14.6554 13.6582 14.3871 14.0229 14.0224C15.4161 12.6291 15.4161 10.3702 14.0229 8.97697L10.0229 4.97697ZM9.02293 9.02238C9.52355 8.52176 10.1067 8.15073 10.7294 7.91078L11.2149 9.17049C10.7648 9.34394 10.3422 9.61227 9.97753 9.97697C9.36905 10.5854 9.02684 11.3573 8.9495 12.1514C8.91337 12.5225 8.58329 12.794 8.21225 12.7578C7.84122 12.7217 7.56972 12.3916 7.60586 12.0206C7.71241 10.9266 8.18523 9.86008 9.02293 9.02238ZM18.7022 11.747L19.9775 13.0224C21.898 14.9428 21.898 18.0565 19.9775 19.977C18.0571 21.8974 14.9434 21.8974 13.0229 19.977L12.0235 18.9775C11.7599 18.7139 11.7599 18.2865 12.0235 18.0229C12.2871 17.7593 12.7145 17.7593 12.9781 18.0229L13.9775 19.0224C15.3708 20.4156 17.6297 20.4156 19.0229 19.0224C20.4162 17.6291 20.4162 15.3702 19.0229 13.977L17.7476 12.7016L18.7022 11.747ZM5.5002 14.6747C3.38771 14.6747 1.6752 16.3872 1.6752 18.4997C1.6752 20.6122 3.38771 22.3247 5.5002 22.3247C7.61268 22.3247 9.3252 20.6122 9.3252 18.4997C9.3252 16.3872 7.61268 14.6747 5.5002 14.6747ZM0.325195 18.4997C0.325195 15.6416 2.64212 13.3247 5.5002 13.3247C8.35827 13.3247 10.6752 15.6416 10.6752 18.4997C10.6752 21.3577 8.35827 23.6747 5.5002 23.6747C2.64212 23.6747 0.325195 21.3577 0.325195 18.4997Z" fill="white"/>
</svg>
