<svg width="16" height="16" viewBox="0 0 16 16" fill="none" xmlns="http://www.w3.org/2000/svg">
<path fill-rule="evenodd" clip-rule="evenodd" d="M3.00035 10.5488C3.19365 10.5488 3.35035 10.7055 3.35035 10.8988V11.6504H4.10188C4.29518 11.6504 4.45188 11.8071 4.45188 12.0004C4.45188 12.1937 4.29518 12.3504 4.10188 12.3504H3.35035V13.1019C3.35035 13.2952 3.19365 13.4519 3.00035 13.4519C2.80705 13.4519 2.65035 13.2952 2.65035 13.1019V12.3504H1.89883C1.70553 12.3504 1.54883 12.1937 1.54883 12.0004C1.54883 11.8071 1.70553 11.6504 1.89883 11.6504H2.65035V10.8988C2.65035 10.7055 2.80705 10.5488 3.00035 10.5488Z" fill="white"/>
<path fill-rule="evenodd" clip-rule="evenodd" d="M6.64655 3.35385C5.73725 2.44455 4.26297 2.44455 3.35366 3.35386C2.44436 4.26316 2.44436 5.73744 3.35366 6.64675L4.12123 7.41432L3.41412 8.12142L2.64656 7.35386C1.34673 6.05402 1.34673 3.94658 2.64656 2.64675C3.94639 1.34692 6.05383 1.34692 7.35366 2.64675L10.0203 5.31342C11.3202 6.61325 11.3202 8.72069 10.0203 10.0205C9.71071 10.3301 9.35425 10.5667 8.97323 10.7291L8.58105 9.80921C8.84644 9.69607 9.09552 9.53112 9.31322 9.31342C10.2225 8.40411 10.2225 6.92983 9.31322 6.02052L6.64655 3.35385ZM5.97984 5.98008C6.28947 5.67046 6.64593 5.43395 7.02695 5.27151L7.41912 6.1914C7.15373 6.30454 6.90466 6.46948 6.68695 6.68719C6.19238 7.18176 5.96668 7.8427 6.01025 8.49093C6.02877 8.76645 5.82043 9.00482 5.5449 9.02333C5.26938 9.04185 5.03102 8.83351 5.0125 8.55799C4.95041 7.6341 5.27272 6.6872 5.97984 5.98008ZM12.5861 7.87918L13.3536 8.64675C14.6535 9.94658 14.6534 12.054 13.3536 13.3539C12.0538 14.6537 9.94635 14.6537 8.64651 13.3539L6.86306 11.5704C6.6678 11.3751 6.6678 11.0586 6.86306 10.8633C7.05832 10.668 7.3749 10.668 7.57017 10.8633L9.35362 12.6468C10.2629 13.5561 11.7372 13.5561 12.6465 12.6467C13.5558 11.7374 13.5558 10.2632 12.6465 9.35386L11.8789 8.58629L12.5861 7.87918ZM3 10.0003C1.89543 10.0003 1 10.8957 1 12.0003C1 13.1049 1.89543 14.0003 3 14.0003C4.10457 14.0003 5 13.1049 5 12.0003C5 10.8957 4.10457 10.0003 3 10.0003ZM0 12.0003C0 10.3435 1.34315 9.00031 3 9.00031C4.65685 9.00031 6 10.3435 6 12.0003C6 13.6572 4.65685 15.0003 3 15.0003C1.34315 15.0003 0 13.6572 0 12.0003Z" fill="white"/>
</svg>
