<svg width="24" height="24" viewBox="0 0 24 24" fill="none" xmlns="http://www.w3.org/2000/svg">
<path fill-rule="evenodd" clip-rule="evenodd" d="M3.49995 21.1752C2.57487 21.1752 1.82495 20.4253 1.82495 19.5002V9.50019C1.82495 8.57512 2.57488 7.82519 3.49995 7.82519H5.82495V4.50019C5.82495 3.57512 6.57488 2.8252 7.49995 2.8252H20.5C21.425 2.8252 22.1749 3.57512 22.1749 4.50019V14.5002C22.1749 15.4253 21.425 16.1752 20.5 16.1752H18.175V19.5002C18.175 20.4253 17.425 21.1752 16.5 21.1752H3.49995ZM5.82495 14.5002V9.17519H3.49995C3.32046 9.17519 3.17495 9.3207 3.17495 9.50019V19.5002C3.17495 19.6797 3.32046 19.8252 3.49995 19.8252H16.5C16.6794 19.8252 16.825 19.6797 16.825 19.5002V16.1752H7.49995C6.57487 16.1752 5.82495 15.4253 5.82495 14.5002ZM13.4772 9.4774C13.7408 9.21379 13.7408 8.7864 13.4772 8.5228C13.2136 8.2592 12.7862 8.2592 12.5226 8.5228L9.67492 11.3705L9.67493 9.50014C9.67493 9.12735 9.37272 8.82514 8.99993 8.82514C8.62714 8.82514 8.32493 9.12734 8.32493 9.50014L8.32492 13.0001C8.32492 13.3729 8.62712 13.6751 8.99992 13.6751L12.4999 13.6751C12.8727 13.6751 13.1749 13.3729 13.1749 13.0001C13.1749 12.6273 12.8727 12.3251 12.4999 12.3251L10.6295 12.3251L13.4772 9.4774Z" fill="white"/>
</svg>
