<svg width="16" height="16" viewBox="0 0 16 16" fill="none" xmlns="http://www.w3.org/2000/svg">
<path fill-rule="evenodd" clip-rule="evenodd" d="M2.4 13.5C1.90294 13.5 1.5 13.097 1.5 12.6L1.50003 6.39992C1.50003 5.90287 1.90297 5.49993 2.40002 5.49993L4.49996 5.49992L4.49997 3.40001C4.49997 2.90296 4.90291 2.50001 5.39997 2.50001L13.5999 2.5C14.097 2.5 14.4999 2.90294 14.4999 3.39999L14.5 9.59996C14.5 10.097 14.0971 10.5 13.6 10.5L11.5 10.5L11.5001 12.5999C11.5001 13.0969 11.0971 13.4999 10.6001 13.4999L2.4 13.5ZM4.49994 9.60006L4.49996 6.49992L2.50002 6.49993L2.5 12.5L10.5001 12.4999L10.5 10.5L5.39994 10.5001C4.90289 10.5001 4.49994 10.0971 4.49994 9.60006ZM9.85355 5.14642C9.65829 4.95116 9.34171 4.95116 9.14645 5.14642L7.5 6.79287V5.99997C7.5 5.72383 7.27614 5.49997 7 5.49997C6.72386 5.49997 6.5 5.72383 6.5 5.99997V7.99997C6.5 8.27612 6.72386 8.49997 7 8.49997H9C9.27614 8.49997 9.5 8.27612 9.5 7.99997C9.5 7.72383 9.27614 7.49997 9 7.49997H8.20711L9.85355 5.85353C10.0488 5.65827 10.0488 5.34168 9.85355 5.14642Z" fill="white"/>
</svg>
