<svg width="20" height="20" viewBox="0 0 20 20" fill="none" xmlns="http://www.w3.org/2000/svg">
<path fill-rule="evenodd" clip-rule="evenodd" d="M6.29995 2.4502C5.55437 2.4502 4.94995 3.05461 4.94995 3.8002V6.4502H2.79995C2.05437 6.4502 1.44995 7.05461 1.44995 7.8002V16.2002C1.44995 16.9458 2.05437 17.5502 2.79995 17.5502H13.7C14.4455 17.5502 15.05 16.9458 15.05 16.2002V13.5502H17.2C17.9455 13.5502 18.5499 12.9458 18.5499 12.2002V3.8002C18.5499 3.05461 17.9455 2.4502 17.2 2.4502H6.29995ZM2.79995 7.5502H4.94995V12.2002C4.94995 12.9458 5.55437 13.5502 6.29995 13.5502H13.95V16.2002C13.95 16.3383 13.838 16.4502 13.7 16.4502H2.79995C2.66188 16.4502 2.54995 16.3383 2.54995 16.2002V7.8002C2.54995 7.66212 2.66188 7.5502 2.79995 7.5502ZM11.8889 7.3891C12.1036 7.17432 12.1036 6.82608 11.8889 6.61129C11.6741 6.3965 11.3258 6.3965 11.111 6.61129L8.54995 9.17238V7.5002C8.54995 7.19644 8.30371 6.9502 7.99995 6.9502C7.69619 6.9502 7.44995 7.19644 7.44995 7.5002V10.5002C7.44995 10.804 7.69619 11.0502 7.99995 11.0502H11C11.3037 11.0502 11.55 10.804 11.55 10.5002C11.55 10.1964 11.3037 9.9502 11 9.9502H9.32777L11.8889 7.3891Z" fill="white"/>
</svg>
