<svg width="16" height="16" viewBox="0 0 16 16" fill="none" xmlns="http://www.w3.org/2000/svg">
<path fill-rule="evenodd" clip-rule="evenodd" d="M2 2.89999C2 2.40294 2.40295 2 2.90002 2H13.1C13.597 2 14 2.40294 14 2.89999V13.1C14 13.5971 13.597 14 13.1 14H2.90002C2.40295 14 2 13.5971 2 13.1V2.89999ZM4.75 5C4.47386 5 4.25 5.22386 4.25 5.5C4.25 5.77614 4.47386 6 4.75 6H5.8C5.91046 6 6 6.08954 6 6.2V10.5C6 10.7761 6.22386 11 6.5 11C6.77614 11 7 10.7761 7 10.5V6.2C7 6.08954 7.08954 6 7.2 6H8.25C8.52614 6 8.75 5.77614 8.75 5.5C8.75 5.22386 8.52614 5 8.25 5H4.75ZM10.4895 6C10.4895 5.72386 10.2656 5.5 9.98947 5.5C9.71333 5.5 9.48947 5.72386 9.48947 6V6.25C9.48947 6.38807 9.37754 6.5 9.23947 6.5C8.96333 6.5 8.73947 6.72386 8.73947 7C8.73947 7.27614 8.96333 7.5 9.23947 7.5H9.28947C9.39993 7.5 9.48947 7.58954 9.48947 7.7V9.60011C9.48947 9.82234 9.51234 10.1823 9.73238 10.4906C9.97738 10.8337 10.3788 11 10.8891 11C11.1652 11 11.3891 10.7761 11.3891 10.5C11.3891 10.2239 11.1652 10 10.8891 10C10.7396 10 10.6549 9.97648 10.6109 9.9573C10.5715 9.94013 10.5558 9.92292 10.5463 9.90952C10.5165 9.86778 10.4895 9.77782 10.4895 9.60011V7.7C10.4895 7.58954 10.579 7.5 10.6895 7.5H11C11.2761 7.5 11.5 7.27614 11.5 7C11.5 6.72386 11.2761 6.5 11 6.5H10.6895C10.579 6.5 10.4895 6.41046 10.4895 6.3V6Z" fill="white"/>
</svg>
