<svg width="24" height="24" viewBox="0 0 24 24" fill="none" xmlns="http://www.w3.org/2000/svg">
<path fill-rule="evenodd" clip-rule="evenodd" d="M3 4.5C3 3.67157 3.67163 3 4.5 3H19.5C20.3284 3 21 3.67157 21 4.5V19.5C21 20.3284 20.3284 21 19.5 21H4.5C3.67163 21 3 20.3284 3 19.5V4.5ZM7 7.32501C6.6272 7.32501 6.32495 7.6272 6.32495 8C6.32495 8.3728 6.6272 8.67499 7 8.67499H9.0249C9.19067 8.67499 9.32495 8.80933 9.32495 8.97504V16C9.32495 16.3728 9.6272 16.675 10 16.675C10.3728 16.675 10.675 16.3728 10.675 16V8.97504C10.675 8.80933 10.8093 8.67499 10.9749 8.67499H13C13.3728 8.67499 13.675 8.3728 13.675 8C13.675 7.6272 13.3728 7.32501 13 7.32501H7ZM15.675 8.5C15.675 8.1272 15.3728 7.82501 15 7.82501C14.6272 7.82501 14.325 8.1272 14.325 8.5V9.66669C14.325 9.84619 14.1794 9.9917 14 9.9917C13.6272 9.9917 13.325 10.2939 13.325 10.6667C13.325 11.0395 13.6272 11.3417 14 11.3417C14.1794 11.3417 14.325 11.4872 14.325 11.6667V14.6667C14.325 15.1041 14.4348 15.6394 14.856 16.0607C15.2771 16.4819 15.896 16.675 16.6665 16.675C17.0393 16.675 17.3416 16.3728 17.3416 16C17.3416 15.6272 17.0393 15.325 16.6665 15.325C16.104 15.325 15.8894 15.1848 15.8105 15.1061C15.7319 15.0273 15.675 14.8959 15.675 14.6667V11.6417C15.675 11.476 15.8093 11.3417 15.9749 11.3417H16.6665C17.0393 11.3417 17.3416 11.0395 17.3416 10.6667C17.3416 10.2939 17.0393 9.9917 16.6665 9.9917H15.9749C15.8889 9.9917 15.8113 9.95544 15.7566 9.89734C15.7061 9.84363 15.675 9.77124 15.675 9.69165V8.5Z" fill="white"/>
</svg>
