<svg width="24" height="24" viewBox="0 0 24 24" fill="none" xmlns="http://www.w3.org/2000/svg">
<path d="M7.0002 7.3252C6.6274 7.3252 6.3252 7.6274 6.3252 8.0002C6.3252 8.37299 6.6274 8.6752 7.0002 8.6752H9.3252V16.0002C9.3252 16.373 9.6274 16.6752 10.0002 16.6752C10.373 16.6752 10.6752 16.373 10.6752 16.0002V8.6752H13.0002C13.373 8.6752 13.6752 8.37299 13.6752 8.0002C13.6752 7.6274 13.373 7.3252 13.0002 7.3252H7.0002Z" fill="white"/>
<path d="M15.6752 8.5002C15.6752 8.1274 15.373 7.8252 15.0002 7.8252C14.6274 7.8252 14.3252 8.1274 14.3252 8.5002V9.99186H14.0002C13.6274 9.99186 13.3252 10.2941 13.3252 10.6669C13.3252 11.0397 13.6274 11.3419 14.0002 11.3419H14.3252V14.6669C14.3252 15.1042 14.435 15.6396 14.8562 16.0608C15.2775 16.4821 15.8961 16.6752 16.6669 16.6752C17.0397 16.6752 17.3419 16.373 17.3419 16.0002C17.3419 15.6274 17.0397 15.3252 16.6669 15.3252C16.1042 15.3252 15.8896 15.185 15.8108 15.1062C15.7321 15.0275 15.6752 14.8961 15.6752 14.6669V11.3419H16.6669C17.0397 11.3419 17.3419 11.0397 17.3419 10.6669C17.3419 10.2941 17.0397 9.99186 16.6669 9.99186H15.6752V8.5002Z" fill="white"/>
<path fill-rule="evenodd" clip-rule="evenodd" d="M4.5002 2.8252C3.57512 2.8252 2.8252 3.57512 2.8252 4.5002V19.5002C2.8252 20.4253 3.57512 21.1752 4.5002 21.1752H19.5002C20.4253 21.1752 21.1752 20.4253 21.1752 19.5002V4.5002C21.1752 3.57512 20.4253 2.8252 19.5002 2.8252H4.5002ZM4.1752 4.5002C4.1752 4.3207 4.3207 4.1752 4.5002 4.1752H19.5002C19.6797 4.1752 19.8252 4.3207 19.8252 4.5002V19.5002C19.8252 19.6797 19.6797 19.8252 19.5002 19.8252H4.5002C4.3207 19.8252 4.1752 19.6797 4.1752 19.5002V4.5002Z" fill="white"/>
</svg>
