<svg width="16" height="16" viewBox="0 0 16 16" fill="none" xmlns="http://www.w3.org/2000/svg">
<path d="M4.75 5C4.47386 5 4.25 5.22386 4.25 5.5C4.25 5.77614 4.47386 6 4.75 6H6V10.5C6 10.7761 6.22386 11 6.5 11C6.77614 11 7 10.7761 7 10.5V6H8.25C8.52614 6 8.75 5.77614 8.75 5.5C8.75 5.22386 8.52614 5 8.25 5H4.75Z" fill="white"/>
<path d="M10.4895 6C10.4895 5.72386 10.2656 5.5 9.98947 5.5C9.71333 5.5 9.48947 5.72386 9.48947 6V6.5H9.23947C8.96333 6.5 8.73947 6.72386 8.73947 7C8.73947 7.27614 8.96333 7.5 9.23947 7.5H9.48947V9.60011C9.48947 9.82234 9.51234 10.1823 9.73238 10.4906C9.97738 10.8337 10.3788 11 10.8891 11C11.1652 11 11.3891 10.7761 11.3891 10.5C11.3891 10.2239 11.1652 10 10.8891 10C10.7396 10 10.6549 9.97648 10.6109 9.9573C10.5715 9.94013 10.5558 9.92292 10.5463 9.90952C10.5165 9.86778 10.4895 9.77782 10.4895 9.60011V7.5H11C11.2761 7.5 11.5 7.27614 11.5 7C11.5 6.72386 11.2761 6.5 11 6.5H10.4895V6Z" fill="white"/>
<path fill-rule="evenodd" clip-rule="evenodd" d="M2.4 1.5C1.90294 1.5 1.5 1.90294 1.5 2.4V13.6C1.5 14.0971 1.90294 14.5 2.4 14.5H13.6C14.0971 14.5 14.5 14.0971 14.5 13.6V2.4C14.5 1.90294 14.0971 1.5 13.6 1.5H2.4ZM2.5 13.5V2.5H13.5V13.5H2.5Z" fill="white"/>
</svg>
