<svg width="16" height="16" viewBox="0 0 16 16" fill="none" xmlns="http://www.w3.org/2000/svg">
<path fill-rule="evenodd" clip-rule="evenodd" d="M2.90002 11H5V13.1C5 13.597 5.40295 14 5.90002 14H13.1C13.597 14 14 13.597 14 13.1V5.89999C14 5.40295 13.597 5 13.1 5H11V2.89999C11 2.40294 10.597 2 10.1 2H2.90002C2.40295 2 2 2.40294 2 2.89999V10.1C2 10.597 2.40295 11 2.90002 11ZM3 3V10H5V5.89999C5 5.40295 5.40295 5 5.90002 5H10V3H3ZM10 7.5C10 7.22385 9.77612 7 9.5 7C9.22388 7 9 7.22385 9 7.5V9H7.5C7.22388 9 7 9.22385 7 9.5C7 9.77615 7.22388 10 7.5 10H9V11.5C9 11.7762 9.22388 12 9.5 12C9.77612 12 10 11.7762 10 11.5V10H11.5C11.7761 10 12 9.77615 12 9.5C12 9.22385 11.7761 9 11.5 9H10V7.5Z" fill="white"/>
</svg>
