<svg width="24" height="24" viewBox="0 0 24 24" fill="none" xmlns="http://www.w3.org/2000/svg">
<path fill-rule="evenodd" clip-rule="evenodd" d="M4.5 17H7V19.5C7 20.3284 7.67157 21 8.5 21H19.5C20.3284 21 21 20.3284 21 19.5V8.5C21 7.67157 20.3284 7 19.5 7H17V4.5C17 3.67157 16.3284 3 15.5 3H4.5C3.67157 3 3 3.67157 3 4.5V15.5C3 16.3284 3.67157 17 4.5 17ZM15.5 4.35H4.5C4.41716 4.35 4.35 4.41716 4.35 4.5V15.5C4.35 15.5828 4.41716 15.65 4.5 15.65H7V8.5C7 7.67157 7.67157 7 8.5 7H15.65V4.5C15.65 4.41716 15.5828 4.35 15.5 4.35ZM14.675 10.5C14.675 10.1272 14.3727 9.82501 14 9.82501C13.6272 9.82501 13.325 10.1272 13.325 10.5V13.325H10.5C10.1272 13.325 9.82495 13.6272 9.82495 14C9.82495 14.3728 10.1272 14.675 10.5 14.675H13.325V17.5C13.325 17.8728 13.6272 18.175 14 18.175C14.3727 18.175 14.675 17.8728 14.675 17.5V14.675H17.5C17.8727 14.675 18.175 14.3728 18.175 14C18.175 13.6272 17.8727 13.325 17.5 13.325H14.675V10.5Z" fill="white"/>
</svg>
