<svg width="16" height="16" viewBox="0 0 16 16" fill="none" xmlns="http://www.w3.org/2000/svg">
<path fill-rule="evenodd" clip-rule="evenodd" d="M1.5 2.4C1.5 1.90294 1.90294 1.5 2.4 1.5H10.6C11.0971 1.5 11.5 1.90294 11.5 2.4V4.5H13.6C14.0971 4.5 14.5 4.90294 14.5 5.4V13.6C14.5 14.0971 14.0971 14.5 13.6 14.5H5.4C4.90294 14.5 4.5 14.0971 4.5 13.6V11.5H2.4C1.90294 11.5 1.5 11.0971 1.5 10.6V2.4ZM4.5 10.5V5.4C4.5 4.90294 4.90295 4.5 5.4 4.5H10.5V2.5H2.5V10.5H4.5ZM5.5 5.5V13.5H13.5V5.5H5.5ZM9.5 7C9.77614 7 10 7.22386 10 7.5V9H11.5C11.7761 9 12 9.22386 12 9.5C12 9.77614 11.7761 10 11.5 10H10V11.5C10 11.7761 9.77614 12 9.5 12C9.22386 12 9 11.7761 9 11.5V10H7.5C7.22386 10 7 9.77614 7 9.5C7 9.22386 7.22386 9 7.5 9H9V7.5C9 7.22386 9.22386 7 9.5 7Z" fill="white"/>
</svg>
