<svg width="24" height="24" viewBox="0 0 24 24" fill="none" xmlns="http://www.w3.org/2000/svg">
<path fill-rule="evenodd" clip-rule="evenodd" d="M2.825 4.49995C2.825 3.57487 3.57492 2.82495 4.5 2.82495H15.5C16.4251 2.82495 17.175 3.57487 17.175 4.49995V6.82495H19.5C20.4251 6.82495 21.175 7.57487 21.175 8.49995V19.5C21.175 20.425 20.4251 21.1749 19.5 21.1749H8.5C7.57492 21.1749 6.825 20.425 6.825 19.5V17.175H4.5C3.57492 17.175 2.825 16.425 2.825 15.5V4.49995ZM6.825 15.825V8.49995C6.825 7.57487 7.57492 6.82495 8.5 6.82495H15.825V4.49995C15.825 4.32046 15.6795 4.17495 15.5 4.17495H4.5C4.3205 4.17495 4.175 4.32046 4.175 4.49995V15.5C4.175 15.6794 4.3205 15.825 4.5 15.825H6.825ZM8.5 8.17495C8.3205 8.17495 8.175 8.32046 8.175 8.49995V19.5C8.175 19.6794 8.3205 19.825 8.5 19.825H19.5C19.6795 19.825 19.825 19.6794 19.825 19.5V8.49995C19.825 8.32046 19.6795 8.17495 19.5 8.17495H8.5ZM14 9.82495C14.3728 9.82495 14.675 10.1272 14.675 10.5V13.325H17.5C17.8728 13.325 18.175 13.6272 18.175 14C18.175 14.3727 17.8728 14.675 17.5 14.675H14.675V17.5C14.675 17.8727 14.3728 18.175 14 18.175C13.6272 18.175 13.325 17.8727 13.325 17.5V14.675H10.5C10.1272 14.675 9.825 14.3727 9.825 14C9.825 13.6272 10.1272 13.325 10.5 13.325H13.325V10.5C13.325 10.1272 13.6272 9.82495 14 9.82495Z" fill="white"/>
</svg>
