<svg width="16" height="16" viewBox="0 0 16 16" fill="none" xmlns="http://www.w3.org/2000/svg">
<path fill-rule="evenodd" clip-rule="evenodd" d="M3.14645 8.5286C2.95118 8.33334 2.95118 8.01676 3.14645 7.8215L7.64645 3.32149C7.74395 3.22399 7.87171 3.17517 7.99951 3.17505L3.5 3.17505C3.22386 3.17505 3 2.95119 3 2.67505C3 2.39891 3.22386 2.17505 3.5 2.17505L12.5 2.17505C12.7761 2.17505 13 2.39891 13 2.67505C13 2.95119 12.7761 3.17505 12.5 3.17505L8.00049 3.17505C8.12829 3.17517 8.25605 3.22399 8.35355 3.32149L12.8536 7.8215C13.0488 8.01676 13.0488 8.33334 12.8536 8.5286C12.6583 8.72386 12.3417 8.72386 12.1464 8.5286L8.5 4.88216L8.5 13.675C8.5 13.9512 8.27614 14.175 8 14.175C7.72386 14.175 7.5 13.9512 7.5 13.675L7.5 4.88216L3.85355 8.5286C3.65829 8.72386 3.34171 8.72386 3.14645 8.5286Z" fill="white"/>
</svg>
