<svg width="24" height="24" viewBox="0 0 24 24" fill="none" xmlns="http://www.w3.org/2000/svg">
<path fill-rule="evenodd" clip-rule="evenodd" d="M5.0229 12.6519C4.75929 12.3883 4.75929 11.9609 5.0229 11.6973L11.5229 5.19731C11.7865 4.93371 12.2139 4.93371 12.4775 5.19731L18.9775 11.6973C19.2411 11.9609 19.2411 12.3883 18.9775 12.6519C18.7139 12.9155 18.2865 12.9155 18.0229 12.6519L12.6752 7.3042L12.6752 20.1746C12.6752 20.5474 12.373 20.8496 12.0002 20.8496C11.6274 20.8496 11.3252 20.5474 11.3252 20.1746L11.3252 7.3042L5.97749 12.6519C5.71389 12.9155 5.2865 12.9155 5.0229 12.6519ZM5.50019 4.84961C5.1274 4.84961 4.8252 4.5474 4.8252 4.17461C4.8252 3.80182 5.1274 3.49961 5.50019 3.49961L18.5002 3.49961C18.873 3.49961 19.1752 3.80182 19.1752 4.17461C19.1752 4.5474 18.873 4.84961 18.5002 4.84961L5.50019 4.84961Z" fill="white"/>
</svg>
