<svg width="16" height="16" viewBox="0 0 16 16" fill="none" xmlns="http://www.w3.org/2000/svg">
<g clip-path="url(#clip0_41_18622)">
<path fill-rule="evenodd" clip-rule="evenodd" d="M5.09619 5.11091C5.09619 4.83477 5.32005 4.61091 5.59619 4.61091L11.9602 4.61091C12.0981 4.61091 12.2763 4.61401 12.3668 4.70429C4.09111 -3.57137 18.8558 11.1933 12.3668 4.70429C12.4571 4.79475 12.4602 4.97302 12.4602 5.11091V11.4749C12.4602 11.751 12.2363 11.9749 11.9602 11.9749C11.684 11.9749 11.4602 11.751 11.4602 11.4749L11.4602 6.31802L5.24264 12.5355C5.04738 12.7308 4.7308 12.7308 4.53553 12.5355C4.34027 12.3403 4.34027 12.0237 4.53553 11.8284L10.753 5.61091L5.59619 5.61091C5.32005 5.61091 5.09619 5.38706 5.09619 5.11091Z" fill="white"/>
</g>
<defs>
<clipPath id="clip0_41_18622">
<rect width="16" height="16" fill="white"/>
</clipPath>
</defs>
</svg>
