<svg width="24" height="24" viewBox="0 0 24 24" fill="none" xmlns="http://www.w3.org/2000/svg">
<path fill-rule="evenodd" clip-rule="evenodd" d="M3 7.5C3 5.567 4.567 4 6.5 4H17.5C19.433 4 21 5.567 21 7.5V16.5C21 18.433 19.433 20 17.5 20H13.1716L8.80697 23.3947C8.65623 23.5119 8.45187 23.5331 8.28032 23.4492C8.10878 23.3653 8 23.191 8 23V20H6.5C4.567 20 3 18.433 3 16.5V7.5ZM10.9 9.4072C10.9 9.28256 10.9571 9.06802 11.1143 8.89364C11.2478 8.74554 11.4989 8.5749 12 8.5749C12.5011 8.5749 12.7522 8.74554 12.8857 8.89365C13.0429 9.06803 13.1 9.28257 13.1 9.4072C13.1 9.71017 12.9294 9.93856 12.3918 10.4312L12.3369 10.4815C12.1141 10.685 11.822 10.9518 11.5926 11.2575C11.3256 11.6133 11.1 12.0743 11.1 12.6565V13.1749C11.1 13.672 11.5029 14.0749 12 14.0749C12.497 14.0749 12.9 13.672 12.9 13.1749V12.6565C12.9 12.5725 12.9243 12.4818 13.0323 12.3378C13.1571 12.1715 13.332 12.0112 13.5989 11.7666L13.6414 11.7277C14.1092 11.2996 14.9 10.576 14.9 9.4072C14.9 8.86517 14.696 8.21355 14.2226 7.68846C13.7256 7.13708 12.9767 6.7749 12 6.7749C11.0232 6.7749 10.2743 7.13708 9.77727 7.68846C9.30394 8.21356 9.09998 8.86518 9.09998 9.4072C9.09998 9.90426 9.50292 10.3072 9.99998 10.3072C10.497 10.3072 10.9 9.90426 10.9 9.4072ZM12 16.6749C12.5523 16.6749 13 16.2272 13 15.6749C13 15.1226 12.5523 14.6749 12 14.6749C11.4477 14.6749 11 15.1226 11 15.6749C11 16.2272 11.4477 16.6749 12 16.6749Z" fill="white"/>
</svg>
