<svg width="16" height="16" viewBox="0 0 16 16" fill="none" xmlns="http://www.w3.org/2000/svg">
<g clip-path="url(#clip0_41_17855)">
<path fill-rule="evenodd" clip-rule="evenodd" d="M4 2.5C2.89543 2.5 2 3.39543 2 4.5V11.5C2 12.6046 2.89543 13.5 4 13.5H5V15.5C5 15.694 5.11223 15.8705 5.28792 15.9528C5.46361 16.0351 5.67105 16.0083 5.82009 15.8841L8.68102 13.5H12C13.1046 13.5 14 12.6046 14 11.5V4.5C14 3.39543 13.1046 2.5 12 2.5H4ZM7.26665 6.31981C7.26665 6.23671 7.30471 6.09369 7.40951 5.97743C7.49851 5.8787 7.6659 5.76494 7.99997 5.76494C8.33404 5.76494 8.50144 5.8787 8.59044 5.97744C8.69524 6.0937 8.7333 6.23672 8.7333 6.31981C8.7333 6.52178 8.61958 6.67405 8.26123 7.0025L8.2246 7.03599C8.07605 7.17166 7.88132 7.34951 7.72838 7.55334C7.55039 7.79055 7.39997 8.09788 7.39997 8.48601V8.83161C7.39997 9.16298 7.6686 9.43161 7.99997 9.43161C8.33134 9.43161 8.59997 9.16298 8.59997 8.83161V8.48601C8.59997 8.43002 8.61621 8.36952 8.68822 8.27354C8.77141 8.16268 8.88801 8.05581 9.06593 7.89274L9.09424 7.86682C9.40611 7.58144 9.9333 7.09903 9.9333 6.31981C9.9333 5.95845 9.79732 5.52404 9.48176 5.17398C9.15041 4.80639 8.65114 4.56494 7.99997 4.56494C7.34879 4.56494 6.84953 4.80639 6.51818 5.17398C6.20262 5.52405 6.06665 5.95846 6.06665 6.31981C6.06665 6.65118 6.33528 6.91981 6.66665 6.91981C6.99802 6.91981 7.26665 6.65118 7.26665 6.31981ZM8.00007 11.165C8.36826 11.165 8.66674 10.8666 8.66674 10.4984C8.66674 10.1302 8.36826 9.8317 8.00007 9.8317C7.63188 9.8317 7.33341 10.1302 7.33341 10.4984C7.33341 10.8666 7.63188 11.165 8.00007 11.165Z" fill="white"/>
</g>
<defs>
<clipPath id="clip0_41_17855">
<rect width="16" height="16" fill="white"/>
</clipPath>
</defs>
</svg>
