<svg width="24" height="24" viewBox="0 0 24 24" fill="none" xmlns="http://www.w3.org/2000/svg">
<path d="M9.3252 9.6752C9.3252 8.36853 10.2749 7.0002 12.0002 7.0002C13.5999 7.0002 14.9266 8.20406 14.6662 9.78489C14.5063 10.7556 13.9078 11.285 13.4856 11.6584C13.44 11.6987 13.3964 11.7372 13.3557 11.7742C13.1338 11.9762 12.9757 12.1417 12.8641 12.3403C12.7588 12.5276 12.6752 12.7807 12.6752 13.1752C12.6752 13.548 12.373 13.8502 12.0002 13.8502C11.6274 13.8502 11.3252 13.548 11.3252 13.1752C11.3252 12.5697 11.4587 12.0853 11.6873 11.6787C11.9094 11.2835 12.202 10.9989 12.4471 10.7758C12.49 10.7368 12.5313 10.6994 12.571 10.6636C13.0094 10.2677 13.255 10.046 13.3342 9.56551C13.4266 9.0042 12.9799 8.3502 12.0002 8.3502C11.1461 8.3502 10.6752 8.98187 10.6752 9.6752C10.6752 10.048 10.373 10.3502 10.0002 10.3502C9.6274 10.3502 9.3252 10.048 9.3252 9.6752Z" fill="white"/>
<path d="M12.0002 16.6752C12.5525 16.6752 13.0002 16.2275 13.0002 15.6752C13.0002 15.123 12.5525 14.6752 12.0002 14.6752C11.448 14.6752 11.0002 15.123 11.0002 15.6752C11.0002 16.2275 11.448 16.6752 12.0002 16.6752Z" fill="white"/>
<path fill-rule="evenodd" clip-rule="evenodd" d="M6.5002 3.8252C4.47055 3.8252 2.8252 5.47055 2.8252 7.5002V16.5002C2.8252 18.5298 4.47055 20.1752 6.5002 20.1752H7.8252V23.0002C7.8252 23.258 7.97204 23.4933 8.20363 23.6066C8.43522 23.7198 8.71111 23.6913 8.91461 23.533L13.2318 20.1752H17.5002C19.5298 20.1752 21.1752 18.5298 21.1752 16.5002V7.5002C21.1752 5.47055 19.5298 3.8252 17.5002 3.8252H6.5002ZM4.1752 7.5002C4.1752 6.21613 5.21613 5.1752 6.5002 5.1752H17.5002C18.7843 5.1752 19.8252 6.21613 19.8252 7.5002V16.5002C19.8252 17.7843 18.7843 18.8252 17.5002 18.8252H13.0002C12.8501 18.8252 12.7043 18.8752 12.5858 18.9674L9.1752 21.6201V19.5002C9.1752 19.1274 8.87299 18.8252 8.5002 18.8252H6.5002C5.21613 18.8252 4.1752 17.7843 4.1752 16.5002V7.5002Z" fill="white"/>
</svg>
