<svg width="16" height="16" viewBox="0 0 16 16" fill="none" xmlns="http://www.w3.org/2000/svg">
<g clip-path="url(#clip0_41_17854)">
<path d="M6.16699 6.43599C6.16699 5.54216 6.81783 4.60266 8.00033 4.60266C9.08978 4.60266 10.0068 5.4256 9.82701 6.51725C9.71739 7.18287 9.30503 7.54712 9.02366 7.79566C8.99332 7.82247 8.96442 7.84799 8.93767 7.87234C8.79058 8.0062 8.69017 8.11209 8.61982 8.23723C8.55419 8.35396 8.50033 8.51418 8.50033 8.76933C8.50033 9.04547 8.27648 9.26933 8.00033 9.26933C7.72419 9.26933 7.50033 9.04547 7.50033 8.76933C7.50033 8.35781 7.59119 8.02633 7.74812 7.74718C7.90033 7.47643 8.10032 7.28226 8.2646 7.13275L8.34507 7.05985C8.63966 6.79356 8.79049 6.65722 8.84031 6.35474C8.89572 6.0183 8.6305 5.60266 8.00033 5.60266C7.46323 5.60266 7.16699 5.99649 7.16699 6.43599C7.16699 6.71214 6.94313 6.93599 6.66699 6.93599C6.39085 6.93599 6.16699 6.71214 6.16699 6.43599Z" fill="white"/>
<path d="M8.00004 11.166C8.36823 11.166 8.66671 10.8675 8.66671 10.4993C8.66671 10.1311 8.36823 9.83264 8.00004 9.83264C7.63185 9.83264 7.33337 10.1311 7.33337 10.4993C7.33337 10.8675 7.63185 11.166 8.00004 11.166Z" fill="white"/>
<path fill-rule="evenodd" clip-rule="evenodd" d="M4 2.5C2.89543 2.5 2 3.39543 2 4.5V11.5C2 12.6046 2.89543 13.5 4 13.5H5V15.5C5 15.694 5.11223 15.8705 5.28792 15.9528C5.46361 16.0351 5.67105 16.0083 5.82009 15.8841L8.68102 13.5H12C13.1046 13.5 14 12.6046 14 11.5V4.5C14 3.39543 13.1046 2.5 12 2.5H4ZM3 4.5C3 3.94772 3.44772 3.5 4 3.5H12C12.5523 3.5 13 3.94772 13 4.5V11.5C13 12.0523 12.5523 12.5 12 12.5H8.5C8.38303 12.5 8.26977 12.541 8.17991 12.6159L6 14.4325V13C6 12.7239 5.77614 12.5 5.5 12.5H4C3.44772 12.5 3 12.0523 3 11.5V4.5Z" fill="white"/>
</g>
<defs>
<clipPath id="clip0_41_17854">
<rect width="16" height="16" fill="white"/>
</clipPath>
</defs>
</svg>
