<svg width="24" height="24" viewBox="0 0 24 24" fill="none" xmlns="http://www.w3.org/2000/svg">
<path fill-rule="evenodd" clip-rule="evenodd" d="M12 4.17495C10.4397 4.17495 9.17495 5.43975 9.17495 6.99995C9.17495 8.56016 10.4397 9.82495 12 9.82495C13.5602 9.82495 14.825 8.56016 14.825 6.99995C14.825 5.43975 13.5602 4.17495 12 4.17495ZM7.82495 6.99995C7.82495 4.69416 9.69416 2.82495 12 2.82495C14.3057 2.82495 16.175 4.69416 16.175 6.99995C16.175 9.30574 14.3057 11.175 12 11.175C9.69416 11.175 7.82495 9.30574 7.82495 6.99995ZM12 13.175C8.19629 13.175 5.17495 16.0899 5.17495 19.6111C5.17495 19.7292 5.27071 19.825 5.38884 19.825H18.6111C18.7292 19.825 18.825 19.7292 18.825 19.6111C18.825 16.0899 15.8036 13.175 12 13.175ZM3.82495 19.6111C3.82495 15.2775 7.51934 11.825 12 11.825C16.4806 11.825 20.175 15.2775 20.175 19.6111C20.175 20.4748 19.4748 21.1749 18.6111 21.1749H5.38884C4.52513 21.1749 3.82495 20.4748 3.82495 19.6111Z" fill="white"/>
</svg>
