<svg width="16" height="16" viewBox="0 0 16 16" fill="none" xmlns="http://www.w3.org/2000/svg">
<path fill-rule="evenodd" clip-rule="evenodd" d="M6.49951 3V3.29073C5.03354 3.8841 3.99949 5.3213 3.99949 7V8C3.99949 9.49572 3.55749 10.735 2.1464 12.1465C2.00344 12.2895 1.96069 12.5046 2.03809 12.6914C2.11549 12.8782 2.2978 13 2.50001 13H13.499C13.7012 13 13.8835 12.8782 13.9609 12.6914C14.0383 12.5046 13.9955 12.2895 13.8526 12.1465C12.4416 10.735 11.9995 9.49569 11.9995 7.99998L11.9995 6.99998C11.9995 5.32131 10.9655 3.88414 9.49951 3.29075V3C9.49951 2.17157 8.82794 1.5 7.99951 1.5C7.17108 1.5 6.49951 2.17157 6.49951 3ZM7.99951 2.5C7.72337 2.5 7.49951 2.72386 7.49951 3V3.03094C7.6633 3.01052 7.83016 3 7.99949 3C8.16883 3 8.33571 3.01052 8.49951 3.03095V3C8.49951 2.72386 8.27565 2.5 7.99951 2.5Z" fill="white"/>
<path d="M7.9994 15C7.16005 15 6.44147 14.483 6.14478 13.75H9.85402C9.55732 14.483 8.83874 15 7.9994 15Z" fill="white"/>
</svg>
