<svg width="24" height="24" viewBox="0 0 24 24" fill="none" xmlns="http://www.w3.org/2000/svg">
<path fill-rule="evenodd" clip-rule="evenodd" d="M11.1839 4.87848C11.4511 4.84316 11.7235 4.82495 12 4.82495C12.2764 4.82495 12.5488 4.84316 12.8161 4.87848C12.7574 4.48044 12.4143 4.17495 12 4.17495C11.5856 4.17495 11.2426 4.48044 11.1839 4.87848ZM14.175 5.21909V4.99995C14.175 3.79873 13.2012 2.82495 12 2.82495C10.7988 2.82495 9.82497 3.79873 9.82497 4.99995V5.21909C7.48819 6.09876 5.82499 8.35431 5.82497 10.9999C5.82497 10.9999 5.82497 10.9999 5.82497 10.9999L5.82489 11.9999C5.82489 14.3958 4.88281 16.6625 3.52267 18.0227C3.32963 18.2157 3.27188 18.506 3.37635 18.7583C3.48083 19.0105 3.72696 19.175 3.99997 19.175H8.82971C8.92055 20.8471 10.3052 22.1749 12 22.1749C13.6948 22.1749 15.0794 20.8471 15.1702 19.175H20C20.273 19.175 20.5191 19.0105 20.6236 18.7583C20.7281 18.506 20.6703 18.2157 20.4773 18.0227C19.1171 16.6625 18.1749 14.3959 18.1749 12C18.1749 12 18.1749 12 18.1749 12L18.175 11C18.175 8.3544 16.5118 6.09877 14.175 5.21909ZM13.8167 19.175H10.1833C10.2713 20.1008 11.0511 20.825 12 20.825C12.9489 20.825 13.7286 20.1008 13.8167 19.175ZM12 6.17495C11.5427 6.17495 11.1013 6.23838 10.6837 6.3565C8.65812 6.92939 7.17497 8.79231 7.17497 11L7.17489 12C7.17489 11.9999 7.17489 12 7.17489 12C7.17488 14.1456 6.51401 16.234 5.42718 17.825H18.5727C17.4859 16.234 16.8249 14.1457 16.8249 12L16.825 11C16.825 10.9999 16.825 11 16.825 11C16.8249 8.79234 15.3418 6.92938 13.3163 6.3565C12.8986 6.23838 12.4573 6.17495 12 6.17495Z" fill="white"/>
</svg>
