<svg width="16" height="16" viewBox="0 0 16 16" fill="none" xmlns="http://www.w3.org/2000/svg">
<path fill-rule="evenodd" clip-rule="evenodd" d="M7.99953 2.5C7.72338 2.5 7.49953 2.72386 7.49953 3V3.03099C7.66344 3.01053 7.83032 3 7.99949 3C8.16868 3 8.33558 3.01053 8.49953 3.031V3C8.49953 2.72386 8.27567 2.5 7.99953 2.5ZM9.49953 3.29091V3C9.49953 2.17157 8.82795 1.5 7.99953 1.5C7.1711 1.5 6.49953 2.17157 6.49953 3V3.29088C5.0339 3.88416 3.99949 5.32073 3.99949 7V8C3.99949 9.49572 3.55749 10.735 2.1464 12.1465C2.00344 12.2895 1.96069 12.5046 2.03809 12.6914C2.11549 12.8782 2.2978 13 2.50001 13H5.99953C5.99953 14.1046 6.89496 15 7.99953 15C9.1041 15 9.99953 14.1046 9.99953 13H13.499C13.7012 13 13.8835 12.8782 13.9609 12.6914C14.0383 12.5046 13.9955 12.2895 13.8526 12.1465C12.4416 10.735 11.9995 9.49571 11.9995 8L11.9995 7C11.9995 6.99999 11.9995 7.00001 11.9995 7C11.9995 5.32077 10.9651 3.88421 9.49953 3.29091ZM8.99953 13H6.99953C6.99953 13.5523 7.44724 14 7.99953 14C8.55181 14 8.99953 13.5523 8.99953 13ZM7.99949 4C7.70081 4 7.41318 4.04349 7.14214 4.12415C5.90252 4.49304 4.99949 5.6417 4.99949 7V8C4.99949 9.45475 4.62494 10.7175 3.61619 12H12.3828C11.3741 10.7175 10.9995 9.45477 10.9995 8.00002C10.9995 8.00001 10.9995 8.00003 10.9995 8.00002L10.9995 7.00002C10.9995 5.64175 10.0965 4.49308 8.8569 4.12417C8.58584 4.0435 8.29819 4 7.99949 4Z" fill="white"/>
</svg>
