<svg width="24" height="24" viewBox="0 0 24 24" fill="none" xmlns="http://www.w3.org/2000/svg">
<path fill-rule="evenodd" clip-rule="evenodd" d="M9.82524 5.0002V5.21907C7.48802 6.0988 5.82524 8.35524 5.82522 11.0001L5.82513 12.0001C5.82513 14.3961 4.88306 16.6627 3.52292 18.0229C3.32987 18.2159 3.27212 18.5062 3.3766 18.7585C3.48107 19.0107 3.7272 19.1751 4.00022 19.1751H20.0002C20.2732 19.1751 20.5194 19.0107 20.6238 18.7585C20.7283 18.5062 20.6706 18.2159 20.4775 18.0229C19.1174 16.6627 18.1751 14.396 18.1751 12.0001L18.1752 11.0001C18.1752 8.35529 16.5125 6.09884 14.1752 5.21909V5.0002C14.1752 3.79898 13.2015 2.8252 12.0002 2.8252C10.799 2.8252 9.82524 3.79898 9.82524 5.0002ZM12.0002 4.1752C11.5859 4.1752 11.2429 4.48061 11.1841 4.87859C11.4512 4.84334 11.7236 4.82515 12.0002 4.82515C12.2769 4.82515 12.5493 4.84334 12.8163 4.8786C12.7576 4.48062 12.4146 4.1752 12.0002 4.1752Z" fill="white"/>
<path d="M12.0001 22.1752C10.596 22.1752 9.40482 21.2638 8.98584 20.0002H15.0144C14.5955 21.2638 13.4042 22.1752 12.0001 22.1752Z" fill="white"/>
</svg>
