<svg width="24" height="24" viewBox="0 0 24 24" fill="none" xmlns="http://www.w3.org/2000/svg">
<path fill-rule="evenodd" clip-rule="evenodd" d="M1.82501 5.49995C1.82501 4.57487 2.57494 3.82495 3.50001 3.82495H18.5C19.4105 3.82495 20.2682 4.00804 20.9232 4.33555C21.5378 4.64288 22.175 5.19233 22.175 5.99995V20C22.175 20.8076 21.5378 21.357 20.9232 21.6643C20.2682 21.9919 19.4105 22.1749 18.5 22.1749C18.1272 22.1749 17.825 21.8727 17.825 21.5V20.175H3.50001C2.57494 20.175 1.82501 19.425 1.82501 18.5V5.49995ZM17.825 18.825V7.49995C17.825 7.12716 18.1272 6.82495 18.5 6.82495C19.2464 6.82495 19.8887 6.67225 20.3195 6.45687C20.7906 6.2213 20.825 6.02076 20.825 5.99995C20.825 5.97915 20.7906 5.7786 20.3195 5.54303C19.8887 5.32765 19.2464 5.17495 18.5 5.17495H3.50001C3.32052 5.17495 3.17501 5.32046 3.17501 5.49995V18.5C3.17501 18.6794 3.32052 18.825 3.50001 18.825H17.825ZM20.825 7.71166C20.3534 7.93062 19.7863 8.07806 19.175 8.14078V20.7818C19.6323 20.7218 20.0252 20.604 20.3195 20.4569C20.7906 20.2213 20.825 20.0208 20.825 20V7.71166ZM5.82501 8.49995C5.82501 8.12716 6.12722 7.82495 6.50001 7.82495H12.5C12.8728 7.82495 13.175 8.12716 13.175 8.49995C13.175 8.87274 12.8728 9.17495 12.5 9.17495H11.675V14.825H14.325V12.675H13.5C13.1272 12.675 12.825 12.3727 12.825 12C12.825 11.6272 13.1272 11.325 13.5 11.325H14.325V10.5C14.325 10.1272 14.6272 9.82495 15 9.82495C15.3728 9.82495 15.675 10.1272 15.675 10.5V15.5C15.675 15.8727 15.3728 16.175 15 16.175H6.50001C6.12722 16.175 5.82501 15.8727 5.82501 15.5V8.49995ZM10.325 14.825V12.675H7.17501V14.825H10.325ZM7.17501 11.325H10.325V9.17495H7.17501V11.325Z" fill="white"/>
</svg>
