<svg width="16" height="16" viewBox="0 0 16 16" fill="none" xmlns="http://www.w3.org/2000/svg">
<path fill-rule="evenodd" clip-rule="evenodd" d="M1.5 3.4C1.5 2.90294 1.90294 2.5 2.4 2.5H12.5C13.1131 2.5 13.6928 2.62319 14.1378 2.84568C14.5529 3.05322 15 3.43244 15 4V13C15 13.5676 14.5529 13.9468 14.1378 14.1543C13.6928 14.3768 13.1131 14.5 12.5 14.5C12.2239 14.5 12 14.2761 12 14V13.5H2.4C1.90295 13.5 1.5 13.0971 1.5 12.6V3.4ZM13 13.4637C13.2758 13.4225 13.5122 13.3491 13.6906 13.2599C13.8299 13.1902 13.9155 13.1202 13.9611 13.0663C13.9829 13.0405 13.9926 13.022 13.9966 13.0122C13.9979 13.009 13.9987 13.0066 13.9992 13.0049C13.9994 13.004 13.9996 13.0032 13.9997 13.0027C14 13.0013 14 13.0005 14 13V5.21823C13.7068 5.34419 13.3653 5.43074 13 5.47211V13.4637ZM14 4C14 4.00053 14 4.0013 13.9997 4.00272C13.9994 4.0042 13.9986 4.00728 13.9966 4.01215C13.9926 4.02202 13.9829 4.04053 13.9611 4.06632C13.9155 4.12023 13.8299 4.19025 13.6906 4.25989C13.4117 4.39933 12.9915 4.5 12.5 4.5C12.2239 4.5 12 4.72386 12 5V12.5H2.5V3.5H12.5C12.9915 3.5 13.4117 3.60067 13.6906 3.74011C13.8299 3.80975 13.9155 3.87977 13.9611 3.93368C13.9829 3.95947 13.9926 3.97798 13.9966 3.98785C13.9986 3.99272 13.9994 3.9958 13.9997 3.99728C14 3.9987 14 3.99947 14 4ZM4 5.5C4 5.22386 4.22386 5 4.5 5H8.5C8.77614 5 9 5.22386 9 5.5C9 5.77614 8.77614 6 8.5 6H8V10H9.5V8.5H9C8.72386 8.5 8.5 8.27614 8.5 8C8.5 7.72386 8.72386 7.5 9 7.5H9.5V7C9.5 6.72386 9.72386 6.5 10 6.5C10.2761 6.5 10.5 6.72386 10.5 7V10.5C10.5 10.7761 10.2761 11 10 11H4.5C4.22386 11 4 10.7761 4 10.5V5.5ZM7 10V8.5H5V10H7ZM5 7.5H7V6H5V7.5Z" fill="white"/>
</svg>
