<svg width="16" height="16" viewBox="0 0 16 16" fill="none" xmlns="http://www.w3.org/2000/svg">
<path d="M7 8.5V10H5V8.5H7Z" fill="white"/>
<path d="M7 7.5H5V6H7V7.5Z" fill="white"/>
<path fill-rule="evenodd" clip-rule="evenodd" d="M12.5 3C13.8807 3 15 3.67157 15 4.5C15 5.32843 13.8807 6 12.5 6C12.2239 6 12 6.22386 12 6.5V13H2.8999C2.40283 13 2 12.597 2 12.1V3.90002C2 3.40295 2.40283 3 2.8999 3H12.5ZM4.5 5C4.22386 5 4 5.22386 4 5.5V10.5C4 10.7761 4.22386 11 4.5 11H10C10.2761 11 10.5 10.7761 10.5 10.5V7C10.5 6.72386 10.2761 6.5 10 6.5C9.72386 6.5 9.5 6.72386 9.5 7V7.5H9C8.72386 7.5 8.5 7.72386 8.5 8C8.5 8.27614 8.72386 8.5 9 8.5H9.5V10H8V6H8.5C8.77614 6 9 5.77614 9 5.5C9 5.22386 8.77614 5 8.5 5H4.5Z" fill="white"/>
<path d="M14.7823 6.4181C14.2764 6.72162 13.6575 6.9118 13 6.9758V13.9699C14.1411 13.831 15 13.2256 15 12.4999V6.27478C14.9282 6.3265 14.8553 6.37428 14.7823 6.4181Z" fill="white"/>
</svg>
