<svg width="24" height="24" viewBox="0 0 24 24" fill="none" xmlns="http://www.w3.org/2000/svg">
<path d="M10.325 12.675V14.825H7.175V12.675H10.325Z" fill="white"/>
<path d="M10.325 11.325H7.175V9.17495H10.325V11.325Z" fill="white"/>
<path fill-rule="evenodd" clip-rule="evenodd" d="M19.5 4H3.5C2.67163 4 2 4.67157 2 5.5V18.5C2 19.3284 2.67163 20 3.5 20H18.825V8.6393C18.825 8.27851 19.1392 8.00002 19.5 8.00002C21.433 8.00002 23 7.10459 23 6.00002C23 4.89545 21.433 4 19.5 4ZM6.5 7.82495C6.1272 7.82495 5.825 8.12716 5.825 8.49995V15.5C5.825 15.8727 6.1272 16.175 6.5 16.175H15C15.3728 16.175 15.675 15.8727 15.675 15.5V10.5C15.675 10.1272 15.3728 9.82495 15 9.82495C14.6272 9.82495 14.325 10.1272 14.325 10.5V11.325H13.5C13.1272 11.325 12.825 11.6272 12.825 12C12.825 12.3727 13.1272 12.675 13.5 12.675H14.325V14.825H11.675V9.17495H12.5C12.8728 9.17495 13.175 8.87274 13.175 8.49995C13.175 8.12716 12.8728 7.82495 12.5 7.82495H6.5Z" fill="white"/>
<path d="M22.6447 8.58634C21.9436 8.98692 21.0859 9.23694 20.1749 9.31962V21.9628C21.785 21.7831 23 20.9726 23 20V8.35962C22.8825 8.44302 22.7632 8.5186 22.6447 8.58634Z" fill="white"/>
</svg>
