<svg width="20" height="20" viewBox="0 0 20 20" fill="none" xmlns="http://www.w3.org/2000/svg">
<path d="M12.517 13.9412C12.1846 13.8047 11.8209 13.6554 11.4234 13.4874C11.393 13.4769 11.3662 13.4594 11.344 13.4361C11.2694 13.3568 11.2729 13.232 11.3522 13.1573C11.9588 12.6009 12.3135 11.8218 12.3345 10.9994V9.83297C12.3345 9.80964 12.3345 9.78515 12.3333 9.76182C12.2948 8.47407 11.2192 7.46159 9.93121 7.50009C8.64556 7.5759 7.64808 8.6502 7.66791 9.93679V10.9994C7.68774 11.8218 8.04007 12.5998 8.64556 13.1573C8.66889 13.1783 8.68639 13.204 8.69689 13.2332C8.73539 13.3346 8.68406 13.4489 8.58256 13.4874C8.18487 13.6553 7.82106 13.8045 7.48852 13.9409C4.8265 15.0328 4.16797 15.3029 4.16797 17.7351V17.7491C4.16797 18.0711 4.4293 18.3324 4.75129 18.3324H15.2651C15.5871 18.3242 15.8426 18.0571 15.8344 17.7351C15.8344 15.303 15.1762 15.0328 12.517 13.9412Z" fill="white"/>
<g opacity="0.5">
<path d="M12.6264 2.49935C12.6264 2.95959 12.2533 3.33268 11.7931 3.33268C11.3329 3.33268 10.9598 2.95959 10.9598 2.49935C10.9598 2.03911 11.3329 1.66602 11.7931 1.66602C12.2533 1.66602 12.6264 2.03911 12.6264 2.49935Z" fill="white"/>
<path d="M12.8348 5.83268C12.8348 6.40798 12.3684 6.87435 11.7931 6.87435C11.2178 6.87435 10.7514 6.40798 10.7514 5.83268C10.7514 5.25739 11.2178 4.79102 11.7931 4.79102C12.3684 4.79102 12.8348 5.25739 12.8348 5.83268Z" fill="white"/>
<path d="M8.20972 6.87435C8.78501 6.87435 9.25138 6.40798 9.25138 5.83268C9.25138 5.25739 8.78501 4.79102 8.20972 4.79102C7.63442 4.79102 7.16805 5.25739 7.16805 5.83268C7.16805 6.40798 7.63442 6.87435 8.20972 6.87435Z" fill="white"/>
<path d="M9.04305 2.49935C9.04305 2.95959 8.66995 3.33268 8.20972 3.33268C7.74948 3.33268 7.37638 2.95959 7.37638 2.49935C7.37638 2.03911 7.74948 1.66602 8.20972 1.66602C8.66995 1.66602 9.04305 2.03911 9.04305 2.49935Z" fill="white"/>
<path d="M4.62634 6.77018C5.14411 6.77018 5.56384 6.35045 5.56384 5.83268C5.56384 5.31492 5.14411 4.89518 4.62634 4.89518C4.10858 4.89518 3.68884 5.31492 3.68884 5.83268C3.68884 6.35045 4.10858 6.77018 4.62634 6.77018Z" fill="white"/>
<path d="M4.62634 8.3985C5.20164 8.3985 5.66801 8.86487 5.66801 9.44017C5.66801 10.0155 5.20164 10.4818 4.62634 10.4818C4.05105 10.4818 3.58468 10.0155 3.58468 9.44017C3.58468 8.86487 4.05105 8.3985 4.62634 8.3985Z" fill="white"/>
<path d="M5.35551 2.49935C5.35551 2.09664 5.02905 1.77018 4.62634 1.77018C4.22364 1.77018 3.89718 2.09664 3.89718 2.49935C3.89718 2.90206 4.22364 3.22852 4.62634 3.22852C5.02905 3.22852 5.35551 2.90206 5.35551 2.49935Z" fill="white"/>
<path d="M4.62634 12.006C5.20164 12.006 5.66801 12.4724 5.66801 13.0476C5.66801 13.6229 5.20164 14.0893 4.62634 14.0893C4.05105 14.0893 3.58468 13.6229 3.58468 13.0476C3.58468 12.4724 4.05105 12.006 4.62634 12.006Z" fill="white"/>
<path d="M15.3765 6.77018C15.8942 6.77018 16.314 6.35045 16.314 5.83268C16.314 5.31492 15.8942 4.89518 15.3765 4.89518C14.8587 4.89518 14.439 5.31492 14.439 5.83268C14.439 6.35045 14.8587 6.77018 15.3765 6.77018Z" fill="white"/>
<path d="M15.3765 1.77018C15.7792 1.77018 16.1056 2.09664 16.1056 2.49935C16.1056 2.90206 15.7792 3.22852 15.3765 3.22852C14.9738 3.22852 14.6473 2.90206 14.6473 2.49935C14.6473 2.09664 14.9738 1.77018 15.3765 1.77018Z" fill="white"/>
<path d="M16.4181 9.44017C16.4181 8.86487 15.9518 8.3985 15.3765 8.3985C14.8012 8.3985 14.3348 8.86487 14.3348 9.44017C14.3348 10.0155 14.8012 10.4818 15.3765 10.4818C15.9518 10.4818 16.4181 10.0155 16.4181 9.44017Z" fill="white"/>
<path d="M15.3765 12.006C15.9518 12.006 16.4181 12.4724 16.4181 13.0476C16.4181 13.6229 15.9518 14.0893 15.3765 14.0893C14.8012 14.0893 14.3348 13.6229 14.3348 13.0476C14.3348 12.4724 14.8012 12.006 15.3765 12.006Z" fill="white"/>
<path d="M2.08464 9.44017C2.08464 8.97993 1.71154 8.60683 1.2513 8.60683C0.791065 8.60683 0.417969 8.97993 0.417969 9.44017C0.417969 9.9004 0.791065 10.2735 1.2513 10.2735C1.71154 10.2735 2.08464 9.9004 2.08464 9.44017Z" fill="white"/>
<path d="M1.2513 5.10352C1.65401 5.10352 1.98047 5.42997 1.98047 5.83268C1.98047 6.23539 1.65401 6.56185 1.2513 6.56185C0.848595 6.56185 0.522135 6.23539 0.522135 5.83268C0.522135 5.42997 0.848594 5.10352 1.2513 5.10352Z" fill="white"/>
<path d="M1.8763 2.49935C1.8763 2.15417 1.59648 1.87435 1.2513 1.87435C0.906124 1.87435 0.626302 2.15417 0.626302 2.49935C0.626302 2.84453 0.906124 3.12435 1.2513 3.12435C1.59648 3.12435 1.8763 2.84453 1.8763 2.49935Z" fill="white"/>
<path d="M1.2513 15.9819C1.59648 15.9819 1.8763 16.2617 1.8763 16.6069C1.8763 16.9521 1.59648 17.2319 1.2513 17.2319C0.906124 17.2319 0.626302 16.9521 0.626302 16.6069C0.626302 16.2617 0.906124 15.9819 1.2513 15.9819Z" fill="white"/>
<path d="M2.08464 13.0476C2.08464 12.5874 1.71154 12.2143 1.2513 12.2143C0.791065 12.2143 0.417969 12.5874 0.417969 13.0476C0.417969 13.5079 0.791065 13.881 1.2513 13.881C1.71154 13.881 2.08464 13.5079 2.08464 13.0476Z" fill="white"/>
<path d="M18.7513 5.10352C19.154 5.10352 19.4805 5.42997 19.4805 5.83268C19.4805 6.23539 19.154 6.56185 18.7513 6.56185C18.3486 6.56185 18.0221 6.23539 18.0221 5.83268C18.0221 5.42997 18.3486 5.10352 18.7513 5.10352Z" fill="white"/>
<path d="M19.3763 2.49935C19.3763 2.15417 19.0965 1.87435 18.7513 1.87435C18.4061 1.87435 18.1263 2.15417 18.1263 2.49935C18.1263 2.84453 18.4061 3.12435 18.7513 3.12435C19.0965 3.12435 19.3763 2.84453 19.3763 2.49935Z" fill="white"/>
<path d="M18.7513 15.9819C19.0965 15.9819 19.3763 16.2617 19.3763 16.6069C19.3763 16.9521 19.0965 17.2319 18.7513 17.2319C18.4061 17.2319 18.1263 16.9521 18.1263 16.6069C18.1263 16.2617 18.4061 15.9819 18.7513 15.9819Z" fill="white"/>
<path d="M19.5846 9.44017C19.5846 8.97993 19.2115 8.60683 18.7513 8.60683C18.2911 8.60683 17.918 8.97993 17.918 9.44017C17.918 9.9004 18.2911 10.2735 18.7513 10.2735C19.2115 10.2735 19.5846 9.9004 19.5846 9.44017Z" fill="white"/>
<path d="M18.7513 12.2143C19.2115 12.2143 19.5846 12.5874 19.5846 13.0476C19.5846 13.5079 19.2115 13.881 18.7513 13.881C18.2911 13.881 17.918 13.5079 17.918 13.0476C17.918 12.5874 18.2911 12.2143 18.7513 12.2143Z" fill="white"/>
</g>
</svg>
