<svg width="24" height="24" viewBox="0 0 24 24" fill="none" xmlns="http://www.w3.org/2000/svg">
<path fill-rule="evenodd" clip-rule="evenodd" d="M9.5002 4.6752C9.3207 4.6752 9.1752 4.8207 9.1752 5.0002V6.3252H14.8252V5.0002C14.8252 4.8207 14.6797 4.6752 14.5002 4.6752H9.5002ZM16.1752 6.3252V5.0002C16.1752 4.07512 15.4253 3.3252 14.5002 3.3252H9.5002C8.57512 3.3252 7.8252 4.07512 7.8252 5.0002V6.3252H4.0002C3.07512 6.3252 2.3252 7.07512 2.3252 8.0002V19.0002C2.3252 19.9253 3.07512 20.6752 4.0002 20.6752H20.0002C20.9253 20.6752 21.6752 19.9253 21.6752 19.0002V8.0002C21.6752 7.07512 20.9253 6.3252 20.0002 6.3252H16.1752ZM4.0002 7.6752C3.8207 7.6752 3.6752 7.8207 3.6752 8.0002V10.5137L11.8974 13.2544C11.9641 13.2767 12.0363 13.2767 12.103 13.2544L20.3252 10.5137V8.0002C20.3252 7.8207 20.1797 7.6752 20.0002 7.6752H4.0002ZM20.3252 11.9367L12.5299 14.5351C12.1861 14.6498 11.8143 14.6498 11.4705 14.5351L3.6752 11.9367V19.0002C3.6752 19.1797 3.8207 19.3252 4.0002 19.3252H20.0002C20.1797 19.3252 20.3252 19.1797 20.3252 19.0002V11.9367Z" fill="white"/>
</svg>
