<svg width="24" height="24" viewBox="0 0 24 24" fill="none" xmlns="http://www.w3.org/2000/svg">
<path fill-rule="evenodd" clip-rule="evenodd" d="M16.1752 5.0002V6.3252H20.0002C20.9253 6.3252 21.6752 7.07512 21.6752 8.0002L21.6753 10.2752L12.0002 13.5002L2.3253 10.2752L2.3252 8.0002C2.3252 7.07512 3.07512 6.3252 4.0002 6.3252H7.8252V5.0002C7.8252 4.07512 8.57512 3.3252 9.5002 3.3252H14.5002C15.4253 3.3252 16.1752 4.07512 16.1752 5.0002ZM9.1752 5.0002C9.1752 4.8207 9.3207 4.6752 9.5002 4.6752H14.5002C14.6797 4.6752 14.8252 4.8207 14.8252 5.0002V6.3252H9.1752V5.0002Z" fill="white"/>
<path d="M2.3253 11.6982L2.3252 19.0002C2.3252 19.9253 3.07512 20.6752 4.0002 20.6752H20.0002C20.9253 20.6752 21.6752 19.9253 21.6752 19.0002L21.6753 11.6982L12.2137 14.8521C12.0751 14.8983 11.9253 14.8983 11.7868 14.8521L2.3253 11.6982Z" fill="white"/>
</svg>
