<svg width="16" height="16" viewBox="0 0 16 16" fill="none" xmlns="http://www.w3.org/2000/svg">
<path fill-rule="evenodd" clip-rule="evenodd" d="M6 3V4H10V3H6ZM11 4V2.9C11 2.40294 10.5971 2 10.1 2H5.9C5.40294 2 5 2.40294 5 2.9V4H2.4C1.90294 4 1.5 4.40294 1.5 4.9V13.1C1.5 13.5971 1.90294 14 2.4 14H13.6C14.0971 14 14.5 13.5971 14.5 13.1V4.9C14.5 4.40294 14.0971 4 13.6 4H11ZM2.5 5V6.63962L8 8.47295L13.5 6.63962V5H2.5ZM13.5 7.69371L8.28461 9.43218C8.09987 9.49376 7.90014 9.49376 7.7154 9.43218L2.5 7.69371V13H13.5V7.69371Z" fill="white"/>
</svg>
