<svg width="16" height="16" viewBox="0 0 16 16" fill="none" xmlns="http://www.w3.org/2000/svg">
<path fill-rule="evenodd" clip-rule="evenodd" d="M11 2.9V4H13.6C14.0971 4 14.5 4.40294 14.5 4.9V6.49993L7.99989 8.66663L1.5 6.5V4.9C1.5 4.40294 1.90294 4 2.4 4H5V2.9C5 2.40294 5.40294 2 5.9 2H10.1C10.5971 2 11 2.40294 11 2.9ZM6 4V3H10V4H6Z" fill="white"/>
<path d="M1.5 7.55409V13.1C1.5 13.5971 1.90294 14 2.4 14H13.6C14.0971 14 14.5 13.5971 14.5 13.1V7.55402L8.15801 9.66802C8.05537 9.70223 7.94441 9.70223 7.84178 9.66802L1.5 7.55409Z" fill="white"/>
</svg>
