<svg width="24" height="24" viewBox="0 0 24 24" fill="none" xmlns="http://www.w3.org/2000/svg">
<path fill-rule="evenodd" clip-rule="evenodd" d="M9.61823 5.17495C9.49513 5.17495 9.38259 5.2445 9.32754 5.35461L8.88033 6.24903C8.5966 6.8165 8.0166 7.17495 7.38216 7.17495H4.5002C4.3207 7.17495 4.1752 7.32046 4.1752 7.49995V16.5C4.1752 16.6794 4.3207 16.825 4.5002 16.825H19.5002C19.6797 16.825 19.8252 16.6794 19.8252 16.5V7.49995C19.8252 7.32046 19.6797 7.17495 19.5002 7.17495H16.6182C15.9838 7.17495 15.4038 6.8165 15.1201 6.24903L14.6729 5.35461L15.2766 5.05274L14.6728 5.35461C14.6178 5.2445 14.5053 5.17495 14.3822 5.17495H9.61823ZM8.12006 4.75087C8.4038 4.1834 8.98379 3.82495 9.61823 3.82495H14.3822C15.0166 3.82495 15.5966 4.18341 15.8803 4.75087L16.3275 5.6453L15.7238 5.94717L16.3275 5.6453C16.3826 5.7554 16.4951 5.82495 16.6182 5.82495H19.5002C20.4253 5.82495 21.1752 6.57487 21.1752 7.49995V16.5C21.1752 17.425 20.4253 18.175 19.5002 18.175H4.5002C3.57512 18.175 2.8252 17.425 2.8252 16.5V7.49995C2.8252 6.57487 3.57512 5.82495 4.5002 5.82495H7.38216C7.50526 5.82495 7.6178 5.7554 7.67285 5.6453L8.12006 4.75087ZM12.0002 8.67495C10.44 8.67495 9.1752 9.93975 9.1752 11.5C9.1752 13.0602 10.44 14.325 12.0002 14.325C13.5604 14.325 14.8252 13.0602 14.8252 11.5C14.8252 9.93975 13.5604 8.67495 12.0002 8.67495ZM7.8252 11.5C7.8252 9.19416 9.69441 7.32495 12.0002 7.32495C14.306 7.32495 16.1752 9.19416 16.1752 11.5C16.1752 13.8057 14.306 15.675 12.0002 15.675C9.69441 15.675 7.8252 13.8057 7.8252 11.5Z" fill="white"/>
</svg>
