<svg width="24" height="24" viewBox="0 0 24 24" fill="none" xmlns="http://www.w3.org/2000/svg">
<path fill-rule="evenodd" clip-rule="evenodd" d="M4.5 6C3.67157 6 3 6.67157 3 7.5V16.5C3 17.3284 3.67157 18 4.5 18H19.5001C20.3285 18 21.0001 17.3284 21.0001 16.5V7.5C21.0001 6.67157 20.3285 6 19.5001 6H17.4271C16.859 6 16.3396 5.679 16.0855 5.17082L15.9147 4.82918C15.6606 4.321 15.1412 4 14.573 4H9.42705C8.85889 4 8.3395 4.321 8.08541 4.82918L7.91459 5.17082C7.6605 5.679 7.14111 6 6.57295 6H4.5ZM12 15C13.933 15 15.5 13.433 15.5 11.5C15.5 9.567 13.933 8 12 8C10.067 8 8.5 9.567 8.5 11.5C8.5 13.433 10.067 15 12 15Z" fill="white"/>
</svg>
