<svg width="16" height="16" viewBox="0 0 16 16" fill="none" xmlns="http://www.w3.org/2000/svg">
<path fill-rule="evenodd" clip-rule="evenodd" d="M6.43432 4L6.03476 4.59927C5.86783 4.84963 5.58684 5 5.28594 5H3V11H13V5H10.7141C10.4132 5 10.1321 4.84959 9.96521 4.59919L9.5658 4H6.43432ZM5.63199 3.40073C5.79891 3.15037 6.07991 3 6.38081 3H9.61933C9.92026 3 10.2013 3.15041 10.3682 3.40081L10.7676 4H13.1C13.5971 4 14 4.40294 14 4.9V11.1C14 11.597 13.5971 12 13.1 12H2.9C2.40294 12 2 11.597 2 11.1V4.9C2 4.40294 2.40294 4 2.9 4H5.23243L5.63199 3.40073ZM8 6.25C7.17157 6.25 6.5 6.92157 6.5 7.75C6.5 8.57843 7.17157 9.25 8 9.25C8.82843 9.25 9.5 8.57843 9.5 7.75C9.5 6.92157 8.82843 6.25 8 6.25ZM5.5 7.75C5.5 6.36929 6.61929 5.25 8 5.25C9.38071 5.25 10.5 6.36929 10.5 7.75C10.5 9.13071 9.38071 10.25 8 10.25C6.61929 10.25 5.5 9.13071 5.5 7.75Z" fill="white"/>
</svg>
