<svg width="16" height="16" viewBox="0 0 16 16" fill="none" xmlns="http://www.w3.org/2000/svg">
<path fill-rule="evenodd" clip-rule="evenodd" d="M2.8 4C2.35817 4 2 4.35817 2 4.8V11.2C2 11.6418 2.35817 12 2.8 12H13.2C13.6418 12 14 11.6418 14 11.2V4.8C14 4.35817 13.6418 4 13.2 4H11.0948C10.8273 4 10.5775 3.8663 10.4291 3.64372L10.2375 3.35628C10.0891 3.1337 9.83932 3 9.57182 3H6.42812C6.16065 3 5.91088 3.13367 5.7625 3.3562L5.57075 3.6438C5.42237 3.86633 5.1726 4 4.90513 4H2.8ZM8 9.75C9.10457 9.75 10 8.85457 10 7.75C10 6.64543 9.10457 5.75 8 5.75C6.89543 5.75 6 6.64543 6 7.75C6 8.85457 6.89543 9.75 8 9.75Z" fill="white"/>
</svg>
