<svg width="16" height="16" viewBox="0 0 16 16" fill="none" xmlns="http://www.w3.org/2000/svg">
<path d="M2.4 2.5C1.90294 2.5 1.5 2.90294 1.5 3.4L1.50003 9.60005C1.50003 10.0971 1.90297 10.5 2.40002 10.5L3.50012 10.5001V6.4C3.50012 5.35066 4.35078 4.5 5.40012 4.5H11.5001L11.5001 3.4001C11.5001 2.90304 11.0971 2.5001 10.6001 2.5001L2.4 2.5Z" fill="white"/>
<path fill-rule="evenodd" clip-rule="evenodd" d="M4.5 6.4C4.5 5.90294 4.90294 5.5 5.4 5.5L13.6001 5.5001C14.0971 5.5001 14.5001 5.90304 14.5001 6.4001L14.5 12.6001C14.5 13.0971 14.0971 13.5001 13.6 13.5001L5.40002 13.5C4.90297 13.5 4.50003 13.0971 4.50003 12.6001L4.5 6.4ZM10.8828 9.86657C11.0161 9.78931 11.0977 9.65016 11.0977 9.5C11.0977 9.34984 11.0161 9.21069 10.8828 9.13343L8.67029 7.85096C8.53359 7.77172 8.36333 7.76965 8.22461 7.84553C8.08588 7.92141 8.00012 8.06352 8.00012 8.21753V10.7825C8.00012 10.9365 8.08588 11.0786 8.22461 11.1545C8.36333 11.2304 8.53359 11.2283 8.67029 11.149L10.8828 9.86657Z" fill="white"/>
</svg>
