<svg width="20" height="20" viewBox="0 0 20 20" fill="none" xmlns="http://www.w3.org/2000/svg">
<path d="M3.0327 2.5C2.2783 2.5 1.66675 3.10855 1.66675 3.85924V11.9741C1.66675 12.7248 2.27831 13.3333 3.0327 13.3333H3.87508V8.02591C3.87508 6.64868 4.99555 5.54167 6.36603 5.54167H15.0001V3.85924C15.0001 3.10855 14.3885 2.5 13.6341 2.5H3.0327Z" fill="white"/>
<path fill-rule="evenodd" clip-rule="evenodd" d="M5.00008 8.02591C5.00008 7.27522 5.61164 6.66667 6.36603 6.66667H16.9675C17.7219 6.66667 18.3334 7.27522 18.3334 8.0259V16.1408C18.3334 16.8914 17.7219 17.5 16.9675 17.5H6.36603C5.61164 17.5 5.00008 16.8914 5.00008 16.1408V8.02591ZM14.0653 12.5194C14.2236 12.4315 14.3218 12.2646 14.3218 12.0835C14.3218 11.9024 14.2236 11.7355 14.0653 11.6476L10.7409 9.80071C10.5865 9.7149 10.3981 9.71723 10.2458 9.80683C10.0936 9.89644 10.0001 10.0599 10.0001 10.2366V13.9304C10.0001 14.1071 10.0936 14.2706 10.2458 14.3602C10.3981 14.4498 10.5865 14.4521 10.7409 14.3663L14.0653 12.5194Z" fill="white"/>
</svg>
