<svg width="16" height="16" viewBox="0 0 16 16" fill="none" xmlns="http://www.w3.org/2000/svg">
<path fill-rule="evenodd" clip-rule="evenodd" d="M2.39995 2.4502C1.87528 2.4502 1.44995 2.87552 1.44995 3.40019V12.6002C1.44995 13.1249 1.87528 13.5502 2.39995 13.5502H13.6C14.1246 13.5502 14.55 13.1249 14.55 12.6002V3.4002C14.55 2.87552 14.1246 2.4502 13.6 2.4502H2.39995ZM4.49994 3.9502C4.49994 3.72928 4.67903 3.5502 4.89994 3.5502H11.0999C11.3209 3.5502 11.4999 3.72928 11.4999 3.9502V7.0502C11.4999 7.27111 11.3209 7.4502 11.0999 7.4502H4.89994C4.67902 7.4502 4.49994 7.27111 4.49994 7.0502V3.9502ZM11.4999 12.0502C11.4999 12.2711 11.3209 12.4502 11.0999 12.4502H4.89994C4.67902 12.4502 4.49994 12.2711 4.49994 12.0502V8.9502C4.49994 8.72928 4.67903 8.5502 4.89994 8.5502H11.0999C11.3209 8.5502 11.4999 8.72928 11.4999 8.9502V12.0502ZM3.49994 5.50024H2.49994V4.50024H3.49994V5.50024ZM3.49994 7.50024H2.49994V6.50024H3.49994V7.50024ZM2.49994 9.50024H3.49994V8.50024H2.49994V9.50024ZM3.49994 11.5002H2.49994V10.5002H3.49994V11.5002ZM12.4999 5.50024H13.4999V4.50024H12.4999V5.50024ZM13.4999 7.50024H12.4999V6.50024H13.4999V7.50024ZM12.4999 9.50024H13.4999V8.50024H12.4999V9.50024ZM13.4999 11.5002H12.4999V10.5002H13.4999V11.5002Z" fill="white"/>
</svg>
