<svg width="24" height="24" viewBox="0 0 24 24" fill="none" xmlns="http://www.w3.org/2000/svg">
<path fill-rule="evenodd" clip-rule="evenodd" d="M2 5.475C2 4.66038 2.66038 4 3.475 4H20.875C21.6896 4 22.35 4.66038 22.35 5.475V18.875C22.35 19.6896 21.6896 20.35 20.875 20.35H3.475C2.66038 20.35 2 19.6896 2 18.875V5.475ZM17 18.5C17 18.7761 16.7761 19 16.5 19H7.85C7.57386 19 7.35 18.7761 7.35 18.5V13.35C7.35 13.0739 7.57386 12.85 7.85 12.85H16.5C16.7761 12.85 17 13.0739 17 13.35V18.5ZM7.35 5.85C7.35 5.57386 7.57386 5.35 7.85 5.35H16.5C16.7761 5.35 17 5.57386 17 5.85V11C17 11.2761 16.7761 11.5 16.5 11.5H7.85C7.57386 11.5 7.35 11.2761 7.35 11V5.85ZM4.00018 6.00024H5.36268V7.35024H4.00018V6.00024ZM4.00018 8.75024H5.36268V10.1002H4.00018V8.75024ZM4.00018 11.5002H5.36268V12.8502H4.00018V11.5002ZM4.00018 14.2502H5.36268V15.6002H4.00018V14.2502ZM4.00018 17.0002H5.36268V18.3502H4.00018V17.0002ZM19.0002 6.00024H20.3627V7.35024H19.0002V6.00024ZM19.0002 8.75024H20.3627V10.1002H19.0002V8.75024ZM19.0002 11.5002H20.3627V12.8502H19.0002V11.5002ZM19.0002 14.2502H20.3627V15.6002H19.0002V14.2502ZM19.0002 17.0002H20.3627V18.3502H19.0002V17.0002Z" fill="white"/>
</svg>
