<svg width="20" height="20" viewBox="0 0 20 20" fill="none" xmlns="http://www.w3.org/2000/svg">
<path fill-rule="evenodd" clip-rule="evenodd" d="M2.79995 2.9502C2.05437 2.9502 1.44995 3.55461 1.44995 4.3002V15.7002C1.44995 16.4458 2.05437 17.0502 2.79995 17.0502H17.2C17.9455 17.0502 18.5499 16.4458 18.5499 15.7002V4.3002C18.5499 3.55461 17.9455 2.9502 17.2 2.9502H2.79995ZM5.54993 4.5502C5.54993 4.27405 5.77378 4.0502 6.04993 4.0502H13.95C14.2261 4.0502 14.45 4.27405 14.45 4.5502V8.95019C14.45 9.22634 14.2261 9.4502 13.95 9.4502H6.04993C5.77378 9.4502 5.54993 9.22634 5.54993 8.9502V4.5502ZM14.45 15.4502C14.45 15.7263 14.2261 15.9502 13.95 15.9502H6.04993C5.77378 15.9502 5.54993 15.7263 5.54993 15.4502V11.0502C5.54993 10.7741 5.77378 10.5502 6.04993 10.5502H13.95C14.2261 10.5502 14.45 10.7741 14.45 11.0502V15.4502ZM2.91998 4.92029H4.07998V6.08029H2.91998V4.92029ZM2.91998 7.17029H4.07998V8.33029H2.91998V7.17029ZM4.07998 9.42029H2.91998V10.5803H4.07998V9.42029ZM2.91998 11.6703H4.07998V12.8303H2.91998V11.6703ZM4.07998 13.9203H2.91998V15.0803H4.07998V13.9203ZM15.9199 4.92029H17.0799V6.08029H15.9199V4.92029ZM17.0799 7.17029H15.9199V8.33029H17.0799V7.17029ZM15.9199 9.42029H17.0799V10.5803H15.9199V9.42029ZM17.0799 11.6703H15.9199V12.8303H17.0799V11.6703ZM15.9199 13.9203H17.0799V15.0803H15.9199V13.9203Z" fill="white"/>
</svg>
