<svg width="16" height="16" viewBox="0 0 16 16" fill="none" xmlns="http://www.w3.org/2000/svg">
<path fill-rule="evenodd" clip-rule="evenodd" d="M8 3C5.23858 3 3 5.23858 3 8C3 10.7614 5.23858 13 8 13C10.7614 13 13 10.7614 13 8C13 5.23858 10.7614 3 8 3ZM2 8C2 4.68629 4.68629 2 8 2C11.3137 2 14 4.68629 14 8C14 11.3137 11.3137 14 8 14C4.68629 14 2 11.3137 2 8ZM10.6038 5.24608C10.8361 5.39541 10.9033 5.70477 10.754 5.93705L7.754 10.6037C7.6679 10.7376 7.52316 10.8226 7.36424 10.8324C7.20533 10.8422 7.05123 10.7757 6.9493 10.6534L5.28264 8.65343C5.10586 8.44129 5.13452 8.12601 5.34666 7.94923C5.55879 7.77245 5.87408 7.80111 6.05086 8.01325L7.2813 9.48978L9.91283 5.39629C10.0622 5.16401 10.3715 5.09676 10.6038 5.24608Z" fill="white"/>
</svg>
