<svg width="24" height="24" viewBox="0 0 24 24" fill="none" xmlns="http://www.w3.org/2000/svg">
<path fill-rule="evenodd" clip-rule="evenodd" d="M12 4.17495C7.67832 4.17495 4.17495 7.67832 4.17495 12C4.17495 16.3216 7.67832 19.825 12 19.825C16.3216 19.825 19.825 16.3216 19.825 12C19.825 7.67832 16.3216 4.17495 12 4.17495ZM2.82495 12C2.82495 6.93274 6.93274 2.82495 12 2.82495C17.0672 2.82495 21.1749 6.93274 21.1749 12C21.1749 17.0672 17.0672 21.1749 12 21.1749C6.93274 21.1749 2.82495 17.0672 2.82495 12ZM15.865 7.93216C16.1785 8.13375 16.2693 8.55138 16.0677 8.86496L11.5677 15.865C11.4515 16.0458 11.2561 16.1604 11.0416 16.1737C10.827 16.1869 10.619 16.0972 10.4814 15.9321L7.9814 12.9321C7.74275 12.6457 7.78144 12.2201 8.06783 11.9814C8.35421 11.7427 8.77984 11.7814 9.0185 12.0678L10.9296 14.3611L14.9322 8.13494C15.1337 7.82136 15.5514 7.73057 15.865 7.93216Z" fill="white"/>
</svg>
