<svg width="16" height="16" viewBox="0 0 16 16" fill="none" xmlns="http://www.w3.org/2000/svg">
<path fill-rule="evenodd" clip-rule="evenodd" d="M14 8C14 11.3137 11.3137 14 8 14C4.68629 14 2 11.3137 2 8C2 4.68629 4.68629 2 8 2C11.3137 2 14 4.68629 14 8ZM10.754 5.93705C10.9033 5.70477 10.8361 5.39541 10.6038 5.24608C10.3715 5.09676 10.0622 5.16401 9.91284 5.39629L7.28131 9.48978L6.05087 8.01325C5.87409 7.80111 5.55881 7.77245 5.34667 7.94923C5.13453 8.12601 5.10587 8.44129 5.28265 8.65343L6.94932 10.6534C7.05125 10.7757 7.20534 10.8422 7.36426 10.8324C7.52318 10.8226 7.66792 10.7376 7.75402 10.6037L10.754 5.93705Z" fill="white"/>
</svg>
