<svg width="24" height="24" viewBox="0 0 24 24" fill="none" xmlns="http://www.w3.org/2000/svg">
<path fill-rule="evenodd" clip-rule="evenodd" d="M21 12C21 16.9706 16.9706 21 12 21C7.02944 21 3 16.9706 3 12C3 7.02944 7.02944 3 12 3C16.9706 3 21 7.02944 21 12ZM16.0678 8.86501C16.2694 8.55143 16.1786 8.1338 15.865 7.93221C15.5514 7.73062 15.1338 7.82141 14.9322 8.13499L10.9296 14.3612L9.01852 12.0679C8.77986 11.7815 8.35423 11.7428 8.06784 11.9815C7.78146 12.2201 7.74276 12.6457 7.98142 12.9321L10.4814 15.9321C10.619 16.0973 10.8271 16.187 11.0416 16.1737C11.2561 16.1605 11.4515 16.0458 11.5678 15.865L16.0678 8.86501Z" fill="white"/>
</svg>
