<svg width="24" height="24" viewBox="0 0 24 24" fill="none" xmlns="http://www.w3.org/2000/svg">
<path fill-rule="evenodd" clip-rule="evenodd" d="M3.44963 4C2.64902 4 2 4.64624 2 5.44343V18.5566C2 19.3538 2.64902 20 3.44963 20H20.5504C21.351 20 22 19.3538 22 18.5566V5.44342C22 4.64624 21.351 4 20.5504 4H3.44963ZM7.99997 7.69997C6.72972 7.69997 5.69997 8.72972 5.69997 9.99997V14C5.69997 15.2702 6.72972 16.3 7.99997 16.3H8.99997C10.2702 16.3 11.3 15.2702 11.3 14V13.5H9.69997V14C9.69997 14.3866 9.38657 14.7 8.99997 14.7H7.99997C7.61337 14.7 7.29997 14.3866 7.29997 14V9.99997C7.29997 9.61337 7.61337 9.29997 7.99997 9.29997H8.99997C9.38657 9.29997 9.69997 9.61337 9.69997 9.99997V10.5H11.3V9.99997C11.3 8.72972 10.2702 7.69997 8.99997 7.69997H7.99997ZM15 7.69997C13.7297 7.69997 12.7 8.72972 12.7 9.99997V14C12.7 15.2702 13.7297 16.3 15 16.3H16C17.2702 16.3 18.3 15.2702 18.3 14V13.5H16.7V14C16.7 14.3866 16.3866 14.7 16 14.7H15C14.6134 14.7 14.3 14.3866 14.3 14V9.99997C14.3 9.61337 14.6134 9.29997 15 9.29997H16C16.3866 9.29997 16.7 9.61337 16.7 9.99997V10.5H18.3V9.99997C18.3 8.72972 17.2702 7.69997 16 7.69997H15Z" fill="white"/>
</svg>
