<svg width="24" height="24" viewBox="0 0 24 24" fill="none" xmlns="http://www.w3.org/2000/svg">
<path d="M8.0002 7.82495C6.79898 7.82495 5.8252 8.79873 5.8252 9.99995V14C5.8252 15.2012 6.79898 16.175 8.0002 16.175H9.0002C10.2014 16.175 11.1752 15.2012 11.1752 14V13.5H9.8252V14C9.8252 14.4556 9.45583 14.825 9.0002 14.825H8.0002C7.54456 14.825 7.1752 14.4556 7.1752 14V9.99995C7.1752 9.54432 7.54456 9.17495 8.0002 9.17495H9.0002C9.45583 9.17495 9.8252 9.54432 9.8252 9.99995V10.5H11.1752V9.99995C11.1752 8.79873 10.2014 7.82495 9.0002 7.82495H8.0002Z" fill="white"/>
<path d="M15.0002 7.82495C13.799 7.82495 12.8252 8.79873 12.8252 9.99995V14C12.8252 15.2012 13.799 16.175 15.0002 16.175H16.0002C17.2014 16.175 18.1752 15.2012 18.1752 14V13.5H16.8252V14C16.8252 14.4556 16.4558 14.825 16.0002 14.825H15.0002C14.5446 14.825 14.1752 14.4556 14.1752 14V9.99995C14.1752 9.54432 14.5446 9.17495 15.0002 9.17495H16.0002C16.4558 9.17495 16.8252 9.54432 16.8252 9.99995V10.5H18.1752V9.99995C18.1752 8.79873 17.2014 7.82495 16.0002 7.82495H15.0002Z" fill="white"/>
<path fill-rule="evenodd" clip-rule="evenodd" d="M3.5002 3.82495C2.57512 3.82495 1.8252 4.57487 1.8252 5.49995V18.5C1.8252 19.425 2.57512 20.175 3.50019 20.175H20.5002C21.4253 20.175 22.1752 19.425 22.1752 18.5V5.49995C22.1752 4.57487 21.4253 3.82495 20.5002 3.82495H3.5002ZM3.1752 5.49995C3.1752 5.32046 3.3207 5.17495 3.5002 5.17495H20.5002C20.6797 5.17495 20.8252 5.32046 20.8252 5.49995V18.5C20.8252 18.6794 20.6797 18.825 20.5002 18.825H3.50019C3.3207 18.825 3.1752 18.6794 3.1752 18.5V5.49995Z" fill="white"/>
</svg>
