<svg width="16" height="16" viewBox="0 0 16 16" fill="none" xmlns="http://www.w3.org/2000/svg">
<path fill-rule="evenodd" clip-rule="evenodd" d="M1.44995 3.39995C1.44995 2.87528 1.87528 2.44995 2.39995 2.44995H13.6C14.1246 2.44995 14.55 2.87528 14.55 3.39995V12.6C14.55 13.1246 14.1246 13.55 13.6 13.55H2.39995C1.87528 13.55 1.44995 13.1246 1.44995 12.6V3.39995ZM10.1666 5.06675C9.28295 5.06675 8.5666 5.78309 8.5666 6.66675V9.33342C8.5666 10.2171 9.28295 10.9334 10.1666 10.9334H10.8333C11.7169 10.9334 12.4333 10.2171 12.4333 9.33342V9.00008H11.2333V9.33342C11.2333 9.55433 11.0542 9.73342 10.8333 9.73342H10.1666C9.94569 9.73342 9.7666 9.55433 9.7666 9.33342V6.66675C9.7666 6.44583 9.94569 6.26675 10.1666 6.26675H10.8333C11.0542 6.26675 11.2333 6.44583 11.2333 6.66675V7.00008H12.4333V6.66675C12.4333 5.78309 11.7169 5.06675 10.8333 5.06675H10.1666ZM5.1666 5.06677C4.28294 5.06677 3.5666 5.78311 3.5666 6.66677V9.33344C3.5666 10.2171 4.28294 10.9334 5.1666 10.9334H5.83326C6.71692 10.9334 7.43326 10.2171 7.43326 9.33344V9.0001H6.23326V9.33344C6.23326 9.55435 6.05418 9.73344 5.83326 9.73344H5.1666C4.94568 9.73344 4.7666 9.55435 4.7666 9.33344V6.66677C4.7666 6.44585 4.94568 6.26677 5.1666 6.26677H5.83326C6.05418 6.26677 6.23326 6.44585 6.23326 6.66677V7.0001H7.43326V6.66677C7.43326 5.78311 6.71692 5.06677 5.83326 5.06677H5.1666Z" fill="white"/>
</svg>
