<svg width="16" height="16" viewBox="0 0 16 16" fill="none" xmlns="http://www.w3.org/2000/svg">
<path d="M5.33334 5.16663C4.50492 5.16663 3.83334 5.8382 3.83334 6.66663V9.33329C3.83334 10.1617 4.50492 10.8333 5.33334 10.8333H6.00001C6.82844 10.8333 7.50001 10.1617 7.50001 9.33329V8.99996H6.50001V9.33329C6.50001 9.60944 6.27615 9.83329 6.00001 9.83329H5.33334C5.0572 9.83329 4.83334 9.60943 4.83334 9.33329V6.66663C4.83334 6.39048 5.0572 6.16663 5.33334 6.16663H6.00001C6.27615 6.16663 6.50001 6.39048 6.50001 6.66663V6.99996H7.50001V6.66663C7.50001 5.8382 6.82844 5.16663 6.00001 5.16663H5.33334Z" fill="white"/>
<path d="M10 5.16663C9.17157 5.16663 8.5 5.8382 8.5 6.66663V9.33329C8.5 10.1617 9.17157 10.8333 10 10.8333H10.6667C11.4951 10.8333 12.1667 10.1617 12.1667 9.33329V8.99996H11.1667V9.33329C11.1667 9.60943 10.9428 9.83329 10.6667 9.83329H10C9.72386 9.83329 9.5 9.60943 9.5 9.33329V6.66663C9.5 6.39048 9.72386 6.16663 10 6.16663H10.6667C10.9428 6.16663 11.1667 6.39048 11.1667 6.66663V6.99996H12.1667V6.66663C12.1667 5.8382 11.4951 5.16663 10.6667 5.16663H10Z" fill="white"/>
<path fill-rule="evenodd" clip-rule="evenodd" d="M2.4 2.5C1.90294 2.5 1.5 2.90294 1.5 3.4V12.6C1.5 13.0971 1.90294 13.5 2.4 13.5H13.6C14.0971 13.5 14.5 13.0971 14.5 12.6V3.4C14.5 2.90294 14.0971 2.5 13.6 2.5H2.4ZM2.5 12.5V3.5H13.5V12.5H2.5Z" fill="white"/>
</svg>
