<svg width="20" height="20" viewBox="0 0 20 20" fill="none" xmlns="http://www.w3.org/2000/svg">
<path fill-rule="evenodd" clip-rule="evenodd" d="M1.5 4.34043C1.5 3.60013 2.10088 3 2.84211 3H17.1579C17.8991 3 18.5 3.60013 18.5 4.34043V15.6596C18.5 16.3999 17.8991 17 17.1579 17H2.84211C2.10088 17 1.5 16.3999 1.5 15.6596V4.34043ZM6.58334 6.38337C5.50639 6.38337 4.63334 7.25642 4.63334 8.33337V11.6667C4.63334 12.7437 5.50639 13.6167 6.58334 13.6167H7.41668C8.49363 13.6167 9.36668 12.7437 9.36668 11.6667V11.25H7.96668V11.6667C7.96668 11.9705 7.72043 12.2167 7.41668 12.2167H6.58334C6.27959 12.2167 6.03334 11.9705 6.03334 11.6667V8.33337C6.03334 8.02962 6.27959 7.78337 6.58334 7.78337H7.41668C7.72043 7.78337 7.96668 8.02962 7.96668 8.33337V8.75004H9.36668V8.33337C9.36668 7.25642 8.49363 6.38337 7.41668 6.38337H6.58334ZM12.5833 6.38337C11.5064 6.38337 10.6333 7.25642 10.6333 8.33337V11.6667C10.6333 12.7437 11.5064 13.6167 12.5833 13.6167H13.4167C14.4936 13.6167 15.3667 12.7437 15.3667 11.6667V11.25H13.9667V11.6667C13.9667 11.9705 13.7204 12.2167 13.4167 12.2167H12.5833C12.2796 12.2167 12.0333 11.9705 12.0333 11.6667V8.33337C12.0333 8.02962 12.2796 7.78337 12.5833 7.78337H13.4167C13.7204 7.78337 13.9667 8.02962 13.9667 8.33337V8.75004H15.3667V8.33337C15.3667 7.25642 14.4936 6.38337 13.4167 6.38337H12.5833Z" fill="white"/>
</svg>
