<svg width="20" height="20" viewBox="0 0 20 20" fill="none" xmlns="http://www.w3.org/2000/svg">
<path d="M6.66685 6.53333C5.67274 6.53333 4.86685 7.33921 4.86685 8.33333V11.6667C4.86685 12.6608 5.67274 13.4667 6.66685 13.4667H7.50019C8.4943 13.4667 9.30019 12.6608 9.30019 11.6667V11.25H8.20018V11.6667C8.20018 12.0533 7.88678 12.3667 7.50019 12.3667H6.66685C6.28025 12.3667 5.96685 12.0533 5.96685 11.6667V8.33333C5.96685 7.94673 6.28025 7.63333 6.66685 7.63333H7.50019C7.88678 7.63333 8.20018 7.94673 8.20018 8.33333V8.74999H9.30019V8.33333C9.30019 7.33921 8.4943 6.53333 7.50019 6.53333H6.66685Z" fill="white"/>
<path d="M12.5002 6.53333C11.5061 6.53333 10.7002 7.33921 10.7002 8.33333V11.6667C10.7002 12.6608 11.5061 13.4667 12.5002 13.4667H13.3335C14.3276 13.4667 15.1335 12.6608 15.1335 11.6667V11.25H14.0335V11.6667C14.0335 12.0533 13.7201 12.3667 13.3335 12.3667H12.5002C12.1136 12.3667 11.8002 12.0533 11.8002 11.6667V8.33333C11.8002 7.94673 12.1136 7.63333 12.5002 7.63333H13.3335C13.7201 7.63333 14.0335 7.94673 14.0335 8.33333V8.74999H15.1335V8.33333C15.1335 7.33921 14.3276 6.53333 13.3335 6.53333H12.5002Z" fill="white"/>
<path fill-rule="evenodd" clip-rule="evenodd" d="M2.8002 2.94995C2.05461 2.94995 1.4502 3.55437 1.4502 4.29995V15.7C1.4502 16.4455 2.05461 17.05 2.8002 17.05H17.2002C17.9458 17.05 18.5502 16.4455 18.5502 15.7V4.29995C18.5502 3.55437 17.9458 2.94995 17.2002 2.94995H2.8002ZM2.5502 4.29995C2.5502 4.16188 2.66212 4.04995 2.8002 4.04995H17.2002C17.3383 4.04995 17.4502 4.16188 17.4502 4.29995V15.7C17.4502 15.838 17.3383 15.95 17.2002 15.95H2.8002C2.66212 15.95 2.5502 15.838 2.5502 15.7V4.29995Z" fill="white"/>
</svg>
