<svg width="24" height="24" viewBox="0 0 24 24" fill="none" xmlns="http://www.w3.org/2000/svg">
<path fill-rule="evenodd" clip-rule="evenodd" d="M5.33301 20C3.12386 20 1.33301 18.2091 1.33301 16C1.33301 14.6855 1.96696 13.5192 2.94596 12.79C2.76709 12.4318 2.66634 12.0277 2.66634 11.5999C2.66634 10.2181 3.71729 9.08187 5.06348 8.94678C6.05371 6.06836 8.78516 4 11.9997 4C15.4694 4 18.3761 6.40951 19.138 9.64648C21.1952 10.3862 22.6663 12.3548 22.6663 14.6667C22.6663 17.6121 20.2785 20 17.333 20H5.33301ZM12.0081 12.8083C12.4736 12.8083 12.736 12.5459 12.7614 12.055L12.8799 9.41439C12.9053 8.88965 12.5244 8.52572 11.9997 8.52572C11.4665 8.52572 11.0941 8.88119 11.1195 9.40592L11.238 12.055C11.2633 12.5459 11.5257 12.8083 12.0081 12.8083ZM11.9997 15.4743C12.5752 15.4743 12.9899 15.1019 12.9899 14.5687C12.9899 14.0355 12.5667 13.6631 11.9997 13.6631C11.4242 13.6631 11.0094 14.0355 11.0094 14.5687C11.0094 15.0934 11.4242 15.4743 11.9997 15.4743Z" fill="white"/>
</svg>
