<svg width="24" height="24" viewBox="0 0 24 24" fill="none" xmlns="http://www.w3.org/2000/svg">
<path fill-rule="evenodd" clip-rule="evenodd" d="M5.33301 20C3.12386 20 1.33301 18.2091 1.33301 16C1.33301 14.6855 1.96696 13.5192 2.94596 12.79C2.81885 12.5355 2.73112 12.2578 2.69108 11.965C2.6748 11.8457 2.66634 11.7238 2.66634 11.5999C2.66634 10.2181 3.71729 9.08187 5.06348 8.94678C6.05371 6.06836 8.78516 4 11.9997 4C15.4694 4 18.3761 6.40951 19.138 9.64648C21.1952 10.3862 22.6663 12.3548 22.6663 14.6667C22.6663 17.6121 20.2785 20 17.333 20H5.33301ZM8.86165 8.86198C9.12191 8.60156 9.54411 8.60156 9.80436 8.86198L11.9997 11.0571L14.195 8.86198C14.4552 8.60156 14.8774 8.60156 15.1377 8.86198C15.3981 9.12223 15.3981 9.54443 15.1377 9.80469L12.9425 12L15.1377 14.1953C15.3981 14.4556 15.3981 14.8778 15.1377 15.138C14.8774 15.3984 14.4552 15.3984 14.195 15.138L11.9997 12.9429L9.80436 15.138C9.54411 15.3984 9.12191 15.3984 8.86165 15.138C8.60124 14.8778 8.60124 14.4556 8.86165 14.1953L11.0568 12L8.86165 9.80469C8.60124 9.54443 8.60124 9.12223 8.86165 8.86198Z" fill="white"/>
</svg>
