<svg width="24" height="24" viewBox="0 0 24 24" fill="none" xmlns="http://www.w3.org/2000/svg">
<path opacity="0.5" fill-rule="evenodd" clip-rule="evenodd" d="M1.33301 16C1.33301 18.2092 3.12381 20 5.33301 20H17.333C20.2785 20 22.6663 17.6122 22.6663 14.6667C22.6663 12.3541 21.1955 10.3868 19.1379 9.64679C18.3756 6.40912 15.4695 4 11.9997 4C8.84529 4 6.15828 5.99069 5.12226 8.78336C3.70703 9.16853 2.66634 10.4628 2.66634 12C2.66634 12.3155 2.71038 12.621 2.7925 12.9105C1.90155 13.6436 1.33301 14.7546 1.33301 16ZM11.9997 5.33333C15.1051 5.33333 17.6598 7.69271 17.9684 10.7168C19.8757 11.0212 21.333 12.6738 21.333 14.6667C21.333 16.8758 19.5422 18.6667 17.333 18.6667H5.33301C3.86019 18.6667 2.66634 17.4728 2.66634 16C2.66634 15.2704 2.95925 14.6093 3.43391 14.1279C3.75335 13.8038 4.15511 13.5612 4.60531 13.4338C4.28198 13.1192 4.06462 12.6963 4.01203 12.2236C4.00387 12.1502 3.99967 12.0756 3.99967 12C3.99967 10.8955 4.89518 10 5.99967 10C6.04932 10 6.09847 10.0018 6.14714 10.0054C6.75146 7.33073 9.14242 5.33333 11.9997 5.33333Z" fill="white"/>
<path d="M15.2872 9.72244C15.5019 9.37899 15.3975 8.92656 15.054 8.71191C14.7106 8.49725 14.2581 8.60166 14.0435 8.94511L11.277 13.3715L9.91868 11.5604C9.67567 11.2364 9.21602 11.1708 8.89201 11.4138C8.568 11.6568 8.50234 12.1164 8.74534 12.4404L10.7453 15.1071C10.8904 15.3005 11.1215 15.41 11.3631 15.3998C11.6047 15.3895 11.8257 15.2608 11.9539 15.0558L15.2872 9.72244Z" fill="white"/>
</svg>
