<svg width="16" height="16" viewBox="0 0 16 16" fill="none" xmlns="http://www.w3.org/2000/svg">
<path opacity="0.5" fill-rule="evenodd" clip-rule="evenodd" d="M0.888916 10.6672C0.888916 12.14 2.08278 13.3339 3.55558 13.3339H11.5556C13.5193 13.3339 15.1111 11.742 15.1111 9.77835C15.1111 8.23666 14.1306 6.92509 12.7589 6.43177C12.2507 4.27331 10.3133 2.66724 8.00003 2.66724C5.8971 2.66724 4.10576 3.99436 3.41509 5.85615C2.4716 6.11292 1.7778 6.97576 1.7778 8.00057C1.7778 8.21093 1.80717 8.41458 1.86191 8.60755C1.26794 9.09633 0.888916 9.83699 0.888916 10.6672ZM8.00003 3.55613C10.0703 3.55613 11.7735 5.12904 11.9792 7.1451C13.2507 7.34801 14.2222 8.44979 14.2222 9.77835C14.2222 11.2511 13.0283 12.445 11.5556 12.445H3.55558C2.5737 12.445 1.7778 11.6491 1.7778 10.6672C1.7778 10.1809 1.97308 9.74013 2.28952 9.41914C2.50248 9.20313 2.77032 9.04135 3.07045 8.95641C2.8549 8.74668 2.70999 8.46475 2.67493 8.14962C2.66949 8.10069 2.66669 8.05096 2.66669 8.00057C2.66669 7.26424 3.2637 6.66724 4.00003 6.66724C4.03312 6.66724 4.06589 6.66843 4.09833 6.67082C4.50122 4.88772 6.09519 3.55613 8.00003 3.55613Z" fill="white"/>
<path d="M8.44409 4.80017V5.37042C9.70531 5.58199 10.6663 6.67888 10.6663 8.00022C10.6663 9.47298 9.47243 10.6669 7.99967 10.6669C6.52692 10.6669 5.33301 9.47298 5.33301 8.00022C5.33301 7.75476 5.53199 7.55577 5.77745 7.55577C6.02291 7.55577 6.2219 7.75476 6.2219 8.00022C6.2219 8.98206 7.01784 9.77799 7.99967 9.77799C8.98151 9.77799 9.77745 8.98206 9.77745 8.00022C9.77745 7.17183 9.21087 6.47578 8.44409 6.27844V6.75573C8.44409 6.90222 8.27684 6.98585 8.15965 6.89795L6.85594 5.92017C6.76113 5.84906 6.76113 5.70684 6.85594 5.63573L8.15965 4.65795C8.27684 4.57005 8.44409 4.65367 8.44409 4.80017Z" fill="white"/>
</svg>
