<svg width="16" height="16" viewBox="0 0 16 16" fill="none" xmlns="http://www.w3.org/2000/svg">
<path fill-rule="evenodd" clip-rule="evenodd" d="M3.55558 13.3327C2.08282 13.3327 0.888916 12.1388 0.888916 10.666C0.888916 9.78971 1.31155 9.01215 1.96422 8.52604C1.84497 8.28722 1.7778 8.0178 1.7778 7.73264C1.7778 6.81142 2.47843 6.05393 3.3759 5.96387C4.03605 4.04492 5.85702 2.66602 8.00003 2.66602C10.3132 2.66602 12.251 4.27235 12.7589 6.43034C14.1303 6.9235 15.1111 8.23589 15.1111 9.77713C15.1111 11.7408 13.5192 13.3327 11.5556 13.3327H3.55558ZM8.00567 8.53819C8.316 8.53819 8.49091 8.36328 8.50784 8.03602L8.58683 6.27561C8.60376 5.92578 8.34985 5.68316 8.00003 5.68316C7.64456 5.68316 7.39629 5.92014 7.41322 6.26997L7.49221 8.03602C7.50914 8.36328 7.68405 8.53819 8.00567 8.53819ZM8.00003 10.3155C8.38371 10.3155 8.66018 10.0673 8.66018 9.71181C8.66018 9.35634 8.37807 9.10807 8.00003 9.10807C7.61635 9.10807 7.33987 9.35634 7.33987 9.71181C7.33987 10.0616 7.61635 10.3155 8.00003 10.3155Z" fill="white"/>
</svg>
