<svg width="16" height="16" viewBox="0 0 16 16" fill="none" xmlns="http://www.w3.org/2000/svg">
<path fill-rule="evenodd" clip-rule="evenodd" d="M0.888672 10.6665C0.888672 12.1393 2.08257 13.3332 3.55534 13.3332H11.5553C13.519 13.3332 15.1109 11.7413 15.1109 9.77762C15.1109 8.23638 14.1301 6.92399 12.7587 6.43083C12.2508 4.27284 10.3129 2.6665 7.99978 2.6665C5.85677 2.6665 4.03581 4.04541 3.37565 5.96436C2.47819 6.05442 1.77756 6.8119 1.77756 7.73313C1.77756 7.84239 1.78743 7.94938 1.80632 8.05322C1.8367 8.22032 1.89041 8.37929 1.96398 8.52653C1.31131 9.01264 0.888672 9.7902 0.888672 10.6665ZM10.2846 6.54831C10.4607 6.2676 10.3759 5.89729 10.0952 5.7212C9.81445 5.54511 9.44414 5.62992 9.26805 5.91064L7.50907 8.71471L6.69814 7.63762C6.49883 7.37289 6.12265 7.31986 5.85792 7.51917C5.59319 7.71848 5.54016 8.09466 5.73947 8.35939L7.07475 10.1329C7.19353 10.2907 7.38232 10.3799 7.57961 10.3715C7.7769 10.3631 7.95743 10.2582 8.06236 10.0909L10.2846 6.54831Z" fill="white"/>
</svg>
