<svg width="16" height="16" viewBox="0 0 16 16" fill="none" xmlns="http://www.w3.org/2000/svg">
<path opacity="0.5" fill-rule="evenodd" clip-rule="evenodd" d="M0.888916 10.6675C0.888916 12.1403 2.08278 13.3341 3.55558 13.3341H11.5556C13.5193 13.3341 15.1111 11.7423 15.1111 9.77859C15.1111 8.23691 14.1306 6.92533 12.7589 6.43201C12.2507 4.27356 10.3133 2.66748 8.00003 2.66748C5.8971 2.66748 4.10576 3.99461 3.41509 5.85639C2.4716 6.11317 1.7778 6.97601 1.7778 8.00081C1.7778 8.21117 1.80717 8.41482 1.86191 8.60779C1.26794 9.09658 0.888916 9.83723 0.888916 10.6675ZM8.00003 3.55637C10.0703 3.55637 11.7735 5.12929 11.9792 7.14535C13.2507 7.34825 14.2222 8.45003 14.2222 9.77859C14.2222 11.2514 13.0283 12.4453 11.5556 12.4453H3.55558C2.5737 12.4453 1.7778 11.6494 1.7778 10.6675C1.7778 10.1811 1.97308 9.74037 2.28952 9.41939C2.50248 9.20337 2.77032 9.04159 3.07045 8.95665C2.8549 8.74692 2.70999 8.465 2.67493 8.14987C2.66949 8.10094 2.66669 8.0512 2.66669 8.00081C2.66669 7.26449 3.2637 6.66748 4.00003 6.66748C4.03312 6.66748 4.06589 6.66867 4.09833 6.67106C4.50122 4.88797 6.09519 3.55637 8.00003 3.55637Z" fill="white"/>
<path d="M5.90752 5.9085C6.08108 5.73493 6.36249 5.73493 6.53606 5.9085L7.99957 7.372L9.46307 5.9085C9.63664 5.73493 9.91805 5.73493 10.0916 5.9085C10.2652 6.08206 10.2652 6.36347 10.0916 6.53703L8.62811 8.00054L10.0916 9.46405C10.2652 9.63762 10.2652 9.91902 10.0916 10.0926C9.91805 10.2662 9.63664 10.2662 9.46307 10.0926L7.99957 8.62908L6.53606 10.0926C6.36249 10.2662 6.08108 10.2662 5.90752 10.0926C5.73395 9.91902 5.73395 9.63762 5.90752 9.46405L7.37103 8.00054L5.90752 6.53703C5.73395 6.36347 5.73395 6.08206 5.90752 5.9085Z" fill="white"/>
</svg>
