<svg width="16" height="16" viewBox="0 0 16 16" fill="none" xmlns="http://www.w3.org/2000/svg">
<path fill-rule="evenodd" clip-rule="evenodd" d="M3.55558 13.3341C2.08282 13.3341 0.888916 12.1402 0.888916 10.6675C0.888916 9.79118 1.31155 9.01362 1.96422 8.52751C1.87948 8.3578 1.82099 8.17269 1.7943 7.97748C1.78345 7.89795 1.7778 7.81668 1.7778 7.7341C1.7778 6.81288 2.47843 6.05539 3.3759 5.96533C4.03605 4.04639 5.85702 2.66748 8.00003 2.66748C10.3132 2.66748 12.251 4.27382 12.7589 6.4318C14.1303 6.92497 15.1111 8.23736 15.1111 9.77859C15.1111 11.7422 13.5192 13.3341 11.5556 13.3341H3.55558ZM5.90801 5.9088C6.08152 5.73519 6.36298 5.73519 6.53649 5.9088L8.00003 7.37223L9.46357 5.9088C9.63707 5.73519 9.91854 5.73519 10.092 5.9088C10.2657 6.0823 10.2657 6.36377 10.092 6.53727L8.62861 8.00081L10.092 9.46436C10.2657 9.63786 10.2657 9.91933 10.092 10.0928C9.91854 10.2664 9.63707 10.2664 9.46357 10.0928L8.00003 8.62939L6.53649 10.0928C6.36298 10.2664 6.08152 10.2664 5.90801 10.0928C5.7344 9.91933 5.7344 9.63786 5.90801 9.46436L7.37145 8.00081L5.90801 6.53727C5.7344 6.36377 5.7344 6.0823 5.90801 5.9088Z" fill="white"/>
</svg>
