<svg width="24" height="24" viewBox="0 0 24 24" fill="none" xmlns="http://www.w3.org/2000/svg">
<path fill-rule="evenodd" clip-rule="evenodd" d="M1.33301 16C1.33301 18.2091 3.12386 20 5.33301 20H17.333C20.2785 20 22.6663 17.6121 22.6663 14.6667C22.6663 12.3548 21.1952 10.3862 19.138 9.64648C18.3761 6.4095 15.4694 4 11.9997 4C8.78516 4 6.05371 6.06836 5.06348 8.94678C3.71729 9.08187 2.66634 10.2181 2.66634 11.5999C2.66634 11.7638 2.68115 11.9243 2.70947 12.0801C2.75505 12.3307 2.83561 12.5692 2.94596 12.79C1.96696 13.5192 1.33301 14.6855 1.33301 16ZM15.4268 9.82271C15.691 9.40164 15.5638 8.84618 15.1427 8.58204C14.7216 8.31791 14.1662 8.44513 13.902 8.8662L11.2635 13.0723L10.0472 11.4567C9.74819 11.0596 9.18392 10.98 8.78682 11.279C8.38973 11.578 8.31018 12.1422 8.60915 12.5393L10.6121 15.1996C10.7902 15.4363 11.0734 15.5701 11.3694 15.5575C11.6653 15.5449 11.9361 15.3875 12.0935 15.1366L15.4268 9.82271Z" fill="white"/>
</svg>
