<svg width="24" height="24" viewBox="0 0 24 24" fill="none" xmlns="http://www.w3.org/2000/svg">
<path fill-rule="evenodd" clip-rule="evenodd" d="M5.33301 20C3.12386 20 1.33301 18.2091 1.33301 16C1.33301 14.6855 1.96696 13.5192 2.94596 12.79C2.81543 12.5286 2.7264 12.2427 2.68799 11.9409C2.67367 11.8293 2.66634 11.7155 2.66634 11.5999C2.66634 10.2181 3.71729 9.08187 5.06348 8.94678C6.05371 6.06836 8.78516 4 11.9997 4C15.4694 4 18.3761 6.40951 19.138 9.64648C21.1952 10.3862 22.6663 12.3548 22.6663 14.6667C22.6663 17.6121 20.2785 20 17.333 20H5.33301ZM12.6663 7.19987V8.05534C14.5581 8.37272 15.9997 10.0181 15.9997 12C15.9997 14.2091 14.2088 16 11.9997 16C9.79053 16 7.99967 14.2091 7.99967 12C7.99967 11.6318 8.29818 11.3333 8.66634 11.3333C9.03451 11.3333 9.33301 11.6318 9.33301 12C9.33301 13.4728 10.5269 14.6667 11.9997 14.6667C13.4725 14.6667 14.6663 13.4728 14.6663 12C14.6663 10.7575 13.8164 9.71338 12.6663 9.41732V10.1333C12.6663 10.353 12.4154 10.4785 12.2396 10.3465L10.284 8.87988C10.1982 8.81543 10.1642 8.71208 10.182 8.61686C10.1937 8.55436 10.2277 8.49544 10.284 8.45329L12.2396 6.98665C12.3424 6.90951 12.4709 6.92041 12.5599 6.98665C12.623 7.03369 12.6663 7.10856 12.6663 7.19987Z" fill="white"/>
</svg>
