<svg width="16" height="16" viewBox="0 0 16 16" fill="none" xmlns="http://www.w3.org/2000/svg">
<path fill-rule="evenodd" clip-rule="evenodd" d="M3.55558 13.3339C2.08282 13.3339 0.888916 12.14 0.888916 10.6672C0.888916 9.79093 1.31155 9.01337 1.96422 8.52726C1.8772 8.353 1.81784 8.16235 1.79224 7.96118C1.78269 7.88675 1.7778 7.8109 1.7778 7.73386C1.7778 6.81264 2.47843 6.05515 3.3759 5.96509C4.03605 4.04614 5.85702 2.66724 8.00003 2.66724C10.3132 2.66724 12.251 4.27357 12.7589 6.43156C14.1303 6.92472 15.1111 8.23711 15.1111 9.77835C15.1111 11.742 13.5192 13.3339 11.5556 13.3339H3.55558ZM8.44447 4.80048V5.3708C9.70565 5.58238 10.6667 6.67928 10.6667 8.00057C10.6667 9.47333 9.47279 10.6672 8.00003 10.6672C6.52726 10.6672 5.33336 9.47333 5.33336 8.00057C5.33336 7.75513 5.53236 7.55613 5.7778 7.55613C6.02325 7.55613 6.22225 7.75513 6.22225 8.00057C6.22225 8.98245 7.01815 9.77835 8.00003 9.77835C8.98191 9.77835 9.77781 8.98245 9.77781 8.00057C9.77781 7.17223 9.21118 6.47616 8.44447 6.27878V6.7561C8.44447 6.90259 8.27715 6.98625 8.15997 6.89825L6.85626 5.92049C6.79907 5.87752 6.77639 5.80862 6.78822 5.74514C6.79603 5.70348 6.81871 5.6642 6.85626 5.63609L8.15997 4.65834C8.22854 4.60691 8.31415 4.61418 8.37351 4.65834C8.41561 4.6897 8.44447 4.73961 8.44447 4.80048Z" fill="white"/>
</svg>
