<svg width="24" height="24" viewBox="0 0 24 24" fill="none" xmlns="http://www.w3.org/2000/svg">
<path opacity="0.5" fill-rule="evenodd" clip-rule="evenodd" d="M1.33301 16C1.33301 18.2092 3.12381 20 5.33301 20H17.333C20.2785 20 22.6663 17.6122 22.6663 14.6667C22.6663 12.3541 21.1955 10.3868 19.1379 9.64679C18.3756 6.40912 15.4695 4 11.9997 4C8.84529 4 6.15828 5.99069 5.12226 8.78336C3.70703 9.16853 2.66634 10.4628 2.66634 12C2.66634 12.3155 2.71038 12.621 2.7925 12.9105C1.90155 13.6436 1.33301 14.7546 1.33301 16ZM11.9997 5.33333C15.1051 5.33333 17.6598 7.69271 17.9684 10.7168C19.8757 11.0212 21.333 12.6738 21.333 14.6667C21.333 16.8758 19.5422 18.6667 17.333 18.6667H5.33301C3.86019 18.6667 2.66634 17.4728 2.66634 16C2.66634 15.2704 2.95925 14.6093 3.43391 14.1279C3.75335 13.8038 4.15511 13.5612 4.60531 13.4338C4.28198 13.1192 4.06462 12.6963 4.01203 12.2236C4.00387 12.1502 3.99967 12.0756 3.99967 12C3.99967 10.8955 4.89518 10 5.99967 10C6.04932 10 6.09847 10.0018 6.14714 10.0054C6.75146 7.33073 9.14242 5.33333 11.9997 5.33333Z" fill="white"/>
<path d="M12.6666 7.19952V8.05489C14.5585 8.37226 16 10.0176 16 11.9996C16 14.2087 14.2091 15.9996 12 15.9996C9.79086 15.9996 8 14.2087 8 11.9996C8 11.6314 8.29848 11.3329 8.66667 11.3329C9.03486 11.3329 9.33333 11.6314 9.33333 11.9996C9.33333 13.4724 10.5272 14.6663 12 14.6663C13.4728 14.6663 14.6667 13.4724 14.6667 11.9996C14.6667 10.757 13.8168 9.71294 12.6666 9.41693V10.1329C12.6666 10.3526 12.4158 10.478 12.24 10.3462L10.2844 8.87952C10.1422 8.77286 10.1422 8.55952 10.2844 8.45286L12.24 6.98619C12.4158 6.85434 12.6666 6.97978 12.6666 7.19952Z" fill="white"/>
</svg>
