<svg width="16" height="16" viewBox="0 0 16 16" fill="none" xmlns="http://www.w3.org/2000/svg">
<path d="M3.45679 2.80921C3.26587 2.61828 2.95632 2.61828 2.7654 2.80921C2.57448 3.00013 2.57448 3.30968 2.7654 3.5006L13.4321 14.1673C13.623 14.3582 13.9325 14.3582 14.1235 14.1673C14.3144 13.9763 14.3144 13.6668 14.1235 13.4759L13.4675 12.8199C14.4558 12.1883 15.1111 11.0815 15.1111 9.82161C15.1111 8.28038 14.1303 6.96799 12.7589 6.47483C12.251 4.31684 10.3132 2.7105 8.00003 2.7105C6.71283 2.7105 5.54181 3.20799 4.66875 4.02117L3.45679 2.80921Z" fill="white"/>
<path d="M0.888916 10.7105C0.888916 12.1833 2.08282 13.3772 3.55558 13.3772H11.4864L3.5919 5.4827C3.51013 5.6527 3.43789 5.82814 3.3759 6.00835C2.47843 6.09842 1.7778 6.8559 1.7778 7.77713C1.7778 8.06228 1.84497 8.33171 1.96422 8.57053C1.31155 9.05664 0.888916 9.8342 0.888916 10.7105Z" fill="white"/>
</svg>
