<svg width="16" height="16" viewBox="0 0 16 16" fill="none" xmlns="http://www.w3.org/2000/svg">
<path fill-rule="evenodd" clip-rule="evenodd" d="M0.888916 10.6665C0.888916 12.1393 2.08278 13.3332 3.55558 13.3332H11.5556C13.5193 13.3332 15.1111 11.7413 15.1111 9.77762C15.1111 8.23593 14.1306 6.92436 12.7589 6.43103C12.2507 4.27258 10.3133 2.6665 8.00003 2.6665C5.8971 2.6665 4.10576 3.99363 3.41509 5.85541C2.4716 6.11219 1.7778 6.97503 1.7778 7.99984C1.7778 8.2102 1.80717 8.41384 1.86191 8.60682C1.26794 9.0956 0.888916 9.83626 0.888916 10.6665ZM8.00003 3.55539C10.0703 3.55539 11.7735 5.12831 11.9792 7.14437C13.2507 7.34728 14.2222 8.44906 14.2222 9.77762C14.2222 11.2504 13.0283 12.4443 11.5556 12.4443H3.55558C2.5737 12.4443 1.7778 11.6484 1.7778 10.6665C1.7778 10.1801 1.97308 9.73939 2.28952 9.41841C2.50248 9.20239 2.77032 9.04062 3.07045 8.95568C2.8549 8.74594 2.70999 8.46402 2.67493 8.14889C2.66949 8.09996 2.66669 8.05023 2.66669 7.99984C2.66669 7.26351 3.2637 6.6665 4.00003 6.6665C4.03312 6.6665 4.06589 6.6677 4.09833 6.67008C4.50122 4.88699 6.09519 3.55539 8.00003 3.55539Z" fill="white"/>
</svg>
