<svg width="24" height="24" viewBox="0 0 24 24" fill="none" xmlns="http://www.w3.org/2000/svg">
<path opacity="0.5" fill-rule="evenodd" clip-rule="evenodd" d="M11.9997 5.33333C9.3057 5.33333 7.02478 7.1093 6.26713 9.55592L6.14172 9.96088L5.7218 10.0191C4.74898 10.1539 3.99967 10.99 3.99967 12C3.99967 12.3115 4.07042 12.6046 4.1961 12.8658L4.45742 13.4089L3.94338 13.7235C3.17599 14.1931 2.66634 15.0374 2.66634 16C2.66634 17.4728 3.86025 18.6667 5.33301 18.6667H7.33301C7.7012 18.6667 7.99967 18.9651 7.99967 19.3333C7.99967 19.7015 7.7012 20 7.33301 20H5.33301C3.12387 20 1.33301 18.2091 1.33301 16C1.33301 14.755 1.90213 13.6434 2.79237 12.9104C2.71023 12.6206 2.66634 12.3151 2.66634 12C2.66634 10.4626 3.70667 9.16905 5.12195 8.7836C6.15765 5.99109 8.84534 4 11.9997 4C15.4697 4 18.3758 6.40957 19.138 9.64671C21.1948 10.3865 22.6663 12.354 22.6663 14.6667C22.6663 17.6122 20.2785 20 17.333 20H16.6663C16.2982 20 15.9997 19.7015 15.9997 19.3333C15.9997 18.9651 16.2982 18.6667 16.6663 18.6667H17.333C19.5421 18.6667 21.333 16.8758 21.333 14.6667C21.333 12.8237 20.0861 11.2703 18.3887 10.8073L17.9813 10.6961L17.9077 10.2803C17.4103 7.46876 14.9537 5.33333 11.9997 5.33333Z" fill="white"/>
<path fill-rule="evenodd" clip-rule="evenodd" d="M12.0003 14.6665C12.3685 14.6665 12.667 14.965 12.667 15.3332V20.3904L14.1956 18.8618C14.4559 18.6014 14.878 18.6014 15.1384 18.8618C15.3987 19.1221 15.3987 19.5442 15.1384 19.8046L12.4717 22.4712C12.2114 22.7316 11.7893 22.7316 11.5289 22.4712L8.86225 19.8046C8.6019 19.5442 8.6019 19.1221 8.86225 18.8618C9.1226 18.6014 9.54471 18.6014 9.80506 18.8618L11.3337 20.3904V15.3332C11.3337 14.965 11.6321 14.6665 12.0003 14.6665Z" fill="white"/>
</svg>
