<svg width="24" height="24" viewBox="0 0 24 24" fill="none" xmlns="http://www.w3.org/2000/svg">
<path opacity="0.5" fill-rule="evenodd" clip-rule="evenodd" d="M1.33301 16C1.33301 18.2092 3.12381 20 5.33301 20H17.333C20.2785 20 22.6663 17.6122 22.6663 14.6667C22.6663 12.3541 21.1955 10.3868 19.1379 9.64679C18.3756 6.40912 15.4695 4 11.9997 4C8.84529 4 6.15828 5.99069 5.12226 8.78336C3.70703 9.16853 2.66634 10.4628 2.66634 12C2.66634 12.3155 2.71038 12.621 2.7925 12.9105C1.90155 13.6436 1.33301 14.7546 1.33301 16ZM11.9997 5.33333C15.1051 5.33333 17.6598 7.69271 17.9684 10.7168C19.8757 11.0212 21.333 12.6738 21.333 14.6667C21.333 16.8758 19.5422 18.6667 17.333 18.6667H5.33301C3.86019 18.6667 2.66634 17.4728 2.66634 16C2.66634 15.2704 2.95925 14.6093 3.43391 14.1279C3.75335 13.8038 4.15511 13.5612 4.60531 13.4338C4.28198 13.1192 4.06462 12.6963 4.01203 12.2236C4.00387 12.1502 3.99967 12.0756 3.99967 12C3.99967 10.8955 4.89518 10 5.99967 10C6.04932 10 6.09847 10.0018 6.14714 10.0054C6.75146 7.33073 9.14242 5.33333 11.9997 5.33333Z" fill="white"/>
<path d="M8.86225 8.86177C9.1226 8.60142 9.54471 8.60142 9.80506 8.86177L12.0003 11.057L14.1956 8.86177C14.4559 8.60142 14.878 8.60142 15.1384 8.86177C15.3987 9.12212 15.3987 9.54423 15.1384 9.80457L12.9431 11.9998L15.1384 14.1951C15.3987 14.4554 15.3987 14.8776 15.1384 15.1379C14.878 15.3983 14.4559 15.3983 14.1956 15.1379L12.0003 12.9426L9.80506 15.1379C9.54471 15.3983 9.1226 15.3983 8.86225 15.1379C8.6019 14.8776 8.6019 14.4554 8.86225 14.1951L11.0575 11.9998L8.86225 9.80458C8.60191 9.54423 8.60191 9.12212 8.86225 8.86177Z" fill="white"/>
</svg>
