<svg width="16" height="16" viewBox="0 0 16 16" fill="none" xmlns="http://www.w3.org/2000/svg">
<path opacity="0.5" fill-rule="evenodd" clip-rule="evenodd" d="M0.888916 10.666C0.888916 12.1388 2.08278 13.3327 3.55558 13.3327H11.5556C13.5193 13.3327 15.1111 11.7408 15.1111 9.77713C15.1111 8.23544 14.1306 6.92387 12.7589 6.43055C12.2507 4.27209 10.3133 2.66602 8.00003 2.66602C5.8971 2.66602 4.10576 3.99314 3.41509 5.85492C2.4716 6.1117 1.7778 6.97454 1.7778 7.99935C1.7778 8.20971 1.80717 8.41335 1.86191 8.60633C1.26794 9.09511 0.888916 9.83577 0.888916 10.666ZM8.00003 3.5549C10.0703 3.5549 11.7735 5.12782 11.9792 7.14388C13.2507 7.34679 14.2222 8.44857 14.2222 9.77713C14.2222 11.2499 13.0283 12.4438 11.5556 12.4438H3.55558C2.5737 12.4438 1.7778 11.6479 1.7778 10.666C1.7778 10.1796 1.97308 9.73891 2.28952 9.41792C2.50248 9.20191 2.77032 9.04013 3.07045 8.95519C2.8549 8.74546 2.70999 8.46353 2.67493 8.1484C2.66949 8.09947 2.66669 8.04974 2.66669 7.99935C2.66669 7.26302 3.2637 6.66602 4.00003 6.66602C4.03312 6.66602 4.06589 6.66721 4.09833 6.6696C4.50122 4.8865 6.09519 3.5549 8.00003 3.5549Z" fill="white"/>
<path d="M8.00564 8.53838C8.31597 8.53838 8.49089 8.36347 8.50781 8.03621L8.58681 6.2758C8.60373 5.92597 8.34983 5.68335 8 5.68335C7.64453 5.68335 7.39627 5.92033 7.41319 6.27016L7.49219 8.03621C7.50911 8.36347 7.68403 8.53838 8.00564 8.53838Z" fill="white"/>
<path d="M8 10.3157C8.38368 10.3157 8.66016 10.0675 8.66016 9.712C8.66016 9.35653 8.37804 9.10826 8 9.10826C7.61632 9.10826 7.33984 9.35653 7.33984 9.712C7.33984 10.0618 7.61632 10.3157 8 10.3157Z" fill="white"/>
</svg>
