<svg width="16" height="16" viewBox="0 0 16 16" fill="none" xmlns="http://www.w3.org/2000/svg">
<path opacity="0.5" fill-rule="evenodd" clip-rule="evenodd" d="M8.00003 3.55539C6.20404 3.55539 4.68343 4.73937 4.17833 6.37045L4.09472 6.64042L3.81478 6.67921C3.16623 6.76908 2.66669 7.3265 2.66669 7.99984C2.66669 8.2075 2.71386 8.4029 2.79764 8.57702L2.97186 8.93907L2.62917 9.14882C2.11757 9.46193 1.7778 10.0247 1.7778 10.6665C1.7778 11.6483 2.57374 12.4443 3.55558 12.4443H4.88892C5.13438 12.4443 5.33336 12.6433 5.33336 12.8887C5.33336 13.1342 5.13438 13.3332 4.88892 13.3332H3.55558C2.08282 13.3332 0.888916 12.1393 0.888916 10.6665C0.888916 9.8365 1.26833 9.0954 1.86182 8.60678C1.80706 8.41357 1.7778 8.20989 1.7778 7.99984C1.7778 6.97488 2.47136 6.11254 3.41488 5.85557C4.10534 3.99389 5.89714 2.6665 8.00003 2.6665C10.3134 2.6665 12.2508 4.27288 12.7589 6.43098C14.1301 6.92414 15.1111 8.2358 15.1111 9.77762C15.1111 11.7413 13.5193 13.3332 11.5556 13.3332H11.1111C10.8657 13.3332 10.6667 13.1342 10.6667 12.8887C10.6667 12.6433 10.8657 12.4443 11.1111 12.4443H11.5556C13.0283 12.4443 14.2222 11.2504 14.2222 9.77762C14.2222 8.54899 13.391 7.51339 12.2594 7.20469L11.9877 7.13059L11.9387 6.85334C11.6071 4.97901 9.96937 3.55539 8.00003 3.55539Z" fill="white"/>
<path fill-rule="evenodd" clip-rule="evenodd" d="M7.99957 9.77783C8.24503 9.77783 8.44401 9.97682 8.44401 10.2223V13.5937L9.46307 12.5747C9.63664 12.4011 9.91805 12.4011 10.0916 12.5747C10.2652 12.7482 10.2652 13.0296 10.0916 13.2032L8.31384 14.981C8.14027 15.1546 7.85886 15.1546 7.6853 14.981L5.90752 13.2032C5.73395 13.0296 5.73395 12.7482 5.90752 12.5747C6.08108 12.4011 6.36249 12.4011 6.53606 12.5747L7.55512 13.5937V10.2223C7.55512 9.97682 7.75411 9.77783 7.99957 9.77783Z" fill="white"/>
</svg>
