<svg width="24" height="24" viewBox="0 0 24 24" fill="none" xmlns="http://www.w3.org/2000/svg">
<path opacity="0.5" fill-rule="evenodd" clip-rule="evenodd" d="M11.9997 5.33333C10.1903 5.33333 8.56848 6.13345 7.46739 7.40146C7.22599 7.67946 6.80492 7.70913 6.52692 7.46772C6.24891 7.22631 6.21924 6.80525 6.46065 6.52724C7.8042 4.98002 9.78787 4 11.9997 4C15.4697 4 18.3758 6.40957 19.138 9.64671C21.1948 10.3865 22.6663 12.354 22.6663 14.6667C22.6663 16.9337 21.2521 18.8689 19.2601 19.641C18.9168 19.7741 18.5306 19.6037 18.3975 19.2604C18.2644 18.9171 18.4349 18.5309 18.7782 18.3978C20.2741 17.8179 21.333 16.3651 21.333 14.6667C21.333 12.8237 20.0861 11.2703 18.3887 10.8073L17.9813 10.6961L17.9077 10.2803C17.4103 7.46876 14.9537 5.33333 11.9997 5.33333ZM6.29065 9.26721C6.34119 9.63191 6.0865 9.96853 5.7218 10.0191C4.74898 10.1539 3.99967 10.99 3.99967 12C3.99967 12.3115 4.07042 12.6046 4.1961 12.8658L4.45742 13.4089L3.94338 13.7235C3.17599 14.1931 2.66634 15.0374 2.66634 16C2.66634 17.4728 3.86025 18.6667 5.33301 18.6667H15.5996C15.9678 18.6667 16.2663 18.9651 16.2663 19.3333C16.2663 19.7015 15.9678 20 15.5996 20H5.33301C3.12387 20 1.33301 18.2091 1.33301 16C1.33301 14.755 1.90213 13.6434 2.79237 12.9104C2.71023 12.6206 2.66634 12.3151 2.66634 12C2.66634 10.3152 3.91573 8.92325 5.53879 8.69835C5.9035 8.64782 6.24012 8.9025 6.29065 9.26721Z" fill="white"/>
<path fill-rule="evenodd" clip-rule="evenodd" d="M4.19526 4.19526C4.45561 3.93491 4.87772 3.93491 5.13807 4.19526L21.1381 20.1953C21.3984 20.4556 21.3984 20.8777 21.1381 21.1381C20.8777 21.3984 20.4556 21.3984 20.1953 21.1381L4.19526 5.13807C3.93491 4.87772 3.93491 4.45561 4.19526 4.19526Z" fill="white"/>
</svg>
