<svg width="24" height="24" viewBox="0 0 24 24" fill="none" xmlns="http://www.w3.org/2000/svg">
<path d="M5.18482 4.21479C4.89844 3.9284 4.43412 3.9284 4.14773 4.21479C3.86135 4.50117 3.86135 4.96549 4.14773 5.25188L20.1477 21.2519C20.4341 21.5383 20.8984 21.5383 21.1848 21.2519C21.4712 20.9655 21.4712 20.5012 21.1848 20.2148L20.2009 19.2308C21.6834 18.2835 22.6663 16.6232 22.6663 14.7334C22.6663 12.4215 21.1952 10.453 19.138 9.71322C18.3761 6.47624 15.4694 4.06673 11.9997 4.06673C10.0689 4.06673 8.31235 4.81296 7.00276 6.03273L5.18482 4.21479Z" fill="white"/>
<path d="M1.33301 16.0667C1.33301 18.2759 3.12386 20.0667 5.33301 20.0667H17.2292L5.38749 8.22503C5.26482 8.48002 5.15647 8.74319 5.06348 9.01351C3.71729 9.1486 2.66634 10.2848 2.66634 11.6667C2.66634 12.0944 2.76709 12.4985 2.94596 12.8568C1.96696 13.5859 1.33301 14.7523 1.33301 16.0667Z" fill="white"/>
</svg>
