<svg width="16" height="16" viewBox="0 0 16 16" fill="none" xmlns="http://www.w3.org/2000/svg">
<path opacity="0.5" fill-rule="evenodd" clip-rule="evenodd" d="M8.00003 3.5549C6.79375 3.5549 5.71256 4.08832 4.97851 4.93365C4.81757 5.11899 4.53686 5.13877 4.35152 4.97783C4.16619 4.81689 4.14641 4.53618 4.30735 4.35084C5.20304 3.31936 6.52549 2.66602 8.00003 2.66602C10.3134 2.66602 12.2508 4.27239 12.7589 6.43049C14.1301 6.92365 15.1111 8.23532 15.1111 9.77713C15.1111 11.2885 14.1683 12.5786 12.8403 13.0934C12.6114 13.1821 12.354 13.0685 12.2652 12.8396C12.1765 12.6107 12.2901 12.3533 12.519 12.2646C13.5163 11.878 14.2222 10.9094 14.2222 9.77713C14.2222 8.5485 13.391 7.5129 12.2594 7.2042L11.9877 7.1301L11.9387 6.85285C11.6071 4.97852 9.96937 3.5549 8.00003 3.5549ZM4.19401 6.17749C4.2277 6.42062 4.05791 6.64504 3.81478 6.67873C3.16623 6.76859 2.66669 7.32601 2.66669 7.99935C2.66669 8.20702 2.71386 8.40242 2.79764 8.57653L2.97186 8.93858L2.62917 9.14833C2.11757 9.46145 1.7778 10.0242 1.7778 10.666C1.7778 11.6479 2.57374 12.4438 3.55558 12.4438H10.4C10.6454 12.4438 10.8444 12.6428 10.8444 12.8882C10.8444 13.1337 10.6454 13.3327 10.4 13.3327H3.55558C2.08282 13.3327 0.888916 12.1388 0.888916 10.666C0.888916 9.83601 1.26833 9.09492 1.86182 8.60629C1.80706 8.41308 1.7778 8.2094 1.7778 7.99935C1.7778 6.87612 2.61073 5.94818 3.69277 5.79825C3.93591 5.76456 4.16032 5.93435 4.19401 6.17749Z" fill="white"/>
<path fill-rule="evenodd" clip-rule="evenodd" d="M2.79717 2.79619C2.97073 2.62262 3.25214 2.62262 3.42571 2.79619L14.0924 13.4629C14.2659 13.6364 14.2659 13.9178 14.0924 14.0914C13.9188 14.265 13.6374 14.265 13.4638 14.0914L2.79717 3.42473C2.6236 3.25116 2.6236 2.96976 2.79717 2.79619Z" fill="white"/>
</svg>
