<svg width="16" height="16" viewBox="0 0 16 16" fill="none" xmlns="http://www.w3.org/2000/svg">
<path opacity="0.5" fill-rule="evenodd" clip-rule="evenodd" d="M0.888916 10.6667C0.888916 12.1395 2.08278 13.3334 3.55558 13.3334H11.5556C13.5193 13.3334 15.1111 11.7415 15.1111 9.77786C15.1111 8.23618 14.1306 6.9246 12.7589 6.43128C12.2507 4.27283 10.3133 2.66675 8.00003 2.66675C5.8971 2.66675 4.10576 3.99388 3.41509 5.85566C2.4716 6.11243 1.7778 6.97528 1.7778 8.00008C1.7778 8.21044 1.80717 8.41409 1.86191 8.60706C1.26794 9.09585 0.888916 9.8365 0.888916 10.6667ZM8.00003 3.55564C10.0703 3.55564 11.7735 5.12855 11.9792 7.14461C13.2507 7.34752 14.2222 8.4493 14.2222 9.77786C14.2222 11.2506 13.0283 12.4445 11.5556 12.4445H3.55558C2.5737 12.4445 1.7778 11.6486 1.7778 10.6667C1.7778 10.1804 1.97308 9.73964 2.28952 9.41866C2.50248 9.20264 2.77032 9.04086 3.07045 8.95592C2.8549 8.74619 2.70999 8.46427 2.67493 8.14914C2.66949 8.1002 2.66669 8.05047 2.66669 8.00008C2.66669 7.26375 3.2637 6.66675 4.00003 6.66675C4.03312 6.66675 4.06589 6.66794 4.09833 6.67033C4.50122 4.88723 6.09519 3.55564 8.00003 3.55564Z" fill="white"/>
<path d="M10.1917 6.48146C10.3348 6.2525 10.2652 5.95088 10.0362 5.80778C9.80728 5.66467 9.50566 5.73428 9.36256 5.96324L7.51823 8.91418L6.61269 7.7068C6.45069 7.49079 6.14425 7.44702 5.92825 7.60902C5.71225 7.77102 5.66847 8.07746 5.83047 8.29346L7.16381 10.0712C7.26053 10.2002 7.41461 10.2732 7.57566 10.2664C7.73672 10.2595 7.88406 10.1737 7.96949 10.037L10.1917 6.48146Z" fill="white"/>
</svg>
