<svg width="24" height="24" viewBox="0 0 24 24" fill="none" xmlns="http://www.w3.org/2000/svg">
<path d="M9.5 6.5C9.5 5.11929 10.6193 4 12 4C13.3807 4 14.5 5.11929 14.5 6.5C14.5 7.88071 13.3807 9 12 9C10.6193 9 9.5 7.88071 9.5 6.5Z" fill="white"/>
<path d="M16 9C16 7.89543 16.8954 7 18 7C19.1046 7 20 7.89543 20 9C20 10.1046 19.1046 11 18 11C16.8954 11 16 10.1046 16 9Z" fill="white"/>
<path d="M4 9C4 7.89543 4.89543 7 6 7C7.10457 7 8 7.89543 8 9C8 10.1046 7.10457 11 6 11C4.89543 11 4 10.1046 4 9Z" fill="white"/>
<path d="M12 10C9.51472 10 7.5 12.0147 7.5 14.5C7.5 14.8362 7.53714 15.1652 7.60742 15.4813L8.51159 19.607C8.56188 19.8365 8.7651 20 9 20H15C15.2349 20 15.4381 19.8365 15.4884 19.607L16.3928 15.4805C16.463 15.1644 16.5 14.8362 16.5 14.5C16.5 12.0147 14.4853 10 12 10Z" fill="white"/>
<path d="M6 12C6.23229 12 6.45929 12.0226 6.67893 12.0658C6.33931 12.807 6.15 13.6314 6.15 14.5C6.15 14.9349 6.19796 15.3614 6.28912 15.7721L6.28959 15.7743L7.21567 20H4C3.77551 20 3.57854 19.8504 3.51832 19.6341L2.65261 16.525C2.55327 16.2002 2.5 15.8559 2.5 15.5C2.5 13.567 4.067 12 6 12Z" fill="white"/>
<path d="M17.3211 12.0658C17.6607 12.807 17.85 13.6314 17.85 14.5C17.85 14.9347 17.8023 15.3604 17.7111 15.7714L17.7106 15.7735L16.7843 20H20C20.2245 20 20.4215 19.8504 20.4817 19.6341L21.3474 16.525C21.4467 16.2002 21.5 15.8559 21.5 15.5C21.5 13.567 19.933 12 18 12C17.7677 12 17.5407 12.0226 17.3211 12.0658Z" fill="white"/>
</svg>
