<svg width="16" height="16" viewBox="0 0 16 16" fill="none" xmlns="http://www.w3.org/2000/svg">
<path d="M7.99989 2.5498C7.01498 2.5498 6.21655 3.34823 6.21655 4.33314C6.21655 5.31805 7.01498 6.11647 7.99989 6.11647C8.98479 6.11647 9.78322 5.31805 9.78322 4.33314C9.78322 3.34823 8.98479 2.5498 7.99989 2.5498Z" fill="white"/>
<path d="M11.9999 4.5498C11.1991 4.5498 10.5499 5.19899 10.5499 5.9998C10.5499 6.80062 11.1991 7.4498 11.9999 7.4498C12.8007 7.4498 13.4499 6.80062 13.4499 5.9998C13.4499 5.19899 12.8007 4.5498 11.9999 4.5498Z" fill="white"/>
<path d="M2.54993 5.9998C2.54993 5.19899 3.19911 4.5498 3.99993 4.5498C4.80074 4.5498 5.44993 5.19899 5.44993 5.9998C5.44993 6.80062 4.80074 7.4498 3.99993 7.4498C3.19911 7.4498 2.54993 6.80062 2.54993 5.9998Z" fill="white"/>
<path d="M7.99985 6.5498C6.27856 6.5498 4.88318 7.94518 4.88318 9.66647C4.88318 9.89913 4.90891 10.1271 4.95757 10.346L5.56028 13.0961C5.60553 13.3026 5.78844 13.4498 5.99985 13.4498H9.99985C10.2113 13.4498 10.3942 13.3026 10.4394 13.0961L11.0423 10.3454C11.0909 10.1264 11.1165 9.89916 11.1165 9.66647C11.1165 7.94518 9.72113 6.5498 7.99985 6.5498Z" fill="white"/>
<path d="M3.9998 7.8833C4.09481 7.8833 4.18855 7.88871 4.28074 7.89923C4.02584 8.43471 3.88318 9.03393 3.88318 9.66647C3.88318 9.97228 3.91694 10.2724 3.98105 10.5614L3.9814 10.563L4.61409 13.45H2.70445C2.47996 13.45 2.28299 13.3003 2.22277 13.0841L1.65621 11.0493C1.58692 10.8223 1.5498 10.5817 1.5498 10.3333C1.5498 8.9802 2.64671 7.8833 3.9998 7.8833Z" fill="white"/>
<path d="M11.719 7.89923C11.9739 8.43471 12.1165 9.03393 12.1165 9.66647C12.1165 9.97206 12.083 10.2715 12.0188 10.5608L12.0184 10.5624L11.3856 13.45H13.2953C13.5197 13.45 13.7167 13.3003 13.7769 13.0841L14.3435 11.0493C14.4128 10.8223 14.4499 10.5817 14.4499 10.3333C14.4499 8.9802 13.353 7.8833 11.9999 7.8833C11.9049 7.8833 11.8111 7.88871 11.719 7.89923Z" fill="white"/>
</svg>
