<svg width="16" height="16" viewBox="0 0 16 16" fill="none" xmlns="http://www.w3.org/2000/svg">
<path d="M8.5 4C8.5 3.72386 8.27614 3.5 8 3.5C7.72386 3.5 7.5 3.72386 7.5 4V4.33329C7.5 4.60944 7.72386 4.83329 8 4.83329C8.27614 4.83329 8.5 4.60944 8.5 4.33329V4Z" fill="white"/>
<path d="M8 8.5C8.27614 8.5 8.5 8.27614 8.5 8C8.5 7.72386 8.27614 7.5 8 7.5C7.72386 7.5 7.5 7.72386 7.5 8C7.5 8.27614 7.72386 8.5 8 8.5Z" fill="white"/>
<path fill-rule="evenodd" clip-rule="evenodd" d="M5.22361 4.55279C5.03111 4.45654 4.79863 4.49427 4.64645 4.64645C4.49427 4.79863 4.45654 5.03111 4.55279 5.22361L6.15526 8.42856C6.46168 9.0414 6.9586 9.53832 7.57144 9.84474L10.7764 11.4472C10.9689 11.5435 11.2014 11.5057 11.3536 11.3536C11.5057 11.2014 11.5435 10.9689 11.4472 10.7764L9.84474 7.57144C9.53832 6.9586 9.0414 6.46168 8.42856 6.15526L5.22361 4.55279ZM7.98135 7.04969C8.40066 7.25935 8.74065 7.59934 8.95031 8.01865L9.88197 9.88197L8.01865 8.95031C7.59934 8.74065 7.25935 8.40066 7.04969 7.98135L6.11803 6.11803L7.98135 7.04969Z" fill="white"/>
<path d="M4 7.5C3.72386 7.5 3.5 7.72386 3.5 8C3.5 8.27614 3.72386 8.5 4 8.5H4.33337C4.60952 8.5 4.83337 8.27614 4.83337 8C4.83337 7.72386 4.60952 7.5 4.33337 7.5H4Z" fill="white"/>
<path d="M11.6667 7.5C11.3906 7.5 11.1667 7.72386 11.1667 8C11.1667 8.27614 11.3906 8.5 11.6667 8.5H12C12.2761 8.5 12.5 8.27614 12.5 8C12.5 7.72386 12.2761 7.5 12 7.5H11.6667Z" fill="white"/>
<path d="M8.5 11.6667C8.5 11.3905 8.27614 11.1667 8 11.1667C7.72386 11.1667 7.5 11.3905 7.5 11.6667V12C7.5 12.2761 7.72386 12.5 8 12.5C8.27614 12.5 8.5 12.2761 8.5 12V11.6667Z" fill="white"/>
<path fill-rule="evenodd" clip-rule="evenodd" d="M8 2C4.68629 2 2 4.68629 2 8C2 11.3137 4.68629 14 8 14C11.3137 14 14 11.3137 14 8C14 4.68629 11.3137 2 8 2ZM3 8C3 5.23858 5.23858 3 8 3C10.7614 3 13 5.23858 13 8C13 10.7614 10.7614 13 8 13C5.23858 13 3 10.7614 3 8Z" fill="white"/>
</svg>
