<svg width="16" height="16" viewBox="0 0 16 16" fill="none" xmlns="http://www.w3.org/2000/svg">
<path d="M8.66671 7.99998C8.66671 8.36817 8.36823 8.66665 8.00004 8.66665C7.63185 8.66665 7.33337 8.36817 7.33337 7.99998C7.33337 7.63179 7.63185 7.33331 8.00004 7.33331C8.36823 7.33331 8.66671 7.63179 8.66671 7.99998Z" fill="white"/>
<path fill-rule="evenodd" clip-rule="evenodd" d="M8 14C11.3137 14 14 11.3137 14 8C14 4.68629 11.3137 2 8 2C4.68629 2 2 4.68629 2 8C2 11.3137 4.68629 14 8 14ZM8.5 4C8.5 3.72386 8.27614 3.5 8 3.5C7.72386 3.5 7.5 3.72386 7.5 4V4.33329C7.5 4.60944 7.72386 4.83329 8 4.83329C8.27614 4.83329 8.5 4.60944 8.5 4.33329V4ZM4 7.5C3.72386 7.5 3.5 7.72386 3.5 8C3.5 8.27614 3.72386 8.5 4 8.5H4.33337C4.60952 8.5 4.83337 8.27614 4.83337 8C4.83337 7.72386 4.60952 7.5 4.33337 7.5H4ZM11.6667 7.5C11.3906 7.5 11.1667 7.72386 11.1667 8C11.1667 8.27614 11.3906 8.5 11.6667 8.5H12C12.2761 8.5 12.5 8.27614 12.5 8C12.5 7.72386 12.2761 7.5 12 7.5H11.6667ZM8.5 11.6667C8.5 11.3905 8.27614 11.1667 8 11.1667C7.72386 11.1667 7.5 11.3905 7.5 11.6667V12C7.5 12.2761 7.72386 12.5 8 12.5C8.27614 12.5 8.5 12.2761 8.5 12V11.6667ZM10.7317 10.8658L7.79505 9.39752C7.27897 9.13949 6.86051 8.72103 6.60248 8.20495L5.13416 5.26833C5.09119 5.18237 5.18237 5.09119 5.26833 5.13416L8.20495 6.60248C8.72103 6.86051 9.13949 7.27897 9.39752 7.79505L10.8658 10.7317C10.9088 10.8176 10.8176 10.9088 10.7317 10.8658Z" fill="white"/>
</svg>
