<svg width="24" height="24" viewBox="0 0 24 24" fill="none" xmlns="http://www.w3.org/2000/svg">
<path d="M12.6752 5.5002C12.6752 5.1274 12.373 4.8252 12.0002 4.8252C11.6274 4.8252 11.3252 5.1274 11.3252 5.5002V6.5002C11.3252 6.87299 11.6274 7.1752 12.0002 7.1752C12.373 7.1752 12.6752 6.87299 12.6752 6.5002V5.5002Z" fill="white"/>
<path d="M12.0002 12.7502C12.4145 12.7502 12.7502 12.4144 12.7502 12.0002C12.7502 11.586 12.4145 11.2502 12.0002 11.2502C11.586 11.2502 11.2502 11.586 11.2502 12.0002C11.2502 12.4144 11.586 12.7502 12.0002 12.7502Z" fill="white"/>
<path fill-rule="evenodd" clip-rule="evenodd" d="M7.80206 6.89646C7.5422 6.76652 7.22834 6.81746 7.0229 7.0229C6.81746 7.22834 6.76652 7.5422 6.89646 7.80206L9.30017 12.6095C9.75254 13.5142 10.4862 14.2478 11.3909 14.7002L16.1983 17.1039C16.4582 17.2339 16.772 17.1829 16.9775 16.9775C17.1829 16.772 17.2339 16.4582 17.1039 16.1983L14.7002 11.3909C14.2478 10.4862 13.5142 9.75254 12.6095 9.30017L7.80206 6.89646ZM12.0058 10.5076C12.6492 10.8294 13.171 11.3512 13.4927 11.9946L14.9908 14.9908L11.9946 13.4927C11.3512 13.171 10.8294 12.6492 10.5076 12.0058L9.00954 9.00954L12.0058 10.5076Z" fill="white"/>
<path d="M5.5002 11.3252C5.1274 11.3252 4.8252 11.6274 4.8252 12.0002C4.8252 12.373 5.1274 12.6752 5.5002 12.6752H6.5002C6.87299 12.6752 7.1752 12.373 7.1752 12.0002C7.1752 11.6274 6.87299 11.3252 6.5002 11.3252H5.5002Z" fill="white"/>
<path d="M17.5002 11.3252C17.1274 11.3252 16.8252 11.6274 16.8252 12.0002C16.8252 12.373 17.1274 12.6752 17.5002 12.6752H18.5002C18.873 12.6752 19.1752 12.373 19.1752 12.0002C19.1752 11.6274 18.873 11.3252 18.5002 11.3252H17.5002Z" fill="white"/>
<path d="M12.6752 17.5002C12.6752 17.1274 12.373 16.8252 12.0002 16.8252C11.6274 16.8252 11.3252 17.1274 11.3252 17.5002V18.5002C11.3252 18.873 11.6274 19.1752 12.0002 19.1752C12.373 19.1752 12.6752 18.873 12.6752 18.5002V17.5002Z" fill="white"/>
<path fill-rule="evenodd" clip-rule="evenodd" d="M12.0002 2.8252C6.93298 2.8252 2.8252 6.93298 2.8252 12.0002C2.8252 17.0674 6.93298 21.1752 12.0002 21.1752C17.0674 21.1752 21.1752 17.0674 21.1752 12.0002C21.1752 6.93298 17.0674 2.8252 12.0002 2.8252ZM4.1752 12.0002C4.1752 7.67857 7.67857 4.1752 12.0002 4.1752C16.3218 4.1752 19.8252 7.67857 19.8252 12.0002C19.8252 16.3218 16.3218 19.8252 12.0002 19.8252C7.67857 19.8252 4.1752 16.3218 4.1752 12.0002Z" fill="white"/>
</svg>
