<svg width="24" height="24" viewBox="0 0 24 24" fill="none" xmlns="http://www.w3.org/2000/svg">
<path d="M13 12C13 12.5523 12.5523 13 12 13C11.4477 13 11 12.5523 11 12C11 11.4477 11.4477 11 12 11C12.5523 11 13 11.4477 13 12Z" fill="white"/>
<path fill-rule="evenodd" clip-rule="evenodd" d="M12 21C16.9706 21 21 16.9706 21 12C21 7.02944 16.9706 3 12 3C7.02944 3 3 7.02944 3 12C3 16.9706 7.02944 21 12 21ZM12.675 5.49995C12.675 5.12716 12.3727 4.82495 12 4.82495C11.6272 4.82495 11.325 5.12716 11.325 5.49995V6.49995C11.325 6.87274 11.6272 7.17495 12 7.17495C12.3727 7.17495 12.675 6.87274 12.675 6.49995V5.49995ZM5.49995 11.325C5.12716 11.325 4.82495 11.6272 4.82495 12C4.82495 12.3727 5.12716 12.675 5.49995 12.675H6.49995C6.87274 12.675 7.17495 12.3727 7.17495 12C7.17495 11.6272 6.87274 11.325 6.49995 11.325H5.49995ZM17.5 11.325C17.1272 11.325 16.825 11.6272 16.825 12C16.825 12.3727 17.1272 12.675 17.5 12.675H18.5C18.8727 12.675 19.175 12.3727 19.175 12C19.175 11.6272 18.8727 11.325 18.5 11.325H17.5ZM12.675 17.5C12.675 17.1272 12.3727 16.825 12 16.825C11.6272 16.825 11.325 17.1272 11.325 17.5V18.5C11.325 18.8727 11.6272 19.175 12 19.175C12.3727 19.175 12.675 18.8727 12.675 18.5V17.5ZM16.413 16.6839L11.5565 14.0689C10.8673 13.6978 10.3022 13.1326 9.93106 12.4434L7.31605 7.58696C7.22198 7.41227 7.41227 7.22198 7.58696 7.31605L12.4434 9.93106C13.1326 10.3022 13.6978 10.8673 14.0689 11.5565L16.6839 16.413C16.778 16.5877 16.5877 16.778 16.413 16.6839Z" fill="white"/>
</svg>
