<svg width="16" height="16" viewBox="0 0 16 16" fill="none" xmlns="http://www.w3.org/2000/svg">
<path fill-rule="evenodd" clip-rule="evenodd" d="M8 14C11.3137 14 14 11.3137 14 8C14 4.68629 11.3137 2 8 2C4.68629 2 2 4.68629 2 8C2 11.3137 4.68629 14 8 14ZM4.93285 5.70011C5.0987 5.47933 5.05417 5.16589 4.83338 5.00004C4.61259 4.83418 4.29916 4.87872 4.1333 5.09951C3.52644 5.90738 3.16663 6.91237 3.16663 7.99994C3.16663 9.08756 3.52646 10.0926 4.13337 10.9005C4.29923 11.1213 4.61266 11.1658 4.83345 10.9999C5.05423 10.8341 5.09876 10.5206 4.9329 10.2998C4.45162 9.65918 4.16663 8.86357 4.16663 7.99994C4.16663 7.13635 4.4516 6.34076 4.93285 5.70011ZM11.8666 5.09955C11.7008 4.87876 11.3874 4.83422 11.1666 5.00007C10.9458 5.16593 10.9012 5.47936 11.0671 5.70015C11.5483 6.34079 11.8333 7.13637 11.8333 7.99994C11.8333 8.86355 11.5483 9.65915 11.067 10.2998C10.9012 10.5206 10.9457 10.834 11.1665 10.9999C11.3873 11.1657 11.7007 11.1212 11.8666 10.9004C12.4735 10.0925 12.8333 9.08754 12.8333 7.99994C12.8333 6.91239 12.4735 5.90742 11.8666 5.09955ZM9.66646 6.00014C9.88724 5.83428 10.2007 5.87881 10.3665 6.09959C10.7642 6.62891 11 7.28765 11 8.00003C11 8.71239 10.7642 9.37112 10.3666 9.90044C10.2007 10.1212 9.88726 10.1658 9.66648 9.9999C9.44569 9.83404 9.40116 9.52061 9.56702 9.29982C9.83902 8.93773 10 8.4884 10 8.00003C10 7.51164 9.83901 7.06231 9.567 6.70022C9.40115 6.47943 9.44567 6.166 9.66646 6.00014ZM6.43297 6.70025C6.59883 6.47946 6.55429 6.16602 6.3335 6.00017C6.11272 5.83432 5.79928 5.87885 5.63343 6.09964C5.23581 6.62895 5 7.28767 5 8.00003C5 8.71237 5.23581 9.37108 5.63341 9.90039C5.79926 10.1212 6.1127 10.1657 6.33349 9.99987C6.55428 9.83401 6.59881 9.52058 6.43296 9.29979C6.16097 8.93771 6 8.48839 6 8.00003C6 7.51166 6.16098 7.06233 6.43297 6.70025ZM9.15 7.99997C9.15 8.6351 8.63513 9.14997 8 9.14997C7.36487 9.14997 6.85 8.6351 6.85 7.99997C6.85 7.36484 7.36487 6.84997 8 6.84997C8.63513 6.84997 9.15 7.36484 9.15 7.99997Z" fill="white"/>
</svg>
