<svg width="20" height="20" viewBox="0 0 20 20" fill="none" xmlns="http://www.w3.org/2000/svg">
<path d="M4.39501 5.89005C4.57484 5.64524 4.52216 5.30101 4.27736 5.12118C4.03255 4.94135 3.68832 4.99403 3.50849 5.23883C2.52897 6.5723 1.9502 8.21935 1.9502 9.99996C1.9502 11.7806 2.52897 13.4276 3.50849 14.7611C3.68832 15.0059 4.03256 15.0586 4.27736 14.8788C4.52217 14.6989 4.57484 14.3547 4.39502 14.1099C3.54948 12.9588 3.0502 11.5385 3.0502 9.99996C3.0502 8.46142 3.54948 7.04111 4.39501 5.89005Z" fill="white"/>
<path d="M16.4919 5.23883C16.3121 4.99403 15.9678 4.94135 15.723 5.12118C15.4782 5.30101 15.4256 5.64524 15.6054 5.89005C16.4509 7.04111 16.9502 8.46142 16.9502 9.99996C16.9502 11.5385 16.4509 12.9588 15.6054 14.1099C15.4255 14.3547 15.4782 14.6989 15.723 14.8788C15.9678 15.0586 16.3121 15.0059 16.4919 14.7611C17.4714 13.4276 18.0502 11.7806 18.0502 9.99996C18.0502 8.21935 17.4714 6.5723 16.4919 5.23883Z" fill="white"/>
<path d="M6.00793 7.07286C6.18776 6.82805 6.13508 6.48382 5.89027 6.30399C5.64547 6.12416 5.30123 6.17684 5.12141 6.42164C4.38522 7.42384 3.9502 8.6619 3.9502 9.99996C3.9502 11.338 4.38523 12.5761 5.12141 13.5783C5.30124 13.8231 5.64548 13.8758 5.89028 13.6959C6.13509 13.5161 6.18776 13.1719 6.00794 12.9271C5.40574 12.1073 5.0502 11.096 5.0502 9.99996C5.0502 8.90398 5.40574 7.89265 6.00793 7.07286Z" fill="white"/>
<path d="M14.879 6.42164C14.6992 6.17684 14.3549 6.12416 14.1101 6.30399C13.8653 6.48382 13.8126 6.82805 13.9925 7.07286C14.5947 7.89265 14.9502 8.90398 14.9502 9.99996C14.9502 11.096 14.5947 12.1073 13.9925 12.9271C13.8126 13.1719 13.8653 13.5161 14.1101 13.6959C14.3549 13.8758 14.6991 13.8231 14.879 13.5783C15.6152 12.5761 16.0502 11.338 16.0502 9.99996C16.0502 8.6619 15.6152 7.42384 14.879 6.42164Z" fill="white"/>
<path d="M7.62084 8.25567C7.80067 8.01086 7.74799 7.66662 7.50319 7.4868C7.25838 7.30697 6.91415 7.35965 6.73432 7.60445C6.24148 8.27538 5.9502 9.10446 5.9502 9.99996C5.9502 10.8955 6.24149 11.7246 6.73433 12.3955C6.91416 12.6403 7.2584 12.693 7.5032 12.5131C7.74801 12.3333 7.80068 11.9891 7.62086 11.7443C7.262 11.2558 7.0502 10.6534 7.0502 9.99996C7.0502 9.34654 7.262 8.74418 7.62084 8.25567Z" fill="white"/>
<path d="M13.2661 7.60445C13.0862 7.35965 12.742 7.30697 12.4972 7.4868C12.2524 7.66662 12.1997 8.01086 12.3795 8.25567C12.7384 8.74418 12.9502 9.34654 12.9502 9.99996C12.9502 10.6534 12.7384 11.2558 12.3795 11.7443C12.1997 11.9891 12.2524 12.3333 12.4972 12.5131C12.742 12.693 13.0862 12.6403 13.2661 12.3955C13.7589 11.7246 14.0502 10.8955 14.0502 9.99996C14.0502 9.10446 13.7589 8.27538 13.2661 7.60445Z" fill="white"/>
<path fill-rule="evenodd" clip-rule="evenodd" d="M11.7002 9.99993C11.7002 10.9388 10.9391 11.6999 10.0002 11.6999C9.06131 11.6999 8.3002 10.9388 8.3002 9.99993C8.3002 9.06104 9.06131 8.29993 10.0002 8.29993C10.9391 8.29993 11.7002 9.06104 11.7002 9.99993ZM10.6002 9.99993C10.6002 10.3313 10.3316 10.5999 10.0002 10.5999C9.66882 10.5999 9.4002 10.3313 9.4002 9.99993C9.4002 9.66856 9.66882 9.39993 10.0002 9.39993C10.3316 9.39993 10.6002 9.66856 10.6002 9.99993Z" fill="white"/>
</svg>
