<svg width="24" height="24" viewBox="0 0 24 24" fill="none" xmlns="http://www.w3.org/2000/svg">
<path d="M5.42822 6.88913C5.6573 6.59502 5.60459 6.1709 5.31048 5.94182C5.01638 5.71275 4.59225 5.76546 4.36318 6.05957C3.0862 7.69904 2.3252 9.76163 2.3252 12.0001C2.3252 14.2385 3.0862 16.3011 4.36318 17.9406C4.59225 18.2347 5.01638 18.2874 5.31048 18.0583C5.60459 17.8292 5.6573 17.4051 5.42822 17.111C4.32937 15.7002 3.6752 13.9275 3.6752 12.0001C3.6752 10.0726 4.32937 8.29992 5.42822 6.88913Z" fill="white"/>
<path d="M19.6372 6.05957C19.4081 5.76546 18.984 5.71275 18.6899 5.94182C18.3958 6.1709 18.3431 6.59502 18.5722 6.88913C19.671 8.29992 20.3252 10.0726 20.3252 12.0001C20.3252 13.9275 19.671 15.7002 18.5722 17.111C18.3431 17.4051 18.3958 17.8292 18.6899 18.0583C18.984 18.2874 19.4081 18.2347 19.6372 17.9406C20.9142 16.3011 21.6752 14.2385 21.6752 12.0001C21.6752 9.76163 20.9142 7.69904 19.6372 6.05957Z" fill="white"/>
<path d="M7.4017 8.42405C7.63077 8.12994 7.57806 7.70582 7.28395 7.47674C6.98985 7.24767 6.56572 7.30038 6.33665 7.59449C5.38965 8.81032 4.8252 10.3402 4.8252 12.0001C4.8252 13.6599 5.38965 15.1898 6.33665 16.4056C6.56572 16.6997 6.98985 16.7525 7.28395 16.5234C7.57806 16.2943 7.63077 15.8702 7.4017 15.5761C6.63282 14.5889 6.1752 13.3489 6.1752 12.0001C6.1752 10.6512 6.63282 9.41119 7.4017 8.42405Z" fill="white"/>
<path d="M17.6637 7.59449C17.4347 7.30038 17.0105 7.24767 16.7164 7.47674C16.4223 7.70582 16.3696 8.12994 16.5987 8.42405C17.3676 9.41119 17.8252 10.6512 17.8252 12.0001C17.8252 13.3489 17.3676 14.5889 16.5987 15.5761C16.3696 15.8702 16.4223 16.2943 16.7164 16.5234C17.0105 16.7525 17.4347 16.6997 17.6637 16.4056C18.6107 15.1898 19.1752 13.6599 19.1752 12.0001C19.1752 10.3402 18.6107 8.81032 17.6637 7.59449Z" fill="white"/>
<path d="M9.37517 9.95897C9.60424 9.66487 9.55153 9.24074 9.25742 9.01167C8.96332 8.78259 8.53919 8.8353 8.31012 9.12941C7.69309 9.92159 7.3252 10.9188 7.3252 12.0001C7.3252 13.0813 7.69309 14.0785 8.31012 14.8707C8.53919 15.1648 8.96332 15.2175 9.25742 14.9885C9.55153 14.7594 9.60424 14.3353 9.37517 14.0412C8.93626 13.4777 8.6752 12.7703 8.6752 12.0001C8.6752 11.2298 8.93626 10.5225 9.37517 9.95897Z" fill="white"/>
<path d="M15.6903 9.12941C15.4612 8.8353 15.0371 8.78259 14.743 9.01167C14.4489 9.24074 14.3961 9.66487 14.6252 9.95897C15.0641 10.5225 15.3252 11.2298 15.3252 12.0001C15.3252 12.7703 15.0641 13.4777 14.6252 14.0412C14.3961 14.3353 14.4489 14.7594 14.743 14.9885C15.0371 15.2175 15.4612 15.1648 15.6903 14.8707C16.3073 14.0785 16.6752 13.0813 16.6752 12.0001C16.6752 10.9188 16.3073 9.92159 15.6903 9.12941Z" fill="white"/>
<path fill-rule="evenodd" clip-rule="evenodd" d="M14.0002 12.0001C14.0002 13.1047 13.1048 14.0001 12.0002 14.0001C10.8956 14.0001 10.0002 13.1047 10.0002 12.0001C10.0002 10.8955 10.8956 10.0001 12.0002 10.0001C13.1048 10.0001 14.0002 10.8955 14.0002 12.0001ZM12.6502 12.0001C12.6502 12.3591 12.3592 12.6501 12.0002 12.6501C11.6412 12.6501 11.3502 12.3591 11.3502 12.0001C11.3502 11.6411 11.6412 11.3501 12.0002 11.3501C12.3592 11.3501 12.6502 11.6411 12.6502 12.0001Z" fill="white"/>
</svg>
