<svg width="20" height="20" viewBox="0 0 20 20" fill="none" xmlns="http://www.w3.org/2000/svg">
<path fill-rule="evenodd" clip-rule="evenodd" d="M10 18C14.4183 18 18 14.4183 18 10C18 5.58172 14.4183 2 10 2C5.58172 2 2 5.58172 2 10C2 14.4183 5.58172 18 10 18ZM6.00774 7.07291C6.18757 6.8281 6.1349 6.48387 5.89009 6.30404C5.64528 6.12421 5.30105 6.17689 5.12122 6.4217C4.38504 7.42389 3.95001 8.66195 3.95001 10C3.95001 11.3381 4.38504 12.5761 5.12123 13.5783C5.30106 13.8232 5.64529 13.8758 5.8901 13.696C6.1349 13.5162 6.18758 13.1719 6.00775 12.9271C5.40556 12.1073 5.05001 11.096 5.05001 10C5.05001 8.90403 5.40555 7.8927 6.00774 7.07291ZM14.8788 6.4217C14.699 6.17689 14.3547 6.12421 14.1099 6.30404C13.8651 6.48387 13.8125 6.8281 13.9923 7.07291C14.5945 7.8927 14.95 8.90403 14.95 10C14.95 11.096 14.5945 12.1073 13.9923 12.9271C13.8124 13.1719 13.8651 13.5162 14.1099 13.696C14.3547 13.8758 14.699 13.8232 14.8788 13.5783C15.615 12.5761 16.05 11.3381 16.05 10C16.05 8.66195 15.615 7.42389 14.8788 6.4217ZM7.70807 7.48685C7.95288 7.66668 8.00556 8.01091 7.82573 8.25572C7.46688 8.74424 7.25508 9.34659 7.25508 10C7.25508 10.6535 7.46688 11.2558 7.82574 11.7443C8.00557 11.9891 7.95289 12.3334 7.70809 12.5132C7.46328 12.693 7.11905 12.6403 6.93922 12.3955C6.44637 11.7246 6.15508 10.8955 6.15508 10C6.15508 9.10451 6.44637 8.27543 6.9392 7.60451C7.11903 7.3597 7.46326 7.30702 7.70807 7.48685ZM13.0608 7.60451C12.881 7.3597 12.5368 7.30702 12.292 7.48685C12.0471 7.66668 11.9945 8.01091 12.1743 8.25572C12.5331 8.74424 12.7449 9.34659 12.7449 10C12.7449 10.6535 12.5331 11.2558 12.1743 11.7443C11.9945 11.9891 12.0471 12.3334 12.2919 12.5132C12.5367 12.693 12.881 12.6403 13.0608 12.3955C13.5537 11.7246 13.8449 10.8955 13.8449 10C13.8449 9.10451 13.5537 8.27543 13.0608 7.60451ZM11.7 10C11.7 10.9389 10.9389 11.7 10 11.7C9.06113 11.7 8.30001 10.9389 8.30001 10C8.30001 9.06116 9.06113 8.30005 10 8.30005C10.9389 8.30005 11.7 9.06116 11.7 10Z" fill="white"/>
</svg>
