<svg width="16" height="16" viewBox="0 0 16 16" fill="none" xmlns="http://www.w3.org/2000/svg">
<path d="M3.59949 4.69999C3.76534 4.47921 3.72081 4.16577 3.50002 3.99992C3.27923 3.83406 2.9658 3.87859 2.79994 4.09938C1.98381 5.18583 1.5 6.53708 1.5 7.99989C1.5 9.46271 1.98382 10.814 2.79995 11.9004C2.96581 12.1212 3.27924 12.1657 3.50003 11.9999C3.72082 11.834 3.76535 11.5206 3.59949 11.2998C2.90898 10.3806 2.5 9.23872 2.5 7.99989C2.5 6.76107 2.90898 5.61921 3.59949 4.69999Z" fill="white"/>
<path d="M13.2001 4.09938C13.0342 3.87859 12.7208 3.83406 12.5 3.99992C12.2792 4.16577 12.2347 4.47921 12.4005 4.69999C13.091 5.61921 13.5 6.76107 13.5 7.99989C13.5 9.23872 13.091 10.3806 12.4005 11.2998C12.2347 11.5206 12.2792 11.834 12.5 11.9999C12.7208 12.1657 13.0342 12.1212 13.2 11.9004C14.0162 10.814 14.5 9.46271 14.5 7.99989C14.5 6.53708 14.0162 5.18583 13.2001 4.09938Z" fill="white"/>
<path d="M4.93285 5.70002C5.0987 5.47923 5.05417 5.1658 4.83338 4.99995C4.61259 4.83409 4.29916 4.87863 4.1333 5.09941C3.52644 5.90729 3.16663 6.91227 3.16663 7.99985C3.16663 9.08747 3.52646 10.0925 4.13337 10.9004C4.29923 11.1212 4.61266 11.1657 4.83345 10.9998C5.05423 10.834 5.09876 10.5205 4.9329 10.2997C4.45162 9.65909 4.16663 8.86347 4.16663 7.99985C4.16663 7.13626 4.4516 6.34067 4.93285 5.70002Z" fill="white"/>
<path d="M11.8666 5.09946C11.7008 4.87867 11.3874 4.83413 11.1666 4.99998C10.9458 5.16583 10.9012 5.47927 11.0671 5.70006C11.5483 6.3407 11.8333 7.13627 11.8333 7.99985C11.8333 8.86346 11.5483 9.65906 11.067 10.2997C10.9012 10.5205 10.9457 10.8339 11.1665 10.9998C11.3873 11.1656 11.7007 11.1211 11.8666 10.9003C12.4735 10.0924 12.8333 9.08745 12.8333 7.99985C12.8333 6.91229 12.4735 5.90733 11.8666 5.09946Z" fill="white"/>
<path d="M10.5332 6.0995C10.3674 5.87872 10.054 5.83419 9.83317 6.00005C9.61238 6.1659 9.56785 6.47934 9.73371 6.70012C10.0057 7.06221 10.1667 7.51155 10.1667 7.99993C10.1667 8.48831 10.0057 8.93764 9.73372 9.29973C9.56787 9.52052 9.6124 9.83395 9.83318 9.99981C10.054 10.1657 10.3674 10.1211 10.5333 9.90035C10.9309 9.37103 11.1667 8.7123 11.1667 7.99993C11.1667 7.28756 10.9309 6.62882 10.5332 6.0995Z" fill="white"/>
<path d="M6.26635 6.70015C6.4322 6.47937 6.38767 6.16593 6.16688 6.00008C5.94609 5.83423 5.63266 5.87876 5.4668 6.09955C5.06919 6.62886 4.83337 7.28758 4.83337 7.99993C4.83337 8.71228 5.06918 9.37099 5.46679 9.9003C5.63264 10.1211 5.94607 10.1656 6.16686 9.99977C6.38765 9.83392 6.43219 9.52049 6.26634 9.2997C5.99435 8.93762 5.83337 8.48829 5.83337 7.99993C5.83337 7.51157 5.99435 7.06224 6.26635 6.70015Z" fill="white"/>
<path fill-rule="evenodd" clip-rule="evenodd" d="M8 6.49991C7.17157 6.49991 6.5 7.17148 6.5 7.99991C6.5 8.82833 7.17157 9.49991 8 9.49991C8.82843 9.49991 9.5 8.82833 9.5 7.99991C9.5 7.17148 8.82843 6.49991 8 6.49991ZM7.5 7.99991C7.5 7.72376 7.72386 7.49991 8 7.49991C8.27614 7.49991 8.5 7.72376 8.5 7.99991C8.5 8.27605 8.27614 8.49991 8 8.49991C7.72386 8.49991 7.5 8.27605 7.5 7.99991Z" fill="white"/>
</svg>
