<svg width="24" height="24" viewBox="0 0 24 24" fill="none" xmlns="http://www.w3.org/2000/svg">
<path fill-rule="evenodd" clip-rule="evenodd" d="M12 21C16.9706 21 21 16.9706 21 12C21 7.02944 16.9706 3 12 3C7.02944 3 3 7.02944 3 12C3 16.9706 7.02944 21 12 21ZM7.40151 8.42404C7.63059 8.12993 7.57787 7.70581 7.28377 7.47673C6.98966 7.24766 6.56554 7.30037 6.33646 7.59448C5.38946 8.81031 4.82501 10.3402 4.82501 12.0001C4.82501 13.6599 5.38946 15.1898 6.33646 16.4056C6.56554 16.6997 6.98966 16.7525 7.28377 16.5234C7.57787 16.2943 7.63059 15.8702 7.40151 15.5761C6.63263 14.5889 6.17501 13.3489 6.17501 12.0001C6.17501 10.6512 6.63263 9.41118 7.40151 8.42404ZM17.6636 7.59448C17.4345 7.30037 17.0104 7.24766 16.7163 7.47673C16.4222 7.70581 16.3694 8.12993 16.5985 8.42404C17.3674 9.41118 17.825 10.6512 17.825 12.0001C17.825 13.3489 17.3674 14.5889 16.5985 15.5761C16.3694 15.8702 16.4222 16.2943 16.7163 16.5234C17.0104 16.7525 17.4345 16.6997 17.6636 16.4056C18.6106 15.1898 19.175 13.6599 19.175 12.0001C19.175 10.3402 18.6106 8.81031 17.6636 7.59448ZM9.25724 9.01166C9.55134 9.24073 9.60406 9.66486 9.37498 9.95896C8.93608 10.5225 8.67501 11.2298 8.67501 12.0001C8.67501 12.7703 8.93608 13.4777 9.37498 14.0412C9.60406 14.3353 9.55134 14.7594 9.25724 14.9885C8.96313 15.2175 8.53901 15.1648 8.30993 14.8707C7.69291 14.0785 7.32501 13.0813 7.32501 12.0001C7.32501 10.9188 7.69291 9.92158 8.30993 9.1294C8.53901 8.8353 8.96313 8.78258 9.25724 9.01166ZM15.6901 9.1294C15.461 8.8353 15.0369 8.78258 14.7428 9.01166C14.4487 9.24073 14.396 9.66486 14.625 9.95896C15.0639 10.5225 15.325 11.2298 15.325 12.0001C15.325 12.7703 15.0639 13.4777 14.625 14.0412C14.396 14.3353 14.4487 14.7594 14.7428 14.9885C15.0369 15.2175 15.461 15.1648 15.6901 14.8707C16.3071 14.0785 16.675 13.0813 16.675 12.0001C16.675 10.9188 16.3071 9.92158 15.6901 9.1294ZM14 12C14 13.1046 13.1046 14 12 14C10.8954 14 10 13.1046 10 12C10 10.8954 10.8954 9.99998 12 9.99998C13.1046 9.99998 14 10.8954 14 12Z" fill="white"/>
</svg>
