<svg width="24" height="24" viewBox="0 0 24 24" fill="none" xmlns="http://www.w3.org/2000/svg">
<path fill-rule="evenodd" clip-rule="evenodd" d="M7.82495 2.49995C7.82495 1.57487 8.57487 0.824951 9.49995 0.824951H20.5C21.425 0.824951 22.1749 1.57487 22.1749 2.49995V17.5C22.1749 18.425 21.425 19.1749 20.5 19.1749H16.175V21.5C16.175 22.425 15.425 23.1749 14.5 23.1749H3.49995C2.57488 23.1749 1.82495 22.425 1.82495 21.5L1.82495 6.49995C1.82495 5.57488 2.57487 4.82495 3.49995 4.82495L7.82495 4.82495V2.49995ZM10.175 7.12955L13.8704 10.825H10.5C10.3205 10.825 10.175 10.6794 10.175 10.5V7.12955ZM14.825 12.175H10.5C9.57487 12.175 8.82495 11.425 8.82495 10.5V6.17495L3.49995 6.17495C3.32046 6.17495 3.17495 6.32046 3.17495 6.49995L3.17495 21.5C3.17495 21.6794 3.32046 21.825 3.49995 21.825H14.5C14.6794 21.825 14.825 21.6794 14.825 21.5L14.825 12.175ZM9.17495 4.82495V2.49995C9.17495 2.32046 9.32046 2.17495 9.49995 2.17495H10.825V3.49995C10.825 4.42503 11.5749 5.17495 12.5 5.17495H17.5C18.425 5.17495 19.1749 4.42503 19.1749 3.49995V2.17495H20.5C20.6794 2.17495 20.825 2.32046 20.825 2.49995V17.5C20.825 17.6794 20.6794 17.825 20.5 17.825H16.175L16.175 11.5C16.175 11.3209 16.1038 11.1492 15.9772 11.0227L9.97725 5.02265C9.85066 4.89607 9.67897 4.82495 9.49995 4.82495H9.17495ZM17.825 2.17495H12.175V3.49995C12.175 3.67944 12.3205 3.82495 12.5 3.82495H17.5C17.6794 3.82495 17.825 3.67944 17.825 3.49995V2.17495Z" fill="white"/>
</svg>
