<svg width="24" height="24" viewBox="0 0 24 24" fill="none" xmlns="http://www.w3.org/2000/svg">
<path fill-rule="evenodd" clip-rule="evenodd" d="M20.5002 2C21.3286 2 22.0002 2.67157 22.0002 3.5V18.5C22.0002 19.3284 21.3286 20 20.5002 20H16.1752V21.5C16.1752 22.4251 15.4253 23.175 14.5002 23.175H3.5002C2.57512 23.175 1.8252 22.4251 1.8252 21.5V6.50001C1.8252 5.57494 2.57512 4.82501 3.5002 4.82501L8.00024 4.82501V3.5C8.00024 2.67157 8.67188 2 9.50024 2H20.5002ZM18.1753 3.35V4.675C18.1753 4.95114 17.9514 5.175 17.6753 5.175H12.3252C12.0491 5.175 11.8252 4.95114 11.8252 4.675V3.35H18.1753ZM3.5002 6.17501H8.8252V10.5C8.8252 11.4251 9.57512 12.175 10.5002 12.175H14.8252L14.8252 21.5C14.8252 21.6795 14.6797 21.825 14.5002 21.825H3.5002C3.3207 21.825 3.1752 21.6795 3.1752 21.5L3.1752 6.50001C3.1752 6.32052 3.3207 6.17501 3.5002 6.17501ZM13.8706 10.825L10.1752 7.12961V10.5C10.1752 10.6795 10.3207 10.825 10.5002 10.825H13.8706Z" fill="white"/>
</svg>
