<svg width="16" height="16" viewBox="0 0 16 16" fill="none" xmlns="http://www.w3.org/2000/svg">
<path fill-rule="evenodd" clip-rule="evenodd" d="M5 1.9C5 1.40294 5.40294 1 5.9 1L13.1 1.00002C13.597 1.00002 14 1.40297 14 1.90002V12.1C14 12.5971 13.597 13 13.1 13H11.0002V14.1C11.0002 14.5971 10.5973 15 10.1002 15L2.9 15C2.40294 15 2 14.5971 2 14.1L2.00002 3.9C2.00002 3.40294 2.40297 3 2.90002 3L5 3V1.9ZM6 3H6.5002C6.63281 3 6.75999 3.05268 6.85376 3.14645L7.18102 3.47371C7.12899 3.35988 7.1 3.23333 7.1 3.1V2L6 2V3ZM8.1 2.00001V3H11V2.00002L8.1 2.00001ZM12 2.00002V3.1C12 3.59705 11.597 4 11.1 4H8C7.86667 4 7.74011 3.97101 7.62629 3.91898L10.8537 7.14646C10.9475 7.24022 11.0002 7.3674 11.0002 7.50001V12H13V2.00002L12 2.00002ZM3.00002 4L3 14L10.0002 14V8.00001L6.9002 8.00001C6.40314 8.00001 6.0002 7.59706 6.0002 7.10001V4L3.00002 4ZM7.0002 4.70711L9.29309 7.00001L7.0002 7.00001V4.70711Z" fill="white"/>
</svg>
