<svg width="16" height="16" viewBox="0 0 16 16" fill="none" xmlns="http://www.w3.org/2000/svg">
<path fill-rule="evenodd" clip-rule="evenodd" d="M13.1001 1C13.5972 1 14 1.40295 14 1.90002V12.1C14 12.597 13.5972 13 13.1001 13H11.0002V14.1C11.0002 14.5971 10.5973 15 10.1002 15L2.9 15C2.40294 15 2 14.5971 2 14.1V3.89898C2 3.40025 2.40461 3 2.9 3H5V1.90002C5 1.40295 5.40283 1 5.8999 1H13.1001ZM11 2V2.7C11 2.86568 10.8657 3 10.7 3H8.30005C8.13428 3 8 2.86568 8 2.7V2H11ZM3 14L3 4H6.0002V7.10001C6.0002 7.59706 6.40314 8.00001 6.9002 8.00001L10.0002 8.00001V14L3 14ZM9.29309 7.00001L7.0002 4.70711V7.00001H9.29309Z" fill="white"/>
</svg>
