<svg width="16" height="16" viewBox="0 0 16 16" fill="none" xmlns="http://www.w3.org/2000/svg">
<path fill-rule="evenodd" clip-rule="evenodd" d="M1.5 4.4C1.5 3.90294 1.90294 3.5 2.4 3.5H13.6C14.0971 3.5 14.5 3.90294 14.5 4.4V11.6C14.5 12.0971 14.0971 12.5 13.6 12.5H2.4C1.90294 12.5 1.5 12.0971 1.5 11.6V4.4ZM2.5 4.5V6H13.5V4.5H2.5ZM13.5 7H2.5V11.5H13.5V7ZM3 8.5C3 8.22386 3.22386 8 3.5 8H5.5C5.77614 8 6 8.22386 6 8.5V10.5C6 10.7761 5.77614 11 5.5 11H3.5C3.22386 11 3 10.7761 3 10.5V8.5ZM4 9V10H5V9H4Z" fill="white"/>
</svg>
