<svg width="24" height="24" viewBox="0 0 24 24" fill="none" xmlns="http://www.w3.org/2000/svg">
<path fill-rule="evenodd" clip-rule="evenodd" d="M1.82495 6.49995C1.82495 5.57487 2.57487 4.82495 3.49995 4.82495H20.5C21.425 4.82495 22.1749 5.57487 22.1749 6.49995V17.5C22.1749 18.425 21.425 19.175 20.5 19.175H3.49995C2.57487 19.175 1.82495 18.425 1.82495 17.5V6.49995ZM3.49995 6.17495C3.32046 6.17495 3.17495 6.32046 3.17495 6.49995V8.82495H20.825V6.49995C20.825 6.32046 20.6794 6.17495 20.5 6.17495H3.49995ZM20.825 10.175H3.17495V17.5C3.17495 17.6794 3.32046 17.825 3.49995 17.825H20.5C20.6794 17.825 20.825 17.6794 20.825 17.5V10.175ZM4.82495 12.5C4.82495 12.1272 5.12716 11.825 5.49995 11.825H8.49995C8.87274 11.825 9.17495 12.1272 9.17495 12.5V15.5C9.17495 15.8727 8.87274 16.175 8.49995 16.175H5.49995C5.12716 16.175 4.82495 15.8727 4.82495 15.5V12.5ZM6.17495 13.175V14.825H7.82495V13.175H6.17495Z" fill="white"/>
</svg>
