<svg width="16" height="16" viewBox="0 0 16 16" fill="none" xmlns="http://www.w3.org/2000/svg">
<path fill-rule="evenodd" clip-rule="evenodd" d="M2 4.89999C2 4.40295 2.40283 4 2.8999 4H13.1001C13.5972 4 14 4.40295 14 4.89999V11.1C14 11.597 13.5972 12 13.1001 12H2.8999C2.40283 12 2 11.597 2 11.1V4.89999ZM13 7H3V6H13V7ZM3.5 8.89999V10.1C3.5 10.3209 3.6792 10.5 3.8999 10.5H5.1001C5.3208 10.5 5.5 10.3209 5.5 10.1V8.89999C5.5 8.67908 5.3208 8.5 5.1001 8.5H3.8999C3.6792 8.5 3.5 8.67908 3.5 8.89999Z" fill="white"/>
</svg>
