<svg width="24" height="24" viewBox="0 0 24 24" fill="none" xmlns="http://www.w3.org/2000/svg">
<path fill-rule="evenodd" clip-rule="evenodd" d="M2 6.5C2 5.67157 2.67163 5 3.5 5H20.5C21.3284 5 22 5.67157 22 6.5V17.5C22 18.3284 21.3284 19 20.5 19H3.5C2.67163 19 2 18.3284 2 17.5V6.5ZM20.6501 9.67502H3.3501V8.32501H20.6501V9.67502ZM5 13.7V15.3C5 15.6866 5.31348 16 5.69995 16H7.30005C7.68652 16 8 15.6866 8 15.3V13.7C8 13.3134 7.68652 13 7.30005 13H5.69995C5.31348 13 5 13.3134 5 13.7Z" fill="white"/>
</svg>
