<svg width="16" height="16" viewBox="0 0 16 16" fill="none" xmlns="http://www.w3.org/2000/svg">
<path fill-rule="evenodd" clip-rule="evenodd" d="M7.99999 2C8.16366 2 8.31697 2.08011 8.41044 2.21447L10.801 5.65085L13.2284 4.08021C13.3946 3.97262 13.6088 3.97332 13.7743 4.08199C13.9399 4.19067 14.0257 4.38684 13.9932 4.5822L12.9932 10.5822C12.953 10.8233 12.7444 11 12.5 11H3.49999C3.25557 11 3.04697 10.8233 3.00679 10.5822L2.00679 4.5822C1.97423 4.38684 2.06005 4.19067 2.22563 4.08199C2.39121 3.97332 2.60533 3.97262 2.77161 4.08021L5.199 5.65085L7.58953 2.21447C7.683 2.08011 7.83631 2 7.99999 2ZM2.99999 12.5C2.99999 12.2239 3.22384 12 3.49999 12H12.5C12.7761 12 13 12.2239 13 12.5C13 12.7761 12.7761 13 12.5 13H3.49999C3.22384 13 2.99999 12.7761 2.99999 12.5Z" fill="white"/>
</svg>
