<svg width="24" height="24" viewBox="0 0 24 24" fill="none" xmlns="http://www.w3.org/2000/svg">
<path d="M12.5509 3.29325C12.4281 3.11004 12.2214 3 12 3C11.7786 3 11.5719 3.11004 11.4491 3.29325L7.89266 8.59897L4.02942 6.03743C3.81145 5.8929 3.5283 5.88978 3.30716 6.02947C3.08602 6.16916 2.96849 6.42539 3.00735 6.68305L4.47873 16.4392C4.52735 16.7615 4.80578 17 5.13353 17H18.8665C19.1942 17 19.4726 16.7615 19.5213 16.4392L20.9927 6.68305C21.0315 6.42539 20.914 6.16916 20.6928 6.02947C20.4717 5.88978 20.1885 5.8929 19.9706 6.03743L16.1073 8.59897L12.5509 3.29325Z" fill="white"/>
<path d="M4.99995 18.325C4.62716 18.325 4.32495 18.6272 4.32495 19C4.32495 19.3728 4.62716 19.675 4.99995 19.675H19C19.3727 19.675 19.675 19.3728 19.675 19C19.675 18.6272 19.3727 18.325 19 18.325H4.99995Z" fill="white"/>
</svg>
