<svg width="24" height="24" viewBox="0 0 24 24" fill="none" xmlns="http://www.w3.org/2000/svg">
<path fill-rule="evenodd" clip-rule="evenodd" d="M12 2.82495C12.2257 2.82495 12.4364 2.93774 12.5616 3.12553L16.1872 8.56389L20.1256 5.93832C20.3478 5.79018 20.6364 5.78698 20.8619 5.93016C21.0873 6.07334 21.2071 6.33597 21.1675 6.60008L19.6675 16.6001C19.6179 16.9305 19.3341 17.175 19 17.175H4.99997C4.66585 17.175 4.382 16.9305 4.33244 16.6001L2.83244 6.60008C2.79282 6.33597 2.91265 6.07334 3.13809 5.93016C3.36353 5.78698 3.65218 5.79018 3.8744 5.93832L7.81276 8.56389L11.4383 3.12553C11.5635 2.93774 11.7743 2.82495 12 2.82495ZM12 4.71683L8.56161 9.87437C8.35482 10.1846 7.93573 10.2684 7.62555 10.0616L4.39357 7.90693L5.58127 15.825H18.4187L19.6064 7.90693L16.3744 10.0616C16.0642 10.2684 15.6451 10.1846 15.4383 9.87437L12 4.71683ZM4.32497 19C4.32497 18.6272 4.62718 18.325 4.99997 18.325H19C19.3728 18.325 19.675 18.6272 19.675 19C19.675 19.3727 19.3728 19.6749 19 19.6749H4.99997C4.62718 19.6749 4.32497 19.3727 4.32497 19Z" fill="white"/>
</svg>
