<svg width="16" height="16" viewBox="0 0 16 16" fill="none" xmlns="http://www.w3.org/2000/svg">
<path fill-rule="evenodd" clip-rule="evenodd" d="M8.00002 2C8.16369 2 8.317 2.08011 8.41047 2.21447L10.801 5.65085L13.2284 4.08021C13.3947 3.97262 13.6088 3.97332 13.7744 4.08199C13.94 4.19067 14.0258 4.38684 13.9932 4.5822L12.9932 10.5822C12.953 10.8233 12.7444 11 12.5 11H3.50002C3.2556 11 3.047 10.8233 3.00682 10.5822L2.00682 4.5822C1.97426 4.38684 2.06008 4.19067 2.22566 4.08199C2.39124 3.97332 2.60536 3.97262 2.77164 4.08021L5.19903 5.65085L7.58957 2.21447C7.68303 2.08011 7.83634 2 8.00002 2ZM8.00002 3.37555L5.74381 6.61885C5.58984 6.84018 5.2881 6.89957 5.06173 6.7531L3.17944 5.53516L3.92358 10H12.0765L12.8206 5.53516L10.9383 6.7531C10.7119 6.89957 10.4102 6.84018 10.2562 6.61885L8.00002 3.37555ZM3.00002 12.5C3.00002 12.2239 3.22388 12 3.50002 12H12.5C12.7762 12 13 12.2239 13 12.5C13 12.7761 12.7762 13 12.5 13H3.50002C3.22388 13 3.00002 12.7761 3.00002 12.5Z" fill="white"/>
</svg>
