<svg width="20" height="20" viewBox="0 0 20 20" fill="none" xmlns="http://www.w3.org/2000/svg">
<path fill-rule="evenodd" clip-rule="evenodd" d="M16.0324 15.2547C17.2578 13.8491 18 12.0112 18 10C18 5.58172 14.4183 2 10 2C7.98879 2 6.15092 2.74217 4.74532 3.96757L3.3056 2.52784C3.09081 2.31305 2.74257 2.31305 2.52778 2.52784C2.31299 2.74263 2.31299 3.09087 2.52778 3.30566L16.6944 17.4723C16.9092 17.6871 17.2575 17.6871 17.4723 17.4723C17.6871 17.2575 17.6871 16.9093 17.4723 16.6945L16.0324 15.2547ZM14.565 13.7873C14.6866 13.7579 14.7989 13.687 14.8788 13.5783C15.615 12.5761 16.05 11.338 16.05 9.99998C16.05 8.66192 15.615 7.42385 14.8788 6.42166C14.699 6.17685 14.3547 6.12418 14.1099 6.304C13.8651 6.48383 13.8125 6.82807 13.9923 7.07287C14.5945 7.89266 14.95 8.90399 14.95 9.99998C14.95 11.096 14.5945 12.1073 13.9923 12.9271C13.9478 12.9877 13.9175 13.0544 13.9009 13.1231L14.565 13.7873ZM9.25116 8.47341L10.219 9.44122C10.3742 9.5021 10.4979 9.6258 10.5588 9.78105L11.5266 10.7489C11.6377 10.5229 11.7 10.2688 11.7 10C11.7 9.06113 10.9389 8.30001 10 8.30001C9.73127 8.30001 9.4771 8.36237 9.25116 8.47341ZM13.1079 12.3301L12.314 11.5362C12.5874 11.0889 12.7449 10.5635 12.7449 9.99998C12.7449 9.34655 12.5331 8.7442 12.1743 8.25568C11.9945 8.01087 12.0471 7.66664 12.292 7.48681C12.5368 7.30699 12.881 7.35966 13.0608 7.60447C13.5537 8.27539 13.8449 9.10447 13.8449 9.99998C13.8449 10.8666 13.5721 11.671 13.1079 12.3301Z" fill="white"/>
<path d="M14.4217 16.668C13.155 17.5097 11.6348 18 10 18C5.58172 18 2 14.4183 2 10C2 8.36524 2.49034 6.845 3.33196 5.57834L4.74821 6.9946C4.24042 7.88023 3.95001 8.90673 3.95001 9.99998C3.95001 11.338 4.38504 12.5761 5.12123 13.5783C5.30106 13.8231 5.64529 13.8758 5.8901 13.696C6.1349 13.5161 6.18758 13.1719 6.00775 12.9271C5.40556 12.1073 5.05001 11.096 5.05001 9.99998C5.05001 9.21206 5.23377 8.4679 5.56082 7.8072L6.39039 8.63677C6.23806 9.06295 6.15508 9.522 6.15508 9.99998C6.15508 10.8955 6.44637 11.7246 6.93922 12.3955C7.11905 12.6403 7.46328 12.693 7.70809 12.5132C7.95289 12.3333 8.00557 11.9891 7.82574 11.7443C7.46688 11.2558 7.25508 10.6534 7.25508 9.99998C7.25508 9.84254 7.26737 9.68807 7.29106 9.53744L14.4217 16.668Z" fill="white"/>
</svg>
