<svg width="24" height="24" viewBox="0 0 24 24" fill="none" xmlns="http://www.w3.org/2000/svg">
<path d="M3.02291 3.02265C3.28651 2.75905 3.7139 2.75905 3.9775 3.02265L11.1459 10.1911C11.405 10.0685 11.6946 9.99995 12.0002 9.99995C13.1048 9.99995 14.0002 10.8954 14.0002 12C14.0002 12.3056 13.9317 12.5952 13.8091 12.8542L14.78 13.8252C15.1248 13.3013 15.3252 12.6748 15.3252 12C15.3252 11.2297 15.0641 10.5224 14.6252 9.95887C14.3961 9.66476 14.4489 9.24064 14.743 9.01156C15.0371 8.78249 15.4612 8.8352 15.6903 9.12931C16.3073 9.92148 16.6752 10.9187 16.6752 12C16.6752 13.0466 16.3305 14.0145 15.7488 14.7939L16.5702 15.6154C16.5792 15.602 16.5887 15.5889 16.5987 15.576C17.3676 14.5888 17.8252 13.3488 17.8252 12C17.8252 10.6511 17.3676 9.41109 16.5987 8.42394C16.3696 8.12984 16.4223 7.70572 16.7164 7.47664C17.0105 7.24756 17.4347 7.30028 17.6637 7.59438C18.6107 8.81021 19.1752 10.3401 19.1752 12C19.1752 13.6598 18.6107 15.1897 17.6637 16.4055C17.6182 16.4639 17.5651 16.5128 17.5067 16.5519L18.4314 17.4766C18.4407 17.3478 18.4869 17.2204 18.5722 17.1109C19.671 15.7001 20.3252 13.9274 20.3252 12C20.3252 10.0725 19.671 8.29981 18.5722 6.88902C18.3431 6.59492 18.3958 6.1708 18.6899 5.94172C18.984 5.71264 19.4081 5.76536 19.6372 6.05946C20.9142 7.69894 21.6752 9.76153 21.6752 12C21.6752 14.2384 20.9142 16.301 19.6372 17.9405C19.5151 18.0973 19.3375 18.1855 19.1537 18.1989L20.9775 20.0227C21.2411 20.2863 21.2411 20.7136 20.9775 20.9772C20.7139 21.2409 20.2865 21.2409 20.0229 20.9772L3.02291 3.97725C2.75931 3.71364 2.75931 3.28626 3.02291 3.02265Z" fill="white"/>
<path d="M4.63768 8.11037C4.81212 7.78091 4.68645 7.37241 4.35699 7.19797C4.02753 7.02353 3.61904 7.14919 3.4446 7.47865C2.72975 8.82874 2.3252 10.3681 2.3252 12C2.3252 14.2384 3.0862 16.301 4.36318 17.9405C4.59225 18.2346 5.01638 18.2873 5.31048 18.0582C5.60459 17.8291 5.6573 17.405 5.42822 17.1109C4.32937 15.7001 3.6752 13.9274 3.6752 12C3.6752 10.5936 4.02338 9.27055 4.63768 8.11037Z" fill="white"/>
<path d="M6.55439 9.9277C6.68704 9.57931 6.51215 9.18934 6.16376 9.05669C5.81537 8.92403 5.42541 9.09892 5.29275 9.44731C4.99043 10.2413 4.8252 11.1021 4.8252 12C4.8252 13.6598 5.38965 15.1897 6.33665 16.4055C6.56572 16.6996 6.98985 16.7524 7.28395 16.5233C7.57806 16.2942 7.63077 15.8701 7.4017 15.576C6.63282 14.5888 6.1752 13.3488 6.1752 12C6.1752 11.2688 6.30958 10.5706 6.55439 9.9277Z" fill="white"/>
<path d="M8.6809 11.8032C8.70255 11.4311 8.4184 11.1118 8.04623 11.0902C7.67407 11.0685 7.35482 11.3527 7.33318 11.7248C7.26771 12.8503 7.61534 13.9786 8.31012 14.8706C8.53919 15.1647 8.96332 15.2174 9.25742 14.9884C9.55153 14.7593 9.60424 14.3352 9.37517 14.0411C8.88314 13.4094 8.63431 12.6042 8.6809 11.8032Z" fill="white"/>
</svg>
