<svg width="24" height="24" viewBox="0 0 24 24" fill="none" xmlns="http://www.w3.org/2000/svg">
<path fill-rule="evenodd" clip-rule="evenodd" d="M3.97749 3.02265C3.71389 2.75905 3.2865 2.75905 3.0229 3.02265C2.75929 3.28626 2.75929 3.71364 3.0229 3.97725L20.0229 20.9772C20.2865 21.2409 20.7139 21.2409 20.9775 20.9772C21.2411 20.7136 21.2411 20.2863 20.9775 20.0227L18.8236 17.8688C20.1802 16.2931 21.0002 14.2423 21.0002 12C21.0002 7.02939 16.9708 2.99995 12.0002 2.99995C9.75787 2.99995 7.70708 3.81998 6.13135 5.17651L3.97749 3.02265ZM11.1459 10.1911L13.8091 12.8542C13.9317 12.5952 14.0002 12.3056 14.0002 11.9999C14.0002 10.8954 13.1048 9.99993 12.0002 9.99993C11.6946 9.99993 11.405 10.0685 11.1459 10.1911ZM15.7488 14.7939L14.78 13.8252C15.1248 13.3014 15.3252 12.6748 15.3252 12C15.3252 11.2298 15.0641 10.5224 14.6252 9.95891C14.3962 9.66481 14.4489 9.24068 14.743 9.01161C15.0371 8.78253 15.4612 8.83525 15.6903 9.12935C16.3073 9.92153 16.6752 10.9188 16.6752 12C16.6752 13.0466 16.3305 14.0145 15.7488 14.7939ZM17.5068 16.5519L16.5702 15.6154C16.5792 15.602 16.5887 15.5889 16.5987 15.576C17.3676 14.5889 17.8252 13.3488 17.8252 12C17.8252 10.6512 17.3676 9.41113 16.5987 8.42399C16.3696 8.12989 16.4223 7.70576 16.7165 7.47669C17.0106 7.24761 17.4347 7.30033 17.6638 7.59443C18.6108 8.81026 19.1752 10.3402 19.1752 12C19.1752 13.6599 18.6108 15.1898 17.6638 16.4056C17.6183 16.464 17.5651 16.5129 17.5068 16.5519Z" fill="white"/>
<path d="M3.0002 12C3.0002 10.2286 3.51192 8.5768 4.3956 7.18427L5.72681 8.51548C5.15252 9.54744 4.82521 10.736 4.82521 12C4.82521 13.6599 5.38966 15.1898 6.33666 16.4056C6.56574 16.6997 6.98986 16.7524 7.28396 16.5233C7.57807 16.2943 7.63079 15.8701 7.40171 15.576C6.63283 14.5889 6.17521 13.3488 6.17521 12C6.17521 11.1116 6.37372 10.2704 6.72893 9.5176L7.6077 10.3964C7.42496 10.8967 7.32521 11.437 7.32521 12C7.32521 13.0813 7.69311 14.0785 8.31013 14.8707C8.53921 15.1648 8.96333 15.2175 9.25743 14.9884C9.55154 14.7593 9.60426 14.3352 9.37518 14.0411C8.93628 13.4776 8.67521 12.7702 8.67521 12C8.67521 11.8303 8.68788 11.6637 8.71233 11.501C11.4158 14.2045 14.1085 16.8972 16.8159 19.6045C15.4233 20.4882 13.7715 21 12.0002 21C7.02963 21 3.0002 16.9705 3.0002 12Z" fill="white"/>
</svg>
