<svg width="16" height="16" viewBox="0 0 16 16" fill="none" xmlns="http://www.w3.org/2000/svg">
<path fill-rule="evenodd" clip-rule="evenodd" d="M2.85355 2.14645C2.65829 1.95118 2.34171 1.95118 2.14645 2.14645C1.95118 2.34171 1.95118 2.65829 2.14645 2.85355L13.1464 13.8536C13.3417 14.0488 13.6583 14.0488 13.8536 13.8536C14.0488 13.6583 14.0488 13.3417 13.8536 13.1464L12.5815 11.8744C13.4664 10.8291 14 9.47685 14 8C14 4.68629 11.3137 2 8 2C6.52315 2 5.17092 2.53358 4.12558 3.41847L2.85355 2.14645ZM7.62097 6.91386L9.08607 8.37897C9.12749 8.26029 9.15 8.13274 9.15 7.99994C9.15 7.36481 8.63513 6.84994 8 6.84994C7.8672 6.84994 7.73965 6.87245 7.62097 6.91386ZM10.4666 9.75945L9.73905 9.03195C9.90553 8.72532 10 8.37411 10 8C10 7.51161 9.83901 7.06228 9.567 6.70019C9.40115 6.4794 9.44567 6.16597 9.66646 6.00011C9.88724 5.83425 10.2007 5.87878 10.3665 6.09956C10.7642 6.62889 11 7.28762 11 8C11 8.65042 10.8034 9.25613 10.4666 9.75945ZM11.7315 11.0244L11.0426 10.3354C11.0501 10.3233 11.0583 10.3114 11.067 10.2998C11.5483 9.65912 11.8333 8.86352 11.8333 7.99992C11.8333 7.13634 11.5483 6.34076 11.0671 5.70012C10.9012 5.47933 10.9458 5.1659 11.1666 5.00004C11.3874 4.83419 11.7008 4.87873 11.8666 5.09952C12.4735 5.90739 12.8333 6.91236 12.8333 7.99992C12.8333 9.08751 12.4735 10.0925 11.8666 10.9004C11.8284 10.9512 11.7824 10.9927 11.7315 11.0244Z" fill="white"/>
<path d="M8 14C9.12235 14 10.1727 13.6918 11.0711 13.1555L6.00167 8.08607C6.01939 8.5411 6.17703 8.95905 6.43296 9.29976C6.59881 9.52055 6.55428 9.83398 6.33349 9.99984C6.1127 10.1657 5.79926 10.1212 5.63341 9.90036C5.23581 9.37105 5 8.71234 5 8C5 7.71992 5.03645 7.44814 5.10486 7.18925L4.45466 6.53906C4.26901 6.9891 4.16663 7.48229 4.16663 7.99992C4.16663 8.86354 4.45162 9.65915 4.9329 10.2998C5.09876 10.5206 5.05423 10.834 4.83345 10.9999C4.61266 11.1657 4.29923 11.1212 4.13337 10.9004C3.52646 10.0925 3.16663 9.08753 3.16663 7.99992C3.16663 7.20273 3.35995 6.44991 3.70218 5.78657L2.84449 4.92888C2.30816 5.82728 2 6.87765 2 8C2 11.3137 4.68629 14 8 14Z" fill="white"/>
</svg>
