<svg width="20" height="20" viewBox="0 0 20 20" fill="none" xmlns="http://www.w3.org/2000/svg">
<path fill-rule="evenodd" clip-rule="evenodd" d="M3.31463 2.519C3.09496 2.29933 2.7388 2.29933 2.51913 2.519C2.29946 2.73867 2.29946 3.09483 2.51913 3.3145L16.6858 17.4812C16.9055 17.7008 17.2616 17.7008 17.4813 17.4812C17.701 17.2615 17.701 16.9053 17.4813 16.6857L14.5793 13.7837C14.6955 13.7523 14.8022 13.6828 14.879 13.5783C15.6152 12.5761 16.0502 11.338 16.0502 9.99998C16.0502 8.66191 15.6152 7.42385 14.879 6.42166C14.6992 6.17685 14.3549 6.12417 14.1101 6.304C13.8653 6.48383 13.8126 6.82806 13.9925 7.07287C14.5947 7.89266 14.9502 8.90399 14.9502 9.99998C14.9502 11.096 14.5947 12.1073 13.9925 12.9271C13.951 12.9835 13.9219 13.0453 13.9047 13.109L13.2325 12.4369C13.2442 12.4238 13.2554 12.41 13.2661 12.3955C13.7589 11.7246 14.0502 10.8955 14.0502 9.99998C14.0502 9.10447 13.7589 8.27539 13.2661 7.60447C13.0862 7.35966 12.742 7.30698 12.4972 7.48681C12.2524 7.66664 12.1997 8.01087 12.3795 8.25568C12.7384 8.7442 12.9502 9.34655 12.9502 9.99998C12.9502 10.6121 12.7643 11.1794 12.4459 11.6502L11.5326 10.7369C11.64 10.514 11.7002 10.264 11.7002 9.99993C11.7002 9.06104 10.9391 8.29993 10.0002 8.29993C9.73613 8.29993 9.48614 8.36013 9.26318 8.46755L3.31463 2.519Z" fill="white"/>
<path d="M15.723 5.12119C15.9678 4.94136 16.3121 4.99404 16.4919 5.23885C17.4714 6.57231 18.0502 8.21936 18.0502 9.99998C18.0502 11.7806 17.4714 13.4276 16.4919 14.7611C16.3121 15.0059 15.9678 15.0586 15.723 14.8788C15.4782 14.6989 15.4255 14.3547 15.6054 14.1099C16.4509 12.9588 16.9502 11.5385 16.9502 9.99998C16.9502 8.46144 16.4509 7.04112 15.6054 5.89006C15.4256 5.64525 15.4782 5.30102 15.723 5.12119Z" fill="white"/>
<path d="M3.66212 5.95081C3.92925 6.09543 4.02856 6.42921 3.88395 6.69633C3.35229 7.67839 3.0502 8.80308 3.0502 9.99998C3.0502 11.5385 3.54948 12.9588 4.39502 14.1099C4.57484 14.3547 4.52217 14.6989 4.27736 14.8788C4.03256 15.0586 3.68832 15.0059 3.50849 14.7611C2.52897 13.4276 1.9502 11.7806 1.9502 9.99998C1.9502 8.61571 2.30005 7.31151 2.91661 6.17264C3.06122 5.90551 3.395 5.8062 3.66212 5.95081Z" fill="white"/>
<path d="M5.10441 7.43135C5.38606 7.54511 5.52216 7.86566 5.4084 8.14731C5.17756 8.71884 5.0502 9.34385 5.0502 9.99998C5.0502 11.096 5.40574 12.1073 6.00794 12.9271C6.18776 13.1719 6.13509 13.5161 5.89028 13.696C5.64548 13.8758 5.30124 13.8231 5.12141 13.5783C4.38523 12.5761 3.9502 11.338 3.9502 9.99998C3.9502 9.2003 4.10564 8.43557 4.38846 7.73534C4.50222 7.45369 4.82276 7.31759 5.10441 7.43135Z" fill="white"/>
<path d="M6.59683 9.0115C6.8982 9.04954 7.11166 9.32469 7.07361 9.62606C7.05818 9.74829 7.0502 9.87307 7.0502 9.99998C7.0502 10.6534 7.262 11.2558 7.62086 11.7443C7.80068 11.9891 7.74801 12.3333 7.5032 12.5132C7.2584 12.693 6.91416 12.6403 6.73433 12.3955C6.24149 11.7246 5.9502 10.8955 5.9502 9.99998C5.9502 9.82689 5.96108 9.65609 5.98227 9.48827C6.02032 9.18691 6.29547 8.97345 6.59683 9.0115Z" fill="white"/>
</svg>
