<svg width="16" height="16" viewBox="0 0 16 16" fill="none" xmlns="http://www.w3.org/2000/svg">
<path d="M2.14636 2.14645C2.34162 1.95118 2.65821 1.95118 2.85347 2.14645L7.35329 6.64628C7.54911 6.55257 7.76843 6.50009 8.00001 6.50009C8.82843 6.50009 9.50001 7.17167 9.50001 8.00009C9.50001 8.23167 9.44753 8.45099 9.35382 8.64681L9.84457 9.13756C10.0489 8.8071 10.1667 8.4179 10.1667 8.00012C10.1667 7.51174 10.0057 7.0624 9.73371 6.70031C9.56785 6.47952 9.61238 6.16609 9.83317 6.00023C10.054 5.83437 10.3674 5.8789 10.5332 6.09969C10.9309 6.62901 11.1667 7.28775 11.1667 8.00012C11.1667 8.69344 10.9433 9.33595 10.5648 9.85779L11.0426 10.3356C11.0501 10.3234 11.0583 10.3115 11.067 10.2999C11.5483 9.65925 11.8333 8.86365 11.8333 8.00004C11.8333 7.13646 11.5483 6.34088 11.0671 5.70024C10.9012 5.47945 10.9458 5.16602 11.1666 5.00017C11.3874 4.83432 11.7008 4.87885 11.8666 5.09964C12.4735 5.90751 12.8333 6.91248 12.8333 8.00004C12.8333 9.08763 12.4735 10.0926 11.8666 10.9005C11.8284 10.9513 11.7824 10.9928 11.7315 11.0245L12.3003 11.5933C12.3016 11.4909 12.3343 11.3881 12.4005 11.3C13.091 10.3808 13.5 9.23891 13.5 8.00008C13.5 6.76125 13.091 5.61939 12.4005 4.70018C12.2347 4.47939 12.2792 4.16596 12.5 4.0001C12.7208 3.83425 13.0342 3.87878 13.2001 4.09957C14.0162 5.18601 14.5 6.53727 14.5 8.00008C14.5 9.4629 14.0162 10.8142 13.2 11.9006C13.1034 12.0293 12.9566 12.0981 12.8073 12.1003L13.8536 13.1465C14.0488 13.3417 14.0488 13.6583 13.8536 13.8536C13.6583 14.0488 13.3417 14.0488 13.1464 13.8536L2.14636 2.85355C1.9511 2.65829 1.9511 2.34171 2.14636 2.14645Z" fill="white"/>
<path d="M3.04469 5.6105C3.16483 5.36186 3.06067 5.06291 2.81203 4.94277C2.56339 4.82263 2.26444 4.92679 2.1443 5.17543C1.73128 6.0302 1.5 6.98883 1.5 8.00008C1.5 9.4629 1.98382 10.8142 2.79995 11.9006C2.96581 12.1214 3.27924 12.1659 3.50003 12.0001C3.72082 11.8342 3.76535 11.5208 3.59949 11.3C2.90898 10.3808 2.5 9.23891 2.5 8.00008C2.5 7.14273 2.69581 6.33253 3.04469 5.6105Z" fill="white"/>
<path d="M4.34631 6.83632C4.43004 6.57318 4.2846 6.29198 4.02146 6.20825C3.75832 6.12452 3.47712 6.26996 3.39339 6.5331C3.24598 6.99638 3.16663 7.48942 3.16663 8.00004C3.16663 9.08765 3.52646 10.0927 4.13337 10.9006C4.29923 11.1213 4.61266 11.1659 4.83345 11C5.05423 10.8342 5.09876 10.5207 4.9329 10.2999C4.45162 9.65928 4.16663 8.86366 4.16663 8.00004C4.16663 7.59352 4.22973 7.20271 4.34631 6.83632Z" fill="white"/>
<path d="M5.83691 8.12526C5.82127 7.84956 5.58509 7.63874 5.30939 7.65439C5.03369 7.67003 4.82288 7.90621 4.83852 8.18191C4.87499 8.82469 5.10339 9.41672 5.46679 9.90049C5.63264 10.1213 5.94607 10.1658 6.16686 9.99996C6.38765 9.83411 6.43219 9.52067 6.26634 9.29988C6.01759 8.96874 5.86185 8.56479 5.83691 8.12526Z" fill="white"/>
</svg>
