<svg width="16" height="16" viewBox="0 0 16 16" fill="none" xmlns="http://www.w3.org/2000/svg">
<path fill-rule="evenodd" clip-rule="evenodd" d="M3 3.07505C3 2.57799 3.40294 2.17505 3.9 2.17505L12.1 2.17507C12.5971 2.17507 13 2.57802 13 3.07507V9.88216L8.70711 14.175H3.9C3.40294 14.175 3 13.7721 3 13.275V3.07505ZM4 3.17505L12 3.17507V9.17505H8.9C8.40294 9.17505 8 9.57799 8 10.075V13.175H4V3.17505ZM9 12.4679V10.175H11.2929L9 12.4679ZM5.5 5.67505C5.5 5.39891 5.72386 5.17505 6 5.17505H10C10.2761 5.17505 10.5 5.39891 10.5 5.67505C10.5 5.95119 10.2761 6.17505 10 6.17505H6C5.72386 6.17505 5.5 5.95119 5.5 5.67505ZM5.5 7.67505C5.5 7.39891 5.72386 7.17505 6 7.17505H10C10.2761 7.17505 10.5 7.39891 10.5 7.67505C10.5 7.95119 10.2761 8.17505 10 8.17505H6C5.72386 8.17505 5.5 7.95119 5.5 7.67505Z" fill="white"/>
</svg>
