<svg width="24" height="24" viewBox="0 0 24 24" fill="none" xmlns="http://www.w3.org/2000/svg">
<path fill-rule="evenodd" clip-rule="evenodd" d="M4.8252 4.675C4.8252 3.74992 5.57512 3 6.5002 3H17.5002C18.4253 3 19.1752 3.74992 19.1752 4.675V14.9546L12.7798 21.35H6.5002C5.57512 21.35 4.8252 20.6001 4.8252 19.675V4.675ZM6.5002 4.35C6.3207 4.35 6.1752 4.49551 6.1752 4.675V19.675C6.1752 19.8545 6.3207 20 6.5002 20H11.8252V15.675C11.8252 14.7499 12.5751 14 13.5002 14H17.8252V4.675C17.8252 4.49551 17.6797 4.35 17.5002 4.35H6.5002ZM16.8706 15.35H13.5002C13.3207 15.35 13.1752 15.4955 13.1752 15.675V19.0454L16.8706 15.35ZM7.8252 7.675C7.8252 7.30221 8.1274 7 8.5002 7H15.5002C15.873 7 16.1752 7.30221 16.1752 7.675C16.1752 8.04779 15.873 8.35 15.5002 8.35H8.5002C8.1274 8.35 7.8252 8.04779 7.8252 7.675ZM7.8252 10.675C7.8252 10.3022 8.1274 10 8.5002 10H15.5002C15.873 10 16.1752 10.3022 16.1752 10.675C16.1752 11.0478 15.873 11.35 15.5002 11.35H8.5002C8.1274 11.35 7.8252 11.0478 7.8252 10.675Z" fill="white"/>
</svg>
