<svg width="24" height="24" viewBox="0 0 24 24" fill="none" xmlns="http://www.w3.org/2000/svg">
<path fill-rule="evenodd" clip-rule="evenodd" d="M6.5 3C5.67163 3 5 3.67157 5 4.5V19.5C5 20.3284 5.67163 21 6.5 21H11.825V15.5C11.825 14.575 12.575 13.825 13.5 13.825H19V4.5C19 3.67157 18.3284 3 17.5 3H6.5ZM8.5 6.82501C8.1272 6.82501 7.82495 7.1272 7.82495 7.5C7.82495 7.8728 8.1272 8.17499 8.5 8.17499H15.5C15.8728 8.17499 16.175 7.8728 16.175 7.5C16.175 7.1272 15.8728 6.82501 15.5 6.82501H8.5ZM8.5 9.82501C8.1272 9.82501 7.82495 10.1272 7.82495 10.5C7.82495 10.8728 8.1272 11.175 8.5 11.175H15.5C15.8728 11.175 16.175 10.8728 16.175 10.5C16.175 10.1272 15.8728 9.82501 15.5 9.82501H8.5Z" fill="white"/>
<path d="M13.175 21L19 15.175H13.5C13.3206 15.175 13.175 15.3205 13.175 15.5V21Z" fill="white"/>
</svg>
