<svg width="16" height="16" viewBox="0 0 16 16" fill="none" xmlns="http://www.w3.org/2000/svg">
<path fill-rule="evenodd" clip-rule="evenodd" d="M3.8999 2C3.40283 2 3 2.40295 3 2.90002V13.1C3 13.597 3.40283 14 3.8999 14H8V9.90002C8 9.40295 8.40283 9 8.8999 9H13V2.90002C13 2.40295 12.5972 2 12.1001 2H3.8999ZM6 5C5.72388 5 5.5 5.22388 5.5 5.5C5.5 5.77612 5.72388 6 6 6H10C10.2761 6 10.5 5.77612 10.5 5.5C10.5 5.22388 10.2761 5 10 5H6ZM6 7C5.72388 7 5.5 7.22388 5.5 7.5C5.5 7.77612 5.72388 8 6 8H10C10.2761 8 10.5 7.77612 10.5 7.5C10.5 7.22388 10.2761 7 10 7H6Z" fill="white"/>
<path d="M9 14L13 10H9V14Z" fill="white"/>
</svg>
