<svg width="16" height="16" viewBox="0 0 16 16" fill="none" xmlns="http://www.w3.org/2000/svg">
<path fill-rule="evenodd" clip-rule="evenodd" d="M2.5 3.4C2.5 2.90294 2.90294 2.5 3.4 2.5H4C4.27614 2.5 4.5 2.72386 4.5 3C4.5 3.27614 4.27614 3.5 4 3.5H3.5V12.5H12.5V3.5H12C11.7239 3.5 11.5 3.27614 11.5 3C11.5 2.72386 11.7239 2.5 12 2.5H12.6C13.0971 2.5 13.5 2.90294 13.5 3.4V12.6C13.5 13.0971 13.0971 13.5 12.6 13.5H3.4C2.90294 13.5 2.5 13.0971 2.5 12.6V3.4ZM8 2.5C8.27614 2.5 8.5 2.72386 8.5 3V6.79289L9.64645 5.64645C9.84171 5.45118 10.1583 5.45118 10.3536 5.64645C10.5488 5.84171 10.5488 6.15829 10.3536 6.35355L8.35355 8.35355C8.15829 8.54882 7.84171 8.54882 7.64645 8.35355L5.64645 6.35355C5.45118 6.15829 5.45118 5.84171 5.64645 5.64645C5.84171 5.45118 6.15829 5.45118 6.35355 5.64645L7.5 6.79289V3C7.5 2.72386 7.72386 2.5 8 2.5Z" fill="white"/>
</svg>
