<svg width="24" height="24" viewBox="0 0 24 24" fill="none" xmlns="http://www.w3.org/2000/svg">
<path fill-rule="evenodd" clip-rule="evenodd" d="M12 3.82495C12.3727 3.82495 12.675 4.12716 12.675 4.49995V13.3704L15.5227 10.5227C15.7863 10.2591 16.2136 10.2591 16.4772 10.5227C16.7409 10.7863 16.7409 11.2136 16.4772 11.4772L12.4772 15.4772C12.2136 15.7409 11.7863 15.7409 11.5227 15.4772L7.52265 11.4772C7.25905 11.2136 7.25905 10.7863 7.52265 10.5227C7.78626 10.2591 8.21364 10.2591 8.47725 10.5227L11.325 13.3704V4.49995C11.325 4.12716 11.6272 3.82495 12 3.82495ZM4.49995 16.825C4.87274 16.825 5.17495 17.1272 5.17495 17.5V18.5C5.17495 18.6794 5.32046 18.825 5.49995 18.825H18.5C18.6794 18.825 18.825 18.6794 18.825 18.5V17.5C18.825 17.1272 19.1272 16.825 19.5 16.825C19.8727 16.825 20.175 17.1272 20.175 17.5V18.5C20.175 19.425 19.425 20.175 18.5 20.175H5.49995C4.57487 20.175 3.82495 19.425 3.82495 18.5V17.5C3.82495 17.1272 4.12716 16.825 4.49995 16.825Z" fill="white"/>
</svg>
