<svg width="16" height="16" viewBox="0 0 16 16" fill="none" xmlns="http://www.w3.org/2000/svg">
<path d="M10.8536 7.35355L8.35355 9.85355C8.15829 10.0488 7.84171 10.0488 7.64645 9.85355L5.14645 7.35355C4.95118 7.15829 4.95118 6.84171 5.14645 6.64645C5.34171 6.45118 5.65829 6.45118 5.85355 6.64645L7.5 8.29289V3C7.5 2.72386 7.72386 2.5 8 2.5C8.27614 2.5 8.5 2.72386 8.5 3V8.29289L10.1464 6.64645C10.3417 6.45118 10.6583 6.45118 10.8536 6.64645C11.0488 6.84171 11.0488 7.15829 10.8536 7.35355Z" fill="white"/>
<path d="M3 11.8C3 11.3582 3.35817 11 3.8 11H12.2C12.6418 11 13 11.3582 13 11.8V12.2C13 12.6418 12.6418 13 12.2 13H3.8C3.35817 13 3 12.6418 3 12.2V11.8Z" fill="white"/>
</svg>
