<svg width="20" height="20" viewBox="0 0 20 20" fill="none" xmlns="http://www.w3.org/2000/svg">
<path d="M10.3889 12.8889C10.2858 12.992 10.1459 13.05 10 13.05C9.85413 13.05 9.71424 12.992 9.61109 12.8889L6.11109 9.38886C5.8963 9.17407 5.8963 8.82583 6.11109 8.61104C6.32588 8.39625 6.67412 8.39625 6.88891 8.61104L9.45 11.1721V3.99995C9.45 3.69619 9.69624 3.44995 10 3.44995C10.3038 3.44995 10.55 3.69619 10.55 3.99995V11.1721L13.1111 8.61104C13.3259 8.39625 13.6741 8.39625 13.8889 8.61104C14.1037 8.82583 14.1037 9.17407 13.8889 9.38886L10.3889 12.8889Z" fill="white"/>
<path d="M4 14.84C4 14.376 4.37608 14 4.84 14H15.16C15.6239 14 16 14.376 16 14.84V15.16C16 15.6239 15.6239 16 15.16 16H4.84C4.37608 16 4 15.6239 4 15.16V14.84Z" fill="white"/>
</svg>
