<svg width="16" height="16" viewBox="0 0 16 16" fill="none" xmlns="http://www.w3.org/2000/svg">
<path d="M10.3535 6.35358L8.35352 8.35358C8.1582 8.54883 7.8418 8.54883 7.64648 8.35358L5.64648 6.35358C5.45117 6.15826 5.45117 5.84174 5.64648 5.64642C5.8418 5.45117 6.1582 5.45117 6.35352 5.64642L7.5 6.79291V3H3.8999C3.40283 3 3 3.40295 3 3.90002V12.1C3 12.597 3.40283 13 3.8999 13H12.1001C12.5972 13 13 12.597 13 12.1V3.90002C13 3.40295 12.5972 3 12.1001 3H8.5V6.79291L9.64648 5.64642C9.8418 5.45117 10.1582 5.45117 10.3535 5.64642C10.5488 5.84174 10.5488 6.15826 10.3535 6.35358Z" fill="white"/>
</svg>
