<svg width="24" height="24" viewBox="0 0 24 24" fill="none" xmlns="http://www.w3.org/2000/svg">
<path fill-rule="evenodd" clip-rule="evenodd" d="M12 3.32495C12.3727 3.32495 12.675 3.62716 12.675 3.99995V10.3704L14.5227 8.52265C14.7863 8.25905 15.2136 8.25905 15.4772 8.52265C15.7409 8.78626 15.7409 9.21364 15.4772 9.47725L12.4772 12.4772C12.2136 12.7409 11.7863 12.7409 11.5227 12.4772L8.52265 9.47725C8.25905 9.21364 8.25905 8.78626 8.52265 8.52265C8.78626 8.25905 9.21364 8.25905 9.47725 8.52265L11.325 10.3704V3.99995C11.325 3.62716 11.6272 3.32495 12 3.32495ZM3.82495 5.49995C3.82495 4.57487 4.57487 3.82495 5.49995 3.82495H6.49995C6.87274 3.82495 7.17495 4.12716 7.17495 4.49995C7.17495 4.87274 6.87274 5.17495 6.49995 5.17495H5.49995C5.32046 5.17495 5.17495 5.32046 5.17495 5.49995V18.5C5.17495 18.6794 5.32046 18.825 5.49995 18.825H18.5C18.6794 18.825 18.825 18.6794 18.825 18.5V5.49995C18.825 5.32046 18.6794 5.17495 18.5 5.17495H17.5C17.1272 5.17495 16.825 4.87274 16.825 4.49995C16.825 4.12716 17.1272 3.82495 17.5 3.82495H18.5C19.425 3.82495 20.175 4.57487 20.175 5.49995V18.5C20.175 19.425 19.425 20.1749 18.5 20.1749H5.49995C4.57487 20.1749 3.82495 19.425 3.82495 18.5V5.49995Z" fill="white"/>
</svg>
