<svg width="20" height="20" viewBox="0 0 20 20" fill="none" xmlns="http://www.w3.org/2000/svg">
<path fill-rule="evenodd" clip-rule="evenodd" d="M9.99996 3.44995C10.3037 3.44995 10.55 3.69619 10.55 3.99995V11.1721L13.1111 8.61104C13.3258 8.39625 13.6741 8.39625 13.8889 8.61104C14.1037 8.82583 14.1037 9.17407 13.8889 9.38886L10.3889 12.8889C10.2857 12.992 10.1458 13.05 9.99996 13.05C9.85409 13.05 9.7142 12.992 9.61105 12.8889L6.11105 9.38886C5.89627 9.17407 5.89627 8.82583 6.11105 8.61104C6.32584 8.39625 6.67408 8.39625 6.88887 8.61104L9.44996 11.1721V3.99995C9.44996 3.69619 9.69621 3.44995 9.99996 3.44995ZM3.99995 13.95C4.30371 13.95 4.54995 14.1962 4.54995 14.5V15.2C4.54995 15.338 4.66188 15.45 4.79995 15.45H15.2C15.338 15.45 15.45 15.338 15.45 15.2V14.5C15.45 14.1962 15.6962 13.95 16 13.95C16.3037 13.95 16.55 14.1962 16.55 14.5V15.2C16.55 15.9455 15.9455 16.55 15.2 16.55H4.79995C4.05437 16.55 3.44995 15.9455 3.44995 15.2V14.5C3.44995 14.1962 3.69619 13.95 3.99995 13.95Z" fill="white"/>
</svg>
