<svg width="24" height="24" viewBox="0 0 24 24" fill="none" xmlns="http://www.w3.org/2000/svg">
<path d="M16.4773 11.4772L12.4773 15.4772C12.2137 15.7409 11.7863 15.7409 11.5227 15.4772L7.5227 11.4772C7.2591 11.2136 7.2591 10.7863 7.5227 10.5227C7.78631 10.2591 8.21369 10.2591 8.4773 10.5227L11.325 13.3704V4.49995C11.325 4.12716 11.6272 3.82495 12 3.82495C12.3728 3.82495 12.675 4.12716 12.675 4.49995V13.3704L15.5227 10.5227C15.7863 10.2591 16.2137 10.2591 16.4773 10.5227C16.7409 10.7863 16.7409 11.2136 16.4773 11.4772Z" fill="white"/>
<path d="M4 18.2C4 17.5372 4.53726 17 5.2 17H18.8C19.4627 17 20 17.5372 20 18.2V18.8C20 19.4627 19.4627 20 18.8 20H5.2C4.53726 20 4 19.4627 4 18.8V18.2Z" fill="white"/>
</svg>
