<svg width="16" height="16" viewBox="0 0 16 16" fill="none" xmlns="http://www.w3.org/2000/svg">
<path fill-rule="evenodd" clip-rule="evenodd" d="M8 2.5C8.27614 2.5 8.5 2.72386 8.5 3V8.29289L10.1464 6.64645C10.3417 6.45118 10.6583 6.45118 10.8536 6.64645C11.0488 6.84171 11.0488 7.15829 10.8536 7.35355L8.35355 9.85355C8.15829 10.0488 7.84171 10.0488 7.64645 9.85355L5.14645 7.35355C4.95118 7.15829 4.95118 6.84171 5.14645 6.64645C5.34171 6.45118 5.65829 6.45118 5.85355 6.64645L7.5 8.29289V3C7.5 2.72386 7.72386 2.5 8 2.5ZM3 11C3.27614 11 3.5 11.2239 3.5 11.5V12.5H12.5V11.5C12.5 11.2239 12.7239 11 13 11C13.2761 11 13.5 11.2239 13.5 11.5V12.6C13.5 13.0971 13.0971 13.5 12.6 13.5H3.4C2.90294 13.5 2.5 13.0971 2.5 12.6V11.5C2.5 11.2239 2.72386 11 3 11Z" fill="white"/>
</svg>
