<svg width="24" height="24" viewBox="0 0 24 24" fill="none" xmlns="http://www.w3.org/2000/svg">
<path d="M15.4773 9.47729L12.4773 12.4773C12.2136 12.7409 11.7864 12.7409 11.5227 12.4773L8.52271 9.47729C8.25903 9.21368 8.25903 8.78632 8.52271 8.52271C8.78638 8.25909 9.21362 8.25909 9.47729 8.52271L11.325 10.3704V4H5.5C4.67163 4 4 4.67157 4 5.5V18.5C4 19.3284 4.67163 20 5.5 20H18.5C19.3284 20 20 19.3284 20 18.5V5.5C20 4.67157 19.3284 4 18.5 4H12.675V10.3704L14.5227 8.52271C14.7864 8.25909 15.2136 8.25909 15.4773 8.52271C15.741 8.78632 15.741 9.21368 15.4773 9.47729Z" fill="white"/>
</svg>
