<svg width="16" height="16" viewBox="0 0 16 16" fill="none" xmlns="http://www.w3.org/2000/svg">
<path d="M2.9 2C2.40294 2 2 2.40294 2 2.9V4.5H3V3H4.5V2H2.9Z" fill="white"/>
<path d="M7.5 2H5.5V3H7.5V2Z" fill="white"/>
<path d="M10.1 2H8.5V3H10V4H11V2.9C11 2.40294 10.5971 2 10.1 2Z" fill="white"/>
<path d="M2 5.5V7.5H3V5.5H2Z" fill="white"/>
<path d="M2 8.5V10.1C2 10.5971 2.40294 11 2.9 11H4V10H3V8.5H2Z" fill="white"/>
<path d="M5 5.89999C5 5.40295 5.40295 5 5.90002 5H13.1C13.597 5 14 5.40295 14 5.89999V10.6027L11.5344 8.25502L11.5254 8.24658L11.2564 7.99047C10.402 7.17686 9 7.79028 9 8.9586V14H5.90002C5.40295 14 5 13.597 5 13.1V5.89999Z" fill="white"/>
<path d="M10 8.95847C10 8.66351 10.3533 8.51116 10.5669 8.71456L14.1701 12.1454C14.3795 12.3448 14.2315 12.6978 13.9423 12.6978H12.626L13.47 14.6702L12.3208 15.162L11.4764 13.1884L10.5866 14.1337C10.3759 14.3575 10 14.2084 10 13.901V8.95847Z" fill="white"/>
</svg>
