<svg width="24" height="24" viewBox="0 0 24 24" fill="none" xmlns="http://www.w3.org/2000/svg">
<path d="M4.5002 2.8252C3.57512 2.8252 2.8252 3.57512 2.8252 4.5002V6.82518H4.1752V4.5002C4.1752 4.3207 4.3207 4.1752 4.5002 4.1752H6.8252V2.8252H4.5002Z" fill="white"/>
<path d="M8.17517 4.1752H11.8252V2.8252H8.17517V4.1752Z" fill="white"/>
<path d="M15.5002 2.8252L13.1752 2.82521L13.1752 4.17521L15.5002 4.1752C15.6797 4.1752 15.8252 4.3207 15.8252 4.5002V5.82539H17.1752V4.5002C17.1752 3.57512 16.4253 2.82519 15.5002 2.8252Z" fill="white"/>
<path d="M2.8252 8.17518V11.8252H4.1752V8.17518H2.8252Z" fill="white"/>
<path d="M4.1752 15.5002V13.1752H2.8252V15.5002C2.8252 16.4253 3.57512 17.1752 4.5002 17.1752H5.82521V15.8252H4.5002C4.3207 15.8252 4.1752 15.6797 4.1752 15.5002Z" fill="white"/>
<path d="M8.50024 7C7.67188 7 7.00024 7.67157 7.00024 8.5V19.5C7.00024 20.3284 7.67188 21 8.50024 21H13.6502V13C13.6502 12.2518 14.101 11.5772 14.7923 11.2908C15.4836 11.0045 16.2793 11.1628 16.8084 11.6919L21.0002 15.8837V8.5C21.0002 7.67157 20.3286 7 19.5002 7H8.50024Z" fill="white"/>
<path d="M15.8538 12.6465C15.7108 12.5035 15.4957 12.4607 15.3089 12.5381C15.1221 12.6155 15.0002 12.7978 15.0002 13V21C15.0002 21.2072 15.1281 21.393 15.3216 21.467C15.5151 21.541 15.7343 21.488 15.8726 21.3337L17.2212 19.8291L18.5149 23.0045L20.3671 22.2499L19.043 19H21.0002C21.2025 19 21.3848 18.8782 21.4622 18.6914C21.5396 18.5045 21.4968 18.2895 21.3538 18.1465L15.8538 12.6465Z" fill="white"/>
</svg>
