<svg width="32" height="32" viewBox="0 0 32 32" fill="none" xmlns="http://www.w3.org/2000/svg">
<path d="M5.99998 3.81641C4.79416 3.81641 3.81665 4.79392 3.81665 5.99974V9.09972H5.51665V5.99974C5.51665 5.7328 5.73305 5.51641 5.99998 5.51641H9.09998V3.81641H5.99998Z" fill="white"/>
<path d="M10.9 5.51641H15.7666V3.81641H10.9V5.51641Z" fill="white"/>
<path d="M20.6666 3.81641L17.5666 3.81642L17.5666 5.51642L20.6666 5.51641C20.9336 5.51641 21.15 5.7328 21.15 5.99974V7.76667H22.85V5.99974C22.85 4.79392 21.8725 3.8164 20.6666 3.81641Z" fill="white"/>
<path d="M3.81665 10.8997V15.7664H5.51665V10.8997H3.81665Z" fill="white"/>
<path d="M5.51665 20.6664V17.5664H3.81665V20.6664C3.81665 21.8722 4.79416 22.8497 5.99998 22.8497H7.76667V21.1497H5.99998C5.73305 21.1497 5.51665 20.9333 5.51665 20.6664Z" fill="white"/>
<path d="M11.3333 9.14932C10.1274 9.14932 9.14993 10.1268 9.14993 11.3326V25.9993C9.14993 27.2051 10.1274 28.1827 11.3333 28.1827H18.1231C18.1188 28.1221 18.1166 28.0612 18.1166 27.9998V17.3332C18.1166 16.3018 18.7379 15.372 19.6908 14.9773C20.6436 14.5826 21.7404 14.8008 22.4697 15.5301L28.1833 21.2436V11.3326C28.1833 10.1268 27.2057 9.14932 25.9999 9.14932H11.3333Z" fill="white"/>
<path d="M21.2677 16.7318C21.0246 16.4887 20.659 16.416 20.3414 16.5475C20.0238 16.6791 19.8167 16.989 19.8167 17.3328V27.9995C19.8167 28.3518 20.034 28.6675 20.363 28.7934C20.692 28.9193 21.0645 28.8291 21.2996 28.5668L23.1 26.5582L24.7633 30.641L27.0785 29.6977L25.3749 25.5162H28C28.3438 25.5162 28.6537 25.3091 28.7853 24.9915C28.9169 24.6738 28.8442 24.3082 28.6011 24.0651L21.2677 16.7318Z" fill="white"/>
</svg>
