<svg width="48" height="48" viewBox="0 0 48 48" fill="none" xmlns="http://www.w3.org/2000/svg">
<path d="M6 9C6 7.34314 7.34315 6 9 6H13.65V8H9C8.44772 8 8 8.44772 8 9V13.65H6V9Z" fill="white"/>
<path d="M23.65 8H16.35V6H23.65V8Z" fill="white"/>
<path d="M26.3499 6.00002L31 6.00001C32.6568 6 34 7.34315 34 9.00001V11.6504H32V9.00001C32 8.44772 31.5523 8 31 8.00001L26.35 8.00002L26.3499 6.00002Z" fill="white"/>
<path d="M6 23.65V16.35H8V23.65H6Z" fill="white"/>
<path d="M8 26.35V31C8 31.5523 8.44772 32 9 32H11.65V34H9C7.34315 34 6 32.6569 6 31V26.35H8Z" fill="white"/>
<path d="M14 17C14 15.3431 15.3433 14 17 14H39C40.6567 14 42 15.3431 42 17V32.7574L33.1213 23.8788C32.2633 23.0208 30.973 22.7641 29.8519 23.2284C28.7309 23.6928 28 24.7867 28 26.0001V42H17C15.3433 42 14 40.6569 14 39V17Z" fill="white"/>
<path d="M30.6173 25.0761C30.991 24.9214 31.4211 25.0069 31.7071 25.2929L42.7071 36.2929C42.9931 36.5789 43.0787 37.009 42.9239 37.3827C42.7691 37.7564 42.4045 38 42 38H38.0856L40.7337 44.4999L37.0293 46.009L34.4419 39.6582L31.7447 42.6675C31.4681 42.9761 31.0298 43.0821 30.6427 42.934C30.2556 42.7859 30 42.4145 30 42V26C30 25.5956 30.2436 25.2309 30.6173 25.0761Z" fill="white"/>
</svg>
