<svg width="16" height="16" viewBox="0 0 16 16" fill="none" xmlns="http://www.w3.org/2000/svg">
<path d="M9.91249 2.95844C8.71633 3.94489 7.55414 4.99271 6.46055 6.08446C5.91642 6.63228 5.38694 7.19172 4.90141 7.76989C4.42122 8.3429 3.95701 8.95467 3.68661 9.53284C3.60194 9.68862 3.42719 10.128 3.76786 10.0445C4.26671 9.96954 4.97001 9.55481 5.58008 9.14072C6.84417 8.28088 8.039 7.24534 9.38367 6.30346C9.72601 6.06896 10.0777 5.83898 10.4806 5.63161C10.6844 5.52954 10.8935 5.42877 11.1573 5.35512C11.403 5.28212 11.7347 5.21235 12.141 5.32282C12.3454 5.37192 12.5359 5.50112 12.6904 5.64195C12.8216 5.78149 12.9329 5.93976 12.9995 6.13162C13.1287 6.51018 13.0667 6.84804 12.9908 7.10967C12.815 7.61679 12.5599 7.97209 12.3075 8.31512C11.7946 8.98632 11.2425 9.56127 10.7137 10.1407C10.1915 10.7144 9.65607 11.2926 9.29709 11.8688C9.20518 12.0116 9.14258 12.1505 9.09796 12.2706C9.03057 12.4845 9.0627 12.5554 9.30109 12.5038C9.54818 12.4379 9.87786 12.2538 10.1935 12.049C10.5166 11.8455 10.8389 11.6182 11.1999 11.3966C11.8831 11.0037 12.7553 10.5352 13.5083 11.0542C13.822 11.2299 14.0378 11.7034 13.9945 12.0154C13.9399 12.6485 13.6661 13.0097 13.425 13.3721C13.1673 13.7267 12.9002 14.031 12.5852 14.3404C12.3707 14.551 12.0204 14.5536 11.8033 14.3456C11.5882 14.1395 11.5835 13.8042 11.792 13.593L11.8053 13.5794C12.0491 13.3327 12.2995 13.0394 12.4973 12.7551C12.6978 12.4806 12.8536 12.1408 12.8509 11.9915C12.8312 11.7633 11.9017 12.3197 11.8399 12.3591L10.8582 13.0174C10.5106 13.2422 10.1529 13.4819 9.63143 13.6414C9.37701 13.7209 9.02136 13.7564 8.6484 13.6318C8.30607 13.4696 8.00436 13.2261 7.89048 12.8514C7.77392 12.489 7.83453 12.1692 7.90713 11.9147C7.98971 11.6672 8.09494 11.4502 8.21016 11.2603C8.67304 10.4986 9.21784 9.91399 9.74199 9.31385C10.2661 8.7234 10.797 8.14716 11.2279 7.56123C11.4397 7.27376 11.6248 6.96691 11.6987 6.73241C11.7813 6.42125 11.2683 6.74664 11.1313 6.81962C10.8283 6.98112 10.5159 7.18849 10.2075 7.40748C8.96609 8.30285 7.78125 9.36294 6.43657 10.3113C5.73726 10.7687 5.0839 11.2771 3.99564 11.4999C3.46016 11.6149 2.55905 11.4541 2.15678 10.684C1.96896 10.3035 1.98228 9.93208 2.03157 9.66657C2.07886 9.38362 2.16544 9.15364 2.25801 8.93723C2.64297 8.09354 3.14581 7.4456 3.6593 6.80411C4.17613 6.16909 4.72226 5.57476 5.28104 4.99465C6.40327 3.83959 7.57345 2.75107 8.80225 1.70519C9.1559 1.40415 9.69404 1.43838 10.0044 1.78141C10.3148 2.12444 10.2795 2.64642 9.92581 2.94746C9.92381 2.94939 9.92115 2.95133 9.91915 2.95327L9.91249 2.95844Z" fill="white"/>
</svg>
