<svg width="24" height="24" viewBox="0 0 24 24" fill="none" xmlns="http://www.w3.org/2000/svg">
<path d="M14.8687 4.24375C13.0745 5.76137 11.3312 7.3734 9.69082 9.05302C8.87463 9.89581 8.08041 10.7565 7.35212 11.646C6.63183 12.5275 5.93551 13.4687 5.52991 14.3582C5.40292 14.5979 5.14079 15.2738 5.65179 15.1454C6.40006 15.0301 7.45502 14.392 8.37012 13.755C10.2663 12.4321 12.0585 10.839 14.0755 9.38994C14.589 9.02917 15.1165 8.67535 15.7209 8.35633C16.0266 8.1993 16.3403 8.04425 16.7359 7.93096C17.1045 7.81865 17.602 7.71131 18.2114 7.88126C18.5181 7.9568 18.8039 8.15557 19.0356 8.37223C19.2324 8.5869 19.3993 8.8304 19.4992 9.12557C19.693 9.70797 19.6001 10.2278 19.4862 10.6303C19.2225 11.4104 18.8398 11.9571 18.4612 12.4848C17.692 13.5174 16.8638 14.402 16.0706 15.2934C15.2873 16.176 14.4841 17.0655 13.9456 17.952C13.8078 18.1716 13.7139 18.3853 13.6469 18.5702C13.5459 18.8993 13.594 19.0083 13.9516 18.929C14.3223 18.8276 14.8168 18.5443 15.2903 18.2293C15.7748 17.9162 16.2584 17.5664 16.7998 17.2255C17.8246 16.6211 19.1329 15.9003 20.2624 16.6988C20.733 16.9691 21.0567 17.6976 20.9917 18.1776C20.9098 19.1516 20.4992 19.7072 20.1376 20.2647C19.7509 20.8103 19.3503 21.2784 18.8778 21.7545C18.5561 22.0785 18.0306 22.0825 17.7049 21.7624C17.3823 21.4454 17.3753 20.9296 17.688 20.6046L17.7079 20.5837C18.0736 20.2041 18.4492 19.7529 18.7459 19.3156C19.0466 18.8932 19.2804 18.3704 19.2764 18.1408C19.2467 17.7896 17.8526 18.6457 17.7599 18.7063L16.2873 19.7191C15.7659 20.0649 15.2294 20.4337 14.4471 20.6791C14.0655 20.8014 13.532 20.8561 12.9726 20.6642C12.4591 20.4148 12.0065 20.0401 11.8357 19.4637C11.6609 18.9061 11.7518 18.4141 11.8607 18.0226C11.9846 17.6419 12.1424 17.308 12.3152 17.0158C13.0096 15.844 13.8268 14.9446 14.613 14.0213C15.3992 13.1129 16.1954 12.2264 16.8418 11.325C17.1595 10.8827 17.4372 10.4106 17.5481 10.0499C17.6719 9.57115 16.9025 10.0718 16.6969 10.184C16.2424 10.4325 15.7738 10.7515 15.3113 11.0884C13.4491 12.4659 11.6719 14.0968 9.65486 15.5558C8.60589 16.2595 7.62585 17.0416 5.99346 17.3845C5.19025 17.5614 3.83858 17.3139 3.23517 16.1293C2.95345 15.5439 2.97343 14.9724 3.04735 14.564C3.11828 14.1286 3.24816 13.7748 3.38702 13.4419C3.96445 12.1439 4.71871 11.1471 5.48895 10.1602C6.26419 9.18322 7.08339 8.26887 7.92156 7.37638C9.60491 5.59937 11.3602 3.92472 13.2034 2.31567C13.7338 1.85253 14.5411 1.90521 15.0066 2.43294C15.4721 2.96068 15.4192 3.76372 14.8887 4.22685C14.8857 4.22984 14.8817 4.23282 14.8787 4.2358L14.8687 4.24375Z" fill="white"/>
</svg>
