<svg width="16" height="16" viewBox="0 0 16 16" fill="none" xmlns="http://www.w3.org/2000/svg">
<path fill-rule="evenodd" clip-rule="evenodd" d="M8.92643 1.42962C9.2779 1.07815 9.84775 1.07815 10.1992 1.42962L14.0085 5.23893C14.36 5.5904 14.36 6.16025 14.0085 6.51173L8.78354 11.7367C8.61476 11.9055 8.38584 12.0003 8.14714 12.0003H4.72852C4.48982 12.0003 4.2609 11.9055 4.09212 11.7367L1.99212 9.63673C1.64065 9.28526 1.64065 8.71541 1.99212 8.36393L8.92643 1.42962ZM9.56283 2.20744L5.26994 6.50033L8.93783 10.1682L13.2307 5.87533L9.56283 2.20744ZM8.23072 10.8753L4.56283 7.20744L2.76994 9.00033L4.76994 11.0003H8.10572L8.23072 10.8753ZM2.69923 9.07104C2.69919 9.07108 2.69927 9.071 2.69923 9.07104V9.07104ZM9.49224 2.13685C9.4922 2.13681 9.49228 2.13689 9.49224 2.13685V2.13685ZM5.16696 13.5003C5.16696 13.2242 5.39081 13.0003 5.66696 13.0003H14.0003C14.2764 13.0003 14.5003 13.2242 14.5003 13.5003C14.5003 13.7765 14.2764 14.0003 14.0003 14.0003H5.66696C5.39081 14.0003 5.16696 13.7765 5.16696 13.5003Z" fill="white"/>
</svg>
