<svg width="24" height="24" viewBox="0 0 24 24" fill="none" xmlns="http://www.w3.org/2000/svg">
<path fill-rule="evenodd" clip-rule="evenodd" d="M13.3156 2.72985C13.9698 2.07572 15.0303 2.07573 15.6844 2.72985L21.2702 8.31564C21.9244 8.96977 21.9244 10.0303 21.2702 10.6844L13.2702 18.6844C12.9561 18.9986 12.5301 19.175 12.0858 19.175H6.91426C6.47002 19.175 6.04398 18.9986 5.72985 18.6844L2.72985 15.6844C2.07572 15.0303 2.07573 13.9698 2.72985 13.3156L13.3156 2.72985ZM14.7299 3.68445C14.6029 3.55753 14.3972 3.55753 14.2702 3.68445L7.45464 10.5L13.5 16.5455L20.3156 9.72985C20.4426 9.60293 20.4426 9.39716 20.3156 9.27024L14.7299 3.68445ZM12.5455 17.5L6.50004 11.4546L3.68445 14.2702C3.55753 14.3972 3.55753 14.6029 3.68445 14.7299L6.68445 17.7299C6.7454 17.7908 6.82806 17.825 6.91426 17.825H12.0858C12.172 17.825 12.2547 17.7908 12.3156 17.7299L12.5455 17.5ZM7.82504 21C7.82504 20.6273 8.12725 20.325 8.50004 20.325H21C21.3728 20.325 21.675 20.6273 21.675 21C21.675 21.3728 21.3728 21.675 21 21.675H8.50004C8.12725 21.675 7.82504 21.3728 7.82504 21Z" fill="white"/>
</svg>
