<svg width="16" height="16" viewBox="0 0 16 16" fill="none" xmlns="http://www.w3.org/2000/svg">
<path d="M8.92643 1.42962C9.2779 1.07815 9.84775 1.07815 10.1992 1.42962L14.0085 5.23893C14.36 5.59041 14.36 6.16025 14.0085 6.51173L9.64497 10.8753L4.56286 5.79319L8.92643 1.42962Z" fill="white"/>
<path d="M3.85576 6.5003L8.93786 11.5824L8.78354 11.7367C8.61476 11.9055 8.38584 12.0003 8.14714 12.0003H4.72852C4.48982 12.0003 4.2609 11.9055 4.09212 11.7367L1.99212 9.63673C1.64065 9.28526 1.64065 8.71541 1.99212 8.36393L3.85576 6.5003Z" fill="white"/>
<path d="M5.66699 13.0003C5.39085 13.0003 5.16699 13.2242 5.16699 13.5003C5.16699 13.7765 5.39085 14.0003 5.66699 14.0003H14.0003C14.2765 14.0003 14.5003 13.7765 14.5003 13.5003C14.5003 13.2242 14.2765 13.0003 14.0003 13.0003H5.66699Z" fill="white"/>
</svg>
