<svg width="24" height="24" viewBox="0 0 24 24" fill="none" xmlns="http://www.w3.org/2000/svg">
<path d="M13.4392 2.85365C14.025 2.26786 14.9747 2.26786 15.5605 2.85365L21.1463 8.43943C21.7321 9.02522 21.7321 9.97497 21.1463 10.5608L14.3307 17.3763L6.62361 9.66923L13.4392 2.85365Z" fill="white"/>
<path d="M5.66902 10.6238L13.3761 18.3309L13.1463 18.5608C12.865 18.8421 12.4835 19.0001 12.0856 19.0001H6.91406C6.51624 19.0001 6.13471 18.8421 5.8534 18.5608L2.8534 15.5608C2.26762 14.975 2.26762 14.0252 2.8534 13.4394L5.66902 10.6238Z" fill="white"/>
<path d="M8.49983 19.8251C8.12704 19.8251 7.82483 20.1273 7.82483 20.5001C7.82483 20.8729 8.12704 21.1751 8.49983 21.1751H20.9998C21.3726 21.1751 21.6748 20.8729 21.6748 20.5001C21.6748 20.1273 21.3726 19.8251 20.9998 19.8251H8.49983Z" fill="white"/>
</svg>
