<svg width="16" height="16" viewBox="0 0 16 16" fill="none" xmlns="http://www.w3.org/2000/svg">
<path fill-rule="evenodd" clip-rule="evenodd" d="M2 2.67505C2 2.39891 2.22386 2.17505 2.5 2.17505H6.5C6.77614 2.17505 7 2.39891 7 2.67505C7 2.95119 6.77614 3.17505 6.5 3.17505H3.70711L7.35355 6.8215C7.54882 7.01676 7.54882 7.33334 7.35355 7.5286C7.15829 7.72386 6.84171 7.72386 6.64645 7.5286L3 3.88216V6.67505C3 6.95119 2.77614 7.17505 2.5 7.17505C2.22386 7.17505 2 6.95119 2 6.67505V2.67505ZM8.64645 8.82143C8.84171 8.62617 9.15829 8.62617 9.35356 8.82144L13 12.4679L13 9.67505C13 9.39891 13.2238 9.17505 13.5 9.17505C13.7761 9.17505 14 9.3989 14 9.67505L14 13.675C14 13.9512 13.7761 14.175 13.5 14.175L9.50003 14.1751C9.22389 14.1751 9.00003 13.9512 9.00003 13.6751C9.00003 13.3989 9.22388 13.1751 9.50003 13.1751L12.2929 13.1751L8.64644 9.52854C8.45118 9.33328 8.45119 9.01669 8.64645 8.82143Z" fill="white"/>
</svg>
