<svg width="24" height="24" viewBox="0 0 24 24" fill="none" xmlns="http://www.w3.org/2000/svg">
<path fill-rule="evenodd" clip-rule="evenodd" d="M4.0229 4.1977C4.14949 4.07112 4.32118 4 4.5002 4L10.0002 4.00002C10.373 4.00002 10.6752 4.30223 10.6752 4.67502C10.6752 5.04781 10.373 5.35002 10.0002 5.35002L6.1298 5.35L10.9775 10.1976C11.2411 10.4613 11.2411 10.8886 10.9775 11.1522C10.7139 11.4158 10.2865 11.4158 10.0229 11.1522L5.1752 6.30459L5.1752 10.175C5.1752 10.5477 4.87299 10.85 4.5002 10.85C4.1274 10.85 3.8252 10.5477 3.8252 10.175L3.8252 4.675C3.8252 4.49598 3.89631 4.32429 4.0229 4.1977ZM13.0229 13.1976C13.2865 12.934 13.7139 12.934 13.9775 13.1976L18.8252 18.0454V14.175C18.8252 13.8022 19.1274 13.5 19.5002 13.5C19.873 13.5 20.1752 13.8022 20.1752 14.175V19.6749C20.1752 19.854 20.1041 20.0257 19.9775 20.1522C19.8509 20.2788 19.6792 20.3499 19.5002 20.3499L14.0002 20.3499C13.6274 20.3499 13.3252 20.0477 13.3252 19.6749C13.3252 19.3021 13.6274 18.9999 14.0002 18.9999L17.8706 18.9999L13.0229 14.1522C12.7593 13.8886 12.7593 13.4613 13.0229 13.1976Z" fill="white"/>
</svg>
