<svg width="24" height="24" viewBox="0 0 24 24" fill="none" xmlns="http://www.w3.org/2000/svg">
<path d="M12 15C13.6569 15 15 13.6569 15 12C15 10.3431 13.6569 9 12 9C10.3431 9 9 10.3431 9 12C9 13.6569 10.3431 15 12 15Z" fill="white"/>
<path fill-rule="evenodd" clip-rule="evenodd" d="M1.20166 12.7453C0.932861 12.2886 0.932739 11.7114 1.20154 11.2547C3.40808 7.50635 7.41858 5 12 5C16.5814 5 20.5919 7.50635 22.7983 11.2547C23.0673 11.7114 23.0673 12.2886 22.7983 12.7453C20.5919 16.4937 16.5814 19 12 19C7.41858 19 3.40808 16.4937 1.20166 12.7453ZM17 12C17 14.7614 14.7615 17 12 17C9.23853 17 7 14.7614 7 12C7 9.23857 9.23853 7 12 7C14.7615 7 17 9.23857 17 12Z" fill="white"/>
</svg>
