<svg width="16" height="16" viewBox="0 0 16 16" fill="none" xmlns="http://www.w3.org/2000/svg">
<path fill-rule="evenodd" clip-rule="evenodd" d="M8.00002 4.5C5.42581 4.5 3.28565 5.88595 2.09154 7.96083C2.07756 7.98512 2.07756 8.01488 2.09154 8.03917C3.28565 10.1141 5.42581 11.5 8.00002 11.5C10.5742 11.5 12.7144 10.1141 13.9085 8.03917C13.9225 8.01488 13.9225 7.98512 13.9085 7.96083C12.7144 5.88595 10.5742 4.5 8.00002 4.5ZM1.22482 7.46203C2.58343 5.10131 5.04093 3.5 8.00002 3.5C10.9591 3.5 13.4166 5.10131 14.7752 7.46203C14.9669 7.79511 14.9669 8.20489 14.7752 8.53797C13.4166 10.8987 10.9591 12.5 8.00002 12.5C5.04093 12.5 2.58343 10.8987 1.22482 8.53797C1.03313 8.20489 1.03313 7.79511 1.22482 7.46203ZM8.00002 6.5C7.17159 6.5 6.50002 7.17157 6.50002 8C6.50002 8.82843 7.17159 9.5 8.00002 9.5C8.82845 9.5 9.50002 8.82843 9.50002 8C9.50002 7.17157 8.82845 6.5 8.00002 6.5ZM5.50002 8C5.50002 6.61929 6.61931 5.5 8.00002 5.5C9.38073 5.5 10.5 6.61929 10.5 8C10.5 9.38071 9.38073 10.5 8.00002 10.5C6.61931 10.5 5.50002 9.38071 5.50002 8Z" fill="white"/>
</svg>
