<svg width="24" height="24" viewBox="0 0 24 24" fill="none" xmlns="http://www.w3.org/2000/svg">
<path fill-rule="evenodd" clip-rule="evenodd" d="M11.9998 6.17495C7.86436 6.17495 4.24994 8.46791 2.32803 11.8827C2.28701 11.9556 2.28701 12.0443 2.32803 12.1172C4.24994 15.532 7.86436 17.825 11.9998 17.825C16.1352 17.825 19.7497 15.532 21.6716 12.1172C21.7126 12.0443 21.7126 11.9556 21.6716 11.8827C19.7497 8.46791 16.1352 6.17495 11.9998 6.17495ZM1.15156 11.2206C3.29915 7.40479 7.34989 4.82495 11.9998 4.82495C16.6497 4.82495 20.7005 7.40479 22.848 11.2206C23.1204 11.7045 23.1204 12.2954 22.848 12.7793C20.7005 16.5951 16.6497 19.175 11.9998 19.175C7.34989 19.175 3.29915 16.5951 1.15156 12.7793C0.879167 12.2954 0.879168 11.7045 1.15156 11.2206ZM11.9998 9.17495C10.4396 9.17495 9.1748 10.4397 9.1748 12C9.1748 13.5602 10.4396 14.825 11.9998 14.825C13.56 14.825 14.8248 13.5602 14.8248 12C14.8248 10.4397 13.56 9.17495 11.9998 9.17495ZM7.8248 12C7.8248 9.69416 9.69401 7.82495 11.9998 7.82495C14.3056 7.82495 16.1748 9.69416 16.1748 12C16.1748 14.3057 14.3056 16.175 11.9998 16.175C9.69401 16.175 7.8248 14.3057 7.8248 12Z" fill="white"/>
</svg>
