<svg width="16" height="16" viewBox="0 0 16 16" fill="none" xmlns="http://www.w3.org/2000/svg">
<path d="M8.00012 9.74951C8.96662 9.74951 9.75012 8.96601 9.75012 7.99951C9.75012 7.03301 8.96662 6.24951 8.00012 6.24951C7.03362 6.24951 6.25012 7.03301 6.25012 7.99951C6.25012 8.96601 7.03362 9.74951 8.00012 9.74951Z" fill="white"/>
<path fill-rule="evenodd" clip-rule="evenodd" d="M1.12829 8.47378C0.957236 8.18319 0.957236 7.81584 1.12829 7.52524C2.5324 5.13989 5.08457 3.54492 8.00007 3.54492C10.9156 3.54492 13.4677 5.13989 14.8719 7.52524C15.0429 7.81584 15.0429 8.18319 14.8719 8.47378C13.4677 10.8591 10.9156 12.4541 8.00007 12.4541C5.08457 12.4541 2.5324 10.8591 1.12829 8.47378ZM11.0001 7.99952C11.0001 9.65639 9.65691 10.9995 8.00003 10.9995C6.34316 10.9995 5 9.65639 5 7.99952C5 6.34264 6.34316 4.99948 8.00003 4.99948C9.65691 4.99948 11.0001 6.34264 11.0001 7.99952Z" fill="white"/>
</svg>
