<svg width="24" height="24" viewBox="0 0 24 24" fill="none" xmlns="http://www.w3.org/2000/svg">
<g opacity="0.4">
<path fill-rule="evenodd" clip-rule="evenodd" d="M8.25661 4C8.96981 4 9.62904 4.37979 9.98679 4.99677L11.3381 7.32721L11.3392 7.32923C11.8158 8.1615 12.7015 8.67505 13.6606 8.67505H20.5C21.3284 8.67505 22 9.34662 22 10.175V18.5C22 19.3284 21.3284 20 20.5 20L3.5 20C2.67157 20 2 19.3284 2 18.5V5.5C2 4.67157 2.67157 4 3.5 4H8.25661Z" fill="white"/>
<path d="M22 6.5V7.32504H13.6606C13.1852 7.32504 12.7461 7.07026 12.5102 6.65742L11.5534 5.00733L20.4996 5C21.328 5 22 5.67157 22 6.5Z" fill="white"/>
</g>
</svg>
