<svg width="16" height="16" viewBox="0 0 16 16" fill="none" xmlns="http://www.w3.org/2000/svg">
<g opacity="0.4">
<path fill-rule="evenodd" clip-rule="evenodd" d="M4.96447 3C5.4949 3 6.00361 3.21071 6.37868 3.58579L7.70711 4.91421C8.08218 5.28929 8.59089 5.5 9.12132 5.5H13.1C13.5971 5.5 14 5.90294 14 6.4L14 12.1C14 12.5971 13.5971 13 13.1 13H2.9C2.40294 13 2 12.5971 2 12.1V3.9C2 3.40294 2.40294 3 2.9 3H4.96447Z" fill="white"/>
<path d="M14 4.4V4.5H9.12132C8.8561 4.5 8.60175 4.39464 8.41421 4.20711L7.70711 3.5H13.1C13.5971 3.5 14 3.90294 14 4.4Z" fill="white"/>
</g>
</svg>
