<svg width="16" height="16" viewBox="0 0 16 16" fill="none" xmlns="http://www.w3.org/2000/svg">
<path fill-rule="evenodd" clip-rule="evenodd" d="M1.77777 6.27157C2.13583 4.36566 3.84414 3 5.81492 3H10.1842C12.155 3 13.8633 4.36566 14.2213 6.27157L14.9556 10.1799C15.1946 11.4521 14.4374 12.4296 13.4803 12.8133C12.5251 13.1962 11.2937 13.0218 10.5428 11.9721L9.33093 10.2781H6.66818L5.45635 11.9721C4.70546 13.0218 3.474 13.1962 2.51884 12.8133C1.56167 12.4296 0.804503 11.4521 1.04352 10.1799L1.77777 6.27157ZM5.81492 4C4.3023 4 3.02565 5.04528 2.76058 6.45621L2.02632 10.3645C1.89077 11.0861 2.29505 11.6462 2.89093 11.8851C3.48883 12.1248 4.20204 12.0068 4.64303 11.3903L6.00443 9.48716C6.0983 9.35592 6.24974 9.27806 6.41109 9.27806H9.58802C9.74937 9.27806 9.9008 9.35592 9.99468 9.48716L11.3561 11.3903C11.7971 12.0068 12.5103 12.1248 13.1082 11.8851C13.7041 11.6462 14.1083 11.0861 13.9728 10.3645L13.2385 6.45621C12.9735 5.04528 11.6968 4 10.1842 4H5.81492ZM5.49955 4.99998C5.7757 4.99998 5.99955 5.22384 5.99955 5.49998V5.99998H6.49955C6.7757 5.99998 6.99955 6.22384 6.99955 6.49998C6.99955 6.77612 6.7757 6.99998 6.49955 6.99998H5.99955V7.49998C5.99955 7.77612 5.7757 7.99998 5.49955 7.99998C5.22341 7.99998 4.99955 7.77612 4.99955 7.49998V6.99998H4.49955C4.22341 6.99998 3.99955 6.77612 3.99955 6.49998C3.99955 6.22384 4.22341 5.99998 4.49955 5.99998H4.99955V5.49998C4.99955 5.22384 5.22341 4.99998 5.49955 4.99998Z" fill="white"/>
<path d="M10.4996 5.99998C10.2234 5.99998 9.99955 5.7761 9.99955 5.49998C9.99955 5.22386 10.2234 4.99998 10.4996 4.99998C10.7757 4.99998 10.9996 5.22386 10.9996 5.49998C10.9996 5.7761 10.7757 5.99998 10.4996 5.99998Z" fill="white"/>
<path d="M9.49955 6.99998C9.77568 6.99998 9.99955 6.7761 9.99955 6.49998C9.99955 6.22386 9.77568 5.99998 9.49955 5.99998C9.22343 5.99998 8.99955 6.22386 8.99955 6.49998C8.99955 6.7761 9.22343 6.99998 9.49955 6.99998Z" fill="white"/>
<path d="M11.4996 6.99998C11.7757 6.99998 11.9996 6.7761 11.9996 6.49998C11.9996 6.22386 11.7757 5.99998 11.4996 5.99998C11.2234 5.99998 10.9996 6.22386 10.9996 6.49998C10.9996 6.7761 11.2234 6.99998 11.4996 6.99998Z" fill="white"/>
<path d="M9.99955 7.49998C9.99955 7.7761 10.2234 7.99998 10.4996 7.99998C10.7757 7.99998 10.9996 7.7761 10.9996 7.49998C10.9996 7.22386 10.7757 6.99998 10.4996 6.99998C10.2234 6.99998 9.99955 7.22386 9.99955 7.49998Z" fill="white"/>
</svg>
