<svg width="16" height="16" viewBox="0 0 16 16" fill="none" xmlns="http://www.w3.org/2000/svg">
<path fill-rule="evenodd" clip-rule="evenodd" d="M6.28935 9.97562L4.82322 12.0902C3.53966 13.9415 0.634705 12.74 1.03809 10.5247L1.82882 6.1821C2.16435 4.33941 3.77164 3 5.64732 3H10.3527C12.2284 3 13.8356 4.33941 14.1712 6.1821L14.9619 10.5247C15.3653 12.74 12.4603 13.9415 11.1768 12.0902L9.71065 9.97562H6.28935ZM6 5.5C6 5.22386 5.77614 5 5.5 5C5.22386 5 5 5.22386 5 5.5V6H4.5C4.22386 6 4 6.22386 4 6.5C4 6.77614 4.22386 7 4.5 7H5V7.5C5 7.77614 5.22386 8 5.5 8C5.77614 8 6 7.77614 6 7.5V7H6.5C6.77614 7 7 6.77614 7 6.5C7 6.22386 6.77614 6 6.5 6H6V5.5ZM10 5.5C10 5.77612 10.2239 6 10.5 6C10.7761 6 11 5.77612 11 5.5C11 5.22388 10.7761 5 10.5 5C10.2239 5 10 5.22388 10 5.5ZM9.5 7C9.77612 7 10 6.77612 10 6.5C10 6.22388 9.77612 6 9.5 6C9.22388 6 9 6.22388 9 6.5C9 6.77612 9.22388 7 9.5 7ZM11.5 7C11.7761 7 12 6.77612 12 6.5C12 6.22388 11.7761 6 11.5 6C11.2239 6 11 6.22388 11 6.5C11 6.77612 11.2239 7 11.5 7ZM10 7.5C10 7.77612 10.2239 8 10.5 8C10.7761 8 11 7.77612 11 7.5C11 7.22388 10.7761 7 10.5 7C10.2239 7 10 7.22388 10 7.5Z" fill="white"/>
</svg>
