<svg width="24" height="24" viewBox="0 0 24 24" fill="none" xmlns="http://www.w3.org/2000/svg">
<path fill-rule="evenodd" clip-rule="evenodd" d="M9.31594 14.7659L7.28808 17.7263C5.51273 20.3181 1.49474 18.636 2.05268 15.5346L3.14638 9.45494C3.61047 6.87518 5.83358 5 8.42793 5H15.5721C18.1664 5 20.3896 6.87518 20.8536 9.45494L21.9473 15.5346C22.5053 18.636 18.4873 20.3181 16.7119 17.7263L14.6841 14.7659H9.31594ZM14.75 8.5C14.75 8.91418 15.0858 9.25 15.5 9.25C15.9141 9.25 16.25 8.91418 16.25 8.5C16.25 8.08582 15.9141 7.75 15.5 7.75C15.0858 7.75 14.75 8.08582 14.75 8.5ZM14.75 10C14.75 10.4142 14.4141 10.75 14 10.75C13.5858 10.75 13.25 10.4142 13.25 10C13.25 9.58582 13.5858 9.25 14 9.25C14.4141 9.25 14.75 9.58582 14.75 10ZM17.75 10C17.75 10.4142 17.4141 10.75 17 10.75C16.5858 10.75 16.25 10.4142 16.25 10C16.25 9.58582 16.5858 9.25 17 9.25C17.4141 9.25 17.75 9.58582 17.75 10ZM15.5 12.25C15.0858 12.25 14.75 11.9142 14.75 11.5C14.75 11.0858 15.0858 10.75 15.5 10.75C15.9141 10.75 16.25 11.0858 16.25 11.5C16.25 11.9142 15.9141 12.25 15.5 12.25ZM8.49995 7.825C8.87274 7.825 9.17495 8.12721 9.17495 8.5V9.325H9.99995C10.3727 9.325 10.675 9.62721 10.675 10C10.675 10.3728 10.3727 10.675 9.99995 10.675H9.17495V11.5C9.17495 11.8728 8.87274 12.175 8.49995 12.175C8.12716 12.175 7.82495 11.8728 7.82495 11.5V10.675H6.99995C6.62716 10.675 6.32495 10.3728 6.32495 10C6.32495 9.62721 6.62716 9.325 6.99995 9.325H7.82495V8.5C7.82495 8.12721 8.12716 7.825 8.49995 7.825Z" fill="white"/>
</svg>
