<svg width="24" height="24" viewBox="0 0 24 24" fill="none" xmlns="http://www.w3.org/2000/svg">
<path fill-rule="evenodd" clip-rule="evenodd" d="M3.0898 9.48502C3.58042 6.78661 5.93061 4.8252 8.67326 4.8252H15.3275C18.0701 4.8252 20.4203 6.78661 20.911 9.48502L21.9297 15.0878C22.5793 18.6606 17.9012 20.5984 15.8342 17.6127L14.1467 15.1752H9.85405L8.16656 17.6127C6.09955 20.5984 1.42151 18.6606 2.0711 15.0878L3.0898 9.48502ZM8.67326 6.1752C6.58305 6.1752 4.79193 7.67002 4.41802 9.72652L3.39933 15.3293C3.00957 17.473 5.8164 18.6356 7.0566 16.8442L8.9454 14.116C9.07148 13.9339 9.27888 13.8252 9.50038 13.8252H14.5004C14.7219 13.8252 14.9293 13.9339 15.0554 14.116L16.9442 16.8442C18.1844 18.6356 20.9912 17.473 20.6014 15.3293L19.5827 9.72652C19.2088 7.67002 17.4177 6.1752 15.3275 6.1752H8.67326ZM8.50035 7.8252C8.87315 7.8252 9.17535 8.1274 9.17535 8.5002V9.3252H10.0004C10.3731 9.3252 10.6754 9.6274 10.6754 10.0002C10.6754 10.373 10.3731 10.6752 10.0004 10.6752H9.17535V11.5002C9.17535 11.873 8.87315 12.1752 8.50035 12.1752C8.12756 12.1752 7.82535 11.873 7.82535 11.5002V10.6752H7.00035C6.62756 10.6752 6.32535 10.373 6.32535 10.0002C6.32535 9.6274 6.62756 9.3252 7.00035 9.3252H7.82535V8.5002C7.82535 8.1274 8.12756 7.8252 8.50035 7.8252Z" fill="white"/>
<path d="M15.5004 9.2502C15.0862 9.2502 14.7504 8.91438 14.7504 8.5002C14.7504 8.08601 15.0862 7.7502 15.5004 7.7502C15.9145 7.7502 16.2504 8.08601 16.2504 8.5002C16.2504 8.91438 15.9145 9.2502 15.5004 9.2502Z" fill="white"/>
<path d="M14.0004 10.7502C14.4145 10.7502 14.7504 10.4144 14.7504 10.0002C14.7504 9.58601 14.4145 9.2502 14.0004 9.2502C13.5862 9.2502 13.2504 9.58601 13.2504 10.0002C13.2504 10.4144 13.5862 10.7502 14.0004 10.7502Z" fill="white"/>
<path d="M17.0004 10.7502C17.4145 10.7502 17.7504 10.4144 17.7504 10.0002C17.7504 9.58601 17.4145 9.2502 17.0004 9.2502C16.5862 9.2502 16.2504 9.58601 16.2504 10.0002C16.2504 10.4144 16.5862 10.7502 17.0004 10.7502Z" fill="white"/>
<path d="M14.7504 11.5002C14.7504 11.9144 15.0862 12.2502 15.5004 12.2502C15.9145 12.2502 16.2504 11.9144 16.2504 11.5002C16.2504 11.086 15.9145 10.7502 15.5004 10.7502C15.0862 10.7502 14.7504 11.086 14.7504 11.5002Z" fill="white"/>
</svg>
