<svg width="24" height="24" viewBox="0 0 24 24" fill="none" xmlns="http://www.w3.org/2000/svg">
<path fill-rule="evenodd" clip-rule="evenodd" d="M9.72592 4.47929C9.82516 3.63574 10.5401 3 11.3894 3H12.6109C13.4603 3 14.1752 3.63574 14.2745 4.47929L14.3834 5.40549C14.6292 5.49203 14.8689 5.59155 15.1015 5.70322L15.8337 5.12516C16.5004 4.59885 17.4554 4.65484 18.056 5.25544L18.9198 6.11917C19.5204 6.71976 19.5764 7.67482 19.05 8.34148L18.472 9.07369C18.5837 9.30633 18.6832 9.54597 18.7697 9.79176L19.6959 9.90072C20.5395 9.99996 21.1752 10.7149 21.1752 11.5642V12.7858C21.1752 13.6351 20.5395 14.35 19.6959 14.4493L18.7697 14.5582C18.6832 14.8041 18.5836 15.0437 18.4719 15.2764L19.0499 16.0085C19.5762 16.6752 19.5202 17.6302 18.9196 18.2308L18.0559 19.0946C17.4553 19.6952 16.5003 19.7512 15.8336 19.2248L15.1014 18.6468C14.8688 18.7585 14.6292 18.858 14.3834 18.9445L14.2745 19.8707C14.1752 20.7143 13.4603 21.35 12.6109 21.35H11.3894C10.5401 21.35 9.82516 20.7143 9.72592 19.8707L9.61695 18.9445C9.37116 18.858 9.13153 18.7585 8.89888 18.6468L8.16667 19.2249C7.50001 19.7512 6.54496 19.6952 5.94436 19.0946L5.08063 18.2308C4.48003 17.6302 4.42405 16.6752 4.95036 16.0085L5.52841 15.2763C5.41674 15.0437 5.31722 14.804 5.23069 14.5582L4.30449 14.4493C3.46093 14.35 2.8252 13.6351 2.8252 12.7857V11.5642C2.8252 10.7149 3.46093 9.99996 4.30449 9.90072L5.23069 9.79176C5.31721 9.546 5.41671 9.3064 5.52836 9.07378L4.95022 8.34147C4.42392 7.67482 4.4799 6.71976 5.0805 6.11916L5.94423 5.25543C6.54482 4.65484 7.49988 4.59885 8.16654 5.12516L8.89879 5.70325C9.13147 5.59157 9.37113 5.49204 9.61695 5.40549L9.72592 4.47929ZM11.3894 4.35C11.2246 4.35 11.0859 4.47335 11.0667 4.63703L10.9068 5.99602C10.8749 6.2675 10.6823 6.49292 10.4192 6.56694C9.97335 6.69234 9.54908 6.86956 9.1532 7.09181C8.91477 7.22568 8.61912 7.20246 8.4045 7.03303L7.33002 6.18475C7.20067 6.08263 7.01536 6.09349 6.89882 6.21003L6.03509 7.07376C5.91856 7.19029 5.90769 7.3756 6.00981 7.50495L6.85812 8.57948C7.02756 8.79409 7.05078 9.08973 6.91692 9.32816C6.69471 9.72399 6.51752 10.1482 6.39213 10.594C6.31811 10.8571 6.0927 11.0497 5.82122 11.0816L4.46222 11.2415C4.29855 11.2607 4.1752 11.3994 4.1752 11.5642V12.7857C4.1752 12.9506 4.29855 13.0893 4.46222 13.1085L5.82121 13.2684C6.0927 13.3003 6.31811 13.4929 6.39213 13.756C6.51753 14.2018 6.69474 14.6261 6.91697 15.0219C7.05083 15.2604 7.02762 15.556 6.85818 15.7706L6.00995 16.8451C5.90783 16.9744 5.91869 17.1597 6.03522 17.2763L6.89896 18.14C7.01549 18.2565 7.2008 18.2674 7.33015 18.1653L8.40458 17.317C8.6192 17.1476 8.91484 17.1244 9.15328 17.2582C9.54913 17.4805 9.97338 17.6577 10.4192 17.7831C10.6823 17.8571 10.8749 18.0825 10.9068 18.354L11.0667 19.713C11.0859 19.8766 11.2246 20 11.3894 20H12.6109C12.7757 20 12.9145 19.8766 12.9337 19.713L13.0936 18.354C13.1255 18.0825 13.3181 17.8571 13.5812 17.7831C14.027 17.6577 14.4512 17.4805 14.847 17.2583C15.0855 17.1244 15.3811 17.1476 15.5957 17.3171L16.6701 18.1653C16.7995 18.2674 16.9848 18.2565 17.1013 18.14L17.965 17.2762C18.0816 17.1597 18.0924 16.9744 17.9903 16.8451L17.1422 15.7707C16.9727 15.5561 16.9495 15.2604 17.0834 15.022C17.3056 14.6261 17.4829 14.2018 17.6083 13.756C17.6823 13.4929 17.9077 13.3003 18.1792 13.2684L19.5382 13.1085C19.7018 13.0893 19.8252 12.9506 19.8252 12.7858V11.5642C19.8252 11.3994 19.7018 11.2607 19.5382 11.2415L18.1792 11.0816C17.9077 11.0497 17.6823 10.8571 17.6083 10.594C17.4829 10.1482 17.3057 9.72393 17.0834 9.32808C16.9496 9.08965 16.9728 8.79401 17.1422 8.57939L17.9905 7.50496C18.0926 7.3756 18.0817 7.19029 17.9652 7.07376L17.1014 6.21003C16.9849 6.0935 16.7996 6.08263 16.6702 6.18475L15.5958 7.03299C15.3812 7.20242 15.0856 7.22564 14.8471 7.09178C14.4513 6.86954 14.027 6.69233 13.5812 6.56694C13.3181 6.49292 13.1255 6.2675 13.0936 5.99602L12.9337 4.63703C12.9145 4.47335 12.7757 4.35 12.6109 4.35H11.3894ZM12.0002 9.35C10.44 9.35 9.1752 10.6148 9.1752 12.175C9.1752 13.7352 10.44 15 12.0002 15C13.5604 15 14.8252 13.7352 14.8252 12.175C14.8252 10.6148 13.5604 9.35 12.0002 9.35ZM7.8252 12.175C7.8252 9.86921 9.69441 8 12.0002 8C14.306 8 16.1752 9.86921 16.1752 12.175C16.1752 14.4808 14.306 16.35 12.0002 16.35C9.69441 16.35 7.8252 14.4808 7.8252 12.175Z" fill="white"/>
</svg>
