<svg width="24" height="24" viewBox="0 0 24 24" fill="none" xmlns="http://www.w3.org/2000/svg">
<path fill-rule="evenodd" clip-rule="evenodd" d="M11.3533 3H12.6467C13.1836 3 13.6355 3.40187 13.6982 3.93511L13.8675 5.37404C14.3948 5.52236 14.8964 5.73191 15.3643 5.99455L16.5019 5.09642C16.9233 4.76373 17.527 4.79912 17.9067 5.17878L18.8212 6.09331C19.2009 6.47297 19.2363 7.0767 18.9036 7.49811L18.0055 8.63574C18.2681 9.10357 18.4776 9.60519 18.626 10.1325L20.0649 10.3018C20.5981 10.3645 21 10.8164 21 11.3533V12.6467C21 13.1836 20.5981 13.6355 20.0649 13.6982L18.626 13.8675C18.4776 14.3948 18.2681 14.8965 18.0054 15.3644L18.9034 16.5019C19.2361 16.9233 19.2008 17.527 18.8211 17.9067L17.9066 18.8212C17.5269 19.2009 16.9232 19.2363 16.5018 18.9036L15.3642 18.0055C14.8964 18.2681 14.3948 18.4777 13.8675 18.626L13.6982 20.0649C13.6355 20.5981 13.1836 21 12.6467 21H11.3533C10.8164 21 10.3645 20.5981 10.3018 20.0649L10.1325 18.626C9.60519 18.4776 9.10357 18.2681 8.63575 18.0055L7.49811 18.9036C7.07669 19.2363 6.47297 19.2009 6.09331 18.8212L5.17877 17.9067C4.79912 17.527 4.76373 16.9233 5.09642 16.5019L5.99455 15.3643C5.73191 14.8964 5.52236 14.3948 5.37404 13.8675L3.93511 13.6982C3.40187 13.6355 3 13.1836 3 12.6467V11.3533C3 10.8164 3.40187 10.3645 3.93511 10.3018L5.37404 10.1325C5.52235 9.60523 5.73188 9.10363 5.99449 8.63584L5.09628 7.49811C4.76359 7.07669 4.79898 6.47297 5.17863 6.09331L6.09317 5.17877C6.47283 4.79912 7.07655 4.76373 7.49797 5.09642L8.63566 5.9946C9.1035 5.73194 9.60516 5.52236 10.1325 5.37404L10.3018 3.93511C10.3645 3.40187 10.8164 3 11.3533 3ZM12 15.5C13.933 15.5 15.5 13.933 15.5 12C15.5 10.067 13.933 8.5 12 8.5C10.067 8.5 8.5 10.067 8.5 12C8.5 13.933 10.067 15.5 12 15.5Z" fill="white"/>
</svg>
