<svg width="16" height="16" viewBox="0 0 16 16" fill="none" xmlns="http://www.w3.org/2000/svg">
<path fill-rule="evenodd" clip-rule="evenodd" d="M6.46561 3.01304C6.53357 2.43536 7.02315 2 7.60481 2H8.39519C8.97685 2 9.46643 2.43536 9.53439 3.01304L9.60031 3.57336C9.73603 3.62244 9.86883 3.67756 9.99839 3.73841L10.4413 3.38871C10.8979 3.02829 11.5519 3.06663 11.9632 3.47792L12.5221 4.03681C12.9334 4.4481 12.9717 5.10213 12.6113 5.55867L12.2616 6.00163C12.3224 6.13118 12.3776 6.26397 12.4266 6.39969L12.987 6.46561C13.5646 6.53357 14 7.02315 14 7.60481V8.39519C14 8.97685 13.5646 9.46643 12.987 9.53439L12.4266 9.60031C12.3776 9.73605 12.3224 9.86887 12.2616 9.99845L12.6112 10.4413C12.9716 10.8979 12.9333 11.5519 12.522 11.9632L11.9631 12.5221C11.5518 12.9334 10.8978 12.9717 10.4413 12.6113L9.99833 12.2616C9.86879 12.3225 9.73601 12.3776 9.60031 12.4266L9.53439 12.987C9.46643 13.5646 8.97685 14 8.39519 14H7.60481C7.02315 14 6.53357 13.5646 6.46561 12.987L6.39969 12.4266C6.26397 12.3776 6.13118 12.3224 6.00163 12.2616L5.55867 12.6113C5.10213 12.9717 4.4481 12.9334 4.03681 12.5221L3.47792 11.9632C3.06663 11.5519 3.02829 10.8979 3.38871 10.4413L3.73841 9.99839C3.67756 9.86883 3.62244 9.73603 3.57336 9.60031L3.01304 9.53439C2.43536 9.46643 2 8.97685 2 8.39519V7.60481C2 7.02315 2.43536 6.53357 3.01304 6.46561L3.57336 6.39968C3.62243 6.26399 3.67754 6.13122 3.73837 6.00169L3.38862 5.55867C3.0282 5.10213 3.06654 4.4481 3.47783 4.0368L4.03672 3.47792C4.44801 3.06662 5.10205 3.02828 5.55858 3.38871L6.00157 3.73843C6.13114 3.67758 6.26395 3.62244 6.39969 3.57336L6.46561 3.01304ZM7.60481 3C7.53024 3 7.46747 3.05582 7.45876 3.12988L7.31621 4.34153L6.99412 4.43213C6.71053 4.51189 6.44063 4.62463 6.18879 4.76602L5.89691 4.92988L4.93894 4.17359C4.88041 4.12738 4.79656 4.1323 4.74383 4.18503L4.18494 4.74391C4.13221 4.79664 4.1273 4.88049 4.1735 4.93902L4.92981 5.89701L4.76596 6.18888C4.6246 6.4407 4.51188 6.71056 4.43213 6.99411L4.34153 7.31621L3.12988 7.45876C3.05582 7.46747 3 7.53024 3 7.60481V8.39519C3 8.46976 3.05582 8.53253 3.12988 8.54124L4.34153 8.68379L4.43213 9.00588C4.51189 9.28946 4.62462 9.55934 4.766 9.81117L4.92986 10.103L4.17359 11.061C4.12738 11.1195 4.1323 11.2034 4.18503 11.2561L4.74391 11.815C4.79664 11.8677 4.88049 11.8726 4.93902 11.8264L5.89696 11.0702L6.18883 11.234C6.44067 11.3754 6.71054 11.4881 6.99411 11.5679L7.31621 11.6585L7.45876 12.8701C7.46747 12.9442 7.53024 13 7.60481 13H8.39519C8.46976 13 8.53253 12.9442 8.54124 12.8701L8.68379 11.6585L9.00589 11.5679C9.28944 11.4881 9.55931 11.3754 9.81113 11.234L10.103 11.0702L11.0609 11.8264C11.1194 11.8726 11.2033 11.8677 11.256 11.815L11.8149 11.2561C11.8676 11.2034 11.8725 11.1195 11.8263 11.061L11.0701 10.1031L11.234 9.81123C11.3754 9.55938 11.4881 9.28948 11.5679 9.00588L11.6585 8.68379L12.8701 8.54124C12.9442 8.53253 13 8.46976 13 8.39519V7.60481C13 7.53024 12.9442 7.46747 12.8701 7.45876L11.6585 7.31621L11.5679 6.99411C11.4881 6.71054 11.3754 6.44067 11.234 6.18883L11.0702 5.89696L11.8264 4.93902C11.8726 4.88049 11.8677 4.79664 11.815 4.74391L11.2561 4.18503C11.2034 4.1323 11.1195 4.12738 11.061 4.17359L10.103 4.92986L9.81117 4.766C9.55934 4.62462 9.28946 4.51189 9.00588 4.43213L8.68379 4.34153L8.54124 3.12988C8.53253 3.05582 8.46976 3 8.39519 3H7.60481ZM8 6.5C7.17157 6.5 6.5 7.17157 6.5 8C6.5 8.82843 7.17157 9.5 8 9.5C8.82843 9.5 9.5 8.82843 9.5 8C9.5 7.17157 8.82843 6.5 8 6.5ZM5.5 8C5.5 6.61929 6.61929 5.5 8 5.5C9.38071 5.5 10.5 6.61929 10.5 8C10.5 9.38071 9.38071 10.5 8 10.5C6.61929 10.5 5.5 9.38071 5.5 8Z" fill="white"/>
</svg>
