<svg width="16" height="16" viewBox="0 0 16 16" fill="none" xmlns="http://www.w3.org/2000/svg">
<path fill-rule="evenodd" clip-rule="evenodd" d="M7.56888 2H8.43112C8.78906 2 9.09034 2.26791 9.13217 2.62341L9.24502 3.5827C9.59654 3.68157 9.93096 3.82128 10.2428 3.99637L11.0013 3.39762C11.2822 3.17582 11.6847 3.19941 11.9378 3.45252L12.5475 4.06221C12.8006 4.31531 12.8242 4.7178 12.6024 4.99874L12.0036 5.75716C12.1787 6.06904 12.3184 6.40346 12.4173 6.75498L13.3766 6.86784C13.7321 6.90966 14 7.21094 14 7.56888V8.43112C14 8.78906 13.7321 9.09034 13.3766 9.13217L12.4173 9.24502C12.3184 9.59657 12.1787 9.93101 12.0036 10.2429L12.6023 11.0013C12.8241 11.2822 12.8005 11.6847 12.5474 11.9378L11.9377 12.5475C11.6846 12.8006 11.2821 12.8242 11.0012 12.6024L10.2428 12.0037C9.93092 12.1787 9.59652 12.3184 9.24502 12.4173L9.13217 13.3766C9.09034 13.7321 8.78906 14 8.43112 14H7.56888C7.21094 14 6.90966 13.7321 6.86784 13.3766L6.75498 12.4173C6.40346 12.3184 6.06904 12.1787 5.75716 12.0036L4.99874 12.6024C4.7178 12.8242 4.31531 12.8006 4.06221 12.5475L3.45252 11.9378C3.19941 11.6847 3.17582 11.2822 3.39762 11.0013L3.99637 10.2428C3.82128 9.93096 3.68157 9.59654 3.5827 9.24502L2.62341 9.13217C2.26791 9.09034 2 8.78906 2 8.43112V7.56888C2 7.21094 2.26791 6.90966 2.62341 6.86783L3.5827 6.75498C3.68156 6.40349 3.82125 6.06909 3.99633 5.75723L3.39752 4.99874C3.17572 4.71779 3.19932 4.31531 3.45242 4.06221L4.06212 3.45252C4.31522 3.19941 4.7177 3.17582 4.99865 3.39761L5.7571 3.9964C6.069 3.82129 6.40344 3.68158 6.75498 3.5827L6.86784 2.62341C6.90966 2.26791 7.21094 2 7.56888 2ZM8 10C9.10457 10 10 9.10457 10 8C10 6.89543 9.10457 6 8 6C6.89543 6 6 6.89543 6 8C6 9.10457 6.89543 10 8 10Z" fill="white"/>
</svg>
