<svg width="24" height="24" viewBox="0 0 24 24" fill="none" xmlns="http://www.w3.org/2000/svg">
<path fill-rule="evenodd" clip-rule="evenodd" d="M5.50001 3.17495C5.32052 3.17495 5.17501 3.32046 5.17501 3.49995L5.17501 20.5C5.17501 20.6794 5.32052 20.825 5.50001 20.825H18.5C18.6795 20.825 18.825 20.6794 18.825 20.5L18.825 11.5C18.825 11.1272 19.1272 10.825 19.5 10.825C19.8728 10.825 20.175 11.1272 20.175 11.5V20.5C20.175 21.425 19.4251 22.1749 18.5 22.1749H5.50001C4.57494 22.1749 3.82501 21.425 3.82501 20.5L3.82501 3.49995C3.82501 2.57487 4.57494 1.82495 5.50001 1.82495H10.5C10.8728 1.82495 11.175 2.12716 11.175 2.49995C11.175 2.87274 10.8728 3.17495 10.5 3.17495H5.50001ZM12.325 2.49995C12.325 2.12716 12.6272 1.82495 13 1.82495H15.5C15.8728 1.82495 16.175 2.12716 16.175 2.49995V3.82495H17.5C17.8728 3.82495 18.175 4.12716 18.175 4.49995V5.82495H19.5C19.8728 5.82495 20.175 6.12716 20.175 6.49995V8.99995C20.175 9.37274 19.8728 9.67495 19.5 9.67495H13C12.6272 9.67495 12.325 9.37274 12.325 8.99995V2.49995ZM13.675 3.17495V8.32495H18.825V7.17495H17.5C17.1272 7.17495 16.825 6.87274 16.825 6.49995V5.17495H15.5C15.1272 5.17495 14.825 4.87274 14.825 4.49995V3.17495H13.675Z" fill="white"/>
</svg>
