<svg width="16" height="16" viewBox="0 0 16 16" fill="none" xmlns="http://www.w3.org/2000/svg">
<path d="M6 2.5H3.50002L3.5 13.5H12.5V9C12.5 8.72386 12.7239 8.5 13 8.5C13.2761 8.5 13.5 8.72386 13.5 9V13.6C13.5 14.0971 13.0971 14.5 12.6 14.5H3.4C2.90294 14.5 2.5 14.0971 2.5 13.6L2.50002 2.4C2.50003 1.90294 2.90297 1.5 3.40003 1.5H6C6.27614 1.5 6.5 1.72386 6.5 2C6.5 2.27614 6.27614 2.5 6 2.5Z" fill="white"/>
<path fill-rule="evenodd" clip-rule="evenodd" d="M10 1.5L8 1.5C7.72386 1.5 7.5 1.72386 7.5 2V7C7.5 7.27614 7.72386 7.5 8 7.5H13C13.2761 7.5 13.5 7.27614 13.5 7V5C13.5 4.72386 13.2761 4.5 13 4.5H12V3.5C12 3.22386 11.7761 3 11.5 3H10.5V2C10.5 1.86739 10.4473 1.74021 10.3536 1.64645C10.2598 1.55268 10.1326 1.5 10 1.5ZM8.5 6.5V2.5L9.5 2.5V3.5C9.5 3.77614 9.72386 4 10 4H11V5C11 5.27614 11.2239 5.5 11.5 5.5H12.5V6.5H8.5Z" fill="white"/>
</svg>
