<svg width="24" height="24" viewBox="0 0 24 24" fill="none" xmlns="http://www.w3.org/2000/svg">
<path fill-rule="evenodd" clip-rule="evenodd" d="M5.09002 8.3252H8.15591C8.42569 6.90149 8.8526 5.6489 9.4052 4.70414C9.42708 4.66673 9.4493 4.62958 9.47187 4.59271C7.58197 5.2376 6.01721 6.58544 5.09002 8.3252ZM12.0003 2.8252C8.07194 2.8252 4.72182 5.29373 3.41331 8.76192C2.63176 10.8334 2.63176 13.167 3.41331 15.2385C4.72182 18.7067 8.07194 21.1752 12.0003 21.1752C15.9287 21.1752 19.2788 18.7067 20.5873 15.2385C21.3688 13.167 21.3688 10.8334 20.5873 8.76192C19.2788 5.29373 15.9287 2.8252 12.0003 2.8252ZM12.0003 4.1752C11.6203 4.1752 11.1026 4.47609 10.5705 5.38573C10.1458 6.11188 9.78183 7.11841 9.5321 8.3252H14.4685C14.2188 7.11841 13.8548 6.11188 13.4301 5.38573C12.898 4.47609 12.3803 4.1752 12.0003 4.1752ZM15.8447 8.3252C15.5749 6.90149 15.148 5.6489 14.5954 4.70414C14.5735 4.66673 14.5513 4.62957 14.5287 4.5927C16.4186 5.23759 17.9834 6.58544 18.9106 8.3252H15.8447ZM14.6888 9.6752H9.31185C9.12157 11.2138 9.12157 12.7866 9.31185 14.3252H14.6888C14.879 12.7866 14.879 11.2138 14.6888 9.6752ZM16.0483 14.3252C16.2258 12.7848 16.2258 11.2156 16.0483 9.6752H19.474C19.9399 11.1802 19.9399 12.8202 19.474 14.3252H16.0483ZM14.4685 15.6752H9.5321C9.78183 16.882 10.1458 17.8885 10.5705 18.6147C11.1026 19.5243 11.6203 19.8252 12.0003 19.8252C12.3803 19.8252 12.898 19.5243 13.4301 18.6147C13.8548 17.8885 14.2188 16.882 14.4685 15.6752ZM14.5287 19.4077C14.5513 19.3708 14.5735 19.3337 14.5954 19.2963C15.148 18.3515 15.5749 17.0989 15.8447 15.6752H18.9106C17.9834 17.415 16.4186 18.7628 14.5287 19.4077ZM9.47187 19.4077C9.44931 19.3708 9.42708 19.3337 9.4052 19.2963C8.8526 18.3515 8.42569 17.0989 8.15591 15.6752H5.09002C6.01721 17.415 7.58197 18.7628 9.47187 19.4077ZM4.5266 14.3252H7.95226C7.77476 12.7848 7.77476 11.2156 7.95226 9.6752H4.5266C4.06066 11.1802 4.06066 12.8202 4.5266 14.3252Z" fill="white"/>
</svg>
