<svg width="16" height="16" viewBox="0 0 16 16" fill="none" xmlns="http://www.w3.org/2000/svg">
<path d="M2.54404 5.5H5.18544C5.31714 4.64837 5.51491 3.876 5.76556 3.22432C5.89989 2.87505 6.05249 2.55238 6.22341 2.26738C4.5869 2.77398 3.2499 3.96206 2.54404 5.5Z" fill="white"/>
<path d="M2.18903 6.5C2.06563 6.97943 2 7.48205 2 8C2 8.51795 2.06563 9.02057 2.18903 9.5H5.06491C5.02231 9.01604 5 8.51393 5 8C5 7.48607 5.02231 6.98396 5.06491 6.5H2.18903Z" fill="white"/>
<path d="M2.54404 10.5C3.2499 12.0379 4.5869 13.226 6.22342 13.7326C6.05249 13.4476 5.89989 13.125 5.76556 12.7757C5.51491 12.124 5.31714 11.3516 5.18544 10.5H2.54404Z" fill="white"/>
<path d="M9.77658 13.7326C11.4131 13.226 12.7501 12.0379 13.456 10.5H10.8146C10.6829 11.3516 10.4851 12.124 10.2344 12.7757C10.1001 13.125 9.94751 13.4476 9.77658 13.7326Z" fill="white"/>
<path d="M13.811 9.5C13.9344 9.02057 14 8.51795 14 8C14 7.48205 13.9344 6.97943 13.811 6.5H10.9351C10.9777 6.98396 11 7.48607 11 8C11 8.51393 10.9777 9.01604 10.9351 9.5H13.811Z" fill="white"/>
<path d="M13.456 5.5C12.7501 3.96206 11.4131 2.77398 9.77659 2.26738C9.94751 2.55238 10.1001 2.87505 10.2344 3.22432C10.4851 3.876 10.6829 4.64837 10.8146 5.5H13.456Z" fill="white"/>
<path d="M8 14C7.84416 14 7.6396 13.9198 7.39681 13.6528C7.15389 13.3857 6.91218 12.9712 6.69891 12.4167C6.49104 11.8763 6.3194 11.2269 6.19824 10.5H9.80176C9.6806 11.2269 9.50896 11.8763 9.30109 12.4167C9.08782 12.9712 8.84611 13.3857 8.60319 13.6528C8.3604 13.9198 8.15584 14 8 14Z" fill="white"/>
<path d="M8 2C7.84416 2 7.6396 2.08019 7.39681 2.34719C7.15389 2.61433 6.91218 3.02877 6.69891 3.5833C6.49104 4.12374 6.3194 4.77306 6.19824 5.5H9.80176C9.6806 4.77306 9.50896 4.12374 9.30109 3.5833C9.08782 3.02877 8.84611 2.61433 8.60319 2.34719C8.3604 2.08019 8.15584 2 8 2Z" fill="white"/>
<path d="M6 8C6 7.48112 6.02407 6.9788 6.06902 6.5H9.93098C9.97593 6.9788 10 7.48112 10 8C10 8.51888 9.97593 9.0212 9.93098 9.5H6.06902C6.02407 9.0212 6 8.51888 6 8Z" fill="white"/>
</svg>
