<svg width="24" height="24" viewBox="0 0 24 24" fill="none" xmlns="http://www.w3.org/2000/svg">
<path d="M9.44385 8.325C9.61494 7.21087 9.86052 6.21546 10.1597 5.38836C10.461 4.55569 10.8037 3.92944 11.1505 3.52405C11.4993 3.1162 11.7888 3 11.9999 3C12.2109 3 12.5004 3.1162 12.8492 3.52405C13.196 3.92944 13.5388 4.55569 13.84 5.38836C14.1392 6.21546 14.3848 7.21087 14.5559 8.325H9.44385Z" fill="white"/>
<path d="M14.5559 15.675H9.44385C9.61494 16.7891 9.86052 17.7845 10.1597 18.6116C10.461 19.4443 10.8037 20.0706 11.1505 20.476C11.4993 20.8838 11.7888 21 11.9999 21C12.2109 21 12.5004 20.8838 12.8492 20.476C13.196 20.0706 13.5388 19.4443 13.84 18.6116C14.1392 17.7845 14.3848 16.7891 14.5559 15.675Z" fill="white"/>
<path d="M20.2179 8.325C19.1248 5.88421 16.9761 4.01921 14.3527 3.31062C14.6392 3.77826 14.8915 4.32619 15.1096 4.92911C15.4606 5.89939 15.7374 7.05226 15.9208 8.325H20.2179Z" fill="white"/>
<path d="M3.78206 8.325H8.07909C8.2625 7.05226 8.53933 5.89939 8.89033 4.92911C9.10844 4.3262 9.36072 3.77829 9.6472 3.31065C7.02379 4.01927 4.87521 5.88425 3.78206 8.325Z" fill="white"/>
<path d="M3.30319 9.675C3.10542 10.4167 3 11.196 3 12C3 12.804 3.10542 13.5833 3.30319 14.325H7.92407C7.85909 13.5767 7.82495 12.7982 7.82495 12C7.82495 11.2018 7.85909 10.4233 7.92406 9.675H3.30319Z" fill="white"/>
<path d="M9.6472 20.6893C7.02379 19.9807 4.87521 18.1158 3.78206 15.675H8.07909C8.2625 16.9477 8.53933 18.1006 8.89033 19.0709C9.10844 19.6738 9.36072 20.2217 9.6472 20.6893Z" fill="white"/>
<path d="M14.3527 20.6894C16.9761 19.9808 19.1248 18.1158 20.2179 15.675H15.9208C15.7374 16.9477 15.4606 18.1006 15.1096 19.0709C14.8915 19.6738 14.6392 20.2217 14.3527 20.6894Z" fill="white"/>
<path d="M21 12C21 12.804 20.8946 13.5833 20.6968 14.325H16.0758C16.1408 13.5767 16.175 12.7982 16.175 12C16.175 11.2018 16.1408 10.4233 16.0758 9.675H20.6968C20.8946 10.4167 21 11.196 21 12Z" fill="white"/>
<path d="M9.27942 9.675C9.21142 10.4159 9.17495 11.1948 9.17495 12C9.17495 12.8052 9.21142 13.5841 9.27942 14.325H14.7205C14.7885 13.5841 14.825 12.8052 14.825 12C14.825 11.1948 14.7885 10.4159 14.7205 9.675H9.27942Z" fill="white"/>
</svg>
