<svg width="16" height="16" viewBox="0 0 16 16" fill="none" xmlns="http://www.w3.org/2000/svg">
<path fill-rule="evenodd" clip-rule="evenodd" d="M3.66932 5.5H5.26054C5.43772 4.69446 5.70135 3.97406 6.03745 3.4001C5.03964 3.82645 4.20846 4.568 3.66932 5.5ZM8.00055 2C5.45578 2 3.28222 3.58405 2.40975 5.81811C1.86602 7.2104 1.86602 8.7896 2.40975 10.1819C3.28222 12.416 5.45578 14 8.00055 14C10.5453 14 12.7189 12.4159 13.5914 10.1819C14.1351 8.7896 14.1351 7.2104 13.5914 5.81811C12.7189 3.58405 10.5453 2 8.00055 2ZM8.00055 3C7.71743 3 7.35823 3.19666 6.9932 3.75526C6.71059 4.18774 6.46408 4.78328 6.28727 5.5H9.71384C9.53703 4.78328 9.29051 4.18774 9.0079 3.75526C8.64288 3.19666 8.28368 3 8.00055 3ZM10.7406 5.5C10.5634 4.69446 10.2998 3.97406 9.96366 3.4001C10.9615 3.82645 11.7926 4.568 12.3318 5.5H10.7406ZM9.90279 6.5H6.09832C5.96195 7.49095 5.96195 8.50905 6.09832 9.5L9.90279 9.5C10.0392 8.50904 10.0392 7.49095 9.90279 6.5ZM10.9114 9.5C11.0363 8.50728 11.0363 7.49272 10.9114 6.5H12.7715C13.075 7.47049 13.075 8.52951 12.7715 9.5L10.9114 9.5ZM9.71384 10.5H6.28727C6.46408 11.2167 6.71059 11.8123 6.9932 12.2447C7.35823 12.8033 7.71743 13 8.00055 13C8.28368 13 8.64288 12.8033 9.0079 12.2447C9.29051 11.8123 9.53703 11.2167 9.71384 10.5ZM9.96366 12.5999C10.2998 12.0259 10.5634 11.3055 10.7406 10.5L12.3318 10.5C11.7926 11.432 10.9615 12.1736 9.96366 12.5999ZM6.03745 12.5999C5.70135 12.0259 5.43772 11.3055 5.26054 10.5H3.66933C4.20846 11.432 5.03964 12.1736 6.03745 12.5999ZM3.22956 9.5H5.0897C4.96483 8.50728 4.96483 7.49272 5.0897 6.5H3.22956C2.92608 7.47049 2.92608 8.52951 3.22956 9.5Z" fill="white"/>
</svg>
