<svg width="16" height="16" viewBox="0 0 16 16" fill="none" xmlns="http://www.w3.org/2000/svg">
<path d="M2.90002 2C2.40295 2 2 2.40294 2 2.89999V6.5C2 6.99706 2.40295 7.39999 2.90002 7.39999H6.5C6.99707 7.39999 7.40002 6.99706 7.40002 6.5V2.89999C7.40002 2.40294 6.99707 2 6.5 2H2.90002Z" fill="white"/>
<path d="M9.5 2C9.00293 2 8.59998 2.40294 8.59998 2.89999V6.5C8.59998 6.99706 9.00293 7.39999 9.5 7.39999H13.1C13.597 7.39999 14 6.99706 14 6.5V2.89999C14 2.40294 13.597 2 13.1 2H9.5Z" fill="white"/>
<path d="M2 9.5C2 9.00294 2.40295 8.60001 2.90002 8.60001H6.5C6.99707 8.60001 7.40002 9.00294 7.40002 9.5V13.1C7.40002 13.5971 6.99707 14 6.5 14H2.90002C2.40295 14 2 13.5971 2 13.1V9.5Z" fill="white"/>
<path d="M9.5 8.60001C9.00293 8.60001 8.59998 9.00294 8.59998 9.5V13.1C8.59998 13.5971 9.00293 14 9.5 14H13.1C13.597 14 14 13.5971 14 13.1V9.5C14 9.00294 13.597 8.60001 13.1 8.60001H9.5Z" fill="white"/>
</svg>
