<svg width="24" height="24" viewBox="0 0 24 24" fill="none" xmlns="http://www.w3.org/2000/svg">
<path fill-rule="evenodd" clip-rule="evenodd" d="M2.82495 4.49995C2.82495 3.57487 3.57487 2.82495 4.49995 2.82495H9.49995C10.425 2.82495 11.175 3.57487 11.175 4.49995V9.49995C11.175 10.425 10.425 11.175 9.49995 11.175H4.49995C3.57487 11.175 2.82495 10.425 2.82495 9.49995V4.49995ZM4.49995 4.17495C4.32046 4.17495 4.17495 4.32046 4.17495 4.49995V9.49995C4.17495 9.67944 4.32046 9.82495 4.49995 9.82495H9.49995C9.67944 9.82495 9.82495 9.67944 9.82495 9.49995V4.49995C9.82495 4.32046 9.67944 4.17495 9.49995 4.17495H4.49995ZM14.5 4.17495C14.3205 4.17495 14.175 4.32046 14.175 4.49995V9.49995C14.175 9.67944 14.3205 9.82495 14.5 9.82495H19.5C19.6794 9.82495 19.825 9.67944 19.825 9.49995V4.49995C19.825 4.32046 19.6794 4.17495 19.5 4.17495H14.5ZM12.825 4.49995C12.825 3.57487 13.5749 2.82495 14.5 2.82495H19.5C20.425 2.82495 21.1749 3.57487 21.1749 4.49995V9.49995C21.1749 10.425 20.425 11.175 19.5 11.175H14.5C13.5749 11.175 12.825 10.425 12.825 9.49995V4.49995ZM2.82495 14.5C2.82495 13.5749 3.57487 12.825 4.49995 12.825H9.49995C10.425 12.825 11.175 13.5749 11.175 14.5V19.5C11.175 20.425 10.425 21.1749 9.49995 21.1749H4.49995C3.57487 21.1749 2.82495 20.425 2.82495 19.5V14.5ZM4.49995 14.175C4.32046 14.175 4.17495 14.3205 4.17495 14.5V19.5C4.17495 19.6794 4.32046 19.825 4.49995 19.825H9.49995C9.67944 19.825 9.82495 19.6794 9.82495 19.5V14.5C9.82495 14.3205 9.67944 14.175 9.49995 14.175H4.49995ZM12.825 14.5C12.825 13.5749 13.5749 12.825 14.5 12.825H19.5C20.425 12.825 21.1749 13.5749 21.1749 14.5V19.5C21.1749 20.425 20.425 21.1749 19.5 21.1749H14.5C13.5749 21.1749 12.825 20.425 12.825 19.5V14.5ZM14.5 14.175C14.3205 14.175 14.175 14.3205 14.175 14.5V19.5C14.175 19.6794 14.3205 19.825 14.5 19.825H19.5C19.6794 19.825 19.825 19.6794 19.825 19.5V14.5C19.825 14.3205 19.6794 14.175 19.5 14.175H14.5Z" fill="white"/>
</svg>
