<svg width="16" height="16" viewBox="0 0 16 16" fill="none" xmlns="http://www.w3.org/2000/svg">
<path fill-rule="evenodd" clip-rule="evenodd" d="M3 3V6.5H6.5V3H3ZM2 2.9C2 2.40294 2.40294 2 2.9 2H6.6C7.09706 2 7.5 2.40294 7.5 2.9V6.6C7.5 7.09706 7.09706 7.5 6.6 7.5H2.9C2.40294 7.5 2 7.09706 2 6.6V2.9ZM8.5 2.9C8.5 2.40294 8.90294 2 9.4 2H13.1C13.5971 2 14 2.40294 14 2.9V6.6C14 7.09706 13.5971 7.5 13.1 7.5H9.4C8.90294 7.5 8.5 7.09706 8.5 6.6V2.9ZM9.5 3V6.5H13V3H9.5ZM2 9.4C2 8.90294 2.40294 8.5 2.9 8.5H6.6C7.09706 8.5 7.5 8.90294 7.5 9.4V13.1C7.5 13.5971 7.09706 14 6.6 14H2.9C2.40294 14 2 13.5971 2 13.1V9.4ZM3 9.5V13H6.5V9.5H3ZM8.5 9.4C8.5 8.90294 8.90294 8.5 9.4 8.5H13.1C13.5971 8.5 14 8.90294 14 9.4V13.1C14 13.5971 13.5971 14 13.1 14H9.4C8.90294 14 8.5 13.5971 8.5 13.1V9.4ZM9.5 9.5V13H13V9.5H9.5Z" fill="white"/>
</svg>
