<svg width="24" height="24" viewBox="0 0 24 24" fill="none" xmlns="http://www.w3.org/2000/svg">
<path fill-rule="evenodd" clip-rule="evenodd" d="M3.82495 8.49995C3.82495 8.12716 4.12716 7.82495 4.49995 7.82495H19.5C19.8727 7.82495 20.175 8.12716 20.175 8.49995C20.175 8.87274 19.8727 9.17495 19.5 9.17495H4.49995C4.12716 9.17495 3.82495 8.87274 3.82495 8.49995ZM3.82495 12C3.82495 11.6272 4.12716 11.325 4.49995 11.325H19.5C19.8727 11.325 20.175 11.6272 20.175 12C20.175 12.3727 19.8727 12.675 19.5 12.675H4.49995C4.12716 12.675 3.82495 12.3727 3.82495 12ZM3.82495 15.5C3.82495 15.1272 4.12716 14.825 4.49995 14.825H19.5C19.8727 14.825 20.175 15.1272 20.175 15.5C20.175 15.8727 19.8727 16.175 19.5 16.175H4.49995C4.12716 16.175 3.82495 15.8727 3.82495 15.5Z" fill="white"/>
</svg>
