<svg width="16" height="16" viewBox="0 0 16 16" fill="none" xmlns="http://www.w3.org/2000/svg">
<path fill-rule="evenodd" clip-rule="evenodd" d="M2.5 5.5C2.5 5.22386 2.72386 5 3 5H13C13.2761 5 13.5 5.22386 13.5 5.5C13.5 5.77614 13.2761 6 13 6H3C2.72386 6 2.5 5.77614 2.5 5.5ZM2.5 7.99996C2.5 7.72382 2.72386 7.49996 3 7.49996H13C13.2761 7.49996 13.5 7.72382 13.5 7.99996C13.5 8.2761 13.2761 8.49996 13 8.49996H3C2.72386 8.49996 2.5 8.2761 2.5 7.99996ZM2.5 10.5C2.5 10.2239 2.72386 10 3 10H13C13.2761 10 13.5 10.2239 13.5 10.5C13.5 10.7761 13.2761 11 13 11H3C2.72386 11 2.5 10.7761 2.5 10.5Z" fill="white"/>
</svg>
