<svg width="24" height="24" viewBox="0 0 24 24" fill="none" xmlns="http://www.w3.org/2000/svg">
<path fill-rule="evenodd" clip-rule="evenodd" d="M21 12C21 16.9706 16.9706 21 12 21C7.02942 21 3 16.9706 3 12C3 7.02945 7.02942 3 12 3C16.9706 3 21 7.02945 21 12ZM9.50024 8.82495C9.87305 8.82495 10.1753 9.12717 10.1753 9.49994V10.4999C10.1753 10.8727 9.87305 11.175 9.50024 11.175C9.12744 11.175 8.82532 10.8727 8.82532 10.4999V9.49994C8.82532 9.12717 9.12744 8.82495 9.50024 8.82495ZM14.5002 8.82495C14.873 8.82495 15.1753 9.12717 15.1753 9.49994V10.4999C15.1753 10.8727 14.873 11.175 14.5002 11.175C14.1274 11.175 13.8253 10.8727 13.8253 10.4999V9.49994C13.8253 9.12717 14.1274 8.82495 14.5002 8.82495ZM6.99453 14.2819C6.83772 13.9384 7.15357 13.5885 7.52641 13.6479C8.45174 13.7954 10.0814 13.9999 12.0003 13.9999C13.9192 13.9999 15.5488 13.7954 16.4742 13.6479C16.847 13.5885 17.1629 13.9384 17.006 14.2819C16.1391 16.1805 14.2238 17.4999 12.0003 17.4999C9.77678 17.4999 7.86144 16.1805 6.99453 14.2819Z" fill="white"/>
</svg>
