<svg width="24" height="24" viewBox="0 0 24 24" fill="none" xmlns="http://www.w3.org/2000/svg">
<path fill-rule="evenodd" clip-rule="evenodd" d="M12 4.17495C7.67832 4.17495 4.17495 7.67832 4.17495 12C4.17495 16.3216 7.67832 19.825 12 19.825C16.3216 19.825 19.825 16.3216 19.825 12C19.825 7.67832 16.3216 4.17495 12 4.17495ZM2.82495 12C2.82495 6.93274 6.93274 2.82495 12 2.82495C17.0672 2.82495 21.1749 6.93274 21.1749 12C21.1749 17.0672 17.0672 21.1749 12 21.1749C6.93274 21.1749 2.82495 17.0672 2.82495 12ZM9.49995 8.82495C9.87274 8.82495 10.175 9.12716 10.175 9.49995V10.5C10.175 10.8727 9.87274 11.175 9.49995 11.175C9.12716 11.175 8.82495 10.8727 8.82495 10.5V9.49995C8.82495 9.12716 9.12716 8.82495 9.49995 8.82495ZM14.5 8.82495C14.8727 8.82495 15.175 9.12716 15.175 9.49995V10.5C15.175 10.8727 14.8727 11.175 14.5 11.175C14.1272 11.175 13.825 10.8727 13.825 10.5V9.49995C13.825 9.12716 14.1272 8.82495 14.5 8.82495ZM6.85079 12.8404L6.85462 12.8413L6.87152 12.8448C6.88709 12.8481 6.91117 12.853 6.94338 12.8595C7.00781 12.8723 7.10474 12.891 7.23108 12.9136C7.48383 12.9589 7.85391 13.0197 8.31669 13.0807C9.24321 13.2029 10.5362 13.325 12 13.325C13.4637 13.325 14.7567 13.2029 15.6832 13.0807C16.146 13.0197 16.5161 12.9589 16.7688 12.9136C16.8952 12.891 16.9921 12.8723 17.0565 12.8595C17.0887 12.853 17.1128 12.8481 17.1284 12.8448L17.1453 12.8413L17.1488 12.8405C17.3805 12.79 17.6221 12.8647 17.7845 13.0374C17.947 13.2101 18.007 13.4555 17.9424 13.6837C17.2095 16.2751 14.8275 18.175 12 18.175C9.17245 18.175 6.79042 16.2751 6.05746 13.6837C5.99292 13.4555 6.05287 13.2101 6.21537 13.0374C6.37781 12.8648 6.61917 12.79 6.85079 12.8404ZM16.2029 14.3718C16.0946 14.3874 15.98 14.4033 15.8597 14.4192C14.8897 14.547 13.5362 14.675 12 14.675C10.4637 14.675 9.11021 14.547 8.14025 14.4192C8.01986 14.4033 7.90531 14.3874 7.79696 14.3718C8.62547 15.8366 10.1979 16.825 12 16.825C13.802 16.825 15.3744 15.8366 16.2029 14.3718Z" fill="white"/>
</svg>
