<svg width="16" height="16" viewBox="0 0 16 16" fill="none" xmlns="http://www.w3.org/2000/svg">
<path d="M7 6.5C7 6.22386 6.77614 6 6.5 6C6.22386 6 6 6.22386 6 6.5V7C6 7.27614 6.22386 7.5 6.5 7.5C6.77614 7.5 7 7.27614 7 7V6.5Z" fill="white"/>
<path d="M10 6.5C10 6.22386 9.77614 6 9.5 6C9.22386 6 9 6.22386 9 6.5V7C9 7.27614 9.22386 7.5 9.5 7.5C9.77614 7.5 10 7.27614 10 7V6.5Z" fill="white"/>
<path fill-rule="evenodd" clip-rule="evenodd" d="M4.57784 8.51148L4.57773 8.51146L4.57765 8.51144L4.57761 8.51143C4.40605 8.4741 4.22747 8.5295 4.10715 8.65738C3.98678 8.78532 3.94238 8.96705 3.99019 9.13608C4.48476 10.8847 6.092 12.1667 7.99996 12.1667C9.90792 12.1667 11.5152 10.8847 12.0097 9.13608C12.0575 8.96705 12.0131 8.78532 11.8928 8.65738C11.7724 8.5295 11.5939 8.4741 11.4223 8.51143L11.4223 8.51144L11.4222 8.51146L11.4221 8.51148L11.422 8.51149L11.4197 8.51198C11.4175 8.51246 11.4138 8.51324 11.4087 8.51431C11.3985 8.51645 11.3826 8.51973 11.3612 8.52398C11.3186 8.53248 11.2543 8.54489 11.1704 8.55991C11.0026 8.58995 10.7566 8.6304 10.4489 8.67096C9.83286 8.75217 8.97312 8.83333 7.99996 8.83333C7.02679 8.83333 6.16706 8.75217 5.55098 8.67096C5.24331 8.6304 4.99735 8.58995 4.82952 8.55991C4.74563 8.54489 4.68134 8.53248 4.63869 8.52398C4.61737 8.51973 4.60146 8.51645 4.59123 8.51431C4.58719 8.51347 4.58403 8.5128 4.58177 8.51232L4.58018 8.51198C4.57906 8.51174 4.5783 8.51158 4.57791 8.51149L4.57784 8.51148ZM10.5796 9.66238C10.623 9.65666 10.6653 9.65093 10.7064 9.64523C10.1504 10.5577 9.14591 11.1667 7.99996 11.1667C6.854 11.1667 5.84947 10.5577 5.29353 9.64523C5.33463 9.65093 5.37689 9.65666 5.42029 9.66238C6.06854 9.74783 6.97312 9.83333 7.99996 9.83333C9.02679 9.83333 9.93138 9.74783 10.5796 9.66238Z" fill="white"/>
<path fill-rule="evenodd" clip-rule="evenodd" d="M8 2C4.68629 2 2 4.68629 2 8C2 11.3137 4.68629 14 8 14C11.3137 14 14 11.3137 14 8C14 4.68629 11.3137 2 8 2ZM3 8C3 5.23858 5.23858 3 8 3C10.7614 3 13 5.23858 13 8C13 10.7614 10.7614 13 8 13C5.23858 13 3 10.7614 3 8Z" fill="white"/>
</svg>
