<svg width="16" height="16" viewBox="0 0 16 16" fill="none" xmlns="http://www.w3.org/2000/svg">
<path fill-rule="evenodd" clip-rule="evenodd" d="M14 8C14 11.3137 11.3137 14 8 14C4.68628 14 2 11.3137 2 8C2 4.68628 4.68628 2 8 2C11.3137 2 14 4.68628 14 8ZM6.50024 5.99994C6.77637 5.99994 7.00024 6.22379 7.00024 6.49994V6.99994C7.00024 7.27609 6.77637 7.49994 6.50024 7.49994C6.224 7.49994 6.00024 7.27609 6.00024 6.99994V6.49994C6.00024 6.22379 6.224 5.99994 6.50024 5.99994ZM9.50024 5.99994C9.77637 5.99994 10.0002 6.22379 10.0002 6.49994V6.99994C10.0002 7.27609 9.77637 7.49994 9.50024 7.49994C9.224 7.49994 9.00024 7.27609 9.00024 6.99994V6.49994C9.00024 6.22379 9.224 5.99994 9.50024 5.99994ZM4.64036 9.47048C4.54942 9.26301 4.73975 9.05343 4.96333 9.08984C5.56944 9.18857 6.68253 9.33326 8.00022 9.33326C9.31792 9.33326 10.431 9.18857 11.0371 9.08984C11.2607 9.05343 11.451 9.26301 11.3601 9.47048C10.7934 10.7634 9.50228 11.6666 8.00022 11.6666C6.49816 11.6666 5.20705 10.7634 4.64036 9.47048Z" fill="white"/>
</svg>
