<svg width="16" height="16" viewBox="0 0 16 16" fill="none" xmlns="http://www.w3.org/2000/svg">
<path fill-rule="evenodd" clip-rule="evenodd" d="M2 6.73161C2 4.66015 3.44734 3 5.42188 3C6.60969 3 7.45329 3.64374 8 4.35024C8.54671 3.64374 9.39031 3 10.5781 3C12.5527 3 14 4.66018 14 6.73161C14 7.88277 13.5355 8.83084 12.7957 9.73421C12.0873 10.5992 11.0925 11.4626 9.95573 12.4493C9.92584 12.4753 9.89586 12.5013 9.86578 12.5274C8.98326 13.2929 8.69874 13.547 8.50209 13.7226C8.44162 13.7766 8.38944 13.8232 8.33071 13.875C8.14173 14.0417 7.85827 14.0417 7.66929 13.875C7.59238 13.8072 7.53042 13.7519 7.46221 13.691C7.25972 13.5102 7.0021 13.2801 6.13439 12.5276C6.10431 12.5014 6.07415 12.4753 6.04426 12.4493C4.90745 11.4626 3.91265 10.5992 3.20431 9.73421C2.46454 8.83084 2 7.88277 2 6.73161Z" fill="white"/>
</svg>
