<svg width="16" height="16" viewBox="0 0 16 16" fill="none" xmlns="http://www.w3.org/2000/svg">
<path fill-rule="evenodd" clip-rule="evenodd" d="M2 6.73161C2 4.66015 3.44734 3 5.42188 3C6.60969 3 7.45329 3.64374 8 4.35024C8.54671 3.64374 9.39031 3 10.5781 3C12.5527 3 14 4.66018 14 6.73161C14 7.88277 13.5355 8.83084 12.7957 9.73421C12.0873 10.5992 11.0925 11.4626 9.95573 12.4493C9.92584 12.4753 9.89586 12.5013 9.86578 12.5274L9.86561 12.5276C8.9831 13.293 8.69874 13.547 8.50209 13.7226C8.44162 13.7766 8.38944 13.8232 8.33071 13.875C8.14173 14.0417 7.85827 14.0417 7.66929 13.875C7.59238 13.8072 7.53042 13.7519 7.46221 13.691C7.25972 13.5102 7.0021 13.2801 6.13439 12.5276L6.13422 12.5274C6.10414 12.5013 6.07415 12.4753 6.04426 12.4493C4.90745 11.4626 3.91265 10.5992 3.20431 9.73421C2.46454 8.83084 2 7.88277 2 6.73161ZM5.42188 4C4.0894 4 3 5.11817 3 6.73161C3 7.57825 3.33 8.30934 3.97799 9.10065C4.63165 9.89886 5.57054 10.7139 6.75097 11.7386L6.7896 11.7721C6.78966 11.7722 6.78972 11.7722 6.78977 11.7723C7.49392 12.383 7.80115 12.6538 7.99993 12.8306C8.20522 12.6483 8.53457 12.3583 9.21023 11.7723C9.21028 11.7722 9.21034 11.7722 9.21039 11.7721L9.24903 11.7386C10.4295 10.7139 11.3684 9.89886 12.022 9.10065C12.67 8.30934 13 7.57825 13 6.73161C13 5.11819 11.9106 4 10.5781 4C9.5492 4 8.84522 4.73585 8.44336 5.50663C8.35721 5.67185 8.18634 5.77547 8 5.77547C7.81366 5.77547 7.64279 5.67185 7.55664 5.50663C7.15478 4.73585 6.4508 4 5.42188 4Z" fill="white"/>
</svg>
