<svg width="24" height="24" viewBox="0 0 24 24" fill="none" xmlns="http://www.w3.org/2000/svg">
<path fill-rule="evenodd" clip-rule="evenodd" d="M3 9.4042C3 6.37787 5.17761 4 8.09162 4C9.90536 4 11.1844 4.98529 12 6.05023C12.8156 4.98529 14.0946 4 15.9084 4C18.8224 4 21 6.3779 21 9.4042C21 11.0779 20.3032 12.4561 19.1898 13.7726C18.1206 15.0369 16.6174 16.3002 14.891 17.7511C14.8469 17.7882 14.8026 17.8254 14.7582 17.8627C13.4197 18.9868 12.988 19.3602 12.6899 19.618C12.5983 19.6972 12.5194 19.7654 12.4306 19.8413C12.1827 20.0529 11.8173 20.0529 11.5695 19.8413C11.4531 19.7419 11.3593 19.6608 11.256 19.5715C10.949 19.3061 10.558 18.9681 9.24201 17.8629C9.19761 17.8256 9.15312 17.7882 9.109 17.7511C7.38255 16.3002 5.87945 15.0369 4.81022 13.7726C3.69678 12.4561 3 11.0779 3 9.4042Z" fill="white"/>
</svg>
