<svg width="24" height="24" viewBox="0 0 24 24" fill="none" xmlns="http://www.w3.org/2000/svg">
<path fill-rule="evenodd" clip-rule="evenodd" d="M2.82501 9.34737C2.82501 6.25483 5.04497 3.82495 8.01564 3.82495C9.86464 3.82495 11.1686 4.83179 12 5.92003C12.8314 4.83179 14.1354 3.82495 15.9844 3.82495C18.9551 3.82495 21.175 6.25487 21.175 9.34737C21.175 11.0577 20.4647 12.466 19.3296 13.8114C18.2396 15.1033 16.7072 16.3942 14.9472 17.8769C14.9022 17.9148 14.8571 17.9528 14.8119 17.9909L14.8116 17.9911C13.4471 19.1398 13.0072 19.5211 12.7033 19.7846C12.61 19.8655 12.5295 19.9353 12.4389 20.0128C12.1863 20.229 11.8138 20.229 11.5611 20.0128C11.4425 19.9112 11.3469 19.8284 11.2415 19.7371C10.9286 19.4659 10.53 19.1205 9.1884 17.9911L9.18817 17.9909C9.1429 17.9528 9.09777 17.9148 9.0528 17.8769C7.29278 16.3942 5.76045 15.1033 4.67043 13.8114C3.53534 12.466 2.82501 11.0577 2.82501 9.34737ZM8.01564 5.17495C5.87548 5.17495 4.17501 6.91255 4.17501 9.34737C4.17501 10.6337 4.6926 11.7442 5.70224 12.9408C6.71707 14.1436 8.173 15.3703 9.99318 16.9039L10.0578 16.9583C11.2351 17.9494 11.694 18.3434 11.9999 18.6079C12.3117 18.3385 12.8147 17.9075 13.942 16.9585C13.9421 16.9585 13.9421 16.9584 13.9422 16.9583L14.0068 16.9039C15.827 15.3703 17.283 14.1436 18.2978 12.9408C19.3074 11.7442 19.825 10.6337 19.825 9.34737C19.825 6.91258 18.1245 5.17495 15.9844 5.17495C14.3302 5.17495 13.218 6.32224 12.5947 7.48258C12.477 7.70155 12.2486 7.83816 12 7.83816C11.7514 7.83816 11.523 7.70155 11.4054 7.48258C10.7821 6.32224 9.66986 5.17495 8.01564 5.17495Z" fill="white"/>
</svg>
