<svg width="16" height="16" viewBox="0 0 16 16" fill="none" xmlns="http://www.w3.org/2000/svg">
<path fill-rule="evenodd" clip-rule="evenodd" d="M8 14C11.3137 14 14 11.3137 14 8C14 4.68629 11.3137 2 8 2C4.68629 2 2 4.68629 2 8C2 11.3137 4.68629 14 8 14ZM7.40951 6.14565C7.30471 6.2619 7.26665 6.40493 7.26665 6.48802C7.26665 6.81939 6.99802 7.08802 6.66665 7.08802C6.33528 7.08802 6.06665 6.81939 6.06665 6.48802C6.06665 6.12667 6.20262 5.69226 6.51818 5.34219C6.84953 4.97461 7.34879 4.73315 7.99997 4.73315C8.65114 4.73315 9.15041 4.97461 9.48176 5.34219C9.79732 5.69226 9.9333 6.12667 9.9333 6.48802C9.9333 7.26724 9.40611 7.74965 9.09424 8.03503L9.06593 8.06096C8.88801 8.22402 8.77141 8.33089 8.68822 8.44176C8.61621 8.53773 8.59997 8.59823 8.59997 8.65422V8.99982C8.59997 9.33119 8.33134 9.59982 7.99997 9.59982C7.6686 9.59982 7.39997 9.33119 7.39997 8.99982V8.65422C7.39997 8.2661 7.55039 7.95876 7.72838 7.72155C7.88132 7.51772 8.07605 7.33988 8.2246 7.2042L8.26123 7.17072C8.61958 6.84226 8.7333 6.69 8.7333 6.48802C8.7333 6.40493 8.69524 6.26191 8.59044 6.14565C8.50144 6.04691 8.33404 5.93315 7.99997 5.93315C7.6659 5.93315 7.49851 6.04691 7.40951 6.14565ZM8.66674 10.6666C8.66674 11.0348 8.36826 11.3332 8.00007 11.3332C7.63188 11.3332 7.33341 11.0348 7.33341 10.6666C7.33341 10.2984 7.63188 9.99991 8.00007 9.99991C8.36826 9.99991 8.66674 10.2984 8.66674 10.6666Z" fill="white"/>
</svg>
