<svg width="24" height="24" viewBox="0 0 24 24" fill="none" xmlns="http://www.w3.org/2000/svg">
<path fill-rule="evenodd" clip-rule="evenodd" d="M12 21C16.9706 21 21 16.9706 21 12C21 7.02944 16.9706 3 12 3C7.02944 3 3 7.02944 3 12C3 16.9706 7.02944 21 12 21ZM11.1143 9.21884C10.9571 9.39322 10.9 9.60776 10.9 9.7324C10.9 10.2295 10.497 10.6324 9.99998 10.6324C9.50292 10.6324 9.09998 10.2295 9.09998 9.7324C9.09998 9.19037 9.30394 8.53876 9.77727 8.01366C10.2743 7.46228 11.0232 7.1001 12 7.1001C12.9767 7.1001 13.7256 7.46227 14.2226 8.01365C14.696 8.53875 14.9 9.19036 14.9 9.7324C14.9 10.9012 14.1092 11.6248 13.6414 12.0529L13.5989 12.0918C13.332 12.3364 13.1571 12.4967 13.0323 12.663C12.9243 12.807 12.9 12.8977 12.9 12.9817V13.5001C12.9 13.9972 12.497 14.4001 12 14.4001C11.5029 14.4001 11.1 13.9972 11.1 13.5001V12.9817C11.1 12.3995 11.3256 11.9385 11.5926 11.5827C11.822 11.277 12.1141 11.0102 12.3369 10.8067L12.3918 10.7564C12.9294 10.2638 13.1 10.0354 13.1 9.7324C13.1 9.60777 13.0429 9.39323 12.8857 9.21884C12.7522 9.07074 12.5011 8.9001 12 8.9001C11.4989 8.9001 11.2478 9.07074 11.1143 9.21884ZM13 16.0001C13 16.5524 12.5523 17.0001 12 17.0001C11.4477 17.0001 11 16.5524 11 16.0001C11 15.4478 11.4477 15.0001 12 15.0001C12.5523 15.0001 13 15.4478 13 16.0001Z" fill="white"/>
</svg>
