<svg width="24" height="24" viewBox="0 0 24 24" fill="none" xmlns="http://www.w3.org/2000/svg">
<path d="M10.6752 9.9073C10.6752 9.73049 10.7506 9.46131 10.9474 9.24309C11.1263 9.04458 11.4396 8.85 12.0002 8.85C12.5607 8.85 12.8741 9.04458 13.053 9.2431C13.2497 9.46132 13.3252 9.73049 13.3252 9.9073C13.3252 10.322 13.0722 10.6131 12.5441 11.0972L12.4907 11.1461C12.2656 11.3518 11.9888 11.6047 11.7728 11.8926C11.5257 12.222 11.3252 12.6367 11.3252 13.1566V13.675C11.3252 14.0478 11.6274 14.35 12.0002 14.35C12.373 14.35 12.6752 14.0478 12.6752 13.675V13.1566C12.6752 13.0103 12.7247 12.8733 12.8526 12.7029C12.9901 12.5196 13.1786 12.3468 13.4337 12.1131L13.4782 12.0723C13.9509 11.6393 14.6752 10.9759 14.6752 9.9073C14.6752 9.41744 14.4896 8.82046 14.0557 8.3392C13.6042 7.83823 12.9175 7.5 12.0002 7.5C11.0829 7.5 10.3962 7.83824 9.94461 8.33921C9.5108 8.82047 9.3252 9.41745 9.3252 9.9073C9.3252 10.2801 9.6274 10.5823 10.0002 10.5823C10.373 10.5823 10.6752 10.2801 10.6752 9.9073Z" fill="white"/>
<path d="M12.0003 16.9901C12.4505 16.9901 12.8155 16.6252 12.8155 16.175C12.8155 15.7248 12.4505 15.3598 12.0003 15.3598C11.5501 15.3598 11.1851 15.7248 11.1851 16.175C11.1851 16.6252 11.5501 16.9901 12.0003 16.9901Z" fill="white"/>
<path fill-rule="evenodd" clip-rule="evenodd" d="M12.0002 3C6.93298 3 2.8252 7.10779 2.8252 12.175C2.8252 17.2422 6.93298 21.35 12.0002 21.35C17.0674 21.35 21.1752 17.2422 21.1752 12.175C21.1752 7.10779 17.0674 3 12.0002 3ZM4.1752 12.175C4.1752 7.85337 7.67857 4.35 12.0002 4.35C16.3218 4.35 19.8252 7.85337 19.8252 12.175C19.8252 16.4966 16.3218 20 12.0002 20C7.67857 20 4.1752 16.4966 4.1752 12.175Z" fill="white"/>
</svg>
