<svg width="16" height="16" viewBox="0 0 16 16" fill="none" xmlns="http://www.w3.org/2000/svg">
<path d="M7.16675 6.66322C7.16675 6.55694 7.21297 6.38964 7.33533 6.2539C7.44452 6.13276 7.63957 6.00836 8.00006 6.00836C8.36055 6.00836 8.55561 6.13276 8.66481 6.2539C8.78717 6.38964 8.83339 6.55695 8.83339 6.66322C8.83339 6.91487 8.68307 7.095 8.32888 7.41964L8.29291 7.45254C8.14337 7.58917 7.95545 7.76086 7.80846 7.95676C7.6393 8.1822 7.50006 8.46897 7.50006 8.82942V9.17501C7.50006 9.45116 7.72392 9.67501 8.00006 9.67501C8.2762 9.67501 8.50006 9.45116 8.50006 9.17501V8.82942C8.50006 8.74575 8.52748 8.66468 8.60833 8.55694C8.69716 8.43855 8.81978 8.32617 8.99216 8.1682L9.02196 8.14089C9.33582 7.85349 9.83339 7.39785 9.83339 6.66322C9.83339 6.32506 9.70557 5.91493 9.40757 5.58435C9.09642 5.23917 8.62481 5.00836 8.00006 5.00836C7.37531 5.00836 6.90371 5.23917 6.59255 5.58436C6.29456 5.91494 6.16675 6.32506 6.16675 6.66322C6.16675 6.93937 6.39061 7.16322 6.66675 7.16322C6.94289 7.16322 7.16675 6.93937 7.16675 6.66322Z" fill="white"/>
<path d="M8.00003 11.3851C8.30017 11.3851 8.54348 11.1418 8.54348 10.8417C8.54348 10.5415 8.30017 10.2982 8.00003 10.2982C7.69989 10.2982 7.45658 10.5415 7.45658 10.8417C7.45658 11.1418 7.69989 11.3851 8.00003 11.3851Z" fill="white"/>
<path fill-rule="evenodd" clip-rule="evenodd" d="M8 2.17505C4.68629 2.17505 2 4.86134 2 8.17505C2 11.4888 4.68629 14.175 8 14.175C11.3137 14.175 14 11.4888 14 8.17505C14 4.86134 11.3137 2.17505 8 2.17505ZM3 8.17505C3 5.41363 5.23858 3.17505 8 3.17505C10.7614 3.17505 13 5.41363 13 8.17505C13 10.9365 10.7614 13.175 8 13.175C5.23858 13.175 3 10.9365 3 8.17505Z" fill="white"/>
</svg>
