<svg width="20" height="20" viewBox="0 0 20 20" fill="none" xmlns="http://www.w3.org/2000/svg">
<path fill-rule="evenodd" clip-rule="evenodd" d="M10.3296 2.46074C10.133 2.31875 9.86755 2.31875 9.67095 2.46074L2.17095 7.87741C1.9191 8.0593 1.86239 8.41091 2.04428 8.66275C2.22617 8.9146 2.57778 8.97131 2.82962 8.78942L3.33362 8.42543V15.4166C3.33362 16.1069 3.89331 16.6666 4.58362 16.6666H6.25029V10.8333C6.25029 10.6031 6.43683 10.4166 6.66695 10.4166H8.33362C8.56374 10.4166 8.75029 10.6031 8.75029 10.8333V16.6666H15.417C16.1073 16.6666 16.667 16.1069 16.667 15.4166V8.42543L17.1709 8.78942C17.4228 8.97131 17.7744 8.9146 17.9563 8.66275C18.1382 8.41091 18.0815 8.0593 17.8296 7.87741L10.3296 2.46074ZM11.667 10.4166H13.3336C13.5637 10.4166 13.7503 10.6031 13.7503 10.8333V12.4999C13.7503 12.73 13.5637 12.9166 13.3336 12.9166H11.667C11.4368 12.9166 11.2503 12.73 11.2503 12.4999V10.8333C11.2503 10.6031 11.4368 10.4166 11.667 10.4166Z" fill="white"/>
<path d="M16.667 2.91659V5.66073L14.167 3.85902V2.91659C14.167 2.68647 14.3535 2.49992 14.5836 2.49992H16.2503C16.4804 2.49992 16.667 2.68647 16.667 2.91659Z" fill="white"/>
</svg>
