<svg width="16" height="16" viewBox="0 0 16 16" fill="none" xmlns="http://www.w3.org/2000/svg">
<path fill-rule="evenodd" clip-rule="evenodd" d="M8.26331 1.96874C8.10603 1.85515 7.89365 1.85515 7.73637 1.96874L1.73637 6.30207C1.53489 6.44758 1.48952 6.72887 1.63503 6.93035C1.78054 7.13183 2.06183 7.1772 2.26331 7.03168L2.6665 6.74049V12.3334C2.6665 12.8857 3.11426 13.3334 3.6665 13.3334H4.99984V8.66675C4.99984 8.48265 5.14908 8.33342 5.33317 8.33342H6.6665C6.8506 8.33342 6.99984 8.48265 6.99984 8.66675V13.3334H12.3332C12.8854 13.3334 13.3332 12.8857 13.3332 12.3334V6.74049L13.7364 7.03168C13.9378 7.1772 14.2191 7.13183 14.3646 6.93035C14.5102 6.72887 14.4648 6.44758 14.2633 6.30207L8.26331 1.96874ZM9.33317 8.33342H10.6665C10.8506 8.33342 10.9998 8.48265 10.9998 8.66675V10.0001C10.9998 10.1842 10.8506 10.3334 10.6665 10.3334H9.33317C9.14908 10.3334 8.99984 10.1842 8.99984 10.0001V8.66675C8.99984 8.48265 9.14908 8.33342 9.33317 8.33342Z" fill="white"/>
<path d="M13.3332 2.33341V4.52873L11.3332 3.08736V2.33341C11.3332 2.14932 11.4824 2.00008 11.6665 2.00008H12.9998C13.1839 2.00008 13.3332 2.14932 13.3332 2.33341Z" fill="white"/>
</svg>
