<svg width="20" height="20" viewBox="0 0 20 20" fill="none" xmlns="http://www.w3.org/2000/svg">
<path fill-rule="evenodd" clip-rule="evenodd" d="M2.79995 4.04995C2.66188 4.04995 2.54995 4.16188 2.54995 4.29995V15.7C2.54995 15.838 2.66188 15.95 2.79995 15.95H17.2C17.338 15.95 17.45 15.838 17.45 15.7V4.29995C17.45 4.16188 17.338 4.04995 17.2 4.04995H12.5C12.1962 4.04995 11.95 3.80371 11.95 3.49995C11.95 3.19619 12.1962 2.94995 12.5 2.94995H17.2C17.9455 2.94995 18.5499 3.55437 18.5499 4.29995V15.7C18.5499 16.4455 17.9455 17.05 17.2 17.05H2.79995C2.05437 17.05 1.44995 16.4455 1.44995 15.7V4.29995C1.44995 3.55437 2.05437 2.94995 2.79995 2.94995H5.99995C8.51285 2.94995 10.55 4.98706 10.55 7.49995V10.6721L12.111 9.11104C12.3258 8.89625 12.6741 8.89625 12.8889 9.11104C13.1036 9.32583 13.1036 9.67407 12.8889 9.88886L10.3889 12.3889C10.1741 12.6036 9.82583 12.6036 9.61104 12.3889L7.11104 9.88886C6.89625 9.67407 6.89625 9.32583 7.11104 9.11104C7.32583 8.89625 7.67407 8.89625 7.88886 9.11104L9.44995 10.6721V7.49995C9.44995 5.59457 7.90533 4.04995 5.99995 4.04995H2.79995Z" fill="white"/>
</svg>
