<svg width="24" height="24" viewBox="0 0 24 24" fill="none" xmlns="http://www.w3.org/2000/svg">
<path fill-rule="evenodd" clip-rule="evenodd" d="M1.82495 5.49995C1.82495 4.57487 2.57487 3.82495 3.49995 3.82495H6.99995C10.1342 3.82495 12.675 6.36574 12.675 9.49995V12.3704L14.5227 10.5227C14.7863 10.2591 15.2136 10.2591 15.4772 10.5227C15.7409 10.7863 15.7409 11.2136 15.4772 11.4772L12.4772 14.4772C12.2136 14.7409 11.7863 14.7409 11.5227 14.4772L8.52265 11.4772C8.25905 11.2136 8.25905 10.7863 8.52265 10.5227C8.78626 10.2591 9.21364 10.2591 9.47725 10.5227L11.325 12.3704V9.49995C11.325 7.11132 9.38858 5.17495 6.99995 5.17495H3.49995C3.32046 5.17495 3.17495 5.32046 3.17495 5.49995V18.5C3.17495 18.6794 3.32046 18.825 3.49995 18.825H20.5C20.6794 18.825 20.825 18.6794 20.825 18.5V5.49995C20.825 5.32046 20.6794 5.17495 20.5 5.17495H15C14.6272 5.17495 14.325 4.87274 14.325 4.49995C14.325 4.12716 14.6272 3.82495 15 3.82495H20.5C21.425 3.82495 22.1749 4.57487 22.1749 5.49995V18.5C22.1749 19.425 21.425 20.175 20.5 20.175H3.49995C2.57487 20.175 1.82495 19.425 1.82495 18.5V5.49995Z" fill="white"/>
</svg>
