<svg width="16" height="16" viewBox="0 0 16 16" fill="none" xmlns="http://www.w3.org/2000/svg">
<path fill-rule="evenodd" clip-rule="evenodd" d="M2.5 3.5V12.5H13.5V3.5H10C9.72386 3.5 9.5 3.27614 9.5 3C9.5 2.72386 9.72386 2.5 10 2.5H13.6C14.0971 2.5 14.5 2.90294 14.5 3.4V12.6C14.5 13.0971 14.0971 13.5 13.6 13.5H2.4C1.90294 13.5 1.5 13.0971 1.5 12.6V3.4C1.5 2.90294 1.90294 2.5 2.4 2.5H5C6.933 2.5 8.5 4.067 8.5 6V8.29289L9.64645 7.14645C9.84171 6.95118 10.1583 6.95118 10.3536 7.14645C10.5488 7.34171 10.5488 7.65829 10.3536 7.85355L8.35355 9.85355C8.15829 10.0488 7.84171 10.0488 7.64645 9.85355L5.64645 7.85355C5.45118 7.65829 5.45118 7.34171 5.64645 7.14645C5.84171 6.95118 6.15829 6.95118 6.35355 7.14645L7.5 8.29289V6C7.5 4.61929 6.38071 3.5 5 3.5H2.5Z" fill="white"/>
</svg>
