<svg width="20" height="20" viewBox="0 0 20 20" fill="none" xmlns="http://www.w3.org/2000/svg">
<path d="M5.08423 3H2.84211C2.10088 3 1.5 3.60013 1.5 4.34043V15.6596C1.5 16.3999 2.10088 17 2.84211 17H17.1579C17.8991 17 18.5 16.3999 18.5 15.6596V4.34043C18.5 3.60013 17.8991 3 17.1579 3H8.31824C9.67296 4.01199 10.55 5.62818 10.55 7.44922V10.6722L12.1111 9.11109C12.3259 8.8963 12.6741 8.8963 12.8889 9.11109C13.1037 9.32588 13.1037 9.67412 12.8889 9.88891L10.3889 12.3889C10.1741 12.6037 9.82588 12.6037 9.61109 12.3889L7.11109 9.88891C6.8963 9.67412 6.8963 9.32588 7.11109 9.11109C7.32588 8.8963 7.67412 8.8963 7.88891 9.11109L9.45 10.6722V7.44922C9.45 5.01969 7.50303 3.0449 5.08423 3Z" fill="white"/>
</svg>
