<svg width="16" height="16" viewBox="0 0 16 16" fill="none" xmlns="http://www.w3.org/2000/svg">
<path d="M2.44275 2.5C1.92208 2.5 1.5 2.9215 1.5 3.44144V12.5586C1.5 13.0785 1.92208 13.5 2.44275 13.5H13.5573C14.0779 13.5 14.5 13.0785 14.5 12.5586V3.44144C14.5 2.9215 14.0779 2.5 13.5573 2.5H6.82867C7.84817 3.32498 8.5 4.58637 8.5 6V8.29289L9.64645 7.14645C9.84171 6.95118 10.1583 6.95118 10.3536 7.14645C10.5488 7.34171 10.5488 7.65829 10.3536 7.85355L8.35355 9.85355C8.15829 10.0488 7.84171 10.0488 7.64645 9.85355L5.64645 7.85355C5.45118 7.65829 5.45118 7.34171 5.64645 7.14645C5.84171 6.95118 6.15829 6.95118 6.35355 7.14645L7.5 8.29289V6C7.5 4.067 5.933 2.5 4 2.5H2.44275Z" fill="white"/>
</svg>
