<svg width="24" height="24" viewBox="0 0 24 24" fill="none" xmlns="http://www.w3.org/2000/svg">
<path d="M6.21352 4H3.44963C2.64902 4 2 4.64624 2 5.44343V18.5566C2 19.3538 2.64902 20 3.44963 20H20.5504C21.351 20 22 19.3538 22 18.5566V5.44342C22 4.64624 21.351 4 20.5504 4H10.0311C11.6375 5.21894 12.675 7.14871 12.675 9.32079V12.3704L14.5227 10.5227C14.7863 10.2591 15.2137 10.2591 15.4773 10.5227C15.7409 10.7863 15.7409 11.2137 15.4773 11.4773L12.4773 14.4773C12.2137 14.7409 11.7863 14.7409 11.5227 14.4773L8.52268 11.4773C8.25907 11.2137 8.25907 10.7863 8.52267 10.5227C8.78628 10.2591 9.21367 10.2591 9.47727 10.5227L11.325 12.3704V9.32079C11.325 6.4514 9.05544 4.11208 6.21352 4Z" fill="white"/>
</svg>
