<svg width="24" height="24" viewBox="0 0 24 24" fill="none" xmlns="http://www.w3.org/2000/svg">
<path fill-rule="evenodd" clip-rule="evenodd" d="M3 12C3 16.9706 7.02944 21 12 21C16.9706 21 21 16.9706 21 12C21 7.02944 16.9706 3 12 3C7.02944 3 3 7.02944 3 12ZM9.82495 16C9.82495 16.3728 10.1272 16.675 10.5 16.675H13.5C13.8727 16.675 14.175 16.3728 14.175 16C14.175 15.6272 13.8727 15.325 13.5 15.325H12.6749L12.675 11C12.675 10.821 12.6038 10.6493 12.4772 10.5227C12.3507 10.3961 12.179 10.325 12 10.325H10.5C10.1272 10.325 9.82497 10.6272 9.82497 11C9.82497 11.3728 10.1272 11.675 10.5 11.675H11.3249L11.3249 15.325H10.5C10.1272 15.325 9.82495 15.6272 9.82495 16ZM13.0001 8.00002C13.0001 7.44773 12.5524 7.00002 12.0001 7.00002C11.4478 7.00002 11.0001 7.44773 11.0001 8.00002C11.0001 8.5523 11.4478 9.00002 12.0001 9.00002C12.5524 9.00002 13.0001 8.5523 13.0001 8.00002Z" fill="white"/>
</svg>
