<svg width="16" height="16" viewBox="0 0 16 16" fill="none" xmlns="http://www.w3.org/2000/svg">
<path fill-rule="evenodd" clip-rule="evenodd" d="M2 8C2 4.68629 4.68629 2 8 2C11.3137 2 14 4.68629 14 8C14 11.3137 11.3137 14 8 14C4.68629 14 2 11.3137 2 8ZM6.50002 7.33335C6.50002 7.05721 6.72387 6.83335 7.00002 6.83335H8C8.13261 6.83335 8.25979 6.88603 8.35355 6.9798C8.44732 7.07357 8.5 7.20075 8.5 7.33335L8.49999 10.1667H9C9.27614 10.1667 9.5 10.3905 9.5 10.6667C9.5 10.9428 9.27614 11.1667 9 11.1667H7C6.72386 11.1667 6.5 10.9428 6.5 10.6667C6.5 10.3905 6.72386 10.1667 7 10.1667H7.49999L7.5 7.83335H7.00002C6.72387 7.83335 6.50002 7.60949 6.50002 7.33335ZM8.66688 5.33335C8.66688 4.96516 8.3684 4.66669 8.00021 4.66669C7.63202 4.66669 7.33354 4.96516 7.33354 5.33335C7.33354 5.70154 7.63202 6.00002 8.00021 6.00002C8.3684 6.00002 8.66688 5.70154 8.66688 5.33335Z" fill="white"/>
</svg>
