<svg width="16" height="16" viewBox="0 0 16 16" fill="none" xmlns="http://www.w3.org/2000/svg">
<path d="M7.00002 6.83334C6.72387 6.83334 6.50002 7.0572 6.50002 7.33334C6.50002 7.60948 6.72387 7.83334 7.00002 7.83334H7.5L7.49999 10.1667H7C6.72386 10.1667 6.5 10.3905 6.5 10.6667C6.5 10.9428 6.72386 11.1667 7 11.1667H9C9.27614 11.1667 9.5 10.9428 9.5 10.6667C9.5 10.3905 9.27614 10.1667 9 10.1667H8.49999L8.5 7.33334C8.5 7.20073 8.44732 7.07355 8.35355 6.97979C8.25979 6.88602 8.13261 6.83334 8 6.83334H7.00002Z" fill="white"/>
<path d="M8.00021 4.66668C8.3684 4.66668 8.66688 4.96516 8.66688 5.33335C8.66688 5.70154 8.3684 6.00001 8.00021 6.00001C7.63202 6.00001 7.33354 5.70154 7.33354 5.33335C7.33354 4.96516 7.63202 4.66668 8.00021 4.66668Z" fill="white"/>
<path fill-rule="evenodd" clip-rule="evenodd" d="M8 2C4.68629 2 2 4.68629 2 8C2 11.3137 4.68629 14 8 14C11.3137 14 14 11.3137 14 8C14 4.68629 11.3137 2 8 2ZM3 8C3 5.23858 5.23858 3 8 3C10.7614 3 13 5.23858 13 8C13 10.7614 10.7614 13 8 13C5.23858 13 3 10.7614 3 8Z" fill="white"/>
</svg>
