<svg width="24" height="24" viewBox="0 0 24 24" fill="none" xmlns="http://www.w3.org/2000/svg">
<path d="M10.5002 10.325C10.1274 10.325 9.82522 10.6272 9.82522 11C9.82522 11.3727 10.1274 11.675 10.5002 11.675H11.3252L11.3252 15.325H10.5002C10.1274 15.325 9.8252 15.6272 9.8252 16C9.8252 16.3727 10.1274 16.675 10.5002 16.675H13.5002C13.873 16.675 14.1752 16.3727 14.1752 16C14.1752 15.6272 13.873 15.325 13.5002 15.325H12.6752L12.6752 11C12.6752 10.8209 12.6041 10.6492 12.4775 10.5227C12.3509 10.3961 12.1792 10.325 12.0002 10.325H10.5002Z" fill="white"/>
<path d="M12.0001 6.99996C12.5524 6.99996 13.0001 7.44767 13.0001 7.99996C13.0001 8.55224 12.5524 8.99996 12.0001 8.99996C11.4478 8.99996 11.0001 8.55224 11.0001 7.99996C11.0001 7.44767 11.4478 6.99996 12.0001 6.99996Z" fill="white"/>
<path fill-rule="evenodd" clip-rule="evenodd" d="M12.0002 2.82495C6.93298 2.82495 2.8252 6.93274 2.8252 12C2.8252 17.0672 6.93298 21.1749 12.0002 21.1749C17.0674 21.1749 21.1752 17.0672 21.1752 12C21.1752 6.93274 17.0674 2.82495 12.0002 2.82495ZM4.1752 12C4.1752 7.67832 7.67857 4.17495 12.0002 4.17495C16.3218 4.17495 19.8252 7.67832 19.8252 12C19.8252 16.3216 16.3218 19.825 12.0002 19.825C7.67857 19.825 4.1752 16.3216 4.1752 12Z" fill="white"/>
</svg>
