<svg width="24" height="24" viewBox="0 0 24 24" fill="none" xmlns="http://www.w3.org/2000/svg">
<path fill-rule="evenodd" clip-rule="evenodd" d="M12 4.17495C7.67832 4.17495 4.17495 7.67832 4.17495 12C4.17495 12.5002 4.2218 12.989 4.31123 13.4623C4.69333 13.3724 5.0914 13.325 5.49995 13.325C6.7885 13.325 7.96772 13.7966 8.87316 14.5753C9.80719 14.0958 10.8721 13.825 12 13.825C14.5186 13.825 16.7236 15.176 17.8601 17.1856C19.0833 15.8045 19.825 13.9892 19.825 12C19.825 7.67832 16.3216 4.17495 12 4.17495ZM16.8407 18.1484C16.0022 16.4021 14.1579 15.175 12 15.175C11.2159 15.175 10.4731 15.337 9.80488 15.6272C10.3542 16.449 10.675 17.4374 10.675 18.5C10.675 18.9085 10.6275 19.3066 10.5376 19.6887C11.011 19.7781 11.4997 19.825 12 19.825C13.8281 19.825 15.5086 19.1988 16.8407 18.1484ZM10.0499 20.9671C10.6789 21.1033 11.3314 21.1749 12 21.1749C14.3439 21.1749 16.484 20.2951 18.1054 18.8487C19.988 17.1694 21.1749 14.7229 21.1749 12C21.1749 6.93274 17.0672 2.82495 12 2.82495C6.93274 2.82495 2.82495 6.93274 2.82495 12C2.82495 12.6685 2.89657 13.321 3.03275 13.95C1.42066 14.8259 0.324951 16.5343 0.324951 18.5C0.324951 21.358 2.64188 23.6749 5.49995 23.6749C7.46558 23.6749 9.17395 22.5792 10.0499 20.9671ZM12 8.12495C10.9645 8.12495 10.125 8.96442 10.125 9.99995C10.125 11.0355 10.9645 11.8749 12 11.8749C13.0355 11.8749 13.875 11.0355 13.875 9.99995C13.875 8.96442 13.0355 8.12495 12 8.12495ZM8.77502 9.99995C8.77502 8.21883 10.2189 6.77495 12 6.77495C13.7811 6.77495 15.225 8.21883 15.225 9.99995C15.225 11.7811 13.7811 13.2249 12 13.2249C10.2189 13.2249 8.77502 11.7811 8.77502 9.99995ZM5.49995 14.675C4.99437 14.675 4.51328 14.7727 4.07333 14.9497C2.66629 15.5157 1.67495 16.8929 1.67495 18.5C1.67495 20.6124 3.38746 22.325 5.49995 22.325C7.10704 22.325 8.48421 21.3336 9.05023 19.9266C9.22722 19.4866 9.32495 19.0055 9.32495 18.5C9.32495 17.4818 8.92804 16.5578 8.27916 15.8719C7.58107 15.134 6.59466 14.675 5.49995 14.675Z" fill="white"/>
<path fill-rule="evenodd" clip-rule="evenodd" d="M5.5 16C5.77614 16 6 16.2239 6 16.5V18H7.5C7.77614 18 8 18.2239 8 18.5C8 18.7761 7.77614 19 7.5 19H6V20.5C6 20.7761 5.77614 21 5.5 21C5.22386 21 5 20.7761 5 20.5V19H3.5C3.22386 19 3 18.7761 3 18.5C3 18.2239 3.22386 18 3.5 18H5V16.5C5 16.2239 5.22386 16 5.5 16Z" fill="white"/>
</svg>
