<svg width="24" height="24" viewBox="0 0 24 24" fill="none" xmlns="http://www.w3.org/2000/svg">
<path d="M21 12C21 16.9706 16.9706 21 12 21C11.8549 21 11.7105 20.9966 11.567 20.9898C11.1975 20.9723 10.9812 20.5823 11.0904 20.2288C11.2591 19.6824 11.35 19.1018 11.35 18.5C11.35 17.2945 10.9854 16.1741 10.3603 15.2432C10.1426 14.9189 10.2627 14.4559 10.6445 14.3728C11.0817 14.2777 11.5352 14.2277 12 14.2277C14.3101 14.2277 16.3387 15.4636 17.4915 17.326C18.8275 15.9487 19.65 14.0704 19.65 12C19.65 7.77502 16.225 4.35001 12 4.35001C7.77502 4.35001 4.34998 7.77502 4.34998 12C4.34998 12.255 4.36246 12.5072 4.38684 12.7558C3.92859 12.8441 3.48938 12.9858 3.07593 13.1743C3.02588 12.79 3 12.398 3 12C3 7.02945 7.02942 3 12 3C16.9706 3 21 7.02945 21 12Z" fill="white"/>
<path d="M12 13.2222C13.7797 13.2222 15.2223 11.7796 15.2223 10C15.2223 8.2204 13.7797 6.77777 12 6.77777C10.2205 6.77777 8.77783 8.2204 8.77783 10C8.77783 11.7796 10.2205 13.2222 12 13.2222Z" fill="white"/>
<path fill-rule="evenodd" clip-rule="evenodd" d="M10 18.5C10 20.9853 7.98523 23 5.5 23C3.01477 23 1 20.9853 1 18.5C1 16.0147 3.01477 14 5.5 14C7.98523 14 10 16.0147 10 18.5ZM6 16.5C6 16.2238 5.77612 16 5.5 16C5.22388 16 5 16.2238 5 16.5V18H3.5C3.22388 18 3 18.2238 3 18.5C3 18.7762 3.22388 19 3.5 19H5V20.5C5 20.7762 5.22388 21 5.5 21C5.77612 21 6 20.7762 6 20.5V19H7.5C7.77612 19 8 18.7762 8 18.5C8 18.2238 7.77612 18 7.5 18H6V16.5Z" fill="white"/>
</svg>
