<svg width="16" height="16" viewBox="0 0 16 16" fill="none" xmlns="http://www.w3.org/2000/svg">
<path fill-rule="evenodd" clip-rule="evenodd" d="M7.99984 2C6.528 2 5.33484 3.19316 5.33484 4.665C5.33484 6.13684 6.528 7.33 7.99984 7.33C9.47168 7.33 10.6648 6.13684 10.6648 4.665C10.6648 3.19316 9.47168 2 7.99984 2ZM6.33484 4.665C6.33484 3.74545 7.08028 3 7.99984 3C8.91939 3 9.66484 3.74545 9.66484 4.665C9.66484 5.58455 8.91939 6.33 7.99984 6.33C7.08028 6.33 6.33484 5.58455 6.33484 4.665Z" fill="white"/>
<path d="M6.40196 9.33693C6.88978 9.1205 7.43008 9 7.99986 9C10.1783 9 11.9443 10.766 11.9443 12.9444V13H7.21436C6.93822 13 6.71436 13.2239 6.71436 13.5C6.71436 13.7761 6.93822 14 7.21436 14H12.0443C12.5414 14 12.9443 13.5971 12.9443 13.1V12.9444C12.9443 10.2137 10.7306 8 7.99986 8C7.28771 8 6.60946 8.15087 5.99641 8.42286C5.744 8.53485 5.63016 8.83026 5.74215 9.08267C5.85414 9.33509 6.14955 9.44892 6.40196 9.33693Z" fill="white"/>
<path d="M3.35011 10.8985C3.35011 10.7052 3.19341 10.5485 3.00011 10.5485C2.80681 10.5485 2.65011 10.7052 2.65011 10.8985V11.65H1.89858C1.70528 11.65 1.54858 11.8067 1.54858 12C1.54858 12.1933 1.70528 12.35 1.89858 12.35H2.65011V13.1015C2.65011 13.2948 2.80681 13.4515 3.00011 13.4515C3.19341 13.4515 3.35011 13.2948 3.35011 13.1015V12.35H4.10163C4.29493 12.35 4.45163 12.1933 4.45163 12C4.45163 11.8067 4.29493 11.65 4.10163 11.65H3.35011V10.8985Z" fill="white"/>
<path fill-rule="evenodd" clip-rule="evenodd" d="M3 9C1.34315 9 0 10.3431 0 12C0 13.6569 1.34315 15 3 15C4.65685 15 6 13.6569 6 12C6 10.3431 4.65685 9 3 9ZM1 12C1 10.8954 1.89543 10 3 10C4.10457 10 5 10.8954 5 12C5 13.1046 4.10457 14 3 14C1.89543 14 1 13.1046 1 12Z" fill="white"/>
</svg>
