<svg width="24" height="24" viewBox="0 0 24 24" fill="none" xmlns="http://www.w3.org/2000/svg">
<path fill-rule="evenodd" clip-rule="evenodd" d="M12.0002 2.8252C9.69441 2.8252 7.8252 4.69441 7.8252 7.0002C7.8252 9.30598 9.69441 11.1752 12.0002 11.1752C14.306 11.1752 16.1752 9.30598 16.1752 7.0002C16.1752 4.69441 14.306 2.8252 12.0002 2.8252ZM9.1752 7.0002C9.1752 5.43999 10.44 4.1752 12.0002 4.1752C13.5604 4.1752 14.8252 5.43999 14.8252 7.0002C14.8252 8.5604 13.5604 9.8252 12.0002 9.8252C10.44 9.8252 9.1752 8.5604 9.1752 7.0002Z" fill="white"/>
<path d="M9.83253 13.5065C10.5125 13.2919 11.2411 13.1752 12.0002 13.1752C15.8039 13.1752 18.8252 16.0902 18.8252 19.6113C18.8252 19.7294 18.7294 19.8252 18.6113 19.8252H12.216C11.8432 19.8252 11.541 20.1274 11.541 20.5002C11.541 20.873 11.8432 21.1752 12.216 21.1752H18.6113C19.475 21.1752 20.1752 20.475 20.1752 19.6113C20.1752 15.2777 16.4808 11.8252 12.0002 11.8252C11.1022 11.8252 10.2366 11.9633 9.42614 12.2191C9.07064 12.3313 8.87342 12.7105 8.98564 13.066C9.09787 13.4215 9.47703 13.6187 9.83253 13.5065Z" fill="white"/>
<path d="M6.00024 16.5002C6.00024 16.224 5.77639 16.0002 5.50024 16.0002C5.2241 16.0002 5.00024 16.224 5.00024 16.5002V18.0002H3.50024C3.2241 18.0002 3.00024 18.224 3.00024 18.5002C3.00024 18.7763 3.2241 19.0002 3.50024 19.0002H5.00024V20.5002C5.00024 20.7763 5.2241 21.0002 5.50024 21.0002C5.77639 21.0002 6.00024 20.7763 6.00024 20.5002V19.0002H7.50024C7.77639 19.0002 8.00024 18.7763 8.00024 18.5002C8.00024 18.224 7.77639 18.0002 7.50024 18.0002H6.00024V16.5002Z" fill="white"/>
<path fill-rule="evenodd" clip-rule="evenodd" d="M5.5002 13.3252C2.64212 13.3252 0.325195 15.6421 0.325195 18.5002C0.325195 21.3583 2.64212 23.6752 5.5002 23.6752C8.35827 23.6752 10.6752 21.3583 10.6752 18.5002C10.6752 15.6421 8.35827 13.3252 5.5002 13.3252ZM1.6752 18.5002C1.6752 16.3877 3.38771 14.6752 5.5002 14.6752C7.61268 14.6752 9.3252 16.3877 9.3252 18.5002C9.3252 20.6127 7.61268 22.3252 5.5002 22.3252C3.38771 22.3252 1.6752 20.6127 1.6752 18.5002Z" fill="white"/>
</svg>
