<svg width="16" height="16" viewBox="0 0 16 16" fill="none" xmlns="http://www.w3.org/2000/svg">
<path d="M7.99963 7.33337C9.47241 7.33337 10.6664 6.1394 10.6664 4.66663C10.6664 3.19385 9.47241 2 7.99963 2C6.52686 2 5.33301 3.19385 5.33301 4.66663C5.33301 6.1394 6.52686 7.33337 7.99963 7.33337Z" fill="white"/>
<path d="M5.78162 9.12549C5.57275 8.92334 5.59033 8.56494 5.85645 8.448C6.51245 8.15991 7.23743 8 7.99976 8C10.9452 8 13.333 10.3878 13.333 13.3334C13.333 13.7015 13.0345 14 12.6664 14H7.15833C6.85022 14 6.65247 13.662 6.75818 13.3727C6.91467 12.9445 7 12.4822 7 12C7 10.8718 6.53284 9.85278 5.78162 9.12549Z" fill="white"/>
<path fill-rule="evenodd" clip-rule="evenodd" d="M3 15C4.65686 15 6 13.6569 6 12C6 10.3431 4.65686 9 3 9C1.34314 9 0 10.3431 0 12C0 13.6569 1.34314 15 3 15ZM3 10.3505C3.19336 10.3505 3.34998 10.5071 3.34998 10.7004V11.65H4.29956C4.49292 11.65 4.64966 11.8068 4.64966 12C4.64966 12.1934 4.49292 12.3501 4.29956 12.3501H3.34998V13.2996C3.34998 13.4929 3.19336 13.6497 3 13.6497C2.80676 13.6497 2.65002 13.4929 2.65002 13.2996V12.3501H1.70044C1.5072 12.3501 1.35046 12.1934 1.35046 12C1.35046 11.8068 1.5072 11.65 1.70044 11.65H2.65002V10.7004C2.65002 10.5071 2.80676 10.3505 3 10.3505Z" fill="white"/>
</svg>
