<svg width="16" height="16" viewBox="0 0 16 16" fill="none" xmlns="http://www.w3.org/2000/svg">
<path d="M14 8C14 11.3137 11.3137 14 8 14C7.65698 14 7.32068 13.9712 6.99341 13.9159C6.77051 13.8783 6.65967 13.633 6.73999 13.4217C6.90796 12.9799 7 12.5007 7 12C7 11.3521 6.84595 10.7401 6.57251 10.1988C6.47595 10.0077 6.54675 9.76599 6.75012 9.69913C7.14331 9.56992 7.56348 9.5 8 9.5C9.5083 9.5 10.8217 10.3348 11.5031 11.5677C12.427 10.6604 13 9.39713 13 8C13 5.23859 10.7615 3 8 3C5.23853 3 3 5.23859 3 8C2.65515 8 2.32056 8.04364 2.00134 8.12567C2.00049 8.08389 2 8.04199 2 8C2 4.68628 4.68628 2 8 2C11.3137 2 14 4.68628 14 8Z" fill="white"/>
<path d="M8 9C9.10449 9 10 8.10458 10 7C10 5.89542 9.10449 5 8 5C6.89539 5 6 5.89542 6 7C6 8.10458 6.89539 9 8 9Z" fill="white"/>
<path fill-rule="evenodd" clip-rule="evenodd" d="M6 12C6 13.6569 4.65686 15 3 15C1.34314 15 0 13.6569 0 12C0 10.3431 1.34314 9 3 9C4.65686 9 6 10.3431 6 12ZM3.34998 10.7004C3.34998 10.5071 3.19336 10.3504 3 10.3504C2.80676 10.3504 2.65002 10.5071 2.65002 10.7004V11.65H1.70044C1.5072 11.65 1.35046 11.8067 1.35046 12C1.35046 12.1933 1.5072 12.35 1.70044 12.35H2.65002V13.2996C2.65002 13.4929 2.80676 13.6496 3 13.6496C3.19336 13.6496 3.34998 13.4929 3.34998 13.2996V12.35H4.29956C4.49292 12.35 4.64966 12.1933 4.64966 12C4.64966 11.8067 4.49292 11.65 4.29956 11.65H3.34998V10.7004Z" fill="white"/>
</svg>
