<svg width="16" height="16" viewBox="0 0 16 16" fill="none" xmlns="http://www.w3.org/2000/svg">
<path fill-rule="evenodd" clip-rule="evenodd" d="M8 3C5.23858 3 3 5.23858 3 8C3 8.34343 3.03455 8.67835 3.10025 9.00164C4.11278 9.03488 4.99766 9.5697 5.51556 10.365C6.1977 9.82378 7.06122 9.5 8 9.5C9.50891 9.5 10.8218 10.3353 11.503 11.5678C12.4275 10.66 13 9.39694 13 8C13 5.23858 10.7614 3 8 3ZM10.7069 12.2047C10.2232 11.1959 9.19236 10.5 8 10.5C7.19515 10.5 6.4647 10.8164 5.92545 11.3329C5.97428 11.5478 6 11.7711 6 12C6 12.1914 5.98202 12.3789 5.94758 12.5608C6.57333 12.8429 7.26779 13 8 13C8.99806 13 9.92683 12.708 10.7069 12.2047ZM5.59852 13.5C6.3343 13.8216 7.14682 14 8 14C9.35949 14 10.6147 13.5473 11.621 12.7845C13.0654 11.6898 14 9.95397 14 8C14 4.68629 11.3137 2 8 2C4.68629 2 2 4.68629 2 8C2 8.38776 2.03685 8.76729 2.10733 9.13517C0.886272 9.51529 0 10.6539 0 12C0 13.6569 1.34315 15 3 15C4.11099 15 5.08005 14.3963 5.59852 13.5ZM8 6C7.44772 6 7 6.44771 7 7C7 7.55228 7.44772 8 8 8C8.55229 8 9 7.55228 9 7C9 6.44772 8.55229 6 8 6ZM6 7C6 5.89543 6.89543 5 8 5C9.10457 5 10 5.89543 10 7C10 8.10457 9.10457 9 8 9C6.89543 9 6 8.10457 6 7ZM3 10C2.9216 10 2.84444 10.0045 2.76875 10.0132C1.77333 10.1275 1 10.9738 1 12C1 13.1046 1.89543 14 3 14C3.87214 14 4.61512 13.4415 4.88831 12.6611C4.96052 12.4548 5 12.2325 5 12C5 11.7735 4.96253 11.5567 4.89385 11.355C4.62531 10.5662 3.87813 10 3 10Z" fill="white"/>
<path fill-rule="evenodd" clip-rule="evenodd" d="M3.00035 10.5488C3.19365 10.5488 3.35035 10.7055 3.35035 10.8988V11.6504H4.10188C4.29518 11.6504 4.45188 11.8071 4.45188 12.0004C4.45188 12.1937 4.29518 12.3504 4.10188 12.3504H3.35035V13.1019C3.35035 13.2952 3.19365 13.4519 3.00035 13.4519C2.80705 13.4519 2.65035 13.2952 2.65035 13.1019V12.3504H1.89883C1.70553 12.3504 1.54883 12.1937 1.54883 12.0004C1.54883 11.8071 1.70553 11.6504 1.89883 11.6504H2.65035V10.8988C2.65035 10.7055 2.80705 10.5488 3.00035 10.5488Z" fill="white"/>
</svg>
