<svg width="24" height="24" viewBox="0 0 24 24" fill="none" xmlns="http://www.w3.org/2000/svg">
<path d="M12 11C14.2091 11 16 9.20911 16 7C16 4.79089 14.2091 3 12 3C9.79089 3 8 4.79089 8 7C8 9.20911 9.79089 11 12 11Z" fill="white"/>
<path d="M11.5803 21C11.2133 21 10.9683 20.6152 11.079 20.2653C11.255 19.7083 11.35 19.1152 11.35 18.5C11.35 16.454 10.2996 14.6533 8.70862 13.6078C8.37073 13.3857 8.34753 12.869 8.71606 12.7029C9.71802 12.2513 10.8297 12 12 12C16.4183 12 20 15.5818 20 20C20 20.5522 19.5522 21 19 21H11.5803Z" fill="white"/>
<path fill-rule="evenodd" clip-rule="evenodd" d="M5.5 23C7.98523 23 10 20.9854 10 18.5C10 16.0146 7.98523 14 5.5 14C3.01477 14 1 16.0146 1 18.5C1 20.9854 3.01477 23 5.5 23ZM5.5 16C5.77612 16 6 16.2239 6 16.5V18H7.5C7.77612 18 8 18.2239 8 18.5C8 18.7761 7.77612 19 7.5 19H6V20.5C6 20.7761 5.77612 21 5.5 21C5.22388 21 5 20.7761 5 20.5V19H3.5C3.22388 19 3 18.7761 3 18.5C3 18.2239 3.22388 18 3.5 18H5V16.5C5 16.2239 5.22388 16 5.5 16Z" fill="white"/>
</svg>
