<svg width="24" height="24" viewBox="0 0 24 24" fill="none" xmlns="http://www.w3.org/2000/svg">
<path fill-rule="evenodd" clip-rule="evenodd" d="M15.0002 4.17495C12.3354 4.17495 10.1752 6.33518 10.1752 8.99995C10.1752 9.62935 10.2954 10.229 10.5134 10.7785C10.6259 11.062 10.5634 11.3913 10.3411 11.6136L4.1752 17.7795V19.5C4.1752 19.6794 4.3207 19.825 4.5002 19.825H6.2206L6.3252 19.7204V18.51C6.3252 18.1316 6.63188 17.825 7.0102 17.825H7.8252V17.01C7.8252 16.6316 8.13188 16.325 8.5102 16.325H9.3252V15.51C9.3252 15.1316 9.63188 14.825 10.0102 14.825H11.2206L12.3865 13.659C12.6088 13.4367 12.9382 13.3743 13.2216 13.4868C13.7711 13.7048 14.3708 13.825 15.0002 13.825C17.665 13.825 19.8252 11.6647 19.8252 8.99995C19.8252 6.33518 17.665 4.17495 15.0002 4.17495ZM8.8252 8.99995C8.8252 5.58959 11.5898 2.82495 15.0002 2.82495C18.4106 2.82495 21.1752 5.58959 21.1752 8.99995C21.1752 12.4103 18.4106 15.175 15.0002 15.175C14.332 15.175 13.6874 15.0686 13.0833 14.8714L11.9804 15.9743C11.852 16.1028 11.6777 16.175 11.4961 16.175H10.6752V16.99C10.6752 17.3683 10.3685 17.675 9.9902 17.675H9.1752V18.49C9.1752 18.8683 8.86851 19.175 8.4902 19.175H7.6752V19.9958C7.6752 20.1775 7.60303 20.3517 7.47456 20.4802L6.98042 20.9743C6.85196 21.1028 6.67773 21.1749 6.49605 21.1749H4.5002C3.57512 21.1749 2.8252 20.425 2.8252 19.5V17.5041C2.8252 17.3224 2.89737 17.1482 3.02583 17.0197L9.1287 10.9169C8.93158 10.3127 8.8252 9.6682 8.8252 8.99995ZM16.0002 7.17495C15.5446 7.17495 15.1752 7.54432 15.1752 7.99995C15.1752 8.45559 15.5446 8.82495 16.0002 8.82495C16.4558 8.82495 16.8252 8.45559 16.8252 7.99995C16.8252 7.54432 16.4558 7.17495 16.0002 7.17495ZM13.8252 7.99995C13.8252 6.79873 14.799 5.82495 16.0002 5.82495C17.2014 5.82495 18.1752 6.79873 18.1752 7.99995C18.1752 9.20117 17.2014 10.175 16.0002 10.175C14.799 10.175 13.8252 9.20117 13.8252 7.99995Z" fill="white"/>
</svg>
