<svg width="16" height="16" viewBox="0 0 16 16" fill="none" xmlns="http://www.w3.org/2000/svg">
<path fill-rule="evenodd" clip-rule="evenodd" d="M9.94118 3C8.25183 3 6.88235 4.36948 6.88235 6.05882C6.88235 6.45082 6.95584 6.82446 7.08934 7.16756C7.17393 7.38495 7.12707 7.63886 6.95456 7.81137L3 11.7659V13H4.23407L4.26471 12.9694V12.2159C4.26471 11.9342 4.49303 11.7059 4.77471 11.7059H5.23529V11.2453C5.23529 10.9636 5.46361 10.7353 5.74529 10.7353H6.20588V10.2747C6.20588 9.99303 6.43423 9.76471 6.71588 9.76471H7.46936L8.18863 9.04544C8.36114 8.87293 8.61505 8.82607 8.83244 8.91066C9.17554 9.04416 9.54918 9.11765 9.94118 9.11765C11.6305 9.11765 13 7.74817 13 6.05882C13 4.36948 11.6305 3 9.94118 3ZM5.88235 6.05882C5.88235 3.8172 7.69955 2 9.94118 2C12.1828 2 14 3.8172 14 6.05882C14 8.30045 12.1828 10.1176 9.94118 10.1176C9.51566 10.1176 9.10467 10.052 8.71825 9.93003L8.03295 10.6153C7.93729 10.711 7.80756 10.7647 7.67233 10.7647H7.20588V11.2253C7.20588 11.5069 6.97758 11.7353 6.69588 11.7353H6.23529V12.1959C6.23529 12.4775 6.00698 12.7059 5.72529 12.7059H5.26471V13.1723C5.26471 13.3076 5.21098 13.4373 5.11529 13.533L4.79766 13.8506C4.70205 13.9462 4.57232 14 4.43703 14H2.9C2.40294 14 2 13.5971 2 13.1V11.563C2 11.4277 2.05371 11.298 2.14938 11.2023L6.06997 7.28175C5.948 6.89533 5.88235 6.48434 5.88235 6.05882ZM10.5 5C10.2239 5 10 5.22386 10 5.5C10 5.77614 10.2239 6 10.5 6C10.7761 6 11 5.77614 11 5.5C11 5.22386 10.7761 5 10.5 5ZM9 5.5C9 4.67157 9.67157 4 10.5 4C11.3284 4 12 4.67157 12 5.5C12 6.32843 11.3284 7 10.5 7C9.67157 7 9 6.32843 9 5.5Z" fill="white"/>
</svg>
