<svg width="16" height="16" viewBox="0 0 16 16" fill="none" xmlns="http://www.w3.org/2000/svg">
<path fill-rule="evenodd" clip-rule="evenodd" d="M10 10C12.2091 10 14 8.20914 14 6C14 3.79086 12.2091 2 10 2C7.79086 2 6 3.79086 6 6C6 6.49659 6.09049 6.97204 6.25588 7.41076L2.19526 11.4714C2.07024 11.5964 2 11.766 2 11.9428V13C2 13.5523 2.44772 14 3 14H4.05719C4.234 14 4.40357 13.9297 4.5286 13.8047L5 13.3333V12.3333H6V11.3333H7V10.3333H8L8.58921 9.74411C9.02794 9.9095 9.5034 10 10 10ZM11 6C11.5523 6 12 5.55228 12 5C12 4.44772 11.5523 4 11 4C10.4477 4 10 4.44772 10 5C10 5.55228 10.4477 6 11 6Z" fill="white"/>
</svg>
