<svg width="24" height="24" viewBox="0 0 24 24" fill="none" xmlns="http://www.w3.org/2000/svg">
<path fill-rule="evenodd" clip-rule="evenodd" d="M21 9C21 12.3137 18.3137 15 15 15C14.2551 15 13.5419 14.8643 12.8838 14.6162L12 15.5H10.5V17H9V18.5H7.5V20L6.79289 20.7071C6.60536 20.8946 6.351 21 6.08579 21H4.5C3.67157 21 3 20.3284 3 19.5V17.9142C3 17.649 3.10536 17.3946 3.29289 17.2071L9.38383 11.1162C9.13574 10.4581 9 9.74489 9 9C9 5.68629 11.6863 3 15 3C18.3137 3 21 5.68629 21 9ZM17.5 8C17.5 8.82843 16.8284 9.5 16 9.5C15.1716 9.5 14.5 8.82843 14.5 8C14.5 7.17157 15.1716 6.5 16 6.5C16.8284 6.5 17.5 7.17157 17.5 8Z" fill="white"/>
</svg>
