<svg width="16" height="16" viewBox="0 0 16 16" fill="none" xmlns="http://www.w3.org/2000/svg">
<path fill-rule="evenodd" clip-rule="evenodd" d="M13.1 3C13.5971 3 14 3.40295 14 3.90002V12.1C14 12.597 13.5971 13 13.1 13H2.89999C2.40294 13 2 12.597 2 12.1L2 3.90002C2 3.40295 2.40294 3 2.89999 3L13.1 3ZM5 6.5C5 5.67157 5.67157 5 6.5 5C7.32843 5 8 5.67157 8 6.5C8 7.32843 7.32843 8 6.5 8C5.67157 8 5 7.32843 5 6.5ZM10.8535 7.14645L13 9.29292V12H3V10.2929L4.14642 9.14645C4.34169 8.95119 4.65827 8.95119 4.85353 9.14645L6.49998 10.7929L10.1464 7.14645C10.3417 6.95118 10.6583 6.95118 10.8535 7.14645Z" fill="white"/>
</svg>
