<svg width="24" height="24" viewBox="0 0 24 24" fill="none" xmlns="http://www.w3.org/2000/svg">
<path fill-rule="evenodd" clip-rule="evenodd" d="M20.5 4C21.3284 4 22 4.67163 22 5.5V18.5C22 19.3284 21.3284 20 20.5 20H3.5C2.67157 20 2 19.3284 2 18.5L2 5.5C2 4.67163 2.67157 4 3.5 4L20.5 4ZM5.99998 9.5C5.99998 8.11929 7.11926 7 8.49998 7C9.88069 7 11 8.11929 11 9.5C11 10.8807 9.88069 12 8.49998 12C7.11926 12 5.99998 10.8807 5.99998 9.5ZM15.9773 10.0227L20.65 14.6954V18.5C20.65 18.5828 20.5828 18.65 20.5 18.65L3.49998 18.65C3.41717 18.65 3.34998 18.5828 3.34998 18.5L3.34998 15.6954L5.52268 13.5227C5.78629 13.2591 6.21367 13.2591 6.47728 13.5227L8.99998 16.0454L15.0227 10.0227C15.2863 9.75905 15.7137 9.75905 15.9773 10.0227Z" fill="white"/>
</svg>
