<svg width="24" height="24" viewBox="0 0 24 24" fill="none" xmlns="http://www.w3.org/2000/svg">
<path fill-rule="evenodd" clip-rule="evenodd" d="M3.50001 5.17495C3.32052 5.17495 3.17501 5.32046 3.17501 5.49995L3.17501 15.8704L5.52272 13.5227C5.6493 13.3961 5.82099 13.325 6.00001 13.325C6.17903 13.325 6.35072 13.3961 6.47731 13.5227L9.00001 16.0454L15.0227 10.0227C15.1493 9.89607 15.321 9.82495 15.5 9.82495C15.679 9.82495 15.8507 9.89607 15.9773 10.0227L20.825 14.8704V5.49995C20.825 5.32046 20.6795 5.17495 20.5 5.17495L3.50001 5.17495ZM20.825 16.7795L15.5 11.4545L9.47731 17.4772C9.35072 17.6038 9.17903 17.675 9.00001 17.675C8.82099 17.675 8.6493 17.6038 8.52272 17.4772L6.00001 14.9545L3.17501 17.7795V18.5C3.17501 18.6794 3.32052 18.825 3.50001 18.825L20.5 18.825C20.6795 18.825 20.825 18.6794 20.825 18.5V16.7795ZM1.82501 5.49995C1.82501 4.57487 2.57494 3.82495 3.50001 3.82495L20.5 3.82495C21.4251 3.82495 22.175 4.57488 22.175 5.49995V18.5C22.175 19.425 21.4251 20.175 20.5 20.175H3.50001C2.57494 20.175 1.82501 19.425 1.82501 18.5L1.82501 5.49995ZM8.50001 7.67495C7.49209 7.67495 6.67501 8.49203 6.67501 9.49995C6.67501 10.5079 7.49209 11.325 8.50001 11.325C9.50793 11.325 10.325 10.5079 10.325 9.49995C10.325 8.49203 9.50793 7.67495 8.50001 7.67495ZM5.32501 9.49995C5.32501 7.74645 6.74651 6.32495 8.50001 6.32495C10.2535 6.32495 11.675 7.74645 11.675 9.49995C11.675 11.2535 10.2535 12.675 8.50001 12.675C6.74651 12.675 5.32501 11.2535 5.32501 9.49995Z" fill="white"/>
</svg>
