<svg width="16" height="16" viewBox="0 0 16 16" fill="none" xmlns="http://www.w3.org/2000/svg">
<path fill-rule="evenodd" clip-rule="evenodd" d="M2.5 3.5L2.5 10.7929L4.14645 9.14645C4.24022 9.05268 4.36739 9 4.5 9C4.63261 9 4.75979 9.05268 4.85355 9.14645L6.5 10.7929L10.1464 7.14645C10.2402 7.05268 10.3674 7 10.5 7C10.6326 7 10.7598 7.05268 10.8536 7.14645L13.5 9.79289V3.5L2.5 3.5ZM13.5 11.2071L10.5 8.20711L6.85355 11.8536C6.75979 11.9473 6.63261 12 6.5 12C6.36739 12 6.24022 11.9473 6.14645 11.8536L4.5 10.2071L2.5 12.2071V12.5L13.5 12.5V11.2071ZM1.5 3.4C1.5 2.90294 1.90294 2.5 2.4 2.5L13.6 2.5C14.0971 2.5 14.5 2.90294 14.5 3.4V12.6C14.5 13.0971 14.0971 13.5 13.6 13.5L2.4 13.5C1.90294 13.5 1.5 13.0971 1.5 12.6L1.5 3.4ZM6.5 5.5C5.94772 5.5 5.5 5.94772 5.5 6.5C5.5 7.05229 5.94772 7.5 6.5 7.5C7.05229 7.5 7.5 7.05229 7.5 6.5C7.5 5.94772 7.05229 5.5 6.5 5.5ZM4.5 6.5C4.5 5.39543 5.39543 4.5 6.5 4.5C7.60457 4.5 8.5 5.39543 8.5 6.5C8.5 7.60457 7.60457 8.5 6.5 8.5C5.39543 8.5 4.5 7.60457 4.5 6.5Z" fill="white"/>
</svg>
