<svg width="24" height="24" viewBox="0 0 24 24" fill="none" xmlns="http://www.w3.org/2000/svg">
<g clip-path="url(#clip0_41_19222)">
<path d="M15.2791 15.4249C15.0157 14.9459 14.8669 14.5112 14.783 14.1752H17.2172C17.1333 14.5112 16.9846 14.9459 16.7212 15.4249C16.5424 15.7499 16.3082 16.1002 16.0001 16.4567C15.6921 16.1002 15.4579 15.7499 15.2791 15.4249Z" fill="white"/>
<path fill-rule="evenodd" clip-rule="evenodd" d="M2.5002 0.825195C1.57512 0.825195 0.825195 1.57512 0.825195 2.5002V13.5002C0.825195 14.4253 1.57512 15.1752 2.5002 15.1752H8.8252V21.5002C8.8252 22.4253 9.57512 23.1752 10.5002 23.1752H21.5002C22.4253 23.1752 23.1752 22.4253 23.1752 21.5002V10.5002C23.1752 9.57512 22.4253 8.8252 21.5002 8.8252H15.1752V2.5002C15.1752 1.57512 14.4253 0.825195 13.5002 0.825195H2.5002ZM13.8252 8.8252V2.5002C13.8252 2.3207 13.6797 2.1752 13.5002 2.1752H2.5002C2.3207 2.1752 2.1752 2.3207 2.1752 2.5002V13.5002C2.1752 13.6797 2.3207 13.8252 2.5002 13.8252H8.8252V10.5002C8.8252 10.389 8.83603 10.2803 8.8567 10.1752H6.30236L5.62055 11.7661C5.4737 12.1087 5.07688 12.2675 4.73423 12.1206C4.39158 11.9738 4.23285 11.577 4.3797 11.2343L7.3797 4.2343C7.48607 3.98611 7.73011 3.8252 8.00012 3.8252C8.27014 3.8252 8.51418 3.98611 8.62055 4.2343L10.5881 8.8252H13.8252ZM6.88093 8.8252H9.11932L8.00012 6.21374L6.88093 8.8252ZM16.1405 11.7867C16.0226 11.4331 15.6403 11.2419 15.2867 11.3598C14.933 11.4777 14.7419 11.86 14.8598 12.2136L15.0636 12.8252H12.5001C12.1273 12.8252 11.8251 13.1274 11.8251 13.5002C11.8251 13.873 12.1273 14.1752 12.5001 14.1752H13.4015C13.4088 14.2141 13.4169 14.2545 13.4257 14.2961C13.5232 14.7569 13.7157 15.3837 14.0962 16.0755C14.3298 16.5002 14.6315 16.9444 15.0197 17.3865C14.3335 17.9253 13.4385 18.4407 12.2695 18.8658C11.9191 18.9932 11.7384 19.3805 11.8658 19.7309C11.9932 20.0812 12.3805 20.262 12.7308 20.1346C14.1141 19.6315 15.1801 19.0026 16.0001 18.3307C16.8202 19.0026 17.8862 19.6315 19.2695 20.1346C19.6198 20.262 20.0071 20.0812 20.1345 19.7309C20.2619 19.3805 20.0812 18.9932 19.7308 18.8658C18.5618 18.4407 17.6668 17.9253 16.9805 17.3865C17.3688 16.9444 17.6705 16.5002 17.9041 16.0755C18.2846 15.3837 18.4771 14.7569 18.5746 14.2961C18.5834 14.2545 18.5914 14.2141 18.5988 14.1752H19.5001C19.8729 14.1752 20.1751 13.873 20.1751 13.5002C20.1751 13.1274 19.8729 12.8252 19.5001 12.8252H16.4866L16.1405 11.7867Z" fill="white"/>
</g>
<defs>
<clipPath id="clip0_41_19222">
<rect width="24" height="24" fill="white"/>
</clipPath>
</defs>
</svg>
