<svg width="16" height="16" viewBox="0 0 16 16" fill="none" xmlns="http://www.w3.org/2000/svg">
<g clip-path="url(#clip0_41_19284)">
<path d="M10.0631 10.259C9.90565 9.97281 9.81063 9.71078 9.75328 9.5H11.2467C11.1893 9.71078 11.0943 9.97281 10.9369 10.259C10.8268 10.4591 10.6846 10.6742 10.5 10.8939C10.3154 10.6742 10.1731 10.4591 10.0631 10.259Z" fill="white"/>
<path fill-rule="evenodd" clip-rule="evenodd" d="M1.4 0.5C0.902944 0.5 0.5 0.902943 0.5 1.4V9.6C0.5 10.0971 0.902943 10.5 1.4 10.5H5.5V14.6C5.5 15.0971 5.90294 15.5 6.4 15.5H14.6C15.0971 15.5 15.5 15.0971 15.5 14.6V6.4C15.5 5.90294 15.0971 5.5 14.6 5.5H10.5V1.4C10.5 0.902944 10.0971 0.5 9.6 0.5H1.4ZM9.5 5.5V1.5H1.5V9.5H5.5V7H4.40101L3.95946 8.0303C3.85068 8.28411 3.55674 8.40169 3.30292 8.29291C3.04911 8.18413 2.93153 7.89019 3.04031 7.63638L5.04031 2.96971C5.1191 2.78587 5.29987 2.66667 5.49988 2.66667C5.6999 2.66667 5.88067 2.78587 5.95946 2.96971L7.04387 5.5H9.5ZM5.59355 6C5.68039 5.82526 5.82236 5.68274 5.9967 5.5952L5.49988 4.43597L4.82958 6H5.59355ZM10.641 7.84188C10.5537 7.57991 10.2705 7.43833 10.0085 7.52566C9.74655 7.61298 9.60497 7.89614 9.6923 8.15811L9.80626 8.5H8.16664C7.8905 8.5 7.66664 8.72386 7.66664 9C7.66664 9.27614 7.8905 9.5 8.16664 9.5H8.72632L8.73476 9.54098C8.80059 9.8522 8.9305 10.2748 9.18686 10.741C9.33732 11.0145 9.52947 11.2996 9.77398 11.5838C9.32622 11.9281 8.74676 12.257 7.99577 12.5301C7.73625 12.6245 7.60237 12.9114 7.69674 13.1709C7.79111 13.4304 8.07799 13.5643 8.33751 13.4699C9.2473 13.1391 9.95323 12.7266 10.5 12.2848C11.0467 12.7266 11.7526 13.1391 12.6624 13.4699C12.922 13.5643 13.2088 13.4304 13.3032 13.1709C13.3976 12.9114 13.2637 12.6245 13.0042 12.5301C12.2532 12.257 11.6737 11.9281 11.226 11.5838C11.4705 11.2996 11.6626 11.0145 11.8131 10.741C12.0695 10.2748 12.1994 9.8522 12.2652 9.54098L12.2736 9.5H12.8333C13.1094 9.5 13.3333 9.27614 13.3333 9C13.3333 8.72386 13.1094 8.5 12.8333 8.5H10.8604L10.641 7.84188Z" fill="white"/>
</g>
<defs>
<clipPath id="clip0_41_19284">
<rect width="16" height="16" fill="white"/>
</clipPath>
</defs>
</svg>
