<svg width="16" height="16" viewBox="0 0 16 16" fill="none" xmlns="http://www.w3.org/2000/svg">
<g clip-path="url(#clip0_41_19194)">
<path fill-rule="evenodd" clip-rule="evenodd" d="M0.550049 1.40005C0.550049 0.930606 0.930607 0.550049 1.40005 0.550049H9.60005C10.0695 0.550049 10.45 0.930607 10.45 1.40005V5.55005H14.6C15.0695 5.55005 15.45 5.93061 15.45 6.40005V14.6C15.45 15.0695 15.0695 15.45 14.6 15.45H6.40005C5.93061 15.45 5.55005 15.0695 5.55005 14.6V10.45H1.40005C0.930606 10.45 0.550049 10.0695 0.550049 9.60005V1.40005ZM5.55005 9.55005V6.95005H4.36821L3.91366 8.01065C3.81576 8.23908 3.55122 8.3449 3.32279 8.247C3.09435 8.1491 2.98853 7.88455 3.08643 7.65612L5.08643 2.98945C5.15734 2.82399 5.32004 2.71672 5.50005 2.71672C5.68006 2.71672 5.84275 2.82399 5.91366 2.98945L7.01106 5.55005H9.55005V1.45005H1.45005V9.55005H5.55005ZM6.06186 5.61999L5.50005 4.30908L4.75392 6.05005H5.62522C5.71211 5.85801 5.86828 5.70402 6.06186 5.61999ZM6.45005 6.45005V14.55H14.55V6.45005H6.45005ZM10.0244 7.57314C10.2602 7.49455 10.515 7.62197 10.5936 7.85775L10.8244 8.55005H12.8334C13.0819 8.55005 13.2834 8.75152 13.2834 9.00005C13.2834 9.24858 13.0819 9.45005 12.8334 9.45005H12.2325C12.2045 9.59874 12.161 9.7785 12.0934 9.98011C11.9388 10.4417 11.6586 11.0159 11.1537 11.5909C11.6091 11.9485 12.2053 12.2928 12.9872 12.5771C13.2207 12.6621 13.3412 12.9203 13.2563 13.1538C13.1714 13.3874 12.9132 13.5079 12.6796 13.423C11.7603 13.0887 11.049 12.6702 10.5001 12.2204C9.95106 12.6702 9.2398 13.0887 8.3205 13.423C8.08694 13.5079 7.82874 13.3874 7.74381 13.1538C7.65888 12.9203 7.77937 12.6621 8.01293 12.5771C8.79477 12.2928 9.39096 11.9485 9.84644 11.5909C9.34151 11.0159 9.06133 10.4417 8.90669 9.98011C8.83915 9.7785 8.79564 9.59874 8.76762 9.45005H8.16672C7.91819 9.45005 7.71672 9.24858 7.71672 9.00005C7.71672 8.75152 7.91819 8.55005 8.16672 8.55005H9.87571L9.73981 8.14235C9.66122 7.90658 9.78864 7.65173 10.0244 7.57314ZM9.68864 9.45005C9.70725 9.52454 9.73065 9.60638 9.76007 9.6942C9.87918 10.0497 10.0975 10.5051 10.5 10.9711C10.9026 10.5051 11.1209 10.0497 11.24 9.6942C11.2694 9.60638 11.2928 9.52454 11.3115 9.45005H9.68864Z" fill="white"/>
</g>
<defs>
<clipPath id="clip0_41_19194">
<rect width="16" height="16" fill="white"/>
</clipPath>
</defs>
</svg>
