<svg width="24" height="24" viewBox="0 0 24 24" fill="none" xmlns="http://www.w3.org/2000/svg">
<g clip-path="url(#clip0_41_19220)">
<path fill-rule="evenodd" clip-rule="evenodd" d="M0.824951 2.49995C0.824951 1.57487 1.57487 0.824951 2.49995 0.824951H13.5C14.425 0.824951 15.175 1.57487 15.175 2.49995V8.82495H21.5C22.425 8.82495 23.1749 9.57487 23.1749 10.5V21.5C23.1749 22.425 22.425 23.1749 21.5 23.1749H10.5C9.57487 23.1749 8.82495 22.425 8.82495 21.5V15.175H2.49995C1.57487 15.175 0.824951 14.425 0.824951 13.5V2.49995ZM8.82495 13.825V10.5C8.82495 10.3887 8.83578 10.2801 8.85645 10.175H6.30219L5.62037 11.7658C5.47352 12.1085 5.07671 12.2672 4.73406 12.1204C4.39141 11.9735 4.23268 11.5767 4.37953 11.2341L7.37953 4.23406C7.48589 3.98587 7.72993 3.82495 7.99995 3.82495C8.26997 3.82495 8.51401 3.98587 8.62037 4.23406L10.5879 8.82495H13.825V2.49995C13.825 2.32046 13.6794 2.17495 13.5 2.17495H2.49995C2.32046 2.17495 2.17495 2.32046 2.17495 2.49995V13.5C2.17495 13.6794 2.32046 13.825 2.49995 13.825H8.82495ZM9.11914 8.82495L7.99995 6.2135L6.88076 8.82495H9.11914ZM10.5 10.175C10.4608 10.175 10.4247 10.1816 10.3917 10.1932C10.2645 10.2381 10.175 10.3594 10.175 10.5V21.5C10.175 21.6794 10.3205 21.825 10.5 21.825H21.5C21.6794 21.825 21.825 21.6794 21.825 21.5V10.5C21.825 10.3205 21.6794 10.175 21.5 10.175H10.5ZM15.2865 11.3596C15.6402 11.2417 16.0224 11.4328 16.1403 11.7865L16.4865 12.825H19.5C19.8727 12.825 20.1749 13.1272 20.1749 13.5C20.1749 13.8727 19.8727 14.175 19.5 14.175H18.5986C18.5566 14.398 18.4913 14.6676 18.39 14.97C18.158 15.6624 17.7378 16.5238 16.9804 17.3863C17.6636 17.9227 18.5579 18.4391 19.7306 18.8656C20.081 18.993 20.2617 19.3803 20.1343 19.7306C20.0069 20.081 19.6196 20.2617 19.2693 20.1343C17.8903 19.6329 16.8234 19.0052 16 18.3305C15.1765 19.0052 14.1096 19.6329 12.7306 20.1343C12.3803 20.2617 11.993 20.081 11.8656 19.7306C11.7382 19.3803 11.9189 18.993 12.2693 18.8656C13.442 18.4391 14.3363 17.9227 15.0195 17.3863C14.2621 16.5238 13.8419 15.6624 13.6099 14.97C13.5086 14.6676 13.4433 14.398 13.4013 14.175H12.5C12.1272 14.175 11.825 13.8727 11.825 13.5C11.825 13.1272 12.1272 12.825 12.5 12.825H15.0634L14.8596 12.2134C14.7417 11.8597 14.9328 11.4775 15.2865 11.3596ZM14.7828 14.175C14.8108 14.2867 14.8459 14.4094 14.89 14.5412C15.0686 15.0744 15.3961 15.7575 16 16.4565C16.6038 15.7575 16.9313 15.0744 17.1099 14.5412C17.154 14.4094 17.1891 14.2867 17.2171 14.175H14.7828Z" fill="white"/>
</g>
<defs>
<clipPath id="clip0_41_19220">
<rect width="24" height="24" fill="white"/>
</clipPath>
</defs>
</svg>
