<svg width="20" height="20" viewBox="0 0 20 20" fill="none" xmlns="http://www.w3.org/2000/svg">
<path fill-rule="evenodd" clip-rule="evenodd" d="M1.521 3.75C1.521 3.43934 1.77284 3.1875 2.0835 3.1875H7.50016C8.5324 3.1875 9.44536 3.69819 10.0002 4.4807C10.555 3.69819 11.4679 3.1875 12.5002 3.1875H17.9168C18.2275 3.1875 18.4793 3.43934 18.4793 3.75V15.4167C18.4793 15.7273 18.2275 15.9792 17.9168 15.9792H14.8634C15.5658 14.9991 15.9793 13.7978 15.9793 12.5C15.9793 12.2641 15.9657 12.0314 15.9391 11.8026C16.1993 11.7532 16.396 11.5246 16.396 11.25C16.396 10.9393 16.1442 10.6875 15.8335 10.6875H15.6997C15.5445 10.199 15.3282 9.73764 15.0598 9.3125H15.8335C16.1442 9.3125 16.396 9.06066 16.396 8.75C16.396 8.43934 16.1442 8.1875 15.8335 8.1875H14.1418C13.0672 7.1553 11.6078 6.52083 10.0002 6.52083C8.39253 6.52083 6.93308 7.1553 5.85856 8.1875H4.16683C3.85617 8.1875 3.60433 8.43934 3.60433 8.75C3.60433 9.06066 3.85617 9.3125 4.16683 9.3125H4.94056C4.67216 9.73764 4.45587 10.199 4.30065 10.6875H4.16683C3.85617 10.6875 3.60433 10.9393 3.60433 11.25C3.60433 11.5246 3.80105 11.7532 4.06123 11.8026C4.03466 12.0314 4.021 12.2641 4.021 12.5C4.021 13.7978 4.43448 14.9991 5.1369 15.9792H2.0835C1.77284 15.9792 1.521 15.7273 1.521 15.4167V3.75ZM3.60433 6.25C3.60433 5.93934 3.85617 5.6875 4.16683 5.6875H7.50016C7.81082 5.6875 8.06266 5.93934 8.06266 6.25C8.06266 6.56066 7.81082 6.8125 7.50016 6.8125H4.16683C3.85617 6.8125 3.60433 6.56066 3.60433 6.25ZM11.9377 6.25C11.9377 5.93934 12.1895 5.6875 12.5002 5.6875H15.8335C16.1442 5.6875 16.396 5.93934 16.396 6.25C16.396 6.56066 16.1442 6.8125 15.8335 6.8125H12.5002C12.1895 6.8125 11.9377 6.56066 11.9377 6.25Z" fill="white"/>
<path fill-rule="evenodd" clip-rule="evenodd" d="M10.0001 7.64592C7.31926 7.64592 5.14598 9.8192 5.14598 12.5001C5.14598 15.181 7.31926 17.3542 10.0001 17.3542C12.681 17.3542 14.8543 15.181 14.8543 12.5001C14.8543 9.8192 12.681 7.64592 10.0001 7.64592ZM8.7502 10.983V14.0167C8.7502 14.2708 9.02324 14.4315 9.24542 14.3081L11.9757 12.7912C12.2043 12.6642 12.2043 12.3355 11.9757 12.2085L9.24542 10.6916C9.02324 10.5682 8.7502 10.7288 8.7502 10.983Z" fill="white"/>
</svg>
