<svg width="24" height="24" viewBox="0 0 24 24" fill="none" xmlns="http://www.w3.org/2000/svg">
<path fill-rule="evenodd" clip-rule="evenodd" d="M7.82501 1.99995C7.82501 1.62716 8.12722 1.32495 8.50001 1.32495H10.5C10.8728 1.32495 11.175 1.62716 11.175 1.99995V2.82495H12.825V1.99995C12.825 1.62716 13.1272 1.32495 13.5 1.32495H15.5C15.8728 1.32495 16.175 1.62716 16.175 1.99995V2.82495H17C17.3728 2.82495 17.675 3.12716 17.675 3.49995V9.99995C17.675 10.3727 17.3728 10.675 17 10.675H7.00001C6.62722 10.675 6.32501 10.3727 6.32501 9.99995V3.49995C6.32501 3.12716 6.62722 2.82495 7.00001 2.82495H7.82501V1.99995ZM9.17501 2.67495V3.49995C9.17501 3.87274 8.8728 4.17495 8.50001 4.17495H7.67501V9.32495H16.325V4.17495H15.5C15.1272 4.17495 14.825 3.87274 14.825 3.49995V2.67495H14.175V3.49995C14.175 3.87274 13.8728 4.17495 13.5 4.17495H10.5C10.1272 4.17495 9.82501 3.87274 9.82501 3.49995V2.67495H9.17501ZM2.82501 12.5C2.82501 12.1272 3.12722 11.825 3.50001 11.825H5.50001C5.8728 11.825 6.17501 12.1272 6.17501 12.5V13.325H7.82501V12.5C7.82501 12.1272 8.12722 11.825 8.50001 11.825H10.5C10.8728 11.825 11.175 12.1272 11.175 12.5V13.325H12.825V12.5C12.825 12.1272 13.1272 11.825 13.5 11.825H15.5C15.8728 11.825 16.175 12.1272 16.175 12.5V13.325H17.825V12.5C17.825 12.1272 18.1272 11.825 18.5 11.825H20.5C20.8728 11.825 21.175 12.1272 21.175 12.5V13.325H22C22.3728 13.325 22.675 13.6272 22.675 14V20.5C22.675 20.8727 22.3728 21.1749 22 21.1749H2.00001C1.62722 21.1749 1.32501 20.8727 1.32501 20.5V14C1.32501 13.6272 1.62722 13.325 2.00001 13.325H2.82501V12.5ZM4.17501 13.175V14C4.17501 14.3727 3.8728 14.675 3.50001 14.675H2.67501V19.825H11.325V14.675H10.5C10.1272 14.675 9.82501 14.3727 9.82501 14V13.175H9.17501V14C9.17501 14.3727 8.8728 14.675 8.50001 14.675H5.50001C5.12722 14.675 4.82501 14.3727 4.82501 14V13.175H4.17501ZM12.675 14.675V19.825H21.325V14.675H20.5C20.1272 14.675 19.825 14.3727 19.825 14V13.175H19.175V14C19.175 14.3727 18.8728 14.675 18.5 14.675H15.5C15.1272 14.675 14.825 14.3727 14.825 14V13.175H14.175V14C14.175 14.3727 13.8728 14.675 13.5 14.675H12.675Z" fill="white"/>
</svg>
