<svg width="24" height="24" viewBox="0 0 24 24" fill="none" xmlns="http://www.w3.org/2000/svg">
<path d="M15.5 2C15.7761 2 16 2.22386 16 2.5V3.5H16.5C16.7761 3.5 17 3.72386 17 4V10C17 10.2761 16.7761 10.5 16.5 10.5H7.5C7.22386 10.5 7 10.2761 7 10V4C7 3.72386 7.22386 3.5 7.5 3.5H8V2.5C8 2.22386 8.22386 2 8.5 2H10.5C10.7761 2 11 2.22386 11 2.5V3.5H13V2.5C13 2.22386 13.2239 2 13.5 2H15.5Z" fill="white"/>
<path d="M3.5 11.5C3.22386 11.5 3 11.7239 3 12V13H2.5C2.22386 13 2 13.2239 2 13.5V19.5C2 19.7761 2.22386 20 2.5 20H11C11.2761 20 11.5 19.7761 11.5 19.5V13.5C11.5 13.2239 11.2761 13 11 13H10.5V12C10.5 11.7239 10.2761 11.5 10 11.5H8C7.72386 11.5 7.5 11.7239 7.5 12V13H6V12C6 11.7239 5.77614 11.5 5.5 11.5H3.5Z" fill="white"/>
<path d="M13 20C12.7239 20 12.5 19.7761 12.5 19.5V13.5C12.5 13.2239 12.7239 13 13 13H13.5V12C13.5 11.7239 13.7239 11.5 14 11.5H16C16.2761 11.5 16.5 11.7239 16.5 12V13H18V12C18 11.7239 18.2239 11.5 18.5 11.5H20.5C20.7761 11.5 21 11.7239 21 12V13H21.5C21.7761 13 22 13.2239 22 13.5V19.5C22 19.7761 21.7761 20 21.5 20H13Z" fill="white"/>
</svg>
