<svg width="16" height="16" viewBox="0 0 16 16" fill="none" xmlns="http://www.w3.org/2000/svg">
<path fill-rule="evenodd" clip-rule="evenodd" d="M5.25 1.5C5.25 1.22386 5.47386 1 5.75 1H7.25C7.52614 1 7.75 1.22386 7.75 1.5V2H8.25V1.5C8.25 1.22386 8.47386 1 8.75 1H10.25C10.5261 1 10.75 1.22386 10.75 1.5V2H11.25C11.5261 2 11.75 2.22386 11.75 2.5V7C11.75 7.27614 11.5261 7.5 11.25 7.5H4.75C4.47386 7.5 4.25 7.27614 4.25 7V2.5C4.25 2.22386 4.47386 2 4.75 2H5.25V1.5ZM5.25 3V6.5H10.75V3H10.25C9.97386 3 9.75 2.77614 9.75 2.5V2H9.25V2.5C9.25 2.77614 9.02614 3 8.75 3H7.25C6.97386 3 6.75 2.77614 6.75 2.5V2H6.25V2.5C6.25 2.77614 6.02614 3 5.75 3H5.25ZM2 8.5C2 8.22386 2.22386 8 2.5 8H4C4.27614 8 4.5 8.22386 4.5 8.5V9H5V8.5C5 8.22386 5.22386 8 5.5 8H7C7.27614 8 7.5 8.22386 7.5 8.5V9H8.5V8.5C8.5 8.22386 8.72386 8 9 8H10.5C10.7761 8 11 8.22386 11 8.5V9H11.5V8.5C11.5 8.22386 11.7239 8 12 8H13.5C13.7761 8 14 8.22386 14 8.5V9H14.5C14.7761 9 15 9.22386 15 9.5V14C15 14.2761 14.7761 14.5 14.5 14.5H1.5C1.22386 14.5 1 14.2761 1 14V9.5C1 9.22386 1.22386 9 1.5 9H2V8.5ZM2 10V13.5H7.5V10H7C6.72386 10 6.5 9.77614 6.5 9.5V9H6V9.5C6 9.77614 5.77614 10 5.5 10H4C3.72386 10 3.5 9.77614 3.5 9.5V9H3V9.5C3 9.77614 2.77614 10 2.5 10H2ZM8.5 10V13.5H14V10H13.5C13.2239 10 13 9.77614 13 9.5V9H12.5V9.5C12.5 9.77614 12.2761 10 12 10H10.5C10.2239 10 10 9.77614 10 9.5V9H9.5V9.5C9.5 9.77614 9.27614 10 9 10H8.5Z" fill="white"/>
</svg>
