<svg width="16" height="16" viewBox="0 0 16 16" fill="none" xmlns="http://www.w3.org/2000/svg">
<path d="M6.125 3V2.25C6.125 2.11193 6.23693 2 6.375 2H7.375C7.51307 2 7.625 2.11193 7.625 2.25V3H8.375V2.25C8.375 2.11193 8.48693 2 8.625 2H9.625C9.76307 2 9.875 2.11193 9.875 2.25V3H10.5C10.7761 3 11 3.22386 11 3.5V7C11 7.27614 10.7761 7.5 10.5 7.5H5.5C5.22386 7.5 5 7.27614 5 7V3.5C5 3.22386 5.22386 3 5.5 3H6.125Z" fill="white"/>
<path d="M2.875 8.75V9.5H2.25C1.97386 9.5 1.75 9.72386 1.75 10V13.5C1.75 13.7761 1.97386 14 2.25 14H7.25C7.52614 14 7.75 13.7761 7.75 13.5V10C7.75 9.72386 7.52614 9.5 7.25 9.5H6.625V8.75C6.625 8.61193 6.51307 8.5 6.375 8.5H5.375C5.23693 8.5 5.125 8.61193 5.125 8.75V9.5H4.375V8.75C4.375 8.61193 4.26307 8.5 4.125 8.5H3.125C2.98693 8.5 2.875 8.61193 2.875 8.75Z" fill="white"/>
<path d="M9.375 8.75V9.5H8.75C8.47386 9.5 8.25 9.72386 8.25 10V13.5C8.25 13.7761 8.47386 14 8.75 14H13.75C14.0261 14 14.25 13.7761 14.25 13.5V10C14.25 9.72386 14.0261 9.5 13.75 9.5H13.125V8.75C13.125 8.61193 13.0131 8.5 12.875 8.5H11.875C11.7369 8.5 11.625 8.61193 11.625 8.75V9.5H10.875V8.75C10.875 8.61193 10.7631 8.5 10.625 8.5H9.625C9.48693 8.5 9.375 8.61193 9.375 8.75Z" fill="white"/>
</svg>
