<svg width="24" height="24" viewBox="0 0 24 24" fill="none" xmlns="http://www.w3.org/2000/svg">
<path fill-rule="evenodd" clip-rule="evenodd" d="M21 12C21 16.9706 16.9706 21 12 21C7.02944 21 3 16.9706 3 12C3 7.02944 7.02944 3 12 3C16.9706 3 21 7.02944 21 12ZM18.7252 15.6492C19.315 14.5646 19.65 13.3214 19.65 12C19.65 10.6786 19.315 9.43543 18.7252 8.35084L16.2026 10.8734C16.2987 11.2327 16.3499 11.6104 16.3499 12C16.3499 12.3896 16.2987 12.7673 16.2026 13.1266L18.7252 15.6492ZM15.6493 18.7251L13.1268 16.2026C12.7674 16.2987 12.3896 16.35 11.9999 16.35C11.6103 16.35 11.2327 16.2988 10.8733 16.2027L8.35084 18.7252C9.43543 19.315 10.6786 19.65 12 19.65C13.3215 19.65 14.5647 19.3149 15.6493 18.7251ZM5.27488 15.6493C4.68507 14.5647 4.35 13.3215 4.35 12C4.35 10.6785 4.68506 9.43533 5.27487 8.3507L7.79728 10.8731C7.70115 11.2325 7.6499 11.6103 7.6499 12C7.6499 12.3897 7.70116 12.7675 7.79729 13.1269L5.27488 15.6493ZM8.3508 5.27481L10.8733 7.7973C11.2326 7.70122 11.6103 7.64999 11.9999 7.64999C12.3896 7.64999 12.7674 7.70125 13.1268 7.79738L15.6493 5.27488C14.5647 4.68507 13.3215 4.35 12 4.35C10.6786 4.35 9.43541 4.68504 8.3508 5.27481ZM11.9999 15C13.6568 15 14.9999 13.6568 14.9999 12C14.9999 10.3431 13.6568 8.99999 11.9999 8.99999C10.343 8.99999 8.9999 10.3431 8.9999 12C8.9999 13.6568 10.343 15 11.9999 15Z" fill="white"/>
</svg>
