<svg width="16" height="16" viewBox="0 0 16 16" fill="none" xmlns="http://www.w3.org/2000/svg">
<path fill-rule="evenodd" clip-rule="evenodd" d="M5.68705 3.56586L7.22293 5.10174C7.47116 5.03533 7.73174 5 8 5C8.26818 5 8.52869 5.03531 8.77686 5.10169L10.3128 3.56577C9.62142 3.20435 8.83505 3 8 3C7.16488 3 6.37845 3.20439 5.68705 3.56586ZM11.1643 4.12846L9.73816 5.5546C10.0115 5.74916 10.2507 5.98838 10.4453 6.26168L11.8714 4.83555C11.6598 4.57702 11.4228 4.34004 11.1643 4.12846ZM12.4341 5.68705L10.8983 7.22293C10.9647 7.47116 11 7.73174 11 8C11 8.26826 10.9647 8.52884 10.8983 8.77707L12.4341 10.313C12.7956 9.62155 13 8.83512 13 8C13 7.16488 12.7956 6.37845 12.4341 5.68705ZM11.8714 11.1645L10.4453 9.73832C10.2507 10.0116 10.0115 10.2508 9.73816 10.4454L11.1643 11.8715C11.4228 11.66 11.6598 11.423 11.8714 11.1645ZM10.3128 12.4342L8.77686 10.8983C8.52869 10.9647 8.26818 11 8 11C7.73174 11 7.47116 10.9647 7.22293 10.8983L5.68705 12.4341C6.37845 12.7956 7.16488 13 8 13C8.83504 13 9.62142 12.7956 10.3128 12.4342ZM4.83555 11.8714L6.26168 10.4453C5.98838 10.2507 5.74916 10.0115 5.5546 9.73816L4.12846 11.1643C4.34004 11.4228 4.57702 11.6598 4.83555 11.8714ZM3.56577 10.3128L5.10169 8.77686C5.03531 8.52869 5 8.26818 5 8C5 7.73182 5.03531 7.47131 5.10169 7.22314L3.56577 5.68722C3.20435 6.37858 3 7.16495 3 8C3 8.83505 3.20435 9.62142 3.56577 10.3128ZM4.12846 4.8357L5.5546 6.26184C5.74916 5.98852 5.98838 5.74929 6.26168 5.55471L4.83555 4.12858C4.57702 4.34017 4.34004 4.57716 4.12846 4.8357ZM4.59864 3.05664C5.56547 2.39023 6.73791 2 8 2C9.26201 2 10.4344 2.39018 11.4012 3.05652C12.0044 3.47225 12.5276 3.99546 12.9434 4.59864C13.6098 5.56547 14 6.73791 14 8C14 9.26209 13.6098 10.4345 12.9434 11.4014C12.5276 12.0045 12.0044 12.5278 11.4012 12.9435C10.4344 13.6098 9.26201 14 8 14C6.73791 14 5.56547 13.6098 4.59864 12.9434C3.99546 12.5276 3.47225 12.0044 3.05652 11.4012C2.39018 10.4344 2 9.26201 2 8C2 6.73799 2.39018 5.56561 3.05652 4.59881C3.47225 3.99562 3.99546 3.47238 4.59864 3.05664ZM8 6C7.74111 6 7.49485 6.04894 7.26912 6.13761C6.75267 6.34048 6.34038 6.7528 6.13755 7.26927C6.04892 7.49496 6 7.74117 6 8C6 8.25883 6.04892 8.50504 6.13755 8.73073C6.34038 9.2472 6.75267 9.65951 7.26912 9.86239C7.49485 9.95106 7.74111 10 8 10C8.25883 10 8.50504 9.95108 8.73073 9.86245C9.2472 9.65962 9.65952 9.24733 9.86239 8.73088C9.95106 8.50515 10 8.25889 10 8C10 7.74111 9.95106 7.49485 9.86239 7.26912C9.65952 6.75267 9.2472 6.34038 8.73073 6.13755C8.50504 6.04892 8.25883 6 8 6Z" fill="white"/>
</svg>
