<svg width="24" height="24" viewBox="0 0 24 24" fill="none" xmlns="http://www.w3.org/2000/svg">
<path fill-rule="evenodd" clip-rule="evenodd" d="M8.2217 5.14574L11.0174 7.9414C11.333 7.86522 11.6621 7.82495 12 7.82495C12.3378 7.82495 12.667 7.86522 12.9826 7.94141L15.7783 5.14578C14.6585 4.52706 13.371 4.17495 12 4.17495C10.6289 4.17495 9.34148 4.52704 8.2217 5.14574ZM16.9191 5.91413L14.3108 8.52237C14.7729 8.82993 15.17 9.22705 15.4776 9.68911L18.0858 7.08086C17.7389 6.65228 17.3477 6.26103 16.9191 5.91413ZM18.8542 8.2217L16.0585 11.0174C16.1347 11.333 16.175 11.6621 16.175 12C16.175 12.3378 16.1347 12.667 16.0585 12.9825L18.8542 15.7782C19.4729 14.6584 19.825 13.371 19.825 12C19.825 10.6289 19.4729 9.34148 18.8542 8.2217ZM18.0858 16.919L15.4776 14.3108C15.17 14.7728 14.7729 15.17 14.3108 15.4775L16.9191 18.0858C17.3477 17.7389 17.7389 17.3476 18.0858 16.919ZM15.7783 18.8541L12.9826 16.0585C12.667 16.1347 12.3378 16.175 12 16.175C11.6621 16.175 11.333 16.1347 11.0174 16.0585L8.2217 18.8542C9.34148 19.4729 10.6289 19.825 12 19.825C13.371 19.825 14.6585 19.4728 15.7783 18.8541ZM7.08086 18.0858L9.68911 15.4776C9.22705 15.17 8.82993 14.7729 8.52237 14.3108L5.91413 16.9191C6.26103 17.3477 6.65228 17.7389 7.08086 18.0858ZM5.14578 15.7783L7.94141 12.9826C7.86522 12.667 7.82495 12.3378 7.82495 12C7.82495 11.6621 7.86522 11.3329 7.94141 11.0173L5.14578 8.22165C4.52706 9.34144 4.17495 10.6289 4.17495 12C4.17495 13.371 4.52706 14.6585 5.14578 15.7783ZM5.91413 7.08081L8.52237 9.68905C8.82993 9.227 9.22705 8.82989 9.68911 8.52234L7.08086 5.91409C6.65228 6.26098 6.26103 6.65223 5.91413 7.08081ZM6.75795 4.46896C8.24411 3.43272 10.0521 2.82495 12 2.82495C13.9479 2.82495 15.7558 3.43274 17.242 4.469C18.1335 5.09063 18.9093 5.86644 19.5309 6.75795C20.5672 8.24411 21.1749 10.0521 21.1749 12C21.1749 13.9478 20.5672 15.7558 19.5309 17.242C18.9093 18.1335 18.1335 18.9093 17.242 19.5309C15.7558 20.5672 13.9479 21.1749 12 21.1749C10.0521 21.1749 8.24411 20.5672 6.75795 19.5309C5.86644 18.9093 5.09063 18.1335 4.469 17.242C3.43274 15.7558 2.82495 13.9479 2.82495 12C2.82495 10.052 3.43274 8.24406 4.469 6.75789C5.09063 5.86639 5.86644 5.09058 6.75795 4.46896ZM12 9.17495C11.6657 9.17495 11.3464 9.23271 11.0506 9.33823C10.2545 9.62219 9.62222 10.2545 9.33825 11.0506C9.23272 11.3464 9.17495 11.6657 9.17495 12C9.17495 12.3342 9.23272 12.6535 9.33825 12.9493C9.62222 13.7454 10.2545 14.3777 11.0506 14.6617C11.3464 14.7672 11.6657 14.825 12 14.825C12.3342 14.825 12.6535 14.7672 12.9493 14.6617C13.7454 14.3777 14.3777 13.7454 14.6617 12.9493C14.7672 12.6535 14.825 12.3342 14.825 12C14.825 11.6657 14.7672 11.3464 14.6617 11.0506C14.3777 10.2545 13.7454 9.62222 12.9493 9.33825C12.6535 9.23272 12.3342 9.17495 12 9.17495Z" fill="white"/>
</svg>
