<svg width="16" height="16" viewBox="0 0 16 16" fill="none" xmlns="http://www.w3.org/2000/svg">
<path fill-rule="evenodd" clip-rule="evenodd" d="M2 8C2 4.68629 4.68629 2 8 2C11.3137 2 14 4.68629 14 8C14 11.3137 11.3137 14 8 14C4.68629 14 2 11.3137 2 8ZM3.56585 5.68731C3.2044 6.37891 3 7.16558 3 8C3 8.83442 3.2044 9.62109 3.56585 10.3127L5.10159 8.77696C5.03533 8.52915 5 8.2687 5 8C5 7.7313 5.03533 7.47085 5.10159 7.22304L3.56585 5.68731ZM5.68713 3.56594L7.22283 5.10164C7.4707 5.03535 7.73122 5 8 5C8.2687 5 8.52915 5.03533 8.77696 5.10159L10.3127 3.56585C9.62109 3.2044 8.83442 3 8 3C7.16551 3 6.37877 3.20443 5.68713 3.56594ZM12.4341 5.68713L10.8984 7.22283C10.9647 7.4707 11 7.73122 11 8C11 8.26878 10.9647 8.5293 10.8984 8.77717L12.4341 10.3129C12.7956 9.62123 13 8.83449 13 8C13 7.16551 12.7956 6.37877 12.4341 5.68713ZM10.3127 12.4342L8.77696 10.8984C8.52915 10.9647 8.2687 11 8 11C7.73122 11 7.4707 10.9647 7.22283 10.8984L5.68713 12.4341C6.37877 12.7956 7.16551 13 8 13C8.83442 13 9.62109 12.7956 10.3127 12.4342ZM8 10C9.10457 10 10 9.10457 10 8C10 6.89543 9.10457 6 8 6C6.89543 6 6 6.89543 6 8C6 9.10457 6.89543 10 8 10Z" fill="white"/>
</svg>
