<svg width="16" height="16" viewBox="0 0 16 16" fill="none" xmlns="http://www.w3.org/2000/svg">
<path fill-rule="evenodd" clip-rule="evenodd" d="M8 2.5C6.0567 2.5 4.5 4.03868 4.5 5.91398C4.5 6.48151 4.58831 6.88219 4.71295 7.19873C4.83926 7.51948 5.01128 7.77693 5.21781 8.06466C5.24304 8.09982 5.26865 8.13523 5.29453 8.17102C5.70198 8.73441 6.1762 9.39012 6.30911 10.6119C6.32544 10.762 6.43618 10.8333 6.51282 10.8333H9.48718C9.56382 10.8333 9.67456 10.762 9.69089 10.6119C9.8238 9.39012 10.298 8.73441 10.7055 8.17102C10.7313 8.13523 10.757 8.09982 10.7822 8.06466C10.9887 7.77693 11.1607 7.51948 11.287 7.19873C11.4117 6.88219 11.5 6.48151 11.5 5.91398C11.5 4.03868 9.9433 2.5 8 2.5ZM3.5 5.91398C3.5 3.46601 5.52502 1.5 8 1.5C10.475 1.5 12.5 3.46601 12.5 5.91398C12.5 6.59198 12.3933 7.11875 12.2175 7.56512C12.0434 8.00728 11.8096 8.34819 11.5946 8.64776C11.5701 8.68184 11.5458 8.71553 11.5217 8.74896C11.1309 9.29032 10.789 9.76402 10.685 10.72C10.6217 11.3019 10.1469 11.8333 9.48718 11.8333H6.51282C5.85308 11.8333 5.37828 11.3019 5.31497 10.72C5.21097 9.76402 4.86906 9.29032 4.47831 8.74896C4.45418 8.71553 4.42986 8.68184 4.4054 8.64776C4.19039 8.34819 3.95661 8.00728 3.7825 7.56512C3.60672 7.11875 3.5 6.59198 3.5 5.91398ZM6.97978 4.97976C7.17504 4.7845 7.49162 4.7845 7.68689 4.97976L8.66667 5.95954L9.64645 4.97976C9.84171 4.7845 10.1583 4.7845 10.3536 4.97976C10.5488 5.17502 10.5488 5.4916 10.3536 5.68687L9.02022 7.0202C8.92645 7.11397 8.79928 7.16665 8.66667 7.16665C8.53406 7.16665 8.40688 7.11397 8.31311 7.0202L7.33333 6.04042L6.35355 7.0202C6.15829 7.21546 5.84171 7.21546 5.64645 7.0202C5.45118 6.82494 5.45118 6.50836 5.64645 6.31309L6.97978 4.97976ZM5.5 12.6667C5.5 12.3905 5.72386 12.1667 6 12.1667H10C10.2761 12.1667 10.5 12.3905 10.5 12.6667C10.5 12.9428 10.2761 13.1667 10 13.1667H6C5.72386 13.1667 5.5 12.9428 5.5 12.6667ZM6 14C6 13.7239 6.22386 13.5 6.5 13.5H9.5C9.77614 13.5 10 13.7239 10 14C10 14.2762 9.77614 14.5 9.5 14.5H6.5C6.22386 14.5 6 14.2762 6 14Z" fill="white"/>
</svg>
