<svg width="16" height="16" viewBox="0 0 16 16" fill="none" xmlns="http://www.w3.org/2000/svg">
<path fill-rule="evenodd" clip-rule="evenodd" d="M8 1.5C5.52502 1.5 3.5 3.46601 3.5 5.91398C3.5 6.59198 3.60672 7.11875 3.7825 7.56512C3.95661 8.00728 4.19039 8.34819 4.4054 8.64776L4.47831 8.74896C4.86906 9.29032 5.21097 9.76402 5.31497 10.72C5.37828 11.3019 5.85308 11.8333 6.51282 11.8333H9.48718C10.1469 11.8333 10.6217 11.3019 10.685 10.72C10.789 9.76402 11.1309 9.29032 11.5217 8.74896L11.5946 8.64776C11.8096 8.34819 12.0434 8.00728 12.2175 7.56512C12.3933 7.11875 12.5 6.59198 12.5 5.91398C12.5 3.46601 10.475 1.5 8 1.5ZM7.68689 4.97976C7.49162 4.7845 7.17504 4.7845 6.97978 4.97976L5.64645 6.31309C5.45118 6.50836 5.45118 6.82494 5.64645 7.0202C5.84171 7.21546 6.15829 7.21546 6.35355 7.0202L7.33333 6.04042L8.31311 7.0202C8.50838 7.21546 8.82496 7.21546 9.02022 7.0202L10.3536 5.68687C10.5488 5.4916 10.5488 5.17502 10.3536 4.97976C10.1583 4.7845 9.84171 4.7845 9.64645 4.97976L8.66667 5.95954L7.68689 4.97976Z" fill="white"/>
<path d="M5.5 12.6667C5.5 12.3905 5.72386 12.1667 6 12.1667H10C10.2761 12.1667 10.5 12.3905 10.5 12.6667C10.5 12.9428 10.2761 13.1667 10 13.1667H6C5.72386 13.1667 5.5 12.9428 5.5 12.6667Z" fill="white"/>
<path d="M6.5 13.5C6.22386 13.5 6 13.7239 6 14C6 14.2761 6.22386 14.5 6.5 14.5H9.5C9.77614 14.5 10 14.2761 10 14C10 13.7239 9.77614 13.5 9.5 13.5H6.5Z" fill="white"/>
</svg>
