<svg width="24" height="24" viewBox="0 0 24 24" fill="none" xmlns="http://www.w3.org/2000/svg">
<path fill-rule="evenodd" clip-rule="evenodd" d="M14.8184 0.904804C15.1037 1.05743 15.2406 1.39104 15.1447 1.70006L12.9163 8.88055H20C20.2603 8.88055 20.4974 9.03022 20.6094 9.26521C20.7213 9.50019 20.6882 9.77862 20.5242 9.98077L10.0242 22.9252C9.82041 23.1765 9.46693 23.2478 9.18162 23.0952C8.89632 22.9426 8.75945 22.6089 8.85535 22.2999L11.0838 15.1194H4.00002C3.73972 15.1194 3.50262 14.9698 3.39065 14.7348C3.27869 14.4998 3.31182 14.2214 3.4758 14.0192L13.9758 1.07477C14.1796 0.823479 14.5331 0.75218 14.8184 0.904804ZM5.4167 13.7694H12C12.2145 13.7694 12.4162 13.8714 12.5435 14.0441C12.6707 14.2168 12.7083 14.4396 12.6447 14.6445L11.1833 19.3533L18.5833 10.2305H12C11.7855 10.2305 11.5838 10.1286 11.4566 9.95591C11.3293 9.78322 11.2918 9.56034 11.3554 9.35548L12.8167 4.64668L5.4167 13.7694Z" fill="white"/>
</svg>
