<svg width="24" height="24" viewBox="0 0 24 24" fill="none" xmlns="http://www.w3.org/2000/svg">
<path fill-rule="evenodd" clip-rule="evenodd" d="M12 3.67495C9.04519 3.67495 6.67501 6.01502 6.67501 8.87092C6.67501 9.7305 6.80886 10.341 6.99966 10.8255C7.19271 11.3158 7.45537 11.7082 7.76579 12.1407C7.8036 12.1934 7.84194 12.2464 7.88064 12.2999C8.49053 13.1433 9.19192 14.1132 9.38911 15.9259C9.41714 16.1835 9.61055 16.325 9.76924 16.325H14.2308C14.3895 16.325 14.5829 16.1835 14.6109 15.9259C14.8081 14.1132 15.5095 13.1433 16.1194 12.2999C16.1581 12.2464 16.1964 12.1934 16.2342 12.1407C16.5447 11.7082 16.8073 11.3158 17.0004 10.8255C17.1912 10.341 17.325 9.7305 17.325 8.87092C17.325 6.01502 14.9548 3.67495 12 3.67495ZM5.32501 8.87092C5.32501 5.24192 8.32742 2.32495 12 2.32495C15.6726 2.32495 18.675 5.24192 18.675 8.87092C18.675 9.87963 18.5163 10.6603 18.2565 11.3202C17.9989 11.9743 17.6529 12.4794 17.331 12.9279C17.2942 12.9791 17.2576 13.0298 17.2213 13.0801C16.6339 13.8938 16.1112 14.618 15.953 16.0719C15.8616 16.9123 15.1767 17.675 14.2308 17.675H9.76924C8.82337 17.675 8.13846 16.9123 8.04703 16.0719C7.88886 14.618 7.36608 13.8938 6.77876 13.0801C6.74241 13.0298 6.70582 12.9791 6.66905 12.9279C6.34716 12.4794 6.00112 11.9743 5.74354 11.3202C5.48372 10.6603 5.32501 9.87963 5.32501 8.87092ZM10.5227 7.52265C10.7863 7.25905 11.2137 7.25905 11.4773 7.52265L13 9.04536L14.5227 7.52265C14.7863 7.25905 15.2137 7.25905 15.4773 7.52265C15.7409 7.78626 15.7409 8.21364 15.4773 8.47725L13.4773 10.4772C13.2137 10.7409 12.7863 10.7409 12.5227 10.4772L11 8.95455L9.47731 10.4772C9.21371 10.7409 8.78632 10.7409 8.52272 10.4772C8.25911 10.2136 8.25911 9.78626 8.52272 9.52265L10.5227 7.52265ZM8.32501 19C8.32501 18.6272 8.62722 18.325 9.00001 18.325H15C15.3728 18.325 15.675 18.6272 15.675 19C15.675 19.3727 15.3728 19.6749 15 19.6749H9.00001C8.62722 19.6749 8.32501 19.3727 8.32501 19ZM9.07501 21C9.07501 20.6272 9.37722 20.325 9.75001 20.325H14.25C14.6228 20.325 14.925 20.6272 14.925 21C14.925 21.3727 14.6228 21.6749 14.25 21.6749H9.75001C9.37722 21.6749 9.07501 21.3727 9.07501 21Z" fill="white"/>
</svg>
