<svg width="24" height="24" viewBox="0 0 24 24" fill="none" xmlns="http://www.w3.org/2000/svg">
<path fill-rule="evenodd" clip-rule="evenodd" d="M12 2.32495C8.32742 2.32495 5.32501 5.24192 5.32501 8.87092C5.32501 9.87963 5.48372 10.6603 5.74354 11.3202C6.00112 11.9743 6.34716 12.4794 6.66905 12.9279C6.70582 12.9791 6.74241 13.0298 6.77876 13.0801C7.36608 13.8938 7.88886 14.618 8.04703 16.0719C8.13846 16.9123 8.82337 17.675 9.76924 17.675H14.2308C15.1767 17.675 15.8616 16.9123 15.953 16.0719C16.1112 14.618 16.6339 13.8938 17.2213 13.0801C17.2575 13.0299 17.2943 12.979 17.331 12.9279C17.6529 12.4794 17.9989 11.9743 18.2565 11.3202C18.5163 10.6603 18.675 9.87963 18.675 8.87092C18.675 5.24192 15.6726 2.32495 12 2.32495ZM11.4773 7.52265C11.2137 7.25905 10.7863 7.25905 10.5227 7.52265L8.52272 9.52265C8.25911 9.78626 8.25911 10.2136 8.52272 10.4772C8.78632 10.7409 9.21371 10.7409 9.47731 10.4772L11 8.95455L12.5227 10.4772C12.7863 10.7409 13.2137 10.7409 13.4773 10.4772L15.4773 8.47725C15.7409 8.21364 15.7409 7.78626 15.4773 7.52265C15.2137 7.25905 14.7863 7.25905 14.5227 7.52265L13 9.04536L11.4773 7.52265Z" fill="white"/>
<path d="M8.325 18.9999C8.325 18.6271 8.62721 18.3249 9 18.3249H15C15.3728 18.3249 15.675 18.6271 15.675 18.9999C15.675 19.3727 15.3728 19.6749 15 19.6749H9C8.62721 19.6749 8.325 19.3727 8.325 18.9999Z" fill="white"/>
<path d="M9.75001 20.325C9.37722 20.325 9.07501 20.6272 9.07501 21C9.07501 21.3727 9.37722 21.675 9.75001 21.675H14.25C14.6228 21.675 14.925 21.3727 14.925 21C14.925 20.6272 14.6228 20.325 14.25 20.325H9.75001Z" fill="white"/>
</svg>
