<svg width="16" height="16" viewBox="0 0 16 16" fill="none" xmlns="http://www.w3.org/2000/svg">
<path fill-rule="evenodd" clip-rule="evenodd" d="M9.72981 1.05224C9.93916 1.15337 10.0444 1.37722 9.98237 1.58948L8.65462 6H13.5C13.6935 6 13.8696 6.10419 13.9522 6.2675C14.0347 6.43081 14.009 6.62393 13.886 6.76333L6.88596 14.83C6.73611 14.9998 6.47952 15.0489 6.27018 14.9478C6.06083 14.8466 5.95559 14.6228 6.01761 14.4105L7.34538 10H2.50001C2.30652 10 2.13041 9.89581 2.04783 9.7325C1.96525 9.56919 1.99104 9.37607 2.11404 9.23667L9.11403 1.17003C9.26388 1.0002 9.52046 0.95112 9.72981 1.05224Z" fill="white"/>
</svg>
