<svg width="16" height="16" viewBox="0 0 16 16" fill="none" xmlns="http://www.w3.org/2000/svg">
<path fill-rule="evenodd" clip-rule="evenodd" d="M9.72983 0.555976C9.93917 0.664324 10.0444 0.90417 9.98239 1.13159L8.65463 6.00003H13.5C13.6935 6.00003 13.8696 6.11166 13.9522 6.28664C14.0348 6.46161 14.009 6.66853 13.886 6.81788L6.88597 15.3179C6.73612 15.4998 6.47953 15.5524 6.27019 15.4441C6.06084 15.3357 5.9556 15.0959 6.01762 14.8685L7.34538 10H2.50001C2.30652 10 2.13041 9.8884 2.04783 9.71342C1.96525 9.53845 1.99104 9.33153 2.11404 9.18218L9.11404 0.682176C9.26389 0.500214 9.52048 0.447629 9.72983 0.555976ZM3.5595 9.00003H8.00001C8.15584 9.00003 8.30277 9.07269 8.39736 9.19653C8.49195 9.32038 8.52339 9.48124 8.48239 9.63159L7.5956 12.8831L12.4405 7.00003H8.00001C7.84417 7.00003 7.69725 6.92737 7.60265 6.80353C7.50806 6.67968 7.47662 6.51882 7.51763 6.36847L8.40441 3.11692L3.5595 9.00003Z" fill="white"/>
</svg>
