<svg width="24" height="24" viewBox="0 0 24 24" fill="none" xmlns="http://www.w3.org/2000/svg">
<path fill-rule="evenodd" clip-rule="evenodd" d="M14.924 1.0786C15.22 1.22883 15.362 1.55722 15.2625 1.8614L12.9506 8.92942H20.2997C20.5698 8.92942 20.8157 9.07674 20.9319 9.30805C21.0481 9.53936 21.0137 9.81342 20.8436 10.0124L9.9502 22.7541C9.73873 23.0014 9.37201 23.0716 9.07602 22.9214C8.78003 22.7712 8.63803 22.4428 8.73752 22.1386L11.0494 15.0706H3.70029C3.43025 15.0706 3.18426 14.9233 3.0681 14.692C2.95194 14.4606 2.98631 14.1866 3.15644 13.9876L14.0498 1.2459C14.2613 0.998551 14.628 0.928369 14.924 1.0786Z" fill="white"/>
</svg>
