<svg width="24" height="24" viewBox="0 0 24 24" fill="none" xmlns="http://www.w3.org/2000/svg">
<path fill-rule="evenodd" clip-rule="evenodd" d="M10.9776 4.02237C9.05711 2.10191 5.94344 2.10192 4.02298 4.02238C2.10252 5.94283 2.10252 9.05651 4.02298 10.977L5.29835 12.2523C5.56196 12.5159 5.98934 12.5159 6.25295 12.2523C6.51655 11.9887 6.51655 11.5614 6.25295 11.2977L4.97757 10.0224C3.58432 8.62913 3.58432 6.37022 4.97757 4.97697C6.37082 3.58372 8.62973 3.58372 10.023 4.97697L14.023 8.97697C15.4162 10.3702 15.4162 12.6291 14.023 14.0224C13.6583 14.3871 13.2358 14.6554 12.7856 14.8289C12.4378 14.9629 12.2645 15.3536 12.3985 15.7014C12.5325 16.0493 12.9232 16.2226 13.2711 16.0886C13.8938 15.8486 14.477 15.4776 14.9776 14.977C16.898 13.0565 16.898 9.94284 14.9776 8.02238L10.9776 4.02237ZM11.6021 8.29793C11.4681 7.95007 11.0774 7.77674 10.7295 7.91078C10.1068 8.15073 9.52365 8.52176 9.02303 9.02238C7.10257 10.9428 7.10257 14.0565 9.02303 15.977L13.023 19.977C14.9435 21.8974 18.0572 21.8974 19.9776 19.977C21.8981 18.0565 21.8981 14.9428 19.9776 13.0224L18.7023 11.747C18.4386 11.4834 18.0113 11.4834 17.7477 11.747C17.4841 12.0106 17.4841 12.438 17.7477 12.7016L19.023 13.977C20.4163 15.3702 20.4163 17.6291 19.023 19.0224C17.6298 20.4156 15.3709 20.4156 13.9776 19.0224L9.97762 15.0224C8.58437 13.6291 8.58438 11.3702 9.97762 9.97697C10.3423 9.61227 10.7649 9.34394 11.215 9.17049C11.5628 9.03645 11.7361 8.64579 11.6021 8.29793Z" fill="white"/>
</svg>
