<svg width="16" height="16" viewBox="0 0 16 16" fill="none" xmlns="http://www.w3.org/2000/svg">
<path fill-rule="evenodd" clip-rule="evenodd" d="M7.3533 2.64675C6.05346 1.34692 3.94602 1.34692 2.64619 2.64675C1.34636 3.94658 1.34636 6.05402 2.64619 7.35386L3.41376 8.12142C3.60902 8.31668 3.9256 8.31668 4.12086 8.12142C4.31613 7.92616 4.31613 7.60958 4.12086 7.41432L3.3533 6.64675C2.44399 5.73744 2.44399 4.26316 3.3533 3.35386C4.26261 2.44455 5.73688 2.44455 6.64619 3.35385L9.31286 6.02052C10.2222 6.92983 10.2222 8.40411 9.31286 9.31342C9.09515 9.53112 8.84607 9.69607 8.58069 9.80921C8.32667 9.9175 8.20853 10.2112 8.31683 10.4652C8.42512 10.7193 8.71884 10.8374 8.97286 10.7291C9.35388 10.5667 9.71034 10.3301 10.02 10.0205C11.3198 8.72069 11.3198 6.61325 10.02 5.31342L7.3533 2.64675ZM7.68261 5.53537C7.57432 5.28135 7.2806 5.16321 7.02658 5.27151C6.64556 5.43395 6.2891 5.67046 5.97948 5.98008C4.67965 7.27991 4.67965 9.38736 5.97948 10.6872L8.64615 13.3539C9.94598 14.6537 12.0534 14.6537 13.3533 13.3539C14.6531 12.054 14.6531 9.94658 13.3533 8.64675L12.5857 7.87918C12.3904 7.68392 12.0738 7.68392 11.8786 7.87918C11.6833 8.07445 11.6833 8.39103 11.8786 8.58629L12.6461 9.35386C13.5555 10.2632 13.5555 11.7374 12.6461 12.6467C11.7368 13.5561 10.2626 13.5561 9.35325 12.6468L6.68658 9.98008C5.77728 9.07077 5.77728 7.5965 6.68658 6.68719C6.90429 6.46948 7.15337 6.30454 7.41875 6.1914C7.67277 6.08311 7.79091 5.78939 7.68261 5.53537Z" fill="white"/>
</svg>
