<svg width="24" height="24" viewBox="0 0 24 24" fill="none" xmlns="http://www.w3.org/2000/svg">
<path d="M5.26103 4.13914C5.55699 4.36581 5.61317 4.78949 5.3865 5.08545C4.31285 6.48734 3.6752 8.23943 3.6752 10.1424C3.6752 12.0453 4.31285 13.7974 5.3865 15.1993C5.61317 15.4952 5.55699 15.9189 5.26103 16.1456C4.96506 16.3723 4.54138 16.3161 4.31471 16.0201C3.06695 14.3909 2.3252 12.3523 2.3252 10.1424C2.3252 7.93244 3.06695 5.89384 4.31471 4.26461C4.54138 3.96865 4.96506 3.91247 5.26103 4.13914Z" fill="white"/>
<path d="M18.7394 4.13914C19.0353 3.91247 19.459 3.96865 19.6857 4.26461C20.9334 5.89384 21.6752 7.93244 21.6752 10.1424C21.6752 12.3523 20.9334 14.3909 19.6857 16.0201C19.459 16.3161 19.0353 16.3723 18.7394 16.1456C18.4434 15.9189 18.3872 15.4952 18.6139 15.1993C19.6875 13.7974 20.3252 12.0453 20.3252 10.1424C20.3252 8.23943 19.6875 6.48734 18.6139 5.08545C18.3872 4.78949 18.4434 4.36581 18.7394 4.13914Z" fill="white"/>
<path d="M8.43862 6.56907C8.73459 6.79574 8.79076 7.21942 8.56409 7.51538C8.00632 8.24368 7.6752 9.1534 7.6752 10.1424C7.6752 11.1313 8.00631 12.0411 8.56409 12.7694C8.79076 13.0653 8.73459 13.489 8.43862 13.7157C8.14266 13.9423 7.71898 13.8862 7.49231 13.5902C6.76041 12.6345 6.3252 11.4383 6.3252 10.1424C6.3252 8.84641 6.76041 7.65019 7.49231 6.69454C7.71898 6.39858 8.14266 6.3424 8.43862 6.56907Z" fill="white"/>
<path d="M15.5618 6.56907C15.8577 6.3424 16.2814 6.39858 16.5081 6.69454C17.24 7.65019 17.6752 8.84641 17.6752 10.1424C17.6752 11.4383 17.24 12.6345 16.5081 13.5902C16.2814 13.8862 15.8577 13.9423 15.5618 13.7157C15.2658 13.489 15.2096 13.0653 15.4363 12.7694C15.9941 12.0411 16.3252 11.1313 16.3252 10.1424C16.3252 9.1534 15.9941 8.24368 15.4363 7.51538C15.2096 7.21942 15.2658 6.79574 15.5618 6.56907Z" fill="white"/>
<path d="M12.6752 11.4823C13.1646 11.2352 13.5002 10.728 13.5002 10.1424C13.5002 9.31394 12.8286 8.64237 12.0002 8.64237C11.1718 8.64237 10.5002 9.31394 10.5002 10.1424C10.5002 10.728 10.8358 11.2352 11.3252 11.4823V19.1424C11.3252 19.5152 11.6274 19.8174 12.0002 19.8174C12.373 19.8174 12.6752 19.5152 12.6752 19.1424V11.4823Z" fill="white"/>
</svg>
