<svg width="16" height="16" viewBox="0 0 16 16" fill="none" xmlns="http://www.w3.org/2000/svg">
<path d="M3.53762 3.10307C3.75686 3.27097 3.79847 3.58481 3.63056 3.80404C2.92125 4.73021 2.5 5.88766 2.5 7.14492C2.5 8.40217 2.92125 9.55962 3.63056 10.4858C3.79847 10.705 3.75686 11.0189 3.53762 11.1868C3.31839 11.3547 3.00455 11.3131 2.83665 11.0938C1.99836 9.99924 1.5 8.62957 1.5 7.14492C1.5 5.66026 1.99836 4.29058 2.83665 3.19601C3.00455 2.97678 3.31839 2.93517 3.53762 3.10307Z" fill="white"/>
<path d="M12.4624 3.10307C12.6816 2.93517 12.9954 2.97678 13.1634 3.19601C14.0016 4.29058 14.5 5.66026 14.5 7.14492C14.5 8.62957 14.0016 9.99924 13.1634 11.0938C12.9954 11.3131 12.6816 11.3547 12.4624 11.1868C12.2431 11.0189 12.2015 10.705 12.3694 10.4858C13.0788 9.55962 13.5 8.40217 13.5 7.14492C13.5 5.88766 13.0788 4.73021 12.3694 3.80404C12.2015 3.58481 12.2431 3.27097 12.4624 3.10307Z" fill="white"/>
<path d="M5.65602 4.72302C5.87525 4.89092 5.91686 5.20476 5.74896 5.42399C5.38356 5.90111 5.16667 6.49697 5.16667 7.14492C5.16667 7.79286 5.38356 8.38872 5.74896 8.86584C5.91686 9.08507 5.87525 9.39891 5.65602 9.56681C5.43678 9.73471 5.12295 9.6931 4.95505 9.47387C4.46067 8.82835 4.16667 8.02025 4.16667 7.14492C4.16667 6.26958 4.46067 5.46148 4.95505 4.81596C5.12295 4.59673 5.43679 4.55512 5.65602 4.72302Z" fill="white"/>
<path d="M10.344 4.72302C10.5632 4.55512 10.8771 4.59673 11.045 4.81596C11.5393 5.46148 11.8333 6.26958 11.8333 7.14492C11.8333 8.02025 11.5393 8.82835 11.045 9.47387C10.8771 9.6931 10.5632 9.73471 10.344 9.56681C10.1247 9.39891 10.0831 9.08507 10.251 8.86584C10.6164 8.38872 10.8333 7.79286 10.8333 7.14492C10.8333 6.49697 10.6164 5.90111 10.251 5.42399C10.0831 5.20476 10.1247 4.89092 10.344 4.72302Z" fill="white"/>
<path d="M8.5 8.01113C8.7989 7.83823 9 7.51506 9 7.14492C9 6.59263 8.55228 6.14492 8 6.14492C7.44772 6.14492 7 6.59263 7 7.14492C7 7.51506 7.2011 7.83823 7.5 8.01113V13.1449C7.5 13.4211 7.72386 13.6449 8 13.6449C8.27614 13.6449 8.5 13.4211 8.5 13.1449V8.01113Z" fill="white"/>
</svg>
