<svg width="16" height="16" viewBox="0 0 16 16" fill="none" xmlns="http://www.w3.org/2000/svg">
<path fill-rule="evenodd" clip-rule="evenodd" d="M8 2C6.61929 2 5.5 3.11929 5.5 4.5V6H10.5V4.5C10.5 3.11929 9.38071 2 8 2ZM11.5 6V4.5C11.5 2.567 9.933 1 8 1C6.067 1 4.5 2.567 4.5 4.5V6H3.9C3.40294 6 3 6.40294 3 6.9V13.1C3 13.5971 3.40294 14 3.9 14H12.1C12.5971 14 13 13.5971 13 13.1V6.9C13 6.40294 12.5971 6 12.1 6H11.5ZM4 7V13H12V7H4ZM8 9C7.72386 9 7.5 9.22386 7.5 9.5C7.5 9.77614 7.72386 10 8 10C8.27614 10 8.5 9.77614 8.5 9.5C8.5 9.22386 8.27614 9 8 9ZM6.5 9.5C6.5 8.67157 7.17157 8 8 8C8.82843 8 9.5 8.67157 9.5 9.5C9.5 10.1531 9.0826 10.7087 8.5 10.9146V11.5C8.5 11.7761 8.27614 12 8 12C7.72386 12 7.5 11.7761 7.5 11.5V10.9146C6.9174 10.7087 6.5 10.1531 6.5 9.5Z" fill="white"/>
</svg>
