<svg width="24" height="24" viewBox="0 0 24 24" fill="none" xmlns="http://www.w3.org/2000/svg">
<path fill-rule="evenodd" clip-rule="evenodd" d="M12.0002 3.17495C9.88771 3.17495 8.1752 4.88746 8.1752 6.99995V9.82495H15.8252V6.99995C15.8252 4.88746 14.1127 3.17495 12.0002 3.17495ZM17.1752 9.82495V6.99995C17.1752 4.14188 14.8583 1.82495 12.0002 1.82495C9.14212 1.82495 6.8252 4.14188 6.8252 6.99995V9.82495H6.5002C5.57512 9.82495 4.8252 10.5749 4.8252 11.5V19.5C4.8252 20.425 5.57512 21.1749 6.5002 21.1749H17.5002C18.4253 21.1749 19.1752 20.425 19.1752 19.5V11.5C19.1752 10.5749 18.4253 9.82495 17.5002 9.82495H17.1752ZM6.5002 11.175C6.3207 11.175 6.1752 11.3205 6.1752 11.5V19.5C6.1752 19.6794 6.3207 19.825 6.5002 19.825H17.5002C17.6797 19.825 17.8252 19.6794 17.8252 19.5V11.5C17.8252 11.3205 17.6797 11.175 17.5002 11.175H6.5002ZM12.0001 14.3364C11.6337 14.3364 11.3366 14.6335 11.3366 15C11.3366 15.3664 11.6337 15.6635 12.0002 15.6635C12.3666 15.6635 12.6637 15.3665 12.6637 15C12.6637 14.6335 12.3666 14.3364 12.0001 14.3364ZM9.98657 15C9.98657 13.8879 10.8881 12.9864 12.0001 12.9864C13.1122 12.9864 14.0137 13.8879 14.0137 15C14.0137 15.8752 13.4553 16.6201 12.6752 16.8976L12.6751 17.5C12.6751 17.8728 12.3729 18.175 12.0001 18.175C11.6273 18.1749 11.3251 17.8727 11.3251 17.4999L11.3252 16.8976C10.5451 16.6201 9.98657 15.8753 9.98657 15Z" fill="white"/>
</svg>
