<svg width="24" height="24" viewBox="0 0 24 24" fill="none" xmlns="http://www.w3.org/2000/svg">
<path fill-rule="evenodd" clip-rule="evenodd" d="M12.0002 3.17495C9.88771 3.17495 8.1752 4.88746 8.1752 6.99995V8.82495H15.8252V6.99995C15.8252 4.88746 14.1127 3.17495 12.0002 3.17495ZM17.1752 8.82495V6.99995C17.1752 4.14188 14.8583 1.82495 12.0002 1.82495C9.14212 1.82495 6.8252 4.14188 6.8252 6.99995V8.82495H6.5002C5.57512 8.82495 4.8252 9.57487 4.8252 10.5V14C4.8252 17.9626 8.03755 21.1749 12.0002 21.1749C15.9628 21.1749 19.1752 17.9626 19.1752 14V10.5C19.1752 9.57487 18.4253 8.82495 17.5002 8.82495H17.1752ZM6.5002 10.175C6.3207 10.175 6.1752 10.3205 6.1752 10.5V14C6.1752 17.217 8.78314 19.825 12.0002 19.825C15.2173 19.825 17.8252 17.217 17.8252 14V10.5C17.8252 10.3205 17.6797 10.175 17.5002 10.175H6.5002ZM12.0001 13.3364C11.6337 13.3364 11.3366 13.6335 11.3366 14C11.3366 14.3664 11.6337 14.6635 12.0002 14.6635C12.3666 14.6635 12.6637 14.3665 12.6637 14C12.6637 13.6335 12.3666 13.3364 12.0001 13.3364ZM9.98657 14C9.98657 12.8879 10.8881 11.9864 12.0001 11.9864C13.1122 11.9864 14.0137 12.8879 14.0137 14C14.0137 14.8752 13.4553 15.6201 12.6752 15.8976L12.6751 16.5C12.6751 16.8728 12.3729 17.175 12.0001 17.175C11.6273 17.1749 11.3251 16.8727 11.3251 16.4999L11.3252 15.8976C10.5451 15.6201 9.98657 14.8753 9.98657 14Z" fill="white"/>
</svg>
