<svg width="24" height="24" viewBox="0 0 24 24" fill="none" xmlns="http://www.w3.org/2000/svg">
<path fill-rule="evenodd" clip-rule="evenodd" d="M12.0002 3.17495C9.88771 3.17495 8.1752 4.88746 8.1752 6.99995V8.92857C9.28234 8.22974 10.5944 7.82495 12.0002 7.82495C13.406 7.82495 14.7181 8.22974 15.8252 8.92857V6.99995C15.8252 4.88746 14.1127 3.17495 12.0002 3.17495ZM17.1752 10.03V6.99995C17.1752 4.14188 14.8583 1.82495 12.0002 1.82495C9.14212 1.82495 6.8252 4.14188 6.8252 6.99995V10.03C5.58726 11.3188 4.8252 13.0709 4.8252 15C4.8252 18.9626 8.03755 22.1749 12.0002 22.1749C15.9628 22.1749 19.1752 18.9626 19.1752 15C19.1752 13.0709 18.4131 11.3188 17.1752 10.03ZM12.0002 9.17495C10.4348 9.17495 9.01482 9.79155 7.96757 10.7965C6.86204 11.8575 6.1752 13.3479 6.1752 15C6.1752 18.217 8.78314 20.825 12.0002 20.825C15.2173 20.825 17.8252 18.217 17.8252 15C17.8252 13.3479 17.1384 11.8575 16.0328 10.7965C14.9856 9.79155 13.5656 9.17495 12.0002 9.17495ZM12.0001 14.3364C11.6337 14.3364 11.3366 14.6335 11.3366 15C11.3366 15.3664 11.6337 15.6635 12.0002 15.6635C12.3666 15.6635 12.6637 15.3665 12.6637 15C12.6637 14.6335 12.3666 14.3364 12.0001 14.3364ZM9.98657 15C9.98657 13.8879 10.8881 12.9864 12.0001 12.9864C13.1122 12.9864 14.0137 13.8879 14.0137 15C14.0137 15.8752 13.4553 16.6201 12.6752 16.8976L12.6751 17.5C12.6751 17.8728 12.3729 18.175 12.0001 18.175C11.6273 18.1749 11.3251 17.8727 11.3251 17.4999L11.3252 16.8976C10.5451 16.6201 9.98657 15.8753 9.98657 15Z" fill="white"/>
</svg>
