<svg width="16" height="16" viewBox="0 0 16 16" fill="none" xmlns="http://www.w3.org/2000/svg">
<path fill-rule="evenodd" clip-rule="evenodd" d="M4.5 6V4.5C4.5 2.567 6.067 1 8 1C9.933 1 11.5 2.567 11.5 4.5V6H12.1C12.5971 6 13 6.40294 13 6.9V13.1C13 13.5971 12.5971 14 12.1 14H3.9C3.40294 14 3 13.5971 3 13.1V6.9C3 6.40294 3.40294 6 3.9 6H4.5ZM5.5 4.5C5.5 3.11929 6.61929 2 8 2C9.38071 2 10.5 3.11929 10.5 4.5V6H5.5V4.5ZM8.5 10.3662C8.7989 10.1933 9 9.87014 9 9.5C9 8.94772 8.55228 8.5 8 8.5C7.44772 8.5 7 8.94772 7 9.5C7 9.87014 7.2011 10.1933 7.5 10.3662V11C7.5 11.2761 7.72386 11.5 8 11.5C8.27614 11.5 8.5 11.2761 8.5 11V10.3662Z" fill="white"/>
</svg>
