<svg width="16" height="16" viewBox="0 0 16 16" fill="none" xmlns="http://www.w3.org/2000/svg">
<path fill-rule="evenodd" clip-rule="evenodd" d="M4.5 5.5V4.5C4.5 2.567 6.067 1 8 1C9.933 1 11.5 2.567 11.5 4.5V5.5H12.1C12.5971 5.5 13 5.90294 13 6.4V9C13 11.7614 10.7614 14 8 14L-nan -nanL8 14C5.23858 14 3 11.7614 3 9V6.4C3 5.90294 3.40294 5.5 3.9 5.5H4.5ZM5.5 4.5C5.5 3.11929 6.61929 2 8 2C9.38071 2 10.5 3.11929 10.5 4.5V5.5H5.5V4.5ZM8.5 9.86622C8.7989 9.69331 9 9.37014 9 9C9 8.44772 8.55228 8 8 8C7.44772 8 7 8.44772 7 9C7 9.37014 7.2011 9.69331 7.5 9.86622V10.5C7.5 10.7761 7.72386 11 8 11C8.27614 11 8.5 10.7761 8.5 10.5V9.86622Z" fill="white"/>
</svg>
