<svg width="16" height="16" viewBox="0 0 16 16" fill="none" xmlns="http://www.w3.org/2000/svg">
<path fill-rule="evenodd" clip-rule="evenodd" d="M8 2.16699C6.61929 2.16699 5.5 3.28628 5.5 4.66699V5.66933C6.23548 5.24396 7.08959 5.00031 8 5.00031C8.91041 5.00031 9.76452 5.24396 10.5 5.66933V4.66699C10.5 3.28628 9.38071 2.16699 8 2.16699ZM11.5 6.42959V4.66699C11.5 2.734 9.933 1.16699 8 1.16699C6.067 1.16699 4.5 2.734 4.5 4.66699V6.42959C3.57492 7.33651 3 8.60156 3 10.0003C3 12.7617 5.23858 15.0003 8 15.0003C10.7614 15.0003 13 12.7617 13 10.0003C13 8.60156 12.4251 7.33651 11.5 6.42959ZM8 6.00031C6.97521 6.00031 6.04146 6.38503 5.33346 7.01871C4.51433 7.75185 4 8.81569 4 10.0003C4 12.2094 5.79086 14.0003 8 14.0003C10.2091 14.0003 12 12.2094 12 10.0003C12 8.81569 11.4857 7.75185 10.6665 7.01871C9.95854 6.38503 9.02479 6.00031 8 6.00031ZM7.99996 9.60795C7.78326 9.60795 7.60758 9.78362 7.60758 10.0003C7.60758 10.217 7.78327 10.3927 8 10.3927C8.21668 10.3927 8.39234 10.2171 8.39234 10.0003C8.39234 9.78362 8.21667 9.60795 7.99996 9.60795ZM6.60758 10.0003C6.60758 9.23134 7.23097 8.60795 7.99996 8.60795C8.76896 8.60795 9.39234 9.23134 9.39234 10.0003C9.39234 10.5931 9.02197 11.0993 8.49998 11.3002L8.49996 11.667C8.49995 11.9432 8.27608 12.167 7.99994 12.167C7.7238 12.167 7.49995 11.9431 7.49996 11.667L7.49998 11.3002C6.97801 11.0993 6.60758 10.5931 6.60758 10.0003Z" fill="white"/>
</svg>
