<svg width="24" height="24" viewBox="0 0 24 24" fill="none" xmlns="http://www.w3.org/2000/svg">
<path fill-rule="evenodd" clip-rule="evenodd" d="M17.175 7.00018V10.2864C18.3087 11.5304 19 13.1846 19 15.0002C19 18.8662 15.866 22.0002 12 22.0002C8.13403 22.0002 5 18.8662 5 15.0002C5 13.1846 5.69128 11.5304 6.82501 10.2864V7.00018C6.82501 4.14215 9.14197 1.8252 12 1.8252C14.8581 1.8252 17.175 4.14215 17.175 7.00018ZM8.17499 7.00018C8.17499 4.8877 9.88751 3.17517 12 3.17517C14.1125 3.17517 15.825 4.8877 15.825 7.00018V9.13678C14.7255 8.41809 13.4116 8.00024 12 8.00024C10.5884 8.00024 9.27448 8.41809 8.17499 9.13678V7.00018ZM13.5 15.0002C13.5 15.5858 13.1644 16.0931 12.675 16.3401V17.0002C12.675 17.373 12.3728 17.6752 12 17.6752C11.6272 17.6752 11.325 17.373 11.325 17.0002V16.3401C10.8356 16.0931 10.5 15.5858 10.5 15.0002C10.5 14.1718 11.1716 13.5002 12 13.5002C12.8284 13.5002 13.5 14.1718 13.5 15.0002Z" fill="white"/>
</svg>
