<svg width="16" height="16" viewBox="0 0 16 16" fill="none" xmlns="http://www.w3.org/2000/svg">
<path fill-rule="evenodd" clip-rule="evenodd" d="M11.5 4.5V6.42932C12.4257 7.33679 13 8.60132 13 10C13 12.7614 10.7614 15 8 15C5.23859 15 3 12.7614 3 10C3 8.60132 3.57434 7.33679 4.5 6.42932V4.5C4.5 2.56702 6.06702 1 8 1C9.93298 1 11.5 2.56702 11.5 4.5ZM5.5 4.5C5.5 3.11926 6.61926 2 8 2C9.38074 2 10.5 3.11926 10.5 4.5V5.66895C9.76459 5.24353 8.91071 5 8 5C7.08929 5 6.23541 5.24353 5.5 5.66895V4.5ZM9 10C9 10.3701 8.79889 10.6933 8.5 10.8662V11.5C8.5 11.7761 8.27612 12 8 12C7.72388 12 7.5 11.7761 7.5 11.5V10.8662C7.20111 10.6933 7 10.3701 7 10C7 9.44769 7.44769 9 8 9C8.55231 9 9 9.44769 9 10Z" fill="white"/>
</svg>
