<svg width="24" height="24" viewBox="0 0 24 24" fill="none" xmlns="http://www.w3.org/2000/svg">
<path fill-rule="evenodd" clip-rule="evenodd" d="M6.825 9.0002V7.0002C6.825 4.14212 9.14193 1.8252 12 1.8252C14.8581 1.8252 17.175 4.14212 17.175 7.0002V9.0002H17.5C18.3284 9.0002 19 9.67177 19 10.5002V14.0002C19 17.8662 15.866 21.0002 12 21.0002L-nan -nanL12 21.0002C8.13401 21.0002 5 17.8662 5 14.0002V10.5002C5 9.67177 5.67157 9.0002 6.5 9.0002H6.825ZM8.175 7.0002C8.175 4.88771 9.88751 3.1752 12 3.1752C14.1125 3.1752 15.825 4.88771 15.825 7.0002V9.0002H8.175V7.0002ZM12.675 15.3401C13.1644 15.0931 13.5 14.5858 13.5 14.0002C13.5 13.1718 12.8284 12.5002 12 12.5002C11.1716 12.5002 10.5 13.1718 10.5 14.0002C10.5 14.5858 10.8356 15.0931 11.325 15.3401V16.0002C11.325 16.373 11.6272 16.6752 12 16.6752C12.3728 16.6752 12.675 16.373 12.675 16.0002V15.3401Z" fill="white"/>
</svg>
