<svg width="16" height="16" viewBox="0 0 16 16" fill="none" xmlns="http://www.w3.org/2000/svg">
<path fill-rule="evenodd" clip-rule="evenodd" d="M8.00002 2C6.61931 2 5.50002 3.11929 5.50002 4.5L5.50001 5.5H10.5L10.5 4.5C10.5 3.11929 9.38073 2 8.00002 2ZM11.5 5.5L11.5 4.5C11.5 2.567 9.93301 1 8.00002 1C6.06702 1 4.50002 2.567 4.50002 4.49999C4.50002 4.49999 4.50002 4.5 4.50002 4.49999L4.50001 5.5H3.9C3.40294 5.5 3 5.90294 3 6.4V9.1C3 11.8062 5.1938 14 7.9 14H8.1C10.8062 14 13 11.8062 13 9.1V6.4C13 5.90294 12.5971 5.5 12.1 5.5H11.5ZM4 6.5V9.1C4 11.2539 5.74609 13 7.9 13H8.1C10.2539 13 12 11.2539 12 9.1V6.5H4ZM8.00002 8.5C7.72387 8.5 7.50002 8.72386 7.50002 9C7.50002 9.27614 7.72387 9.5 8.00002 9.5C8.27616 9.5 8.50002 9.27614 8.50002 9C8.50002 8.72386 8.27616 8.5 8.00002 8.5ZM6.50002 9C6.50002 8.17157 7.17159 7.5 8.00002 7.5C8.82844 7.5 9.50002 8.17157 9.50002 9C9.50002 9.65311 9.08261 10.2087 8.50002 10.4146V11C8.50002 11.2761 8.27616 11.5 8.00002 11.5C7.72387 11.5 7.50002 11.2761 7.50002 11V10.4146C6.91742 10.2087 6.50002 9.65311 6.50002 9Z" fill="white"/>
</svg>
