<svg width="24" height="24" viewBox="0 0 24 24" fill="none" xmlns="http://www.w3.org/2000/svg">
<path fill-rule="evenodd" clip-rule="evenodd" d="M6.825 9.99995V6.99995C6.825 4.14188 9.14193 1.82495 12 1.82495C14.8581 1.82495 17.175 4.14188 17.175 6.99995V9.99995H17.5C18.3284 9.99995 19 10.6715 19 11.5V19.5C19 20.3284 18.3284 21 17.5 21H6.5C5.67157 21 5 20.3284 5 19.5V11.5C5 10.6715 5.67157 9.99995 6.5 9.99995H6.825ZM8.175 6.99995C8.175 4.88746 9.88751 3.17495 12 3.17495C14.1125 3.17495 15.825 4.88746 15.825 6.99995V9.99995H8.175V6.99995ZM12.675 16.3399C13.1644 16.0928 13.5 15.5856 13.5 15C13.5 14.1715 12.8284 13.5 12 13.5C11.1716 13.5 10.5 14.1715 10.5 15C10.5 15.5856 10.8356 16.0928 11.325 16.3399V17C11.325 17.3727 11.6272 17.675 12 17.675C12.3728 17.675 12.675 17.3727 12.675 17V16.3399Z" fill="white"/>
</svg>
