<svg width="24" height="24" viewBox="0 0 24 24" fill="none" xmlns="http://www.w3.org/2000/svg">
<path fill-rule="evenodd" clip-rule="evenodd" d="M12 21C16.9706 21 21 16.9706 21 12C21 7.02943 16.9706 3 12 3C7.02942 3 3 7.02943 3 12C3 16.9706 7.02942 21 12 21ZM12 19.65C14.488 19.65 16.6987 18.4622 18.0958 16.6227C17.3705 15.8571 16.063 15.142 13.7064 14.1861C13.67 14.1735 13.6378 14.1525 13.6112 14.1245C13.5216 14.0293 13.5259 13.8796 13.6211 13.79C14.349 13.1223 14.7747 12.1873 14.7998 11.2005V9.80074C14.7998 9.77275 14.7998 9.74335 14.7985 9.71536C14.7522 8.17004 13.4614 6.95508 11.9159 7.00128C10.373 7.09225 9.17615 8.38141 9.19995 9.92532V11.2005C9.22375 12.1873 9.64648 13.1209 10.373 13.79C10.4011 13.8152 10.4221 13.846 10.4347 13.881C10.481 14.0027 10.4193 14.1399 10.2975 14.1861C7.93896 15.1421 6.63049 15.8575 5.90454 16.6233C7.30164 18.4624 9.51208 19.65 12 19.65Z" fill="white"/>
</svg>
