<svg width="24" height="24" viewBox="0 0 24 24" fill="none" xmlns="http://www.w3.org/2000/svg">
<path fill-rule="evenodd" clip-rule="evenodd" d="M3.82495 5.49995C3.82495 4.57487 4.57487 3.82495 5.49995 3.82495H18.5C19.425 3.82495 20.175 4.57487 20.175 5.49995V18.5C20.175 19.4255 19.424 20.175 18.4994 20.175H5.49995C4.57487 20.175 3.82495 19.425 3.82495 18.5V5.49995ZM5.49995 5.17495C5.32046 5.17495 5.17495 5.32046 5.17495 5.49995V16.9844C5.29479 16.7051 5.45587 16.4346 5.67246 16.1719C6.36739 15.3287 7.58137 14.6311 9.56721 13.7942C9.04419 13.116 8.74602 12.2847 8.72508 11.4167L8.72489 11.4085V10.2212C8.70015 8.42841 10.0909 6.93294 11.8821 6.82731L11.8919 6.82673L11.9017 6.82644C13.7072 6.77248 15.2158 8.19018 15.273 9.99522C15.2748 10.0358 15.2748 10.0744 15.2748 10.0967V11.409L15.2746 11.4176C15.2525 12.2842 14.9532 13.1148 14.4304 13.7919C16.418 14.6298 17.6328 15.3278 18.3278 16.1716C18.5443 16.4345 18.7052 16.705 18.825 16.9843V5.49995C18.825 5.32046 18.6794 5.17495 18.5 5.17495H5.49995ZM17.8125 18.825C17.7794 17.9771 17.6627 17.4876 17.2857 17.0299C16.7711 16.405 15.7056 15.7622 13.3416 14.8026C13.2122 14.754 13.0987 14.6772 13.0068 14.5805L13.0046 14.5782C12.6671 14.2197 12.6814 13.6533 13.0426 13.3134L13.0489 13.3074C13.588 12.813 13.904 12.1214 13.9248 11.3913V10.1006C13.9248 10.0714 13.9247 10.0613 13.9243 10.0551L13.9237 10.0415C13.892 8.98281 13.0103 8.14919 11.9518 8.17557C10.8844 8.24366 10.0583 9.13717 10.0748 10.2059L10.075 10.2163L10.0749 11.3918C10.0946 12.1216 10.4077 12.8114 10.9448 13.3068C11.0474 13.4003 11.1293 13.5185 11.1795 13.6552C11.3496 14.1118 11.1221 14.6222 10.6679 14.8002C8.29787 15.7611 7.22986 16.4049 6.71421 17.0305C6.33689 17.4883 6.22006 17.9777 6.18685 18.825H17.8125Z" fill="white"/>
</svg>
