<svg width="16" height="16" viewBox="0 0 16 16" fill="none" xmlns="http://www.w3.org/2000/svg">
<path fill-rule="evenodd" clip-rule="evenodd" d="M3.9 3C3.40294 3 3 3.40294 3 3.9V12.1C3 12.5971 3.40294 13 3.9 13H12.1C12.5971 13 13 12.5971 13 12.1V3.9C13 3.40294 12.5971 3 12.1 3H3.9ZM4 11.98V4H12V11.9032C11.9982 11.2786 11.9679 10.6836 11.5686 10.1533C11.1975 9.66062 10.5473 9.27242 9.51859 8.82892C9.75465 8.47018 9.88871 8.0496 9.89986 7.613L9.90003 7.60024C9.90003 7.53556 9.9011 7.46368 9.90224 7.38762C9.90484 7.21392 9.90776 7.01847 9.89894 6.83754C9.86484 5.7911 8.98994 4.96958 7.94311 5.00086L7.93586 5.00108L7.92861 5.00151C6.89159 5.06267 6.08624 5.92825 6.10007 6.96624V7.60024L6.10022 7.6123C6.11077 8.0497 6.24436 8.47078 6.48049 8.83011C5.45264 9.27314 4.80281 9.66118 4.43187 10.1535C4.01589 10.7056 4.00001 11.3277 4 11.98ZM5.00036 12H10.9997C10.997 11.3064 10.9685 11.0189 10.7697 10.7549C10.534 10.4418 10.0048 10.1002 8.67295 9.55946C8.4515 9.47572 8.32814 9.28613 8.29027 9.11127C8.25137 8.93172 8.2881 8.70014 8.46798 8.53086L8.47265 8.52647C8.73529 8.28559 8.88938 7.94883 8.90003 7.59327C8.90009 7.49805 8.90147 7.41127 8.90277 7.32903C8.90525 7.17282 8.90746 7.03294 8.89995 6.88266L8.89945 6.87263C8.88468 6.37864 8.47401 5.98936 7.98021 6.00023C7.47936 6.03358 7.09228 6.45329 7.10001 6.95496L7.10013 6.96266L7.10007 7.59373C7.11013 7.94902 7.26269 8.28472 7.52417 8.52609C7.70481 8.69076 7.74664 8.91953 7.71153 9.09976C7.67684 9.27783 7.55524 9.47052 7.3334 9.55777C5.99739 10.0995 5.46679 10.4417 5.23054 10.7553C5.0316 11.0193 5.00311 11.3068 5.00036 12Z" fill="white"/>
</svg>
