<svg width="24" height="24" viewBox="0 0 24 24" fill="none" xmlns="http://www.w3.org/2000/svg">
<path fill-rule="evenodd" clip-rule="evenodd" d="M2.5 4C1.67163 4 1 4.67157 1 5.5V18.5C1 19.3284 1.67163 20 2.5 20H21.5C22.3284 20 23 19.3284 23 18.5V5.5C23 4.67157 22.3284 4 21.5 4H2.5ZM18.1648 16.6976C18.5514 17.1298 18.65 17.728 18.65 18.3078V18.5C18.65 18.5829 18.5828 18.65 18.5 18.65H5.5C5.41711 18.65 5.34998 18.5829 5.34998 18.5V18.309C5.34998 17.7289 5.44861 17.1305 5.83545 16.6982C6.54639 15.9038 7.86218 15.1732 10.2975 14.1861C10.4193 14.1399 10.481 14.0027 10.4347 13.881C10.4221 13.846 10.4011 13.8152 10.3732 13.79C9.64648 13.1209 9.22375 12.1873 9.19995 11.2005V9.92532C9.17615 8.38141 10.3732 7.09225 11.9159 7.00128C13.4614 6.95508 14.7522 8.17004 14.7985 9.71536L14.7996 9.74811L14.7998 9.80074V11.2005C14.7747 12.1873 14.349 13.1223 13.6211 13.79C13.5259 13.8796 13.5216 14.0293 13.6112 14.1245C13.6378 14.1525 13.67 14.1735 13.7064 14.1861C16.1398 15.1732 17.4545 15.9035 18.1648 16.6976Z" fill="white"/>
</svg>
