<svg width="24" height="24" viewBox="0 0 24 24" fill="none" xmlns="http://www.w3.org/2000/svg">
<path fill-rule="evenodd" clip-rule="evenodd" d="M12 4.17495C7.67832 4.17495 4.17495 7.67832 4.17495 12C4.17495 13.6229 4.66843 15.1294 5.51408 16.3792C5.75867 16.0335 6.08187 15.7128 6.50175 15.4014C7.20513 14.8799 8.19551 14.3727 9.56726 13.7943C9.04421 13.116 8.74602 12.2848 8.72508 11.4167L8.72489 11.4085V10.2212C8.70015 8.42841 10.0909 6.93294 11.8821 6.82731L11.8919 6.82673L11.9017 6.82644C13.7072 6.77248 15.2158 8.19016 15.273 9.99517C15.2748 10.0358 15.2748 10.0744 15.2748 10.0967V11.409L15.2746 11.4176C15.2525 12.2843 14.9532 13.1149 14.4304 13.792C15.8042 14.3714 16.7957 14.8792 17.4995 15.4015C17.9189 15.7127 18.2418 16.0332 18.4861 16.3788C19.3316 15.1291 19.825 13.6227 19.825 12C19.825 7.67832 16.3216 4.17495 12 4.17495ZM17.574 17.4918C17.4231 17.1531 17.1663 16.8353 16.6951 16.4856C16.042 16.001 15.0078 15.479 13.3416 14.8026C13.2122 14.754 13.0987 14.6772 13.0068 14.5805L13.0046 14.5782C12.6671 14.2197 12.6814 13.6533 13.0426 13.3134L13.0489 13.3074C13.588 12.813 13.904 12.1214 13.9248 11.3913V10.1006C13.9248 10.0714 13.9247 10.0613 13.9243 10.0551L13.9237 10.0415C13.892 8.98281 13.0103 8.14919 11.9518 8.17557C10.8844 8.24366 10.0583 9.13718 10.0748 10.2059L10.075 10.2163L10.0749 11.3918C10.0946 12.1215 10.4076 12.8113 10.9447 13.3067C11.0474 13.4002 11.1293 13.5185 11.1796 13.6553C11.3496 14.1119 11.1221 14.6222 10.6679 14.8003C8.99707 15.4777 7.96031 16.0005 7.30585 16.4858C6.83425 16.8355 6.57712 17.1534 6.42611 17.492C7.84598 18.933 9.81841 19.825 12 19.825C14.1816 19.825 16.1541 18.9329 17.574 17.4918ZM2.82495 12C2.82495 6.93274 6.93274 2.82495 12 2.82495C17.0672 2.82495 21.1749 6.93274 21.1749 12C21.1749 14.3447 20.2945 16.4854 18.8473 18.107C17.168 19.9887 14.722 21.1749 12 21.1749C9.27788 21.1749 6.832 19.9887 5.1527 18.1071C3.70541 16.4855 2.82495 14.3447 2.82495 12Z" fill="white"/>
</svg>
