<svg width="16" height="16" viewBox="0 0 16 16" fill="none" xmlns="http://www.w3.org/2000/svg">
<path fill-rule="evenodd" clip-rule="evenodd" d="M8 14C11.3137 14 14 11.3137 14 8C14 4.68629 11.3137 2 8 2C4.68628 2 2 4.68629 2 8C2 11.3137 4.68628 14 8 14ZM8 13C9.56396 13 10.9601 12.282 11.877 11.1577C11.6423 10.4176 10.9598 9.91144 8.9751 9.10634C8.95435 9.09915 8.93591 9.08714 8.92078 9.07115C8.89185 9.04053 8.88 9 8.88489 8.9613C8.88867 8.93129 8.90259 8.90236 8.92639 8.87999C9.34229 8.49846 9.58557 7.96416 9.59998 7.40027V6.60042C9.59998 6.58443 9.59998 6.56763 9.59912 6.55164C9.57275 5.66859 8.83521 4.97433 7.9519 5.00073C7.07043 5.05272 6.38635 5.78938 6.40002 6.67162V7.40027C6.41357 7.96416 6.65515 8.49767 7.07043 8.87999C7.08643 8.89438 7.09839 8.91199 7.10559 8.93198C7.13196 9.00156 7.0968 9.07996 7.02722 9.10634C5.04114 9.91133 4.35803 10.4178 4.12317 11.1578C5.04004 12.282 6.43616 13 8 13Z" fill="white"/>
</svg>
