<svg width="16" height="16" viewBox="0 0 16 16" fill="none" xmlns="http://www.w3.org/2000/svg">
<path fill-rule="evenodd" clip-rule="evenodd" d="M1.90002 3C1.40295 3 1 3.40294 1 3.89999V12.1C1 12.5971 1.40295 13 1.90002 13H14.1C14.597 13 15 12.5971 15 12.1V3.89999C15 3.40294 14.597 3 14.1 3H1.90002ZM8.9751 9.10634C11.6245 10.1811 11.9532 10.7231 11.994 12H4.00574C4.04663 10.7237 4.37573 10.181 7.0271 9.10634C7.09668 9.07996 7.13184 9.00156 7.10547 8.93198C7.09827 8.91199 7.0863 8.89438 7.07031 8.87999C6.65515 8.49767 6.41345 7.96416 6.3999 7.40027V6.67162C6.38635 5.78938 7.07031 5.05272 7.9519 5.00073C8.83508 4.97433 9.57263 5.66859 9.599 6.55164L9.59973 6.5699L9.59985 6.60042V7.40027C9.58545 7.96416 9.34229 8.49846 8.92627 8.87999C8.89343 8.91087 8.87964 8.95427 8.88501 8.99577C8.88855 9.02307 8.90039 9.04956 8.92065 9.07115C8.93591 9.08714 8.95422 9.09915 8.9751 9.10634Z" fill="white"/>
</svg>
