<svg width="16" height="16" viewBox="0 0 16 16" fill="none" xmlns="http://www.w3.org/2000/svg">
<path fill-rule="evenodd" clip-rule="evenodd" d="M8 3C5.23858 3 3 5.23858 3 8C3 9.16404 3.39778 10.2352 4.06481 11.0849C4.12134 10.783 4.22692 10.4913 4.42388 10.2148C4.79415 9.69512 5.44464 9.28297 6.48099 8.83103C6.24448 8.4715 6.11067 8.05007 6.10011 7.61229L6.09982 7.60024H6.09997V6.96623C6.08613 5.92825 6.89148 5.06266 7.92851 5.0015L7.93575 5.00108L7.94301 5.00086C8.98983 4.96957 9.86474 5.7911 9.89883 6.83753C9.90766 7.01847 9.90473 7.21391 9.90213 7.38762C9.901 7.46367 9.89992 7.53556 9.89992 7.60024V7.613L9.89976 7.613C9.8886 8.04996 9.75432 8.47089 9.51788 8.82983C10.5551 9.28223 11.206 9.69457 11.5764 10.2147C11.7732 10.4912 11.8787 10.7829 11.9352 11.0849C12.6022 10.2352 13 9.16405 13 8C13 5.23858 10.7614 3 8 3ZM10.9991 12.0011C10.9939 11.3752 10.9592 11.0721 10.7617 10.7947C10.5247 10.4618 9.99506 10.0964 8.67283 9.55945C8.45139 9.47571 8.32804 9.28612 8.29016 9.11127C8.25127 8.93172 8.288 8.70013 8.46788 8.53086L8.47254 8.52647L8.47257 8.5265C8.73521 8.28562 8.88928 7.94883 8.89992 7.59327C8.89999 7.49804 8.90136 7.41125 8.90267 7.329C8.90514 7.17279 8.90736 7.03293 8.89984 6.88265L8.89934 6.87262L8.89944 6.87262C8.88467 6.37864 8.47391 5.98935 7.98011 6.00023C7.47926 6.03357 7.09217 6.45329 7.09991 6.95495L7.10003 6.96266H7.09997V7.59373C7.11002 7.949 7.26257 8.28469 7.52403 8.52605C7.70469 8.69073 7.74654 8.91952 7.71142 9.09976C7.67674 9.27783 7.55514 9.47051 7.3333 9.55776C6.00691 10.0956 5.47586 10.4617 5.23831 10.7951C5.04073 11.0724 5.00602 11.3755 5.00082 12.001C5.83634 12.6283 6.87476 13 8 13C9.12519 13 10.1636 12.6283 10.9991 12.0011ZM2 8C2 4.68629 4.68629 2 8 2C11.3137 2 14 4.68629 14 8C14 11.3137 11.3137 14 8 14C4.68629 14 2 11.3137 2 8Z" fill="white"/>
</svg>
