<svg width="24" height="24" viewBox="0 0 24 24" fill="none" xmlns="http://www.w3.org/2000/svg">
<path fill-rule="evenodd" clip-rule="evenodd" d="M17.7122 8.22161L11.918 4.87631C11.7633 4.787 11.5727 4.787 11.418 4.87631L5.62378 8.22161C5.46908 8.31093 5.37378 8.47599 5.37378 8.65463V15.3452C5.37378 15.5239 5.46908 15.6889 5.62378 15.7782L11.418 19.1235C11.5727 19.2129 11.7633 19.2129 11.918 19.1235L17.7122 15.7782C17.8669 15.6889 17.9622 15.5239 17.9622 15.3452V8.65463C17.9622 8.47599 17.8669 8.31093 17.7122 8.22161ZM12.668 3.57728C12.0492 3.22001 11.2868 3.22001 10.668 3.57728L4.87378 6.92257C4.25498 7.27984 3.87378 7.94009 3.87378 8.65463V15.3452C3.87378 16.0598 4.25498 16.72 4.87378 17.0773L10.668 20.4226C11.2868 20.7798 12.0492 20.7798 12.668 20.4226L18.4622 17.0773C19.081 16.72 19.4622 16.0598 19.4622 15.3452V8.65463C19.4622 7.94009 19.081 7.27984 18.4622 6.92257L12.668 3.57728Z" fill="white"/>
</svg>
