<svg width="16" height="16" viewBox="0 0 16 16" fill="none" xmlns="http://www.w3.org/2000/svg">
<path fill-rule="evenodd" clip-rule="evenodd" d="M1 2.9C1 2.40294 1.40294 2 1.9 2L10.1001 2.0001C10.5971 2.0001 11.0001 2.40304 11.0001 2.9001L11.0001 4.00009L12.1001 4.0001C12.5971 4.0001 13.0001 4.40304 13.0001 4.9001L13.0001 6H14.1C14.5971 6 15 6.40295 15 6.9V13.1C15 13.5971 14.5971 14 14.1 14L5.9 14C5.44982 14 5.07766 13.67 5.01068 13.2386C5.00362 13.1931 5 13.1468 5 13.1V12.0001L3.90002 12C3.40297 12 3.00003 11.5971 3.00003 11.1001L3.00002 10L1.90002 10C1.40297 10 1.00003 9.59711 1.00003 9.10005L1 2.9ZM3.00002 9.00005L3 4.9C3 4.40294 3.40294 4 3.9 4L10.0001 4.00007L10.0001 3.0001L2 3L2.00002 9.00005L3.00002 9.00005ZM6 11.9595L7.31318 10.6464C7.50844 10.4511 7.82502 10.4511 8.02028 10.6464L9.00006 11.6262L11.3132 9.31305C11.4069 9.21928 11.5341 9.1666 11.6667 9.1666C11.7993 9.1666 11.9265 9.21928 12.0203 9.31305L14 11.2928V7H6V11.9595ZM12.0001 6H5.9C5.40294 6 5 6.40294 5 6.9V11.0001L4.00002 11L4 5L12.0001 5.0001L12.0001 6ZM14 12.707L11.6667 10.3737L9.35361 12.6868C9.25985 12.7806 9.13267 12.8333 9.00006 12.8333C8.86745 12.8333 8.74028 12.7806 8.64651 12.6868L7.66673 11.707L6.37374 13L14 13V12.707ZM9.00006 8.49994C8.72392 8.49994 8.50006 8.7238 8.50006 8.99994C8.50006 9.27608 8.72392 9.49994 9.00006 9.49994C9.2762 9.49994 9.50006 9.27608 9.50006 8.99994C9.50006 8.7238 9.2762 8.49994 9.00006 8.49994ZM7.50006 8.99994C7.50006 8.17151 8.17163 7.49994 9.00006 7.49994C9.82849 7.49994 10.5001 8.17151 10.5001 8.99994C10.5001 9.82837 9.82849 10.4999 9.00006 10.4999C8.17163 10.4999 7.50006 9.82837 7.50006 8.99994Z" fill="white"/>
</svg>
