<svg width="24" height="24" viewBox="0 0 24 24" fill="none" xmlns="http://www.w3.org/2000/svg">
<path fill-rule="evenodd" clip-rule="evenodd" d="M0.825012 4.49995C0.825012 3.57488 1.57493 2.82495 2.50001 2.82495H15.5C16.4251 2.82495 17.175 3.57487 17.175 4.49995V5.82495H18.5C19.4251 5.82495 20.175 6.57487 20.175 7.49995V8.82495H21.5C22.4251 8.82495 23.175 9.57488 23.175 10.5V20.5C23.175 21.425 22.4251 22.1749 21.5 22.1749H8.50001C7.57494 22.1749 6.82501 21.425 6.82501 20.5V19.175H5.50001C4.57494 19.175 3.82501 18.425 3.82501 17.5V16.175H2.50001C1.57494 16.175 0.825012 15.425 0.825012 14.5V4.49995ZM3.82501 14.825V7.49995C3.82501 6.57488 4.57493 5.82495 5.50001 5.82495H15.825V4.49995C15.825 4.32046 15.6795 4.17495 15.5 4.17495H2.50001C2.32052 4.17495 2.17501 4.32046 2.17501 4.49995V14.5C2.17501 14.6794 2.32052 14.825 2.50001 14.825H3.82501ZM8.17501 18.8176L10.286 16.7067C10.5496 16.4431 10.9769 16.4431 11.2405 16.7067L13.1317 18.5979L17.7859 13.9436C17.9125 13.817 18.0842 13.7459 18.2632 13.7459C18.4423 13.7459 18.614 13.817 18.7405 13.9436L21.825 17.028V10.5C21.825 10.3205 21.6795 10.175 21.5 10.175H8.50001C8.32052 10.175 8.17501 10.3205 8.17501 10.5V18.8176ZM18.825 8.82495H8.50001C7.57494 8.82495 6.82501 9.57487 6.82501 10.5V17.825H5.50001C5.32052 17.825 5.17501 17.6794 5.17501 17.5V7.49995C5.17501 7.32046 5.32052 7.17495 5.50001 7.17495H18.5C18.6795 7.17495 18.825 7.32046 18.825 7.49995V8.82495ZM21.825 18.9372L18.2632 15.3755L13.609 20.0297C13.4824 20.1563 13.3107 20.2274 13.1317 20.2274C12.9526 20.2274 12.781 20.1563 12.6544 20.0297L10.7632 18.1386L8.2264 20.6754C8.28421 20.7654 8.38515 20.825 8.50001 20.825H21.5C21.6795 20.825 21.825 20.6794 21.825 20.5V18.9372ZM12.5 12.175C11.7828 12.175 11.2013 12.7564 11.2013 13.4736C11.2013 14.1909 11.7828 14.7723 12.5 14.7723C13.2173 14.7723 13.7987 14.1909 13.7987 13.4736C13.7987 12.7564 13.2173 12.175 12.5 12.175ZM9.85133 13.4736C9.85133 12.0108 11.0372 10.825 12.5 10.825C13.9628 10.825 15.1487 12.0108 15.1487 13.4736C15.1487 14.9365 13.9628 16.1223 12.5 16.1223C11.0372 16.1223 9.85133 14.9365 9.85133 13.4736Z" fill="white"/>
</svg>
