<svg width="16" height="16" viewBox="0 0 16 16" fill="none" xmlns="http://www.w3.org/2000/svg">
<path fill-rule="evenodd" clip-rule="evenodd" d="M1.9 2C1.40294 2 1 2.40294 1 2.9L1.00003 9.10005C1.00003 9.59711 1.40297 10 1.90002 10L3.00002 10L3.00003 11.1001C3.00003 11.5971 3.40297 12 3.90002 12L5 12.0001V13.1C5 13.597 5.40294 14 5.89999 14H14.1C14.5971 14 15 13.597 15 13.1V6.90002C15 6.40295 14.5971 6 14.1 6H13.0001L13.0001 4.9001C13.0001 4.40304 12.5971 4.0001 12.1001 4.0001L11.0001 4.00009L11.0001 2.9001C11.0001 2.40304 10.5971 2.0001 10.1001 2.0001L1.9 2ZM12.0001 6L12.0001 5.0001L4 5L4.00002 11L5 11.0001V6.90002C5 6.40295 5.40294 6 5.89999 6H12.0001ZM3 4.9L3.00002 9.00005L2.00002 9.00005L2 3L10.0001 3.0001L10.0001 4.00007L3.90001 4C3.40295 4 3 4.40294 3 4.9ZM6 11.9596V13H14V11.2928L12.0203 9.31307C11.9265 9.2193 11.7994 9.16662 11.6668 9.16662C11.5342 9.16662 11.407 9.2193 11.3132 9.31307L9.00009 11.6262L8.02032 10.6464C7.82505 10.4511 7.50847 10.4511 7.31321 10.6464L6 11.9596ZM10.0001 8.99994C10.0001 9.55222 9.55241 9.99994 9.00012 9.99994C8.44784 9.99994 8.00012 9.55222 8.00012 8.99994C8.00012 8.44765 8.44784 7.99994 9.00012 7.99994C9.55241 7.99994 10.0001 8.44765 10.0001 8.99994Z" fill="white"/>
</svg>
