<svg width="24" height="24" viewBox="0 0 24 24" fill="none" xmlns="http://www.w3.org/2000/svg">
<path fill-rule="evenodd" clip-rule="evenodd" d="M2.49995 2.82495C1.57487 2.82495 0.824951 3.57488 0.824951 4.49995V14.5C0.824951 15.425 1.57488 16.175 2.49995 16.175H3.82495V17.5C3.82495 18.425 4.57488 19.175 5.49995 19.175H6.8249V20.4999C6.8249 21.425 7.57483 22.1749 8.4999 22.1749H21.4999C22.425 22.1749 23.1749 21.425 23.1749 20.4999V10.4999C23.1749 9.57483 22.425 8.8249 21.4999 8.8249H20.1749V7.49995C20.1749 6.57487 19.425 5.82495 18.5 5.82495H17.175V4.49995C17.175 3.57487 16.425 2.82495 15.5 2.82495H2.49995ZM18.825 8.8249V7.49995C18.825 7.32046 18.6794 7.17495 18.5 7.17495H5.49995C5.32046 7.17495 5.17495 7.32046 5.17495 7.49995V17.5C5.17495 17.6794 5.32046 17.825 5.49995 17.825H6.8249V10.4999C6.8249 9.57483 7.57483 8.8249 8.4999 8.8249H18.825ZM3.82495 7.49995V14.825H2.49995C2.32046 14.825 2.17495 14.6794 2.17495 14.5V4.49995C2.17495 4.32046 2.32046 4.17495 2.49995 4.17495H15.5C15.6794 4.17495 15.825 4.32046 15.825 4.49995V5.82495H5.49995C4.57487 5.82495 3.82495 6.57488 3.82495 7.49995ZM18.7405 13.9436L21.8249 17.0279V20.4999C21.8249 20.6794 21.6794 20.8249 21.4999 20.8249H8.4999C8.32041 20.8249 8.1749 20.6794 8.1749 20.4999V18.8177L10.2859 16.7067C10.5495 16.4431 10.9769 16.4431 11.2405 16.7067L13.1317 18.5978L17.7859 13.9436C17.9125 13.817 18.0842 13.7459 18.2632 13.7459C18.4423 13.7459 18.6139 13.817 18.7405 13.9436ZM12.5 15.4473C13.59 15.4473 14.4737 14.5637 14.4737 13.4736C14.4737 12.3836 13.59 11.5 12.5 11.5C11.41 11.5 10.5263 12.3836 10.5263 13.4736C10.5263 14.5637 11.41 15.4473 12.5 15.4473Z" fill="white"/>
</svg>
