<svg width="20" height="20" viewBox="0 0 20 20" fill="none" xmlns="http://www.w3.org/2000/svg">
<g clip-path="url(#clip0_41_19270)">
<path opacity="0.5" fill-rule="evenodd" clip-rule="evenodd" d="M13.875 1.5C13.875 1.15482 14.1548 0.875 14.5 0.875H17.5C17.8452 0.875 18.125 1.15482 18.125 1.5V7.5C18.125 7.84518 17.8452 8.125 17.5 8.125C17.1548 8.125 16.875 7.84518 16.875 7.5V2.125H15.125V4.5C15.125 4.84518 14.8452 5.125 14.5 5.125C14.1548 5.125 13.875 4.84518 13.875 4.5V1.5ZM10.875 10.5C10.875 10.1548 11.1548 9.875 11.5 9.875H14.5C14.8452 9.875 15.125 10.1548 15.125 10.5V13.5C15.125 13.8452 14.8452 14.125 14.5 14.125H11.5C11.1548 14.125 10.875 13.8452 10.875 13.5V10.5ZM12.125 11.125V12.875H13.875V11.125H12.125Z" fill="white"/>
<path fill-rule="evenodd" clip-rule="evenodd" d="M9.55806 -0.441942C9.80214 -0.686019 10.1979 -0.686019 10.4419 -0.441942L19.4419 8.55806C19.686 8.80214 19.686 9.19786 19.4419 9.44194C19.1979 9.68602 18.8021 9.68602 18.5581 9.44194L10 0.883884L1.44194 9.44194C1.19786 9.68602 0.802136 9.68602 0.558058 9.44194C0.313981 9.19786 0.313981 8.80214 0.558058 8.55806L9.55806 -0.441942ZM2.5 9.875C2.84518 9.875 3.125 10.1548 3.125 10.5V16.875H4.875V10.5C4.875 10.1548 5.15482 9.875 5.5 9.875H8.5C8.84518 9.875 9.125 10.1548 9.125 10.5V16.875H16.875V10.5C16.875 10.1548 17.1548 9.875 17.5 9.875C17.8452 9.875 18.125 10.1548 18.125 10.5V17.5C18.125 17.8452 17.8452 18.125 17.5 18.125H2.5C2.15482 18.125 1.875 17.8452 1.875 17.5V10.5C1.875 10.1548 2.15482 9.875 2.5 9.875ZM7.875 16.875V11.125H6.125V16.875H7.875Z" fill="white"/>
</g>
<defs>
<clipPath id="clip0_41_19270">
<rect width="20" height="20" fill="white"/>
</clipPath>
</defs>
</svg>
