<svg width="20" height="20" viewBox="0 0 20 20" fill="none" xmlns="http://www.w3.org/2000/svg">
<path opacity="0.5" fill-rule="evenodd" clip-rule="evenodd" d="M7.65718 6.6317C7.81889 6.53881 8.01793 6.53948 8.17902 6.63345L13.179 9.55012C13.339 9.64345 13.4374 9.81476 13.4374 10C13.4374 10.1852 13.339 10.3565 13.179 10.4499L8.17902 13.3666C8.01793 13.4605 7.81889 13.4612 7.65718 13.3683C7.49546 13.2754 7.39575 13.1032 7.39575 12.9167V7.08333C7.39575 6.89684 7.49546 6.72458 7.65718 6.6317ZM8.43742 7.99012V12.0099L11.8829 10L8.43742 7.99012Z" fill="white"/>
<path fill-rule="evenodd" clip-rule="evenodd" d="M3.33333 4.27091C2.93063 4.27091 2.60417 4.59737 2.60417 5.00008V15.0001C2.60417 15.4028 2.93063 15.7292 3.33333 15.7292H16.6667C17.0694 15.7292 17.3958 15.4028 17.3958 15.0001V5.00008C17.3958 4.59737 17.0694 4.27091 16.6667 4.27091H3.33333ZM1.5625 5.00008C1.5625 4.02208 2.35533 3.22925 3.33333 3.22925H16.6667C17.6447 3.22925 18.4375 4.02208 18.4375 5.00008V15.0001C18.4375 15.9781 17.6447 16.7709 16.6667 16.7709H3.33333C2.35533 16.7709 1.5625 15.9781 1.5625 15.0001V5.00008Z" fill="white"/>
</svg>
