<svg width="20" height="20" viewBox="0 0 20 20" fill="none" xmlns="http://www.w3.org/2000/svg">
<g clip-path="url(#clip0_41_19291)">
<path opacity="0.5" fill-rule="evenodd" clip-rule="evenodd" d="M-0.125 2.5C-0.125 2.15482 0.154822 1.875 0.5 1.875H6.95049C8.19413 1.875 9.317 2.48818 10 3.45293C10.683 2.48818 11.8059 1.875 13.0495 1.875H19.5C19.8452 1.875 20.125 2.15482 20.125 2.5V16.5C20.125 16.8452 19.8452 17.125 19.5 17.125H15.5C15.1548 17.125 14.875 16.8452 14.875 16.5C14.875 16.1548 15.1548 15.875 15.5 15.875H18.875V3.125H13.0495C11.8845 3.125 10.8789 3.93371 10.625 5.06535V6.5C10.625 6.84518 10.3452 7.125 10 7.125C9.65482 7.125 9.375 6.84518 9.375 6.5V5.06535C9.12114 3.93371 8.11545 3.125 6.95049 3.125H1.125V15.875H4.5C4.84518 15.875 5.125 16.1548 5.125 16.5C5.125 16.8452 4.84518 17.125 4.5 17.125H0.5C0.154822 17.125 -0.125 16.8452 -0.125 16.5V2.5ZM1.875 5.5C1.875 5.15482 2.15482 4.875 2.5 4.875H7.5C7.84518 4.875 8.125 5.15482 8.125 5.5C8.125 5.84518 7.84518 6.125 7.5 6.125H2.5C2.15482 6.125 1.875 5.84518 1.875 5.5ZM11.875 5.5C11.875 5.15482 12.1548 4.875 12.5 4.875H17.5C17.8452 4.875 18.125 5.15482 18.125 5.5C18.125 5.84518 17.8452 6.125 17.5 6.125H12.5C12.1548 6.125 11.875 5.84518 11.875 5.5ZM1.875 7.5C1.875 7.15482 2.15482 6.875 2.5 6.875H6.5C6.84518 6.875 7.125 7.15482 7.125 7.5C7.125 7.84518 6.84518 8.125 6.5 8.125H2.5C2.15482 8.125 1.875 7.84518 1.875 7.5ZM12.875 7.5C12.875 7.15482 13.1548 6.875 13.5 6.875H17.5C17.8452 6.875 18.125 7.15482 18.125 7.5C18.125 7.84518 17.8452 8.125 17.5 8.125H13.5C13.1548 8.125 12.875 7.84518 12.875 7.5ZM1.875 9.5C1.875 9.15482 2.15482 8.875 2.5 8.875H4.5C4.84518 8.875 5.125 9.15482 5.125 9.5C5.125 9.84518 4.84518 10.125 4.5 10.125H2.5C2.15482 10.125 1.875 9.84518 1.875 9.5ZM14.875 9.5C14.875 9.15482 15.1548 8.875 15.5 8.875H17.5C17.8452 8.875 18.125 9.15482 18.125 9.5C18.125 9.84518 17.8452 10.125 17.5 10.125H15.5C15.1548 10.125 14.875 9.84518 14.875 9.5ZM1.875 11.5C1.875 11.1548 2.15482 10.875 2.5 10.875H3.5C3.84518 10.875 4.125 11.1548 4.125 11.5C4.125 11.8452 3.84518 12.125 3.5 12.125H2.5C2.15482 12.125 1.875 11.8452 1.875 11.5ZM15.875 11.5C15.875 11.1548 16.1548 10.875 16.5 10.875H17.5C17.8452 10.875 18.125 11.1548 18.125 11.5C18.125 11.8452 17.8452 12.125 17.5 12.125H16.5C16.1548 12.125 15.875 11.8452 15.875 11.5ZM1.875 13.5C1.875 13.1548 2.15482 12.875 2.5 12.875H3.5C3.84518 12.875 4.125 13.1548 4.125 13.5C4.125 13.8452 3.84518 14.125 3.5 14.125H2.5C2.15482 14.125 1.875 13.8452 1.875 13.5ZM15.875 13.5C15.875 13.1548 16.1548 12.875 16.5 12.875H17.5C17.8452 12.875 18.125 13.1548 18.125 13.5C18.125 13.8452 17.8452 14.125 17.5 14.125H16.5C16.1548 14.125 15.875 13.8452 15.875 13.5Z" fill="white"/>
<path fill-rule="evenodd" clip-rule="evenodd" d="M10 7.125C6.75533 7.125 4.125 9.75533 4.125 13C4.125 16.2447 6.75533 18.875 10 18.875C13.2447 18.875 15.875 16.2447 15.875 13C15.875 9.75533 13.2447 7.125 10 7.125ZM2.875 13C2.875 9.06497 6.06497 5.875 10 5.875C13.935 5.875 17.125 9.06497 17.125 13C17.125 16.935 13.935 20.125 10 20.125C6.06497 20.125 2.875 16.935 2.875 13ZM8.18305 9.96133C8.37391 9.84903 8.60994 9.84611 8.80353 9.95365L13.3035 12.4537C13.5019 12.5639 13.625 12.773 13.625 13C13.625 13.227 13.5019 13.4361 13.3035 13.5463L8.80353 16.0463C8.60994 16.1539 8.37391 16.151 8.18305 16.0387C7.99218 15.9264 7.875 15.7214 7.875 15.5V10.5C7.875 10.2786 7.99218 10.0736 8.18305 9.96133ZM9.125 11.5622V14.4378L11.713 13L9.125 11.5622Z" fill="white"/>
</g>
<defs>
<clipPath id="clip0_41_19291">
<rect width="20" height="20" fill="white"/>
</clipPath>
</defs>
</svg>
