<svg width="20" height="20" viewBox="0 0 20 20" fill="none" xmlns="http://www.w3.org/2000/svg">
<g clip-path="url(#clip0_41_19276)">
<path opacity="0.5" fill-rule="evenodd" clip-rule="evenodd" d="M8.02964 6.08844C8.25694 5.82867 8.65179 5.80235 8.91157 6.02965L12.9116 9.52965C13.0472 9.64833 13.125 9.81978 13.125 10C13.125 10.1802 13.0472 10.3517 12.9116 10.4704L8.91157 13.9704C8.65179 14.1977 8.25694 14.1713 8.02964 13.9116C7.80234 13.6518 7.82866 13.2569 8.08843 13.0296L10.8366 10.625H0.5C0.154822 10.625 -0.125 10.3452 -0.125 10C-0.125 9.65483 0.154822 9.37501 0.5 9.37501H10.8366L8.08843 6.97037C7.82866 6.74307 7.80234 6.34822 8.02964 6.08844Z" fill="white"/>
<path fill-rule="evenodd" clip-rule="evenodd" d="M-0.125 4C-0.125 2.8264 0.826395 1.875 2 1.875H18C19.1736 1.875 20.125 2.8264 20.125 4V16C20.125 17.1736 19.1736 18.125 18 18.125H2C0.826395 18.125 -0.125 17.1736 -0.125 16V12.5C-0.125 12.1548 0.154822 11.875 0.5 11.875C0.845178 11.875 1.125 12.1548 1.125 12.5V16C1.125 16.4832 1.51675 16.875 2 16.875H18C18.4832 16.875 18.875 16.4832 18.875 16V4C18.875 3.51675 18.4832 3.125 18 3.125H2C1.51675 3.125 1.125 3.51675 1.125 4V7.5C1.125 7.84518 0.845178 8.125 0.5 8.125C0.154822 8.125 -0.125 7.84518 -0.125 7.5V4Z" fill="white"/>
</g>
<defs>
<clipPath id="clip0_41_19276">
<rect width="20" height="20" fill="white"/>
</clipPath>
</defs>
</svg>
