<svg width="20" height="20" viewBox="0 0 20 20" fill="none" xmlns="http://www.w3.org/2000/svg">
<g clip-path="url(#clip0_41_19281)">
<g opacity="0.5">
<path fill-rule="evenodd" clip-rule="evenodd" d="M2.5 -0.125C2.15482 -0.125 1.875 0.154822 1.875 0.5C1.875 0.845178 2.15482 1.125 2.5 1.125H4.875V7C4.875 8.1736 5.82639 9.125 7 9.125C8.1736 9.125 9.125 8.1736 9.125 7V1.125H17.5C17.8452 1.125 18.125 0.845178 18.125 0.5C18.125 0.154822 17.8452 -0.125 17.5 -0.125H2.5ZM6.125 7V1.125H7.875V7C7.875 7.48325 7.48325 7.875 7 7.875C6.51675 7.875 6.125 7.48325 6.125 7Z" fill="white"/>
<path d="M17.5 12.875C17.1548 12.875 16.875 13.1548 16.875 13.5C16.875 13.8452 17.1548 14.125 17.5 14.125H19.5C19.8452 14.125 20.125 13.8452 20.125 13.5C20.125 13.1548 19.8452 12.875 19.5 12.875H17.5Z" fill="white"/>
<path d="M16.4419 15.5581C16.1979 15.314 15.8021 15.314 15.5581 15.5581C15.314 15.8021 15.314 16.1979 15.5581 16.4419L17.0581 17.9419C17.3021 18.186 17.6979 18.186 17.9419 17.9419C18.186 17.6979 18.186 17.3021 17.9419 17.0581L16.4419 15.5581Z" fill="white"/>
<path d="M14.125 17.5C14.125 17.1548 13.8452 16.875 13.5 16.875C13.1548 16.875 12.875 17.1548 12.875 17.5V19.5C12.875 19.8452 13.1548 20.125 13.5 20.125C13.8452 20.125 14.125 19.8452 14.125 19.5V17.5Z" fill="white"/>
</g>
<path fill-rule="evenodd" clip-rule="evenodd" d="M3.55859 3.55813C3.99261 3.12411 4.48038 2.77662 5.00049 2.51565V3.97031C4.80473 4.10931 4.61793 4.26655 4.44247 4.44201C2.75355 6.13093 2.75355 8.86921 4.44247 10.5581L8.5005 14.6162L14.6166 8.50004L10.5586 4.44201C10.1021 3.9855 9.56889 3.65238 9.00049 3.44266V2.12988C9.89483 2.3788 10.7392 2.85488 11.4425 3.55813L17.7594 9.87506H19.5005C19.8457 9.87506 20.1255 10.1549 20.1255 10.5001C20.1255 10.8452 19.8457 11.1251 19.5005 11.1251H17.7594L11.1255 17.759V19.5001C11.1255 19.8452 10.8457 20.1251 10.5005 20.1251C10.1553 20.1251 9.87549 19.8452 9.87549 19.5001V17.7589L8.06215 15.9456L8.05855 15.942L8.05497 15.9384L3.55859 11.442C1.38151 9.26494 1.38151 5.7352 3.55859 3.55813ZM9.38439 15.5L15.5005 9.38393L16.6166 10.5001L10.5005 16.6162L9.38439 15.5Z" fill="white"/>
</g>
<defs>
<clipPath id="clip0_41_19281">
<rect width="20" height="20" fill="white"/>
</clipPath>
</defs>
</svg>
