<svg width="16" height="16" viewBox="0 0 16 16" fill="none" xmlns="http://www.w3.org/2000/svg">
<path fill-rule="evenodd" clip-rule="evenodd" d="M6.49994 3.5C6.49994 3.22386 6.7238 3 6.99994 3H8.99994C9.27608 3 9.49994 3.22386 9.49994 3.5C9.49994 3.77614 9.27608 4 8.99994 4H8.49996V12H8.99994C9.27608 12 9.49994 12.2239 9.49994 12.5C9.49994 12.7761 9.27608 13 8.99994 13H6.99994C6.7238 13 6.49994 12.7761 6.49994 12.5C6.49994 12.2239 6.7238 12 6.99994 12H7.49996V4H6.99994C6.7238 4 6.49994 3.77614 6.49994 3.5ZM2.76407 5.55916C2.92665 5.47215 3.12392 5.48169 3.27735 5.58398L6.27731 7.58398C6.41641 7.67671 6.49996 7.83282 6.49996 8C6.49996 8.16718 6.41641 8.32329 6.27731 8.41602L3.27735 10.416C3.12392 10.5183 2.92665 10.5278 2.76407 10.4408C2.60149 10.3538 2.5 10.1844 2.5 10V6C2.5 5.8156 2.60149 5.64617 2.76407 5.55916ZM13.2359 5.55916C13.3985 5.64617 13.5 5.8156 13.5 6V10C13.5 10.1844 13.3985 10.3538 13.2359 10.4408C13.0733 10.5278 12.876 10.5183 12.7226 10.416L9.72261 8.41603C9.58351 8.32329 9.49996 8.16718 9.49996 8C9.49996 7.83282 9.58351 7.67671 9.72261 7.58397L12.7226 5.58397C12.876 5.48169 13.0733 5.47215 13.2359 5.55916Z" fill="white"/>
</svg>
