<svg width="24" height="24" viewBox="0 0 24 24" fill="none" xmlns="http://www.w3.org/2000/svg">
<path fill-rule="evenodd" clip-rule="evenodd" d="M9.82495 5.49995C9.82495 5.12716 10.1272 4.82495 10.5 4.82495H13.5C13.8727 4.82495 14.175 5.12716 14.175 5.49995C14.175 5.87274 13.8727 6.17495 13.5 6.17495H12.675V17.825H13.5C13.8727 17.825 14.175 18.1272 14.175 18.5C14.175 18.8727 13.8727 19.175 13.5 19.175H10.5C10.1272 19.175 9.82495 18.8727 9.82495 18.5C9.82495 18.1272 10.1272 17.825 10.5 17.825H11.325V6.17495H10.5C10.1272 6.17495 9.82495 5.87274 9.82495 5.49995ZM20.3325 8.41257C20.5441 8.53238 20.675 8.75677 20.675 8.99995V15C20.675 15.2431 20.5441 15.4675 20.3325 15.5873C20.1209 15.7072 19.8612 15.7039 19.6527 15.5788L14.6527 12.5788C14.4494 12.4568 14.325 12.2371 14.325 12C14.325 11.7628 14.4494 11.5431 14.6527 11.4211L19.6527 8.42114C19.8612 8.29603 20.1209 8.29275 20.3325 8.41257ZM3.66738 8.41257C3.879 8.29275 4.13871 8.29603 4.34724 8.42114L9.34724 11.4211C9.55055 11.5431 9.67495 11.7628 9.67495 12C9.67495 12.2371 9.55055 12.4568 9.34724 12.5788L4.34724 15.5788C4.13871 15.7039 3.879 15.7072 3.66738 15.5873C3.45576 15.4675 3.32495 15.2431 3.32495 15V8.99995C3.32495 8.75677 3.45576 8.53238 3.66738 8.41257Z" fill="white"/>
</svg>
