<svg width="16" height="16" viewBox="0 0 16 16" fill="none" xmlns="http://www.w3.org/2000/svg">
<path fill-rule="evenodd" clip-rule="evenodd" d="M8 3C7.44772 3 7 3.44772 7 4V8C7 8.55228 7.44772 9 8 9C8.55228 9 9 8.55228 9 8V4C9 3.44772 8.55228 3 8 3ZM6 4C6 2.89543 6.89543 2 8 2C9.10457 2 10 2.89543 10 4V8C10 9.10457 9.10457 10 8 10C6.89543 10 6 9.10457 6 8V4ZM4.5 6.5C4.77614 6.5 5 6.72386 5 7V8C5 9.65685 6.34315 11 8 11C9.65685 11 11 9.65685 11 8V7C11 6.72386 11.2239 6.5 11.5 6.5C11.7761 6.5 12 6.72386 12 7V8C12 10.0398 10.4732 11.723 8.5 11.9691V13H10.5C10.7761 13 11 13.2239 11 13.5C11 13.7761 10.7761 14 10.5 14H5.5C5.22386 14 5 13.7761 5 13.5C5 13.2239 5.22386 13 5.5 13H7.5V11.9691C5.52684 11.723 4 10.0398 4 8V7C4 6.72386 4.22386 6.5 4.5 6.5Z" fill="white"/>
</svg>
