<svg width="24" height="24" viewBox="0 0 24 24" fill="none" xmlns="http://www.w3.org/2000/svg">
<path d="M8.50024 6C8.50024 4.06702 10.0673 2.5 12.0002 2.5C13.9332 2.5 15.5002 4.06702 15.5002 6V13C15.5002 14.933 13.9332 16.5 12.0002 16.5C10.0673 16.5 8.50024 14.933 8.50024 13V6Z" fill="white"/>
<path d="M7.17517 11C7.17517 10.6272 6.87305 10.325 6.50024 10.325C6.12744 10.325 5.8252 10.6272 5.8252 11V13C5.8252 15.9506 7.89465 18.4178 10.6613 19.0295C11.0352 19.1121 11.3252 19.4286 11.3252 19.8114V20.075C11.3252 20.4892 10.9894 20.825 10.5752 20.825H8.50024C8.12744 20.825 7.8252 21.1272 7.8252 21.5C7.8252 21.8728 8.12744 22.175 8.50024 22.175H15.5002C15.873 22.175 16.1752 21.8728 16.1752 21.5C16.1752 21.1272 15.873 20.825 15.5002 20.825H13.4252C13.011 20.825 12.6752 20.4892 12.6752 20.075V19.8114C12.6752 19.4286 12.9653 19.1121 13.3391 19.0295C16.1057 18.4178 18.1752 15.9506 18.1752 13V11C18.1752 10.6272 17.873 10.325 17.5002 10.325C17.1274 10.325 16.8252 10.6272 16.8252 11V13C16.8252 15.6648 14.6649 17.825 12.0002 17.825C9.33545 17.825 7.17517 15.6648 7.17517 13V11Z" fill="white"/>
</svg>
