<svg width="16" height="16" viewBox="0 0 16 16" fill="none" xmlns="http://www.w3.org/2000/svg">
<path d="M6 4C6 2.89545 6.89539 2 8 2C9.10461 2 10 2.89545 10 4V8C10 9.10455 9.10461 10 8 10C6.89539 10 6 9.10455 6 8V4Z" fill="white"/>
<path d="M5 7C5 6.72388 4.77612 6.5 4.5 6.5C4.22388 6.5 4 6.72388 4 7V8C4 9.90277 5.32861 11.4952 7.10864 11.9003C7.32996 11.9507 7.5 12.1394 7.5 12.3664V12.55C7.5 12.7985 7.29858 13 7.05005 13H5.5C5.22388 13 5 13.2239 5 13.5C5 13.7761 5.22388 14 5.5 14H10.5C10.7761 14 11 13.7761 11 13.5C11 13.2239 10.7761 13 10.5 13H8.94995C8.70142 13 8.5 12.7985 8.5 12.55V12.3664C8.5 12.1394 8.67004 11.9507 8.89136 11.9003C10.6714 11.4952 12 9.90277 12 8V7C12 6.72388 11.7761 6.5 11.5 6.5C11.2239 6.5 11 6.72388 11 7V8C11 9.65686 9.65686 11 8 11C6.34314 11 5 9.65686 5 8V7Z" fill="white"/>
</svg>
