<svg width="24" height="24" viewBox="0 0 24 24" fill="none" xmlns="http://www.w3.org/2000/svg">
<path fill-rule="evenodd" clip-rule="evenodd" d="M12.0002 3.67495C10.7161 3.67495 9.6752 4.71589 9.6752 5.99995V13C9.6752 14.284 10.7161 15.325 12.0002 15.325C13.2843 15.325 14.3252 14.284 14.3252 13V5.99995C14.3252 4.71589 13.2843 3.67495 12.0002 3.67495ZM8.3252 5.99995C8.3252 3.9703 9.97055 2.32495 12.0002 2.32495C14.0298 2.32495 15.6752 3.9703 15.6752 5.99995V13C15.6752 15.0296 14.0298 16.675 12.0002 16.675C9.97055 16.675 8.3252 15.0296 8.3252 13V5.99995ZM6.5002 10.325C6.87299 10.325 7.1752 10.6272 7.1752 11V13C7.1752 15.6647 9.33542 17.825 12.0002 17.825C14.665 17.825 16.8252 15.6647 16.8252 13V11C16.8252 10.6272 17.1274 10.325 17.5002 10.325C17.873 10.325 18.1752 10.6272 18.1752 11V13C18.1752 16.1822 15.768 18.8022 12.6752 19.1385V20.825H15.5002C15.873 20.825 16.1752 21.1272 16.1752 21.5C16.1752 21.8727 15.873 22.1749 15.5002 22.1749H8.5002C8.1274 22.1749 7.8252 21.8727 7.8252 21.5C7.8252 21.1272 8.1274 20.825 8.5002 20.825H11.3252V19.1385C8.23238 18.8022 5.8252 16.1822 5.8252 13V11C5.8252 10.6272 6.1274 10.325 6.5002 10.325Z" fill="white"/>
</svg>
