<svg width="16" height="16" viewBox="0 0 16 16" fill="none" xmlns="http://www.w3.org/2000/svg">
<path fill-rule="evenodd" clip-rule="evenodd" d="M7.10082 15.2279L6.46064 14.7996C6.29917 14.6918 6.19691 14.495 6.19695 14.2921V12.3401C6.19684 12.2969 6.15291 12.2677 6.11644 12.2862L5.09251 12.7989C4.99726 12.8468 4.87972 12.8082 4.8266 12.7109L3.75145 10.7437C3.72311 10.6925 3.64623 10.7145 3.64619 10.7742V12.3941C3.64613 12.6174 3.40652 12.7567 3.23003 12.6387L2.29196 12.0111C2.02205 11.8266 1.85597 11.4987 1.86046 11.1563V4.84768C1.85547 4.50478 2.02162 4.17627 2.29196 3.99157L7.10082 0.77437C7.64215 0.408543 8.35128 0.408543 8.89261 0.77437L13.7015 3.99157C13.9718 4.17627 14.138 4.50478 14.133 4.84768V11.1563C14.1375 11.4987 13.9714 11.8266 13.7015 12.0111L12.7634 12.6387C12.5869 12.7567 12.3473 12.6174 12.3472 12.3941V10.7742C12.3472 10.7145 12.2703 10.6925 12.242 10.7437L11.1668 12.7109C11.1137 12.8082 10.9962 12.8468 10.9009 12.7989L9.87699 12.2862C9.84052 12.2677 9.79659 12.2969 9.79648 12.3401V14.2921C9.79651 14.495 9.69426 14.6918 9.53278 14.7996L8.89261 15.2279C8.35043 15.5907 7.643 15.5907 7.10082 15.2279ZM8.42616 1.89856L11.8548 4.20222C12.0564 4.33801 12.0562 4.55781 11.8542 4.69403L10.7774 5.41868C10.5754 5.55447 10.2482 5.55491 10.0465 5.41912L9.09497 4.77977C9.05029 4.75316 8.99335 4.75333 8.9488 4.78021L8.54651 5.05092C8.50711 5.06898 8.50711 5.13078 8.54651 5.14884L9.49804 5.78819C9.69976 5.92398 9.69951 6.14378 9.49755 6.28L8.42076 7.00422C8.21875 7.14044 7.89153 7.14044 7.68985 7.00509L4.2612 4.70143C4.05952 4.56564 4.05973 4.34584 4.26169 4.21005L5.33864 3.4854C5.54061 3.34918 5.86783 3.34918 6.06951 3.48453L7.021 4.12388C7.06569 4.15042 7.12251 4.15042 7.1672 4.12388L7.56946 3.85317C7.60883 3.83488 7.60884 3.7731 7.56946 3.75481L6.61793 3.11546C6.41625 2.97967 6.41649 2.75988 6.61846 2.62408L7.69525 1.89943C7.89721 1.76321 8.22444 1.76321 8.42616 1.89856Z" fill="white"/>
</svg>
