<svg width="24" height="24" viewBox="0 0 24 24" fill="none" xmlns="http://www.w3.org/2000/svg">
<path fill-rule="evenodd" clip-rule="evenodd" d="M10.6507 22.8418L9.69048 22.1994C9.44827 22.0376 9.29488 21.7425 9.29494 21.4382V18.5102C9.29477 18.4453 9.22888 18.4016 9.17417 18.4292L7.63827 19.1983C7.4954 19.2702 7.3191 19.2123 7.23942 19.0664L5.62668 16.1156C5.58418 16.0387 5.46886 16.0717 5.4688 16.1613V18.5911C5.4687 18.926 5.1093 19.135 4.84456 18.958L3.43745 18.0166C3.03258 17.7399 2.78346 17.2481 2.7902 16.7345V7.27151C2.78271 6.75716 3.03195 6.26441 3.43745 5.98736L10.6507 1.16156C11.4627 0.612815 12.5264 0.612815 13.3384 1.16156L20.5517 5.98736C20.9572 6.26441 21.2065 6.75716 21.199 7.27151V16.7345C21.2057 17.2481 20.9566 17.7399 20.5517 18.0166L19.1446 18.958C18.8799 19.135 18.5205 18.926 18.5204 18.5911V16.1613C18.5203 16.0717 18.405 16.0387 18.3625 16.1156L16.7498 19.0664C16.6701 19.2123 16.4938 19.2702 16.3509 19.1983L14.815 18.4292C14.7603 18.4016 14.6944 18.4453 14.6942 18.5102V21.4382C14.6943 21.7425 14.5409 22.0376 14.2987 22.1994L13.3384 22.8418C12.5252 23.3861 11.464 23.3861 10.6507 22.8418ZM12.6388 2.84784L17.7817 6.30333C18.0842 6.50702 18.0839 6.83671 17.7807 7.04105L16.1656 8.12803C15.8626 8.33171 15.3718 8.33237 15.0693 8.12868L13.642 7.16966C13.5749 7.12974 13.4895 7.12999 13.4227 7.17031L12.8193 7.57638C12.7602 7.60347 12.7602 7.69617 12.8193 7.72327L14.2466 8.68229C14.5492 8.88597 14.5488 9.21566 14.2458 9.42L12.6306 10.5063C12.3276 10.7107 11.8368 10.7107 11.5343 10.5076L6.39131 7.05214C6.08879 6.84846 6.0891 6.51877 6.39205 6.31508L8.00748 5.22811C8.31042 5.02377 8.80126 5.02376 9.10378 5.2268L10.531 6.18582C10.598 6.22564 10.6833 6.22564 10.7503 6.18582L11.3537 5.77975C11.4128 5.75232 11.4128 5.65965 11.3537 5.63221L9.9264 4.67319C9.62389 4.4695 9.62425 4.13981 9.9272 3.93613L11.5424 2.84915C11.8453 2.64481 12.3362 2.64481 12.6388 2.84784Z" fill="white"/>
</svg>
