<svg width="24" height="24" viewBox="0 0 24 24" fill="none" xmlns="http://www.w3.org/2000/svg">
<path fill-rule="evenodd" clip-rule="evenodd" d="M12.0002 2.8252C12.2182 2.8252 12.4228 2.93047 12.5495 3.10786L15.0495 6.60786C15.1964 6.81361 15.2161 7.08424 15.1004 7.30906C14.9847 7.53389 14.753 7.6752 14.5002 7.6752H12.6752V11.3252H16.3252V9.5002C16.3252 9.24735 16.4665 9.01571 16.6913 8.90001C16.9162 8.78431 17.1868 8.80396 17.3925 8.95093L20.8925 11.4509C21.0699 11.5776 21.1752 11.7822 21.1752 12.0002C21.1752 12.2182 21.0699 12.4228 20.8925 12.5495L17.3925 15.0495C17.1868 15.1964 16.9162 15.2161 16.6913 15.1004C16.4665 14.9847 16.3252 14.753 16.3252 14.5002V12.6752H12.6752V16.3252H14.5002C14.753 16.3252 14.9847 16.4665 15.1004 16.6913C15.2161 16.9162 15.1964 17.1868 15.0495 17.3925L12.5495 20.8925C12.4228 21.0699 12.2182 21.1752 12.0002 21.1752C11.7822 21.1752 11.5776 21.0699 11.4509 20.8925L8.95093 17.3925C8.80396 17.1868 8.78431 16.9162 8.90001 16.6913C9.01571 16.4665 9.24735 16.3252 9.5002 16.3252H11.3252V12.6752H7.6752V14.5002C7.6752 14.753 7.53389 14.9847 7.30906 15.1004C7.08424 15.2161 6.81361 15.1964 6.60786 15.0495L3.10786 12.5495C2.93047 12.4228 2.8252 12.2182 2.8252 12.0002C2.8252 11.7822 2.93047 11.5776 3.10786 11.4509L6.60786 8.95093C6.81361 8.80396 7.08424 8.78431 7.30906 8.90001C7.53389 9.01571 7.6752 9.24735 7.6752 9.5002V11.3252H11.3252V7.6752H9.5002C9.24735 7.6752 9.01571 7.53389 8.90001 7.30906C8.78431 7.08424 8.80396 6.81361 8.95093 6.60786L11.4509 3.10786C11.5776 2.93047 11.7822 2.8252 12.0002 2.8252Z" fill="white"/>
</svg>
