<svg width="16" height="16" viewBox="0 0 16 16" fill="none" xmlns="http://www.w3.org/2000/svg">
<path fill-rule="evenodd" clip-rule="evenodd" d="M8 2C8.17563 2 8.33838 2.09215 8.42875 2.24275L9.92875 4.74275C10.0214 4.89722 10.0239 5.0896 9.9351 5.24635C9.84635 5.4031 9.68014 5.5 9.5 5.5H8.5V7.5H10.5V6.5C10.5 6.31986 10.5969 6.15365 10.7537 6.0649C10.9104 5.97615 11.1028 5.97857 11.2572 6.07125L13.7572 7.57125C13.9079 7.66162 14 7.82437 14 8C14 8.17563 13.9079 8.33838 13.7572 8.42875L11.2572 9.92875C11.1028 10.0214 10.9104 10.0239 10.7537 9.9351C10.5969 9.84635 10.5 9.68014 10.5 9.5V8.5H8.5V10.5H9.5C9.68014 10.5 9.84635 10.5969 9.9351 10.7537C10.0239 10.9104 10.0214 11.1028 9.92875 11.2572L8.42875 13.7572C8.33838 13.9079 8.17563 14 8 14C7.82437 14 7.66162 13.9079 7.57125 13.7572L6.07125 11.2572C5.97857 11.1028 5.97615 10.9104 6.0649 10.7537C6.15365 10.5969 6.31986 10.5 6.5 10.5H7.5V8.5H5.5V9.5C5.5 9.68014 5.4031 9.84635 5.24635 9.9351C5.0896 10.0239 4.89722 10.0214 4.74275 9.92875L2.24275 8.42875C2.09215 8.33838 2 8.17563 2 8C2 7.82437 2.09215 7.66162 2.24275 7.57125L4.74275 6.07125C4.89722 5.97857 5.0896 5.97615 5.24635 6.0649C5.4031 6.15365 5.5 6.31986 5.5 6.5V7.5H7.5V5.5H6.5C6.31986 5.5 6.15365 5.4031 6.0649 5.24635C5.97615 5.0896 5.97857 4.89722 6.07125 4.74275L7.57125 2.24275C7.66162 2.09215 7.82437 2 8 2Z" fill="white"/>
</svg>
