<svg width="24" height="24" viewBox="0 0 24 24" fill="none" xmlns="http://www.w3.org/2000/svg">
<path fill-rule="evenodd" clip-rule="evenodd" d="M11.5229 3.02265C11.7865 2.75905 12.2139 2.75905 12.4775 3.02265L15.4775 6.02265C15.7411 6.28626 15.7411 6.71364 15.4775 6.97725C15.2139 7.24085 14.7865 7.24085 14.5229 6.97725L12.6752 5.12955V11.325H18.8706L17.0229 9.47725C16.7593 9.21364 16.7593 8.78626 17.0229 8.52266C17.2865 8.25905 17.7139 8.25905 17.9775 8.52265L20.9775 11.5227C21.1041 11.6492 21.1752 11.8209 21.1752 12C21.1752 12.179 21.1041 12.3507 20.9775 12.4772L17.9775 15.4772C17.7139 15.7409 17.2865 15.7409 17.0229 15.4772C16.7593 15.2136 16.7593 14.7863 17.0229 14.5227L18.8706 12.675H12.6752V18.8704L14.5229 17.0227C14.7865 16.7591 15.2139 16.7591 15.4775 17.0227C15.7411 17.2863 15.7411 17.7136 15.4775 17.9772L12.4775 20.9772C12.2139 21.2409 11.7865 21.2409 11.5229 20.9772L8.5229 17.9772C8.25929 17.7136 8.25929 17.2863 8.5229 17.0227C8.7865 16.7591 9.21389 16.7591 9.47749 17.0227L11.3252 18.8704V12.675H5.12979L6.97749 14.5227C7.2411 14.7863 7.2411 15.2136 6.97749 15.4772C6.71389 15.7409 6.2865 15.7409 6.0229 15.4772L3.0229 12.4772C2.75929 12.2136 2.75929 11.7863 3.0229 11.5227L6.0229 8.52265C6.2865 8.25905 6.71389 8.25905 6.97749 8.52265C7.2411 8.78626 7.2411 9.21364 6.97749 9.47725L5.12979 11.325H11.3252V5.12955L9.47749 6.97725C9.21389 7.24085 8.7865 7.24085 8.5229 6.97725C8.25929 6.71364 8.25929 6.28626 8.5229 6.02265L11.5229 3.02265Z" fill="white"/>
</svg>
