<svg width="16" height="16" viewBox="0 0 16 16" fill="none" xmlns="http://www.w3.org/2000/svg">
<path fill-rule="evenodd" clip-rule="evenodd" d="M7.64645 2.14645C7.84171 1.95118 8.15829 1.95118 8.35355 2.14645L10.3536 4.14645C10.5488 4.34171 10.5488 4.65829 10.3536 4.85355C10.1583 5.04882 9.84171 5.04882 9.64645 4.85355L8.5 3.70711V7.5H12.2929L11.1464 6.35355C10.9512 6.15829 10.9512 5.84171 11.1464 5.64645C11.3417 5.45118 11.6583 5.45118 11.8536 5.64645L13.8536 7.64645C13.9473 7.74021 14 7.86739 14 8C14 8.13261 13.9473 8.25979 13.8536 8.35355L11.8536 10.3536C11.6583 10.5488 11.3417 10.5488 11.1464 10.3536C10.9512 10.1583 10.9512 9.84171 11.1464 9.64645L12.2929 8.5H8.5V12.2929L9.64645 11.1464C9.84171 10.9512 10.1583 10.9512 10.3536 11.1464C10.5488 11.3417 10.5488 11.6583 10.3536 11.8536L8.35355 13.8536C8.15829 14.0488 7.84171 14.0488 7.64645 13.8536L5.64645 11.8536C5.45118 11.6583 5.45118 11.3417 5.64645 11.1464C5.84171 10.9512 6.15829 10.9512 6.35355 11.1464L7.5 12.2929V8.5H3.70711L4.85355 9.64645C5.04882 9.84171 5.04882 10.1583 4.85355 10.3536C4.65829 10.5488 4.34171 10.5488 4.14645 10.3536L2.14645 8.35355C1.95118 8.15829 1.95118 7.84171 2.14645 7.64645L4.14645 5.64645C4.34171 5.45118 4.65829 5.45118 4.85355 5.64645C5.04882 5.84171 5.04882 6.15829 4.85355 6.35355L3.70711 7.5H7.5V3.70711L6.35355 4.85355C6.15829 5.04882 5.84171 5.04882 5.64645 4.85355C5.45118 4.65829 5.45118 4.34171 5.64645 4.14645L7.64645 2.14645Z" fill="white"/>
</svg>
