<svg width="24" height="24" viewBox="0 0 24 24" fill="none" xmlns="http://www.w3.org/2000/svg">
<path d="M8.25684 4C8.96995 4.00008 9.62861 4.38016 9.98633 4.99707L11.3379 7.32715L11.3389 7.3291C11.8153 8.16124 12.7012 8.67463 13.6602 8.6748H20.5C21.3283 8.6748 21.9999 9.34649 22 10.1748V18.5C22 19.3284 21.3284 20 20.5 20H3.5C2.67157 20 2 19.3284 2 18.5V5.5C2 4.67157 2.67157 4 3.5 4H8.25684ZM9.7373 10.5605C9.40419 10.3812 9 10.6226 9 11.001V16.3262C9 16.7045 9.40419 16.946 9.7373 16.7666L14.6826 14.1035C15.0328 13.9147 15.0329 13.4125 14.6826 13.2236L9.7373 10.5605ZM20.5 5C21.3282 5.00022 22 5.67171 22 6.5V7.3252H13.6602C13.1849 7.32502 12.7456 7.06992 12.5098 6.65723L11.5537 5.00781L20.5 5Z" fill="white"/>
</svg>
