<svg width="16" height="16" viewBox="0 0 16 16" fill="none" xmlns="http://www.w3.org/2000/svg">
<path d="M4.96484 3C5.49514 3.0001 6.00392 3.21095 6.37891 3.58594L7.70703 4.91406C8.08205 5.28908 8.59074 5.49994 9.12109 5.5H13.0996C13.5967 5.5 14 5.90333 14 6.40039V12.0996C14 12.5967 13.5967 13 13.0996 13H2.90039C2.40333 13 2 12.5967 2 12.0996V3.90039C2 3.40333 2.40333 3 2.90039 3H4.96484ZM7 7.03516C6.78017 6.92533 6.52148 7.08534 6.52148 7.33105V10.7393C6.52148 10.985 6.78015 11.1451 7 11.0352L9.81738 9.33105C10.061 9.20917 10.061 8.86107 9.81738 8.73926L7 7.03516ZM13.0996 3.5C13.5967 3.5 14 3.90333 14 4.40039V4.5H9.12109C8.85596 4.49994 8.60155 4.39451 8.41406 4.20703L7.70703 3.5H13.0996Z" fill="white"/>
</svg>
