<svg width="20" height="20" viewBox="0 0 20 20" fill="none" xmlns="http://www.w3.org/2000/svg">
<path d="M4.58337 11.1041C4.27271 11.1041 4.02087 11.356 4.02087 11.6666C4.02087 11.9773 4.27271 12.2291 4.58337 12.2291H10.4167C10.7274 12.2291 10.9792 11.9773 10.9792 11.6666C10.9792 11.356 10.7274 11.1041 10.4167 11.1041H4.58337Z" fill="white"/>
<path d="M4.58337 13.1875C4.27271 13.1875 4.02087 13.4393 4.02087 13.75C4.02087 14.0606 4.27271 14.3125 4.58337 14.3125H8.75004C9.0607 14.3125 9.31254 14.0606 9.31254 13.75C9.31254 13.4393 9.0607 13.1875 8.75004 13.1875H4.58337Z" fill="white"/>
<path fill-rule="evenodd" clip-rule="evenodd" d="M2.83333 2.9375C2.06244 2.9375 1.4375 3.56244 1.4375 4.33333V15.6667C1.4375 16.4376 2.06244 17.0625 2.83333 17.0625H17.1667C17.9376 17.0625 18.5625 16.4376 18.5625 15.6667V4.33333C18.5625 3.56244 17.9376 2.9375 17.1667 2.9375H2.83333ZM2.5625 4.33333C2.5625 4.18376 2.68376 4.0625 2.83333 4.0625H17.1667C17.3162 4.0625 17.4375 4.18376 17.4375 4.33333V15.6667C17.4375 15.8162 17.3162 15.9375 17.1667 15.9375H2.83333C2.68376 15.9375 2.5625 15.8162 2.5625 15.6667V4.33333Z" fill="white"/>
</svg>
