<svg width="16" height="16" viewBox="0 0 16 16" fill="none" xmlns="http://www.w3.org/2000/svg">
<path d="M3.66675 8.88325C3.41822 8.88325 3.21675 9.08472 3.21675 9.33325C3.21675 9.58178 3.41822 9.78325 3.66675 9.78325H8.33342C8.58194 9.78325 8.78341 9.58178 8.78341 9.33325C8.78341 9.08472 8.58194 8.88325 8.33342 8.88325H3.66675Z" fill="white"/>
<path d="M3.66675 10.5499C3.41822 10.5499 3.21675 10.7514 3.21675 10.9999C3.21675 11.2484 3.41822 11.4499 3.66675 11.4499H7.00008C7.24861 11.4499 7.45008 11.2484 7.45008 10.9999C7.45008 10.7514 7.24861 10.5499 7.00008 10.5499H3.66675Z" fill="white"/>
<path fill-rule="evenodd" clip-rule="evenodd" d="M2.66667 2.5C2.02233 2.5 1.5 3.02234 1.5 3.66667V12.3333C1.5 12.9777 2.02234 13.5 2.66667 13.5H13.3333C13.9777 13.5 14.5 12.9777 14.5 12.3333V3.66667C14.5 3.02233 13.9777 2.5 13.3333 2.5H2.66667ZM2.5 3.66667C2.5 3.57462 2.57462 3.5 2.66667 3.5H13.3333C13.4254 3.5 13.5 3.57462 13.5 3.66667V12.3333C13.5 12.4254 13.4254 12.5 13.3333 12.5H2.66667C2.57462 12.5 2.5 12.4254 2.5 12.3333V3.66667Z" fill="white"/>
</svg>
