<svg width="24" height="24" viewBox="0 0 24 24" fill="none" xmlns="http://www.w3.org/2000/svg">
<path fill-rule="evenodd" clip-rule="evenodd" d="M2 5.44343C2 4.64624 2.64902 4 3.44963 4H20.5504C21.351 4 22 4.64624 22 5.44342V18.5566C22 19.3538 21.351 20 20.5504 20H3.44963C2.64902 20 2 19.3538 2 18.5566V5.44343ZM5.49995 13.325C5.12716 13.325 4.82495 13.6272 4.82495 14C4.82495 14.3727 5.12716 14.675 5.49995 14.675H12.5C12.8727 14.675 13.175 14.3727 13.175 14C13.175 13.6272 12.8727 13.325 12.5 13.325H5.49995ZM5.49995 15.825C5.12716 15.825 4.82495 16.1272 4.82495 16.5C4.82495 16.8727 5.12716 17.175 5.49995 17.175H10.5C10.8727 17.175 11.175 16.8727 11.175 16.5C11.175 16.1272 10.8727 15.825 10.5 15.825H5.49995Z" fill="white"/>
</svg>
