<svg width="20" height="20" viewBox="0 0 20 20" fill="none" xmlns="http://www.w3.org/2000/svg">
<path fill-rule="evenodd" clip-rule="evenodd" d="M1.66699 4.53635C1.66699 3.87203 2.20784 3.3335 2.87502 3.3335H17.1256C17.7928 3.3335 18.3337 3.87203 18.3337 4.53635V15.464C18.3337 16.1283 17.7928 16.6668 17.1256 16.6668H2.87502C2.20784 16.6668 1.66699 16.1283 1.66699 15.464V4.53635ZM4.5835 11.1042C4.27284 11.1042 4.021 11.3561 4.021 11.6667C4.021 11.9774 4.27284 12.2292 4.5835 12.2292H10.4168C10.7275 12.2292 10.9793 11.9774 10.9793 11.6667C10.9793 11.3561 10.7275 11.1042 10.4168 11.1042H4.5835ZM4.5835 13.1876C4.27284 13.1876 4.021 13.4394 4.021 13.7501C4.021 14.0607 4.27284 14.3126 4.5835 14.3126H8.75016C9.06082 14.3126 9.31266 14.0607 9.31266 13.7501C9.31266 13.4394 9.06082 13.1876 8.75016 13.1876H4.5835Z" fill="white"/>
</svg>
