<svg width="16" height="16" viewBox="0 0 16 16" fill="none" xmlns="http://www.w3.org/2000/svg">
<path fill-rule="evenodd" clip-rule="evenodd" d="M2.94275 3C2.42208 3 2 3.4215 2 3.94144V12C2 12.5199 2.42208 12.9414 2.94275 12.9414H13.0573C13.5779 12.9414 14 12.5199 14 12V3.94144C14 3.4215 13.5779 3 13.0573 3H2.94275ZM3.6668 8.88342C3.41827 8.88342 3.2168 9.08489 3.2168 9.33342C3.2168 9.58195 3.41827 9.78342 3.6668 9.78342H8.33346C8.58199 9.78342 8.78346 9.58195 8.78346 9.33342C8.78346 9.08489 8.58199 8.88342 8.33346 8.88342H3.6668ZM3.6668 10.5501C3.41827 10.5501 3.2168 10.7516 3.2168 11.0001C3.2168 11.2486 3.41827 11.4501 3.6668 11.4501H7.00013C7.24866 11.4501 7.45013 11.2486 7.45013 11.0001C7.45013 10.7516 7.24866 10.5501 7.00013 10.5501H3.6668Z" fill="white"/>
</svg>
