<svg width="24" height="24" viewBox="0 0 24 24" fill="none" xmlns="http://www.w3.org/2000/svg">
<path d="M5.5002 13.325C5.1274 13.325 4.8252 13.6272 4.8252 14C4.8252 14.3727 5.1274 14.675 5.5002 14.675H12.5002C12.873 14.675 13.1752 14.3727 13.1752 14C13.1752 13.6272 12.873 13.325 12.5002 13.325H5.5002Z" fill="white"/>
<path d="M5.5002 15.825C5.1274 15.825 4.8252 16.1272 4.8252 16.5C4.8252 16.8727 5.1274 17.175 5.5002 17.175H10.5002C10.873 17.175 11.1752 16.8727 11.1752 16.5C11.1752 16.1272 10.873 15.825 10.5002 15.825H5.5002Z" fill="white"/>
<path fill-rule="evenodd" clip-rule="evenodd" d="M3.5002 3.82495C2.57512 3.82495 1.8252 4.57487 1.8252 5.49995V18.5C1.8252 19.425 2.57512 20.175 3.50019 20.175H20.5002C21.4253 20.175 22.1752 19.425 22.1752 18.5V5.49995C22.1752 4.57487 21.4253 3.82495 20.5002 3.82495H3.5002ZM3.1752 5.49995C3.1752 5.32046 3.3207 5.17495 3.5002 5.17495H20.5002C20.6797 5.17495 20.8252 5.32046 20.8252 5.49995V18.5C20.8252 18.6794 20.6797 18.825 20.5002 18.825H3.50019C3.3207 18.825 3.1752 18.6794 3.1752 18.5V5.49995Z" fill="white"/>
</svg>
