<svg width="24" height="24" viewBox="0 0 24 24" fill="none" xmlns="http://www.w3.org/2000/svg">
<path fill-rule="evenodd" clip-rule="evenodd" d="M2 5.5C2 4.67157 2.67163 4 3.5 4H20.5C21.3284 4 22 4.67157 22 5.5V13.825H17.5C16.575 13.825 15.825 14.575 15.825 15.5V20H3.5C2.67163 20 2 19.3284 2 18.5V5.5ZM12.675 8.5C12.675 8.12721 12.3728 7.825 12 7.825C11.6272 7.825 11.325 8.12721 11.325 8.5V11.325H8.5C8.12721 11.325 7.825 11.6272 7.825 12C7.825 12.3728 8.12721 12.675 8.5 12.675H11.325V15.5C11.325 15.8728 11.6272 16.175 12 16.175C12.3728 16.175 12.675 15.8728 12.675 15.5V12.675H15.5C15.8728 12.675 16.175 12.3728 16.175 12C16.175 11.6272 15.8728 11.325 15.5 11.325H12.675V8.5Z" fill="white"/>
<path d="M22 15.175L17.175 20V15.5C17.175 15.3205 17.3206 15.175 17.5 15.175H22Z" fill="white"/>
</svg>
