<svg width="16" height="16" viewBox="0 0 16 16" fill="none" xmlns="http://www.w3.org/2000/svg">
<path fill-rule="evenodd" clip-rule="evenodd" d="M2 3.90002C2 3.40295 2.40283 3 2.8999 3H13.1001C13.5972 3 14 3.40295 14 3.90002V9H10.8999C10.4028 9 10 9.40295 10 9.90002V13H2.8999C2.40283 13 2 12.597 2 12.1V3.90002ZM8.5 6C8.5 5.72386 8.27614 5.5 8 5.5C7.72386 5.5 7.5 5.72386 7.5 6V7.5H6C5.72386 7.5 5.5 7.72386 5.5 8C5.5 8.27614 5.72386 8.5 6 8.5H7.5V10C7.5 10.2761 7.72386 10.5 8 10.5C8.27614 10.5 8.5 10.2761 8.5 10V8.5H10C10.2761 8.5 10.5 8.27614 10.5 8C10.5 7.72386 10.2761 7.5 10 7.5H8.5V6Z" fill="white"/>
<path d="M14 10L11 13V10H14Z" fill="white"/>
</svg>
