<svg width="24" height="24" viewBox="0 0 24 24" fill="none" xmlns="http://www.w3.org/2000/svg">
<path fill-rule="evenodd" clip-rule="evenodd" d="M1.825 5.49995C1.825 4.57487 2.57492 3.82495 3.5 3.82495H20.5C21.4251 3.82495 22.175 4.57487 22.175 5.49995V13.5C22.175 13.679 22.1039 13.8507 21.9773 13.9772L15.9773 19.9772C15.8507 20.1038 15.679 20.175 15.5 20.175H3.5C2.57492 20.175 1.825 19.425 1.825 18.5V5.49995ZM3.5 5.17495C3.3205 5.17495 3.175 5.32046 3.175 5.49995V18.5C3.175 18.6794 3.3205 18.825 3.5 18.825H14.825V14.5C14.825 13.5749 15.5749 12.825 16.5 12.825H20.825V5.49995C20.825 5.32046 20.6795 5.17495 20.5 5.17495H3.5ZM19.8704 14.175H16.5C16.3205 14.175 16.175 14.3205 16.175 14.5V17.8704L19.8704 14.175ZM11 7.82495C11.3728 7.82495 11.675 8.12716 11.675 8.49995V11.325H14.5C14.8728 11.325 15.175 11.6272 15.175 12C15.175 12.3727 14.8728 12.675 14.5 12.675H11.675V15.5C11.675 15.8727 11.3728 16.175 11 16.175C10.6272 16.175 10.325 15.8727 10.325 15.5V12.675H7.5C7.1272 12.675 6.825 12.3727 6.825 12C6.825 11.6272 7.1272 11.325 7.5 11.325H10.325V8.49995C10.325 8.12716 10.6272 7.82495 11 7.82495Z" fill="white"/>
</svg>
