<svg width="16" height="16" viewBox="0 0 16 16" fill="none" xmlns="http://www.w3.org/2000/svg">
<path fill-rule="evenodd" clip-rule="evenodd" d="M1.5 3.4C1.5 2.90294 1.90294 2.5 2.4 2.5L13.6 2.50002C14.0971 2.50002 14.5 2.90297 14.5 3.40002V9C14.5 9.13261 14.4473 9.25979 14.3536 9.35355L10.3536 13.3536C10.2598 13.4473 10.1326 13.5 10 13.5H2.4C1.90294 13.5 1.5 13.0971 1.5 12.6V3.4ZM2.5 3.5L13.5 3.50002V8.5H10.4C9.90294 8.5 9.5 8.90294 9.5 9.4V12.5H2.5V3.5ZM10.5 11.7929V9.5H12.7929L10.5 11.7929ZM7.5 5.5C7.77614 5.5 8 5.72386 8 6V7.5H9.5C9.77614 7.5 10 7.72386 10 8C10 8.27614 9.77614 8.5 9.5 8.5H8V10C8 10.2761 7.77614 10.5 7.5 10.5C7.22386 10.5 7 10.2761 7 10V8.5H5.5C5.22386 8.5 5 8.27614 5 8C5 7.72386 5.22386 7.5 5.5 7.5H7V6C7 5.72386 7.22386 5.5 7.5 5.5Z" fill="white"/>
</svg>
