<svg width="24" height="24" viewBox="0 0 24 24" fill="none" xmlns="http://www.w3.org/2000/svg">
<path fill-rule="evenodd" clip-rule="evenodd" d="M20 5.5C20 4.67163 19.3284 4 18.5 4L5.5 4C4.67157 4 4 4.67163 4 5.5L4 18.5C4 19.3284 4.67157 20 5.5 20H18.5C19.3284 20 20 19.3284 20 18.5V5.5ZM16.4773 12.4773C16.7409 12.2136 16.7409 11.7863 16.4773 11.5227L13.4773 8.52271C13.2137 8.25903 12.7863 8.25903 12.5227 8.52271C12.2591 8.78626 12.2591 9.21362 12.5227 9.4773L14.3704 11.325L8 11.325C7.62721 11.325 7.325 11.6272 7.325 12C7.325 12.3728 7.62721 12.6749 8 12.6749H14.3704L12.5227 14.5227C12.2591 14.7863 12.2591 15.2136 12.5227 15.4773C12.7863 15.7408 13.2137 15.7408 13.4773 15.4773L16.4773 12.4773Z" fill="white"/>
</svg>
