<svg width="20" height="20" viewBox="0 0 20 20" fill="none" xmlns="http://www.w3.org/2000/svg">
<path d="M10.111 7.88886C9.89625 7.67407 9.89625 7.32583 10.111 7.11104C10.3258 6.89625 10.6741 6.89625 10.8889 7.11104L13.3889 9.61104C13.6036 9.82583 13.6036 10.1741 13.3889 10.3889L10.8889 12.8889C10.6741 13.1036 10.3258 13.1036 10.111 12.8889C9.89625 12.6741 9.89625 12.3258 10.111 12.111L11.6721 10.55H6.99995C6.69619 10.55 6.44995 10.3037 6.44995 9.99995C6.44995 9.69619 6.69619 9.44995 6.99995 9.44995H11.6721L10.111 7.88886Z" fill="white"/>
<path fill-rule="evenodd" clip-rule="evenodd" d="M15.2 3.44995C15.9455 3.44995 16.55 4.05437 16.55 4.79995V15.2C16.55 15.9455 15.9455 16.55 15.2 16.55H4.79995C4.05437 16.55 3.44995 15.9455 3.44995 15.2V4.79995C3.44995 4.05437 4.05437 3.44995 4.79995 3.44995H15.2ZM15.45 4.79995C15.45 4.66188 15.338 4.54995 15.2 4.54995H4.79995C4.66188 4.54995 4.54995 4.66188 4.54995 4.79995V15.2C4.54995 15.338 4.66188 15.45 4.79995 15.45H15.2C15.338 15.45 15.45 15.338 15.45 15.2V4.79995Z" fill="white"/>
</svg>
