<svg width="16" height="16" viewBox="0 0 16 16" fill="none" xmlns="http://www.w3.org/2000/svg">
<path fill-rule="evenodd" clip-rule="evenodd" d="M13 3.90002C13 3.40295 12.5971 3 12.1 3L3.89999 3C3.40294 3 3 3.40295 3 3.90002L3 12.1C3 12.597 3.40294 13 3.89999 13H12.1C12.5971 13 13 12.597 13 12.1V3.90002ZM10.8535 8.35352C11.0488 8.15833 11.0488 7.84168 10.8535 7.64648L8.85355 5.64648C8.6583 5.45117 8.34171 5.45117 8.14645 5.64648C7.95119 5.84168 7.95119 6.15833 8.14645 6.35352L9.29289 7.5H5.5C5.22386 7.5 5 7.72388 5 8C5 8.27612 5.22386 8.5 5.5 8.5H9.29289L8.14645 9.64648C7.95119 9.84167 7.95119 10.1583 8.14645 10.3535C8.34171 10.5488 8.65829 10.5488 8.85355 10.3535L10.8535 8.35352Z" fill="white"/>
</svg>
