<svg width="20" height="20" viewBox="0 0 20 20" fill="none" xmlns="http://www.w3.org/2000/svg">
<path fill-rule="evenodd" clip-rule="evenodd" d="M15.2 3.5C15.918 3.5 16.5 4.08203 16.5 4.8V15.2C16.5 15.918 15.918 16.5 15.2 16.5H4.8C4.08203 16.5 3.5 15.918 3.5 15.2V4.8C3.5 4.08203 4.08203 3.5 4.8 3.5H15.2ZM10.1111 7.88891C9.8963 7.67412 9.8963 7.32588 10.1111 7.11109C10.3259 6.8963 10.6741 6.8963 10.8889 7.11109L13.3889 9.61109C13.6037 9.82588 13.6037 10.1741 13.3889 10.3889L10.8889 12.8889C10.6741 13.1037 10.3259 13.1037 10.1111 12.8889C9.8963 12.6741 9.8963 12.3259 10.1111 12.1111L11.6722 10.55H7C6.69624 10.55 6.45 10.3038 6.45 10C6.45 9.69624 6.69624 9.45 7 9.45H11.6722L10.1111 7.88891Z" fill="white"/>
</svg>
