<svg width="24" height="24" viewBox="0 0 24 24" fill="none" xmlns="http://www.w3.org/2000/svg">
<path fill-rule="evenodd" clip-rule="evenodd" d="M18.5 3.82495C19.425 3.82495 20.175 4.57487 20.175 5.49995V18.5C20.175 19.425 19.425 20.175 18.5 20.175H5.49995C4.57487 20.175 3.82495 19.425 3.82495 18.5L3.82495 5.49995C3.82495 4.57487 4.57488 3.82495 5.49995 3.82495L18.5 3.82495ZM18.825 5.49995C18.825 5.32046 18.6794 5.17495 18.5 5.17495L5.49995 5.17495C5.32046 5.17495 5.17495 5.32046 5.17495 5.49995L5.17495 18.5C5.17495 18.6794 5.32046 18.825 5.49995 18.825L18.5 18.825C18.6794 18.825 18.825 18.6794 18.825 18.5L18.825 5.49995ZM16.4772 11.5227C16.7409 11.7863 16.7409 12.2136 16.4772 12.4772L13.4772 15.4772C13.2136 15.7409 12.7863 15.7409 12.5227 15.4772C12.2591 15.2136 12.2591 14.7863 12.5227 14.5227L14.3704 12.675H7.99995C7.62716 12.675 7.32495 12.3727 7.32495 12C7.32495 11.6272 7.62716 11.325 7.99995 11.325L14.3704 11.325L12.5227 9.47725C12.2591 9.21364 12.2591 8.78626 12.5227 8.52265C12.7863 8.25905 13.2136 8.25905 13.4772 8.52265L16.4772 11.5227Z" fill="white"/>
</svg>
