<svg width="16" height="16" viewBox="0 0 16 16" fill="none" xmlns="http://www.w3.org/2000/svg">
<path fill-rule="evenodd" clip-rule="evenodd" d="M3.35368 2.64645C3.15841 2.45118 2.84183 2.45118 2.64657 2.64645C2.45131 2.84171 2.45131 3.15829 2.64657 3.35355L12.6466 13.3536C12.8418 13.5488 13.1584 13.5488 13.3537 13.3536C13.5489 13.1583 13.5489 12.8417 13.3537 12.6464L12.0425 11.3353C13.203 10.6396 14.1777 9.6535 14.8719 8.47427C15.0429 8.18368 15.0429 7.81632 14.8719 7.52573C13.4677 5.14038 10.9156 3.54541 8.00007 3.54541C6.89824 3.54541 5.8483 3.77321 4.89261 4.18538L3.35368 2.64645ZM6.2618 5.55457L7.16757 6.46034C7.41516 6.32618 7.69874 6.25 8.00012 6.25C8.96662 6.25 9.75012 7.0335 9.75012 8C9.75012 8.30138 9.67394 8.58496 9.53978 8.83255L10.4455 9.73824C10.7947 9.24784 11.0001 8.6479 11.0001 8C11.0001 6.34313 9.65691 4.99997 8.00003 4.99997C7.35213 4.99997 6.7522 5.20535 6.2618 5.55457Z" fill="white"/>
<path d="M1.12829 7.52573C1.6989 6.55637 2.4591 5.71753 3.35624 5.06322L5.20384 6.91082C5.07222 7.24846 5 7.6158 5 8C5 9.65688 6.34316 11 8.00003 11C8.38424 11 8.75158 10.9278 9.08922 10.7962L10.3796 12.0866C9.6278 12.3258 8.82861 12.4546 8.00007 12.4546C5.08457 12.4546 2.5324 10.8596 1.12829 8.47427C0.957236 8.18368 0.957236 7.81632 1.12829 7.52573Z" fill="white"/>
<path d="M6.25012 8C6.25012 7.98583 6.25029 7.9717 6.25063 7.95761L8.04251 9.7495C8.02842 9.74983 8.01429 9.75 8.00012 9.75C7.03362 9.75 6.25012 8.9665 6.25012 8Z" fill="white"/>
</svg>
