<svg width="24" height="24" viewBox="0 0 24 24" fill="none" xmlns="http://www.w3.org/2000/svg">
<path fill-rule="evenodd" clip-rule="evenodd" d="M3.02253 3.02265C3.28613 2.75905 3.71352 2.75905 3.97712 3.02265L6.88738 5.93291C8.44824 5.22095 10.1792 4.82495 11.9998 4.82495C16.6497 4.82495 20.7005 7.40479 22.8481 11.2206C23.1204 11.7045 23.1205 12.2952 22.8481 12.7793C21.774 14.6877 20.2249 16.2862 18.3624 17.408L20.9771 20.0227C21.2407 20.2863 21.2407 20.7136 20.9771 20.9772C20.7135 21.2409 20.2861 21.2409 20.0225 20.9772L3.02253 3.97725C2.75892 3.71364 2.75892 3.28626 3.02253 3.02265ZM17.3752 16.4207C19.1651 15.4154 20.6555 13.9226 21.6716 12.1171C21.7126 12.0443 21.7126 11.9556 21.6716 11.8827C19.7497 8.46791 16.1353 6.17495 11.9998 6.17495C10.5571 6.17495 9.17951 6.45363 7.91529 6.96082L9.56362 8.60915C10.2491 8.11598 11.0909 7.82495 11.9998 7.82495C14.3056 7.82495 16.1748 9.69416 16.1748 12C16.1748 12.9089 15.8838 13.7507 15.3906 14.4362L17.3752 16.4207ZM14.4172 13.4628C14.6761 13.036 14.8248 12.5357 14.8248 12C14.8248 10.4397 13.56 9.17495 11.9998 9.17495C11.4641 9.17495 10.9637 9.32365 10.537 9.58254L14.4172 13.4628ZM5.20257 7.66161C5.43616 7.95214 5.39 8.37703 5.09947 8.61062C3.98297 9.50829 3.03921 10.6191 2.328 11.8828C2.28703 11.9556 2.287 12.0443 2.32805 12.1172C4.24996 15.532 7.86438 17.825 11.9998 17.825C12.9016 17.825 13.7774 17.7161 14.6158 17.5109C14.9779 17.4222 15.3433 17.6439 15.4319 18.006C15.5205 18.3681 15.2988 18.7335 14.9367 18.8222C13.9942 19.0529 13.0106 19.175 11.9998 19.175C7.34991 19.175 3.29918 16.5951 1.15158 12.7793C0.879227 12.2954 0.87911 11.7047 1.15153 11.2207C1.94709 9.80711 3.00305 8.56393 4.25356 7.55851C4.54409 7.32492 4.96898 7.37108 5.20257 7.66161ZM7.82624 11.8902C7.83589 11.5175 8.14582 11.2232 8.51848 11.2329C8.89115 11.2425 9.18544 11.5524 9.17579 11.9251C9.17515 11.95 9.17482 11.9749 9.17482 12C9.17482 13.5602 10.4396 14.825 11.9998 14.825C12.0229 14.825 12.0459 14.8247 12.0688 14.8241C12.4415 14.8152 12.7508 15.1102 12.7597 15.4828C12.7686 15.8555 12.4737 16.1649 12.101 16.1737C12.0673 16.1745 12.0336 16.175 11.9998 16.175C9.69404 16.175 7.82482 14.3057 7.82482 12C7.82482 11.9633 7.8253 11.9267 7.82624 11.8902Z" fill="white"/>
</svg>
