<svg width="24" height="24" viewBox="0 0 24 24" fill="none" xmlns="http://www.w3.org/2000/svg">
<path fill-rule="evenodd" clip-rule="evenodd" d="M3.9773 3.02265C3.71369 2.75905 3.28631 2.75905 3.0227 3.02265C2.7591 3.28626 2.7591 3.71364 3.0227 3.97725L20.0227 20.9772C20.2863 21.2409 20.7137 21.2409 20.9773 20.9772C21.2409 20.7136 21.2409 20.2863 20.9773 20.0227L18.254 17.2993C20.1208 16.2032 21.688 14.6315 22.7983 12.7452C23.0673 12.2886 23.0673 11.7113 22.7983 11.2547C20.5919 7.5063 16.5814 4.99995 12 4.99995C10.2266 4.99995 8.53868 5.3755 7.0079 6.05325L3.9773 3.02265ZM8.97395 8.0193L10.4101 9.45543C10.871 9.1668 11.4161 8.99995 12 8.99995C13.6569 8.99995 15 10.3431 15 12C15 12.5839 14.8332 13.1289 14.5445 13.5899L15.9806 15.026C16.6203 14.1859 17 13.1373 17 12C17 9.23852 14.7615 6.99995 12 6.99995C10.8627 6.99995 9.81401 7.3797 8.97395 8.0193Z" fill="white"/>
<path d="M1.20154 11.2547C2.12622 9.6839 3.36768 8.33122 4.83521 7.2897L7.45605 9.91064C7.16321 10.5464 7 11.2541 7 12C7 14.7614 9.23853 17 12 17C12.7458 17 13.4536 16.8367 14.0894 16.5439L15.9111 18.3657C14.6799 18.7774 13.3652 19 12 19C7.41858 19 3.40808 16.4936 1.20166 12.7452C0.932861 12.2886 0.932739 11.7113 1.20154 11.2547Z" fill="white"/>
<path d="M9 12C9 11.8284 9.01428 11.6602 9.04199 11.4966L12.5034 14.9579C12.3397 14.9856 12.1715 15 12 15C10.3431 15 9 13.6568 9 12Z" fill="white"/>
</svg>
