<svg width="16" height="16" viewBox="0 0 16 16" fill="none" xmlns="http://www.w3.org/2000/svg">
<path fill-rule="evenodd" clip-rule="evenodd" d="M2.64649 2.64645C2.84175 2.45118 3.15833 2.45118 3.35359 2.64645L4.86149 4.15434C5.81459 3.73292 6.87252 3.5 8.00004 3.5C10.9591 3.5 13.4166 5.10131 14.7752 7.46203C14.9669 7.79506 14.967 8.20477 14.7753 8.53791C14.1117 9.69098 13.1858 10.6639 12.0646 11.3574L13.3536 12.6464C13.5489 12.8417 13.5489 13.1583 13.3536 13.3536C13.1583 13.5488 12.8417 13.5488 12.6465 13.3536L2.64649 3.35355C2.45122 3.15829 2.45122 2.84171 2.64649 2.64645ZM11.335 10.6279C12.4005 10.0202 13.2839 9.12449 13.9086 8.03911C13.9225 8.01487 13.9225 7.98518 13.9085 7.96083C12.7144 5.88595 10.5742 4.5 8.00004 4.5C7.15476 4.5 6.35866 4.64913 5.62848 4.92133L6.6214 5.91425C7.01653 5.65267 7.49072 5.5 8.00004 5.5C9.38075 5.5 10.5 6.61929 10.5 8C10.5 8.50932 10.3474 8.98351 10.0858 9.37864L11.335 10.6279ZM9.35395 8.6468C9.44769 8.45099 9.50004 8.23176 9.50004 8C9.50004 7.17157 8.82847 6.5 8.00004 6.5C7.76828 6.5 7.54905 6.55235 7.35324 6.64609L9.35395 8.6468ZM3.68822 5.39331C3.86746 5.60338 3.84246 5.91897 3.63239 6.09821C3.02201 6.619 2.50109 7.24922 2.09152 7.9609C2.07758 7.98513 2.07754 8.01481 2.09156 8.03917C3.28567 10.1141 5.42583 11.5 8.00004 11.5C8.46404 11.5 8.91283 11.4551 9.34369 11.3697C9.61457 11.3161 9.87765 11.4922 9.93131 11.763C9.98496 12.0339 9.80886 12.297 9.53798 12.3507C9.0427 12.4488 8.52883 12.5 8.00004 12.5C5.04095 12.5 2.58345 10.8987 1.22484 8.53797C1.03319 8.20495 1.03308 7.79525 1.2248 7.46211C1.68984 6.65402 2.2836 5.9345 2.98332 5.33748C3.19339 5.15824 3.50899 5.18324 3.68822 5.39331ZM5.93863 7.97368C6.20742 7.91036 6.47664 8.07693 6.53996 8.34571C6.66862 8.89189 7.09745 9.32391 7.64195 9.45711C7.91018 9.52273 8.07444 9.79337 8.00882 10.0616C7.9432 10.3298 7.67256 10.4941 7.40433 10.4285C6.49486 10.206 5.78156 9.48749 5.5666 8.57501C5.50328 8.30622 5.66985 8.037 5.93863 7.97368Z" fill="white"/>
</svg>
