<svg width="24" height="24" viewBox="0 0 24 24" fill="none" xmlns="http://www.w3.org/2000/svg">
<path d="M12.7695 18.9159C12.7695 19.3407 12.4248 19.6854 12 19.6854C11.5752 19.6854 11.2305 19.3407 11.2305 18.9159V14.7499L12.7695 13.2108V18.9159ZM19.0039 2.62586C19.3043 2.32561 19.7914 2.32551 20.0918 2.62586C20.3919 2.92623 20.3919 3.41343 20.0918 3.71375L4.70703 19.0985C4.40672 19.3988 3.91957 19.3986 3.61914 19.0985C3.31874 18.7981 3.31874 18.311 3.61914 18.0106L19.0039 2.62586ZM20.8838 5.09558C21.5955 6.47063 22 8.03124 22 9.68543C22 11.9694 21.2329 14.0767 19.9434 15.7606C19.685 16.0977 19.2024 16.1615 18.8652 15.9032C18.5282 15.6448 18.4644 15.1623 18.7227 14.8251C19.8137 13.4003 20.4619 11.6194 20.4619 9.68543C20.4619 8.46049 20.2002 7.29734 19.7324 6.24695L20.8838 5.09558ZM4.05664 3.61023C4.3149 3.27318 4.79755 3.20868 5.13477 3.46668C5.472 3.72495 5.53553 4.2085 5.27734 4.54578C4.18632 5.97053 3.53814 7.75146 3.53809 9.68543C3.53812 11.4521 4.08067 13.0898 5.00586 14.4462L3.90137 15.5507C2.70615 13.9029 2.00003 11.8758 2 9.68543C2.00005 7.40144 2.767 5.29413 4.05664 3.61023ZM17.7217 8.25769C17.8355 8.71501 17.8974 9.19332 17.8975 9.68543C17.8974 11.032 17.4451 12.2754 16.6846 13.2684C16.4263 13.6056 15.9437 13.6692 15.6064 13.411C15.2693 13.1527 15.2047 12.6701 15.4629 12.3329C16.025 11.5989 16.3593 10.6821 16.3594 9.68543C16.3594 9.66436 16.3577 9.64295 16.3574 9.62195L17.7217 8.25769ZM7.31543 6.10242C7.57364 5.76543 8.05634 5.70104 8.39355 5.95886C8.73079 6.21714 8.79529 6.70069 8.53711 7.03797C7.97502 7.77192 7.64068 8.6887 7.64062 9.68543C7.64065 10.311 7.77289 10.9051 8.00977 11.4423L6.86523 12.5868C6.38017 11.7299 6.10257 10.7394 6.10254 9.68543C6.10259 8.33889 6.55494 7.09545 7.31543 6.10242Z" fill="white"/>
</svg>
