<svg width="16" height="16" viewBox="0 0 16 16" fill="none" xmlns="http://www.w3.org/2000/svg">
<path d="M8.5 13.1445C8.5 13.4206 8.27614 13.6445 8 13.6445C7.72386 13.6445 7.5 13.4206 7.5 13.1445V10.4365L8.5 9.43649V13.1445ZM12.5518 2.5566C12.747 2.36134 13.0635 2.36134 13.2588 2.5566C13.4541 2.75186 13.4541 3.06837 13.2588 3.26363L3.25879 13.2636C3.06353 13.4589 2.74702 13.4589 2.55176 13.2636C2.3565 13.0684 2.3565 12.7519 2.55176 12.5566L12.5518 2.5566ZM13.7744 4.16109C14.2371 5.05486 14.4999 6.06926 14.5 7.14449C14.5 8.6291 14.0013 9.99916 13.1631 11.0937C12.9952 11.3129 12.6811 11.3544 12.4619 11.1865C12.2433 11.0186 12.2018 10.7053 12.3691 10.4863C13.0784 9.56014 13.5 8.40171 13.5 7.14449C13.4999 6.3482 13.3306 5.59193 13.0264 4.90914L13.7744 4.16109ZM2.83691 3.19625C3.00482 2.97714 3.31889 2.93567 3.53809 3.10348C3.75674 3.27134 3.79819 3.58462 3.63086 3.80367C2.92166 4.72969 2.50014 5.88748 2.5 7.14449C2.5 8.29291 2.85168 9.35853 3.45312 10.2402L2.73633 10.957C1.95946 9.88595 1.5 8.5682 1.5 7.14449C1.50014 5.66008 1.99874 4.29067 2.83691 3.19625ZM11.7188 6.21676C11.7927 6.51397 11.833 6.82467 11.833 7.14449C11.833 8.0197 11.5392 8.82812 11.0449 9.47359C10.877 9.6928 10.563 9.73517 10.3438 9.56734C10.1247 9.39948 10.0833 9.08537 10.251 8.86617C10.6163 8.38908 10.833 7.79239 10.833 7.14449C10.833 7.13117 10.8312 7.11773 10.8311 7.10445L11.7188 6.21676ZM4.95508 4.81637C5.12296 4.59727 5.43706 4.55487 5.65625 4.72262C5.87539 4.89045 5.91667 5.20457 5.74902 5.42379C5.38374 5.90075 5.16713 6.49679 5.16699 7.14449C5.16699 7.55118 5.25227 7.93791 5.40625 8.28707L4.66406 9.02926C4.34896 8.47238 4.16699 7.82936 4.16699 7.14449C4.16713 6.26949 4.46091 5.4617 4.95508 4.81637Z" fill="white"/>
</svg>
