<svg width="24" height="24" viewBox="0 0 24 24" fill="none" xmlns="http://www.w3.org/2000/svg">
<path fill-rule="evenodd" clip-rule="evenodd" d="M12.0002 3.67495C10.7161 3.67495 9.6752 4.71589 9.6752 5.99995V8.72036L14.2999 13.345C14.3165 13.2325 14.3252 13.1173 14.3252 13V5.99995C14.3252 4.71589 13.2843 3.67495 12.0002 3.67495ZM15.3859 14.4311C15.5722 13.9908 15.6752 13.5069 15.6752 13V5.99995C15.6752 3.9703 14.0298 2.32495 12.0002 2.32495C9.97055 2.32495 8.3252 3.9703 8.3252 5.99995V7.37036L3.97749 3.02265C3.71389 2.75905 3.2865 2.75905 3.0229 3.02265C2.75929 3.28626 2.75929 3.71364 3.0229 3.97725L20.0229 20.9772C20.2865 21.2409 20.7139 21.2409 20.9775 20.9772C21.2411 20.7136 21.2411 20.2863 20.9775 20.0227L17.2336 16.2788C17.8301 15.3285 18.1752 14.2038 18.1752 13V11C18.1752 10.6272 17.873 10.325 17.5002 10.325C17.1274 10.325 16.8252 10.6272 16.8252 11V13C16.8252 13.8303 16.6159 14.6106 16.2471 15.2923L15.3859 14.4311ZM6.5002 9.1361C6.87299 9.1361 7.1752 9.43831 7.1752 9.8111V13C7.1752 15.6647 9.33542 17.825 12.0002 17.825C12.8129 17.825 13.5768 17.6246 14.2472 17.271C14.577 17.0972 14.9852 17.2235 15.1591 17.5533C15.333 17.883 15.2067 18.2913 14.8769 18.4652C14.2061 18.8189 13.4624 19.0527 12.6752 19.1384V20.825H15.5002C15.873 20.825 16.1752 21.1272 16.1752 21.5C16.1752 21.8727 15.873 22.1749 15.5002 22.1749H8.5002C8.1274 22.1749 7.8252 21.8727 7.8252 21.5C7.8252 21.1272 8.1274 20.825 8.5002 20.825H11.3252V19.1385C8.23238 18.8022 5.8252 16.1822 5.8252 13V9.8111C5.8252 9.43831 6.1274 9.1361 6.5002 9.1361ZM9.6752 12.3037V13C9.6752 14.284 10.7161 15.325 12.0002 15.325C12.1674 15.325 12.3299 15.3074 12.4859 15.2743C12.8506 15.1969 13.209 15.4298 13.2864 15.7944C13.3638 16.1591 13.1309 16.5175 12.7662 16.5949C12.5185 16.6474 12.2622 16.675 12.0002 16.675C9.97055 16.675 8.3252 15.0296 8.3252 13V12.3037C8.3252 11.9309 8.6274 11.6287 9.0002 11.6287C9.37299 11.6287 9.6752 11.9309 9.6752 12.3037Z" fill="white"/>
</svg>
