<svg width="24" height="24" viewBox="0 0 24 24" fill="none" xmlns="http://www.w3.org/2000/svg">
<path d="M8.5002 6C8.5002 4.06702 10.0672 2.5 12.0002 2.5C13.9332 2.5 15.5002 4.06702 15.5002 6V13C15.5002 13.4583 15.4121 13.896 15.2519 14.2971L16.2469 15.2921C16.6157 14.6103 16.8251 13.8296 16.8251 13V11C16.8251 10.6272 17.1274 10.325 17.5002 10.325C17.873 10.325 18.1751 10.6272 18.1751 11V13C18.1751 14.2047 17.8302 15.3287 17.2337 16.2789L20.9775 20.0227C21.2411 20.2863 21.2411 20.7137 20.9775 20.9773C20.7139 21.2409 20.2865 21.2409 20.0229 20.9773L3.0229 3.9773C2.75929 3.71369 2.75929 3.28631 3.0229 3.0227C3.2865 2.7591 3.71389 2.7591 3.97749 3.0227L8.5002 7.54541V6Z" fill="white"/>
<path d="M8.5002 10.9546L13.639 16.0934C13.1501 16.353 12.5924 16.5 12.0002 16.5C10.0672 16.5 8.5002 14.933 8.5002 13V10.9546Z" fill="white"/>
<path d="M14.6066 17.0611L15.5787 18.033C14.9172 18.5042 14.1586 18.8483 13.3391 19.0295C12.9653 19.1121 12.6751 19.4286 12.6751 19.8114V20.075C12.6751 20.4892 13.0109 20.825 13.4251 20.825H15.5002C15.873 20.825 16.1751 21.1272 16.1751 21.5C16.1751 21.8728 15.873 22.175 15.5002 22.175H8.5002C8.12739 22.175 7.82515 21.8728 7.82515 21.5C7.82515 21.1272 8.12739 20.825 8.5002 20.825H10.5751C10.9893 20.825 11.3251 20.4892 11.3251 20.075V19.8114C11.3251 19.4286 11.0351 19.1121 10.6612 19.0295C7.8946 18.4178 5.82515 15.9506 5.82515 13V11C5.82515 10.6272 6.12739 10.325 6.5002 10.325C6.873 10.325 7.17512 10.6272 7.17512 11V13C7.17512 15.6648 9.3354 17.825 12.0002 17.825C12.9603 17.825 13.8549 17.5446 14.6066 17.0611Z" fill="white"/>
</svg>
