<svg width="16" height="16" viewBox="0 0 16 16" fill="none" xmlns="http://www.w3.org/2000/svg">
<path d="M6 4C6 2.89545 6.89539 2 8 2C9.10461 2 10 2.89545 10 4V8C10 8.37092 9.89906 8.71825 9.72312 9.01601L10.4454 9.73827C10.7946 9.24786 11 8.64791 11 8V7C11 6.72388 11.2239 6.5 11.5 6.5C11.7761 6.5 12 6.72388 12 7V8C12 8.92434 11.6865 9.7755 11.16 10.4528L13.3536 12.6464C13.5488 12.8417 13.5488 13.1583 13.3536 13.3536C13.1583 13.5488 12.8417 13.5488 12.6464 13.3536L2.64645 3.35355C2.45118 3.15829 2.45118 2.84171 2.64645 2.64645C2.84171 2.45118 3.15829 2.45118 3.35355 2.64645L6 5.29289V4Z" fill="white"/>
<path d="M6 7.70709L8.27429 9.98132C8.18457 9.99359 8.09302 10 8 10C6.89539 10 6 9.10455 6 8V7.70709Z" fill="white"/>
<path d="M9.08911 10.7962L9.84363 11.5507C9.54614 11.7055 9.22681 11.824 8.89136 11.9003C8.67004 11.9507 8.5 12.1394 8.5 12.3664V12.55C8.5 12.7985 8.70142 13 8.94995 13H10.5C10.7761 13 11 13.2239 11 13.5C11 13.7761 10.7761 14 10.5 14H5.5C5.22388 14 5 13.7761 5 13.5C5 13.2239 5.22388 13 5.5 13H7.05005C7.29858 13 7.5 12.7985 7.5 12.55V12.3664C7.5 12.1394 7.32996 11.9507 7.10864 11.9003C5.32861 11.4952 4 9.90277 4 8V7C4 6.72388 4.22388 6.5 4.5 6.5C4.77612 6.5 5 6.72388 5 7V8C5 9.65686 6.34314 11 8 11C8.38416 11 8.75146 10.9278 9.08911 10.7962Z" fill="white"/>
</svg>
