<svg width="16" height="16" viewBox="0 0 16 16" fill="none" xmlns="http://www.w3.org/2000/svg">
<path fill-rule="evenodd" clip-rule="evenodd" d="M8 3C7.44772 3 7 3.44772 7 4V6.29289L8.96621 8.2591C8.98827 8.17651 9 8.08967 9 8V4C9 3.44772 8.55228 3 8 3ZM9.72302 9.01591C9.89885 8.71819 10 8.37069 10 8V4C10 2.89543 9.10457 2 8 2C6.89543 2 6 2.89543 6 4V5.29289L3.35355 2.64645C3.15829 2.45118 2.84171 2.45118 2.64645 2.64645C2.45118 2.84171 2.45118 3.15829 2.64645 3.35355L12.6464 13.3536C12.8417 13.5488 13.1583 13.5488 13.3536 13.3536C13.5488 13.1583 13.5488 12.8417 13.3536 12.6464L11.1599 10.4528C11.6861 9.77565 12 8.92415 12 8V7C12 6.72386 11.7761 6.5 11.5 6.5C11.2239 6.5 11 6.72386 11 7V8C11 8.64813 10.7949 9.24777 10.4454 9.73831L9.72302 9.01591ZM4.5 6.5C4.77614 6.5 5 6.72386 5 7V8C5 9.65685 6.34315 11 8 11C8.36563 11 8.7149 10.9348 9.03758 10.8159C9.29667 10.7204 9.58414 10.853 9.67965 11.1121C9.77516 11.3712 9.64254 11.6586 9.38344 11.7542C9.10218 11.8578 8.80628 11.9308 8.5 11.969V13H10.5C10.7761 13 11 13.2239 11 13.5C11 13.7761 10.7761 14 10.5 14H5.5C5.22386 14 5 13.7761 5 13.5C5 13.2239 5.22386 13 5.5 13H7.5V11.9691C5.52684 11.723 4 10.0398 4 8V7C4 6.72386 4.22386 6.5 4.5 6.5ZM6.46292 8.37335C6.69676 8.22647 7.00539 8.29697 7.15227 8.53081C7.23216 8.65799 7.33999 8.7661 7.46695 8.84632C7.7004 8.99382 7.77008 9.30264 7.62258 9.53608C7.47508 9.76953 7.16626 9.83921 6.93281 9.69171C6.67953 9.53168 6.46485 9.31645 6.30547 9.06271C6.15859 8.82887 6.22908 8.52024 6.46292 8.37335Z" fill="white"/>
</svg>
