<svg width="16" height="16" viewBox="0 0 16 16" fill="none" xmlns="http://www.w3.org/2000/svg">
<path d="M1.85355 1.14645C1.65829 0.951184 1.34171 0.951184 1.14645 1.14645C0.951184 1.34171 0.951184 1.65829 1.14645 1.85355L14.1464 14.8536C14.3417 15.0488 14.6583 15.0488 14.8536 14.8536C15.0488 14.6583 15.0488 14.3417 14.8536 14.1464L13.5248 12.8177C13.8087 12.6555 14 12.35 14 12V3.94144C14 3.4215 13.5779 3 13.0573 3H3.70711L1.85355 1.14645Z" fill="white"/>
<path fill-rule="evenodd" clip-rule="evenodd" d="M2 4.09551V12C2 12.5199 2.42208 12.9414 2.94275 12.9414H10.8461L7.68799 9.78342H3.6668C3.41827 9.78342 3.2168 9.58195 3.2168 9.33342C3.2168 9.08489 3.41827 8.88342 3.6668 8.88342H6.78798L2 4.09551ZM3.2168 11.0001C3.2168 10.7516 3.41827 10.5501 3.6668 10.5501H7.00013C7.24866 10.5501 7.45013 10.7516 7.45013 11.0001C7.45013 11.2486 7.24866 11.4501 7.00013 11.4501H3.6668C3.41827 11.4501 3.2168 11.2486 3.2168 11.0001Z" fill="white"/>
</svg>
