<svg width="16" height="16" viewBox="0 0 16 16" fill="none" xmlns="http://www.w3.org/2000/svg">
<path fill-rule="evenodd" clip-rule="evenodd" d="M1.85355 1.14645C1.65829 0.951184 1.34171 0.951184 1.14645 1.14645C0.951184 1.34171 0.951184 1.65829 1.14645 1.85355L14.1464 14.8536C14.3417 15.0488 14.6583 15.0488 14.8536 14.8536C15.0488 14.6583 15.0488 14.3417 14.8536 14.1464L13.9988 13.2917C14.3017 13.081 14.5 12.7303 14.5 12.3333V3.66667C14.5 3.02233 13.9777 2.5 13.3333 2.5H3.20711L1.85355 1.14645ZM13.3333 12.5H13.2071L4.20711 3.5H13.3333C13.4254 3.5 13.5 3.57462 13.5 3.66667V12.3333C13.5 12.4254 13.4254 12.5 13.3333 12.5Z" fill="white"/>
<path d="M2.5 4.69011C2.5 4.41397 2.27614 4.19011 2 4.19011C1.72386 4.19011 1.5 4.41397 1.5 4.69011V12.3333C1.5 12.9777 2.02233 13.5 2.66667 13.5H10.3249C10.6011 13.5 10.8249 13.2761 10.8249 13C10.8249 12.7239 10.6011 12.5 10.3249 12.5H2.66667C2.57462 12.5 2.5 12.4254 2.5 12.3333V4.69011Z" fill="white"/>
<path d="M3.66675 8.88325C3.41822 8.88325 3.21675 9.08472 3.21675 9.33325C3.21675 9.58178 3.41822 9.78325 3.66675 9.78325H7C7.24853 9.78325 7.45 9.58178 7.45 9.33325C7.45 9.08472 7.24853 8.88325 7 8.88325H3.66675Z" fill="white"/>
<path d="M3.66675 10.5499C3.41822 10.5499 3.21675 10.7514 3.21675 10.9999C3.21675 11.2484 3.41822 11.4499 3.66675 11.4499H7.00008C7.24861 11.4499 7.45008 11.2484 7.45008 10.9999C7.45008 10.7514 7.24861 10.5499 7.00008 10.5499H3.66675Z" fill="white"/>
</svg>
