<svg width="24" height="24" viewBox="0 0 24 24" fill="none" xmlns="http://www.w3.org/2000/svg">
<path fill-rule="evenodd" clip-rule="evenodd" d="M2.97749 2.02265C2.71389 1.75905 2.2865 1.75905 2.0229 2.02265C1.75929 2.28626 1.75929 2.71364 2.0229 2.97725L21.5229 22.4772C21.7865 22.7409 22.2139 22.7409 22.4775 22.4772C22.7411 22.2136 22.7411 21.7863 22.4775 21.5227L21.0407 20.0858C21.7005 19.861 22.1752 19.2359 22.1752 18.5V5.49995C22.1752 4.57487 21.4253 3.82495 20.5002 3.82495H4.77979L2.97749 2.02265ZM20.5002 18.825H19.7798L6.12979 5.17495H20.5002C20.6797 5.17495 20.8252 5.32046 20.8252 5.49995V18.5C20.8252 18.6794 20.6797 18.825 20.5002 18.825Z" fill="white"/>
<path d="M3.1752 18.5V5.99995C3.1752 5.62716 2.87299 5.32495 2.5002 5.32495C2.1274 5.32495 1.8252 5.62716 1.8252 5.99995V18.5C1.8252 19.425 2.57512 20.1749 3.50019 20.1749H16.0002C16.373 20.1749 16.6752 19.8727 16.6752 19.5C16.6752 19.1272 16.373 18.825 16.0002 18.825H3.50019C3.3207 18.825 3.1752 18.6794 3.1752 18.5Z" fill="white"/>
<path d="M5.5002 13.325C5.1274 13.325 4.8252 13.6272 4.8252 14C4.8252 14.3727 5.1274 14.675 5.5002 14.675H10.5002C10.873 14.675 11.1752 14.3727 11.1752 14C11.1752 13.6272 10.873 13.325 10.5002 13.325H5.5002Z" fill="white"/>
<path d="M5.5002 15.825C5.1274 15.825 4.8252 16.1272 4.8252 16.5C4.8252 16.8727 5.1274 17.175 5.5002 17.175H10.5002C10.873 17.175 11.1752 16.8727 11.1752 16.5C11.1752 16.1272 10.873 15.825 10.5002 15.825H5.5002Z" fill="white"/>
</svg>
