<svg width="24" height="24" viewBox="0 0 24 24" fill="none" xmlns="http://www.w3.org/2000/svg">
<path d="M2.97749 2.02265C2.71389 1.75905 2.2865 1.75905 2.0229 2.02265C1.75929 2.28626 1.75929 2.71364 2.0229 2.97725L21.5229 22.4772C21.7865 22.7409 22.2139 22.7409 22.4775 22.4772C22.7411 22.2136 22.7411 21.7863 22.4775 21.5227L20.9101 19.9553C21.5368 19.796 22.0002 19.2302 22.0002 18.5566V5.44342C22.0002 4.64624 21.3512 4 20.5506 4H4.95484L2.97749 2.02265Z" fill="white"/>
<path fill-rule="evenodd" clip-rule="evenodd" d="M2.00024 5.44342C2.00024 5.27468 2.02933 5.11269 2.08277 4.96217L10.4456 13.325H5.5002C5.1274 13.325 4.8252 13.6272 4.8252 14C4.8252 14.3727 5.1274 14.675 5.5002 14.675H11.7956L17.1206 20H3.44987C2.64926 20 2.00024 19.3538 2.00024 18.5566V5.44342ZM5.5002 15.825C5.1274 15.825 4.8252 16.1272 4.8252 16.5C4.8252 16.8727 5.1274 17.175 5.5002 17.175H10.5002C10.873 17.175 11.1752 16.8727 11.1752 16.5C11.1752 16.1272 10.873 15.825 10.5002 15.825H5.5002Z" fill="white"/>
</svg>
