<svg width="20" height="20" viewBox="0 0 20 20" fill="none" xmlns="http://www.w3.org/2000/svg">
<g clip-path="url(#clip0_42_11649)">
<path d="M1.89775 1.10225C1.67808 0.882583 1.32192 0.882583 1.10225 1.10225C0.882583 1.32192 0.882583 1.67808 1.10225 1.89775L18.1023 18.8977C18.3219 19.1174 18.6781 19.1174 18.8977 18.8977C19.1174 18.6781 19.1174 18.3219 18.8977 18.1023L17.4248 16.6293C17.9472 16.4967 18.3334 16.0251 18.3334 15.4637V4.53611C18.3334 3.87179 17.7926 3.33325 17.1254 3.33325H4.12875L1.89775 1.10225Z" fill="white"/>
<path fill-rule="evenodd" clip-rule="evenodd" d="M1.66675 4.53611C1.66675 4.38585 1.69442 4.24203 1.74496 4.10942L8.73954 11.104H4.58325C4.27259 11.104 4.02075 11.3558 4.02075 11.6665C4.02075 11.9772 4.27259 12.229 4.58325 12.229H9.86454L14.3021 16.6666H2.87477C2.2076 16.6666 1.66675 16.128 1.66675 15.4637V4.53611ZM4.58325 13.1873C4.27259 13.1873 4.02075 13.4392 4.02075 13.7498C4.02075 14.0605 4.27259 14.3123 4.58325 14.3123H8.74992C9.06058 14.3123 9.31242 14.0605 9.31242 13.7498C9.31242 13.4392 9.06058 13.1873 8.74992 13.1873H4.58325Z" fill="white"/>
</g>
<defs>
<clipPath id="clip0_42_11649">
<rect width="20" height="20" fill="white"/>
</clipPath>
</defs>
</svg>
