<svg width="20" height="20" viewBox="0 0 20 20" fill="none" xmlns="http://www.w3.org/2000/svg">
<g clip-path="url(#clip0_42_11624)">
<path fill-rule="evenodd" clip-rule="evenodd" d="M1.89775 1.10225C1.67808 0.882583 1.32192 0.882583 1.10225 1.10225C0.882583 1.32192 0.882583 1.67808 1.10225 1.89775L18.1023 18.8977C18.3219 19.1174 18.6781 19.1174 18.8977 18.8977C19.1174 18.6781 19.1174 18.3219 18.8977 18.1023L17.7366 16.9411C18.2234 16.7231 18.5625 16.2344 18.5625 15.6665V4.33321C18.5625 3.56231 17.9376 2.93738 17.1667 2.93738H3.73287L1.89775 1.10225ZM17.1667 15.9374H16.7329L4.85787 4.06238H17.1667C17.3162 4.06238 17.4375 4.18363 17.4375 4.33321V15.6665C17.4375 15.8161 17.3162 15.9374 17.1667 15.9374Z" fill="white"/>
<path d="M2.5625 4.99988C2.5625 4.68922 2.31066 4.43738 2 4.43738C1.68934 4.43738 1.4375 4.68922 1.4375 4.99988V15.6665C1.4375 16.4374 2.06244 17.0624 2.83333 17.0624H13.5C13.8107 17.0624 14.0625 16.8105 14.0625 16.4999C14.0625 16.1892 13.8107 15.9374 13.5 15.9374H2.83333C2.68376 15.9374 2.5625 15.8161 2.5625 15.6665V4.99988Z" fill="white"/>
<path d="M4.58337 11.104C4.27271 11.104 4.02087 11.3558 4.02087 11.6665C4.02087 11.9772 4.27271 12.229 4.58337 12.229H8.75004C9.0607 12.229 9.31254 11.9772 9.31254 11.6665C9.31254 11.3558 9.0607 11.104 8.75004 11.104H4.58337Z" fill="white"/>
<path d="M4.58337 13.1873C4.27271 13.1873 4.02087 13.4392 4.02087 13.7498C4.02087 14.0605 4.27271 14.3123 4.58337 14.3123H8.75004C9.0607 14.3123 9.31254 14.0605 9.31254 13.7498C9.31254 13.4392 9.0607 13.1873 8.75004 13.1873H4.58337Z" fill="white"/>
</g>
<defs>
<clipPath id="clip0_42_11624">
<rect width="20" height="20" fill="white"/>
</clipPath>
</defs>
</svg>
