<svg width="16" height="16" viewBox="0 0 16 16" fill="none" xmlns="http://www.w3.org/2000/svg">
<path d="M3.04981 3.04976C5.78348 0.316094 10.2165 0.316094 12.9502 3.04976C15.6839 5.78343 15.6839 10.2165 12.9502 12.9502L12.6885 13.1982C9.94061 15.6808 5.69799 15.5983 3.04981 12.9502C0.40162 10.302 0.319194 6.05935 2.80176 3.31148L3.04981 3.04976ZM4.12598 12.58C6.48336 14.5785 10.018 14.4664 12.2422 12.2421C14.4664 10.0179 14.5786 6.48332 12.5801 4.12594L4.12598 12.58ZM11.873 3.4189C9.51567 1.42135 5.98172 1.53387 3.75781 3.75777C1.53391 5.98168 1.42139 9.51562 3.41895 11.873L11.873 3.4189Z" fill="white"/>
</svg>
