<svg width="24" height="24" viewBox="0 0 24 24" fill="none" xmlns="http://www.w3.org/2000/svg">
<path d="M4.57459 4.57465C8.67509 0.474141 15.3247 0.474141 19.4252 4.57465C23.5257 8.67515 23.5257 15.3247 19.4252 19.4252L19.0326 19.7973C14.9108 23.5212 8.54687 23.3975 4.57459 19.4252C0.602309 15.453 0.478669 9.08903 4.20252 4.96722L4.57459 4.57465ZM6.18885 18.8701C9.72492 21.8678 15.0268 21.6996 18.3632 18.3632C21.6995 15.0269 21.8677 9.72498 18.87 6.1889L6.18885 18.8701ZM17.8095 5.12836C14.2734 2.13202 8.97246 2.3008 5.6366 5.63666C2.30075 8.97251 2.13197 14.2734 5.1283 17.8095L17.8095 5.12836Z" fill="white"/>
</svg>
