<svg width="20" height="20" viewBox="0 0 20 20" fill="none" xmlns="http://www.w3.org/2000/svg">
<path d="M3.81232 3.81233C7.22941 0.39524 12.7707 0.39524 16.1878 3.81233C19.6049 7.22941 19.6049 12.7707 16.1878 16.1878L15.8607 16.4979C12.4258 19.6011 7.12255 19.498 3.81232 16.1878C0.502087 12.8776 0.399054 7.57432 3.50226 4.13948L3.81232 3.81233ZM5.15753 15.7252C8.10426 18.2233 12.5225 18.0831 15.3028 15.3028C18.0831 12.5225 18.2233 8.10427 15.7252 5.15754L5.15753 15.7252ZM14.8414 4.27375C11.8946 1.77681 7.47721 1.91746 4.69733 4.69734C1.91745 7.47722 1.7768 11.8947 4.27375 14.8414L14.8414 4.27375Z" fill="white"/>
</svg>
