<svg width="16" height="16" viewBox="0 0 16 16" fill="none" xmlns="http://www.w3.org/2000/svg">
<path d="M11.0789 4.5C10.8028 4.5 10.5789 4.72386 10.5789 5C10.5789 5.27614 10.8028 5.5 11.0789 5.5H12.421C12.6972 5.5 12.921 5.27614 12.921 5C12.921 4.72386 12.6972 4.5 12.421 4.5H11.0789Z" fill="white"/>
<path d="M11.0789 6.16667C10.8028 6.16667 10.5789 6.39052 10.5789 6.66667C10.5789 6.94281 10.8028 7.16667 11.0789 7.16667H12.421C12.6972 7.16667 12.921 6.94281 12.921 6.66667C12.921 6.39052 12.6972 6.16667 12.421 6.16667H11.0789Z" fill="white"/>
<path d="M11.0789 7.83333C10.8028 7.83333 10.5789 8.05719 10.5789 8.33333C10.5789 8.60948 10.8028 8.83333 11.0789 8.83333H12.421C12.6972 8.83333 12.921 8.60948 12.921 8.33333C12.921 8.05719 12.6972 7.83333 12.421 7.83333H11.0789Z" fill="white"/>
<path fill-rule="evenodd" clip-rule="evenodd" d="M1.85355 1.14645C1.65829 0.951184 1.34171 0.951184 1.14645 1.14645C0.951184 1.34171 0.951184 1.65829 1.14645 1.85355L14.1464 14.8536C14.3417 15.0488 14.6583 15.0488 14.8536 14.8536C15.0488 14.6583 15.0488 14.3417 14.8536 14.1464L14.073 13.3659C14.3293 13.2072 14.5 12.9236 14.5 12.6V3.4C14.5 2.90294 14.0971 2.5 13.6 2.5H3.20711L1.85355 1.14645ZM13.5 12.5H13.2071L11.7071 11H13.5V12.5ZM13.5 10H10.7071L10 9.29289V3.5H13.5V10ZM9 3.5V8.29289L4.20711 3.5H9Z" fill="white"/>
<path d="M2.5 4.81297C2.5 4.53682 2.27614 4.31297 2 4.31297C1.72386 4.31297 1.5 4.53682 1.5 4.81297V12.6C1.5 13.0971 1.90294 13.5 2.4 13.5H10.2168C10.493 13.5 10.7168 13.2761 10.7168 13C10.7168 12.7239 10.493 12.5 10.2168 12.5H2.5V11H7.69255C7.96869 11 8.19255 10.7761 8.19255 10.5C8.19255 10.2239 7.96869 10 7.69255 10H2.5V4.81297Z" fill="white"/>
</svg>
