<svg width="16" height="16" viewBox="0 0 16 16" fill="none" xmlns="http://www.w3.org/2000/svg">
<path fill-rule="evenodd" clip-rule="evenodd" d="M1.85355 1.14645C1.65829 0.951184 1.34171 0.951184 1.14645 1.14645C0.951184 1.34171 0.951184 1.65829 1.14645 1.85355L14.1464 14.8536C14.3417 15.0488 14.6583 15.0488 14.8536 14.8536C15.0488 14.6583 15.0488 14.3417 14.8536 14.1464L13.573 12.8659C13.8293 12.7073 14 12.4236 14 12.1V11H11.7071L10.7071 10H14V3.90002C14 3.40295 13.5972 3 13.1001 3H10V9.29289L9 8.29289V3H3.70711L1.85355 1.14645ZM11.5 4.6C11.2791 4.6 11.1 4.77909 11.1 5C11.1 5.22091 11.2791 5.4 11.5 5.4H12.5C12.7209 5.4 12.9 5.22091 12.9 5C12.9 4.77909 12.7209 4.6 12.5 4.6H11.5ZM11.5 6.1C11.2791 6.1 11.1 6.27909 11.1 6.5C11.1 6.72091 11.2791 6.9 11.5 6.9H12.5C12.7209 6.9 12.9 6.72091 12.9 6.5C12.9 6.27909 12.7209 6.1 12.5 6.1H11.5ZM11.5 7.6C11.2791 7.6 11.1 7.77909 11.1 8C11.1 8.22091 11.2791 8.4 11.5 8.4H12.5C12.7209 8.4 12.9 8.22091 12.9 8C12.9 7.77909 12.7209 7.6 12.5 7.6H11.5Z" fill="white"/>
<path d="M2 4.09151V10H7.90849L2 4.09151Z" fill="white"/>
<path d="M8.90849 11H2V12.1C2 12.597 2.40283 13 2.8999 13H10.9085L8.90849 11Z" fill="white"/>
</svg>
