<svg width="20" height="20" viewBox="0 0 20 20" fill="none" xmlns="http://www.w3.org/2000/svg">
<g clip-path="url(#clip0_41_17832)">
<path fill-rule="evenodd" clip-rule="evenodd" d="M1.88886 1.11104C1.67407 0.896254 1.32583 0.896254 1.11104 1.11104C0.896254 1.32583 0.896254 1.67407 1.11104 1.88886L18.111 18.8889C18.3258 19.1036 18.6741 19.1036 18.8889 18.8889C19.1036 18.6741 19.1036 18.3258 18.8889 18.111L17.4032 16.6254C17.9387 16.4842 18.3336 15.9965 18.3336 15.4167V14.05H14.8278L13.7278 12.95H18.3336V4.58333C18.3336 3.89297 17.7739 3.33333 17.0836 3.33333H12.55L12.55 11.7721L11.45 10.6721L11.45 3.33333H4.11114L1.88886 1.11104ZM14.0214 5.99995C14.0214 5.68929 14.2733 5.43745 14.5839 5.43745H16.2506C16.5613 5.43745 16.8131 5.68929 16.8131 5.99995C16.8131 6.31061 16.5613 6.56245 16.2506 6.56245H14.5839C14.2733 6.56245 14.0214 6.31061 14.0214 5.99995ZM14.5839 7.52078C14.2733 7.52078 14.0214 7.77262 14.0214 8.08328C14.0214 8.39394 14.2733 8.64578 14.5839 8.64578H16.2506C16.5613 8.64578 16.8131 8.39394 16.8131 8.08328C16.8131 7.77262 16.5613 7.52078 16.2506 7.52078H14.5839ZM14.5839 9.60412C14.2733 9.60412 14.0214 9.85596 14.0214 10.1666C14.0214 10.4773 14.2733 10.7291 14.5839 10.7291H16.2506C16.5613 10.7291 16.8131 10.4773 16.8131 10.1666C16.8131 9.85596 16.5613 9.60412 16.2506 9.60412H14.5839Z" fill="white"/>
<path d="M1.66694 3.99475C1.66694 6.97982 1.66694 9.96488 1.66694 12.95H10.6221L1.66694 3.99475Z" fill="white"/>
<path d="M11.7221 14.05H1.66694V15.4167C1.66694 16.107 2.22664 16.6667 2.91694 16.6667H14.3389L11.7221 14.05Z" fill="white"/>
</g>
<defs>
<clipPath id="clip0_41_17832">
<rect width="20" height="20" fill="white"/>
</clipPath>
</defs>
</svg>
