<svg width="24" height="24" viewBox="0 0 24 24" fill="none" xmlns="http://www.w3.org/2000/svg">
<path d="M17 6.8249C16.6272 6.8249 16.325 7.12711 16.325 7.4999C16.325 7.87269 16.6272 8.1749 17 8.1749H19C19.3728 8.1749 19.675 7.87269 19.675 7.4999C19.675 7.12711 19.3728 6.8249 19 6.8249H17Z" fill="white"/>
<path d="M17 9.3249C16.6272 9.3249 16.325 9.62711 16.325 9.9999C16.325 10.3727 16.6272 10.6749 17 10.6749H19C19.3728 10.6749 19.675 10.3727 19.675 9.9999C19.675 9.62711 19.3728 9.3249 19 9.3249H17Z" fill="white"/>
<path d="M17 11.8249C16.6272 11.8249 16.325 12.1271 16.325 12.4999C16.325 12.8727 16.6272 13.1749 17 13.1749H19C19.3728 13.1749 19.675 12.8727 19.675 12.4999C19.675 12.1271 19.3728 11.8249 19 11.8249H17Z" fill="white"/>
<path fill-rule="evenodd" clip-rule="evenodd" d="M2.97725 2.02265C2.71364 1.75905 2.28626 1.75905 2.02265 2.02265C1.75905 2.28626 1.75905 2.71364 2.02265 2.97725L21.5227 22.4772C21.7863 22.7409 22.2136 22.7409 22.4772 22.4772C22.7409 22.2136 22.7409 21.7863 22.4772 21.5227L21.0404 20.0858C21.7003 19.861 22.1749 19.2359 22.1749 18.5V5.49995C22.1749 4.57487 21.425 3.82495 20.5 3.82495H4.77955L2.97725 2.02265ZM20.5 18.825H19.7795L17.6295 16.675H20.825V18.5C20.825 18.6794 20.6794 18.825 20.5 18.825ZM20.825 15.325H16.2795L15.175 14.2204V5.17495H20.5C20.6794 5.17495 20.825 5.32046 20.825 5.49995V15.325ZM13.825 5.17495V12.8704L6.12955 5.17495H13.825Z" fill="white"/>
<path d="M3.17495 6.32125V15.325H12.1812C12.554 15.325 12.8562 15.6272 12.8562 16C12.8562 16.3727 12.554 16.675 12.1812 16.675H3.17495V18.5C3.17495 18.6794 3.32046 18.825 3.49995 18.825H15.6829C16.0557 18.825 16.3579 19.1272 16.3579 19.5C16.3579 19.8727 16.0557 20.1749 15.6829 20.1749H3.49995C2.57487 20.1749 1.82495 19.425 1.82495 18.5V6.32125C1.82495 5.94846 2.12716 5.64625 2.49995 5.64625C2.87274 5.64625 3.17495 5.94846 3.17495 6.32125Z" fill="white"/>
</svg>
