<svg width="24" height="24" viewBox="0 0 24 24" fill="none" xmlns="http://www.w3.org/2000/svg">
<path fill-rule="evenodd" clip-rule="evenodd" d="M2.97725 2.02265C2.71364 1.75905 2.28626 1.75905 2.02265 2.02265C1.75905 2.28626 1.75905 2.71364 2.02265 2.97725L21.5227 22.4772C21.7863 22.7409 22.2136 22.7409 22.4773 22.4772C22.7409 22.2136 22.7409 21.7863 22.4773 21.5227L20.9005 19.9459C21.5344 19.7706 22 19.1896 22 18.4999V16.6749H17.6295L16.2795 15.3249H22V5.49995C22 4.67152 21.3283 3.99995 20.5 3.99995H15.1749V14.2203L13.8249 12.8703V3.99995H4.95455L2.97725 2.02265ZM17.4999 6.82495C17.1271 6.82495 16.8249 7.12716 16.8249 7.49995C16.8249 7.87274 17.1271 8.17495 17.4999 8.17495H19.4999C19.8727 8.17495 20.1749 7.87274 20.1749 7.49995C20.1749 7.12716 19.8727 6.82495 19.4999 6.82495H17.4999ZM16.8249 9.99995C16.8249 9.62716 17.1271 9.32495 17.4999 9.32495H19.4999C19.8727 9.32495 20.1749 9.62716 20.1749 9.99995C20.1749 10.3727 19.8727 10.675 19.4999 10.675H17.4999C17.1271 10.675 16.8249 10.3727 16.8249 9.99995ZM17.4999 11.825C17.1271 11.825 16.8249 12.1272 16.8249 12.5C16.8249 12.8727 17.1271 13.175 17.4999 13.175H19.4999C19.8727 13.175 20.1749 12.8727 20.1749 12.5C20.1749 12.1272 19.8727 11.825 19.4999 11.825H17.4999Z" fill="white"/>
<path d="M1.99995 4.86623C1.99995 8.35245 1.99995 11.8387 1.99995 15.3249H12.4586L1.99995 4.86623Z" fill="white"/>
<path d="M13.8086 16.6749H1.99995V18.4999C1.99995 19.3284 2.67158 19.9999 3.49995 19.9999H17.1336L13.8086 16.6749Z" fill="white"/>
</svg>
