<svg width="20" height="20" viewBox="0 0 20 20" fill="none" xmlns="http://www.w3.org/2000/svg">
<g clip-path="url(#clip0_41_17837)">
<path d="M14 5.4499C13.6963 5.4499 13.45 5.69615 13.45 5.9999C13.45 6.30366 13.6963 6.5499 14 6.5499H16C16.3038 6.5499 16.55 6.30366 16.55 5.9999C16.55 5.69615 16.3038 5.4499 16 5.4499H14Z" fill="white"/>
<path d="M14 7.4499C13.6963 7.4499 13.45 7.69615 13.45 7.9999C13.45 8.30366 13.6963 8.5499 14 8.5499H16C16.3038 8.5499 16.55 8.30366 16.55 7.9999C16.55 7.69615 16.3038 7.4499 16 7.4499H14Z" fill="white"/>
<path d="M14 9.4499C13.6963 9.4499 13.45 9.69615 13.45 9.9999C13.45 10.3037 13.6963 10.5499 14 10.5499H16C16.3038 10.5499 16.55 10.3037 16.55 9.9999C16.55 9.69615 16.3038 9.4499 16 9.4499H14Z" fill="white"/>
<path fill-rule="evenodd" clip-rule="evenodd" d="M1.88886 1.11104C1.67407 0.896254 1.32583 0.896254 1.11104 1.11104C0.896254 1.32583 0.896254 1.67407 1.11104 1.88886L18.111 18.8889C18.3258 19.1036 18.6741 19.1036 18.8889 18.8889C19.1036 18.6741 19.1036 18.3258 18.8889 18.111L17.7228 16.945C18.2087 16.7407 18.5499 16.2602 18.5499 15.7V4.29995C18.5499 3.55437 17.9455 2.94995 17.2 2.94995H3.72777L1.88886 1.11104ZM17.2 15.95H16.7278L14.6559 13.8781H17.45V15.7C17.45 15.838 17.338 15.95 17.2 15.95ZM17.45 12.7781H13.5559L12.55 11.7721V4.04995H17.2C17.338 4.04995 17.45 4.16188 17.45 4.29995V12.7781ZM11.45 4.04995V10.6721L4.82777 4.04995H11.45Z" fill="white"/>
<path d="M2.54995 5.12987C2.54995 4.82611 2.30371 4.57987 1.99995 4.57987C1.69619 4.57987 1.44995 4.82611 1.44995 5.12987V15.7C1.44995 16.4455 2.05437 17.05 2.79995 17.05H13.3906C13.6943 17.05 13.9406 16.8037 13.9406 16.5C13.9406 16.1962 13.6943 15.95 13.3906 15.95H2.79995C2.66188 15.95 2.54995 15.838 2.54995 15.7V13.8781H10.2187C10.5225 13.8781 10.7687 13.6318 10.7687 13.3281C10.7687 13.0243 10.5225 12.7781 10.2187 12.7781H2.54995V5.12987Z" fill="white"/>
</g>
<defs>
<clipPath id="clip0_41_17837">
<rect width="20" height="20" fill="white"/>
</clipPath>
</defs>
</svg>
