<svg width="40" height="40" viewBox="0 0 40 40" fill="none" xmlns="http://www.w3.org/2000/svg">
<path d="M19.9999 5C23.6817 5 26.6669 7.9851 26.6669 11.667C26.6667 15.3161 23.7342 18.2778 20.0975 18.3301L21.9032 20.1357C27.744 20.9706 32.3634 25.5899 33.1981 31.4307L35.8836 34.1162C36.3718 34.6044 36.3718 35.3966 35.8836 35.8848C35.3955 36.3725 34.6041 36.3727 34.1161 35.8848L5.78306 7.55078C5.295 7.06262 5.29494 6.27133 5.78306 5.7832C6.27119 5.29517 7.06251 5.29517 7.55064 5.7832L13.3358 11.5684C13.3885 7.93205 16.3511 5.00017 19.9999 5ZM30.3876 35H8.33384C7.41343 35 6.66685 34.2535 6.66685 33.333C6.66699 27.3637 10.5895 22.31 15.9979 20.6104L30.3876 35Z" fill="white"/>
</svg>
