<svg width="16" height="16" viewBox="0 0 16 16" fill="none" xmlns="http://www.w3.org/2000/svg">
<path d="M7.99897 2C9.47173 2 10.666 3.19423 10.666 4.66699C10.6658 6.12687 9.49213 7.30969 8.03705 7.33008L8.76166 8.05469C11.0967 8.38906 12.9426 10.2355 13.2773 12.5703L14.3535 13.6465C14.5487 13.8417 14.5487 14.1583 14.3535 14.3535C14.1582 14.5488 13.8417 14.5488 13.6464 14.3535L2.64643 3.35352C2.4512 3.15825 2.45118 2.84173 2.64643 2.64648C2.84168 2.45127 3.15821 2.45127 3.35346 2.64648L5.3349 4.62793C5.3558 3.17328 6.53939 2.00015 7.99897 2ZM12.2929 14H3.33295C2.96476 14 2.66596 13.7012 2.66596 13.333C2.6661 10.9062 4.28743 8.85883 6.5058 8.21289L12.2929 14Z" fill="white"/>
</svg>
