<svg width="24" height="24" viewBox="0 0 24 24" fill="none" xmlns="http://www.w3.org/2000/svg">
<path d="M11.9999 3C14.209 3 15.9999 4.79086 15.9999 7C15.9999 9.18957 14.2406 10.9667 12.0585 10.998L13.1425 12.082C16.6459 12.5831 19.4154 15.3532 19.9169 18.8564L21.5302 20.4697C21.8231 20.7626 21.823 21.2374 21.5302 21.5303C21.2373 21.8232 20.7625 21.8232 20.4696 21.5303L3.46964 4.53027C3.17681 4.23738 3.17677 3.7626 3.46964 3.46973C3.76252 3.17691 4.23731 3.17691 4.53019 3.46973L8.00089 6.94043C8.03275 4.75876 9.8107 3 11.9999 3ZM18.2314 21H4.99992C4.44767 21 3.99992 20.5523 3.99992 20C3.99992 16.4187 6.35296 13.3863 9.59757 12.3662L18.2314 21Z" fill="white"/>
</svg>
