<svg width="16" height="16" viewBox="0 0 16 16" fill="none" xmlns="http://www.w3.org/2000/svg">
<path d="M4.20851 9.42857C4.20851 9.13342 4.27028 8.83998 4.39383 8.54826C4.52082 8.25654 4.701 7.98198 4.93437 7.72458C5.17118 7.46718 5.45604 7.24067 5.78894 7.04505L8.96011 10.2265H8.66153V12.5586C8.66153 12.7542 8.64437 12.9395 8.61005 13.1145C8.57573 13.2896 8.53283 13.4423 8.48135 13.5727C8.42987 13.7066 8.37839 13.8112 8.32691 13.8867C8.27886 13.9622 8.23939 14 8.20851 14C8.17419 14 8.13129 13.9622 8.07981 13.8867C8.03176 13.8112 7.98199 13.7066 7.93051 13.5727C7.87903 13.4423 7.83613 13.2896 7.80181 13.1145C7.76749 12.9395 7.75033 12.7542 7.75033 12.5586V10.1544H4.96526C4.73532 10.1544 4.55171 10.0892 4.41443 9.95882C4.27715 9.82497 4.20851 9.64822 4.20851 9.42857ZM5.46462 2H10.9524C11.1309 2 11.275 2.05148 11.3848 2.15444C11.4981 2.2574 11.5547 2.38782 11.5547 2.54569C11.5547 2.71042 11.4861 2.88031 11.3488 3.05534C11.2149 3.22694 11.0039 3.426 10.7156 3.65251C10.4273 3.87559 10.0944 4.09352 9.71687 4.30631L9.88676 6.66924C10.3672 6.84427 10.7808 7.07937 11.1274 7.37452C11.4741 7.66967 11.74 7.99571 11.9254 8.35264C12.1107 8.70613 12.2034 9.06478 12.2034 9.42857C12.2034 9.76148 12.0592 9.98456 11.7709 10.0978L6.64866 4.9807L6.69499 4.30631C6.44446 4.16216 6.21108 4.0163 5.99486 3.86873C5.77865 3.71772 5.58817 3.57186 5.42343 3.43115C5.26213 3.287 5.13858 3.15659 5.05278 3.0399C4.92579 2.87173 4.8623 2.70699 4.8623 2.54569C4.8623 2.38782 4.91721 2.2574 5.02704 2.15444C5.13686 2.05148 5.28272 2 5.46462 2ZM3.06565 3.42085C2.99014 3.34535 2.95239 3.25268 2.95239 3.14286C2.95239 3.0296 2.99014 2.93522 3.06565 2.85972C3.14458 2.78078 3.23896 2.74131 3.34879 2.74131C3.45861 2.74131 3.55299 2.78078 3.63193 2.85972L12.9344 12.157C13.0133 12.236 13.0511 12.3286 13.0476 12.435C13.0476 12.5448 13.0099 12.6392 12.9344 12.7181C12.8589 12.7971 12.7662 12.8366 12.6564 12.8366C12.5466 12.8366 12.4522 12.7971 12.3732 12.7181L3.06565 3.42085Z" fill="white"/>
</svg>
