<svg width="20" height="20" viewBox="0 0 20 20" fill="none" xmlns="http://www.w3.org/2000/svg">
<path d="M5.26033 11.7857C5.26033 11.4168 5.33755 11.05 5.49199 10.6853C5.65072 10.3207 5.87594 9.97748 6.16766 9.65573C6.46367 9.33398 6.81974 9.05084 7.23587 8.80631L11.1998 12.7831H10.8266V15.6982C10.8266 15.9427 10.8052 16.1744 10.7623 16.3932C10.7194 16.612 10.6657 16.8029 10.6014 16.9659C10.537 17.1332 10.4727 17.264 10.4083 17.3584C10.3483 17.4528 10.2989 17.5 10.2603 17.5C10.2174 17.5 10.1638 17.4528 10.0995 17.3584C10.0394 17.264 9.97719 17.1332 9.91284 16.9659C9.84849 16.8029 9.79486 16.612 9.75196 16.3932C9.70906 16.1744 9.68761 15.9427 9.68761 15.6982V12.6931H6.20627C5.91884 12.6931 5.68933 12.6115 5.51773 12.4485C5.34613 12.2812 5.26033 12.0603 5.26033 11.7857ZM6.83047 2.5H13.6902C13.9133 2.5 14.0934 2.56435 14.2307 2.69305C14.3723 2.82175 14.4431 2.98477 14.4431 3.18211C14.4431 3.38803 14.3573 3.60039 14.1857 3.81918C14.0184 4.03368 13.7545 4.2825 13.3942 4.56564C13.0338 4.84449 12.6177 5.1169 12.1458 5.38288L12.3581 8.33655C12.9587 8.55534 13.4757 8.84921 13.909 9.21815C14.3423 9.58709 14.6747 9.99464 14.9064 10.4408C15.1381 10.8827 15.2539 11.331 15.2539 11.7857C15.2539 12.2018 15.0737 12.4807 14.7134 12.6223L8.31052 6.22587L8.36844 5.38288C8.05526 5.2027 7.76354 5.02038 7.49327 4.83591C7.223 4.64715 6.98491 4.46482 6.77899 4.28893C6.57736 4.10875 6.42292 3.94573 6.31567 3.79987C6.15694 3.58966 6.07757 3.38374 6.07757 3.18211C6.07757 2.98477 6.14621 2.82175 6.28349 2.69305C6.42077 2.56435 6.6031 2.5 6.83047 2.5ZM3.83176 4.27606C3.73738 4.18168 3.69019 4.06585 3.69019 3.92857C3.69019 3.787 3.73738 3.66903 3.83176 3.57465C3.93043 3.47598 4.0484 3.42664 4.18568 3.42664C4.32296 3.42664 4.44094 3.47598 4.53961 3.57465L16.1677 15.1963C16.2663 15.2949 16.3135 15.4108 16.3092 15.5438C16.3092 15.681 16.262 15.799 16.1677 15.8977C16.0733 15.9964 15.9575 16.0457 15.8202 16.0457C15.6829 16.0457 15.5649 15.9964 15.4662 15.8977L3.83176 4.27606Z" fill="white"/>
</svg>
