<svg width="24" height="24" viewBox="0 0 24 24" fill="none" xmlns="http://www.w3.org/2000/svg">
<path d="M6.31264 14.1429C6.31264 13.7001 6.4053 13.26 6.59063 12.8224C6.78111 12.3848 7.05138 11.973 7.40144 11.5869C7.75665 11.2008 8.18394 10.861 8.68329 10.5676L13.44 15.3398H12.9922V18.8378C12.9922 19.1313 12.9664 19.4093 12.915 19.6718C12.8635 19.9344 12.7991 20.1635 12.7219 20.3591C12.6447 20.5598 12.5675 20.7169 12.4902 20.8301C12.4182 20.9434 12.359 21 12.3126 21C12.2612 21 12.1968 20.9434 12.1196 20.8301C12.0475 20.7169 11.9729 20.5598 11.8956 20.3591C11.8184 20.1635 11.7541 19.9344 11.7026 19.6718C11.6511 19.4093 11.6254 19.1313 11.6254 18.8378V15.2317H7.44777C7.10286 15.2317 6.82744 15.1338 6.62152 14.9382C6.4156 14.7375 6.31264 14.4723 6.31264 14.1429ZM8.19681 3H16.4285C16.6962 3 16.9124 3.07722 17.0771 3.23166C17.247 3.3861 17.3319 3.58172 17.3319 3.81853C17.3319 4.06564 17.229 4.32046 17.0231 4.58301C16.8223 4.84041 16.5057 5.139 16.0733 5.47876C15.6408 5.81338 15.1415 6.14028 14.5752 6.45946L14.83 10.0039C15.5507 10.2664 16.1711 10.619 16.691 11.0618C17.211 11.5045 17.6099 11.9936 17.8879 12.529C18.1659 13.0592 18.3049 13.5972 18.3049 14.1429C18.3049 14.6422 18.0887 14.9768 17.6563 15.1467L9.97287 7.47104L10.0424 6.45946C9.66656 6.24324 9.3165 6.02445 8.99217 5.80309C8.66785 5.57658 8.38213 5.35779 8.13503 5.14672C7.89307 4.9305 7.70775 4.73488 7.57905 4.55985C7.38857 4.30759 7.29333 4.06049 7.29333 3.81853C7.29333 3.58172 7.3757 3.3861 7.54044 3.23166C7.70517 3.07722 7.92396 3 8.19681 3ZM4.59835 5.13127C4.48509 5.01802 4.42847 4.87902 4.42847 4.71429C4.42847 4.5444 4.48509 4.40283 4.59835 4.28958C4.71676 4.17117 4.85833 4.11197 5.02306 4.11197C5.1878 4.11197 5.32937 4.17117 5.44777 4.28958L19.4014 18.2355C19.5198 18.3539 19.5765 18.4929 19.5713 18.6525C19.5713 18.8172 19.5147 18.9588 19.4014 19.0772C19.2882 19.1956 19.1492 19.2548 18.9845 19.2548C18.8197 19.2548 18.6781 19.1956 18.5597 19.0772L4.59835 5.13127Z" fill="white"/>
</svg>
