<svg width="16" height="16" viewBox="0 0 16 16" fill="none" xmlns="http://www.w3.org/2000/svg">
<path d="M13.3536 12.6467L11.6364 10.9295V2.07199C11.6364 1.67317 11.156 1.47147 10.8712 1.75074L7.55844 5.00025H5.70711L3.35355 2.64669C3.15829 2.45143 2.84171 2.45143 2.64645 2.64669C2.45118 2.84195 2.45118 3.15854 2.64645 3.3538L12.6464 13.3538C12.8417 13.5491 13.1583 13.5491 13.3536 13.3538C13.5488 13.1585 13.5488 12.842 13.3536 12.6467Z" fill="white"/>
<path d="M7.55844 11.0002H3.9C3.40294 11.0002 3 10.5973 3 10.1002V5.90025C3 5.57669 3.17074 5.29301 3.42704 5.13439L11.6364 13.3437V13.9285C11.6364 14.3273 11.156 14.529 10.8712 14.2498L7.55844 11.0002Z" fill="white"/>
</svg>
