<svg width="24" height="24" viewBox="0 0 24 24" fill="none" xmlns="http://www.w3.org/2000/svg">
<path d="M19.0002 17.0458L21.9775 20.0231C22.2411 20.2867 22.2411 20.7141 21.9775 20.9777C21.7139 21.2413 21.2865 21.2413 21.0229 20.9777L4.0229 3.97771C3.75929 3.71411 3.75929 3.28672 4.0229 3.02311C4.2865 2.75951 4.71389 2.75951 4.97749 3.02311L8.95479 7.00041H13.0002L17.7199 2.28075C18.1923 1.80827 19.0002 2.14289 19.0002 2.81107V17.0458Z" fill="white"/>
<path d="M13.0002 17.0004H6.5002C5.67183 17.0004 5.0002 16.3288 5.0002 15.5004V8.50041C5.0002 7.94623 5.30073 7.46224 5.74775 7.20253L19.0002 20.455V21.1897C19.0002 21.8579 18.1923 22.1926 17.7199 21.7201L13.0002 17.0004Z" fill="white"/>
</svg>
