<svg width="24" height="24" viewBox="0 0 24 24" fill="none" xmlns="http://www.w3.org/2000/svg">
<path fill-rule="evenodd" clip-rule="evenodd" d="M17.8252 4.12965L14.2704 7.68446C13.9563 7.99859 13.5302 8.17506 13.086 8.17506H10.1298L17.8252 15.8705V4.12965ZM19.1752 17.2205V3.10361C19.1752 2.27953 18.1788 1.86682 17.5961 2.44954L13.3158 6.72987C13.2548 6.79082 13.1722 6.82506 13.086 6.82506H8.77979L4.97749 3.02276C4.71389 2.75916 4.2865 2.75916 4.0229 3.02276C3.75929 3.28637 3.75929 3.71375 4.0229 3.97736L21.0229 20.9774C21.2865 21.241 21.7139 21.241 21.9775 20.9774C22.2411 20.7138 22.2411 20.2864 21.9775 20.0228L19.1752 17.2205ZM5.5002 7.23131C5.87299 7.23131 6.1752 7.53352 6.1752 7.90631V15.5001C6.1752 15.6796 6.3207 15.8251 6.5002 15.8251H13.086C13.5302 15.8251 13.9563 16.0015 14.2704 16.3157L18.9775 21.0228C19.2411 21.2864 19.2411 21.7138 18.9775 21.9774C18.7139 22.241 18.2865 22.241 18.0229 21.9774L13.3158 17.2702C13.2548 17.2093 13.1722 17.1751 13.086 17.1751H6.5002C5.57512 17.1751 4.8252 16.4251 4.8252 15.5001V7.90631C4.8252 7.53352 5.1274 7.23131 5.5002 7.23131Z" fill="white"/>
</svg>
