<svg width="16" height="16" viewBox="0 0 16 16" fill="none" xmlns="http://www.w3.org/2000/svg">
<path fill-rule="evenodd" clip-rule="evenodd" d="M11 3.20767L8.47071 5.73696C8.30193 5.90574 8.07301 6.00056 7.83431 6.00056H6.70711L11 10.2935V3.20767ZM12 11.2935V2.0247C12 1.57041 11.4507 1.34275 11.1294 1.66408C11.1294 1.66408 11.1294 1.66407 11.1294 1.66408L7.79289 5.00056H5.70711L3.35355 2.64701C3.15829 2.45174 2.84171 2.45174 2.64645 2.64701C2.45118 2.84227 2.45118 3.15885 2.64645 3.35411L12.6464 13.3541C12.8417 13.5494 13.1583 13.5494 13.3536 13.3541C13.5488 13.1589 13.5488 12.8423 13.3536 12.647L12 11.2935ZM3.5 5.40681C3.77614 5.40681 4 5.63067 4 5.90681V10.0006H7.83431C8.07301 10.0006 8.30193 10.0954 8.47071 10.2642L11.8536 13.647C12.0488 13.8423 12.0488 14.1589 11.8536 14.3541C11.6583 14.5494 11.3417 14.5494 11.1464 14.3541L7.79289 11.0006H3.9C3.40294 11.0006 3 10.5976 3 10.1006V5.90681C3 5.63067 3.22386 5.40681 3.5 5.40681Z" fill="white"/>
</svg>
