<svg width="16" height="16" viewBox="0 0 16 16" fill="none" xmlns="http://www.w3.org/2000/svg">
<path fill-rule="evenodd" clip-rule="evenodd" d="M12.4111 4.15821C13.0719 3.67694 13.9999 4.14923 14 4.96681V11.0332L13.9893 11.1826C13.8915 11.8583 13.1405 12.2398 12.5371 11.9199L12.4111 11.8408L8.25098 8.80763C8.14785 8.73239 8.06428 8.64225 8 8.54298C7.93572 8.64225 7.85215 8.73239 7.74902 8.80763L3.58887 11.8408L3.46289 11.9199C2.85952 12.2398 2.10847 11.8583 2.01074 11.1826L2 11.0332V4.96681C2.0001 4.14923 2.9281 3.67694 3.58887 4.15821L7.74902 7.19141C7.85204 7.26653 7.93573 7.35696 8 7.45606C8.06427 7.35696 8.14796 7.26653 8.25098 7.19141L12.4111 4.15821ZM3 11.0332L6.85156 8.22364C6.83504 8.07486 6.83498 7.92417 6.85156 7.7754L3 4.96681V11.0332ZM9.14746 7.7754C9.16406 7.92424 9.164 8.07479 9.14746 8.22364L13 11.0332V4.96681L9.14746 7.7754Z" fill="white"/>
</svg>
