<svg width="24" height="24" viewBox="0 0 24 24" fill="none" xmlns="http://www.w3.org/2000/svg">
<path d="M3.97676 3.0229C3.71316 2.75929 3.28577 2.75929 3.02217 3.0229C2.75856 3.2865 2.75856 3.71389 3.02217 3.97749L20.0222 20.9775C20.2858 21.2411 20.7132 21.2411 20.9768 20.9775C21.2404 20.7139 21.2404 20.2865 20.9768 20.0229L19.954 19.0002H22.1875C22.6362 19.0002 23 18.6364 23 18.1877C23 14.5978 20.0898 11.6877 16.5 11.6877C15.3846 11.6877 14.3348 11.9686 13.4175 12.4636L10.2255 9.2716C10.5574 8.76203 10.7502 8.1536 10.7502 7.50012C10.7502 5.7052 9.29517 4.25012 7.50024 4.25012C6.84677 4.25012 6.23833 4.44299 5.72877 4.7749L3.97676 3.0229Z" fill="white"/>
<path d="M4.25024 7.50012C4.25024 7.25428 4.27754 7.01482 4.32927 6.78459L8.21577 10.6711C7.98555 10.7228 7.74608 10.7501 7.50024 10.7501C5.70532 10.7501 4.25024 9.29504 4.25024 7.50012Z" fill="white"/>
<path d="M10.7719 13.2272L9.56839 12.0237C8.91868 11.8058 8.22315 11.6877 7.5 11.6877C3.91016 11.6877 1 14.5978 1 18.1877C1 18.6364 1.36377 19.0002 1.8125 19.0002H8.34307C8.73318 19.0002 8.99939 18.5697 8.99939 18.1795C8.99939 16.4207 9.60482 14.8033 10.6186 13.5243C10.6903 13.4339 10.7415 13.3323 10.7719 13.2272Z" fill="white"/>
<path d="M11.5359 13.9913L16.5449 19.0002H10.8125C10.3638 19.0002 10 18.6364 10 18.1877C10 16.5882 10.5777 15.1236 11.5359 13.9913Z" fill="white"/>
<path d="M19.7502 7.50012C19.7502 9.29504 18.2952 10.7501 16.5002 10.7501C14.7053 10.7501 13.2502 9.29504 13.2502 7.50012C13.2502 5.7052 14.7053 4.25012 16.5002 4.25012C18.2952 4.25012 19.7502 5.7052 19.7502 7.50012Z" fill="white"/>
</svg>
