<svg width="24" height="24" viewBox="0 0 24 24" fill="none" xmlns="http://www.w3.org/2000/svg">
<path fill-rule="evenodd" clip-rule="evenodd" d="M3.02241 3.0229C3.28601 2.75929 3.7134 2.75929 3.977 3.0229L5.72916 4.77506C6.23861 4.44339 6.84733 4.25024 7.50049 4.25024C9.29541 4.25024 10.7505 5.70532 10.7505 7.50024C10.7505 8.1534 10.5573 8.76212 10.2257 9.27157L13.2824 12.3283C14.237 11.8025 15.3341 11.5033 16.4996 11.5033C20.1868 11.5033 23.1759 14.4924 23.1759 18.1796C23.1767 18.7291 22.7315 19.1753 22.1817 19.1753H20.1294L20.977 20.0229C21.2406 20.2865 21.2406 20.7139 20.977 20.9775C20.7134 21.2411 20.286 21.2411 20.0224 20.9775L3.02241 3.97749C2.75881 3.71389 2.75881 3.2865 3.02241 3.0229ZM9.23392 8.27978C9.34105 8.04197 9.4005 7.77822 9.4005 7.50022C9.4005 6.45088 8.54984 5.60022 7.5005 5.60022C7.22251 5.60022 6.95875 5.65967 6.72095 5.7668L9.23392 8.27978ZM18.7794 17.8252H21.8143C21.632 15.0488 19.3222 12.8533 16.4996 12.8533C15.7095 12.8533 14.9605 13.0249 14.2871 13.3329L18.7794 17.8252Z" fill="white"/>
<path fill-rule="evenodd" clip-rule="evenodd" d="M16.5005 4.25024C14.7056 4.25024 13.2505 5.70532 13.2505 7.50024C13.2505 9.29517 14.7056 10.7502 16.5005 10.7502C18.2954 10.7502 19.7505 9.29517 19.7505 7.50024C19.7505 5.70532 18.2954 4.25024 16.5005 4.25024ZM14.6005 7.50024C14.6005 6.4509 15.4511 5.60024 16.5005 5.60024C17.5498 5.60024 18.4005 6.4509 18.4005 7.50024C18.4005 8.54959 17.5498 9.40024 16.5005 9.40024C15.4511 9.40024 14.6005 8.54959 14.6005 7.50024Z" fill="white"/>
<path d="M5.62005 7.77453C5.56687 7.40555 5.22464 7.14954 4.85566 7.20272C4.48668 7.2559 4.23068 7.59813 4.28386 7.96711C4.48892 9.38987 5.61318 10.5134 7.03632 10.7173C7.40534 10.7701 7.74736 10.5138 7.80023 10.1448C7.8531 9.77579 7.59681 9.43378 7.22778 9.38091C6.39781 9.262 5.73964 8.60429 5.62005 7.77453Z" fill="white"/>
<path d="M7.49959 12.8533C4.67701 12.8533 2.36722 15.0488 2.18484 17.8253H8.17399C8.54679 17.8253 8.84899 18.1275 8.84899 18.5003C8.84899 18.873 8.54679 19.1753 8.17399 19.1753H1.82021C1.27123 19.1753 0.825547 18.7314 0.823248 18.1825L0.823242 18.1796C0.823242 14.4924 3.81234 11.5033 7.49959 11.5033C8.55351 11.5033 9.5522 11.748 10.4402 12.1843C10.7748 12.3487 10.9128 12.7532 10.7484 13.0878C10.584 13.4224 10.1795 13.5603 9.8449 13.3959C9.13805 13.0487 8.34259 12.8533 7.49959 12.8533Z" fill="white"/>
<path d="M12.2268 14.9989C12.4496 14.7001 12.3881 14.2772 12.0892 14.0543C11.7904 13.8314 11.3675 13.893 11.1446 14.1919C10.3147 15.3046 9.82324 16.6857 9.82324 18.1796L9.82325 18.1825C9.82555 18.7314 10.2712 19.1753 10.8202 19.1753H15.5874C15.9602 19.1753 16.2624 18.873 16.2624 18.5003C16.2624 18.1275 15.9602 17.8253 15.5874 17.8253H11.1848C11.2541 16.7689 11.6309 15.7979 12.2268 14.9989Z" fill="white"/>
</svg>
