<svg width="16" height="16" viewBox="0 0 16 16" fill="none" xmlns="http://www.w3.org/2000/svg">
<path fill-rule="evenodd" clip-rule="evenodd" d="M2.14645 2.14645C2.34171 1.95118 2.6583 1.95118 2.85356 2.14645L3.63115 2.92404C3.89876 2.81193 4.19249 2.75 4.50001 2.75C5.74265 2.75 6.75001 3.75736 6.75001 5C6.75001 5.30751 6.68807 5.60125 6.57597 5.86885L9.28765 8.58054C9.94121 8.21093 10.6965 7.99994 11.5 7.99994C13.9477 7.99994 15.9388 9.95396 15.9986 12.3873C16.0071 12.7295 15.7301 12.9999 15.4 12.9999H13.7071L13.8536 13.1464C14.0488 13.3417 14.0488 13.6583 13.8536 13.8536C13.6583 14.0488 13.3417 14.0488 13.1465 13.8536L2.14645 2.85355C1.95119 2.65829 1.95119 2.34171 2.14645 2.14645ZM12.7071 11.9999H14.9646C14.7221 10.3039 13.2633 8.99994 11.5 8.99994C10.9744 8.99994 10.4765 9.11552 10.0298 9.32266L12.7071 11.9999ZM5.74931 5.0422C5.74977 5.02819 5.75001 5.01413 5.75001 5C5.75001 4.30964 5.19036 3.75 4.50001 3.75C4.48588 3.75 4.47181 3.75023 4.45781 3.75069L5.74931 5.0422ZM11.5 3.75C10.8096 3.75 10.25 4.30964 10.25 5C10.25 5.69036 10.8096 6.25 11.5 6.25C12.1904 6.25 12.75 5.69036 12.75 5C12.75 4.30964 12.1904 3.75 11.5 3.75ZM9.25001 5C9.25001 3.75736 10.2574 2.75 11.5 2.75C12.7426 2.75 13.75 3.75736 13.75 5C13.75 6.24264 12.7426 7.25 11.5 7.25C10.2574 7.25 9.25001 6.24264 9.25001 5ZM2.70984 4.67418C2.98468 4.6474 3.22919 4.84849 3.25598 5.12333C3.31344 5.713 3.78222 6.18346 4.37115 6.24348C4.64587 6.27148 4.84587 6.51688 4.81787 6.7916C4.78987 7.06632 4.54447 7.26632 4.26975 7.23832C3.2073 7.13004 2.36436 6.28414 2.26069 5.22032C2.23391 4.94548 2.435 4.70097 2.70984 4.67418ZM1.03544 11.9999C1.27798 10.3039 2.73679 8.99994 4.50002 8.99994C5.27114 8.99994 5.98268 9.24873 6.56071 9.67054C6.78378 9.83332 7.09656 9.78445 7.25934 9.56138C7.42212 9.33832 7.37325 9.02553 7.15019 8.86275C6.40676 8.32024 5.49006 7.99994 4.50002 7.99994C2.05239 7.99994 0.0612897 9.95396 0.00140779 12.3873C-0.00701292 12.7295 0.269976 12.9999 0.600024 12.9999H5.84954C6.12568 12.9999 6.34954 12.7761 6.34954 12.4999C6.34954 12.2238 6.12568 11.9999 5.84954 11.9999H1.03544ZM8.30811 10.0376C8.54585 10.1781 8.62471 10.4847 8.48424 10.7225C8.25702 11.107 8.10129 11.5387 8.03541 11.9999H10.082C10.3582 11.9999 10.582 12.2238 10.582 12.4999C10.582 12.7761 10.3582 12.9999 10.082 12.9999H7.60002C7.26998 12.9999 6.99299 12.7295 7.00141 12.3873C7.02089 11.5958 7.24512 10.8538 7.62329 10.2138C7.76376 9.97601 8.07036 9.89716 8.30811 10.0376Z" fill="white"/>
</svg>
