<svg width="16" height="16" viewBox="0 0 16 16" fill="none" xmlns="http://www.w3.org/2000/svg">
<path d="M2.85355 2.14645C2.65829 1.95118 2.34171 1.95118 2.14645 2.14645C1.95118 2.34171 1.95118 2.65829 2.14645 2.85355L13.1464 13.8536C13.3417 14.0488 13.6583 14.0488 13.8536 13.8536C14.0488 13.6583 14.0488 13.3417 13.8536 13.1464L13.7071 13H15.4998C15.7759 13 15.9998 12.7761 15.9998 12.5C15.9998 10.0454 13.985 7.99997 11.4998 7.99997C10.6973 7.99997 9.94399 8.21319 9.29168 8.58457L6.57607 5.86896C6.6881 5.6016 6.75 5.30803 6.75 5C6.75 3.75736 5.74264 2.75 4.5 2.75C4.19197 2.75 3.8984 2.8119 3.63104 2.92394L2.85355 2.14645Z" fill="white"/>
<path d="M2.25 5C2.25 4.69197 2.3119 4.3984 2.42394 4.13104L5.36896 7.07607C5.1016 7.1881 4.80803 7.25 4.5 7.25C3.25736 7.25 2.25 6.24264 2.25 5Z" fill="white"/>
<path d="M7.30274 9.00984L7.20735 8.91445C6.45396 8.34211 5.51621 7.99997 4.49976 7.99997C2.01447 7.99997 6.0832e-08 10.0454 6.0832e-08 12.5C-0.000134701 12.7761 0.223654 13 0.499756 13H5.94685C6.18613 13 6.34998 12.7393 6.34998 12.5C6.34998 11.3976 6.69633 10.3761 7.28616 9.53845C7.40024 9.37641 7.41027 9.16168 7.30274 9.00984Z" fill="white"/>
<path d="M7.98971 9.69682L11.2929 13H7.49976C7.22365 13 6.99987 12.7761 7 12.5C7 11.4473 7.37049 10.4699 7.98971 9.69682Z" fill="white"/>
<path d="M11.5 7.25C12.7426 7.25 13.75 6.24264 13.75 5C13.75 3.75736 12.7426 2.75 11.5 2.75C10.2574 2.75 9.25 3.75736 9.25 5C9.25 6.24264 10.2574 7.25 11.5 7.25Z" fill="white"/>
</svg>
