<svg width="16" height="16" viewBox="0 0 16 16" fill="none" xmlns="http://www.w3.org/2000/svg">
<path d="M1.64645 2.64645C1.84171 2.45118 2.15829 2.45118 2.35355 2.64645L3.70711 4H10.0003C10.5526 4 11 4.44772 11 5V11.2929L12.3536 12.6464C12.5488 12.8417 12.5488 13.1583 12.3536 13.3536C12.1583 13.5488 11.8417 13.5488 11.6464 13.3536L1.64645 3.35355C1.45118 3.15829 1.45118 2.84171 1.64645 2.64645Z" fill="white"/>
<path d="M12 9.98871C12 10.2021 12.1133 10.3995 12.2977 10.507L13.3233 11.1052C13.6233 11.2802 14 11.0638 14 10.7165V5.28347C14 4.93616 13.6233 4.71977 13.3233 4.89477L12.2977 5.49302C12.1133 5.60055 12 5.79789 12 6.01129V9.98871Z" fill="white"/>
<path d="M9.29289 12L2 4.70711L2 11C2 11.5523 2.44772 12 3 12H9.29289Z" fill="white"/>
</svg>
