<svg width="24" height="24" viewBox="0 0 24 24" fill="none" xmlns="http://www.w3.org/2000/svg">
<path fill-rule="evenodd" clip-rule="evenodd" d="M1.0229 3.0229C1.2865 2.75929 1.71389 2.75929 1.97749 3.0229L3.77979 4.8252H14.5002C15.9776 4.8252 17.1752 6.02283 17.1752 7.5002V8.70619L20.7743 6.54859C20.7742 6.54863 20.7744 6.54854 20.7743 6.54859C21.3908 6.1789 22.1752 6.62286 22.1752 7.34177V16.6587C22.1752 17.3775 21.3912 17.8216 20.7747 17.4521C20.7746 17.452 20.7748 17.4522 20.7747 17.4521L17.1752 15.2958V18.2206L18.9775 20.0229C19.2411 20.2865 19.2411 20.7139 18.9775 20.9775C18.7139 21.2411 18.2865 21.2411 18.0229 20.9775L1.0229 3.97749C0.759294 3.71389 0.759294 3.2865 1.0229 3.0229ZM15.8252 16.8706V7.5002C15.8252 6.76842 15.232 6.1752 14.5002 6.1752H5.12979L15.8252 16.8706ZM17.1752 13.7221L20.8252 15.9087V8.09207L17.1752 10.2802V13.7221ZM2.5002 7.23145C2.87299 7.23145 3.1752 7.53365 3.1752 7.90645V16.5002C3.1752 17.232 3.76842 17.8252 4.5002 17.8252H13.0939C13.4667 17.8252 13.7689 18.1274 13.7689 18.5002C13.7689 18.873 13.4667 19.1752 13.0939 19.1752H4.5002C3.02283 19.1752 1.8252 17.9776 1.8252 16.5002V7.90645C1.8252 7.53365 2.1274 7.23145 2.5002 7.23145Z" fill="white"/>
</svg>
