<svg width="16" height="16" viewBox="0 0 16 16" fill="none" xmlns="http://www.w3.org/2000/svg">
<path fill-rule="evenodd" clip-rule="evenodd" d="M1.64645 2.64645C1.84171 2.45118 2.15829 2.45118 2.35355 2.64645L3.70711 4H9.50928C10.3411 4 11.014 4.67686 11.0093 5.50865L11.0092 5.51118L11.0081 6.2498L13.233 4.95193C13.573 4.75363 14 4.99884 14 5.39246V10.6076C14 11.0012 13.573 11.2465 13.233 11.0482L11.0027 9.74715L11.0003 11.2932L12.3536 12.6464C12.5488 12.8417 12.5488 13.1583 12.3536 13.3536C12.1583 13.5488 11.8417 13.5488 11.6464 13.3536L1.64645 3.35355C1.45118 3.15829 1.45118 2.84171 1.64645 2.64645ZM10.0019 10.2947L4.70711 5H9.50926C9.78541 5 10.0091 5.22381 10.0093 5.49954L10.0092 5.505L10.0019 10.2947ZM11.0045 8.59049L13 9.75452V6.24557L11.0063 7.40855L11.0045 8.59049Z" fill="white"/>
<path d="M3 5.90625C3 5.63011 2.77614 5.40625 2.5 5.40625C2.22386 5.40625 2 5.63011 2 5.90625V10.5C2 11.3284 2.67157 12 3.5 12H8.09375C8.36989 12 8.59375 11.7761 8.59375 11.5C8.59375 11.2239 8.36989 11 8.09375 11H3.5C3.22386 11 3 10.7761 3 10.5V5.90625Z" fill="white"/>
</svg>
