<svg width="24" height="24" viewBox="0 0 24 24" fill="none" xmlns="http://www.w3.org/2000/svg">
<path d="M1.0229 3.0229C1.2865 2.75929 1.71389 2.75929 1.97749 3.0229L3.95479 5.0002H15.0042C16.1087 5.0002 17.0002 5.89563 17.0002 7.0002V18.0456L18.9775 20.0229C19.2411 20.2865 19.2411 20.7139 18.9775 20.9775C18.7139 21.2411 18.2865 21.2411 18.0229 20.9775L1.0229 3.97749C0.759294 3.71389 0.759294 3.2865 1.0229 3.0229Z" fill="white"/>
<path d="M18.3502 15.244C18.3502 15.5953 18.5345 15.9208 18.8357 16.1015L20.8643 17.3187C21.3642 17.6186 22.0002 17.2585 22.0002 16.6755V7.32484C22.0002 6.74186 21.3642 6.38179 20.8643 6.68171L18.8357 7.89886C18.5345 8.07959 18.3502 8.40509 18.3502 8.75636V15.244Z" fill="white"/>
<path d="M14.5456 19.0002L2.00068 6.44117L2.00021 17.0001C2.00016 18.1048 2.89156 19.0002 3.99617 19.0002L14.5456 19.0002Z" fill="white"/>
</svg>
