<svg width="24" height="24" viewBox="0 0 24 24" fill="none" xmlns="http://www.w3.org/2000/svg">
<path fill-rule="evenodd" clip-rule="evenodd" d="M8.5 4L5.5 4C4.67163 4 4 4.67157 4 5.5V18.5C4 19.3284 4.67163 20 5.5 20H18.5C19.3284 20 20 19.3284 20 18.5V8.175H11.5C10.575 8.175 9.82495 7.42508 9.82495 6.5V5.325C9.82495 4.59322 9.23169 4 8.5 4ZM12 9.825C12.3728 9.825 12.675 10.1272 12.675 10.5V13.325H15.5C15.8728 13.325 16.175 13.6272 16.175 14C16.175 14.3728 15.8728 14.675 15.5 14.675H12.675V17.5C12.675 17.8728 12.3728 18.175 12 18.175C11.6272 18.175 11.325 17.8728 11.325 17.5V14.675H8.5C8.1272 14.675 7.82495 14.3728 7.82495 14C7.82495 13.6272 8.1272 13.325 8.5 13.325H11.325V10.5C11.325 10.1272 11.6272 9.825 12 9.825Z" fill="white"/>
<path d="M20 6.825V5.5C20 4.67157 19.3284 4 18.5 4H15.9578C16.1809 4.39062 16.3083 4.84292 16.3083 5.325V6.825H20Z" fill="white"/>
<path d="M13.6333 4L10.8245 4C11.0476 4.39062 11.175 4.84292 11.175 5.325V6.5C11.175 6.67949 11.3206 6.825 11.5 6.825H14.9583V5.325C14.9583 4.59322 14.365 4 13.6333 4Z" fill="white"/>
</svg>
