<svg width="16" height="16" viewBox="0 0 16 16" fill="none" xmlns="http://www.w3.org/2000/svg">
<path fill-rule="evenodd" clip-rule="evenodd" d="M5.1499 3H3.8999C3.40283 3 3 3.40294 3 3.89999V12.1C3 12.5971 3.40283 13 3.8999 13H12.1001C12.5972 13 13 12.5971 13 12.1V5H6.54004C6.2417 5 6 4.75823 6 4.46V3.85C6 3.38056 5.61938 3 5.1499 3ZM8 6.5C8.27612 6.5 8.5 6.72386 8.5 7V8.5H10C10.2761 8.5 10.5 8.72386 10.5 9C10.5 9.27614 10.2761 9.5 10 9.5H8.5V11C8.5 11.2761 8.27612 11.5 8 11.5C7.72388 11.5 7.5 11.2761 7.5 11V9.5H6C5.72388 9.5 5.5 9.27614 5.5 9C5.5 8.72386 5.72388 8.5 6 8.5H7.5V7C7.5 6.72386 7.72388 6.5 8 6.5Z" fill="white"/>
<path d="M13 4V3.89999C13 3.40294 12.5972 3 12.1001 3H10.2937C10.4255 3.25451 10.5 3.54355 10.5 3.85V4H13Z" fill="white"/>
<path d="M8.6499 3H6.7937C6.92554 3.25451 7 3.54355 7 3.85V4H9.5V3.85C9.5 3.38056 9.11938 3 8.6499 3Z" fill="white"/>
</svg>
