<svg width="24" height="24" viewBox="0 0 24 24" fill="none" xmlns="http://www.w3.org/2000/svg">
<path fill-rule="evenodd" clip-rule="evenodd" d="M3.825 5.49995C3.825 4.57487 4.57492 3.82495 5.5 3.82495H18.5C19.4251 3.82495 20.175 4.57487 20.175 5.49995V18.5C20.175 19.425 19.4251 20.175 18.5 20.175H5.5C4.57492 20.175 3.825 19.425 3.825 18.5V5.49995ZM15.1435 5.17495H18.5C18.6795 5.17495 18.825 5.32046 18.825 5.49995V6.82495H15.175V5.49995C15.175 5.38875 15.1642 5.28009 15.1435 5.17495ZM13.825 6.82495V5.49995C13.825 5.32046 13.6795 5.17495 13.5 5.17495H10.1435C10.1642 5.28009 10.175 5.38875 10.175 5.49995V6.74995C10.175 6.79137 10.2086 6.82495 10.25 6.82495H13.825ZM18.825 8.17495H10.25C9.46299 8.17495 8.825 7.53696 8.825 6.74995V5.49995C8.825 5.32046 8.67949 5.17495 8.5 5.17495H5.5C5.3205 5.17495 5.175 5.32046 5.175 5.49995V18.5C5.175 18.6794 5.3205 18.825 5.5 18.825H18.5C18.6795 18.825 18.825 18.6794 18.825 18.5V8.17495ZM12 9.32495C12.3728 9.32495 12.675 9.62716 12.675 9.99995V12.825H15.5C15.8728 12.825 16.175 13.1272 16.175 13.5C16.175 13.8727 15.8728 14.175 15.5 14.175H12.675V17C12.675 17.3727 12.3728 17.675 12 17.675C11.6272 17.675 11.325 17.3727 11.325 17V14.175H8.5C8.1272 14.175 7.825 13.8727 7.825 13.5C7.825 13.1272 8.1272 12.825 8.5 12.825H11.325V9.99995C11.325 9.62716 11.6272 9.32495 12 9.32495Z" fill="white"/>
</svg>
