<svg width="16" height="16" viewBox="0 0 16 16" fill="none" xmlns="http://www.w3.org/2000/svg">
<path fill-rule="evenodd" clip-rule="evenodd" d="M2.5 3.4C2.5 2.90294 2.90294 2.5 3.4 2.5H12.6C13.0971 2.5 13.5 2.90294 13.5 3.4V12.6C13.5 13.0971 13.0971 13.5 12.6 13.5H3.4C2.90294 13.5 2.5 13.0971 2.5 12.6V3.4ZM10.5 3.5H12.5V4.5H10.5V3.5ZM9.5 4.5V3.5H7.5L7.5 4.5H9.5ZM12.5 5.5H7.4C6.90294 5.5 6.5 5.09705 6.5 4.6L6.5 3.5H3.5V12.5H12.5V5.5ZM8 6.5C8.27614 6.5 8.5 6.72386 8.5 7V8.5H10C10.2761 8.5 10.5 8.72386 10.5 9C10.5 9.27614 10.2761 9.5 10 9.5H8.5V11C8.5 11.2761 8.27614 11.5 8 11.5C7.72386 11.5 7.5 11.2761 7.5 11V9.5H6C5.72386 9.5 5.5 9.27614 5.5 9C5.5 8.72386 5.72386 8.5 6 8.5H7.5V7C7.5 6.72386 7.72386 6.5 8 6.5Z" fill="white"/>
</svg>
