<svg width="24" height="24" viewBox="0 0 24 24" fill="none" xmlns="http://www.w3.org/2000/svg">
<path fill-rule="evenodd" clip-rule="evenodd" d="M3.49995 21.1752C2.57487 21.1752 1.82495 20.4253 1.82495 19.5002V9.50019C1.82495 8.57512 2.57488 7.82519 3.49995 7.82519H5.82495V4.50019C5.82495 3.57512 6.57488 2.8252 7.49995 2.8252H20.5C21.425 2.8252 22.1749 3.57512 22.1749 4.50019V14.5002C22.1749 15.4253 21.425 16.1752 20.5 16.1752H18.175V19.5002C18.175 20.4253 17.425 21.1752 16.5 21.1752H3.49995ZM5.82495 14.5002V9.17519H3.49995C3.32046 9.17519 3.17495 9.3207 3.17495 9.50019V19.5002C3.17495 19.6797 3.32046 19.8252 3.49995 19.8252H16.5C16.6794 19.8252 16.825 19.6797 16.825 19.5002V16.1752H7.49995C6.57487 16.1752 5.82495 15.4253 5.82495 14.5002ZM6.99994 9.1751H9.99994V7.8251H6.99994V9.1751ZM10.9999 9.1751H13.9999V7.8251H10.9999V9.1751ZM14.9999 9.1751H16.4999C16.6794 9.1751 16.8249 9.32061 16.8249 9.5001V11.0001H18.1749V9.5001C18.1749 8.57502 17.425 7.8251 16.4999 7.8251H14.9999V9.1751ZM16.8249 12.0001V15.0001H18.1749V12.0001H16.8249Z" fill="white"/>
</svg>
