<svg width="20" height="20" viewBox="0 0 20 20" fill="none" xmlns="http://www.w3.org/2000/svg">
<path fill-rule="evenodd" clip-rule="evenodd" d="M6.29995 2.4502C5.55437 2.4502 4.94995 3.05461 4.94995 3.8002V6.4502H2.79995C2.05437 6.4502 1.44995 7.05461 1.44995 7.8002V16.2002C1.44995 16.9458 2.05437 17.5502 2.79995 17.5502H13.7C14.4455 17.5502 15.05 16.9458 15.05 16.2002V13.5502H17.2C17.9455 13.5502 18.5499 12.9458 18.5499 12.2002V3.8002C18.5499 3.05461 17.9455 2.4502 17.2 2.4502H6.29995ZM2.79995 7.5502H4.94995V12.2002C4.94995 12.9458 5.55437 13.5502 6.29995 13.5502H13.95V16.2002C13.95 16.3383 13.838 16.4502 13.7 16.4502H2.79995C2.66188 16.4502 2.54995 16.3383 2.54995 16.2002V7.8002C2.54995 7.66212 2.66188 7.5502 2.79995 7.5502ZM5.99994 7.55021L8.11766 7.5502V6.4502L5.99994 6.45021V7.55021ZM9.05516 7.5502L11.1562 7.55021V6.45021L9.05516 6.4502V7.5502ZM12.0937 7.55021H13.4999C13.7485 7.55021 13.9499 7.75168 13.9499 8.00021V9.42767H15.0499V8.00021C15.0499 7.14417 14.356 6.45021 13.4999 6.45021H12.0937V7.55021ZM13.9499 10.4035V12.5002H15.0499V10.4035H13.9499Z" fill="white"/>
</svg>
