<svg width="16" height="16" viewBox="0 0 16 16" fill="none" xmlns="http://www.w3.org/2000/svg">
<path d="M8.51572 1.64645C8.42195 1.55268 8.29477 1.5 8.16216 1.5C8.02955 1.5 7.90238 1.55268 7.80861 1.64645L4.59456 4.86049L11.1395 11.4054L14.3536 8.19139C14.5488 7.99613 14.5488 7.67955 14.3536 7.48428L13.0855 6.2162L10.8017 8.5C10.6064 8.69526 10.2898 8.69526 10.0946 8.5C9.89932 8.30474 9.89932 7.98816 10.0946 7.79289L12.3784 5.50909L11.5764 4.70711L10.4953 5.78819C10.3001 5.98346 9.98347 5.98346 9.7882 5.7882C9.59294 5.59294 9.59294 5.27635 9.7882 5.08109L10.8693 4L8.51572 1.64645Z" fill="white"/>
<path fill-rule="evenodd" clip-rule="evenodd" d="M10.4324 12.1125L3.88746 5.5676L3.88655 5.5685C3.17059 6.28446 3.17059 7.44527 3.88655 8.16123L4.77327 9.04794L2.50733 10.4899C1.87993 10.8892 1.5 11.5813 1.5 12.3249C1.5 13.5262 2.47381 14.5 3.67507 14.5C4.41873 14.5 5.11084 14.1201 5.5101 13.4927L6.95206 11.2267L7.83877 12.1134C8.55473 12.8294 9.71554 12.8294 10.4315 12.1134L10.4324 12.1125ZM4.14999 12.35C4.14999 12.6261 3.92614 12.85 3.64999 12.85C3.37385 12.85 3.14999 12.6261 3.14999 12.35C3.14999 12.0738 3.37385 11.85 3.64999 11.85C3.92614 11.85 4.14999 12.0738 4.14999 12.35Z" fill="white"/>
</svg>
