<svg width="24" height="24" viewBox="0 0 24 24" fill="none" xmlns="http://www.w3.org/2000/svg">
<path d="M5.50024 19.2502C5.91446 19.2502 6.25024 18.9145 6.25024 18.5002C6.25024 18.086 5.91446 17.7502 5.50024 17.7502C5.08603 17.7502 4.75024 18.086 4.75024 18.5002C4.75024 18.9145 5.08603 19.2502 5.50024 19.2502Z" fill="white"/>
<path fill-rule="evenodd" clip-rule="evenodd" d="M12.9775 2.0229C12.7139 1.75929 12.2865 1.75929 12.0229 2.0229L5.93711 8.10868C4.89246 9.15334 4.89246 10.8471 5.93711 11.8917L7.42789 13.3825L3.83378 15.6696C2.89419 16.2676 2.3252 17.3041 2.3252 18.4178C2.3252 20.2168 3.78358 21.6752 5.5826 21.6752C6.6963 21.6752 7.73282 21.1062 8.33074 20.1666L10.6179 16.5725L12.1087 18.0633C13.1533 19.1079 14.8471 19.1079 15.8917 18.0633L21.9775 11.9775C22.2411 11.7139 22.2411 11.2865 21.9775 11.0229L12.9775 2.0229ZM16.0002 16.0456L7.95479 8.0002L12.5002 3.45479L16.0456 7.0002L15.0229 8.0229C14.7593 8.2865 14.7593 8.71389 15.0229 8.97749C15.2865 9.2411 15.7139 9.2411 15.9775 8.97749L17.0002 7.95479L18.0456 9.0002L15.0229 12.0229C14.7593 12.2865 14.7593 12.7139 15.0229 12.9775C15.2865 13.2411 15.7139 13.2411 15.9775 12.9775L19.0002 9.95479L20.5456 11.5002L16.0002 16.0456ZM7.0002 8.95479L15.0456 17.0002L14.9371 17.1087C14.4197 17.6261 13.5807 17.6261 13.0633 17.1087L10.9775 15.0229C10.8327 14.8781 10.6301 14.8069 10.4265 14.8292C10.223 14.8516 10.0406 14.9651 9.93072 15.1378L7.1918 19.4418C6.84168 19.992 6.23474 20.3252 5.5826 20.3252C4.52917 20.3252 3.6752 19.4712 3.6752 18.4178C3.6752 17.7657 4.00837 17.1587 4.55856 16.8086L8.86259 14.0697C9.03532 13.9597 9.14882 13.7774 9.17117 13.5738C9.19351 13.3703 9.12227 13.1677 8.97749 13.0229L6.89171 10.9371C6.37426 10.4197 6.37426 9.58072 6.89171 9.06328L7.0002 8.95479Z" fill="white"/>
</svg>
