<svg width="24" height="24" viewBox="0 0 24 24" fill="none" xmlns="http://www.w3.org/2000/svg">
<path d="M12.8536 2.14645C12.6583 1.95118 12.3417 1.95118 12.1464 2.14645L7.12377 7.16913L16.8309 16.8762L21.8536 11.8536C22.0488 11.6583 22.0488 11.3417 21.8536 11.1464L19.8308 9.12372L16.4546 12.4999C16.191 12.7636 15.7636 12.7636 15.5 12.4999C15.2364 12.2363 15.2364 11.809 15.5 11.5454L18.8762 8.16912L17.8308 7.12372L16.4545 8.5C16.1909 8.7636 15.7636 8.7636 15.4999 8.5C15.2363 8.2364 15.2363 7.80901 15.4999 7.54541L16.8762 6.16912L12.8536 2.14645Z" fill="white"/>
<path fill-rule="evenodd" clip-rule="evenodd" d="M15.8763 17.8308L6.16917 8.12372L6.06066 8.23223C5.08435 9.20854 5.08435 10.7915 6.06066 11.7678L7.7057 13.4128L3.92754 15.8171C3.03842 16.3829 2.5 17.3637 2.5 18.4176C2.5 20.12 3.88004 21.5 5.5824 21.5C6.63628 21.5 7.61711 20.9616 8.1829 20.0725L10.5872 16.2943L12.2322 17.9393C13.2085 18.9157 14.7915 18.9156 15.7678 17.9393L15.8763 17.8308ZM6.25 18.5C6.25 18.9142 5.91421 19.25 5.5 19.25C5.08578 19.25 4.75 18.9142 4.75 18.5C4.75 18.0857 5.08578 17.75 5.5 17.75C5.91421 17.75 6.25 18.0857 6.25 18.5Z" fill="white"/>
</svg>
