<svg width="16" height="16" viewBox="0 0 16 16" fill="none" xmlns="http://www.w3.org/2000/svg">
<path d="M3.65002 12.85C3.92617 12.85 4.15002 12.6261 4.15002 12.35C4.15002 12.0738 3.92617 11.85 3.65002 11.85C3.37388 11.85 3.15002 12.0738 3.15002 12.35C3.15002 12.6261 3.37388 12.85 3.65002 12.85Z" fill="white"/>
<path fill-rule="evenodd" clip-rule="evenodd" d="M8.51572 1.64645C8.42195 1.55268 8.29477 1.5 8.16216 1.5C8.02955 1.5 7.90238 1.55268 7.80861 1.64645L4.0044 5.45065C3.22336 6.2317 3.22336 7.49803 4.0044 8.27908L4.77327 9.04794L2.50733 10.4899C1.87993 10.8892 1.5 11.5813 1.5 12.3249C1.5 13.5262 2.47381 14.5 3.67507 14.5C4.41873 14.5 5.11084 14.1201 5.5101 13.4927L6.95206 11.2267L7.72092 11.9956C8.50197 12.7766 9.7683 12.7766 10.5493 11.9956L14.3536 8.19139C14.5488 7.99613 14.5488 7.67955 14.3536 7.48428L8.51572 1.64645ZM10.4324 10.6983L5.3017 5.56757L8.16216 2.70711L10.374 4.91892L9.75455 5.53834C9.55929 5.7336 9.55929 6.05018 9.75455 6.24545C9.94982 6.44071 10.2664 6.44071 10.4617 6.24545L11.0811 5.62603L11.6713 6.21622L9.75455 8.13293C9.55929 8.3282 9.55929 8.64478 9.75455 8.84004C9.94982 9.0353 10.2664 9.0353 10.4617 8.84004L12.3784 6.92332L13.2929 7.83784L10.4324 10.6983ZM4.60422 6.2843L9.71571 11.3958C9.3251 11.675 8.77873 11.6392 8.42803 11.2885L7.21842 10.0789C7.11118 9.97164 6.96106 9.91887 6.81031 9.93542C6.65955 9.95197 6.52446 10.036 6.44303 10.164L4.66643 12.9558C4.45074 13.2947 4.07683 13.5 3.67507 13.5C3.0261 13.5 2.5 12.9739 2.5 12.3249C2.5 11.9232 2.70526 11.5493 3.0442 11.3336L5.83601 9.55697C5.96395 9.47554 6.04803 9.34045 6.06458 9.18969C6.08113 9.03894 6.02836 8.88882 5.92112 8.78158L4.71151 7.57197C4.36081 7.22127 4.32505 6.6749 4.60422 6.2843Z" fill="white"/>
</svg>
