<svg width="24" height="24" viewBox="0 0 24 24" fill="none" xmlns="http://www.w3.org/2000/svg">
<path fill-rule="evenodd" clip-rule="evenodd" d="M1.82495 5.49995C1.82495 4.57487 2.57487 3.82495 3.49995 3.82495H20.5C21.425 3.82495 22.1749 4.57487 22.1749 5.49995V18.5C22.1749 19.425 21.425 20.175 20.5 20.175H3.49995C2.57487 20.175 1.82495 19.425 1.82495 18.5V5.49995ZM3.49995 5.17495C3.32046 5.17495 3.17495 5.32046 3.17495 5.49995V15.325H13.825V5.17495H3.49995ZM15.175 5.17495V15.325H20.825V5.49995C20.825 5.32046 20.6794 5.17495 20.5 5.17495H15.175ZM20.825 16.675H3.17495V18.5C3.17495 18.6794 3.32046 18.825 3.49995 18.825H20.5C20.6794 18.825 20.825 18.6794 20.825 18.5V16.675ZM16.325 7.49995C16.325 7.12716 16.6272 6.82495 17 6.82495H19C19.3727 6.82495 19.6749 7.12716 19.6749 7.49995C19.6749 7.87274 19.3727 8.17495 19 8.17495H17C16.6272 8.17495 16.325 7.87274 16.325 7.49995ZM16.325 9.99995C16.325 9.62716 16.6272 9.32495 17 9.32495H19C19.3727 9.32495 19.6749 9.62716 19.6749 9.99995C19.6749 10.3727 19.3727 10.675 19 10.675H17C16.6272 10.675 16.325 10.3727 16.325 9.99995ZM16.325 12.5C16.325 12.1272 16.6272 11.825 17 11.825H19C19.3727 11.825 19.6749 12.1272 19.6749 12.5C19.6749 12.8727 19.3727 13.175 19 13.175H17C16.6272 13.175 16.325 12.8727 16.325 12.5Z" fill="white"/>
</svg>
