<svg width="16" height="16" viewBox="0 0 16 16" fill="none" xmlns="http://www.w3.org/2000/svg">
<path fill-rule="evenodd" clip-rule="evenodd" d="M1.5 3.40001C1.49999 2.90295 1.90294 2.5 2.4 2.5H13.6C14.0971 2.5 14.5 2.90294 14.5 3.39999L14.5 12.6C14.5 13.0971 14.0971 13.5 13.6 13.5H2.40001C1.90294 13.5 1.49999 13.097 1.50001 12.6L1.5 3.40001ZM2.50007 11L2.50001 12.5H13.5L13.5001 11H2.50007ZM2.50008 10H8.99999L8.99991 3.5H2.5L2.50008 10ZM9.99991 3.5L9.99999 10H13.5001L13.5 3.5H9.99991ZM10.5789 5C10.5789 4.72386 10.8028 4.5 11.0789 4.5H12.421C12.6972 4.5 12.921 4.72386 12.921 5C12.921 5.27614 12.6972 5.5 12.421 5.5H11.0789C10.8028 5.5 10.5789 5.27614 10.5789 5ZM10.5789 6.66667C10.5789 6.39052 10.8028 6.16667 11.0789 6.16667H12.421C12.6972 6.16667 12.921 6.39052 12.921 6.66667C12.921 6.94281 12.6972 7.16667 12.421 7.16667H11.0789C10.8028 7.16667 10.5789 6.94281 10.5789 6.66667ZM10.5789 8.33333C10.5789 8.05719 10.8028 7.83333 11.0789 7.83333H12.421C12.6972 7.83333 12.921 8.05719 12.921 8.33333C12.921 8.60948 12.6972 8.83333 12.421 8.83333H11.0789C10.8028 8.83333 10.5789 8.60948 10.5789 8.33333Z" fill="white"/>
</svg>
