<svg width="16" height="16" viewBox="0 0 16 16" fill="none" xmlns="http://www.w3.org/2000/svg">
<path d="M9 3H2.8999C2.40283 3 2 3.40295 2 3.90002V10H9V3Z" fill="white"/>
<path fill-rule="evenodd" clip-rule="evenodd" d="M14 3.90002V10H10V3H13.1001C13.5972 3 14 3.40295 14 3.90002ZM11.1 5C11.1 4.77909 11.2791 4.6 11.5 4.6H12.5C12.7209 4.6 12.9 4.77909 12.9 5C12.9 5.22091 12.7209 5.4 12.5 5.4H11.5C11.2791 5.4 11.1 5.22091 11.1 5ZM11.1 6.5C11.1 6.27909 11.2791 6.1 11.5 6.1H12.5C12.7209 6.1 12.9 6.27909 12.9 6.5C12.9 6.72091 12.7209 6.9 12.5 6.9H11.5C11.2791 6.9 11.1 6.72091 11.1 6.5ZM11.1 8C11.1 7.77909 11.2791 7.6 11.5 7.6H12.5C12.7209 7.6 12.9 7.77909 12.9 8C12.9 8.22091 12.7209 8.4 12.5 8.4H11.5C11.2791 8.4 11.1 8.22091 11.1 8Z" fill="white"/>
<path d="M2 11V12.1C2 12.597 2.40283 13 2.8999 13H13.1001C13.5972 13 14 12.597 14 12.1V11H2Z" fill="white"/>
</svg>
