<svg width="20" height="20" viewBox="0 0 20 20" fill="none" xmlns="http://www.w3.org/2000/svg">
<path d="M11.45 3.3335H2.91699C2.22668 3.3335 1.66699 3.89314 1.66699 4.5835V12.9501H11.45L11.45 3.3335Z" fill="white"/>
<path d="M1.66699 14.0501V15.4168C1.66699 16.1072 2.22668 16.6668 2.91699 16.6668H17.0837C17.774 16.6668 18.3337 16.1072 18.3337 15.4168V14.0501H1.66699Z" fill="white"/>
<path fill-rule="evenodd" clip-rule="evenodd" d="M18.3337 4.5835V12.9501H12.55L12.55 3.3335H17.0837C17.774 3.3335 18.3337 3.89314 18.3337 4.5835ZM14.0215 6.00012C14.0215 5.68946 14.2733 5.43762 14.584 5.43762H16.2507C16.5613 5.43762 16.8132 5.68946 16.8132 6.00012C16.8132 6.31078 16.5613 6.56262 16.2507 6.56262H14.584C14.2733 6.56262 14.0215 6.31078 14.0215 6.00012ZM14.584 7.52096C14.2733 7.52096 14.0215 7.7728 14.0215 8.08346C14.0215 8.39412 14.2733 8.64596 14.584 8.64596H16.2507C16.5613 8.64596 16.8132 8.39412 16.8132 8.08346C16.8132 7.7728 16.5613 7.52096 16.2507 7.52096H14.584ZM14.584 9.60429C14.2733 9.60429 14.0215 9.85613 14.0215 10.1668C14.0215 10.4774 14.2733 10.7293 14.584 10.7293H16.2507C16.5613 10.7293 16.8132 10.4774 16.8132 10.1668C16.8132 9.85613 16.5613 9.60429 16.2507 9.60429H14.584Z" fill="white"/>
</svg>
