<svg width="24" height="24" viewBox="0 0 24 24" fill="none" xmlns="http://www.w3.org/2000/svg">
<path d="M13.825 4H3.5C2.67163 4 2 4.67157 2 5.5V15.325H13.825V4Z" fill="white"/>
<path fill-rule="evenodd" clip-rule="evenodd" d="M22 5.5V15.325H15.175V4H20.5C21.3284 4 22 4.67157 22 5.5ZM16.825 7.5C16.825 7.12721 17.1272 6.825 17.5 6.825H19.5C19.8727 6.825 20.175 7.12721 20.175 7.5C20.175 7.87279 19.8727 8.175 19.5 8.175H17.5C17.1272 8.175 16.825 7.87279 16.825 7.5ZM17.5 9.325C17.1272 9.325 16.825 9.62721 16.825 10C16.825 10.3728 17.1272 10.675 17.5 10.675H19.5C19.8727 10.675 20.175 10.3728 20.175 10C20.175 9.62721 19.8727 9.325 19.5 9.325H17.5ZM16.825 12.5C16.825 12.1272 17.1272 11.825 17.5 11.825H19.5C19.8727 11.825 20.175 12.1272 20.175 12.5C20.175 12.8728 19.8727 13.175 19.5 13.175H17.5C17.1272 13.175 16.825 12.8728 16.825 12.5Z" fill="white"/>
<path d="M2 16.6749V18.5C2 19.3284 2.67163 20 3.5 20H20.5C21.3284 20 22 19.3284 22 18.5V16.6749H2Z" fill="white"/>
</svg>
