<svg width="20" height="20" viewBox="0 0 20 20" fill="none" xmlns="http://www.w3.org/2000/svg">
<path fill-rule="evenodd" clip-rule="evenodd" d="M1.4502 4.29995C1.4502 3.55437 2.05461 2.94995 2.8002 2.94995H17.2002C17.9458 2.94995 18.5502 3.55437 18.5502 4.29995V15.7C18.5502 16.4455 17.9458 17.05 17.2002 17.05H2.8002C2.05461 17.05 1.4502 16.4455 1.4502 15.7V4.29995ZM2.8002 4.04995C2.66212 4.04995 2.5502 4.16188 2.5502 4.29995V12.7833H11.4502V4.04995H2.8002ZM12.5502 4.04995V12.7833H17.4502V4.29995C17.4502 4.16188 17.3383 4.04995 17.2002 4.04995H12.5502ZM17.4502 13.8833H2.5502V15.7C2.5502 15.838 2.66212 15.95 2.8002 15.95H17.2002C17.3383 15.95 17.4502 15.838 17.4502 15.7V13.8833ZM13.4502 5.99995C13.4502 5.69619 13.6964 5.44995 14.0002 5.44995H16.0002C16.304 5.44995 16.5502 5.69619 16.5502 5.99995C16.5502 6.30371 16.304 6.54995 16.0002 6.54995H14.0002C13.6964 6.54995 13.4502 6.30371 13.4502 5.99995ZM13.4502 7.99995C13.4502 7.69619 13.6964 7.44995 14.0002 7.44995H16.0002C16.304 7.44995 16.5502 7.69619 16.5502 7.99995C16.5502 8.30371 16.304 8.54995 16.0002 8.54995H14.0002C13.6964 8.54995 13.4502 8.30371 13.4502 7.99995ZM13.4502 9.99995C13.4502 9.69619 13.6964 9.44995 14.0002 9.44995H16.0002C16.304 9.44995 16.5502 9.69619 16.5502 9.99995C16.5502 10.3037 16.304 10.55 16.0002 10.55H14.0002C13.6964 10.55 13.4502 10.3037 13.4502 9.99995Z" fill="white"/>
</svg>
