<svg width="24" height="24" viewBox="0 0 24 24" fill="none" xmlns="http://www.w3.org/2000/svg">
<path d="M14.1752 2.5002C14.1752 2.1274 13.873 1.8252 13.5002 1.8252C13.1275 1.8252 12.8252 2.1274 12.8252 2.5002V5.5002C12.8252 5.87299 13.1275 6.1752 13.5002 6.1752C13.873 6.1752 14.1752 5.87299 14.1752 5.5002V2.5002Z" fill="white"/>
<path fill-rule="evenodd" clip-rule="evenodd" d="M10.0266 5.07197C9.42234 4.4677 8.39563 4.69009 8.09557 5.49025L3.14069 18.7033C2.63575 20.0498 3.95066 21.3647 5.29717 20.8597L18.5102 15.9049C19.3103 15.6048 19.5327 14.5781 18.9285 13.9738L10.0266 5.07197ZM17.7817 14.7362L9.26419 6.21874L8.01215 9.55751L14.4429 15.9883L17.7817 14.7362ZM6.23942 14.2848L7.49146 10.946L13.0544 16.509L9.71566 17.761L6.23942 14.2848ZM5.71874 15.6733L8.32716 18.2817L4.82316 19.5957C4.5619 19.6937 4.30676 19.4385 4.40474 19.1773L5.71874 15.6733Z" fill="white"/>
<path d="M19.5002 7.8252C19.1275 7.8252 18.8252 8.1274 18.8252 8.5002C18.8252 8.87299 19.1275 9.1752 19.5002 9.1752H22.5002C22.873 9.1752 23.1752 8.87299 23.1752 8.5002C23.1752 8.1274 22.873 7.8252 22.5002 7.8252H19.5002Z" fill="white"/>
<path d="M19.4775 10.5229C19.2139 10.2593 18.7866 10.2593 18.5229 10.5229C18.2593 10.7865 18.2593 11.2139 18.5229 11.4775L20.5229 13.4775C20.7865 13.7411 21.2139 13.7411 21.4775 13.4775C21.7411 13.2139 21.7411 12.7865 21.4775 12.5229L19.4775 10.5229Z" fill="white"/>
<path d="M20.5002 2.8252C20.873 2.8252 21.1752 3.1274 21.1752 3.5002C21.1714 5.31742 19.7822 6.6752 18.0002 6.6752C16.9384 6.6752 16.1934 7.42076 16.1752 8.50377C16.1733 8.87492 15.8718 9.17519 15.5002 9.1752C15.1274 9.1752 14.8252 8.87299 14.8252 8.5002C14.8289 6.68298 16.2181 5.3252 18.0002 5.3252C19.0621 5.3252 19.8068 4.57962 19.8252 3.49661C19.8271 3.12547 20.1286 2.8252 20.5002 2.8252Z" fill="white"/>
</svg>
