<svg width="16" height="16" viewBox="0 0 16 16" fill="none" xmlns="http://www.w3.org/2000/svg">
<path d="M8.99982 1.16699C9.27596 1.16699 9.49982 1.39085 9.49982 1.66699V3.66699C9.49982 3.94313 9.27596 4.16699 8.99982 4.16699C8.72368 4.16699 8.49982 3.94313 8.49982 3.66699V1.66699C8.49982 1.39085 8.72368 1.16699 8.99982 1.16699Z" fill="white"/>
<path d="M5.34989 3.6428C5.5627 3.07532 6.29086 2.91759 6.71942 3.34615L12.654 9.28073C13.0826 9.70929 12.9248 10.4375 12.3573 10.6503L10.4176 11.3777L4.62248 5.58255L5.34989 3.6428Z" fill="white"/>
<path d="M9.38907 11.7634L4.23679 6.61107L3.44067 8.73407L7.26608 12.5595L9.38907 11.7634Z" fill="white"/>
<path d="M3.05497 9.76259L6.23756 12.9452L3.54866 13.9535C2.6108 14.3052 1.69493 13.3893 2.04664 12.4515L3.05497 9.76259Z" fill="white"/>
<path d="M12.9998 5.16699C12.7237 5.16699 12.4998 5.39085 12.4998 5.66699C12.4998 5.94313 12.7237 6.16699 12.9998 6.16699H14.9998C15.276 6.16699 15.4998 5.94313 15.4998 5.66699C15.4998 5.39085 15.276 5.16699 14.9998 5.16699H12.9998Z" fill="white"/>
<path d="M12.3129 6.98011C12.5082 6.78484 12.8248 6.78484 13.02 6.98011L14.3534 8.31344C14.5486 8.5087 14.5486 8.82528 14.3534 9.02055C14.1581 9.21581 13.8415 9.21581 13.6463 9.02055L12.3129 7.68721C12.1177 7.49195 12.1177 7.17537 12.3129 6.98011Z" fill="white"/>
<path d="M14.1665 2.33362C14.1665 2.05748 13.9426 1.83362 13.6665 1.83362C13.3914 1.83362 13.1681 2.05614 13.1665 2.33086C13.1466 3.02552 12.6853 3.50028 11.9998 3.50028C10.7726 3.50028 9.8571 4.42863 9.83313 5.66695C9.83313 5.94309 10.057 6.16695 10.3331 6.16695C10.6082 6.16695 10.8315 5.94443 10.8331 5.66971C10.8532 4.97506 11.3142 4.50028 11.9998 4.50028C13.227 4.50028 14.1425 3.57194 14.1665 2.33362Z" fill="white"/>
</svg>
