<svg width="24" height="24" viewBox="0 0 24 24" fill="none" xmlns="http://www.w3.org/2000/svg">
<path d="M13.5002 1.8252C13.873 1.8252 14.1752 2.1274 14.1752 2.5002V5.5002C14.1752 5.87299 13.873 6.1752 13.5002 6.1752C13.1275 6.1752 12.8252 5.87299 12.8252 5.5002V2.5002C12.8252 2.1274 13.1275 1.8252 13.5002 1.8252Z" fill="white"/>
<path d="M8.09557 5.49025C8.39563 4.6901 9.42234 4.4677 10.0266 5.07197L18.9285 13.9738C19.5327 14.5781 19.3103 15.6048 18.5102 15.9049L15.4915 17.0369L6.96357 8.50892L8.09557 5.49025Z" fill="white"/>
<path d="M14.103 17.5576L6.44288 9.89742L5.19084 13.2362L10.7642 18.8096L14.103 17.5576Z" fill="white"/>
<path d="M4.67016 14.6247L9.37575 19.3303L5.29717 20.8597C3.95066 21.3647 2.63575 20.0498 3.14069 18.7033L4.67016 14.6247Z" fill="white"/>
<path d="M19.5002 7.8252C19.1275 7.8252 18.8252 8.1274 18.8252 8.5002C18.8252 8.87299 19.1275 9.1752 19.5002 9.1752H22.5002C22.873 9.1752 23.1752 8.87299 23.1752 8.5002C23.1752 8.1274 22.873 7.8252 22.5002 7.8252H19.5002Z" fill="white"/>
<path d="M18.5229 10.5229C18.7865 10.2593 19.2139 10.2593 19.4775 10.5229L21.4775 12.5229C21.7411 12.7865 21.7411 13.2139 21.4775 13.4775C21.2139 13.7411 20.7865 13.7411 20.5229 13.4775L18.5229 11.4775C18.2593 11.2139 18.2593 10.7865 18.5229 10.5229Z" fill="white"/>
<path d="M21.1752 3.5002C21.1752 3.1274 20.873 2.8252 20.5002 2.8252C20.1286 2.8252 19.8272 3.12547 19.8253 3.49661C19.8069 4.57962 19.0621 5.3252 18.0002 5.3252C16.2182 5.3252 14.829 6.68298 14.8253 8.5002C14.8253 8.87299 15.1275 9.1752 15.5003 9.1752C15.8719 9.17519 16.1733 8.87492 16.1752 8.50377C16.1935 7.42076 16.9385 6.6752 18.0002 6.6752C19.7823 6.6752 21.1715 5.31742 21.1752 3.5002Z" fill="white"/>
</svg>
