<svg width="16" height="16" viewBox="0 0 16 16" fill="none" xmlns="http://www.w3.org/2000/svg">
<path d="M9.49982 1.66699C9.49982 1.39085 9.27596 1.16699 8.99982 1.16699C8.72368 1.16699 8.49982 1.39085 8.49982 1.66699V3.66699C8.49982 3.94313 8.72368 4.16699 8.99982 4.16699C9.27596 4.16699 9.49982 3.94313 9.49982 3.66699V1.66699Z" fill="white"/>
<path fill-rule="evenodd" clip-rule="evenodd" d="M6.71942 3.34615C6.29086 2.91759 5.5627 3.07532 5.34989 3.6428L2.04664 12.4515C1.69493 13.3893 2.6108 14.3052 3.54866 13.9535L12.3573 10.6503C12.9248 10.4375 13.0826 9.70929 12.654 9.28073L6.71942 3.34615ZM5.39921 6.35928L6.19534 4.23628L11.7639 9.80481L9.64087 10.6009L5.39921 6.35928ZM5.01352 7.3878L8.61235 10.9866L6.48935 11.7828L4.21739 9.51079L5.01352 7.3878ZM3.8317 10.5393L5.46083 12.1684L3.19754 13.0172C3.06356 13.0674 2.93272 12.9366 2.98296 12.8026L3.8317 10.5393Z" fill="white"/>
<path d="M12.9998 5.16699C12.7237 5.16699 12.4998 5.39085 12.4998 5.66699C12.4998 5.94313 12.7237 6.16699 12.9998 6.16699H14.9998C15.276 6.16699 15.4998 5.94313 15.4998 5.66699C15.4998 5.39085 15.276 5.16699 14.9998 5.16699H12.9998Z" fill="white"/>
<path d="M13.02 6.98011C12.8248 6.78484 12.5082 6.78484 12.3129 6.98011C12.1177 7.17537 12.1177 7.49195 12.3129 7.68721L13.6463 9.02055C13.8415 9.21581 14.1581 9.21581 14.3534 9.02055C14.5486 8.82528 14.5486 8.5087 14.3534 8.31344L13.02 6.98011Z" fill="white"/>
<path d="M13.6666 1.83362C13.9427 1.83362 14.1666 2.05748 14.1666 2.33362C14.1427 3.57194 13.2271 4.50028 11.9999 4.50028C11.3143 4.50028 10.8533 4.97506 10.8332 5.66971C10.8316 5.94443 10.6084 6.16695 10.3333 6.16695C10.0571 6.16695 9.83325 5.94309 9.83325 5.66695C9.85722 4.42863 10.7727 3.50028 11.9999 3.50028C12.6854 3.50028 13.1467 3.02552 13.1666 2.33086C13.1683 2.05614 13.3915 1.83362 13.6666 1.83362Z" fill="white"/>
</svg>
