<svg width="24" height="24" viewBox="0 0 24 24" fill="none" xmlns="http://www.w3.org/2000/svg">
<path fill-rule="evenodd" clip-rule="evenodd" d="M17.1846 3.22985C16.5305 2.57573 15.4699 2.57573 14.8158 3.22985L10.5229 7.52275C10.2593 7.78635 10.2593 8.21374 10.5229 8.47734C10.7865 8.74095 11.2139 8.74095 11.4775 8.47734L15.7704 4.18445C15.8973 4.05753 16.1031 4.05753 16.23 4.18445L16.5456 4.50004L4.73567 16.31C3.52463 17.521 2.69916 19.0634 2.36328 20.7428L2.33831 20.8677C2.29405 21.089 2.36332 21.3178 2.52291 21.4773C2.6825 21.6369 2.91128 21.7062 3.13259 21.6619L3.25742 21.637C4.93682 21.3011 6.47923 20.4756 7.69026 19.2646L20.4775 6.47734C21.2934 5.66145 21.2934 4.33864 20.4775 3.52275C19.6616 2.70686 18.3388 2.70686 17.5229 3.52275L17.5002 3.54545L17.1846 3.22985ZM18.4774 4.47725C18.766 4.18857 19.2341 4.18857 19.5228 4.47725C19.8114 4.76593 19.8114 5.23398 19.5228 5.52266L15.5001 9.54536L14.4546 8.49996L18.4774 4.47725ZM13.5001 9.45455L14.5455 10.5L6.73552 18.3099C5.9468 19.0986 4.99163 19.6936 3.94531 20.0547C4.30636 19.0084 4.9014 18.0532 5.69011 17.2645L13.5001 9.45455Z" fill="white"/>
</svg>
