<svg width="16" height="16" viewBox="0 0 16 16" fill="none" xmlns="http://www.w3.org/2000/svg">
<path fill-rule="evenodd" clip-rule="evenodd" d="M9.67505 2.11783C10.1307 1.66222 10.8694 1.66222 11.325 2.11783L11.5833 2.37621L11.6465 2.31309C12.2099 1.74964 13.1234 1.74964 13.6869 2.31309C14.2503 2.87655 14.2503 3.79008 13.6869 4.35353L5.16207 12.8784C4.34773 13.6927 3.31057 14.2478 2.18129 14.4736L2.09807 14.4903C1.93414 14.5231 1.76467 14.4717 1.64646 14.3535C1.52824 14.2353 1.47693 14.0659 1.50972 13.9019L1.52636 13.8187C1.75222 12.6894 2.30729 11.6523 3.12163 10.8379L10.8762 3.08331L10.6179 2.82494C10.5528 2.75985 10.4472 2.75985 10.3822 2.82494L7.52023 5.68687C7.32497 5.88213 7.00838 5.88213 6.81312 5.68687C6.61786 5.4916 6.61786 5.17502 6.81312 4.97976L9.67505 2.11783ZM12.9798 3.0202C12.8069 2.84727 12.5265 2.84727 12.3536 3.0202L9.70714 5.66663L10.3334 6.29285L12.9798 3.64643C13.1527 3.4735 13.1527 3.19313 12.9798 3.0202ZM9.62626 6.99996L9.00003 6.37373L3.82873 11.545C3.33327 12.0405 2.95363 12.6355 2.71278 13.2872C3.36448 13.0464 3.9595 12.6667 4.45496 12.1713L9.62626 6.99996Z" fill="white"/>
</svg>
