<svg width="16" height="16" viewBox="0 0 16 16" fill="none" xmlns="http://www.w3.org/2000/svg">
<path d="M11.3249 2.11783C10.8693 1.66222 10.1306 1.66222 9.67502 2.11783L6.81309 4.97976C6.61783 5.17502 6.61783 5.4916 6.81309 5.68687C7.00835 5.88213 7.32494 5.88213 7.5202 5.68687L10.3821 2.82494C10.4472 2.75985 10.5527 2.75985 10.6178 2.82494L10.8762 3.08333L9.00004 4.95951L11.0405 6.99995L13.6869 4.35353C14.2503 3.79008 14.2503 2.87655 13.6869 2.31309C13.1234 1.74964 12.2099 1.74964 11.6465 2.31309L11.5833 2.37622L11.3249 2.11783Z" fill="white"/>
<path d="M8.29294 5.66661L10.3334 7.70705L5.16207 12.8784C4.34773 13.6927 3.31057 14.2478 2.18129 14.4736L2.09807 14.4903C1.93414 14.5231 1.76467 14.4717 1.64645 14.3535C1.52824 14.2353 1.47693 14.0659 1.50972 13.9019L1.52636 13.8187C1.75222 12.6894 2.30729 11.6523 3.12163 10.8379L8.29294 5.66661Z" fill="white"/>
</svg>
