<svg width="24" height="24" viewBox="0 0 24 24" fill="none" xmlns="http://www.w3.org/2000/svg">
<path d="M17.8594 3.4906C17.2053 2.83647 16.1447 2.83647 15.4906 3.4906L11.1977 7.78349C10.9341 8.04709 10.9341 8.47448 11.1977 8.73808C11.4613 9.00169 11.8887 9.00169 12.1523 8.73808L16.4452 4.44519C16.5721 4.31827 16.7779 4.31827 16.9048 4.44519L17.2204 4.76079L14.175 7.80617L17.1296 10.7608L21.1523 6.73808C21.9682 5.92219 21.9682 4.59938 21.1523 3.78349C20.3364 2.9676 19.0136 2.9676 18.1977 3.78349L18.175 3.8062L17.8594 3.4906Z" fill="white"/>
<path d="M13.2204 8.76077L16.175 11.7154L8.36507 19.5253C7.15403 20.7364 5.61162 21.5618 3.93222 21.8977L3.80739 21.9227C3.58608 21.9669 3.3573 21.8977 3.19771 21.7381C3.03813 21.5785 2.96886 21.3497 3.01312 21.1284L3.03809 21.0036C3.37397 19.3242 4.19944 17.7818 5.41047 16.5707L13.2204 8.76077Z" fill="white"/>
</svg>
