<svg width="24" height="24" viewBox="0 0 24 24" fill="none" xmlns="http://www.w3.org/2000/svg">
<path fill-rule="evenodd" clip-rule="evenodd" d="M17.8158 3.22985C18.4699 2.57572 19.5305 2.57573 20.1846 3.22985L20.7704 3.81564C21.4245 4.46977 21.4245 5.53032 20.7704 6.18445L6.97751 19.9773C6.91679 20.0381 6.84504 20.0866 6.76611 20.1205L3.26611 21.6205C3.01242 21.7292 2.71809 21.6725 2.52292 21.4773C2.32775 21.2822 2.27107 20.9878 2.37979 20.7341L3.87979 17.2341C3.91362 17.1552 3.9622 17.0835 4.02292 17.0227L17.8158 3.22985ZM19.23 4.18445C19.1031 4.05753 18.8973 4.05753 18.7704 4.18445L17.4548 5.50004L18.5002 6.54545L19.8158 5.22985C19.9427 5.10293 19.9427 4.89716 19.8158 4.77024L19.23 4.18445ZM17.5456 7.50004L16.5002 6.45464L5.06943 17.8854L4.28538 19.7149L6.11484 18.9308L17.5456 7.50004Z" fill="white"/>
</svg>
