<svg width="16" height="16" viewBox="0 0 16 16" fill="none" xmlns="http://www.w3.org/2000/svg">
<path d="M10.2927 3.78296L3.08124 10.9944C3.03882 11.0368 3.00488 11.0869 2.98125 11.1421L2.03814 13.3427C1.96219 13.5199 2.00178 13.7255 2.13813 13.8619C2.27447 13.9982 2.48009 14.0378 2.65732 13.9619L4.85791 13.0187C4.91305 12.9951 4.96318 12.9612 5.0056 12.9188L12.217 5.70732L10.2927 3.78296Z" fill="white"/>
<path d="M12.8839 5.04044L13.6777 4.24663C14.1074 3.81693 14.1074 3.12027 13.6777 2.69058L13.3094 2.32227C12.8797 1.89258 12.1831 1.89258 11.7534 2.32227L10.9596 3.11608L12.8839 5.04044Z" fill="white"/>
</svg>
