<svg width="24" height="24" viewBox="0 0 24 24" fill="none" xmlns="http://www.w3.org/2000/svg">
<path d="M19.9768 3.46635C19.355 2.84455 18.3469 2.84455 17.7251 3.46635L16.4745 4.71694L19.2831 7.52552L20.5336 6.27493C21.1554 5.65313 21.1555 4.64499 20.5336 4.02319L19.9768 3.46635Z" fill="white"/>
<path d="M18.3756 8.43294L15.5671 5.62436L4.61382 16.5776C4.5561 16.6353 4.50992 16.7035 4.47777 16.7786L3.0519 20.1056C2.94855 20.3467 3.00243 20.6265 3.18795 20.812C3.37347 20.9976 3.65326 21.0515 3.89442 20.9481L7.22145 19.5222C7.29647 19.4901 7.36468 19.4439 7.4224 19.3862L18.3756 8.43294Z" fill="white"/>
</svg>
