<svg width="16" height="16" viewBox="0 0 16 16" fill="none" xmlns="http://www.w3.org/2000/svg">
<path fill-rule="evenodd" clip-rule="evenodd" d="M11.8417 2.11783C12.2973 1.66222 13.036 1.66222 13.4916 2.11783L13.8822 2.50836C14.3378 2.96397 14.3378 3.70266 13.8822 4.15827L4.6869 13.3535C4.64192 13.3985 4.58877 13.4345 4.53031 13.4596L2.19697 14.4596C2.00905 14.5401 1.79103 14.4981 1.64646 14.3535C1.50189 14.209 1.4599 13.9909 1.54044 13.803L2.54044 11.4697C2.5655 11.4112 2.60148 11.3581 2.64646 11.3131L11.8417 2.11783ZM12.7845 2.82494C12.7194 2.75985 12.6139 2.75985 12.5488 2.82494L11.7071 3.66665L12.3333 4.29287L13.1751 3.45117C13.2401 3.38608 13.2401 3.28055 13.1751 3.21546L12.7845 2.82494ZM11.6262 4.99998L11 4.37375L3.42166 11.9521L2.95199 13.048L4.04788 12.5783L11.6262 4.99998Z" fill="white"/>
</svg>
