<svg width="16" height="16" viewBox="0 0 16 16" fill="none" xmlns="http://www.w3.org/2000/svg">
<path fill-rule="evenodd" clip-rule="evenodd" d="M8.00008 3C7.08053 3 6.33508 3.74545 6.33508 4.665C6.33508 5.58455 7.08053 6.33 8.00008 6.33C8.91964 6.33 9.66508 5.58455 9.66508 4.665C9.66508 3.74545 8.91964 3 8.00008 3ZM5.33508 4.665C5.33508 3.19316 6.52824 2 8.00008 2C9.47192 2 10.6651 3.19316 10.6651 4.665C10.6651 6.13684 9.47192 7.33 8.00008 7.33C6.52824 7.33 5.33508 6.13684 5.33508 4.665ZM8.00011 9C5.82165 9 4.05566 10.766 4.05566 12.9444V13H11.9446V12.9444C11.9446 10.766 10.1786 9 8.00011 9ZM3.05566 12.9444C3.05566 10.2137 5.26937 8 8.00011 8C10.7309 8 12.9446 10.2137 12.9446 12.9444V13.1C12.9446 13.5971 12.5416 14 12.0446 14H3.95566C3.45861 14 3.05566 13.5971 3.05566 13.1V12.9444Z" fill="white"/>
</svg>
