<svg width="24" height="24" viewBox="0 0 24 24" fill="none" xmlns="http://www.w3.org/2000/svg">
<path fill-rule="evenodd" clip-rule="evenodd" d="M7.5881 13.1409C7.4448 13.4142 7.36563 13.6699 7.33578 13.9138H16.6643C16.6345 13.6699 16.5553 13.4142 16.412 13.1409L16.4096 13.1363C16.2198 12.7707 15.9352 12.412 15.5279 12.0652C15.1411 11.7359 14.6616 11.4576 14.0702 11.2421L13.268 10.9499L12.8927 5.72941L13.6092 5.31714C13.9566 5.11731 14.2724 4.91816 14.5579 4.72016L14.566 4.71455C14.7696 4.57557 14.9486 4.44328 15.1047 4.31789H8.8939C9.05304 4.44768 9.23341 4.58478 9.4363 4.72905C9.72343 4.92457 10.0373 5.11851 10.379 5.3104L11.1081 5.71989L10.7321 10.9499L9.9299 11.2421C9.33849 11.4576 8.85898 11.7359 8.4722 12.0652C8.06491 12.412 7.78033 12.7707 7.59052 13.1363L7.5881 13.1409ZM8.68344 5.81081C8.36427 5.5843 8.0837 5.36551 7.84174 5.15444C7.59979 4.94337 7.41189 4.75032 7.27804 4.57529C7.08241 4.31789 6.9846 4.06564 6.9846 3.81853C6.9846 3.58172 7.06697 3.3861 7.23171 3.23166C7.39644 3.07722 7.61523 3 7.88808 3H16.1197C16.3874 3 16.6036 3.07722 16.7684 3.23166C16.9383 3.3861 17.0232 3.58172 17.0232 3.81853C17.0232 4.06564 16.9228 4.31789 16.7221 4.57529C16.5882 4.75032 16.4003 4.94337 16.1583 5.15444C15.9164 5.36551 15.6332 5.58172 15.3089 5.80309C14.9897 6.02445 14.6423 6.24324 14.2665 6.45946L14.5213 10.0039C15.242 10.2664 15.8623 10.619 16.3823 11.0618C16.9022 11.5045 17.3012 11.9936 17.5792 12.529C17.8572 13.0592 17.9962 13.5972 17.9962 14.1429C17.9962 14.4723 17.8932 14.7375 17.6873 14.9382C17.4865 15.1338 17.2111 15.2317 16.861 15.2317H12.6834V18.8378C12.6834 18.9877 12.6767 19.1336 12.6633 19.2754C12.6585 19.3262 12.6528 19.3765 12.6463 19.4262C12.6353 19.5096 12.622 19.5914 12.6062 19.6718C12.5961 19.7232 12.5856 19.7733 12.5745 19.8221C12.5618 19.8781 12.5485 19.9324 12.5345 19.985C12.5336 19.9886 12.5326 19.9922 12.5317 19.9957C12.4963 20.1275 12.4568 20.2486 12.4132 20.3591C12.4022 20.3875 12.3913 20.4151 12.3803 20.4418C12.3754 20.4538 12.3706 20.4655 12.3657 20.477C12.3043 20.6224 12.2429 20.7401 12.1815 20.8301C12.1094 20.9434 12.0502 21 12.0039 21C11.9524 21 11.8881 20.9434 11.8109 20.8301C11.7544 20.7414 11.6964 20.6259 11.6368 20.4835C11.632 20.4721 11.6273 20.4606 11.6225 20.449C11.6107 20.4201 11.5988 20.3901 11.5869 20.3591C11.5433 20.2486 11.5038 20.1275 11.4684 19.9957C11.4675 19.9922 11.4665 19.9886 11.4656 19.985C11.4517 19.9329 11.4385 19.8792 11.426 19.8238C11.4148 19.7745 11.4041 19.7238 11.3939 19.6718C11.3781 19.5914 11.3647 19.5096 11.3538 19.4262C11.3473 19.3765 11.3416 19.3262 11.3368 19.2754C11.3234 19.1336 11.3166 18.9877 11.3166 18.8378V15.2317H7.13904C6.79412 15.2317 6.51871 15.1338 6.31279 14.9382C6.10687 14.7375 6.00391 14.4723 6.00391 14.1429C6.00391 13.5972 6.1429 13.0592 6.42089 12.529C6.69889 11.9936 7.09786 11.5045 7.61781 11.0618C8.13775 10.619 8.75809 10.2664 9.47881 10.0039L9.73364 6.45946C9.35783 6.24839 9.00777 6.03218 8.68344 5.81081Z" fill="white"/>
</svg>
