<svg width="16" height="16" viewBox="0 0 16 16" fill="none" xmlns="http://www.w3.org/2000/svg">
<path fill-rule="evenodd" clip-rule="evenodd" d="M5.05882 8.76059C4.96328 8.94281 4.9105 9.11324 4.8906 9.27585H11.1096C11.0897 9.11324 11.0369 8.94281 10.9414 8.76059L10.9398 8.75751C10.8133 8.5138 10.6235 8.27466 10.352 8.04346C10.0942 7.82391 9.77448 7.63839 9.38021 7.49476L8.84542 7.29995L8.5952 3.8196L9.0729 3.54476C9.30446 3.41154 9.515 3.27877 9.70532 3.14677L9.71072 3.14303C9.84646 3.05038 9.96581 2.96218 10.0699 2.87859H5.92935C6.03544 2.96512 6.15569 3.05652 6.29095 3.1527C6.48237 3.28305 6.69164 3.41234 6.91941 3.54027L7.40548 3.81326L7.1548 7.29995L6.62001 7.49476C6.22574 7.63839 5.90607 7.82391 5.64821 8.04346C5.37669 8.27466 5.18697 8.5138 5.06043 8.75751L5.05882 8.76059ZM5.78904 3.87387C5.57626 3.72287 5.38921 3.57701 5.22791 3.43629C5.06661 3.29558 4.94134 3.16688 4.85211 3.05019C4.72169 2.87859 4.65648 2.71042 4.65648 2.54569C4.65648 2.38782 4.71139 2.2574 4.82122 2.15444C4.93104 2.05148 5.0769 2 5.2588 2H10.7466C10.925 2 11.0692 2.05148 11.179 2.15444C11.2923 2.2574 11.3489 2.38782 11.3489 2.54569C11.3489 2.71042 11.282 2.87859 11.1481 3.05019C11.0589 3.16688 10.9336 3.29558 10.7723 3.43629C10.611 3.57701 10.4222 3.72115 10.206 3.86873C9.99325 4.0163 9.76159 4.16216 9.51105 4.30631L9.68094 6.66924C10.1614 6.84427 10.575 7.07937 10.9216 7.37452C11.2682 7.66967 11.5342 7.99571 11.7195 8.35264C11.9049 8.70613 11.9975 9.06478 11.9975 9.42857C11.9975 9.64822 11.9289 9.82497 11.7916 9.95882C11.6578 10.0892 11.4742 10.1544 11.2408 10.1544H8.45571V12.5586C8.45571 12.6585 8.45123 12.7557 8.44228 12.8503C8.43907 12.8842 8.43529 12.9177 8.43093 12.9508C8.42364 13.0064 8.41474 13.0609 8.40423 13.1145C8.39751 13.1488 8.39047 13.1822 8.38309 13.2148C8.37464 13.2521 8.36575 13.2883 8.35643 13.3233C8.3558 13.3257 8.35516 13.3281 8.35452 13.3305C8.33093 13.4183 8.3046 13.4991 8.27553 13.5727C8.26823 13.5917 8.26093 13.6101 8.25363 13.6279C8.25037 13.6358 8.24712 13.6437 8.24387 13.6514C8.20294 13.7483 8.16201 13.8267 8.12109 13.8867C8.07304 13.9622 8.03357 14 8.00269 14C7.96837 14 7.92547 13.9622 7.87399 13.8867C7.83635 13.8276 7.79767 13.7506 7.75793 13.6556C7.75477 13.6481 7.7516 13.6404 7.74843 13.6327C7.74056 13.6134 7.73265 13.5934 7.72469 13.5727C7.69563 13.4991 7.6693 13.4183 7.6457 13.3305C7.64506 13.3281 7.64443 13.3257 7.6438 13.3233C7.63457 13.2886 7.62577 13.2528 7.61739 13.2159C7.60992 13.183 7.60279 13.1492 7.59599 13.1145C7.58548 13.0609 7.57658 13.0064 7.56929 12.9508C7.56493 12.9177 7.56115 12.8842 7.55795 12.8503C7.54899 12.7557 7.54451 12.6585 7.54451 12.5586V10.1544H4.75944C4.5295 10.1544 4.34589 10.0892 4.20861 9.95882C4.07133 9.82497 4.00269 9.64822 4.00269 9.42857C4.00269 9.06478 4.09535 8.70613 4.28068 8.35264C4.46601 7.99571 4.73199 7.66967 5.07862 7.37452C5.42525 7.07937 5.83881 6.84427 6.31929 6.66924L6.48917 4.30631C6.23864 4.16559 6.00526 4.02145 5.78904 3.87387Z" fill="white"/>
</svg>
