<svg width="20" height="20" viewBox="0 0 20 20" fill="none" xmlns="http://www.w3.org/2000/svg">
<path d="M5.00317 11.7857C5.00317 11.331 5.119 10.8827 5.35066 10.4408C5.58232 9.99464 5.9148 9.58709 6.34809 9.21815C6.78138 8.84921 7.29833 8.55534 7.89893 8.33655L8.11128 5.38288C7.79811 5.20699 7.50639 5.02681 7.23612 4.84234C6.97014 4.65358 6.73634 4.47126 6.53471 4.29537C6.33308 4.11948 6.17649 3.9586 6.06495 3.81274C5.90193 3.59824 5.82042 3.38803 5.82042 3.18211C5.82042 2.98477 5.88906 2.82175 6.02634 2.69305C6.16362 2.56435 6.34595 2.5 6.57332 2.5H13.433C13.6561 2.5 13.8363 2.56435 13.9736 2.69305C14.1151 2.82175 14.1859 2.98477 14.1859 3.18211C14.1859 3.38803 14.1023 3.59824 13.935 3.81274C13.8234 3.9586 13.6668 4.11948 13.4652 4.29537C13.2636 4.47126 13.0276 4.65144 12.7574 4.83591C12.4914 5.02038 12.2018 5.2027 11.8886 5.38288L12.101 8.33655C12.7016 8.55534 13.2185 8.84921 13.6518 9.21815C14.0851 9.58709 14.4176 9.99464 14.6492 10.4408C14.8809 10.8827 14.9967 11.331 14.9967 11.7857C14.9967 12.0603 14.9109 12.2812 14.7393 12.4485C14.572 12.6115 14.3425 12.6931 14.0508 12.6931H10.5695V15.6982C10.5695 15.9427 10.548 16.1744 10.5051 16.3932C10.4622 16.612 10.4086 16.8029 10.3442 16.9659C10.2799 17.1332 10.2155 17.264 10.1512 17.3584C10.0911 17.4528 10.0418 17.5 10.0032 17.5C9.96027 17.5 9.90665 17.4528 9.8423 17.3584C9.78224 17.264 9.72003 17.1332 9.65568 16.9659C9.59133 16.8029 9.53771 16.612 9.49481 16.3932C9.45191 16.1744 9.43046 15.9427 9.43046 15.6982V12.6931H5.94912C5.66169 12.6931 5.43217 12.6115 5.26057 12.4485C5.08897 12.2812 5.00317 12.0603 5.00317 11.7857Z" fill="white"/>
</svg>
