<svg width="20" height="20" viewBox="0 0 20 20" fill="none" xmlns="http://www.w3.org/2000/svg">
<path fill-rule="evenodd" clip-rule="evenodd" d="M6.32334 10.9507C6.20392 11.1785 6.13794 11.3916 6.11307 11.5948H13.8868C13.862 11.3916 13.796 11.1785 13.6766 10.9507L13.6746 10.9469C13.5164 10.6423 13.2792 10.3433 12.9398 10.0543C12.6175 9.77988 12.2179 9.54799 11.7251 9.36845L11.0566 9.12494L10.7438 4.77451L11.3409 4.43095C11.6304 4.26442 11.8936 4.09847 12.1315 3.93347L12.1382 3.92879C12.3079 3.81298 12.4571 3.70273 12.5872 3.59824H7.41151C7.54412 3.7064 7.69442 3.82065 7.8635 3.94088C8.10277 4.10381 8.36436 4.26542 8.64908 4.42533L9.25667 4.76658L8.94332 9.12494L8.27483 9.36845C7.782 9.54799 7.3824 9.77988 7.06008 10.0543C6.72067 10.3433 6.48353 10.6422 6.32535 10.9469L6.32334 10.9507ZM7.23612 4.84234C6.97014 4.65358 6.73634 4.47126 6.53471 4.29537C6.33308 4.11948 6.17649 3.9586 6.06495 3.81274C5.90193 3.59824 5.82042 3.38803 5.82042 3.18211C5.82042 2.98477 5.88906 2.82175 6.02634 2.69305C6.16362 2.56435 6.34595 2.5 6.57332 2.5H13.433C13.6561 2.5 13.8363 2.56435 13.9736 2.69305C14.1151 2.82175 14.1859 2.98477 14.1859 3.18211C14.1859 3.38803 14.1023 3.59824 13.935 3.81274C13.8234 3.9586 13.6668 4.11948 13.4652 4.29537C13.2636 4.47126 13.0276 4.65144 12.7574 4.83591C12.4914 5.02038 12.2018 5.2027 11.8886 5.38288L12.101 8.33655C12.7016 8.55534 13.2185 8.84921 13.6518 9.21815C14.0851 9.58709 14.4176 9.99464 14.6492 10.4408C14.8809 10.8827 14.9967 11.331 14.9967 11.7857C14.9967 12.0603 14.9109 12.2812 14.7393 12.4485C14.572 12.6115 14.3425 12.6931 14.0508 12.6931H10.5695V15.6982C10.5695 15.8231 10.5639 15.9447 10.5527 16.0629C10.5487 16.1052 10.5439 16.1471 10.5385 16.1885C10.5294 16.258 10.5182 16.3262 10.5051 16.3932C10.4967 16.436 10.4879 16.4778 10.4787 16.5184C10.4681 16.5651 10.457 16.6103 10.4454 16.6542C10.4446 16.6572 10.4438 16.6601 10.443 16.6631C10.4135 16.7729 10.3806 16.8738 10.3442 16.9659C10.3351 16.9896 10.326 17.0126 10.3169 17.0349C10.3128 17.0448 10.3087 17.0546 10.3046 17.0642C10.2535 17.1853 10.2023 17.2834 10.1512 17.3584C10.0911 17.4528 10.0418 17.5 10.0032 17.5C9.96027 17.5 9.90665 17.4528 9.8423 17.3584C9.79526 17.2845 9.7469 17.1882 9.69723 17.0695C9.69328 17.0601 9.68932 17.0505 9.68535 17.0408C9.67551 17.0167 9.66562 16.9917 9.65568 16.9659C9.61935 16.8738 9.58644 16.7729 9.55694 16.6631C9.55615 16.6601 9.55535 16.6572 9.55456 16.6542C9.54303 16.6108 9.53203 16.566 9.52156 16.5199C9.51222 16.4787 9.5033 16.4365 9.49481 16.3932C9.48167 16.3262 9.47054 16.258 9.46143 16.1885C9.45598 16.1471 9.45126 16.1052 9.44725 16.0629C9.43606 15.9447 9.43046 15.8231 9.43046 15.6982V12.6931H5.94912C5.66169 12.6931 5.43217 12.6115 5.26057 12.4485C5.08897 12.2812 5.00317 12.0603 5.00317 11.7857C5.00317 11.331 5.119 10.8827 5.35066 10.4408C5.58232 9.99464 5.9148 9.58709 6.34809 9.21815C6.78138 8.84921 7.29833 8.55534 7.89893 8.33655L8.11128 5.38288C7.79811 5.20699 7.50639 5.02681 7.23612 4.84234Z" fill="white"/>
</svg>
