<svg width="16" height="16" viewBox="0 0 16 16" fill="none" xmlns="http://www.w3.org/2000/svg">
<path d="M4.00269 9.42857C4.00269 9.06478 4.09535 8.70613 4.28068 8.35264C4.46601 7.99571 4.73199 7.66967 5.07862 7.37452C5.42525 7.07937 5.83881 6.84427 6.31929 6.66924L6.48917 4.30631C6.23864 4.16559 6.00526 4.02145 5.78904 3.87387C5.57626 3.72287 5.38921 3.57701 5.22791 3.43629C5.06661 3.29558 4.94134 3.16688 4.85211 3.05019C4.72169 2.87859 4.65648 2.71042 4.65648 2.54569C4.65648 2.38782 4.71139 2.2574 4.82122 2.15444C4.93104 2.05148 5.0769 2 5.2588 2H10.7466C10.925 2 11.0692 2.05148 11.179 2.15444C11.2923 2.2574 11.3489 2.38782 11.3489 2.54569C11.3489 2.71042 11.282 2.87859 11.1481 3.05019C11.0589 3.16688 10.9336 3.29558 10.7723 3.43629C10.611 3.57701 10.4222 3.72115 10.206 3.86873C9.99325 4.0163 9.76159 4.16216 9.51105 4.30631L9.68094 6.66924C10.1614 6.84427 10.575 7.07937 10.9216 7.37452C11.2682 7.66967 11.5342 7.99571 11.7195 8.35264C11.9049 8.70613 11.9975 9.06478 11.9975 9.42857C11.9975 9.64822 11.9289 9.82497 11.7916 9.95882C11.6578 10.0892 11.4742 10.1544 11.2408 10.1544H8.45571V12.5586C8.45571 12.7542 8.43855 12.9395 8.40423 13.1145C8.36991 13.2896 8.32701 13.4423 8.27553 13.5727C8.22405 13.7066 8.17257 13.8112 8.12109 13.8867C8.07304 13.9622 8.03357 14 8.00269 14C7.96837 14 7.92547 13.9622 7.87399 13.8867C7.82594 13.8112 7.77617 13.7066 7.72469 13.5727C7.67321 13.4423 7.63031 13.2896 7.59599 13.1145C7.56167 12.9395 7.54451 12.7542 7.54451 12.5586V10.1544H4.75944C4.5295 10.1544 4.34589 10.0892 4.20861 9.95882C4.07133 9.82497 4.00269 9.64822 4.00269 9.42857Z" fill="white"/>
</svg>
