<svg width="24" height="24" viewBox="0 0 24 24" fill="none" xmlns="http://www.w3.org/2000/svg">
<path d="M6.00391 14.1429C6.00391 13.5972 6.1429 13.0592 6.42089 12.529C6.69889 11.9936 7.09786 11.5045 7.61781 11.0618C8.13775 10.619 8.75809 10.2664 9.47881 10.0039L9.73364 6.45946C9.35783 6.24839 9.00777 6.03218 8.68344 5.81081C8.36427 5.5843 8.0837 5.36551 7.84174 5.15444C7.59979 4.94337 7.41189 4.75032 7.27804 4.57529C7.08241 4.31789 6.9846 4.06564 6.9846 3.81853C6.9846 3.58172 7.06697 3.3861 7.23171 3.23166C7.39644 3.07722 7.61523 3 7.88808 3H16.1197C16.3874 3 16.6036 3.07722 16.7684 3.23166C16.9383 3.3861 17.0232 3.58172 17.0232 3.81853C17.0232 4.06564 16.9228 4.31789 16.7221 4.57529C16.5882 4.75032 16.4003 4.94337 16.1583 5.15444C15.9164 5.36551 15.6332 5.58172 15.3089 5.80309C14.9897 6.02445 14.6423 6.24324 14.2665 6.45946L14.5213 10.0039C15.242 10.2664 15.8623 10.619 16.3823 11.0618C16.9022 11.5045 17.3012 11.9936 17.5792 12.529C17.8572 13.0592 17.9962 13.5972 17.9962 14.1429C17.9962 14.4723 17.8932 14.7375 17.6873 14.9382C17.4865 15.1338 17.2111 15.2317 16.861 15.2317H12.6834V18.8378C12.6834 19.1313 12.6577 19.4093 12.6062 19.6718C12.5547 19.9344 12.4904 20.1635 12.4132 20.3591C12.336 20.5598 12.2587 20.7169 12.1815 20.8301C12.1094 20.9434 12.0502 21 12.0039 21C11.9524 21 11.8881 20.9434 11.8109 20.8301C11.7388 20.7169 11.6641 20.5598 11.5869 20.3591C11.5097 20.1635 11.4453 19.9344 11.3939 19.6718C11.3424 19.4093 11.3166 19.1313 11.3166 18.8378V15.2317H7.13904C6.79412 15.2317 6.51871 15.1338 6.31279 14.9382C6.10687 14.7375 6.00391 14.4723 6.00391 14.1429Z" fill="white"/>
</svg>
