<svg width="40" height="40" viewBox="0 0 40 40" fill="none" xmlns="http://www.w3.org/2000/svg">
<path d="M25.4167 6C25.4167 6.39517 25.2093 6.76137 24.8705 6.96468L20.7038 9.46468C20.3563 9.67321 19.9234 9.67867 19.5707 9.47898C19.218 9.27928 19 8.90531 19 8.5V7.03785C12.2876 7.54845 7 13.1567 7 20C7 27.1797 12.8203 33 20 33C27.1797 33 33 27.1797 33 20C33 15.3835 30.5944 11.3281 26.9636 9.0202C26.4975 8.72393 26.3598 8.10591 26.6561 7.63982C26.9523 7.17373 27.5704 7.03606 28.0364 7.33233C32.2203 9.99177 35 14.6709 35 20C35 28.2842 28.2843 35 20 35C11.7157 35 5 28.2842 5 20C5 12.0517 11.1819 5.54738 19 5.03277V3.5C19 3.09469 19.218 2.72072 19.5707 2.52103C19.9234 2.32133 20.3563 2.32679 20.7038 2.53532L24.8705 5.03532C25.2093 5.23863 25.4167 5.60483 25.4167 6Z" fill="white"/>
<path fill-rule="evenodd" clip-rule="evenodd" d="M22.9172 12.7469C20.5239 12.7469 18.5838 14.687 18.5838 17.0803V22.9268C18.5838 25.3201 20.5239 27.2602 22.9172 27.2602C25.3104 27.2602 27.2505 25.3201 27.2505 22.9268V17.0803C27.2505 14.687 25.3104 12.7469 22.9172 12.7469ZM20.5838 17.0803C20.5838 15.7916 21.6285 14.7469 22.9172 14.7469C24.2058 14.7469 25.2505 15.7916 25.2505 17.0803V22.9268C25.2505 24.2155 24.2058 25.2602 22.9172 25.2602C21.6285 25.2602 20.5838 24.2155 20.5838 22.9268V17.0803Z" fill="white"/>
<path d="M16.4145 14.3489C16.4145 12.9678 14.7446 12.2763 13.7683 13.253L11.7076 15.3144C11.3171 15.705 11.3172 16.3382 11.7078 16.7287C12.0984 17.1191 12.7316 17.119 13.122 16.7284L14.4145 15.4355V26.2602C14.4145 26.8125 14.8622 27.2602 15.4145 27.2602C15.9668 27.2602 16.4145 26.8125 16.4145 26.2602V14.3489Z" fill="white"/>
</svg>
