<svg width="16" height="16" viewBox="0 0 16 16" fill="none" xmlns="http://www.w3.org/2000/svg">
<path fill-rule="evenodd" clip-rule="evenodd" d="M7.89645 0.896447C8.09171 0.701184 8.40829 0.701184 8.60355 0.896447L9.85355 2.14645C10.0488 2.34171 10.0488 2.65829 9.85355 2.85355L8.60355 4.10355C8.40829 4.29882 8.09171 4.29882 7.89645 4.10355C7.70118 3.90829 7.70118 3.59171 7.89645 3.39645L8.29289 3H8C5.23858 3 3 5.23858 3 8C3 10.7614 5.23858 13 8 13C10.7614 13 13 10.7614 13 8C13 6.24526 12.0965 4.70127 10.7269 3.8083C10.4956 3.65748 10.4303 3.34769 10.5812 3.11638C10.732 2.88506 11.0418 2.81981 11.2731 2.97063C12.9137 4.04036 14 5.89319 14 8C14 11.3137 11.3137 14 8 14C4.68629 14 2 11.3137 2 8C2 4.68629 4.68629 2 8 2H8.29289L7.89645 1.60355C7.70118 1.40829 7.70118 1.09171 7.89645 0.896447ZM9.16677 5.9988C8.70653 5.9988 8.33344 6.3719 8.33344 6.83213V9.17076C8.33344 9.63099 8.70653 10.0041 9.16677 10.0041C9.62701 10.0041 10.0001 9.63099 10.0001 9.17076V6.83213C10.0001 6.3719 9.62701 5.9988 9.16677 5.9988ZM7.33344 6.83213C7.33344 5.81961 8.15425 4.9988 9.16677 4.9988C10.1793 4.9988 11.0001 5.81961 11.0001 6.83213V9.17076C11.0001 10.1833 10.1793 11.0041 9.16677 11.0041C8.15425 11.0041 7.33344 10.1833 7.33344 9.17076V6.83213ZM5.45356 5.21346C5.9008 4.76607 6.66569 5.08282 6.66569 5.71542V10.5041C6.66569 10.7802 6.44183 11.0041 6.16569 11.0041C5.88955 11.0041 5.66569 10.7802 5.66569 10.5041V6.41571L5.31943 6.76208C5.1242 6.95738 4.80762 6.95743 4.61233 6.7622C4.41703 6.56697 4.41698 6.25039 4.61221 6.0551L5.45356 5.21346Z" fill="white"/>
</svg>
