<svg width="40" height="40" viewBox="0 0 40 40" fill="none" xmlns="http://www.w3.org/2000/svg">
<path fill-rule="evenodd" clip-rule="evenodd" d="M27 10.6667C27 9.19391 28.1939 8 29.6667 8H31.3333C32.8061 8 34 9.19391 34 10.6667V29.3333C34 30.8061 32.8061 32 31.3333 32H29.6667C28.1939 32 27 30.8061 27 29.3333V21.9413C26.89 22.0296 26.7703 22.1107 26.6406 22.183L9.71842 31.628C8.05201 32.558 6 31.3534 6 29.445V10.555C6 8.64664 8.05201 7.44195 9.71842 8.37204L26.6406 17.817C26.7703 17.8893 26.89 17.9704 27 18.0587V10.6667ZM29.6667 10C29.2985 10 29 10.2985 29 10.6667V29.3333C29 29.7015 29.2985 30 29.6667 30H31.3333C31.7015 30 32 29.7015 32 29.3333V10.6667C32 10.2985 31.7015 10 31.3333 10H29.6667ZM8.74368 10.1184C8.4104 9.93242 8 10.1734 8 10.555V29.445C8 29.8266 8.4104 30.0676 8.74368 29.8816L25.6659 20.4366C26.0077 20.2459 26.0077 19.7541 25.6659 19.5634L8.74368 10.1184Z" fill="white"/>
</svg>
