<svg width="24" height="24" viewBox="0 0 24 24" fill="none" xmlns="http://www.w3.org/2000/svg">
<path fill-rule="evenodd" clip-rule="evenodd" d="M15.8252 6.49995C15.8252 5.57487 16.5751 4.82495 17.5002 4.82495H18.5002C19.4253 4.82495 20.1752 5.57487 20.1752 6.49995V17.5C20.1752 18.425 19.4253 19.175 18.5002 19.175H17.5002C16.5751 19.175 15.8252 18.425 15.8252 17.5V13.1184C15.7331 13.2091 15.6272 13.2906 15.5076 13.3604L6.19379 18.7935C5.14381 19.406 3.8252 18.6486 3.8252 17.433V6.56688C3.8252 5.35132 5.14381 4.59394 6.19379 5.20643L15.5076 10.6395C15.6272 10.7093 15.7331 10.7908 15.8252 10.8815V6.49995ZM17.5002 6.17495C17.3207 6.17495 17.1752 6.32046 17.1752 6.49995V17.5C17.1752 17.6794 17.3207 17.825 17.5002 17.825H18.5002C18.6797 17.825 18.8252 17.6794 18.8252 17.5V6.49995C18.8252 6.32046 18.6797 6.17495 18.5002 6.17495H17.5002ZM5.51357 6.37253C5.36357 6.28504 5.1752 6.39323 5.1752 6.56688V17.433C5.1752 17.6067 5.36357 17.7149 5.51357 17.6274L14.8274 12.1943C14.9762 12.1075 14.9762 11.8924 14.8274 11.8056L5.51357 6.37253Z" fill="white"/>
</svg>
