<svg width="40" height="40" viewBox="0 0 40 40" fill="none" xmlns="http://www.w3.org/2000/svg">
<path fill-rule="evenodd" clip-rule="evenodd" d="M6 10.6667C6 9.19391 7.19391 8 8.66667 8H10.3333C11.8061 8 13 9.19391 13 10.6667V18.0587C13.11 17.9704 13.2297 17.8893 13.3594 17.817L30.2816 8.37204C31.948 7.44195 34 8.64664 34 10.555V29.445C34 31.3534 31.948 32.558 30.2816 31.628L13.3594 22.183C13.2297 22.1107 13.11 22.0296 13 21.9413V29.3333C13 30.8061 11.8061 32 10.3333 32H8.66667C7.19391 32 6 30.8061 6 29.3333V10.6667ZM8.66667 10C8.29848 10 8 10.2985 8 10.6667V29.3333C8 29.7015 8.29848 30 8.66667 30H10.3333C10.7015 30 11 29.7015 11 29.3333V10.6667C11 10.2985 10.7015 10 10.3333 10H8.66667ZM32 10.555C32 10.1734 31.5896 9.93242 31.2563 10.1184L14.3341 19.5634C13.9923 19.7541 13.9923 20.2459 14.3341 20.4366L31.2563 29.8816C31.5896 30.0676 32 29.8266 32 29.445V10.555Z" fill="white"/>
</svg>
