<svg width="16" height="16" viewBox="0 0 16 16" fill="none" xmlns="http://www.w3.org/2000/svg">
<path d="M10 2.5C10 2.66718 9.91645 2.82329 9.77735 2.91603L8.27735 3.91603C8.12392 4.01831 7.92665 4.02785 7.76407 3.94084C7.60149 3.85383 7.5 3.6844 7.5 3.5V3.02469C4.97334 3.27555 3 5.40733 3 8C3 10.7614 5.23858 13 8 13C10.7614 13 13 10.7614 13 8C13 6.24526 12.0965 4.70127 10.7269 3.8083C10.4956 3.65748 10.4303 3.34769 10.5812 3.11638C10.732 2.88506 11.0418 2.81981 11.2731 2.97063C12.9137 4.04036 14 5.89319 14 8C14 11.3137 11.3137 14 8 14C4.68629 14 2 11.3137 2 8C2 4.85467 4.42023 2.27461 7.5 2.02054V1.5C7.5 1.3156 7.60149 1.14617 7.76407 1.05916C7.92665 0.972154 8.12392 0.98169 8.27735 1.08398L9.77735 2.08398C9.91645 2.17671 10 2.33282 10 2.5Z" fill="white"/>
<path fill-rule="evenodd" clip-rule="evenodd" d="M9.16677 4.99878C8.15425 4.99878 7.33344 5.81959 7.33344 6.83211V9.17074C7.33344 10.1833 8.15425 11.0041 9.16677 11.0041C10.1793 11.0041 11.0001 10.1833 11.0001 9.17074V6.83211C11.0001 5.81959 10.1793 4.99878 9.16677 4.99878ZM8.33344 6.83211C8.33344 6.37188 8.70653 5.99878 9.16677 5.99878C9.62701 5.99878 10.0001 6.37188 10.0001 6.83211V9.17074C10.0001 9.63097 9.62701 10.0041 9.16677 10.0041C8.70653 10.0041 8.33344 9.63097 8.33344 9.17074V6.83211Z" fill="white"/>
<path d="M6.66569 5.7154C6.66569 5.0828 5.9008 4.76605 5.45356 5.21344L4.61221 6.05508C4.41698 6.25037 4.41703 6.56695 4.61233 6.76218C4.80762 6.95741 5.1242 6.95736 5.31943 6.76206L5.66569 6.41569V10.5041C5.66569 10.7802 5.88955 11.0041 6.16569 11.0041C6.44183 11.0041 6.66569 10.7802 6.66569 10.5041V5.7154Z" fill="white"/>
</svg>
