<svg width="16" height="16" viewBox="0 0 16 16" fill="none" xmlns="http://www.w3.org/2000/svg">
<path fill-rule="evenodd" clip-rule="evenodd" d="M4.5 3.9C4.5 3.40294 4.90294 3 5.4 3H6.6C7.09706 3 7.5 3.40294 7.5 3.9V12.1C7.5 12.5971 7.09706 13 6.6 13H5.4C4.90294 13 4.5 12.5971 4.5 12.1V3.9ZM5.5 4V12H6.5V4H5.5ZM8.5 3.9C8.5 3.40294 8.90294 3 9.4 3H10.6C11.0971 3 11.5 3.40294 11.5 3.9V12.1C11.5 12.5971 11.0971 13 10.6 13H9.4C8.90294 13 8.5 12.5971 8.5 12.1V3.9ZM9.5 4V12H10.5V4H9.5Z" fill="white"/>
</svg>
