<svg width="24" height="24" viewBox="0 0 24 24" fill="none" xmlns="http://www.w3.org/2000/svg">
<path fill-rule="evenodd" clip-rule="evenodd" d="M12.2275 1.27265C12.4911 1.53626 12.4911 1.96364 12.2275 2.22725L11.6298 2.82495H12.0002C17.0674 2.82495 21.1752 6.93274 21.1752 12C21.1752 17.0672 17.0674 21.1749 12.0002 21.1749C6.93298 21.1749 2.8252 17.0672 2.8252 12C2.8252 8.70744 4.55996 5.82064 7.16212 4.20284C7.47871 4.00601 7.89493 4.1031 8.09176 4.41969C8.28859 4.73628 8.1915 5.1525 7.87491 5.34933C5.65238 6.73111 4.1752 9.1933 4.1752 12C4.1752 16.3216 7.67857 19.825 12.0002 19.825C16.3218 19.825 19.8252 16.3216 19.8252 12C19.8252 7.67832 16.3218 4.17495 12.0002 4.17495H11.6298L12.2275 4.77265C12.4911 5.03626 12.4911 5.46364 12.2275 5.72725C11.9639 5.99085 11.5365 5.99085 11.2729 5.72725L9.5229 3.97725C9.39631 3.85066 9.3252 3.67897 9.3252 3.49995C9.3252 3.32093 9.39631 3.14924 9.5229 3.02265L11.2729 1.27265C11.5365 1.00905 11.9639 1.00905 12.2275 1.27265ZM8.25931 7.84758C8.87348 7.2332 9.92385 7.66818 9.92385 8.53689V15.7561C9.92385 16.1289 9.62164 16.4311 9.24885 16.4311C8.87606 16.4311 8.57385 16.1289 8.57385 15.7561V9.44244L7.92643 10.0901C7.66287 10.3537 7.23548 10.3538 6.97183 10.0902C6.70818 9.82668 6.70811 9.3993 6.97167 9.13565L8.25931 7.84758ZM13.7505 8.92318C13.0187 8.92318 12.4255 9.5164 12.4255 10.2482V13.7561C12.4255 14.4879 13.0187 15.0811 13.7505 15.0811C14.4822 15.0811 15.0755 14.4879 15.0755 13.7561V10.2482C15.0755 9.5164 14.4822 8.92318 13.7505 8.92318ZM11.0755 10.2482C11.0755 8.77082 12.2731 7.57318 13.7505 7.57318C15.2278 7.57318 16.4255 8.77082 16.4255 10.2482V13.7561C16.4255 15.2335 15.2278 16.4311 13.7505 16.4311C12.2731 16.4311 11.0755 15.2335 11.0755 13.7561V10.2482Z" fill="white"/>
</svg>
