<svg width="24" height="24" viewBox="0 0 24 24" fill="none" xmlns="http://www.w3.org/2000/svg">
<path d="M15.1753 3.5002C15.1753 3.7373 15.0509 3.95702 14.8476 4.079L12.3476 5.579C12.139 5.70412 11.8793 5.7074 11.6677 5.58758C11.4561 5.46776 11.3253 5.24338 11.3253 5.0002V4.20396C7.31964 4.54615 4.1752 7.90599 4.1752 12.0003C4.1752 16.3219 7.67857 19.8253 12.0002 19.8253C16.3218 19.8253 19.8252 16.3219 19.8252 12.0003C19.8252 9.1936 18.348 6.73141 16.1255 5.34963C15.8089 5.1528 15.7118 4.73659 15.9086 4.41999C16.1055 4.1034 16.5217 4.00631 16.8383 4.20314C19.4404 5.82095 21.1752 8.70774 21.1752 12.0003C21.1752 17.0675 17.0674 21.1753 12.0002 21.1753C6.93298 21.1753 2.8252 17.0675 2.8252 12.0003C2.8252 7.16003 6.57321 3.1952 11.3253 2.8497V2.0002C11.3253 1.75701 11.4561 1.53263 11.6677 1.41281C11.8793 1.29299 12.139 1.29627 12.3476 1.42139L14.8476 2.92139C15.0509 3.04338 15.1753 3.26309 15.1753 3.5002Z" fill="white"/>
<path d="M9.92397 8.5372C9.92397 7.66848 8.8736 7.23351 8.25943 7.84788L6.97179 9.13596C6.70823 9.39961 6.70831 9.82699 6.97195 10.0906C7.2356 10.3541 7.66299 10.354 7.92655 10.0904L8.57397 9.44274V15.7564C8.57397 16.1292 8.87618 16.4314 9.24897 16.4314C9.62177 16.4314 9.92397 16.1292 9.92397 15.7564V8.5372Z" fill="white"/>
<path fill-rule="evenodd" clip-rule="evenodd" d="M13.7506 7.57349C12.2732 7.57349 11.0756 8.77113 11.0756 10.2485V13.7564C11.0756 15.2338 12.2732 16.4314 13.7506 16.4314C15.228 16.4314 16.4256 15.2338 16.4256 13.7564V10.2485C16.4256 8.77113 15.228 7.57349 13.7506 7.57349ZM12.4256 10.2485C12.4256 9.51671 13.0188 8.92349 13.7506 8.92349C14.4824 8.92349 15.0756 9.51671 15.0756 10.2485V13.7564C15.0756 14.4882 14.4824 15.0814 13.7506 15.0814C13.0188 15.0814 12.4256 14.4882 12.4256 13.7564V10.2485Z" fill="white"/>
</svg>
