<svg width="16" height="16" viewBox="0 0 16 16" fill="none" xmlns="http://www.w3.org/2000/svg">
<path d="M6 2.5C6 2.66718 6.08355 2.82329 6.22265 2.91603L7.72265 3.91603C7.87608 4.01831 8.07335 4.02785 8.23593 3.94084C8.39851 3.85383 8.5 3.6844 8.5 3.5V3.02469C11.0267 3.27555 13 5.40733 13 8C13 10.7614 10.7614 13 8 13C5.23858 13 3 10.7614 3 8C3 6.24526 3.90353 4.70127 5.27309 3.8083C5.5044 3.65748 5.56966 3.34769 5.41884 3.11638C5.26801 2.88506 4.95823 2.81981 4.72691 2.97063C3.08626 4.04036 2 5.89319 2 8C2 11.3137 4.68629 14 8 14C11.3137 14 14 11.3137 14 8C14 4.85467 11.5798 2.27461 8.5 2.02054V1.5C8.5 1.3156 8.39851 1.14617 8.23593 1.05916C8.07335 0.972154 7.87608 0.98169 7.72265 1.08398L6.22265 2.08398C6.08355 2.17671 6 2.33282 6 2.5Z" fill="white"/>
<path fill-rule="evenodd" clip-rule="evenodd" d="M9.16677 4.99878C8.15425 4.99878 7.33344 5.81959 7.33344 6.83211V9.17074C7.33344 10.1833 8.15425 11.0041 9.16677 11.0041C10.1793 11.0041 11.0001 10.1833 11.0001 9.17074V6.83211C11.0001 5.81959 10.1793 4.99878 9.16677 4.99878ZM8.33344 6.83211C8.33344 6.37188 8.70653 5.99878 9.16677 5.99878C9.62701 5.99878 10.0001 6.37188 10.0001 6.83211V9.17074C10.0001 9.63097 9.62701 10.0041 9.16677 10.0041C8.70653 10.0041 8.33344 9.63097 8.33344 9.17074V6.83211Z" fill="white"/>
<path d="M6.66569 5.7154C6.66569 5.0828 5.9008 4.76605 5.45356 5.21344L4.61221 6.05508C4.41698 6.25037 4.41703 6.56695 4.61233 6.76218C4.80762 6.95741 5.1242 6.95736 5.31943 6.76206L5.66569 6.41569V10.5041C5.66569 10.7802 5.88955 11.0041 6.16569 11.0041C6.44183 11.0041 6.66569 10.7802 6.66569 10.5041V5.7154Z" fill="white"/>
</svg>
