<svg width="40" height="40" viewBox="0 0 40 40" fill="none" xmlns="http://www.w3.org/2000/svg">
<path d="M14.5833 6C14.5833 6.39517 14.7907 6.76137 15.1295 6.96468L19.2962 9.46468C19.6437 9.67321 20.0766 9.67867 20.4293 9.47898C20.782 9.27928 21 8.90531 21 8.5V7.03785C27.7124 7.54845 33 13.1567 33 20C33 27.1797 27.1797 33 20 33C12.8203 33 7 27.1797 7 20C7 15.3835 9.40562 11.3281 13.0364 9.0202C13.5025 8.72393 13.6402 8.10591 13.3439 7.63982C13.0477 7.17373 12.4296 7.03606 11.9636 7.33233C7.77971 9.99177 5 14.6709 5 20C5 28.2842 11.7157 35 20 35C28.2843 35 35 28.2842 35 20C35 12.0517 28.8181 5.54738 21 5.03277V3.5C21 3.09469 20.782 2.72072 20.4293 2.52103C20.0766 2.32133 19.6437 2.32679 19.2962 2.53532L15.1295 5.03532C14.7907 5.23863 14.5833 5.60483 14.5833 6Z" fill="white"/>
<path fill-rule="evenodd" clip-rule="evenodd" d="M22.9172 12.7469C20.5239 12.7469 18.5838 14.687 18.5838 17.0803V22.9268C18.5838 25.3201 20.5239 27.2602 22.9172 27.2602C25.3104 27.2602 27.2505 25.3201 27.2505 22.9268V17.0803C27.2505 14.687 25.3104 12.7469 22.9172 12.7469ZM20.5838 17.0803C20.5838 15.7916 21.6285 14.7469 22.9172 14.7469C24.2058 14.7469 25.2505 15.7916 25.2505 17.0803V22.9268C25.2505 24.2155 24.2058 25.2602 22.9172 25.2602C21.6285 25.2602 20.5838 24.2155 20.5838 22.9268V17.0803Z" fill="white"/>
<path d="M16.4145 14.3489C16.4145 12.9678 14.7446 12.2763 13.7683 13.253L11.7076 15.3144C11.3171 15.705 11.3172 16.3382 11.7078 16.7287C12.0984 17.1191 12.7316 17.119 13.122 16.7284L14.4145 15.4355V26.2602C14.4145 26.8125 14.8622 27.2602 15.4145 27.2602C15.9668 27.2602 16.4145 26.8125 16.4145 26.2602V14.3489Z" fill="white"/>
</svg>
