<svg width="16" height="16" viewBox="0 0 16 16" fill="none" xmlns="http://www.w3.org/2000/svg">
<path fill-rule="evenodd" clip-rule="evenodd" d="M10.5 3.9C10.5 3.40294 10.9029 3 11.4 3H12.6C13.0971 3 13.5 3.40294 13.5 3.9V12.1C13.5 12.5971 13.0971 13 12.6 13H11.4C10.9029 13 10.5 12.5971 10.5 12.1V8.20147C10.449 8.47881 10.2919 8.73965 10.0285 8.91523L4.21017 12.7941C3.47916 13.2815 2.5 12.7574 2.5 11.8789V4.12109C2.5 3.24252 3.47916 2.71849 4.21017 3.20583L10.0285 7.08472C10.2919 7.26031 10.449 7.52115 10.5 7.79849V3.9ZM11.5 4V12H12.5V4H11.5ZM3.65547 4.03788C3.58901 3.99358 3.5 4.04122 3.5 4.12109V11.8789C3.5 11.9587 3.58901 12.0064 3.65547 11.9621L9.4738 8.08318C9.53318 8.0436 9.53318 7.95636 9.4738 7.91677L3.65547 4.03788Z" fill="white"/>
</svg>
