<svg width="40" height="40" viewBox="0 0 40 40" fill="none" xmlns="http://www.w3.org/2000/svg">
<path fill-rule="evenodd" clip-rule="evenodd" d="M19.7097 2.3759C20.1002 1.98538 20.7334 1.98538 21.1239 2.3759L24.0406 5.29257C24.4311 5.68309 24.4311 6.31626 24.0406 6.70678L21.1239 9.62345C20.7334 10.014 20.1002 10.014 19.7097 9.62345C19.3192 9.23292 19.3192 8.59976 19.7097 8.20924L20.9193 6.99967H19.9673C12.8027 7.01727 7 12.8308 7 19.9996C7 27.1793 12.8203 32.9996 20 32.9996C27.1797 32.9996 33 27.1793 33 19.9996C33 15.3831 30.5944 11.3278 26.9636 9.01987C26.4975 8.7236 26.3598 8.10559 26.6561 7.63949C26.9523 7.1734 27.5704 7.03573 28.0364 7.332C32.2203 9.99145 35 14.6706 35 19.9996C35 28.2839 28.2843 34.9996 20 34.9996C11.7157 34.9996 5 28.2839 5 19.9996C5 11.7274 11.6961 5.01924 19.9638 4.99968L19.9661 4.99967L20.9193 4.99967L19.7097 3.79011C19.3192 3.39959 19.3192 2.76643 19.7097 2.3759ZM22.9172 14.7466C21.6285 14.7466 20.5838 15.7913 20.5838 17.08V22.9265C20.5838 24.2152 21.6285 25.2599 22.9172 25.2599C24.2058 25.2599 25.2505 24.2152 25.2505 22.9265V17.08C25.2505 15.7913 24.2058 14.7466 22.9172 14.7466ZM18.5838 17.08C18.5838 14.6867 20.5239 12.7466 22.9172 12.7466C25.3104 12.7466 27.2505 14.6867 27.2505 17.08V22.9265C27.2505 25.3198 25.3104 27.2599 22.9172 27.2599C20.5239 27.2599 18.5838 25.3198 18.5838 22.9265V17.08ZM13.7683 13.2527C14.7446 12.276 16.4145 12.9675 16.4145 14.3486V26.2599C16.4145 26.8122 15.9668 27.2599 15.4145 27.2599C14.8622 27.2599 14.4145 26.8122 14.4145 26.2599V15.4352L13.122 16.7281C12.7316 17.1187 12.0984 17.1188 11.7078 16.7283C11.3172 16.3379 11.3171 15.7047 11.7076 15.3141L13.7683 13.2527Z" fill="white"/>
</svg>
