<svg width="40" height="40" viewBox="0 0 40 40" fill="none" xmlns="http://www.w3.org/2000/svg">
<path fill-rule="evenodd" clip-rule="evenodd" d="M6 8.66667C6 7.19391 7.19391 6 8.66667 6H31.3332C32.8059 6 33.9998 7.19391 33.9998 8.66667V31.3333C33.9998 32.8061 32.8059 34 31.3332 34H8.66667C7.19391 34 6 32.8061 6 31.3333L6 8.66667ZM8.66667 8C8.29848 8 8 8.29848 8 8.66667V31.3333C8 31.7015 8.29848 32 8.66667 32H31.3332C31.7014 32 31.9998 31.7015 31.9998 31.3333V8.66667C31.9998 8.29848 31.7014 8 31.3332 8H8.66667Z" fill="white"/>
</svg>
