<svg width="24" height="24" viewBox="0 0 24 24" fill="none" xmlns="http://www.w3.org/2000/svg">
<path d="M8.8251 3.5002C8.8251 3.7373 8.9495 3.95702 9.15281 4.079L11.6528 5.579C11.8613 5.70412 12.121 5.7074 12.3327 5.58758C12.5443 5.46776 12.6751 5.24338 12.6751 5.0002V4.20396C16.6808 4.54615 19.8252 7.90599 19.8252 12.0003C19.8252 16.3219 16.3218 19.8253 12.0002 19.8253C7.67857 19.8253 4.17519 16.3219 4.17519 12.0003C4.17519 9.1936 5.65238 6.73141 7.87491 5.34963C8.1915 5.1528 8.28859 4.73659 8.09176 4.41999C7.89493 4.1034 7.47871 4.00631 7.16212 4.20314C4.55996 5.82095 2.8252 8.70774 2.8252 12.0003C2.8252 17.0675 6.93298 21.1753 12.0002 21.1753C17.0674 21.1753 21.1752 17.0675 21.1752 12.0003C21.1752 7.16003 17.4272 3.1952 12.6751 2.8497V2.0002C12.6751 1.75701 12.5443 1.53263 12.3327 1.41281C12.121 1.29299 11.8613 1.29627 11.6528 1.42139L9.15281 2.92139C8.9495 3.04338 8.8251 3.26309 8.8251 3.5002Z" fill="white"/>
<path d="M9.92388 8.5372C9.92388 7.66848 8.8735 7.23351 8.25933 7.84788L6.97169 9.13596C6.70813 9.39961 6.70821 9.82699 6.97185 10.0906C7.2355 10.3541 7.66289 10.354 7.92645 10.0904L8.57388 9.44274V15.7564C8.57388 16.1292 8.87608 16.4314 9.24888 16.4314C9.62167 16.4314 9.92388 16.1292 9.92388 15.7564V8.5372Z" fill="white"/>
<path fill-rule="evenodd" clip-rule="evenodd" d="M13.7505 7.57349C12.2731 7.57349 11.0755 8.77113 11.0755 10.2485V13.7564C11.0755 15.2338 12.2731 16.4314 13.7505 16.4314C15.2279 16.4314 16.4255 15.2338 16.4255 13.7564V10.2485C16.4255 8.77113 15.2279 7.57349 13.7505 7.57349ZM12.4255 10.2485C12.4255 9.51671 13.0187 8.92349 13.7505 8.92349C14.4823 8.92349 15.0755 9.51671 15.0755 10.2485V13.7564C15.0755 14.4882 14.4823 15.0814 13.7505 15.0814C13.0187 15.0814 12.4255 14.4882 12.4255 13.7564V10.2485Z" fill="white"/>
</svg>
