<svg width="40" height="40" viewBox="0 0 40 40" fill="none" xmlns="http://www.w3.org/2000/svg">
<path fill-rule="evenodd" clip-rule="evenodd" d="M20.2903 2.3759C20.6808 2.76643 20.6808 3.39959 20.2903 3.79011L19.0807 4.99967H20.0362C28.3039 5.01924 35 11.7274 35 19.9996C35 28.2839 28.2843 34.9996 20 34.9996C11.7157 34.9996 5 28.2839 5 19.9996C5 14.6706 7.77971 9.99145 11.9636 7.332C12.4296 7.03573 13.0477 7.1734 13.3439 7.63949C13.6402 8.10559 13.5025 8.7236 13.0364 9.01987C9.40562 11.3278 7 15.3831 7 19.9996C7 27.1793 12.8203 32.9996 20 32.9996C27.1797 32.9996 33 27.1793 33 19.9996C33 12.8308 27.1973 7.01727 20.0327 6.99967H19.0807L20.2903 8.20924C20.6808 8.59976 20.6808 9.23292 20.2903 9.62345C19.8998 10.014 19.2666 10.014 18.8761 9.62345L15.9594 6.70678C15.5689 6.31626 15.5689 5.68309 15.9594 5.29257L18.8761 2.3759C19.2666 1.98538 19.8998 1.98538 20.2903 2.3759ZM22.9172 14.7466C21.6285 14.7466 20.5838 15.7913 20.5838 17.08V22.9265C20.5838 24.2152 21.6285 25.2599 22.9172 25.2599C24.2058 25.2599 25.2505 24.2152 25.2505 22.9265V17.08C25.2505 15.7913 24.2058 14.7466 22.9172 14.7466ZM18.5838 17.08C18.5838 14.6867 20.5239 12.7466 22.9172 12.7466C25.3104 12.7466 27.2505 14.6867 27.2505 17.08V22.9265C27.2505 25.3198 25.3104 27.2599 22.9172 27.2599C20.5239 27.2599 18.5838 25.3198 18.5838 22.9265V17.08ZM13.7683 13.2527C14.7446 12.276 16.4145 12.9675 16.4145 14.3486V26.2599C16.4145 26.8122 15.9668 27.2599 15.4145 27.2599C14.8622 27.2599 14.4145 26.8122 14.4145 26.2599V15.4352L13.122 16.7281C12.7316 17.1187 12.0984 17.1188 11.7078 16.7283C11.3172 16.3379 11.3171 15.7047 11.7076 15.3141L13.7683 13.2527Z" fill="white"/>
</svg>
