<svg width="24" height="24" viewBox="0 0 24 24" fill="none" xmlns="http://www.w3.org/2000/svg">
<path fill-rule="evenodd" clip-rule="evenodd" d="M3.8252 5.49995C3.8252 4.57487 4.57512 3.82495 5.5002 3.82495H18.5002C19.4253 3.82495 20.1752 4.57487 20.1752 5.49995V18.5C20.1752 19.425 19.4253 20.175 18.5002 20.175H5.5002C4.57512 20.175 3.8252 19.425 3.8252 18.5V5.49995ZM5.5002 5.17495C5.3207 5.17495 5.1752 5.32046 5.1752 5.49995V18.5C5.1752 18.6794 5.3207 18.825 5.5002 18.825H18.5002C18.6797 18.825 18.8252 18.6794 18.8252 18.5V5.49995C18.8252 5.32046 18.6797 5.17495 18.5002 5.17495H5.5002Z" fill="white"/>
</svg>
