<svg width="40" height="40" viewBox="0 0 40 40" fill="none" xmlns="http://www.w3.org/2000/svg">
<path fill-rule="evenodd" clip-rule="evenodd" d="M11 10.6667C11 9.19391 12.1939 8 13.6667 8H15.3334C16.8061 8 18 9.19391 18 10.6667V29.3333C18 30.8061 16.8061 32 15.3334 32H13.6667C12.1939 32 11 30.8061 11 29.3333V10.6667ZM13.6667 10C13.2985 10 13 10.2985 13 10.6667V29.3333C13 29.7015 13.2985 30 13.6667 30H15.3334C15.7015 30 16 29.7015 16 29.3333V10.6667C16 10.2985 15.7015 10 15.3334 10H13.6667ZM22 10.6667C22 9.19391 23.1939 8 24.6667 8H26.3333C27.8061 8 29 9.19391 29 10.6667V29.3333C29 30.8061 27.8061 32 26.3333 32H24.6667C23.1939 32 22 30.8061 22 29.3333V10.6667ZM24.6667 10C24.2985 10 24 10.2985 24 10.6667V29.3333C24 29.7015 24.2985 30 24.6667 30H26.3333C26.7015 30 27 29.7015 27 29.3333V10.6667C27 10.2985 26.7015 10 26.3333 10H24.6667Z" fill="white"/>
</svg>
