<svg width="24" height="24" viewBox="0 0 24 24" fill="none" xmlns="http://www.w3.org/2000/svg">
<path fill-rule="evenodd" clip-rule="evenodd" d="M6.8252 6.49995C6.8252 5.57487 7.57512 4.82495 8.5002 4.82495H9.5002C10.4253 4.82495 11.1752 5.57487 11.1752 6.49995V17.5C11.1752 18.425 10.4253 19.175 9.5002 19.175H8.5002C7.57512 19.175 6.8252 18.425 6.8252 17.5V6.49995ZM8.5002 6.17495C8.3207 6.17495 8.1752 6.32046 8.1752 6.49995V17.5C8.1752 17.6794 8.3207 17.825 8.5002 17.825H9.5002C9.67969 17.825 9.8252 17.6794 9.8252 17.5V6.49995C9.8252 6.32046 9.67969 6.17495 9.5002 6.17495H8.5002ZM12.8252 6.49995C12.8252 5.57487 13.5751 4.82495 14.5002 4.82495H15.5002C16.4253 4.82495 17.1752 5.57487 17.1752 6.49995V17.5C17.1752 18.425 16.4253 19.175 15.5002 19.175H14.5002C13.5751 19.175 12.8252 18.425 12.8252 17.5V6.49995ZM14.5002 6.17495C14.3207 6.17495 14.1752 6.32046 14.1752 6.49995V17.5C14.1752 17.6794 14.3207 17.825 14.5002 17.825H15.5002C15.6797 17.825 15.8252 17.6794 15.8252 17.5V6.49995C15.8252 6.32046 15.6797 6.17495 15.5002 6.17495H14.5002Z" fill="white"/>
</svg>
