<svg width="16" height="16" viewBox="0 0 16 16" fill="none" xmlns="http://www.w3.org/2000/svg">
<path fill-rule="evenodd" clip-rule="evenodd" d="M2.5 3.9C2.5 3.40294 2.90294 3 3.4 3H4.6C5.09706 3 5.5 3.40294 5.5 3.9V7.79863C5.55093 7.52124 5.7081 7.26033 5.97152 7.08472L11.7899 3.20583C12.5209 2.71849 13.5 3.24252 13.5 4.12109V11.8789C13.5 12.7574 12.5209 13.2815 11.7899 12.7941L5.97152 8.91523C5.7081 8.73962 5.55093 8.47872 5.5 8.20133V12.1C5.5 12.5971 5.09706 13 4.6 13H3.4C2.90294 13 2.5 12.5971 2.5 12.1V3.9ZM3.5 4V12H4.5V4H3.5ZM12.5 4.12109C12.5 4.04122 12.411 3.99358 12.3446 4.03788L6.52622 7.91677C6.46685 7.95636 6.46685 8.0436 6.52622 8.08318L12.3446 11.9621C12.411 12.0064 12.5 11.9587 12.5 11.8789V4.12109Z" fill="white"/>
</svg>
