<svg width="24" height="24" viewBox="0 0 24 24" fill="none" xmlns="http://www.w3.org/2000/svg">
<path fill-rule="evenodd" clip-rule="evenodd" d="M3.8252 6.49995C3.8252 5.57487 4.57512 4.82495 5.5002 4.82495H6.5002C7.42527 4.82495 8.1752 5.57487 8.1752 6.49995V10.8815C8.26733 10.7908 8.37319 10.7093 8.49277 10.6395L17.8066 5.20643C18.8566 4.59394 20.1752 5.35132 20.1752 6.56688V17.433C20.1752 18.6486 18.8566 19.406 17.8066 18.7935L8.49277 13.3604C8.37319 13.2906 8.26733 13.2091 8.1752 13.1184V17.5C8.1752 18.425 7.42527 19.175 6.5002 19.175H5.5002C4.57512 19.175 3.8252 18.425 3.8252 17.5V6.49995ZM5.5002 6.17495C5.3207 6.17495 5.1752 6.32046 5.1752 6.49995V17.5C5.1752 17.6794 5.3207 17.825 5.5002 17.825H6.5002C6.67969 17.825 6.8252 17.6794 6.8252 17.5V6.49995C6.8252 6.32046 6.67969 6.17495 6.5002 6.17495H5.5002ZM18.8252 6.56688C18.8252 6.39323 18.6368 6.28504 18.4868 6.37253L9.173 11.8056C9.02416 11.8924 9.02416 12.1075 9.173 12.1943L18.4868 17.6274C18.6368 17.7149 18.8252 17.6067 18.8252 17.433V6.56688Z" fill="white"/>
</svg>
