<svg width="24" height="24" viewBox="0 0 24 24" fill="none" xmlns="http://www.w3.org/2000/svg">
<path fill-rule="evenodd" clip-rule="evenodd" d="M12 3.82495C12.3727 3.82495 12.675 4.12716 12.675 4.49995V11.325H19.5C19.8727 11.325 20.175 11.6272 20.175 12C20.175 12.3727 19.8727 12.675 19.5 12.675H12.675V19.5C12.675 19.8727 12.3727 20.175 12 20.175C11.6272 20.175 11.325 19.8727 11.325 19.5V12.675H4.49995C4.12716 12.675 3.82495 12.3727 3.82495 12C3.82495 11.6272 4.12716 11.325 4.49995 11.325H11.325V4.49995C11.325 4.12716 11.6272 3.82495 12 3.82495Z" fill="white"/>
</svg>
