<svg width="40" height="40" viewBox="0 0 40 40" fill="none" xmlns="http://www.w3.org/2000/svg">
<path fill-rule="evenodd" clip-rule="evenodd" d="M20.0001 6C20.5524 6 21.0001 6.44772 21.0001 7V19.0001H33C33.5523 19.0001 34 19.4478 34 20.0001C34 20.5524 33.5523 21.0001 33 21.0001H21.0001V33C21.0001 33.5523 20.5524 34 20.0001 34C19.4478 34 19.0001 33.5523 19.0001 33V21.0001H7C6.44772 21.0001 6 20.5524 6 20.0001C6 19.4478 6.44772 19.0001 7 19.0001H19.0001V7C19.0001 6.44772 19.4478 6 20.0001 6Z" fill="white"/>
</svg>
