<svg width="16" height="16" viewBox="0 0 16 16" fill="none" xmlns="http://www.w3.org/2000/svg">
<path fill-rule="evenodd" clip-rule="evenodd" d="M1 2.9C1 2.40294 1.40294 2 1.9 2L10.1001 2.0001C10.5971 2.0001 11.0001 2.40304 11.0001 2.9001L11.0001 4.00009L12.1001 4.0001C12.5971 4.0001 13.0001 4.40304 13.0001 4.9001L13.0001 6.00008L14.1001 6.0001C14.5971 6.0001 15.0001 6.40304 15.0001 6.9001L15 13.1001C15 13.5971 14.5971 14.0001 14.1 14.0001L5.90002 14C5.40297 14 5.00003 13.5971 5.00003 13.1001L5.00002 12.0001L3.90002 12C3.40297 12 3.00003 11.5971 3.00003 11.1001L3.00002 10L1.90002 10C1.40297 10 1.00003 9.59711 1.00003 9.10005L1 2.9ZM3.00002 9.00005L3 4.9C3 4.40294 3.40294 4 3.9 4L10.0001 4.00007L10.0001 3.0001L2 3L2.00002 9.00005L3.00002 9.00005ZM5.00002 11.0001L5 6.9C5 6.40294 5.40294 6 5.90001 6L12.0001 6.00007L12.0001 5.0001L4 5L4.00002 11L5.00002 11.0001ZM6 7L6.00002 13L14 13.0001L14.0001 7.0001L6 7Z" fill="white"/>
</svg>
