<svg width="24" height="24" viewBox="0 0 24 24" fill="none" xmlns="http://www.w3.org/2000/svg">
<path fill-rule="evenodd" clip-rule="evenodd" d="M1.825 4.49995C1.825 3.57488 2.57492 2.82495 3.5 2.82495H16.5C17.4251 2.82495 18.175 3.57487 18.175 4.49995V7.82495H20.5C21.4251 7.82495 22.175 8.57487 22.175 9.49995V14.5C22.175 14.679 22.1039 14.8507 21.9773 14.9772L15.9773 20.9772C15.8507 21.1038 15.679 21.1749 15.5 21.1749L7.5 21.175C6.57492 21.175 5.825 20.425 5.825 19.5V16.175H3.5C2.57492 16.175 1.825 15.425 1.825 14.5V4.49995ZM5.825 14.825V9.49995C5.825 8.57488 6.57492 7.82495 7.5 7.82495H16.825V4.49995C16.825 4.32046 16.6795 4.17495 16.5 4.17495H3.5C3.32051 4.17495 3.175 4.32046 3.175 4.49995V14.5C3.175 14.6794 3.3205 14.825 3.5 14.825H5.825ZM7.5 9.17495C7.32051 9.17495 7.175 9.32046 7.175 9.49995V19.5C7.175 19.6794 7.32051 19.825 7.5 19.825L14.825 19.825V15.5C14.825 14.5749 15.5749 13.825 16.5 13.825H20.825V9.49995C20.825 9.32046 20.6795 9.17495 20.5 9.17495H7.5ZM19.8704 15.175H16.5C16.3205 15.175 16.175 15.3205 16.175 15.5V18.8704L19.8704 15.175Z" fill="white"/>
</svg>
