<svg width="16" height="16" viewBox="0 0 16 16" fill="none" xmlns="http://www.w3.org/2000/svg">
<path fill-rule="evenodd" clip-rule="evenodd" d="M1.5 3.4C1.5 2.90294 1.90294 2.5 2.4 2.5L10.6001 2.5001C11.0971 2.5001 11.5001 2.90304 11.5001 3.4001L11.5 5.49999L13.6 5.50001C14.0971 5.50001 14.5 5.90296 14.5 6.40001L14.5 8.99995C14.5 9.13256 14.4473 9.25974 14.3536 9.35351L10.3536 13.3535C10.2598 13.4473 10.1326 13.5 10 13.5L5.39997 13.5C4.90291 13.5 4.49997 13.097 4.49997 12.6L4.49996 10.5001L2.40002 10.5C1.90297 10.5 1.50003 10.0971 1.50003 9.60005L1.5 3.4ZM4.49996 9.50005L4.49994 6.39991C4.49994 5.90286 4.90289 5.49991 5.39994 5.49991L10.5 5.49997L10.5001 3.5001L2.5 3.5L2.50002 9.50005L4.49996 9.50005ZM5.49994 6.49991L13.5 6.50001L13.5 8.49995H10.4C9.90295 8.49995 9.50001 8.9029 9.50001 9.39995V12.5L5.49997 12.5L5.49994 6.49991ZM10.5 11.7928V9.49995H12.7929L10.5 11.7928Z" fill="white"/>
</svg>
