<svg width="24" height="24" viewBox="0 0 24 24" fill="none" xmlns="http://www.w3.org/2000/svg">
<path d="M2 4.63109C2 3.73026 2.73387 3 3.63914 3H16.3609C17.2661 3 18 3.73026 18 4.63109V6.65H7.63914C5.99456 6.65 4.65 7.97842 4.65 9.63109V16H3.63914C2.73387 16 2 15.2697 2 14.3689V4.63109Z" fill="white"/>
<path d="M7.63914 8C6.73387 8 6 8.73026 6 9.63109V19.3689C6 20.2697 6.73387 21 7.63914 21H15.825V16.5C15.825 15.575 16.575 14.825 17.5 14.825H22V9.63109C22 8.73026 21.2661 8 20.3609 8H7.63914Z" fill="white"/>
<path d="M22 16.175L17.175 21V16.5C17.175 16.3205 17.3206 16.175 17.5 16.175H22Z" fill="white"/>
</svg>
