<svg width="24" height="24" viewBox="0 0 24 24" fill="none" xmlns="http://www.w3.org/2000/svg">
<path fill-rule="evenodd" clip-rule="evenodd" d="M11.9281 4.17617C10.4199 4.27026 9.25182 5.53211 9.27509 7.04197L9.27525 7.05237L9.27517 8.59229C9.30167 9.60387 9.73552 10.5603 10.4801 11.2469C10.5908 11.3476 10.6787 11.4746 10.7326 11.6215C10.9159 12.113 10.6707 12.6626 10.1815 12.8538C6.94971 14.164 5.51941 15.0413 4.84344 15.9385C4.20017 16.7922 4.17526 17.7406 4.17526 19.63V19.6496C4.17526 19.7459 4.25373 19.8252 4.35024 19.8252H19.6583C19.7546 19.8199 19.8275 19.7393 19.8252 19.6471L19.825 19.6385V19.63C19.825 17.7396 19.8001 16.7912 19.1573 15.9377C18.4824 15.0414 17.0549 14.1651 13.8302 12.8564C13.6901 12.8042 13.5671 12.7212 13.4675 12.6163L13.4653 12.6141C13.1022 12.2283 13.1177 11.6191 13.5061 11.2536L13.5124 11.2477C14.2595 10.5625 14.697 9.60383 14.7251 8.59181V6.9011C14.7251 6.86391 14.7249 6.84535 14.7242 6.83113L14.7235 6.81759C14.6787 5.31736 13.4282 4.13661 11.9281 4.17617ZM16.0729 6.77108C16.0024 4.52463 14.125 2.7599 11.878 2.82705L11.8682 2.82734L11.8584 2.82792C9.62635 2.95955 7.89358 4.8234 7.92517 7.05735V8.60891L7.92537 8.61705C7.95389 9.79962 8.39188 10.9278 9.1555 11.8156C6.2848 13.0085 4.64492 13.9586 3.76524 15.1261C2.82414 16.3751 2.82463 17.7852 2.82523 19.4994C2.82524 19.5427 2.82526 19.5862 2.82526 19.63V19.6496C2.82526 20.4917 3.50837 21.1752 4.35024 21.1752H19.6789L19.6875 21.175C20.5236 21.1538 21.191 20.4625 21.175 19.6227C21.175 19.5813 21.175 19.5402 21.175 19.4992C21.1756 17.7843 21.1761 16.3744 20.2357 15.1256C19.3559 13.9572 17.7151 13.0068 14.8419 11.8124C15.6051 10.9262 16.0447 9.79871 16.0748 8.61801L16.0751 8.60939V6.89657C16.0751 6.8668 16.0751 6.81973 16.0729 6.77108Z" fill="white"/>
</svg>
