<svg width="16" height="16" viewBox="0 0 16 16" fill="none" xmlns="http://www.w3.org/2000/svg">
<path fill-rule="evenodd" clip-rule="evenodd" d="M7.95614 3.00058C7.01449 3.05992 6.28541 3.84798 6.29994 4.79076L6.30006 4.79847L6.3 5.79406C6.31691 6.43115 6.59021 7.03345 7.05913 7.46593C7.13792 7.53765 7.20066 7.62825 7.23914 7.73302C7.36961 8.08323 7.19501 8.47473 6.84655 8.61109C4.75394 9.4595 3.84508 10.0218 3.41968 10.5863C3.01851 11.1188 3.00005 11.7089 3.00005 12.9369V12.95C3.00005 12.9773 3.02251 13 3.05005 13H12.9529C12.9807 12.9977 13.0007 12.9743 13 12.9496L12.9997 12.9369C12.9997 11.7083 12.9814 11.1181 12.5806 10.5858C12.1559 10.0218 11.2489 9.46029 9.16116 8.61291C9.06167 8.57568 8.97431 8.51669 8.90357 8.44224L8.90197 8.44055C8.64317 8.16563 8.65421 7.73141 8.93109 7.47086L8.93576 7.46647C9.40633 7.03489 9.68201 6.4311 9.69993 5.79369V4.70059C9.69993 4.67621 9.69982 4.66581 9.69945 4.65847L9.69895 4.64844C9.67098 3.71295 8.89153 2.97653 7.95614 3.00058ZM10.6985 4.61404C10.6515 3.12576 9.40768 1.95674 7.91903 2.00123L7.91178 2.00145L7.90453 2.00187C6.42668 2.08903 5.27932 3.32299 5.3 4.80213V5.80038L5.30015 5.81243C5.31825 6.56306 5.58652 7.28046 6.05564 7.85523C4.24699 8.61172 3.19313 9.22526 2.62101 9.98457C1.99912 10.8099 1.99954 11.7422 2.00003 12.8434C2.00004 12.8745 2.00005 12.9056 2.00005 12.9369V12.95C2.00005 13.5297 2.47039 14 3.05005 14H12.963L12.9758 13.9998C13.5511 13.9853 14.0106 13.5097 13.9999 12.9316C13.9999 12.902 13.9999 12.8726 13.9999 12.8433C14.0004 11.7417 14.0008 10.8095 13.3794 9.98427C12.8072 9.22437 11.7527 8.61062 9.94251 7.85324C10.4114 7.27945 10.6806 6.56254 10.6998 5.81314L10.6999 4.69746C10.6999 4.67838 10.6999 4.64687 10.6985 4.61404Z" fill="white"/>
</svg>
