<svg width="16" height="16" viewBox="0 0 16 16" fill="none" xmlns="http://www.w3.org/2000/svg">
<path fill-rule="evenodd" clip-rule="evenodd" d="M9.46268 8.15952C13.9998 9.99996 13.9998 10.799 13.9998 13.3857C14.0082 13.7169 13.7454 13.9916 13.4142 14C13.4094 14 13.4046 14 13.3998 14H2.59999C2.2688 14 2 13.7313 2 13.4001C2 13.3953 2 13.3905 2 13.3857C2 10.8002 2 9.99996 6.54073 8.15952C6.64512 8.11992 6.69792 8.00235 6.65832 7.89797C6.64752 7.86797 6.62952 7.84158 6.60552 7.81998C5.98273 7.24649 5.62034 6.44624 5.59994 5.6004V4.50741C5.57954 3.18407 6.60552 2.07908 7.9279 2.00109C9.25268 1.9615 10.3591 3.0029 10.3987 4.32745C10.3999 4.35144 10.3999 4.37664 10.3999 4.40063V5.6004C10.3783 6.44624 10.0135 7.24769 9.38948 7.81998C9.30788 7.89677 9.30428 8.02514 9.38108 8.10673C9.40388 8.13072 9.43148 8.14872 9.46268 8.15952Z" fill="white"/>
</svg>
