<svg width="24" height="24" viewBox="0 0 24 24" fill="none" xmlns="http://www.w3.org/2000/svg">
<path fill-rule="evenodd" clip-rule="evenodd" d="M14.194 12.2393C20.9997 14.9999 20.9997 16.1985 20.9997 20.0786C21.0123 20.5753 20.6181 20.9874 20.1213 21C20.1141 21 20.1069 21 20.0997 21H3.89999C3.40319 21 3 20.5969 3 20.1002C3 20.093 3 20.0858 3 20.0786C3 16.2003 3 14.9999 9.81109 12.2393C9.96769 12.1799 10.0469 12.0035 9.98749 11.8469C9.97129 11.802 9.94429 11.7624 9.90829 11.73C8.9741 10.8697 8.43051 9.66936 8.39991 8.40061V6.76112C8.36931 4.7761 9.90829 3.11862 11.8919 3.00164C13.879 2.94225 15.5386 4.50435 15.598 6.49117C15.5998 6.52717 15.5998 6.56496 15.5998 6.60095V8.40061C15.5674 9.66936 15.0202 10.8715 14.0842 11.73C13.9618 11.8451 13.9564 12.0377 14.0716 12.1601C14.1058 12.1961 14.1472 12.2231 14.194 12.2393Z" fill="white"/>
</svg>
