<svg width="24" height="24" viewBox="0 0 24 24" fill="none" xmlns="http://www.w3.org/2000/svg">
<path fill-rule="evenodd" clip-rule="evenodd" d="M0.824997 4.49995C0.824997 3.57488 1.57492 2.82495 2.5 2.82495H15.5C16.4251 2.82495 17.175 3.57487 17.175 4.49995V5.82495H18.5C19.4251 5.82495 20.175 6.57487 20.175 7.49995V8.82495H21.5C22.4251 8.82495 23.175 9.57487 23.175 10.5V20.5C23.175 21.425 22.4251 22.175 21.5 22.175H8.5C7.57492 22.175 6.825 21.425 6.825 20.5V19.175H5.5C4.57492 19.175 3.825 18.425 3.825 17.5V16.175H2.5C1.57492 16.175 0.824997 15.425 0.824997 14.5V4.49995ZM3.825 14.825V7.49995C3.825 6.57488 4.57492 5.82495 5.5 5.82495H15.825V4.49995C15.825 4.32046 15.6795 4.17495 15.5 4.17495H2.5C2.32051 4.17495 2.175 4.32046 2.175 4.49995V14.5C2.175 14.6794 2.3205 14.825 2.5 14.825H3.825ZM8.175 20.5C8.175 20.6794 8.32051 20.825 8.5 20.825H21.5C21.6795 20.825 21.825 20.6794 21.825 20.5V10.5C21.825 10.3205 21.6795 10.175 21.5 10.175H8.5C8.32051 10.175 8.175 10.3205 8.175 10.5V20.5ZM18.825 8.82495H8.5C7.57492 8.82495 6.825 9.57488 6.825 10.5V17.825H5.5C5.32051 17.825 5.175 17.6794 5.175 17.5V7.49995C5.175 7.32046 5.32051 7.17495 5.5 7.17495H18.5C18.6795 7.17495 18.825 7.32046 18.825 7.49995V8.82495Z" fill="white"/>
</svg>
