<svg width="24" height="24" viewBox="0 0 24 24" fill="none" xmlns="http://www.w3.org/2000/svg">
<path fill-rule="evenodd" clip-rule="evenodd" d="M2.5002 2.8252C1.57512 2.8252 0.825195 3.57512 0.825195 4.5002V14.5002C0.825195 15.4253 1.57512 16.1752 2.5002 16.1752H3.8252V17.5002C3.8252 18.4253 4.57512 19.1752 5.5002 19.1752H6.82515V20.5002C6.82515 21.4253 7.57507 22.1752 8.50015 22.1752H21.5001C22.4252 22.1752 23.1751 21.4253 23.1751 20.5002V10.5002C23.1751 9.57513 22.4252 8.82521 21.5001 8.82521H20.1752V7.5002C20.1752 6.57512 19.4253 5.8252 18.5002 5.8252H17.1752V4.5002C17.1752 3.57512 16.4253 2.8252 15.5002 2.8252H2.5002ZM18.8252 8.82521V7.5002C18.8252 7.3207 18.6797 7.1752 18.5002 7.1752H5.5002C5.3207 7.1752 5.1752 7.3207 5.1752 7.5002V17.5002C5.1752 17.6797 5.3207 17.8252 5.5002 17.8252H6.82515L6.82515 10.5002C6.82515 9.57513 7.57507 8.82521 8.50015 8.82521L18.8252 8.82521ZM3.8252 7.5002V14.8252H2.5002C2.3207 14.8252 2.1752 14.6797 2.1752 14.5002V4.5002C2.1752 4.3207 2.3207 4.1752 2.5002 4.1752H15.5002C15.6797 4.1752 15.8252 4.3207 15.8252 4.5002V5.8252H5.5002C4.57512 5.8252 3.8252 6.57512 3.8252 7.5002Z" fill="white"/>
</svg>
