<svg width="16" height="16" viewBox="0 0 16 16" fill="none" xmlns="http://www.w3.org/2000/svg">
<path fill-rule="evenodd" clip-rule="evenodd" d="M1.9 2C1.40294 2 1 2.40294 1 2.9L1.00003 9.10005C1.00003 9.59711 1.40297 10 1.90002 10L3.00002 10L3.00003 11.1001C3.00003 11.5971 3.40297 12 3.90002 12L5.00002 12.0001L5.00003 13.1001C5.00003 13.5971 5.40297 14 5.90002 14L14.1 14.0001C14.5971 14.0001 15 13.5971 15 13.1001L15.0001 6.9001C15.0001 6.40304 14.5971 6.0001 14.1001 6.0001L13.0001 6.00008L13.0001 4.9001C13.0001 4.40304 12.5971 4.0001 12.1001 4.0001L11.0001 4.00009L11.0001 2.9001C11.0001 2.40304 10.5971 2.0001 10.1001 2.0001L1.9 2ZM12.0001 6.00007L12.0001 5.0001L4 5L4.00002 11L5.00002 11.0001L5 6.9C5 6.40294 5.40294 6 5.9 6L12.0001 6.00007ZM3 4.9L3.00002 9.00005L2.00002 9.00005L2 3L10.0001 3.0001L10.0001 4.00007L3.90001 4C3.40295 4 3 4.40294 3 4.9Z" fill="white"/>
</svg>
