<svg width="16" height="16" viewBox="0 0 16 16" fill="none" xmlns="http://www.w3.org/2000/svg">
<path d="M1.5 3.4C1.5 2.90294 1.90294 2.5 2.4 2.5L10.6001 2.5001C11.0971 2.5001 11.5001 2.90304 11.5001 3.4001L11.5001 4.5H5.40012C4.35078 4.5 3.50012 5.35066 3.50012 6.4V10.5001L2.40002 10.5C1.90297 10.5 1.50003 10.0971 1.50003 9.60005L1.5 3.4Z" fill="white"/>
<path d="M5.4 5.5C4.90294 5.5 4.5 5.90294 4.5 6.4L4.50003 12.6001C4.50003 13.0971 4.90297 13.5 5.40002 13.5L10.5001 13.5V10.4C10.5001 9.90295 10.903 9.5 11.4 9.5H14.5001L14.5001 6.4001C14.5001 5.90304 14.0971 5.5001 13.6001 5.5001L5.4 5.5Z" fill="white"/>
<path d="M14.5001 10.5L11.5001 13.5V10.5H14.5001Z" fill="white"/>
</svg>
