<svg width="20" height="20" viewBox="0 0 20 20" fill="none" xmlns="http://www.w3.org/2000/svg">
<path d="M9.88886 7.88886C10.1036 7.67407 10.1036 7.32583 9.88886 7.11104C9.67407 6.89625 9.32583 6.89625 9.11104 7.11104L6.61104 9.61104C6.39625 9.82583 6.39625 10.1741 6.61104 10.3889L9.11104 12.8889C9.32583 13.1036 9.67407 13.1036 9.88886 12.8889C10.1036 12.6741 10.1036 12.3258 9.88886 12.111L8.32777 10.55H13C13.3037 10.55 13.55 10.3037 13.55 9.99995C13.55 9.69619 13.3037 9.44995 13 9.44995H8.32777L9.88886 7.88886Z" fill="white"/>
<path fill-rule="evenodd" clip-rule="evenodd" d="M4.79995 3.44995C4.05437 3.44995 3.44995 4.05437 3.44995 4.79995V15.2C3.44995 15.9455 4.05437 16.55 4.79995 16.55H15.2C15.9455 16.55 16.55 15.9455 16.55 15.2V4.79995C16.55 4.05437 15.9455 3.44995 15.2 3.44995H4.79995ZM4.54995 4.79995C4.54995 4.66188 4.66188 4.54995 4.79995 4.54995H15.2C15.338 4.54995 15.45 4.66188 15.45 4.79995V15.2C15.45 15.338 15.338 15.45 15.2 15.45H4.79995C4.66188 15.45 4.54995 15.338 4.54995 15.2V4.79995Z" fill="white"/>
</svg>
