<svg width="24" height="24" viewBox="0 0 24 24" fill="none" xmlns="http://www.w3.org/2000/svg">
<path fill-rule="evenodd" clip-rule="evenodd" d="M5.49995 3.82495C4.57487 3.82495 3.82495 4.57487 3.82495 5.49995L3.82495 18.5C3.82495 19.425 4.57487 20.175 5.49995 20.175H18.5C19.425 20.175 20.175 19.425 20.175 18.5V5.49995C20.175 4.57487 19.425 3.82495 18.5 3.82495L5.49995 3.82495ZM5.17495 5.49995C5.17495 5.32046 5.32046 5.17495 5.49995 5.17495L18.5 5.17495C18.6794 5.17495 18.825 5.32046 18.825 5.49995L18.825 18.5C18.825 18.6794 18.6794 18.825 18.5 18.825L5.49995 18.825C5.32046 18.825 5.17495 18.6794 5.17495 18.5L5.17495 5.49995ZM7.52265 11.5227C7.25905 11.7863 7.25905 12.2136 7.52265 12.4772L10.5227 15.4772C10.7863 15.7409 11.2136 15.7409 11.4772 15.4772C11.7409 15.2136 11.7409 14.7863 11.4772 14.5227L9.62955 12.675H16C16.3727 12.675 16.675 12.3727 16.675 12C16.675 11.6272 16.3727 11.325 16 11.325L9.62955 11.325L11.4772 9.47725C11.7409 9.21364 11.7409 8.78626 11.4772 8.52265C11.2136 8.25905 10.7863 8.25905 10.5227 8.52265L7.52265 11.5227Z" fill="white"/>
</svg>
