<svg width="24" height="24" viewBox="0 0 24 24" fill="none" xmlns="http://www.w3.org/2000/svg">
<path fill-rule="evenodd" clip-rule="evenodd" d="M4 5.5C4 4.67163 4.67157 4 5.5 4L18.5 4C19.3284 4 20 4.67163 20 5.5V18.5C20 19.3284 19.3284 20 18.5 20H5.5C4.67157 20 4 19.3284 4 18.5L4 5.5ZM7.52271 12.4773C7.25909 12.2136 7.25909 11.7863 7.52271 11.5227L10.5227 8.52271C10.7863 8.25903 11.2137 8.25903 11.4773 8.52271C11.7409 8.78626 11.7409 9.21362 11.4773 9.4773L9.62959 11.325L16 11.325C16.3728 11.325 16.675 11.6272 16.675 12C16.675 12.3728 16.3728 12.6749 16 12.6749H9.62959L11.4773 14.5227C11.7409 14.7863 11.7409 15.2136 11.4773 15.4773C11.2137 15.7408 10.7863 15.7408 10.5227 15.4773L7.52271 12.4773Z" fill="white"/>
</svg>
