<svg width="16" height="16" viewBox="0 0 16 16" fill="none" xmlns="http://www.w3.org/2000/svg">
<path fill-rule="evenodd" clip-rule="evenodd" d="M3.4 2.5C2.90294 2.5 2.5 2.90294 2.5 3.4L2.5 12.6C2.5 13.0971 2.90294 13.5 3.4 13.5H12.6C13.0971 13.5 13.5 13.0971 13.5 12.6V3.4C13.5 2.90294 13.0971 2.5 12.6 2.5L3.4 2.5ZM3.5 3.5L12.5 3.5V12.5H3.5L3.5 3.5ZM5.14645 7.64645C4.95118 7.84171 4.95118 8.15829 5.14645 8.35355L7.14645 10.3536C7.34171 10.5488 7.65829 10.5488 7.85355 10.3536C8.04882 10.1583 8.04882 9.84171 7.85355 9.64645L6.70711 8.5L10.5 8.5C10.7761 8.5 11 8.27614 11 8C11 7.72386 10.7761 7.5 10.5 7.5L6.70711 7.5L7.85355 6.35355C8.04882 6.15829 8.04882 5.84171 7.85355 5.64645C7.65829 5.45118 7.34171 5.45118 7.14645 5.64645L5.14645 7.64645Z" fill="white"/>
</svg>
