<svg width="20" height="20" viewBox="0 0 20 20" fill="none" xmlns="http://www.w3.org/2000/svg">
<path fill-rule="evenodd" clip-rule="evenodd" d="M4.8 3.5C4.08203 3.5 3.5 4.08203 3.5 4.8V15.2C3.5 15.918 4.08203 16.5 4.8 16.5H15.2C15.918 16.5 16.5 15.918 16.5 15.2V4.8C16.5 4.08203 15.918 3.5 15.2 3.5H4.8ZM9.88891 7.88891C10.1037 7.67412 10.1037 7.32588 9.88891 7.11109C9.67412 6.8963 9.32588 6.8963 9.11109 7.11109L6.61109 9.61109C6.3963 9.82588 6.3963 10.1741 6.61109 10.3889L9.11109 12.8889C9.32588 13.1037 9.67412 13.1037 9.88891 12.8889C10.1037 12.6741 10.1037 12.3259 9.88891 12.1111L8.32782 10.55H13C13.3038 10.55 13.55 10.3038 13.55 10C13.55 9.69624 13.3038 9.45 13 9.45H8.32782L9.88891 7.88891Z" fill="white"/>
</svg>
