<svg width="16" height="16" viewBox="0 0 16 16" fill="none" xmlns="http://www.w3.org/2000/svg">
<path fill-rule="evenodd" clip-rule="evenodd" d="M3 3.90002C3 3.40295 3.40294 3 3.89999 3L12.1 3C12.5971 3 13 3.40295 13 3.90002V12.1C13 12.597 12.5971 13 12.1 13H3.89999C3.40294 13 3 12.597 3 12.1L3 3.90002ZM5.14645 8.35352C4.95119 8.15833 4.95119 7.84168 5.14645 7.64648L7.14645 5.64648C7.34171 5.45117 7.65829 5.45117 7.85355 5.64648C8.04881 5.84168 8.04881 6.15833 7.85355 6.35352L6.70711 7.5H10.5C10.7761 7.5 11 7.72388 11 8C11 8.27612 10.7761 8.5 10.5 8.5H6.70711L7.85355 9.64648C8.04881 9.84167 8.04881 10.1583 7.85355 10.3535C7.6583 10.5488 7.34171 10.5488 7.14645 10.3535L5.14645 8.35352Z" fill="white"/>
</svg>
