<svg width="24" height="24" viewBox="0 0 24 24" fill="none" xmlns="http://www.w3.org/2000/svg">
<path fill-rule="evenodd" clip-rule="evenodd" d="M3.50001 5.17495C3.32052 5.17495 3.17501 5.32046 3.17501 5.49995V6.82495L20.825 6.82495V5.49995C20.825 5.32046 20.6795 5.17495 20.5 5.17495L3.50001 5.17495ZM20.825 8.17495L3.17501 8.17495L3.17501 18.5C3.17501 18.6794 3.32052 18.825 3.50001 18.825L20.5 18.825C20.6795 18.825 20.825 18.6794 20.825 18.5V8.17495ZM1.82501 5.49995C1.82501 4.57487 2.57494 3.82495 3.50001 3.82495L20.5 3.82495C21.4251 3.82495 22.175 4.57487 22.175 5.49995V18.5C22.175 19.425 21.4251 20.175 20.5 20.175H14.1296L15.4773 21.5227C15.7409 21.7863 15.7409 22.2136 15.4773 22.4772C15.2137 22.7409 14.7863 22.7409 14.5227 22.4772L12.675 20.6295V22C12.675 22.3727 12.3728 22.6749 12 22.6749C11.6272 22.6749 11.325 22.3727 11.325 22V20.6295L9.47731 22.4772C9.21371 22.7409 8.78632 22.7409 8.52272 22.4772C8.25911 22.2136 8.25911 21.7863 8.52272 21.5227L9.87042 20.175H3.50001C2.57494 20.175 1.82501 19.425 1.82501 18.5L1.82501 5.49995ZM10.1728 10.4096C10.3874 10.2906 10.6497 10.2975 10.8578 10.4276L14.8578 12.9276C15.0551 13.0509 15.175 13.2672 15.175 13.5C15.175 13.7327 15.0551 13.949 14.8578 14.0724L10.8578 16.5724C10.6497 16.7024 10.3874 16.7093 10.1728 16.5903C9.95817 16.4714 9.82501 16.2453 9.82501 16V11C9.82501 10.7546 9.95817 10.5285 10.1728 10.4096ZM11.175 12.2178V14.7821L13.2264 13.5L11.175 12.2178Z" fill="white"/>
</svg>
