<svg width="16" height="16" viewBox="0 0 16 16" fill="none" xmlns="http://www.w3.org/2000/svg">
<path fill-rule="evenodd" clip-rule="evenodd" d="M2.5 3.5L2.5 4.5H13.5V3.5L2.5 3.5ZM13.5 5.5H2.5L2.5 12.5L13.5 12.5V5.5ZM1.5 3.4C1.5 2.90294 1.90294 2.5 2.4 2.5L13.6 2.5C14.0971 2.5 14.5 2.90294 14.5 3.4V12.6C14.5 13.0971 14.0971 13.5 13.6 13.5H9.70711L10.3536 14.1464C10.5488 14.3417 10.5488 14.6583 10.3536 14.8536C10.1583 15.0488 9.84171 15.0488 9.64645 14.8536L8.5 13.7071V14.5C8.5 14.7761 8.27614 15 8 15C7.72386 15 7.5 14.7761 7.5 14.5V13.7071L6.35355 14.8536C6.15829 15.0488 5.84171 15.0488 5.64645 14.8536C5.45118 14.6583 5.45118 14.3417 5.64645 14.1464L6.29289 13.5L2.4 13.5C1.90294 13.5 1.5 13.0971 1.5 12.6L1.5 3.4ZM6.75762 6.89605C6.91659 6.80794 7.11087 6.81304 7.265 6.90938L9.93167 8.57604C10.0779 8.66741 10.1667 8.82765 10.1667 9.00004C10.1667 9.17244 10.0779 9.33267 9.93167 9.42404L7.265 11.0907C7.11087 11.187 6.91659 11.1921 6.75762 11.104C6.59864 11.0159 6.5 10.8485 6.5 10.6667V7.33337C6.5 7.15161 6.59864 6.98417 6.75762 6.89605ZM7.5 8.2355V9.76458L8.72327 9.00004L7.5 8.2355Z" fill="white"/>
</svg>
