<svg width="16" height="16" viewBox="0 0 16 16" fill="none" xmlns="http://www.w3.org/2000/svg">
<path d="M13.1 3C13.5971 3 14 3.40295 14 3.90002V4.5H2V3.90002C2 3.40295 2.40294 3 2.89999 3H13.1Z" fill="white"/>
<path fill-rule="evenodd" clip-rule="evenodd" d="M2 5.5V12.1C2 12.597 2.40294 13 2.89999 13H6.29289L5.64645 13.6464C5.45118 13.8417 5.45118 14.1583 5.64645 14.3536C5.84171 14.5488 6.15829 14.5488 6.35355 14.3536L7.5 13.2071V14C7.5 14.2761 7.72386 14.5 8 14.5C8.27614 14.5 8.5 14.2761 8.5 14V13.2071L9.64645 14.3536C9.84171 14.5488 10.1583 14.5488 10.3536 14.3536C10.5488 14.1583 10.5488 13.8417 10.3536 13.6464L9.70711 13H13.1C13.5971 13 14 12.597 14 12.1V5.5H2ZM6.88326 7.07445C7.01698 7.00034 7.18039 7.00463 7.31003 7.08566L9.80229 8.64332C9.92526 8.72017 9.99996 8.85495 9.99996 8.99996C9.99996 9.14497 9.92526 9.27975 9.80229 9.3566L7.31003 10.9143C7.18039 10.9953 7.01698 10.9996 6.88326 10.9255C6.74953 10.8514 6.66656 10.7105 6.66656 10.5576V7.4423C6.66656 7.28941 6.74953 7.14857 6.88326 7.07445Z" fill="white"/>
</svg>
