<svg width="24" height="24" viewBox="0 0 24 24" fill="none" xmlns="http://www.w3.org/2000/svg">
<path d="M22 5.5C22 4.67163 21.3284 4 20.5 4L3.5 4C2.67157 4 2 4.67163 2 5.5V6.82495H22V5.5Z" fill="white"/>
<path fill-rule="evenodd" clip-rule="evenodd" d="M2 18.5L2 8.17495H22V18.5C22 19.3284 21.3284 20 20.5 20H13.9546L15.4773 21.5227C15.7409 21.7863 15.7409 22.2137 15.4773 22.4773C15.2137 22.7409 14.7863 22.7409 14.5227 22.4773L12.675 20.6296V22C12.675 22.3728 12.3728 22.675 12 22.675C11.6272 22.675 11.325 22.3728 11.325 22V20.6296L9.4773 22.4773C9.21369 22.7409 8.78631 22.7409 8.5227 22.4773C8.2591 22.2137 8.2591 21.7863 8.5227 21.5227L10.0454 20H3.5C2.67157 20 2 19.3284 2 18.5ZM10.9651 10.6285C10.7706 10.5069 10.5255 10.5005 10.3249 10.6117C10.1243 10.7228 9.99988 10.9341 9.99988 11.1634V15.8364C9.99988 16.0658 10.1243 16.277 10.3249 16.3882C10.5255 16.4994 10.7706 16.4929 10.9651 16.3714L14.7035 14.0349C14.8879 13.9196 15 13.7175 15 13.4999C15 13.2824 14.8879 13.0803 14.7035 12.965L10.9651 10.6285Z" fill="white"/>
</svg>
