<svg width="20" height="20" viewBox="0 0 20 20" fill="none" xmlns="http://www.w3.org/2000/svg">
<path fill-rule="evenodd" clip-rule="evenodd" d="M17.0512 8.12048C16.9227 7.63855 16.7781 7.15663 16.6094 6.69076C16.4006 6.24096 16.1677 5.80723 15.9106 5.38956C15.6215 4.99598 15.3163 4.61847 14.995 4.25703C14.6416 3.92771 14.2721 3.61446 13.8946 3.3253C13.493 3.06827 13.0753 2.84337 12.6576 2.62651C12.2239 2.45783 11.7741 2.30522 11.3243 2.18474C10.8665 2.10442 10.4086 2.04016 9.9508 2C9.49297 2 9.03514 2.03213 8.58534 2.08032C8.14357 2.16867 7.70984 2.28112 7.2761 2.40964C6.86647 2.57831 6.46486 2.76305 6.07129 2.97189C5.70181 3.21285 5.34839 3.46988 5.01104 3.74297C4.69779 4.04016 4.4006 4.36145 4.12751 4.68273C3.87851 5.02811 3.65361 5.38956 3.44478 5.75904C3.26807 6.14458 3.11546 6.53012 2.98695 6.93173C2.89056 7.33333 2.81827 7.74297 2.76205 8.15261C2.74598 8.56225 2.74598 8.97189 2.76205 9.37349C2.81827 9.7751 2.89859 10.1687 2.99498 10.5542C3.12349 10.9317 3.2761 11.2932 3.44478 11.6546C3.63755 11.992 3.85442 12.3213 4.07932 12.6345C4.32831 12.9237 4.59337 13.1968 4.8745 13.4618C5.17169 13.6948 5.47691 13.9116 5.79819 14.1124C6.12751 14.2811 6.46486 14.4337 6.81024 14.5703C7.16365 14.6747 7.51707 14.755 7.87048 14.8193C8.23193 14.8514 8.58534 14.8675 8.94679 14.8675C9.3002 14.8353 9.64558 14.7791 9.99096 14.7149C10.3283 14.6185 10.6496 14.498 10.9709 14.3695C11.2761 14.2088 11.5653 14.0402 11.8544 13.8554C12.1195 13.6466 12.3685 13.4297 12.6094 13.1968C12.8263 12.9478 13.0271 12.6908 13.2118 12.4177C13.3725 12.1365 13.5171 11.8474 13.6456 11.5582C13.75 11.261 13.8384 10.9558 13.9026 10.6426C13.9428 10.3373 13.9749 10.0241 13.9829 9.71888C13.9669 9.41365 13.9347 9.10843 13.8865 8.81124C13.8143 8.52209 13.7259 8.23293 13.6215 7.95984C13.501 7.69478 13.3564 7.43775 13.2118 7.18876C13.0432 6.95582 12.8665 6.73092 12.6737 6.52209C12.4649 6.32932 12.256 6.15261 12.0311 5.98394C11.7982 5.83936 11.5572 5.70281 11.3082 5.59036C11.0592 5.49398 10.8022 5.41365 10.5452 5.34137C10.2882 5.29317 10.0231 5.26908 9.76606 5.24498C9.50904 5.24498 9.25201 5.26908 9.00301 5.3012C8.75402 5.35743 8.51305 5.42169 8.28012 5.50201C8.05522 5.59839 7.83835 5.71084 7.62149 5.83133C7.42068 5.96787 7.23594 6.11245 7.05924 6.26506C6.89859 6.43374 6.74598 6.60241 6.60141 6.78715C6.47289 6.97992 6.36044 7.17269 6.26406 7.37349C6.18374 7.58233 6.11145 7.79117 6.04719 8C6.00703 8.20884 5.9749 8.4257 5.95884 8.63454C5.95884 8.84337 5.9749 9.05221 5.999 9.26104C6.03916 9.46185 6.09538 9.65462 6.15161 9.84739C6.23193 10.0321 6.31225 10.2088 6.40863 10.3775C6.51305 10.5382 6.63353 10.6908 6.75402 10.8353C6.89056 10.9639 7.02711 11.0843 7.17169 11.2048C7.3243 11.3012 7.47691 11.3896 7.63755 11.4699C7.79819 11.5341 7.96687 11.5904 8.13554 11.6305C9.98293 12.1205 11.7902 9.94378 10.2721 8.41767C9.69378 7.85542 8.72189 8.45783 8.99498 9.22088C9.06727 9.42972 9.40462 9.91968 8.77811 10.1365C8.03112 10.3855 7.50904 9.40562 7.5492 8.6988C7.55723 8.59438 7.57329 8.48193 7.59739 8.37751C7.62952 8.26506 7.66968 8.16064 7.70984 8.04819C7.76606 7.94378 7.83032 7.83936 7.89458 7.73494C7.9749 7.63855 8.05522 7.54217 8.15161 7.44578C8.25602 7.35743 8.36044 7.27711 8.47289 7.20482C8.59337 7.14056 8.72189 7.07631 8.8504 7.02008C8.98695 6.97992 9.13153 6.93976 9.2761 6.90763C9.42872 6.89157 9.58133 6.8755 9.73394 6.8755C9.89458 6.89157 10.0472 6.90763 10.2078 6.93173C10.3685 6.97189 10.5211 7.02811 10.6817 7.08434C10.8343 7.15663 10.9789 7.24498 11.1315 7.33333C11.2681 7.43775 11.4046 7.5502 11.5412 7.67068C11.6616 7.80723 11.7741 7.95181 11.8865 8.09639C11.9829 8.25703 12.0713 8.4257 12.1516 8.59438C12.2159 8.77912 12.2721 8.96386 12.3203 9.15663C12.3524 9.35743 12.3685 9.55823 12.3845 9.75904C12.3765 9.96787 12.3604 10.1687 12.3283 10.3775C12.2801 10.5863 12.2239 10.7871 12.1516 10.996C12.0633 11.1968 11.9588 11.3896 11.8544 11.5823C11.7259 11.7671 11.5894 11.9438 11.4367 12.1205C11.2681 12.2811 11.0994 12.4337 10.9147 12.5783C10.7139 12.7068 10.5131 12.8273 10.2962 12.9398C10.0713 13.0281 9.83835 13.1084 9.60542 13.1807C9.36446 13.2289 9.11546 13.261 8.86647 13.2932C8.60944 13.2932 8.35241 13.2851 8.09538 13.261C7.83835 13.2129 7.58133 13.1486 7.33233 13.0763C7.08333 12.9799 6.84237 12.8675 6.60141 12.747C6.36847 12.6024 6.14357 12.4418 5.92671 12.2731C5.7259 12.0803 5.53313 11.8795 5.34036 11.6627C5.17169 11.4297 5.01908 11.1888 4.8745 10.9398C4.75402 10.6747 4.64157 10.4016 4.54518 10.1285C4.47289 9.83936 4.41667 9.54217 4.36847 9.24498C4.35241 8.93976 4.35241 8.63454 4.36847 8.32932C4.40863 8.0241 4.47289 7.71888 4.53715 7.41365C4.64157 7.11647 4.75402 6.81928 4.88253 6.53012C5.04317 6.249 5.21988 5.9759 5.40462 5.71084C5.62149 5.46185 5.84639 5.22088 6.07932 4.98795C6.34438 4.77912 6.61747 4.58635 6.89859 4.39357C7.20382 4.23293 7.50904 4.08835 7.83032 3.95984C8.15964 3.86345 8.49699 3.7751 8.84237 3.70281C9.19578 3.67068 9.5492 3.64659 9.90261 3.63855C10.2641 3.67068 10.6175 3.71888 10.9709 3.78313C11.3243 3.87952 11.6697 4 12.0151 4.12851C12.3444 4.29719 12.6737 4.48193 12.9869 4.6747C13.2841 4.90763 13.5733 5.14859 13.8544 5.40562C14.1114 5.69478 14.3524 5.99197 14.5773 6.30522C14.7781 6.64257 14.9629 6.98795 15.1315 7.34137C15.2681 7.71084 15.3805 8.09639 15.4849 8.48193C15.5492 8.8755 15.5894 9.27711 15.6215 9.68675C15.6054 10.0964 15.5733 10.506 15.5251 10.9076C15.4367 11.3092 15.3243 11.7108 15.1958 12.1125C15.0271 12.498 14.8424 12.8755 14.6416 13.245C14.4006 13.5984 14.1436 13.9357 13.8705 14.2731C13.5653 14.5783 13.244 14.8675 12.9066 15.1486C12.5452 15.3896 12.1677 15.6225 11.7821 15.8313C11.3725 16.008 10.8022 16.2651 10.3363 16.3293C10.0954 16.3614 9.90261 16.4177 9.75803 16.4739C9.44478 16.5783 9.21185 16.8675 9.21185 17.2129C9.21185 17.6466 9.56526 18 9.999 18C10.0151 18 10.0311 17.992 10.0472 17.992C10.248 17.992 10.5291 17.9518 10.9468 17.8474C11.4046 17.7269 11.9829 17.4859 12.489 17.2771C12.9629 17.0201 13.4287 16.739 13.8785 16.4337C14.2962 16.0964 14.6898 15.7349 15.0673 15.3574C15.4046 14.9478 15.7259 14.5301 16.0231 14.0884C16.2801 13.6305 16.505 13.1566 16.7139 12.6827C16.8745 12.1928 17.011 11.6948 17.1235 11.1888C17.1878 10.6827 17.2279 10.1687 17.244 9.66265C17.2118 9.15663 17.1556 8.65864 17.0753 8.16064L17.0512 8.12048Z" fill="white"/>
</svg>
