<svg width="24" height="24" viewBox="0 0 24 24" fill="none" xmlns="http://www.w3.org/2000/svg">
<path fill-rule="evenodd" clip-rule="evenodd" d="M20.8169 9.6506C20.6563 9.04819 20.4756 8.44578 20.2647 7.86345C20.0037 7.30121 19.7125 6.75904 19.3912 6.23695C19.0298 5.74498 18.6483 5.27309 18.2467 4.82129C17.8049 4.40964 17.343 4.01807 16.8712 3.65663C16.3691 3.33534 15.8471 3.05422 15.325 2.78313C14.7828 2.57229 14.2205 2.38153 13.6583 2.23092C13.086 2.13052 12.5137 2.0502 11.9414 2C11.3691 2 10.7969 2.04016 10.2346 2.1004C9.6824 2.21084 9.14023 2.35141 8.59806 2.51205C8.08601 2.72289 7.584 2.95382 7.09204 3.21486C6.63019 3.51606 6.18842 3.83735 5.76674 4.17871C5.37517 4.5502 5.00368 4.95181 4.66232 5.35341C4.35107 5.78514 4.06995 6.23695 3.8089 6.69879C3.58802 7.18072 3.39726 7.66265 3.23661 8.16466C3.11613 8.66667 3.02577 9.17871 2.95549 9.69076C2.93541 10.2028 2.93541 10.7149 2.95549 11.2169C3.02577 11.7189 3.12617 12.2108 3.24665 12.6928C3.4073 13.1647 3.59806 13.6165 3.8089 14.0683C4.04987 14.49 4.32095 14.9016 4.60208 15.2932C4.91332 15.6546 5.24465 15.996 5.59605 16.3273C5.96754 16.6185 6.34906 16.8896 6.75067 17.1406C7.16232 17.3514 7.584 17.5422 8.01573 17.7129C8.4575 17.8434 8.89927 17.9438 9.34103 18.0241C9.79284 18.0643 10.2346 18.0843 10.6864 18.0843C11.1282 18.0442 11.5599 17.9739 11.9916 17.8936C12.4133 17.7731 12.8149 17.6225 13.2165 17.4618C13.5981 17.261 13.9595 17.0502 14.321 16.8193C14.6523 16.5582 14.9635 16.2871 15.2647 15.996C15.5358 15.6847 15.7868 15.3635 16.0177 15.0221C16.2185 14.6707 16.3993 14.3092 16.5599 13.9478C16.6904 13.5763 16.8009 13.1948 16.8812 12.8032C16.9314 12.4217 16.9716 12.0301 16.9816 11.6486C16.9615 11.2671 16.9214 10.8855 16.8611 10.5141C16.7708 10.1526 16.6603 9.79116 16.5298 9.4498C16.3792 9.11847 16.1985 8.79719 16.0177 8.48594C15.8069 8.19478 15.586 7.91365 15.345 7.65261C15.084 7.41165 14.823 7.19076 14.5418 6.97992C14.2507 6.7992 13.9495 6.62851 13.6382 6.48795C13.327 6.36747 13.0057 6.26707 12.6844 6.17671C12.3631 6.11647 12.0318 6.08635 11.7105 6.05622C11.3892 6.05622 11.0679 6.08635 10.7567 6.12651C10.4454 6.19679 10.1442 6.27711 9.85308 6.37751C9.57196 6.49799 9.30087 6.63855 9.02979 6.78916C8.77878 6.95984 8.54786 7.14056 8.32698 7.33133C8.12617 7.54217 7.93541 7.75301 7.75469 7.98394C7.59404 8.2249 7.45348 8.46586 7.333 8.71687C7.2326 8.97791 7.14224 9.23896 7.06192 9.5C7.01171 9.76104 6.97155 10.0321 6.95147 10.2932C6.95147 10.5542 6.97155 10.8153 7.00167 11.0763C7.05188 11.3273 7.12216 11.5683 7.19244 11.8092C7.29284 12.0402 7.39324 12.261 7.51372 12.4719C7.64425 12.6727 7.79485 12.8635 7.94545 13.0442C8.11613 13.2048 8.28681 13.3554 8.46754 13.506C8.6583 13.6265 8.84906 13.7369 9.04987 13.8373C9.25067 13.9177 9.46151 13.988 9.67236 14.0382C11.9816 14.6506 14.2406 11.9297 12.343 10.0221C11.6201 9.31928 10.4053 10.0723 10.7467 11.0261C10.837 11.2871 11.2587 11.8996 10.4756 12.1707C9.54183 12.4819 8.88922 11.257 8.93943 10.3735C8.94947 10.243 8.96955 10.1024 8.99967 9.97189C9.03983 9.83132 9.09003 9.7008 9.14023 9.56024C9.21051 9.42972 9.29083 9.2992 9.37115 9.16867C9.47155 9.04819 9.57196 8.92771 9.69244 8.80723C9.82296 8.69679 9.95348 8.59639 10.094 8.50602C10.2446 8.4257 10.4053 8.34538 10.5659 8.2751C10.7366 8.2249 10.9173 8.1747 11.0981 8.13454C11.2888 8.11446 11.4796 8.09438 11.6703 8.09438C11.8712 8.11446 12.0619 8.13454 12.2627 8.16466C12.4635 8.21486 12.6543 8.28514 12.8551 8.35542C13.0459 8.44578 13.2266 8.55622 13.4173 8.66667C13.588 8.79719 13.7587 8.93775 13.9294 9.08835C14.08 9.25904 14.2206 9.43976 14.3611 9.62048C14.4816 9.82129 14.592 10.0321 14.6924 10.243C14.7728 10.4739 14.843 10.7048 14.9033 10.9458C14.9434 11.1968 14.9635 11.4478 14.9836 11.6988C14.9736 11.9598 14.9535 12.2108 14.9133 12.4719C14.8531 12.7329 14.7828 12.9839 14.6924 13.245C14.582 13.496 14.4515 13.7369 14.321 13.9779C14.1603 14.2088 13.9896 14.4297 13.7989 14.6506C13.588 14.8514 13.3772 15.0422 13.1463 15.2229C12.8952 15.3835 12.6442 15.5341 12.3732 15.6747C12.092 15.7851 11.8009 15.8855 11.5097 15.9759C11.2085 16.0361 10.8973 16.0763 10.586 16.1165C10.2647 16.1165 9.94344 16.1064 9.62216 16.0763C9.30087 16.0161 8.97959 15.9357 8.66834 15.8454C8.3571 15.7249 8.05589 15.5843 7.75469 15.4337C7.46352 15.253 7.1824 15.0522 6.91131 14.8414C6.66031 14.6004 6.41935 14.3494 6.17838 14.0783C5.96754 13.7871 5.77678 13.4859 5.59605 13.1747C5.44545 12.8434 5.30489 12.502 5.18441 12.1606C5.09404 11.7992 5.02376 11.4277 4.96352 11.0562C4.94344 10.6747 4.94344 10.2932 4.96352 9.91165C5.01372 9.53012 5.09404 9.14859 5.17437 8.76707C5.30489 8.39558 5.44545 8.0241 5.60609 7.66265C5.8069 7.31125 6.02778 6.96988 6.2587 6.63855C6.52979 6.32731 6.81091 6.0261 7.10208 5.73494C7.4334 5.4739 7.77477 5.23293 8.12617 4.99197C8.5077 4.79116 8.88923 4.61044 9.29083 4.4498C9.70248 4.32932 10.1242 4.21888 10.5559 4.12851C10.9977 4.08835 11.4394 4.05823 11.8812 4.04819C12.333 4.08835 12.7748 4.14859 13.2165 4.22892C13.6583 4.3494 14.09 4.5 14.5218 4.66064C14.9334 4.87149 15.345 5.10241 15.7366 5.34337C16.1081 5.63454 16.4695 5.93574 16.821 6.25703C17.1422 6.61847 17.4434 6.98996 17.7246 7.38153C17.9756 7.80321 18.2065 8.23494 18.4173 8.67671C18.588 9.13855 18.7286 9.62048 18.8591 10.1024C18.9394 10.5944 18.9896 11.0964 19.0298 11.6084C19.0097 12.1205 18.9695 12.6325 18.9093 13.1345C18.7989 13.6365 18.6583 14.1386 18.4977 14.6406C18.2868 15.1225 18.0559 15.5944 17.8049 16.0562C17.5037 16.498 17.1824 16.9197 16.841 17.3414C16.4595 17.7229 16.0579 18.0843 15.6362 18.4357C15.1844 18.7369 14.7125 19.0281 14.2306 19.2892C13.7185 19.51 13.0057 19.8313 12.4234 19.9116C12.1222 19.9518 11.8812 20.0221 11.7005 20.0924C11.3089 20.2229 11.0177 20.5843 11.0177 21.0161C11.0177 21.5582 11.4595 22 12.0017 22C12.0218 22 12.0418 21.99 12.0619 21.99C12.3129 21.99 12.6643 21.9398 13.1864 21.8092C13.7587 21.6586 14.4816 21.3574 15.1141 21.0964C15.7065 20.7751 16.2888 20.4237 16.8511 20.0422C17.3732 19.6205 17.8651 19.1687 18.337 18.6968C18.7587 18.1847 19.1603 17.6626 19.5318 17.1104C19.8531 16.5382 20.1342 15.9458 20.3953 15.3534C20.5961 14.741 20.7667 14.1185 20.9073 13.4859C20.9876 12.8534 21.0378 12.2108 21.0579 11.5783C21.0177 10.9458 20.9475 10.3233 20.8471 9.7008L20.8169 9.6506Z" fill="white"/>
</svg>
