<svg width="16" height="16" viewBox="0 0 16 16" fill="none" xmlns="http://www.w3.org/2000/svg">
<path fill-rule="evenodd" clip-rule="evenodd" d="M13.2913 6.59036C13.1949 6.22892 13.0865 5.86747 12.96 5.51807C12.8034 5.18072 12.6287 4.85542 12.4359 4.54217C12.219 4.24699 11.9901 3.96386 11.7492 3.69277C11.4841 3.44578 11.207 3.21084 10.9239 2.99398C10.6227 2.8012 10.3094 2.63253 9.99615 2.46988C9.67085 2.34337 9.3335 2.22892 8.99615 2.13855C8.65278 2.07831 8.30941 2.03012 7.96603 2C7.62266 2 7.27928 2.0241 6.94194 2.06024C6.61061 2.12651 6.28531 2.21084 5.96001 2.30723C5.65278 2.43373 5.35157 2.57229 5.05639 2.72892C4.77929 2.90964 4.51423 3.10241 4.26121 3.30723C4.02627 3.53012 3.80338 3.77108 3.59856 4.01205C3.41182 4.27108 3.24314 4.54217 3.08651 4.81928C2.95398 5.10843 2.83953 5.39759 2.74314 5.6988C2.67085 6 2.61663 6.30723 2.57447 6.61446C2.56242 6.92169 2.56242 7.22892 2.57447 7.53012C2.61663 7.83133 2.67688 8.12651 2.74916 8.41566C2.84555 8.6988 2.96001 8.96988 3.08651 9.24096C3.23109 9.49398 3.39374 9.74096 3.56242 9.9759C3.74916 10.1928 3.94796 10.3976 4.1588 10.5964C4.38169 10.7711 4.61061 10.9337 4.85157 11.0843C5.09856 11.2108 5.35157 11.3253 5.61061 11.4277C5.87567 11.506 6.14073 11.5663 6.40579 11.6145C6.67688 11.6386 6.94194 11.6506 7.21302 11.6506C7.47808 11.6265 7.73712 11.5843 7.99615 11.5361C8.24916 11.4639 8.49013 11.3735 8.73109 11.2771C8.96001 11.1566 9.17688 11.0301 9.39374 10.8916C9.59254 10.7349 9.77928 10.5723 9.96001 10.3976C10.1227 10.2108 10.2733 10.0181 10.4118 9.81325C10.5323 9.60241 10.6407 9.38554 10.7371 9.16867C10.8154 8.94578 10.8817 8.71687 10.9299 8.48193C10.96 8.25301 10.9841 8.01807 10.9901 7.78916C10.9781 7.56024 10.954 7.33133 10.9178 7.10843C10.8636 6.89157 10.7974 6.6747 10.719 6.46988C10.6287 6.27108 10.5202 6.07831 10.4118 5.89157C10.2853 5.71687 10.1528 5.54819 10.0082 5.39157C9.85157 5.24699 9.69495 5.11446 9.52627 4.98795C9.35157 4.87952 9.17085 4.77711 8.9841 4.69277C8.79736 4.62048 8.60459 4.56024 8.41182 4.50602C8.21904 4.46988 8.02025 4.45181 7.82748 4.43374C7.63471 4.43374 7.44194 4.45181 7.25519 4.4759C7.06844 4.51807 6.88772 4.56627 6.71302 4.62651C6.54435 4.6988 6.3817 4.78313 6.21904 4.87349C6.06844 4.9759 5.92989 5.08434 5.79736 5.1988C5.67688 5.3253 5.56242 5.45181 5.45398 5.59036C5.3576 5.73494 5.27326 5.87952 5.20097 6.03012C5.14073 6.18675 5.08651 6.34337 5.03832 6.5C5.0082 6.65663 4.9841 6.81928 4.97206 6.9759C4.97206 7.13253 4.9841 7.28916 5.00218 7.44578C5.0323 7.59639 5.07447 7.74096 5.11663 7.88554C5.17688 8.0241 5.23712 8.15663 5.30941 8.28313C5.38772 8.40361 5.47808 8.51807 5.56844 8.62651C5.67085 8.72289 5.77326 8.81325 5.88169 8.90361C5.99615 8.9759 6.11061 9.04217 6.23109 9.10241C6.35157 9.1506 6.47808 9.19277 6.60459 9.22289C7.99013 9.59036 9.34555 7.95783 8.207 6.81325C7.77326 6.39157 7.04435 6.84337 7.24917 7.41566C7.30338 7.57229 7.55639 7.93976 7.08651 8.10241C6.52627 8.28916 6.13471 7.55422 6.16483 7.0241C6.17085 6.94578 6.1829 6.86145 6.20097 6.78313C6.22507 6.6988 6.25519 6.62048 6.28531 6.53614C6.32748 6.45783 6.37567 6.37952 6.42386 6.30121C6.4841 6.22892 6.54435 6.15663 6.61663 6.08434C6.69495 6.01807 6.77326 5.95783 6.8576 5.90361C6.94796 5.85542 7.04435 5.80723 7.14073 5.76506C7.24314 5.73494 7.35157 5.70482 7.46001 5.68072C7.57447 5.66867 7.68892 5.65663 7.80338 5.65663C7.92386 5.66867 8.03832 5.68072 8.1588 5.6988C8.27928 5.72892 8.39374 5.77108 8.51423 5.81325C8.62868 5.86747 8.73712 5.93374 8.85157 6C8.95398 6.07831 9.05639 6.16265 9.1588 6.25301C9.24916 6.35542 9.3335 6.46386 9.41784 6.57229C9.49013 6.69277 9.55639 6.81928 9.61663 6.94578C9.66483 7.08434 9.707 7.22289 9.74314 7.36747C9.76724 7.51807 9.77928 7.66867 9.79133 7.81928C9.78531 7.9759 9.77326 8.12651 9.74916 8.28313C9.71302 8.43976 9.67085 8.59036 9.61663 8.74699C9.55037 8.89759 9.47206 9.04217 9.39374 9.18675C9.29736 9.3253 9.19495 9.45783 9.08049 9.59036C8.95398 9.71084 8.82748 9.8253 8.68892 9.93374C8.53832 10.0301 8.38772 10.1205 8.22507 10.2048C8.05639 10.2711 7.88169 10.3313 7.707 10.3855C7.52627 10.4217 7.33953 10.4458 7.15278 10.4699C6.96001 10.4699 6.76724 10.4639 6.57447 10.4458C6.3817 10.4096 6.18892 10.3614 6.00218 10.3072C5.81543 10.2349 5.63471 10.1506 5.45398 10.0602C5.27929 9.95181 5.11061 9.83133 4.94796 9.70482C4.79736 9.56024 4.65278 9.40964 4.5082 9.24699C4.38169 9.07229 4.26724 8.89157 4.1588 8.70482C4.06844 8.50602 3.9841 8.30121 3.91182 8.09639C3.8576 7.87952 3.81543 7.65663 3.77929 7.43374C3.76724 7.20482 3.76724 6.9759 3.77929 6.74699C3.80941 6.51807 3.8576 6.28916 3.90579 6.06024C3.9841 5.83735 4.06844 5.61446 4.16483 5.39759C4.28531 5.18675 4.41784 4.98193 4.55639 4.78313C4.71904 4.59639 4.88772 4.41566 5.06242 4.24096C5.26121 4.08434 5.46603 3.93976 5.67688 3.79518C5.90579 3.6747 6.13471 3.56627 6.37567 3.46988C6.62266 3.39759 6.87567 3.33133 7.13471 3.27711C7.39977 3.25301 7.66483 3.23494 7.92989 3.22892C8.20097 3.25301 8.46603 3.28916 8.73109 3.33735C8.99615 3.40964 9.25519 3.5 9.51423 3.59639C9.76121 3.72289 10.0082 3.86145 10.2431 4.00602C10.466 4.18072 10.6829 4.36145 10.8937 4.55422C11.0865 4.77108 11.2672 4.99398 11.4359 5.22892C11.5865 5.48193 11.7251 5.74096 11.8516 6.00602C11.954 6.28313 12.0383 6.57229 12.1166 6.86145C12.1648 7.15663 12.1949 7.45783 12.219 7.76506C12.207 8.07229 12.1829 8.37952 12.1468 8.68072C12.0805 8.98193 11.9962 9.28313 11.8998 9.58434C11.7733 9.87349 11.6347 10.1566 11.4841 10.4337C11.3034 10.6988 11.1106 10.9518 10.9058 11.2048C10.6769 11.4337 10.4359 11.6506 10.1829 11.8614C9.91182 12.0422 9.62868 12.2169 9.33953 12.3735C9.0323 12.506 8.60459 12.6988 8.25519 12.747C8.07447 12.7711 7.92989 12.8133 7.82145 12.8554C7.58651 12.9337 7.41182 13.1506 7.41182 13.4096C7.41182 13.7349 7.67688 14 8.00218 14C8.01423 14 8.02627 13.994 8.03832 13.994C8.18892 13.994 8.39977 13.9639 8.71302 13.8855C9.05639 13.7952 9.49013 13.6145 9.86965 13.4578C10.2251 13.2651 10.5745 13.0542 10.9118 12.8253C11.2251 12.5723 11.5202 12.3012 11.8034 12.0181C12.0564 11.7108 12.2974 11.3976 12.5202 11.0663C12.713 10.7229 12.8817 10.3675 13.0383 10.012C13.1588 9.64458 13.2612 9.27108 13.3456 8.89157C13.3937 8.51205 13.4239 8.12651 13.4359 7.74699C13.4118 7.36747 13.3696 6.99398 13.3094 6.62048L13.2913 6.59036Z" fill="white"/>
</svg>
