<svg width="20" height="20" viewBox="0 0 20 20" fill="none" xmlns="http://www.w3.org/2000/svg">
<rect opacity="0.3" y="2" width="20" height="16" rx="1.67" fill="white"/>
<path fill-rule="evenodd" clip-rule="evenodd" d="M11.2191 11.4664C15.0001 13.0001 15.0001 13.666 15.0001 15.8216C15.0071 16.0975 14.7881 16.3265 14.5121 16.3335C14.5081 16.3335 14.5041 16.3335 14.5001 16.3335H5.50024C5.22424 16.3335 5.00024 16.1095 5.00024 15.8336C5.00024 15.8296 5.00024 15.8256 5.00024 15.8216C5.00024 13.667 5.00024 13.0001 8.78418 11.4664C8.87118 11.4334 8.91518 11.3355 8.88218 11.2485C8.87318 11.2235 8.85818 11.2015 8.83818 11.1835C8.31919 10.7056 8.01719 10.0387 8.0002 9.33383V8.42301C7.9832 7.32022 8.83818 6.39939 9.94016 6.33441C11.0441 6.30141 11.9661 7.16925 11.9991 8.27304C12.0001 8.29303 12.0001 8.31403 12.0001 8.33402V9.33383C11.9821 10.0387 11.6781 10.7066 11.1581 11.1835C11.0901 11.2475 11.0871 11.3544 11.1511 11.4224C11.1701 11.4424 11.1931 11.4574 11.2191 11.4664Z" fill="white"/>
</svg>
