<svg width="24" height="24" viewBox="0 0 24 24" fill="none" xmlns="http://www.w3.org/2000/svg">
<path d="M12.0002 15.4999C13.9332 15.4999 15.5002 13.9329 15.5002 11.9999C15.5002 10.0669 13.9332 8.49994 12.0002 8.49994C10.0672 8.49994 8.50024 10.0669 8.50024 11.9999C8.50024 13.9329 10.0672 15.4999 12.0002 15.4999Z" fill="white"/>
<path fill-rule="evenodd" clip-rule="evenodd" d="M21 12C21 16.9706 16.9706 21 12 21C7.02944 21 3 16.9706 3 12C3 7.02944 7.02944 3 12 3C16.9706 3 21 7.02944 21 12ZM19.65 12C19.65 16.225 16.225 19.65 12 19.65C7.77502 19.65 4.35 16.225 4.35 12C4.35 7.77502 7.77502 4.35 12 4.35C16.225 4.35 19.65 7.77502 19.65 12Z" fill="white"/>
</svg>
