<svg width="16" height="16" viewBox="0 0 16 16" fill="none" xmlns="http://www.w3.org/2000/svg">
<path d="M8.00024 9.99994C9.10481 9.99994 10.0002 9.10451 10.0002 7.99994C10.0002 6.89537 9.10481 5.99994 8.00024 5.99994C6.89567 5.99994 6.00024 6.89537 6.00024 7.99994C6.00024 9.10451 6.89567 9.99994 8.00024 9.99994Z" fill="white"/>
<path fill-rule="evenodd" clip-rule="evenodd" d="M14 8C14 11.3137 11.3137 14 8 14C4.68629 14 2 11.3137 2 8C2 4.68629 4.68629 2 8 2C11.3137 2 14 4.68629 14 8ZM13 8C13 10.7614 10.7614 13 8 13C5.23858 13 3 10.7614 3 8C3 5.23858 5.23858 3 8 3C10.7614 3 13 5.23858 13 8Z" fill="white"/>
</svg>
