<svg width="20" height="20" viewBox="0 0 20 20" fill="none" xmlns="http://www.w3.org/2000/svg">
<path fill-rule="evenodd" clip-rule="evenodd" d="M11.6113 3.86104C11.8261 3.64625 12.1743 3.64625 12.3891 3.86104L15.8891 7.36104C16.1039 7.57583 16.1039 7.92407 15.8891 8.13886L12.3891 11.6389C12.1743 11.8536 11.8261 11.8536 11.6113 11.6389C11.3965 11.4241 11.3965 11.0758 11.6113 10.861L14.1724 8.29995H8.5002C6.59481 8.29995 5.0502 9.84457 5.0502 11.75C5.0502 13.6553 6.59481 15.2 8.5002 15.2H13.5002C13.804 15.2 14.0502 15.4462 14.0502 15.75C14.0502 16.0537 13.804 16.3 13.5002 16.3H8.5002C5.9873 16.3 3.9502 14.2628 3.9502 11.75C3.9502 9.23706 5.9873 7.19995 8.5002 7.19995H14.1724L11.6113 4.63886C11.3965 4.42407 11.3965 4.07583 11.6113 3.86104Z" fill="white"/>
</svg>
