<svg width="24" height="24" viewBox="0 0 24 24" fill="none" xmlns="http://www.w3.org/2000/svg">
<path fill-rule="evenodd" clip-rule="evenodd" d="M14.0473 4.74775C14.3109 4.48415 14.7383 4.48415 15.0019 4.74775L19.5019 9.24775C19.7655 9.51136 19.7655 9.93874 19.5019 10.2023L15.0019 14.7023C14.7383 14.966 14.3109 14.966 14.0473 14.7023C13.7837 14.4387 13.7837 14.0114 14.0473 13.7478L17.395 10.4H9.52461C7.41212 10.4 5.69961 12.1126 5.69961 14.225C5.69961 16.3375 7.41212 18.05 9.52461 18.05H16.0246C16.3974 18.05 16.6996 18.3523 16.6996 18.725C16.6996 19.0978 16.3974 19.4 16.0246 19.4H9.52461C6.66654 19.4 4.34961 17.0831 4.34961 14.225C4.34961 11.367 6.66654 9.05005 9.52461 9.05005H17.395L14.0473 5.70235C13.7837 5.43874 13.7837 5.01136 14.0473 4.74775Z" fill="white"/>
</svg>
