<svg width="16" height="16" viewBox="0 0 16 16" fill="none" xmlns="http://www.w3.org/2000/svg">
<path fill-rule="evenodd" clip-rule="evenodd" d="M9.14645 3.14645C9.34171 2.95118 9.65829 2.95118 9.85355 3.14645L12.8536 6.14645C13.0488 6.34171 13.0488 6.65829 12.8536 6.85355L9.85355 9.85355C9.65829 10.0488 9.34171 10.0488 9.14645 9.85355C8.95118 9.65829 8.95118 9.34171 9.14645 9.14645L11.2929 7H6.5C5.11929 7 4 8.11929 4 9.5C4 10.8807 5.11929 12 6.5 12H10.5C10.7761 12 11 12.2239 11 12.5C11 12.7761 10.7761 13 10.5 13H6.5C4.567 13 3 11.433 3 9.5C3 7.567 4.567 6 6.5 6H11.2929L9.14645 3.85355C8.95118 3.65829 8.95118 3.34171 9.14645 3.14645Z" fill="white"/>
</svg>
