<svg width="24" height="24" viewBox="0 0 24 24" fill="none" xmlns="http://www.w3.org/2000/svg">
<path fill-rule="evenodd" clip-rule="evenodd" d="M4.0229 4.1977C4.2865 3.9341 4.71389 3.9341 4.97749 4.1977L9.82519 9.04536L9.82519 5.17499C9.82519 4.8022 10.1274 4.49999 10.5002 4.49999C10.873 4.49999 11.1752 4.8022 11.1752 5.17499L11.1752 10.6749C11.1752 10.854 11.1041 11.0257 10.9775 11.1522C10.8509 11.2788 10.6792 11.3499 10.5002 11.3499L5.00019 11.3499C4.62739 11.3499 4.32519 11.0477 4.32519 10.6749C4.32519 10.3021 4.6274 9.99993 5.00019 9.99993L8.87058 9.99994L4.0229 5.1523C3.7593 4.8887 3.75929 4.46131 4.0229 4.1977ZM13.0229 13.1976C13.1495 13.0711 13.3212 12.9999 13.5002 12.9999L19.0002 12.9999C19.373 12.9999 19.6752 13.3022 19.6752 13.6749C19.6752 14.0477 19.373 14.3499 19.0002 14.3499L15.1298 14.3499L19.9775 19.1976C20.2411 19.4612 20.2411 19.8886 19.9775 20.1522C19.7139 20.4158 19.2865 20.4158 19.0229 20.1522L14.1752 15.3045L14.1752 19.1749C14.1752 19.5477 13.873 19.8499 13.5002 19.8499C13.1274 19.8499 12.8252 19.5477 12.8252 19.1749L12.8252 13.6749C12.8252 13.4959 12.8963 13.3242 13.0229 13.1976Z" fill="white"/>
</svg>
