<svg width="16" height="16" viewBox="0 0 16 16" fill="none" xmlns="http://www.w3.org/2000/svg">
<path fill-rule="evenodd" clip-rule="evenodd" d="M2.14645 2.3215C2.34171 2.12623 2.65829 2.12623 2.85355 2.3215L6.5 5.96794L6.5 3.17505C6.5 2.89891 6.72386 2.67505 7 2.67505C7.27614 2.67505 7.5 2.89891 7.5 3.17505L7.5 7.17505C7.5 7.30766 7.44732 7.43483 7.35355 7.5286C7.25979 7.62237 7.13261 7.67505 7 7.67505L3 7.67505C2.72386 7.67505 2.5 7.45119 2.5 7.17505C2.5 6.89891 2.72386 6.67505 3 6.67505H5.79289L2.14645 3.0286C1.95118 2.83334 1.95118 2.51676 2.14645 2.3215ZM9.50001 10.3821L9.50003 13.175C9.50003 13.4511 9.27618 13.675 9.00003 13.675C8.72389 13.675 8.50003 13.4511 8.50003 13.175L8.5 9.17499C8.5 8.89885 8.72386 8.67499 9 8.67499L13 8.67496C13.2761 8.67496 13.5 8.89881 13.5 9.17495C13.5 9.4511 13.2761 9.67496 13 9.67496L10.2071 9.67498L13.8536 13.3215C14.0488 13.5168 14.0488 13.8333 13.8536 14.0286C13.6583 14.2239 13.3417 14.2239 13.1464 14.0286L9.50001 10.3821Z" fill="white"/>
</svg>
