<svg width="24" height="24" viewBox="0 0 24 24" fill="none" xmlns="http://www.w3.org/2000/svg">
<path fill-rule="evenodd" clip-rule="evenodd" d="M4.82501 4.49995C4.82501 3.57487 5.57494 2.82495 6.50001 2.82495H17.5C18.4251 2.82495 19.175 3.57487 19.175 4.49995V5.82495H19.5C20.4251 5.82495 21.175 6.57487 21.175 7.49995V8.49995C21.175 10.5296 19.5297 12.175 17.5 12.175H13C12.8205 12.175 12.675 12.3205 12.675 12.5V13.4317C13.5458 13.7157 14.175 14.5344 14.175 15.5V20.5C14.175 20.8727 13.8728 21.1749 13.5 21.1749H10.5C10.1272 21.1749 9.82501 20.8727 9.82501 20.5V15.5C9.82501 14.5344 10.4542 13.7157 11.325 13.4317V12.5C11.325 11.5749 12.0749 10.825 13 10.825H17.5C18.7841 10.825 19.825 9.78401 19.825 8.49995V7.49995C19.825 7.32046 19.6795 7.17495 19.5 7.17495H19.175V8.49995C19.175 9.42503 18.4251 10.175 17.5 10.175H6.50001C5.57494 10.175 4.82501 9.42503 4.82501 8.49995V4.49995ZM6.50001 4.17495C6.32052 4.17495 6.17501 4.32046 6.17501 4.49995V8.49995C6.17501 8.67944 6.32052 8.82495 6.50001 8.82495H17.5C17.6795 8.82495 17.825 8.67944 17.825 8.49995V4.49995C17.825 4.32046 17.6795 4.17495 17.5 4.17495H6.50001ZM12 14.675C11.5444 14.675 11.175 15.0443 11.175 15.5V19.825H12.825V15.5C12.825 15.0443 12.4556 14.675 12 14.675Z" fill="white"/>
</svg>
