<svg width="16" height="16" viewBox="0 0 16 16" fill="none" xmlns="http://www.w3.org/2000/svg">
<path fill-rule="evenodd" clip-rule="evenodd" d="M4.16666 2.00004L11.8333 2C12.4777 2 13 2.52233 13 3.16667V4H13.3333C13.9777 4 14.5 4.52233 14.5 5.16666V6C14.5 7.38071 13.3807 8.5 12 8.5H8.66667C8.57462 8.5 8.5 8.57462 8.5 8.66666L8.5 9.13378C8.7989 9.30668 9 9.62986 9 10V13.5C9 13.7761 8.77614 14 8.5 14H7.5C7.22386 14 7 13.7761 7 13.5V10C7 9.62985 7.2011 9.30668 7.5 9.13378L7.5 8.66666C7.5 8.02233 8.02234 7.5 8.66667 7.5H12C12.8284 7.5 13.5 6.82842 13.5 6V5.16666C13.5 5.07462 13.4254 5 13.3333 5H13V5.83333C13 6.47766 12.4777 7 11.8333 7H4.16667C3.52233 7 3 6.47766 3 5.83333V3.16671C3 2.52238 3.52233 2.00005 4.16666 2.00004Z" fill="white"/>
</svg>
