<svg width="16" height="16" viewBox="0 0 16 16" fill="none" xmlns="http://www.w3.org/2000/svg">
<path fill-rule="evenodd" clip-rule="evenodd" d="M11.75 3L4.25 3.00004C4.11193 3.00004 4 3.11197 4 3.25004V5.75C4 5.88807 4.11193 6 4.25 6H11.75C11.8881 6 12 5.88807 12 5.75V3.25C12 3.11193 11.8881 3 11.75 3ZM4.24999 2.00004L11.75 2C12.4404 2 13 2.55964 13 3.25V4H13.25C13.9404 4 14.5 4.55964 14.5 5.25V6C14.5 7.38071 13.3807 8.5 12 8.5H8.75C8.61193 8.5 8.5 8.61192 8.5 8.74999L8.5 9.08535C9.0826 9.29127 9.5 9.84689 9.5 10.5V13.5C9.5 13.7761 9.27614 14 9 14H7C6.72386 14 6.5 13.7761 6.5 13.5V10.5C6.5 9.84689 6.9174 9.29127 7.5 9.08535L7.5 8.74999C7.5 8.05964 8.05965 7.5 8.75 7.5H12C12.8284 7.5 13.5 6.82842 13.5 6V5.25C13.5 5.11192 13.3881 5 13.25 5H13V5.75C13 6.44035 12.4404 7 11.75 7H4.25C3.55964 7 3 6.44035 3 5.75V3.25004C3 2.55969 3.55964 2.00005 4.24999 2.00004ZM8 10C7.72386 10 7.5 10.2239 7.5 10.5V13H8.5V10.5C8.5 10.2239 8.27614 10 8 10Z" fill="white"/>
</svg>
