<svg width="24" height="24" viewBox="0 0 24 24" fill="none" xmlns="http://www.w3.org/2000/svg">
<path d="M5 4.59524C5 3.71421 5.73163 3 6.63415 3H17.3659C18.2684 3 19 3.71421 19 4.59524V5.825H19.5C20.4251 5.825 21.175 6.57492 21.175 7.5V8.5C21.175 10.5296 19.5296 12.175 17.5 12.175H13C12.8205 12.175 12.675 12.3205 12.675 12.5V13.6601C13.1644 13.9071 13.5 14.4144 13.5 15V20.5C13.5 20.7761 13.2761 21 13 21H11C10.7239 21 10.5 20.7761 10.5 20.5V15C10.5 14.4144 10.8356 13.9071 11.325 13.6601V12.5C11.325 11.5749 12.0749 10.825 13 10.825H17.5C18.7841 10.825 19.825 9.78406 19.825 8.5V7.5C19.825 7.32051 19.6795 7.175 19.5 7.175H19V8.40476C19 9.28579 18.2684 10 17.3659 10H6.63415C5.73163 10 5 9.28579 5 8.40476V4.59524Z" fill="white"/>
</svg>
