<svg width="16" height="16" viewBox="0 0 16 16" fill="none" xmlns="http://www.w3.org/2000/svg">
<path fill-rule="evenodd" clip-rule="evenodd" d="M1.5 5C1.5 3.89543 2.39543 3 3.5 3C4.60457 3 5.5 3.89543 5.5 5C5.5 5.1719 5.47821 5.33909 5.43718 5.49877L6.69793 6.27148L11.7837 3.88238L11.7859 3.88135L11.8033 3.87304C11.8175 3.86642 11.8367 3.85768 11.8605 3.84743C11.908 3.82698 11.9742 3.80024 12.055 3.77225C12.2148 3.71695 12.4417 3.65327 12.7001 3.62744C13.2184 3.57561 13.941 3.67694 14.4159 4.38927C14.4913 4.50236 14.5174 4.64126 14.4882 4.77401C14.459 4.90675 14.377 5.02189 14.2611 5.09292L5.43716 10.5012C5.4782 10.6609 5.5 10.8281 5.5 11C5.5 12.1046 4.60457 13 3.5 13C2.39543 13 1.5 12.1046 1.5 11C1.5 9.89543 2.39543 9 3.5 9C3.97901 9 4.41837 9.16846 4.76241 9.44879L5.73512 8.85261C6.3717 8.46244 6.3717 7.53757 5.73512 7.14741L4.7624 6.55122C4.41836 6.83154 3.979 7 3.5 7C2.39543 7 1.5 6.10457 1.5 5ZM3.5 4C2.94772 4 2.5 4.44772 2.5 5C2.5 5.55228 2.94772 6 3.5 6C3.88077 6 4.21264 5.78735 4.38195 5.47197C4.45714 5.3319 4.5 5.1717 4.5 5C4.5 4.44772 4.05228 4 3.5 4ZM3.5 10C2.94772 10 2.5 10.4477 2.5 11C2.5 11.5523 2.94772 12 3.5 12C4.05228 12 4.5 11.5523 4.5 11C4.5 10.8283 4.45713 10.6681 4.38192 10.528C4.21261 10.2126 3.88075 10 3.5 10Z" fill="white"/>
<path d="M7.6217 10.1624L11.7837 12.1175L11.7859 12.1186L11.8033 12.1269C11.8175 12.1335 11.8367 12.1422 11.8605 12.1525C11.908 12.1729 11.9742 12.1997 12.055 12.2277C12.2148 12.283 12.4417 12.3466 12.7001 12.3725C13.2184 12.4243 13.941 12.323 14.4159 11.6106C14.4913 11.4975 14.5174 11.3586 14.4882 11.2259C14.459 11.0931 14.377 10.978 14.2611 10.907L10.334 8.50002L7.6217 10.1624Z" fill="white"/>
</svg>
