<svg width="24" height="24" viewBox="0 0 24 24" fill="none" xmlns="http://www.w3.org/2000/svg">
<path fill-rule="evenodd" clip-rule="evenodd" d="M2.3252 7.5002C2.3252 5.74669 3.74669 4.3252 5.5002 4.3252C7.2537 4.3252 8.6752 5.74669 8.6752 7.5002C8.6752 7.86614 8.61304 8.21833 8.49864 8.54625L10.0426 9.49255L17.7084 5.89149L17.7119 5.88978L17.7372 5.87777C17.7578 5.86813 17.786 5.85533 17.8209 5.84028C17.8906 5.81023 17.9882 5.77081 18.1075 5.72951C18.3435 5.64782 18.678 5.55404 19.058 5.51604C19.8202 5.43982 20.8707 5.58912 21.5618 6.62576C21.6636 6.77843 21.6989 6.96596 21.6594 7.14516C21.62 7.32437 21.5094 7.47981 21.3529 7.57569L8.49864 15.4541C8.61304 15.7821 8.6752 16.1342 8.6752 16.5002C8.6752 18.2537 7.2537 19.6752 5.5002 19.6752C3.74669 19.6752 2.3252 18.2537 2.3252 16.5002C2.3252 14.7467 3.74669 13.3252 5.5002 13.3252C6.28042 13.3252 6.99459 13.6068 7.5469 14.073L8.14642 13.7055C9.41959 12.9252 9.41959 11.0754 8.14642 10.2951L7.54673 9.92757C6.99444 10.3936 6.28034 10.6752 5.5002 10.6752C3.74669 10.6752 2.3252 9.2537 2.3252 7.5002ZM5.5002 5.6752C4.49228 5.6752 3.6752 6.49228 3.6752 7.5002C3.6752 8.50811 4.49228 9.3252 5.5002 9.3252C6.15774 9.3252 6.73475 8.9779 7.05683 8.4535C7.22696 8.17652 7.3252 7.85086 7.3252 7.5002C7.3252 6.49228 6.50811 5.6752 5.5002 5.6752ZM5.5002 14.6752C4.49228 14.6752 3.6752 15.4923 3.6752 16.5002C3.6752 17.5081 4.49228 18.3252 5.5002 18.3252C6.50811 18.3252 7.3252 17.5081 7.3252 16.5002C7.3252 16.1495 7.22695 15.8239 7.05683 15.5469C6.73474 15.0225 6.15773 14.6752 5.5002 14.6752Z" fill="white"/>
<path d="M11.3238 15.1097L17.7084 18.1089L17.7119 18.1106L17.7372 18.1226C17.7578 18.1322 17.786 18.145 17.8209 18.1601C17.8906 18.1901 17.9882 18.2296 18.1075 18.2709C18.3435 18.3526 18.678 18.4463 19.058 18.4843C19.8202 18.5606 20.8707 18.4113 21.5618 17.3746C21.6636 17.2219 21.6989 17.0344 21.6594 16.8552C21.62 16.676 21.5094 16.5206 21.3529 16.4247L15.2656 12.6937L11.3238 15.1097Z" fill="white"/>
</svg>
