<svg width="24" height="24" viewBox="0 0 24 24" fill="none" xmlns="http://www.w3.org/2000/svg">
<path fill-rule="evenodd" clip-rule="evenodd" d="M2.68164 4.85571L2.68164 16.8557C2.68164 18.7887 3.5771 20.3557 4.68167 20.3557C5.78624 20.3557 6.68167 18.7887 6.68167 16.8557C6.68167 16.495 6.96015 16.1807 7.32094 16.1807H18.6816V4.85571C18.6816 4.02734 18.0101 3.35571 17.1816 3.35571L15.8566 3.35571V2.35566C15.8566 1.98287 15.5544 1.68066 15.1816 1.68066C14.8088 1.68066 14.5066 1.98287 14.5066 2.35566V3.35571L12.8566 3.35571V2.35566C12.8566 1.98287 12.5544 1.68066 12.1816 1.68066C11.8088 1.68066 11.5066 1.98287 11.5066 2.35566V3.35571L9.85659 3.35571V2.35566C9.85659 1.98287 9.55438 1.68066 9.18159 1.68066C8.8088 1.68066 8.50659 1.98287 8.50659 2.35566V3.35571L6.85659 3.35571V2.35566C6.85659 1.98287 6.55438 1.68066 6.18159 1.68066C5.8088 1.68066 5.50659 1.98287 5.50659 2.35566V3.35571H4.18164C3.35321 3.35571 2.68164 4.02734 2.68164 4.85571ZM6.85659 5.35579C6.85659 5.72858 6.55438 6.03079 6.18159 6.03079C5.8088 6.03079 5.50659 5.72858 5.50659 5.35579C5.50659 4.98299 5.8088 4.68079 6.18159 4.68079C6.55438 4.68079 6.85659 4.98299 6.85659 5.35579ZM9.85659 5.35579C9.85659 5.72858 9.55438 6.03079 9.18159 6.03079C8.8088 6.03079 8.50659 5.72858 8.50659 5.35579C8.50659 4.98299 8.8088 4.68079 9.18159 4.68079C9.55438 4.68079 9.85659 4.98299 9.85659 5.35579ZM12.8566 5.35579C12.8566 5.72858 12.5544 6.03079 12.1816 6.03079C11.8088 6.03079 11.5066 5.72858 11.5066 5.35579C11.5066 4.98299 11.8088 4.68079 12.1816 4.68079C12.5544 4.68079 12.8566 4.98299 12.8566 5.35579ZM15.8566 5.35579C15.8566 5.72858 15.5544 6.03079 15.1816 6.03079C14.8088 6.03079 14.5066 5.72858 14.5066 5.35579C14.5066 4.98299 14.8088 4.68079 15.1816 4.68079C15.5544 4.68079 15.8566 4.98299 15.8566 5.35579Z" fill="white"/>
<path d="M8.00126 17.5306C7.91858 18.4416 7.66856 19.2994 7.26798 20.0004C7.20024 20.1189 7.12466 20.2382 7.04126 20.3557H18.6816C19.6543 20.3557 20.4648 19.1407 20.6445 17.5306H8.00126Z" fill="white"/>
</svg>
