<svg width="24" height="24" viewBox="0 0 24 24" fill="none" xmlns="http://www.w3.org/2000/svg">
<path fill-rule="evenodd" clip-rule="evenodd" d="M6.25026 1.5752C6.62305 1.5752 6.92526 1.8774 6.92526 2.2502V3.07519L8.57526 3.07519V2.2502C8.57526 1.8774 8.87747 1.5752 9.25026 1.5752C9.62305 1.5752 9.92526 1.8774 9.92526 2.2502V3.07519L11.5753 3.07519V2.2502C11.5753 1.8774 11.8775 1.5752 12.2503 1.5752C12.623 1.5752 12.9253 1.8774 12.9253 2.2502V3.07519L14.5753 3.07519V2.2502C14.5753 1.8774 14.8775 1.5752 15.2503 1.5752C15.623 1.5752 15.9253 1.8774 15.9253 2.2502V3.07519H17.2502C18.1753 3.07519 18.9252 3.82511 18.9252 4.75019V16.0752H20.9252V16.7502C20.9252 17.6607 20.7421 18.5184 20.4146 19.1734C20.1073 19.788 19.5578 20.4252 18.7502 20.4252H4.7502C3.94257 20.4252 3.39312 19.788 3.0858 19.1734C2.75829 18.5184 2.5752 17.6607 2.5752 16.7502L2.5752 4.75019C2.5752 3.82511 3.32512 3.07519 4.2502 3.07519L5.57526 3.07519V2.2502C5.57526 1.8774 5.87747 1.5752 6.25026 1.5752ZM5.57526 4.42519H4.2502C4.0707 4.42519 3.9252 4.57069 3.9252 4.75019L3.9252 16.7502C3.9252 17.4965 4.07789 18.1389 4.29327 18.5696C4.52884 19.0408 4.72939 19.0752 4.7502 19.0752C4.771 19.0752 4.97155 19.0408 5.20712 18.5696C5.4225 18.1389 5.5752 17.4965 5.5752 16.7502V16.0752L17.5752 16.0752L17.5752 4.75019C17.5752 4.57069 17.4297 4.42519 17.2502 4.42519H15.9253V5.2502C15.9253 5.62299 15.623 5.9252 15.2503 5.9252C14.8775 5.9252 14.5753 5.62299 14.5753 5.2502V4.42519L12.9253 4.42519V5.2502C12.9253 5.62299 12.623 5.9252 12.2503 5.9252C11.8775 5.9252 11.5753 5.62299 11.5753 5.2502V4.42519L9.92526 4.42519V5.2502C9.92526 5.62299 9.62305 5.9252 9.25026 5.9252C8.87747 5.9252 8.57526 5.62299 8.57526 5.2502V4.42519H6.92526V5.2502C6.92526 5.62299 6.62305 5.9252 6.25026 5.9252C5.87747 5.9252 5.57526 5.62299 5.57526 5.2502V4.42519ZM6.46191 19.0752H18.7502C18.771 19.0752 18.9715 19.0408 19.2071 18.5696C19.3542 18.2754 19.4721 17.8825 19.532 17.4252L6.89102 17.4252C6.82831 18.0365 6.68087 18.6036 6.46191 19.0752Z" fill="white"/>
</svg>
