<svg width="16" height="16" viewBox="0 0 16 16" fill="none" xmlns="http://www.w3.org/2000/svg">
<path fill-rule="evenodd" clip-rule="evenodd" d="M4.75006 1.25C5.0262 1.25 5.25006 1.47386 5.25006 1.75V2.24999L6.75006 2.24999V1.75C6.75006 1.47386 6.97392 1.25 7.25006 1.25C7.52621 1.25 7.75006 1.47386 7.75006 1.75V2.24999L9.25006 2.24999V1.75C9.25006 1.47386 9.47392 1.25 9.75006 1.25C10.0262 1.25 10.2501 1.47386 10.2501 1.75V2.24999L11.85 2.24999C12.3471 2.24999 12.75 2.65293 12.75 3.14999V10.75H13.75V11.25C13.75 11.8631 13.6268 12.4428 13.4043 12.8878C13.1968 13.3029 12.8176 13.75 12.25 13.75L3.25 13.75C2.68244 13.75 2.30322 13.3029 2.09568 12.8878C1.87319 12.4428 1.75 11.8631 1.75 11.25L1.75 3.14999C1.75 2.65293 2.15294 2.24999 2.65 2.24999L4.25006 2.24999V1.75C4.25006 1.47386 4.47392 1.25 4.75006 1.25ZM4.25006 3.24999L2.75 3.24999L2.75 11.25C2.75 11.7415 2.85067 12.1617 2.99011 12.4406C3.05975 12.5799 3.12977 12.6655 3.18368 12.7111C3.20947 12.7329 3.22798 12.7426 3.23785 12.7466C3.24272 12.7486 3.2458 12.7494 3.24728 12.7497C3.24809 12.7498 3.24869 12.7499 3.24916 12.75C3.24893 12.75 3.2495 12.75 3.24916 12.75C3.24969 12.75 3.25131 12.75 3.25272 12.7497C3.2542 12.7494 3.25728 12.7486 3.26215 12.7466C3.27202 12.7426 3.29053 12.7329 3.31632 12.7111C3.37024 12.6655 3.44025 12.5799 3.50989 12.4406C3.64933 12.1617 3.75 11.7415 3.75 11.25V10.75L11.75 10.75V3.24999L10.2501 3.24999V3.75C10.2501 4.02614 10.0262 4.25 9.75006 4.25C9.47392 4.25 9.25006 4.02614 9.25006 3.75V3.24999L7.75006 3.24999V3.75C7.75006 4.02614 7.52621 4.25 7.25006 4.25C6.97392 4.25 6.75006 4.02614 6.75006 3.75V3.24999L5.25006 3.24999V3.75C5.25006 4.02614 5.0262 4.25 4.75006 4.25C4.47392 4.25 4.25006 4.02614 4.25006 3.75V3.24999ZM12.7137 11.75L4.72211 11.75C4.68074 12.1153 4.59419 12.4568 4.46823 12.75L12.25 12.75C12.2505 12.75 12.2513 12.75 12.2527 12.7497C12.2542 12.7494 12.2573 12.7486 12.2622 12.7466C12.272 12.7426 12.2905 12.7329 12.3163 12.7111C12.3702 12.6655 12.4402 12.5799 12.5099 12.4406C12.5991 12.2622 12.6725 12.0258 12.7137 11.75Z" fill="white"/>
</svg>
