<svg width="16" height="16" viewBox="0 0 16 16" fill="none" xmlns="http://www.w3.org/2000/svg">
<path fill-rule="evenodd" clip-rule="evenodd" d="M3.76465 13.7646C2.93622 13.7646 2.26465 12.6454 2.26465 11.2646L2.26465 3.66455C2.26465 3.16748 2.6676 2.76465 3.16467 2.76465L4.26465 2.76465V1.76465C4.26465 1.48851 4.48851 1.26465 4.76465 1.26465C5.04079 1.26465 5.26465 1.48851 5.26465 1.76465V2.76465L6.76465 2.76465V1.76465C6.76465 1.48851 6.98851 1.26465 7.26465 1.26465C7.54079 1.26465 7.76465 1.48851 7.76465 1.76465V2.76465L9.26465 2.76465V1.76465C9.26465 1.48851 9.48851 1.26465 9.76465 1.26465C10.0408 1.26465 10.2646 1.48851 10.2646 1.76465V2.76465L11.3646 2.76465C11.8617 2.76465 12.2646 3.16748 12.2646 3.66455V10.7646H5.76465C5.48851 10.7646 5.26465 10.9885 5.26465 11.2646C5.26465 12.6454 4.59308 13.7646 3.76465 13.7646ZM5.26465 4.26465C5.26465 4.54079 5.04079 4.76465 4.76465 4.76465C4.48851 4.76465 4.26465 4.54079 4.26465 4.26465C4.26465 3.98851 4.48851 3.76465 4.76465 3.76465C5.04079 3.76465 5.26465 3.98851 5.26465 4.26465ZM10.2646 4.26465C10.2646 4.54079 10.0408 4.76465 9.76465 4.76465C9.48851 4.76465 9.26465 4.54079 9.26465 4.26465C9.26465 3.98851 9.48851 3.76465 9.76465 3.76465C10.0408 3.76465 10.2646 3.98851 10.2646 4.26465ZM7.76465 4.26465C7.76465 4.54079 7.54079 4.76465 7.26465 4.76465C6.98851 4.76465 6.76465 4.54079 6.76465 4.26465C6.76465 3.98851 6.98851 3.76465 7.26465 3.76465C7.54079 3.76465 7.76465 3.98851 7.76465 4.26465Z" fill="white"/>
<path d="M6.24045 11.7646C6.17645 12.4221 5.98626 13.041 5.68275 13.5469C5.63893 13.6199 5.59115 13.6929 5.53943 13.7646H11.7646C12.4903 13.7646 13.0956 12.9058 13.2346 11.7646H6.24045Z" fill="white"/>
</svg>
