<svg width="24" height="24" viewBox="0 0 24 24" fill="none" xmlns="http://www.w3.org/2000/svg">
<path fill-rule="evenodd" clip-rule="evenodd" d="M10.5002 2.8252C6.26141 2.8252 2.8252 6.26141 2.8252 10.5002C2.8252 14.739 6.26141 18.1752 10.5002 18.1752C12.1317 18.1752 13.6449 17.6656 14.8884 16.7976L19.5456 21.4548C20.0728 21.982 20.9276 21.982 21.4548 21.4548C21.982 20.9276 21.982 20.0728 21.4548 19.5456L16.7976 14.8884C17.6656 13.6449 18.1752 12.1317 18.1752 10.5002C18.1752 6.26141 14.739 2.8252 10.5002 2.8252ZM4.1752 10.5002C4.1752 7.00699 7.00699 4.1752 10.5002 4.1752C13.9934 4.1752 16.8252 7.00699 16.8252 10.5002C16.8252 12.247 16.118 13.8273 14.9726 14.9726C13.8273 16.118 12.247 16.8252 10.5002 16.8252C7.00699 16.8252 4.1752 13.9934 4.1752 10.5002Z" fill="white"/>
</svg>
