<svg width="24" height="24" viewBox="0 0 24 24" fill="none" xmlns="http://www.w3.org/2000/svg">
<path fill-rule="evenodd" clip-rule="evenodd" d="M10.5 4.17495C7.00675 4.17495 4.17495 7.00675 4.17495 10.5C4.17495 13.9932 7.00675 16.825 10.5 16.825C12.2467 16.825 13.8271 16.1177 14.9724 14.9724C16.1177 13.8271 16.825 12.2467 16.825 10.5C16.825 7.00675 13.9932 4.17495 10.5 4.17495ZM2.82495 10.5C2.82495 6.26117 6.26117 2.82495 10.5 2.82495C14.7387 2.82495 18.175 6.26117 18.175 10.5C18.175 12.376 17.5011 14.0958 16.3834 15.4288L20.9772 20.0227C21.2409 20.2863 21.2409 20.7136 20.9772 20.9772C20.7136 21.2409 20.2863 21.2409 20.0227 20.9772L15.4288 16.3834C14.0958 17.5011 12.376 18.175 10.5 18.175C6.26117 18.175 2.82495 14.7387 2.82495 10.5Z" fill="white"/>
</svg>
