<svg width="16" height="16" viewBox="0 0 16 16" fill="none" xmlns="http://www.w3.org/2000/svg">
<path fill-rule="evenodd" clip-rule="evenodd" d="M7 3C4.79086 3 3 4.79086 3 7C3 9.20914 4.79086 11 7 11C8.10471 11 9.10402 10.5528 9.82843 9.82843C10.5528 9.10402 11 8.10471 11 7C11 4.79086 9.20914 3 7 3ZM2 7C2 4.23858 4.23858 2 7 2C9.76142 2 12 4.23858 12 7C12 8.20043 11.5765 9.30266 10.8715 10.1643L13.8536 13.1464C14.0488 13.3417 14.0488 13.6583 13.8536 13.8536C13.6583 14.0488 13.3417 14.0488 13.1464 13.8536L10.1643 10.8715C9.30266 11.5765 8.20043 12 7 12C4.23858 12 2 9.76142 2 7Z" fill="white"/>
</svg>
