<svg width="16" height="16" viewBox="0 0 16 16" fill="none" xmlns="http://www.w3.org/2000/svg">
<path fill-rule="evenodd" clip-rule="evenodd" d="M7 2C4.23858 2 2 4.23858 2 7C2 9.76142 4.23858 12 7 12C8.01888 12 8.96702 11.6949 9.75737 11.1715L12.7929 14.2071C13.1835 14.5976 13.8166 14.5976 14.2071 14.2071C14.5977 13.8166 14.5977 13.1834 14.2071 12.7929L11.1716 9.7573C11.6949 8.96696 12 8.01885 12 7C12 4.23858 9.76142 2 7 2ZM3 7C3 4.79086 4.79086 3 7 3C9.20914 3 11 4.79086 11 7C11 8.10471 10.5528 9.10402 9.82843 9.82843C9.10402 10.5528 8.10471 11 7 11C4.79086 11 3 9.20914 3 7Z" fill="white"/>
</svg>
