<svg width="24" height="24" viewBox="0 0 24 24" fill="none" xmlns="http://www.w3.org/2000/svg">
<path fill-rule="evenodd" clip-rule="evenodd" d="M3.82495 5.49995C3.82495 4.57487 4.57487 3.82495 5.49995 3.82495H18.5C19.425 3.82495 20.175 4.57487 20.175 5.49995V18.5C20.175 19.425 19.425 20.175 18.5 20.175H5.49995C4.57487 20.175 3.82495 19.425 3.82495 18.5V5.49995ZM5.49995 5.17495C5.32046 5.17495 5.17495 5.32046 5.17495 5.49995V18.5C5.17495 18.6794 5.32046 18.825 5.49995 18.825H18.5C18.6794 18.825 18.825 18.6794 18.825 18.5V5.49995C18.825 5.32046 18.6794 5.17495 18.5 5.17495H5.49995Z" fill="white"/>
</svg>
