<svg width="24" height="24" viewBox="0 0 24 24" fill="none" xmlns="http://www.w3.org/2000/svg">
<path fill-rule="evenodd" clip-rule="evenodd" d="M12.2298 3.18445C12.1029 3.05753 11.8972 3.05753 11.7702 3.18445L3.18445 11.7702C3.05753 11.8972 3.05753 12.1029 3.18445 12.2298L11.7702 20.8156C11.8972 20.9426 12.1029 20.9426 12.2299 20.8156L20.8156 12.2299C20.9426 12.1029 20.9426 11.8972 20.8156 11.7702L12.2298 3.18445ZM10.8156 2.22985C11.4698 1.57573 12.5303 1.57572 13.1844 2.22985L21.7702 10.8156C22.4244 11.4698 22.4244 12.5303 21.7702 13.1845L13.1845 21.7702C12.5303 22.4244 11.4698 22.4244 10.8156 21.7702L2.22985 13.1844C1.57573 12.5303 1.57573 11.4698 2.22985 10.8156L10.8156 2.22985Z" fill="white"/>
</svg>
