<svg width="24" height="24" viewBox="0 0 24 24" fill="none" xmlns="http://www.w3.org/2000/svg">
<path fill-rule="evenodd" clip-rule="evenodd" d="M11.0195 2.53578C11.3996 1.68989 12.6005 1.6899 12.9806 2.53578L15.3743 7.86317L21.1857 8.49086C22.1084 8.59053 22.4797 9.73406 21.7915 10.3568L17.4602 14.2759L18.6582 19.9899C18.8486 20.8978 17.8768 21.6044 17.0718 21.1434L12.0001 18.2386L6.92829 21.1434C6.12332 21.6044 5.15154 20.8978 5.3419 19.9899L6.53993 14.2759L2.20862 10.3568C1.52041 9.73406 1.8917 8.59053 2.81444 8.49086L8.6258 7.86317L11.0195 2.53578ZM12.0001 3.64735L9.7926 8.56024C9.63618 8.90837 9.30692 9.14746 8.92748 9.18844L3.56914 9.7672L7.56272 13.3807C7.84602 13.6371 7.97198 14.0245 7.89358 14.3984L6.78886 19.6675L11.4658 16.9888C11.7967 16.7993 12.2034 16.7993 12.5343 16.9888L17.2113 19.6675L16.1065 14.3984C16.0281 14.0245 16.1541 13.6371 16.4374 13.3807L20.431 9.7672L15.0726 9.18844C14.6932 9.14746 14.3639 8.90837 14.2075 8.56024L12.0001 3.64735Z" fill="white"/>
</svg>
