<svg width="16" height="16" viewBox="0 0 16 16" fill="none" xmlns="http://www.w3.org/2000/svg">
<path fill-rule="evenodd" clip-rule="evenodd" d="M7.30065 1.67022C7.57171 1.06695 8.42823 1.06696 8.69929 1.67022L10.2833 5.19568L14.1291 5.61106C14.7872 5.68214 15.0519 6.49768 14.5611 6.94178L11.6949 9.53526L12.4877 13.3165C12.6234 13.964 11.9304 14.4679 11.3563 14.1392L7.99997 12.2169L4.64364 14.1391C4.06956 14.4679 3.37651 13.964 3.51226 13.3165L4.30506 9.53527L1.4388 6.94178C0.947982 6.49768 1.21278 5.68214 1.87086 5.61106L5.7166 5.19568L7.30065 1.67022ZM7.99997 2.55376L6.57394 5.72752C6.46239 5.97579 6.22756 6.1463 5.95695 6.17553L2.49559 6.5494L5.0753 8.8836C5.27734 9.06641 5.36717 9.34273 5.31126 9.60941L4.59763 13.0131L7.61894 11.2827C7.85497 11.1475 8.14496 11.1475 8.38099 11.2827L11.4023 13.0131L10.6887 9.60941C10.6328 9.34273 10.7226 9.06641 10.9246 8.8836L13.5044 6.5494L10.043 6.17553C9.77238 6.14631 9.53755 5.97579 9.426 5.72752L7.99997 2.55376Z" fill="white"/>
</svg>
