<svg width="24" height="24" viewBox="0 0 24 24" fill="none" xmlns="http://www.w3.org/2000/svg">
<path fill-rule="evenodd" clip-rule="evenodd" d="M22 5.5C22 4.67163 21.3284 4 20.5 4L3.5 4C2.67157 4 2 4.67163 2 5.5L2 18.5C2 19.3284 2.67157 20 3.5 20L20.5 20C21.3284 20 22 19.3284 22 18.5L22 5.5ZM16.4773 12.4773C16.7409 12.2136 16.7409 11.7863 16.4773 11.5227L13.4773 8.5227C13.2137 8.25903 12.7863 8.25903 12.5227 8.5227C12.2591 8.78625 12.2591 9.21362 12.5227 9.47729L14.3704 11.325L8 11.325C7.62721 11.325 7.325 11.6272 7.325 12C7.325 12.3728 7.62721 12.6749 8 12.6749L14.3704 12.6749L12.5227 14.5227C12.2591 14.7863 12.2591 15.2136 12.5227 15.4773C12.7863 15.7408 13.2137 15.7408 13.4773 15.4773L16.4773 12.4773Z" fill="white"/>
</svg>
