<svg width="16" height="16" viewBox="0 0 16 16" fill="none" xmlns="http://www.w3.org/2000/svg">
<path fill-rule="evenodd" clip-rule="evenodd" d="M2.5 3.4C2.5 2.90294 2.90294 2.5 3.4 2.5H4C4.27614 2.5 4.5 2.72386 4.5 3C4.5 3.27614 4.27614 3.5 4 3.5H3.5V12.5H12.5V3.5H12C11.7239 3.5 11.5 3.27614 11.5 3C11.5 2.72386 11.7239 2.5 12 2.5H12.6C13.0971 2.5 13.5 2.90294 13.5 3.4V12.6C13.5 13.0971 13.0971 13.5 12.6 13.5H3.4C2.90294 13.5 2.5 13.0971 2.5 12.6V3.4ZM7.64645 2.64645C7.84171 2.45118 8.15829 2.45118 8.35355 2.64645L10.3536 4.64645C10.5488 4.84171 10.5488 5.15829 10.3536 5.35355C10.1583 5.54882 9.84171 5.54882 9.64645 5.35355L8.5 4.20711V8C8.5 8.27614 8.27614 8.5 8 8.5C7.72386 8.5 7.5 8.27614 7.5 8V4.20711L6.35355 5.35355C6.15829 5.54882 5.84171 5.54882 5.64645 5.35355C5.45118 5.15829 5.45118 4.84171 5.64645 4.64645L7.64645 2.64645Z" fill="white"/>
</svg>
