<svg width="16" height="16" viewBox="0 0 16 16" fill="none" xmlns="http://www.w3.org/2000/svg">
<path d="M8.35356 5.14644C8.1583 4.95118 7.84171 4.95118 7.64645 5.14644L5.64645 7.14644C5.45119 7.3417 5.45119 7.65828 5.64645 7.85355C5.84171 8.04881 6.1583 8.04881 6.35356 7.85355L7.5 6.7071V10C7.5 10.2761 7.72386 10.5 8 10.5C8.27615 10.5 8.5 10.2761 8.5 10V6.7071L9.64645 7.85355C9.84171 8.04881 10.1583 8.04881 10.3536 7.85355C10.5488 7.65828 10.5488 7.3417 10.3536 7.14644L8.35356 5.14644Z" fill="white"/>
<path fill-rule="evenodd" clip-rule="evenodd" d="M2.9 3C2.40294 3 2 3.40294 2 3.9V11.1C2 11.5971 2.40294 12 2.9 12H13.1C13.5971 12 14 11.5971 14 11.1L14 3.9C14 3.40294 13.5971 3 13.1 3H2.9ZM3 11L3 4H13L13 11H3Z" fill="white"/>
<path d="M11.5 13.5C11.5 13.2239 11.2761 13 11 13H5C4.72386 13 4.5 13.2239 4.5 13.5C4.5 13.7761 4.72386 14 5 14H11C11.2761 14 11.5 13.7761 11.5 13.5Z" fill="white"/>
</svg>
