<svg width="16" height="16" viewBox="0 0 16 16" fill="none" xmlns="http://www.w3.org/2000/svg">
<path fill-rule="evenodd" clip-rule="evenodd" d="M13.6 2.5C14.0971 2.5 14.5 2.90294 14.5 3.4L14.5 12.6C14.5 13.0971 14.0971 13.5 13.6 13.5L2.4 13.5C1.90294 13.5 1.5 13.0971 1.5 12.6L1.5 3.4C1.5 2.90294 1.90294 2.5 2.4 2.5L13.6 2.5ZM13.5 3.5L2.5 3.5L2.5 12.5L13.5 12.5L13.5 3.5ZM10.8536 7.64645C11.0488 7.84171 11.0488 8.15829 10.8536 8.35355L8.85355 10.3536C8.65829 10.5488 8.34171 10.5488 8.14645 10.3536C7.95118 10.1583 7.95118 9.84171 8.14645 9.64645L9.29289 8.5L5.5 8.5C5.22386 8.5 5 8.27614 5 8C5 7.72386 5.22386 7.5 5.5 7.5L9.29289 7.5L8.14645 6.35355C7.95118 6.15829 7.95118 5.84171 8.14645 5.64645C8.34171 5.45118 8.65829 5.45118 8.85355 5.64645L10.8536 7.64645Z" fill="white"/>
</svg>
