<svg width="16" height="16" viewBox="0 0 16 16" fill="none" xmlns="http://www.w3.org/2000/svg">
<path fill-rule="evenodd" clip-rule="evenodd" d="M8.86016 2.66122C8.99717 2.60447 9.15488 2.63584 9.25975 2.74071L13.7597 7.24071C13.8285 7.30947 13.8671 7.40273 13.8671 7.49998C13.8671 7.59723 13.8285 7.69049 13.7597 7.75925L9.25975 12.2592C9.15488 12.364 8.99717 12.3954 8.86016 12.3387C8.72314 12.2819 8.63381 12.1482 8.63381 11.9999V9.87048C6.30886 9.92027 4.14277 10.4755 2.81487 12.6886C2.73008 12.8299 2.56141 12.8973 2.40258 12.8533C2.24375 12.8093 2.13379 12.6648 2.13379 12.5C2.13379 10.9273 2.65576 9.09639 3.77282 7.65078C4.83966 6.27016 6.44806 5.24521 8.63381 5.1419V2.99998C8.63381 2.85168 8.72315 2.71798 8.86016 2.66122Z" fill="white"/>
</svg>
