<svg width="24" height="24" viewBox="0 0 24 24" fill="none" xmlns="http://www.w3.org/2000/svg">
<path fill-rule="evenodd" clip-rule="evenodd" d="M20.5 3.82495C21.4251 3.82495 22.175 4.57487 22.175 5.49995L22.175 18.5C22.175 19.425 21.4251 20.175 20.5 20.175L3.50005 20.175C2.57497 20.175 1.82505 19.425 1.82505 18.5L1.82505 5.49995C1.82505 4.57487 2.57497 3.82495 3.50005 3.82495L20.5 3.82495ZM20.825 5.49995C20.825 5.32046 20.6795 5.17495 20.5 5.17495L3.50005 5.17495C3.32056 5.17495 3.17505 5.32046 3.17505 5.49995L3.17505 18.5C3.17505 18.6794 3.32056 18.825 3.50005 18.825L20.5 18.825C20.6795 18.825 20.825 18.6794 20.825 18.5L20.825 5.49995ZM16.4773 11.5227C16.7409 11.7863 16.7409 12.2136 16.4773 12.4772L13.4773 15.4772C13.2137 15.7409 12.7864 15.7409 12.5228 15.4772C12.2591 15.2136 12.2591 14.7863 12.5228 14.5227L14.3705 12.675L8.00005 12.675C7.62726 12.675 7.32505 12.3727 7.32505 12C7.32505 11.6272 7.62726 11.325 8.00005 11.325L14.3705 11.325L12.5228 9.47725C12.2591 9.21364 12.2591 8.78626 12.5228 8.52265C12.7864 8.25905 13.2137 8.25905 13.4773 8.52265L16.4773 11.5227Z" fill="white"/>
</svg>
