<svg width="16" height="16" viewBox="0 0 16 16" fill="none" xmlns="http://www.w3.org/2000/svg">
<path fill-rule="evenodd" clip-rule="evenodd" d="M8.80868 2.53807C8.99552 2.46068 9.21058 2.50346 9.35357 2.64646L13.8536 7.14646C13.9473 7.24023 14 7.36741 14 7.50002C14 7.63263 13.9473 7.7598 13.8536 7.85357L9.35357 12.3535C9.21057 12.4965 8.99551 12.5393 8.80868 12.4619C8.62184 12.3845 8.50002 12.2022 8.50002 11.9999V10.0073C6.24589 10.0755 4.19583 10.6455 2.92875 12.7573C2.81312 12.95 2.58312 13.0419 2.36653 12.9819C2.14995 12.9219 2 12.7248 2 12.5C2 10.9009 2.52995 9.04058 3.66686 7.56929C4.73478 6.18729 6.33655 5.15414 8.50002 5.01581V3.00001C8.50002 2.79778 8.62184 2.61547 8.80868 2.53807ZM9.50002 4.20713V5.50001C9.50002 5.77616 9.27616 6.00001 9.00002 6.00001C6.91838 6.00001 5.43455 6.91716 4.45814 8.18074C3.84672 8.97199 3.43366 9.90145 3.20758 10.827C4.82608 9.32212 6.97185 9.00001 9.00002 9.00001C9.27616 9.00001 9.50002 9.22387 9.50002 9.50001V10.7928L12.7929 7.50001L9.50002 4.20713Z" fill="white"/>
</svg>
