<svg width="16" height="16" viewBox="0 0 16 16" fill="none" xmlns="http://www.w3.org/2000/svg">
<path fill-rule="evenodd" clip-rule="evenodd" d="M3.90002 3C3.40295 3 3 3.40294 3 3.89999V12.1C3 12.5971 3.40295 13 3.90002 13H12.1C12.597 13 13 12.5971 13 12.1V3.89999C13 3.40294 12.597 3 12.1 3H3.90002ZM8.35352 5.14645C8.15833 4.95119 7.84167 4.95119 7.64648 5.14645L5.64648 7.14645C5.45117 7.34171 5.45117 7.65829 5.64648 7.85355C5.84167 8.04881 6.15833 8.04881 6.35352 7.85355L7.5 6.70711V10.5C7.5 10.7761 7.72388 11 8 11C8.27612 11 8.5 10.7761 8.5 10.5V6.70711L9.64648 7.85355C9.84167 8.04881 10.1583 8.04881 10.3535 7.85355C10.5488 7.65829 10.5488 7.34171 10.3535 7.14645L8.35352 5.14645Z" fill="white"/>
</svg>
