<svg width="20" height="20" viewBox="0 0 20 20" fill="none" xmlns="http://www.w3.org/2000/svg">
<path fill-rule="evenodd" clip-rule="evenodd" d="M1.9375 4.33333C1.9375 3.56244 2.56244 2.9375 3.33333 2.9375H16.6667C17.4376 2.9375 18.0625 3.56244 18.0625 4.33333V13.6667C18.0625 14.4376 17.4376 15.0625 16.6667 15.0625H3.33333C2.56243 15.0625 1.9375 14.4376 1.9375 13.6667V4.33333ZM3.33333 4.0625C3.18376 4.0625 3.0625 4.18376 3.0625 4.33333V13.6667C3.0625 13.8162 3.18376 13.9375 3.33333 13.9375H16.6667C16.8162 13.9375 16.9375 13.8162 16.9375 13.6667V4.33333C16.9375 4.18376 16.8162 4.0625 16.6667 4.0625H3.33333ZM9.60225 5.60225C9.82192 5.38258 10.1781 5.38258 10.3977 5.60225L12.8977 8.10225C13.1174 8.32192 13.1174 8.67808 12.8977 8.89775C12.6781 9.11742 12.3219 9.11742 12.1023 8.89775L10.5625 7.358V12C10.5625 12.3107 10.3107 12.5625 10 12.5625C9.68934 12.5625 9.4375 12.3107 9.4375 12V7.358L7.89775 8.89775C7.67808 9.11742 7.32192 9.11742 7.10225 8.89775C6.88258 8.67808 6.88258 8.32192 7.10225 8.10225L9.60225 5.60225ZM5.9375 17C5.9375 16.6893 6.18934 16.4375 6.5 16.4375H13.5C13.8107 16.4375 14.0625 16.6893 14.0625 17C14.0625 17.3107 13.8107 17.5625 13.5 17.5625H6.5C6.18934 17.5625 5.9375 17.3107 5.9375 17Z" fill="white"/>
</svg>
