<svg width="24" height="24" viewBox="0 0 24 24" fill="none" xmlns="http://www.w3.org/2000/svg">
<path d="M11.0454 4H5.5C4.67163 4 4 4.67157 4 5.5V18.5C4 19.3284 4.67163 20 5.5 20H18.5C19.3284 20 20 19.3284 20 18.5V5.5C20 4.67157 19.3284 4 18.5 4H12.9546L15.4773 6.52271C15.741 6.78632 15.741 7.21368 15.4773 7.47729C15.2136 7.74091 14.7864 7.74091 14.5227 7.47729L12.675 5.62961V12C12.675 12.3728 12.3728 12.675 12 12.675C11.6272 12.675 11.325 12.3728 11.325 12V5.62961L9.47729 7.47729C9.21362 7.74091 8.78638 7.74091 8.52271 7.47729C8.25903 7.21368 8.25903 6.78632 8.52271 6.52271L11.0454 4Z" fill="white"/>
</svg>
