<svg width="16" height="16" viewBox="0 0 16 16" fill="none" xmlns="http://www.w3.org/2000/svg">
<path fill-rule="evenodd" clip-rule="evenodd" d="M14 3.90002C14 3.40295 13.5971 3 13.1 3L2.89999 3C2.40294 3 2 3.40295 2 3.90002L2 12.1C2 12.597 2.40294 13 2.89999 13L13.1 13C13.5971 13 14 12.597 14 12.1L14 3.90002ZM10.8535 8.35352C11.0488 8.15833 11.0488 7.84167 10.8535 7.64648L8.85355 5.64648C8.65829 5.45117 8.34171 5.45117 8.14645 5.64648C7.95119 5.84167 7.95119 6.15832 8.14645 6.35352L9.29289 7.5L5.5 7.5C5.22386 7.5 5 7.72388 5 8C5 8.27612 5.22386 8.5 5.5 8.5L9.29289 8.5L8.14645 9.64648C7.95119 9.84167 7.95119 10.1583 8.14645 10.3535C8.3417 10.5488 8.65829 10.5488 8.85355 10.3535L10.8535 8.35352Z" fill="white"/>
</svg>
