<svg width="24" height="24" viewBox="0 0 24 24" fill="none" xmlns="http://www.w3.org/2000/svg">
<path fill-rule="evenodd" clip-rule="evenodd" d="M5.5 4C4.67163 4 4 4.67157 4 5.5V18.5C4 19.3284 4.67163 20 5.5 20H18.5C19.3284 20 20 19.3284 20 18.5V5.5C20 4.67157 19.3284 4 18.5 4H5.5ZM12.4773 7.52271C12.2136 7.25909 11.7863 7.25909 11.5227 7.52271L8.52271 10.5227C8.25903 10.7863 8.25903 11.2137 8.52271 11.4773C8.78625 11.7409 9.21362 11.7409 9.47729 11.4773L11.325 9.62959V16C11.325 16.3728 11.6272 16.675 12 16.675C12.3728 16.675 12.6749 16.3728 12.6749 16V9.62959L14.5227 11.4773C14.7863 11.7409 15.2136 11.7409 15.4773 11.4773C15.7408 11.2137 15.7408 10.7863 15.4773 10.5227L12.4773 7.52271Z" fill="white"/>
</svg>
