<svg width="20" height="20" viewBox="0 0 20 20" fill="none" xmlns="http://www.w3.org/2000/svg">
<path fill-rule="evenodd" clip-rule="evenodd" d="M11.3249 3.57665C11.4962 3.50571 11.6933 3.54492 11.8244 3.676L17.3244 9.176C17.5034 9.35499 17.5034 9.6452 17.3244 9.82419L11.8244 15.3242C11.6933 15.4553 11.4962 15.4945 11.3249 15.4235C11.1537 15.3526 11.042 15.1855 11.042 15.0001V12.4644C7.8396 12.5496 5.1826 13.553 3.38168 16.2543C3.26965 16.4224 3.06081 16.4973 2.86751 16.4388C2.6742 16.3802 2.54199 16.2021 2.54199 16.0001C2.54199 14.1377 3.33276 11.789 4.82872 9.90279C6.25335 8.10652 8.34486 6.69813 11.042 6.55394V4.00009C11.042 3.81472 11.1537 3.64759 11.3249 3.57665Z" fill="white"/>
</svg>
