<svg width="24" height="24" viewBox="0 0 24 24" fill="none" xmlns="http://www.w3.org/2000/svg">
<path d="M12.4775 6.52265C12.2139 6.25905 11.7865 6.25905 11.5229 6.52265L8.5229 9.52265C8.25929 9.78626 8.25929 10.2136 8.5229 10.4772C8.7865 10.7409 9.21389 10.7409 9.47749 10.4772L11.3252 8.62955V14.3249C11.3252 14.6977 11.6274 14.9999 12.0002 14.9999C12.373 14.9999 12.6752 14.6977 12.6752 14.3249V8.62955L14.5229 10.4772C14.7865 10.7409 15.2139 10.7409 15.4775 10.4772C15.7411 10.2136 15.7411 9.78626 15.4775 9.52265L12.4775 6.52265Z" fill="white"/>
<path fill-rule="evenodd" clip-rule="evenodd" d="M3.5002 2.82495C2.57512 2.82495 1.8252 3.57487 1.8252 4.49995V16.5C1.8252 17.425 2.57512 18.175 3.5002 18.175H20.5002C21.4253 18.175 22.1752 17.425 22.1752 16.5V4.49995C22.1752 3.57487 21.4253 2.82495 20.5002 2.82495H3.5002ZM3.1752 4.49995C3.1752 4.32046 3.3207 4.17495 3.5002 4.17495H20.5002C20.6797 4.17495 20.8252 4.32046 20.8252 4.49995V16.5C20.8252 16.6794 20.6797 16.825 20.5002 16.825H3.5002C3.3207 16.825 3.1752 16.6794 3.1752 16.5V4.49995Z" fill="white"/>
<path d="M6.82507 20.5C6.82507 20.1272 7.12728 19.825 7.50007 19.825H16.5001C16.8729 19.825 17.1751 20.1272 17.1751 20.5C17.1751 20.8727 16.8729 21.1749 16.5001 21.1749H7.50007C7.12728 21.1749 6.82507 20.8727 6.82507 20.5Z" fill="white"/>
</svg>
