<svg width="16" height="16" viewBox="0 0 16 16" fill="none" xmlns="http://www.w3.org/2000/svg">
<path fill-rule="evenodd" clip-rule="evenodd" d="M2.9 4C2.40294 4 2 4.40294 2 4.9V12.1C2 12.5971 2.40294 13 2.9 13H5.7901L5.5901 14H5C4.72386 14 4.5 14.2239 4.5 14.5C4.5 14.7761 4.72386 15 5 15H11C11.2761 15 11.5 14.7761 11.5 14.5C11.5 14.2239 11.2761 14 11 14H10.4099L10.2099 13H13.1C13.5971 13 14 12.5971 14 12.1V4.9C14 4.40294 13.5971 4 13.1 4H2.9ZM9.1901 13H6.8099L6.6099 14H9.3901L9.1901 13ZM3 10V5H13V10H3ZM3 11V12H13V11H3Z" fill="white"/>
</svg>
