<svg width="16" height="16" viewBox="0 0 16 16" fill="none" xmlns="http://www.w3.org/2000/svg">
<path d="M7.29297 3H3.8999C3.40283 3 3 3.40295 3 3.89999V12.1C3 12.597 3.40283 13 3.8999 13H12.1001C12.5972 13 13 12.597 13 12.1V3.89999C13 3.40295 12.5972 3 12.1001 3H8.70703L10.3535 4.64645C10.5488 4.84171 10.5488 5.15829 10.3535 5.35355C10.1582 5.54883 9.8418 5.54883 9.64648 5.35355L8.5 4.20709V8C8.5 8.27615 8.27612 8.5 8 8.5C7.72388 8.5 7.5 8.27615 7.5 8V4.20709L6.35352 5.35355C6.1582 5.54883 5.8418 5.54883 5.64648 5.35355C5.45117 5.15829 5.45117 4.84171 5.64648 4.64645L7.29297 3Z" fill="white"/>
</svg>
