<svg width="24" height="24" viewBox="0 0 24 24" fill="none" xmlns="http://www.w3.org/2000/svg">
<path fill-rule="evenodd" clip-rule="evenodd" d="M2 5.5C2 4.67157 2.67163 4 3.5 4H20.5C21.3284 4 22 4.67157 22 5.5V17.5C22 18.3284 21.3284 19 20.5 19H15.7968L16.0718 20.6501H16.5C16.8728 20.6501 17.1749 20.9523 17.1749 21.3251C17.1749 21.6979 16.8728 22.0001 16.5 22.0001H7.5C7.1272 22.0001 6.82495 21.6979 6.82495 21.3251C6.82495 20.9523 7.1272 20.6501 7.5 20.6501H7.9281L8.20312 19H3.5C2.67163 19 2 18.3284 2 17.5V5.5ZM3.5 5.34998C3.45215 5.34998 3.40942 5.37244 3.38196 5.40741C3.36194 5.43292 3.34998 5.46509 3.34998 5.5V15H20.65V5.5C20.65 5.44739 20.6229 5.40112 20.5819 5.37433C20.5583 5.35895 20.5302 5.34998 20.5 5.34998H3.5Z" fill="white"/>
</svg>
