<svg width="16" height="16" viewBox="0 0 16 16" fill="none" xmlns="http://www.w3.org/2000/svg">
<path fill-rule="evenodd" clip-rule="evenodd" d="M2.8999 12.5H5.69006L5.59009 13H5C4.72388 13 4.5 13.2239 4.5 13.5C4.5 13.7761 4.72388 14 5 14H11C11.2761 14 11.5 13.7761 11.5 13.5C11.5 13.2239 11.2761 13 11 13H10.4099L10.3099 12.5H13.1001C13.8734 12.5 14.5 11.8731 14.5 11.1V3.90002C14.5 3.12689 13.8734 2.5 13.1001 2.5H2.8999C2.12659 2.5 1.5 3.12689 1.5 3.90002V11.1C1.5 11.8731 2.12659 12.5 2.8999 12.5ZM2.8999 3.5C2.67908 3.5 2.5 3.67902 2.5 3.90002V10H13.5V3.90002C13.5 3.67902 13.3209 3.5 13.1001 3.5H2.8999Z" fill="white"/>
</svg>
