<svg width="24" height="24" viewBox="0 0 24 24" fill="none" xmlns="http://www.w3.org/2000/svg">
<path fill-rule="evenodd" clip-rule="evenodd" d="M13.2895 4.49183C13.495 4.4067 13.7316 4.45376 13.8889 4.61106L20.3889 11.1111C20.6036 11.3258 20.6036 11.6741 20.3889 11.8889L13.8889 18.3889C13.7316 18.5462 13.495 18.5932 13.2895 18.5081C13.084 18.423 12.95 18.2224 12.95 18V15.0626C8.99994 15.0626 6.22353 16.6561 4.45758 19.3051C4.32314 19.5067 4.07254 19.5966 3.84057 19.5264C3.6086 19.4561 3.44995 19.2423 3.44995 19C3.44995 16.8837 4.23682 14.1444 5.86934 11.9242C7.4249 9.8086 9.77139 8.13837 12.95 7.96486V4.99997C12.95 4.77751 13.084 4.57696 13.2895 4.49183Z" fill="white"/>
</svg>
