<svg width="24" height="24" viewBox="0 0 24 24" fill="none" xmlns="http://www.w3.org/2000/svg">
<path fill-rule="evenodd" clip-rule="evenodd" d="M11.5227 3.52265C11.7863 3.25905 12.2136 3.25905 12.4772 3.52265L15.4772 6.52265C15.7409 6.78626 15.7409 7.21364 15.4772 7.47725C15.2136 7.74085 14.7863 7.74085 14.5227 7.47725L12.675 5.62955V12C12.675 12.3727 12.3727 12.675 12 12.675C11.6272 12.675 11.325 12.3727 11.325 12V5.62955L9.47725 7.47725C9.21364 7.74085 8.78626 7.74085 8.52265 7.47725C8.25905 7.21364 8.25905 6.78626 8.52265 6.52265L11.5227 3.52265ZM3.82495 5.49995C3.82495 4.57487 4.57487 3.82495 5.49995 3.82495H6.49995C6.87274 3.82495 7.17495 4.12716 7.17495 4.49995C7.17495 4.87274 6.87274 5.17495 6.49995 5.17495H5.49995C5.32046 5.17495 5.17495 5.32046 5.17495 5.49995V18.5C5.17495 18.6794 5.32046 18.825 5.49995 18.825H18.5C18.6794 18.825 18.825 18.6794 18.825 18.5V5.49995C18.825 5.32046 18.6794 5.17495 18.5 5.17495H17.5C17.1272 5.17495 16.825 4.87274 16.825 4.49995C16.825 4.12716 17.1272 3.82495 17.5 3.82495H18.5C19.425 3.82495 20.175 4.57487 20.175 5.49995V18.5C20.175 19.425 19.425 20.1749 18.5 20.1749H5.49995C4.57487 20.1749 3.82495 19.425 3.82495 18.5V5.49995Z" fill="white"/>
</svg>
