<svg width="24" height="24" viewBox="0 0 24 24" fill="none" xmlns="http://www.w3.org/2000/svg">
<path fill-rule="evenodd" clip-rule="evenodd" d="M1.8252 5.5002C1.8252 4.57512 2.57512 3.8252 3.5002 3.8252H20.5002C21.4253 3.8252 22.1752 4.57512 22.1752 5.5002V17.5002C22.1752 18.4253 21.4253 19.1752 20.5002 19.1752L15.797 19.1752L16.072 20.8252H16.5002C16.873 20.8252 17.1752 21.1274 17.1752 21.5002C17.1752 21.873 16.873 22.1752 16.5002 22.1752H7.5002C7.1274 22.1752 6.8252 21.873 6.8252 21.5002C6.8252 21.1274 7.1274 20.8252 7.5002 20.8252H7.92838L8.20338 19.1752L3.5002 19.1752C2.57512 19.1752 1.8252 18.4253 1.8252 17.5002V5.5002ZM9.57201 19.1752L9.29701 20.8252H14.7034L14.4284 19.1752L9.57201 19.1752ZM3.5002 5.1752C3.3207 5.1752 3.1752 5.3207 3.1752 5.5002V14.8252H20.8252V5.5002C20.8252 5.3207 20.6797 5.1752 20.5002 5.1752H3.5002ZM20.8252 16.1752H3.1752V17.5002C3.1752 17.6797 3.3207 17.8252 3.5002 17.8252H20.5002C20.6797 17.8252 20.8252 17.6797 20.8252 17.5002V16.1752Z" fill="white"/>
</svg>
