<svg width="20" height="20" viewBox="0 0 20 20" fill="none" xmlns="http://www.w3.org/2000/svg">
<path fill-rule="evenodd" clip-rule="evenodd" d="M11.2895 3.49208C11.495 3.40695 11.7316 3.454 11.8889 3.6113L17.3889 9.1113C17.6036 9.32609 17.6036 9.67433 17.3889 9.88912L11.8889 15.3891C11.7316 15.5464 11.495 15.5935 11.2895 15.5083C11.084 15.4232 10.95 15.2227 10.95 15.0002V12.559C7.80908 12.6606 5.21916 13.6629 3.45758 16.3053C3.32314 16.507 3.07254 16.5968 2.84057 16.5266C2.6086 16.4564 2.44995 16.2426 2.44995 16.0002C2.44995 14.1154 3.24887 11.7469 4.75653 9.84594C6.17861 8.05289 8.26339 6.63866 10.95 6.46759V4.00021C10.95 3.77776 11.084 3.57721 11.2895 3.49208ZM12.05 5.32803V7.00021C12.05 7.30397 11.8037 7.55021 11.5 7.55021C8.9532 7.55021 6.97569 8.81808 5.61837 10.5295C4.72804 11.6521 4.12019 12.9474 3.80444 14.1605C5.85442 12.1477 8.54256 11.4502 11.5 11.4502C11.8037 11.4502 12.05 11.6965 12.05 12.0002V13.6724L16.2221 9.50021L12.05 5.32803Z" fill="white"/>
</svg>
