<svg width="24" height="24" viewBox="0 0 24 24" fill="none" xmlns="http://www.w3.org/2000/svg">
<path fill-rule="evenodd" clip-rule="evenodd" d="M13.2416 4.37635C13.4939 4.27188 13.7842 4.32963 13.9772 4.52267L20.4772 11.0227C20.7409 11.2863 20.7409 11.7137 20.4772 11.9773L13.9772 18.4773C13.7842 18.6703 13.4939 18.7281 13.2416 18.6236C12.9894 18.5191 12.825 18.273 12.825 18V15.1942C9.65493 15.3734 6.27548 16.8035 4.56159 19.3744C4.39659 19.6219 4.08903 19.7322 3.80435 19.646C3.51966 19.5598 3.32495 19.2974 3.32495 19C3.32495 16.8573 4.1202 14.092 5.76864 11.8501C7.32253 9.73681 9.66229 8.05752 12.825 7.84719V4.99997C12.825 4.72696 12.9894 4.48083 13.2416 4.37635ZM14.175 6.62957V8.49997C14.175 8.87276 13.8727 9.17497 13.5 9.17497C10.5068 9.17497 8.3188 10.6608 6.85627 12.6498C5.88525 13.9704 5.24802 15.4971 4.92549 16.9159C7.24029 14.8317 10.5663 13.825 13.5 13.825C13.8727 13.825 14.175 14.1272 14.175 14.5V16.3704L19.0454 11.5L14.175 6.62957Z" fill="white"/>
</svg>
