<svg width="20" height="20" viewBox="0 0 20 20" fill="none" xmlns="http://www.w3.org/2000/svg">
<rect opacity="0.03" y="2" width="20" height="16" rx="1.67" fill="white"/>
<path fill-rule="evenodd" clip-rule="evenodd" d="M11.2189 11.4664C14.9998 13.0001 14.9998 13.666 14.9998 15.8216C15.0068 16.0975 14.7878 16.3265 14.5118 16.3335C14.5078 16.3335 14.5038 16.3335 14.4998 16.3335H5.49999C5.224 16.3335 5 16.1095 5 15.8336C5 15.8296 5 15.8256 5 15.8216C5 13.667 5 13.0001 8.78394 11.4664C8.87094 11.4334 8.91494 11.3355 8.88194 11.2485C8.87294 11.2235 8.85794 11.2015 8.83794 11.1835C8.31895 10.7056 8.01695 10.0387 7.99995 9.33383V8.42301C7.98295 7.32022 8.83794 6.39939 9.93992 6.33441C11.0439 6.30141 11.9659 7.16925 11.9989 8.27304C11.9999 8.29303 11.9999 8.31403 11.9999 8.33402V9.33383C11.9819 10.0387 11.6779 10.7066 11.1579 11.1835C11.0899 11.2475 11.0869 11.3544 11.1509 11.4224C11.1699 11.4424 11.1929 11.4574 11.2189 11.4664Z" fill="white"/>
</svg>
