<svg width="24" height="24" viewBox="0 0 24 24" fill="none" xmlns="http://www.w3.org/2000/svg">
<path fill-rule="evenodd" clip-rule="evenodd" d="M9 7.5C8.58545 7.5 8.25 7.16455 8.25 6.75V4.5H5.25C4.00708 4.5 3 5.50708 3 6.75V17.25C3 17.9502 3.32007 18.5757 3.82178 18.988C4.20996 19.3081 4.70728 19.5 5.25 19.5H18.75C19.9929 19.5 21 18.4929 21 17.25V6.75C21 5.50708 19.9929 4.5 18.75 4.5H15.75V6.75C15.75 6.98584 15.6416 7.19531 15.4717 7.33301C15.3428 7.43774 15.1787 7.5 15 7.5C14.5854 7.5 14.25 7.16455 14.25 6.75V4.5H9.75V6.75C9.75 7.16455 9.41455 7.5 9 7.5ZM6 9C5.58545 9 5.25 8.66455 5.25 8.25V6.75C5.25 6.33545 5.58545 6 6 6C6.41455 6 6.75 6.33545 6.75 6.75V8.25C6.75 8.66455 6.41455 9 6 9ZM6 12C5.58545 12 5.25 11.6646 5.25 11.25C5.25 10.8354 5.58545 10.5 6 10.5C6.20361 10.5 6.38818 10.5806 6.52295 10.7124C6.59399 10.7812 6.65112 10.864 6.69067 10.9563L6.71411 11.02C6.7251 11.0544 6.73389 11.0896 6.73975 11.1255C6.74634 11.1658 6.75 11.2075 6.75 11.25C6.75 11.4302 6.68628 11.5957 6.58081 11.7246C6.52075 11.7979 6.44751 11.8594 6.36475 11.9055C6.25708 11.9656 6.13257 12 6 12ZM5.25 14.25C5.25 14.6646 5.58545 15 6 15C6.41455 15 6.75 14.6646 6.75 14.25C6.75 13.8354 6.41455 13.5 6 13.5C5.58545 13.5 5.25 13.8354 5.25 14.25ZM9 12C8.58545 12 8.25 11.6646 8.25 11.25V9.75C8.25 9.33545 8.58545 9 9 9C9.16919 9 9.3252 9.05566 9.45044 9.15015C9.63208 9.28711 9.75 9.50464 9.75 9.75V11.25C9.75 11.532 9.59473 11.7773 9.36475 11.9055C9.25708 11.9656 9.13257 12 9 12ZM8.25 14.25C8.25 14.6646 8.58545 15 9 15C9.21899 15 9.41602 14.9062 9.55298 14.7568C9.67529 14.6235 9.75 14.4456 9.75 14.25C9.75 14.1321 9.7229 14.0208 9.67456 13.9211C9.55298 13.6721 9.29663 13.5 9 13.5C8.58545 13.5 8.25 13.8354 8.25 14.25ZM8.25 17.25C8.25 17.6646 8.58545 18 9 18C9.34131 18 9.62915 17.7722 9.71997 17.4602C9.73975 17.3936 9.75 17.3232 9.75 17.25C9.75 16.8354 9.41455 16.5 9 16.5C8.97656 16.5 8.95386 16.5007 8.93115 16.5029C8.90259 16.5051 8.87476 16.5095 8.84766 16.5154C8.79053 16.5271 8.7356 16.5454 8.68359 16.5696C8.61621 16.6003 8.55469 16.6414 8.50049 16.6897C8.34668 16.8274 8.25 17.0273 8.25 17.25ZM12 12C11.8755 12 11.7583 11.97 11.655 11.9165C11.4148 11.792 11.25 11.54 11.25 11.25C11.25 11.0193 11.354 10.8127 11.5173 10.675C11.6477 10.5659 11.8162 10.5 12 10.5C12.4146 10.5 12.75 10.8354 12.75 11.25C12.75 11.6646 12.4146 12 12 12ZM11.4412 8.75024C11.5789 8.90405 11.7781 9 12 9C12.4146 9 12.75 8.66455 12.75 8.25V6.75C12.75 6.33545 12.4146 6 12 6C11.7803 6 11.5825 6.09448 11.4456 6.24463C11.324 6.37793 11.25 6.55518 11.25 6.75V8.25C11.25 8.44263 11.3225 8.61768 11.4412 8.75024ZM11.25 14.25C11.25 14.6646 11.5854 15 12 15C12.4146 15 12.75 14.6646 12.75 14.25C12.75 13.8354 12.4146 13.5 12 13.5C11.9092 13.5 11.822 13.5161 11.7407 13.5461C11.4536 13.6516 11.25 13.9263 11.25 14.25ZM15 12C14.5854 12 14.25 11.6646 14.25 11.25V9.75C14.25 9.33545 14.5854 9 15 9C15.4146 9 15.75 9.33545 15.75 9.75V11.25C15.75 11.6646 15.4146 12 15 12ZM14.25 14.25C14.25 14.6646 14.5854 15 15 15C15.4146 15 15.75 14.6646 15.75 14.25C15.75 13.8354 15.4146 13.5 15 13.5C14.5854 13.5 14.25 13.8354 14.25 14.25ZM14.25 17.25C14.25 17.6646 14.5854 18 15 18C15.4146 18 15.75 17.6646 15.75 17.25C15.75 17.0391 15.6628 16.8486 15.5229 16.7124C15.4285 16.6201 15.3091 16.5527 15.1758 16.5205C15.1194 16.5073 15.0608 16.5 15 16.5C14.5854 16.5 14.25 16.8354 14.25 17.25ZM18 12C17.5854 12 17.25 11.6646 17.25 11.25C17.25 10.8354 17.5854 10.5 18 10.5C18.2021 10.5 18.3853 10.5798 18.52 10.7095C18.6614 10.8457 18.75 11.0376 18.75 11.25C18.75 11.4404 18.679 11.6147 18.5618 11.7473C18.4929 11.8257 18.408 11.8887 18.312 11.9326C18.2168 11.9758 18.1113 12 18 12ZM17.25 8.25C17.25 8.66455 17.5854 9 18 9C18.4146 9 18.75 8.66455 18.75 8.25V6.75C18.75 6.33545 18.4146 6 18 6C17.5854 6 17.25 6.33545 17.25 6.75V8.25ZM18 15C17.5854 15 17.25 14.6646 17.25 14.25C17.25 13.8354 17.5854 13.5 18 13.5C18.4146 13.5 18.75 13.8354 18.75 14.25C18.75 14.6646 18.4146 15 18 15Z" fill="white"/>
</svg>
