<svg width="16" height="16" viewBox="0 0 16 16" fill="none" xmlns="http://www.w3.org/2000/svg">
<path fill-rule="evenodd" clip-rule="evenodd" d="M6 5C5.72363 5 5.5 4.77637 5.5 4.5V3H3.5C2.67139 3 2 3.67139 2 4.5V11.5C2 11.9668 2.21338 12.3838 2.54785 12.6587C2.80664 12.8721 3.13818 13 3.5 13H12.5C13.3286 13 14 12.3286 14 11.5V4.5C14 3.67139 13.3286 3 12.5 3H10.5V4.5C10.5 4.65723 10.4277 4.79688 10.3145 4.88867C10.2285 4.9585 10.1191 5 10 5C9.72363 5 9.5 4.77637 9.5 4.5V3H6.5V4.5C6.5 4.77637 6.27637 5 6 5ZM4 6C3.72363 6 3.5 5.77637 3.5 5.5V4.5C3.5 4.22363 3.72363 4 4 4C4.27637 4 4.5 4.22363 4.5 4.5V5.5C4.5 5.77637 4.27637 6 4 6ZM4 8C3.72363 8 3.5 7.77637 3.5 7.5C3.5 7.22363 3.72363 7 4 7C4.13574 7 4.25879 7.05371 4.34863 7.1416C4.396 7.1875 4.43408 7.24268 4.46045 7.3042L4.47607 7.34668C4.4834 7.36963 4.48926 7.39307 4.49316 7.41699C4.49756 7.44385 4.5 7.47168 4.5 7.5C4.5 7.62012 4.45752 7.73047 4.38721 7.81641C4.34717 7.86523 4.29834 7.90625 4.24316 7.93701C4.17139 7.97705 4.08838 8 4 8ZM3.5 9.5C3.5 9.77637 3.72363 10 4 10C4.27637 10 4.5 9.77637 4.5 9.5C4.5 9.22363 4.27637 9 4 9C3.72363 9 3.5 9.22363 3.5 9.5ZM6 8C5.72363 8 5.5 7.77637 5.5 7.5V6.5C5.5 6.22363 5.72363 6 6 6C6.11279 6 6.2168 6.03711 6.30029 6.1001C6.42139 6.19141 6.5 6.33643 6.5 6.5V7.5C6.5 7.68799 6.39648 7.85156 6.24316 7.93701C6.17139 7.97705 6.08838 8 6 8ZM5.5 9.5C5.5 9.77637 5.72363 10 6 10C6.146 10 6.27734 9.9375 6.36865 9.83789C6.4502 9.74902 6.5 9.63037 6.5 9.5C6.5 9.42139 6.48193 9.34717 6.44971 9.28076C6.36865 9.11475 6.19775 9 6 9C5.72363 9 5.5 9.22363 5.5 9.5ZM5.5 11.5C5.5 11.7764 5.72363 12 6 12C6.22754 12 6.41943 11.8481 6.47998 11.6401C6.49316 11.5957 6.5 11.5488 6.5 11.5C6.5 11.2236 6.27637 11 6 11C5.98438 11 5.96924 11.0005 5.9541 11.002C5.93506 11.0034 5.9165 11.0063 5.89844 11.0103C5.86035 11.0181 5.82373 11.0303 5.78906 11.0464C5.74414 11.0669 5.70312 11.0942 5.66699 11.1265C5.56445 11.2183 5.5 11.3516 5.5 11.5ZM8 8C7.91699 8 7.83887 7.97998 7.77002 7.94434C7.60986 7.86133 7.5 7.69336 7.5 7.5C7.5 7.34619 7.56934 7.2085 7.67822 7.1167C7.76514 7.04395 7.87744 7 8 7C8.27637 7 8.5 7.22363 8.5 7.5C8.5 7.77637 8.27637 8 8 8ZM7.62744 5.8335C7.71924 5.93604 7.85205 6 8 6C8.27637 6 8.5 5.77637 8.5 5.5V4.5C8.5 4.22363 8.27637 4 8 4C7.85352 4 7.72168 4.06299 7.63037 4.16309C7.54932 4.25195 7.5 4.37012 7.5 4.5V5.5C7.5 5.62842 7.54834 5.74512 7.62744 5.8335ZM7.5 9.5C7.5 9.77637 7.72363 10 8 10C8.27637 10 8.5 9.77637 8.5 9.5C8.5 9.22363 8.27637 9 8 9C7.93945 9 7.88135 9.01074 7.82715 9.03076C7.63574 9.10107 7.5 9.28418 7.5 9.5ZM10 8C9.72363 8 9.5 7.77637 9.5 7.5V6.5C9.5 6.22363 9.72363 6 10 6C10.2764 6 10.5 6.22363 10.5 6.5V7.5C10.5 7.77637 10.2764 8 10 8ZM9.5 9.5C9.5 9.77637 9.72363 10 10 10C10.2764 10 10.5 9.77637 10.5 9.5C10.5 9.22363 10.2764 9 10 9C9.72363 9 9.5 9.22363 9.5 9.5ZM9.5 11.5C9.5 11.7764 9.72363 12 10 12C10.2764 12 10.5 11.7764 10.5 11.5C10.5 11.3594 10.4419 11.2324 10.3486 11.1416C10.2856 11.0801 10.2061 11.0352 10.1172 11.0137C10.0796 11.0049 10.0405 11 10 11C9.72363 11 9.5 11.2236 9.5 11.5ZM12 8C11.7236 8 11.5 7.77637 11.5 7.5C11.5 7.22363 11.7236 7 12 7C12.1348 7 12.2568 7.05322 12.3467 7.13965C12.4409 7.23047 12.5 7.3584 12.5 7.5C12.5 7.62695 12.4526 7.74316 12.3745 7.83154C12.3286 7.88379 12.272 7.92578 12.208 7.95508C12.1445 7.98389 12.0742 8 12 8ZM11.5 5.5C11.5 5.77637 11.7236 6 12 6C12.2764 6 12.5 5.77637 12.5 5.5V4.5C12.5 4.22363 12.2764 4 12 4C11.7236 4 11.5 4.22363 11.5 4.5V5.5ZM12 10C11.7236 10 11.5 9.77637 11.5 9.5C11.5 9.22363 11.7236 9 12 9C12.2764 9 12.5 9.22363 12.5 9.5C12.5 9.77637 12.2764 10 12 10Z" fill="white"/>
</svg>
