<svg width="24" height="24" viewBox="0 0 24 24" fill="none" xmlns="http://www.w3.org/2000/svg">
<path fill-rule="evenodd" clip-rule="evenodd" d="M11.675 4.8252C12.0478 4.8252 12.35 5.1274 12.35 5.5002V18.5002C12.35 18.873 12.0478 19.1752 11.675 19.1752C11.3022 19.1752 11 18.873 11 18.5002V5.5002C11 5.1274 11.3022 4.8252 11.675 4.8252ZM5.1977 8.5229C5.46131 8.25929 5.88869 8.25929 6.1523 8.5229L9.1523 11.5229C9.4159 11.7865 9.4159 12.2139 9.1523 12.4775L6.1523 15.4775C5.88869 15.7411 5.46131 15.7411 5.1977 15.4775C4.9341 15.2139 4.9341 14.7865 5.1977 14.5229L7.04541 12.6752L1.675 12.6752C1.30221 12.6752 1 12.373 1 12.0002C1 11.6274 1.30221 11.3252 1.675 11.3252L7.04541 11.3252L5.1977 9.47749C4.9341 9.21389 4.9341 8.7865 5.1977 8.5229ZM18.1523 8.5229C18.4159 8.7865 18.4159 9.21389 18.1523 9.47749L16.3046 11.3252L21.675 11.3252C22.0478 11.3252 22.35 11.6274 22.35 12.0002C22.35 12.373 22.0478 12.6752 21.675 12.6752L16.3046 12.6752L18.1523 14.5229C18.4159 14.7865 18.4159 15.2139 18.1523 15.4775C17.8887 15.7411 17.4613 15.7411 17.1977 15.4775L14.1977 12.4775C14.0711 12.3509 14 12.1792 14 12.0002C14 11.8212 14.0711 11.6495 14.1977 11.5229L17.1977 8.5229C17.4613 8.25929 17.8887 8.25929 18.1523 8.5229Z" fill="white"/>
</svg>
