<svg width="24" height="24" viewBox="0 0 24 24" fill="none" xmlns="http://www.w3.org/2000/svg">
<path fill-rule="evenodd" clip-rule="evenodd" d="M4 5.5C4 4.67157 4.67163 4 5.5 4H18.5C19.3284 4 20 4.67157 20 5.5V18.5C20 19.3284 19.3284 20 18.5 20H5.5C4.67163 20 4 19.3284 4 18.5V5.5ZM12.825 7C12.825 7.3728 13.1272 7.67502 13.5 7.67502H15.3704L12.5227 10.5227C12.259 10.7863 12.259 11.2137 12.5227 11.4773C12.7864 11.7409 13.2136 11.7409 13.4773 11.4773L16.325 8.62964V10.5C16.325 10.8728 16.6272 11.175 17 11.175C17.3728 11.175 17.675 10.8728 17.675 10.5V7.00003C17.675 6.62726 17.3728 6.32504 17 6.32504L13.5 6.32501C13.1272 6.32501 12.825 6.62723 12.825 7ZM11.175 17C11.175 16.6272 10.8728 16.325 10.5 16.325H8.62964L11.4773 13.4772C11.7407 13.2136 11.7407 12.7863 11.4773 12.5226C11.2136 12.259 10.7861 12.259 10.5227 12.5226L7.67505 15.3703V13.5C7.67505 13.1272 7.3728 12.825 7 12.825C6.6272 12.825 6.32495 13.1272 6.32495 13.5V16.9999C6.32495 17.3727 6.6272 17.6749 7 17.6749L10.5 17.675C10.8728 17.675 11.175 17.3728 11.175 17Z" fill="white"/>
</svg>
