<svg width="24" height="24" viewBox="0 0 24 24" fill="none" xmlns="http://www.w3.org/2000/svg">
<path fill-rule="evenodd" clip-rule="evenodd" d="M4 5.5C4 4.67157 4.67163 4 5.5 4H18.5C19.3284 4 20 4.67157 20 5.5V18.5C20 19.3284 19.3284 20 18.5 20H5.5C4.67163 20 4 19.3284 4 18.5V5.5ZM17.1748 11C17.1748 10.6272 16.8728 10.325 16.5 10.325H14.6294L17.4773 7.47729C17.7407 7.21371 17.7407 6.78632 17.4773 6.52271C17.2136 6.25912 16.7861 6.25912 16.5225 6.52271L13.6748 9.37039V7.5C13.6748 7.12723 13.3728 6.82501 13 6.82501C12.6272 6.82501 12.325 7.12723 12.325 7.5V11C12.325 11.3728 12.6272 11.675 13 11.675L16.5 11.675C16.8728 11.675 17.1748 11.3728 17.1748 11ZM6.82495 13C6.82495 13.3728 7.1272 13.675 7.5 13.675H9.37036L6.52271 16.5227C6.25903 16.7863 6.25903 17.2137 6.52271 17.4773C6.78638 17.7409 7.21362 17.7409 7.47729 17.4773L10.325 14.6296V16.5C10.325 16.8727 10.6272 17.175 11 17.175C11.3728 17.175 11.6748 16.8727 11.6748 16.5L11.675 13C11.675 12.6272 11.3728 12.325 11 12.325L7.5 12.325C7.1272 12.325 6.82495 12.6272 6.82495 13Z" fill="white"/>
</svg>
