<svg width="16" height="16" viewBox="0 0 16 16" fill="none" xmlns="http://www.w3.org/2000/svg">
<path fill-rule="evenodd" clip-rule="evenodd" d="M3 3.89999C3 3.40295 3.40283 3 3.8999 3H12.1001C12.5972 3 13 3.40295 13 3.89999V12.1C13 12.597 12.5972 13 12.1001 13H3.8999C3.40283 13 3 12.597 3 12.1V3.89999ZM11.125 7.37497C11.125 7.09885 10.9011 6.87497 10.625 6.875H9.83203L11.3535 5.35355C11.5488 5.15829 11.5488 4.84171 11.3535 4.64645C11.1582 4.45117 10.8418 4.45117 10.6465 4.64645L9.125 6.16791V5.375C9.125 5.09885 8.90112 4.875 8.625 4.875C8.34888 4.875 8.125 5.09888 8.125 5.375V7.375C8.125 7.65115 8.34888 7.875 8.625 7.875H10.625C10.9011 7.87497 11.125 7.65112 11.125 7.37497ZM4.875 8.625C4.875 8.90115 5.09888 9.125 5.375 9.125H6.16797L4.64648 10.6465C4.45117 10.8417 4.45117 11.1583 4.64648 11.3536C4.8418 11.5488 5.1582 11.5488 5.35352 11.3536L6.875 9.83212V10.625C6.875 10.9012 7.09888 11.125 7.375 11.125C7.65112 11.125 7.875 10.9012 7.875 10.625V8.625C7.875 8.4924 7.82227 8.36523 7.72852 8.27145C7.63477 8.1777 7.50757 8.125 7.375 8.125H5.375C5.09888 8.125 4.875 8.34888 4.875 8.625Z" fill="white"/>
</svg>
