<svg width="16" height="16" viewBox="0 0 16 16" fill="none" xmlns="http://www.w3.org/2000/svg">
<path fill-rule="evenodd" clip-rule="evenodd" d="M2.5 3.4C2.5 2.90294 2.90294 2.5 3.4 2.5H12.6C13.0971 2.5 13.5 2.90294 13.5 3.4V12.6C13.5 13.0971 13.0971 13.5 12.6 13.5H3.4C2.90294 13.5 2.5 13.0971 2.5 12.6V3.4ZM3.5 3.5V12.5H12.5V3.5H3.5ZM11.3535 4.64646C11.5488 4.84172 11.5488 5.1583 11.3535 5.35357L9.70712 7.00001L10.5 7C10.7761 7 11 7.22385 11 7.5C11 7.77614 10.7761 8 10.5 8L8.50002 8.00002C8.22388 8.00002 8.00002 7.77617 8.00002 7.50003L7.99998 5.50002C7.99998 5.22388 8.22383 5.00002 8.49998 5.00002C8.77612 5.00001 8.99998 5.22387 8.99998 5.50001L9 6.29292L10.6464 4.64646C10.8417 4.4512 11.1583 4.4512 11.3535 4.64646ZM5.5 8L7.5 8C7.63261 8 7.75978 8.05268 7.85355 8.14645C7.94732 8.24021 8 8.36739 8 8.5L8 10.5C8 10.7761 7.77614 11 7.5 11C7.22386 11 7 10.7761 7 10.5V9.70711L5.35355 11.3536C5.15829 11.5488 4.84171 11.5488 4.64645 11.3536C4.45118 11.1583 4.45118 10.8417 4.64645 10.6464L6.29289 9H5.5C5.22386 9 5 8.77614 5 8.5C5 8.22386 5.22386 8 5.5 8Z" fill="white"/>
</svg>
