<svg width="16" height="16" viewBox="0 0 16 16" fill="none" xmlns="http://www.w3.org/2000/svg">
<path fill-rule="evenodd" clip-rule="evenodd" d="M2.5 3.4C2.5 2.90294 2.90294 2.5 3.4 2.5H12.6C13.0971 2.5 13.5 2.90294 13.5 3.4V12.6C13.5 13.0971 13.0971 13.5 12.6 13.5H3.4C2.90294 13.5 2.5 13.0971 2.5 12.6V3.4ZM3.5 3.5V12.5H12.5V3.5H3.5ZM9 4.5L11 4.49998C11.2761 4.49998 11.5 4.72383 11.5 4.99998L11.5 6.99998C11.5 7.27612 11.2762 7.49998 11 7.49998C10.7239 7.49999 10.5 7.27613 10.5 6.99999L10.5 6.20708L8.85357 7.85354C8.65831 8.0488 8.34173 8.0488 8.14646 7.85354C7.9512 7.65828 7.9512 7.3417 8.14646 7.14643L9.79288 5.49999L9 5.5C8.72386 5.5 8.5 5.27615 8.5 5C8.5 4.72386 8.72385 4.5 9 4.5ZM7.14645 8.14645C7.34171 7.95118 7.65829 7.95118 7.85355 8.14645C8.04882 8.34171 8.04882 8.65829 7.85355 8.85355L6.20711 10.5H7C7.27614 10.5 7.5 10.7239 7.5 11C7.5 11.2761 7.27614 11.5 7 11.5H5C4.72386 11.5 4.5 11.2761 4.5 11V9C4.5 8.72386 4.72386 8.5 5 8.5C5.27614 8.5 5.5 8.72386 5.5 9V9.79289L7.14645 8.14645Z" fill="white"/>
</svg>
