<svg width="16" height="16" viewBox="0 0 16 16" fill="none" xmlns="http://www.w3.org/2000/svg">
<path fill-rule="evenodd" clip-rule="evenodd" d="M3 3.89999C3 3.40295 3.40283 3 3.8999 3H12.1001C12.5972 3 13 3.40295 13 3.89999V12.1C13 12.597 12.5972 13 12.1001 13H3.8999C3.40283 13 3 12.597 3 12.1V3.89999ZM8.5 5.00003C8.5 5.27615 8.72388 5.50003 9 5.50003L9.79297 5.5L8.27148 7.02145C8.07617 7.21671 8.07617 7.53329 8.27148 7.72855C8.4668 7.92383 8.7832 7.92383 8.97852 7.72855L10.5 6.20709V7C10.5 7.27615 10.7239 7.5 11 7.5C11.2761 7.5 11.5 7.27612 11.5 7V5C11.5 4.72385 11.2761 4.5 11 4.5L9 4.50003C8.72388 4.50003 8.5 4.72388 8.5 5.00003ZM7.5 11C7.5 10.7238 7.27612 10.5 7 10.5H6.20703L7.72852 8.97855C7.92383 8.78326 7.92383 8.46671 7.72852 8.27142C7.5332 8.07617 7.2168 8.07617 7.02148 8.27142L5.5 9.79288V9C5.5 8.72385 5.27612 8.5 5 8.5C4.72388 8.5 4.5 8.72385 4.5 9V11C4.5 11.0608 4.51099 11.1204 4.53198 11.1761C4.54834 11.2194 4.57056 11.2603 4.59814 11.2976C4.61279 11.3173 4.62891 11.336 4.64648 11.3535C4.74023 11.4473 4.86743 11.5 5 11.5H7C7.27612 11.5 7.5 11.2761 7.5 11Z" fill="white"/>
</svg>
