<svg width="24" height="24" viewBox="0 0 24 24" fill="none" xmlns="http://www.w3.org/2000/svg">
<path fill-rule="evenodd" clip-rule="evenodd" d="M3.82495 5.49995C3.82495 4.57487 4.57487 3.82495 5.49995 3.82495H18.5C19.425 3.82495 20.175 4.57487 20.175 5.49995V18.5C20.175 19.425 19.425 20.175 18.5 20.175H5.49995C4.57487 20.175 3.82495 19.425 3.82495 18.5V5.49995ZM5.49995 5.17495C5.32046 5.17495 5.17495 5.32046 5.17495 5.49995V18.5C5.17495 18.6794 5.32046 18.825 5.49995 18.825H18.5C18.6794 18.825 18.825 18.6794 18.825 18.5V5.49995C18.825 5.32046 18.6794 5.17495 18.5 5.17495H5.49995ZM12.825 6.99996C12.825 6.62717 13.1272 6.32496 13.5 6.32496L17 6.32499C17.3728 6.32499 17.675 6.6272 17.675 6.99999L17.675 10.5C17.675 10.8728 17.3728 11.175 17 11.175C16.6272 11.175 16.325 10.8728 16.325 10.5L16.325 8.62958L13.4773 11.4773C13.2137 11.7409 12.7863 11.7409 12.5227 11.4773C12.2591 11.2137 12.2591 10.7863 12.5227 10.5227L15.3704 7.67498L13.4999 7.67496C13.1272 7.67496 12.8249 7.37275 12.825 6.99996ZM11.4772 12.5226C11.7408 12.7862 11.7408 13.2136 11.4772 13.4772L8.62951 16.3249L10.4999 16.3249C10.8727 16.3249 11.1749 16.6271 11.1749 16.9999C11.1749 17.3727 10.8727 17.6749 10.4999 17.6749L6.99992 17.6749C6.62713 17.6749 6.32493 17.3727 6.32493 16.9999L6.32494 13.4999C6.32494 13.1272 6.62715 12.825 6.99994 12.825C7.37273 12.825 7.67494 13.1272 7.67494 13.5L7.67493 15.3703L10.5226 12.5226C10.7862 12.259 11.2136 12.259 11.4772 12.5226Z" fill="white"/>
</svg>
