<svg width="16" height="16" viewBox="0 0 16 16" fill="none" xmlns="http://www.w3.org/2000/svg">
<path fill-rule="evenodd" clip-rule="evenodd" d="M8 3C8.27614 3 8.5 3.22386 8.5 3.5V12.5C8.5 12.7761 8.27614 13 8 13C7.72386 13 7.5 12.7761 7.5 12.5V3.5C7.5 3.22386 7.72386 3 8 3ZM3.64649 5.64644C3.84176 5.45118 4.15834 5.45119 4.3536 5.64645L6.35356 7.64645C6.54881 7.84171 6.54881 8.15829 6.35356 8.35355L4.3536 10.3535C4.15834 10.5488 3.84176 10.5488 3.64649 10.3536C3.45123 10.1583 3.45122 9.84171 3.64648 9.64645L4.79291 8.5L1.5 8.5C1.22386 8.50001 1 8.27615 1 8.00001C1 7.72386 1.22386 7.50001 1.5 7.5L4.79291 7.5L3.64648 6.35355C3.45122 6.15829 3.45123 5.8417 3.64649 5.64644ZM12.3536 5.64645C12.5488 5.84171 12.5488 6.15829 12.3536 6.35355L11.2071 7.5L14.5 7.5C14.7761 7.50001 15 7.72386 15 8.00001C15 8.27615 14.7761 8.50001 14.5 8.5L11.2071 8.5L12.3536 9.64645C12.5488 9.84171 12.5488 10.1583 12.3536 10.3536C12.1583 10.5488 11.8417 10.5488 11.6464 10.3536L9.64645 8.35355C9.45118 8.15829 9.45118 7.84171 9.64645 7.64645L11.6464 5.64645C11.8417 5.45118 12.1583 5.45118 12.3536 5.64645Z" fill="white"/>
</svg>
