<svg width="24" height="24" viewBox="0 0 24 24" fill="none" xmlns="http://www.w3.org/2000/svg">
<path fill-rule="evenodd" clip-rule="evenodd" d="M3.82495 5.49995C3.82495 4.57487 4.57487 3.82495 5.49995 3.82495H18.5C19.425 3.82495 20.175 4.57487 20.175 5.49995V18.5C20.175 19.425 19.425 20.175 18.5 20.175H5.49995C4.57487 20.175 3.82495 19.425 3.82495 18.5V5.49995ZM5.49995 5.17495C5.32046 5.17495 5.17495 5.32046 5.17495 5.49995V18.5C5.17495 18.6794 5.32046 18.825 5.49995 18.825H18.5C18.6794 18.825 18.825 18.6794 18.825 18.5V5.49995C18.825 5.32046 18.6794 5.17495 18.5 5.17495H5.49995ZM17.4772 6.52269C17.7408 6.7863 17.7408 7.21368 17.4772 7.47729L14.6295 10.325L16.5 10.325C16.8727 10.325 17.175 10.6272 17.175 11C17.1749 11.3728 16.8727 11.675 16.4999 11.675L12.9999 11.675C12.6271 11.675 12.3249 11.3728 12.3249 11L12.3249 7.49999C12.3249 7.12719 12.6271 6.82499 12.9999 6.82499C13.3727 6.82499 13.6749 7.12719 13.6749 7.49999L13.6749 9.37038L16.5226 6.52269C16.7862 6.25909 17.2136 6.25909 17.4772 6.52269ZM6.82496 12.9999C6.82496 12.6271 7.12717 12.3249 7.49996 12.3249L11 12.325C11.3727 12.325 11.675 12.6272 11.675 12.9999L11.675 16.4999C11.675 16.8727 11.3728 17.1749 11 17.1749C10.6272 17.1749 10.325 16.8727 10.325 16.4999L10.325 14.6295L7.47725 17.4772C7.21364 17.7409 6.78626 17.7409 6.52265 17.4772C6.25905 17.2136 6.25905 16.7863 6.52265 16.5227L9.37036 13.6749L7.49996 13.6749C7.12717 13.6749 6.82496 13.3727 6.82496 12.9999Z" fill="white"/>
</svg>
