<svg width="24" height="24" viewBox="0 0 24 24" fill="none" xmlns="http://www.w3.org/2000/svg">
<path fill-rule="evenodd" clip-rule="evenodd" d="M13.9317 5.32495C14.2157 4.45417 15.0344 3.82495 16 3.82495C16.9655 3.82495 17.7842 4.45417 18.0682 5.32495L20.5 5.32495C20.8727 5.32495 21.1749 5.62716 21.1749 5.99995C21.1749 6.37274 20.8727 6.67495 20.5 6.67495L18.0682 6.67495C17.7842 7.54573 16.9655 8.17495 16 8.17495C15.0344 8.17495 14.2157 7.54573 13.9317 6.67495H3.49995C3.12716 6.67495 2.82495 6.37274 2.82495 5.99995C2.82495 5.62716 3.12716 5.32495 3.49995 5.32495L13.9317 5.32495ZM16 5.17495C15.5443 5.17495 15.175 5.54432 15.175 5.99995C15.175 6.45559 15.5443 6.82495 16 6.82495C16.4556 6.82495 16.825 6.45559 16.825 5.99995C16.825 5.54432 16.4556 5.17495 16 5.17495ZM5.93173 11.325C6.21573 10.4542 7.03436 9.82495 7.99995 9.82495C8.96554 9.82495 9.78417 10.4542 10.0682 11.325H20.5C20.8727 11.325 21.1749 11.6272 21.1749 12C21.1749 12.3727 20.8727 12.675 20.5 12.675H10.0682C9.78417 13.5457 8.96554 14.175 7.99995 14.175C7.03436 14.175 6.21573 13.5457 5.93173 12.675H3.49995C3.12716 12.675 2.82495 12.3727 2.82495 12C2.82495 11.6272 3.12716 11.325 3.49995 11.325H5.93173ZM7.99995 11.175C7.54432 11.175 7.17495 11.5443 7.17495 12C7.17495 12.4556 7.54432 12.825 7.99995 12.825C8.45559 12.825 8.82495 12.4556 8.82495 12C8.82495 11.5443 8.45559 11.175 7.99995 11.175ZM16 17.175C15.5443 17.175 15.175 17.5443 15.175 18C15.175 18.4556 15.5443 18.825 16 18.825C16.4556 18.825 16.825 18.4556 16.825 18C16.825 17.5443 16.4556 17.175 16 17.175ZM13.9317 17.325C14.2157 16.4542 15.0344 15.825 16 15.825C16.9655 15.825 17.7842 16.4542 18.0682 17.325H20.5C20.8727 17.325 21.1749 17.6272 21.1749 18C21.1749 18.3727 20.8727 18.675 20.5 18.675H18.0682C17.7842 19.5457 16.9655 20.175 16 20.175C15.0344 20.175 14.2157 19.5457 13.9317 18.675H3.49995C3.12716 18.675 2.82495 18.3727 2.82495 18C2.82495 17.6272 3.12716 17.325 3.49995 17.325H13.9317Z" fill="white"/>
</svg>
