<svg width="16" height="16" viewBox="0 0 16 16" fill="none" xmlns="http://www.w3.org/2000/svg">
<path fill-rule="evenodd" clip-rule="evenodd" d="M8.58535 3.5C8.79127 2.9174 9.34689 2.5 10 2.5C10.6531 2.5 11.2087 2.9174 11.4146 3.5L13.5 3.5C13.7761 3.5 14 3.72386 14 4C14 4.27614 13.7761 4.5 13.5 4.5L11.4146 4.5C11.2087 5.0826 10.6531 5.5 10 5.5C9.34689 5.5 8.79127 5.0826 8.58535 4.5H2.5C2.22386 4.5 2 4.27614 2 4C2 3.72386 2.22386 3.5 2.5 3.5L8.58535 3.5ZM10 3.5C9.72386 3.5 9.5 3.72386 9.5 4C9.5 4.27614 9.72386 4.5 10 4.5C10.2761 4.5 10.5 4.27614 10.5 4C10.5 3.72386 10.2761 3.5 10 3.5ZM4.58535 7.5C4.79127 6.9174 5.34689 6.5 6 6.5C6.65311 6.5 7.20873 6.9174 7.41465 7.5H13.5C13.7761 7.5 14 7.72386 14 8C14 8.27614 13.7761 8.5 13.5 8.5H7.41465C7.20873 9.0826 6.65311 9.5 6 9.5C5.34689 9.5 4.79127 9.0826 4.58535 8.5H2.5C2.22386 8.5 2 8.27614 2 8C2 7.72386 2.22386 7.5 2.5 7.5H4.58535ZM6 7.5C5.72386 7.5 5.5 7.72386 5.5 8C5.5 8.27614 5.72386 8.5 6 8.5C6.27614 8.5 6.5 8.27614 6.5 8C6.5 7.72386 6.27614 7.5 6 7.5ZM10 11.5C9.72386 11.5 9.5 11.7239 9.5 12C9.5 12.2761 9.72386 12.5 10 12.5C10.2761 12.5 10.5 12.2761 10.5 12C10.5 11.7239 10.2761 11.5 10 11.5ZM8.58535 11.5C8.79127 10.9174 9.34689 10.5 10 10.5C10.6531 10.5 11.2087 10.9174 11.4146 11.5H13.5C13.7761 11.5 14 11.7239 14 12C14 12.2761 13.7761 12.5 13.5 12.5H11.4146C11.2087 13.0826 10.6531 13.5 10 13.5C9.34689 13.5 8.79127 13.0826 8.58535 12.5H2.5C2.22386 12.5 2 12.2761 2 12C2 11.7239 2.22386 11.5 2.5 11.5H8.58535Z" fill="white"/>
</svg>
