<svg width="16" height="16" viewBox="0 0 16 16" fill="none" xmlns="http://www.w3.org/2000/svg">
<path fill-rule="evenodd" clip-rule="evenodd" d="M8 14C11.3137 14 14 11.3137 14 8C14 4.68628 11.3137 2 8 2C4.68628 2 2 4.68628 2 8C2 11.3137 4.68628 14 8 14ZM7.00024 6.49994C7.00024 6.22379 6.77637 5.99994 6.50024 5.99994C6.224 5.99994 6.00024 6.22379 6.00024 6.49994V6.99994C6.00024 7.27609 6.224 7.49994 6.50024 7.49994C6.77637 7.49994 7.00024 7.27609 7.00024 6.99994V6.49994ZM10.0002 6.49994C10.0002 6.22379 9.77637 5.99994 9.50024 5.99994C9.224 5.99994 9.00024 6.22379 9.00024 6.49994V6.99994C9.00024 7.27609 9.224 7.49994 9.50024 7.49994C9.77637 7.49994 10.0002 7.27609 10.0002 6.99994V6.49994ZM5.42847 8.54568C5.28589 8.30917 4.97864 8.23297 4.74219 8.37549C4.50562 8.51801 4.42944 8.82526 4.5719 9.0618C5.27112 10.2221 6.54456 10.9999 8.00024 10.9999C9.45581 10.9999 10.7292 10.2221 11.4285 9.0618C11.5709 8.82526 11.4948 8.51801 11.2583 8.37549C11.0217 8.23297 10.7145 8.30917 10.5719 8.54568C10.0461 9.41821 9.09094 9.99994 8.00024 9.99994C6.90955 9.99994 5.95422 9.41821 5.42847 8.54568Z" fill="white"/>
</svg>
