<svg width="16" height="16" viewBox="0 0 16 16" fill="none" xmlns="http://www.w3.org/2000/svg">
<path fill-rule="evenodd" clip-rule="evenodd" d="M8 3C5.23858 3 3 5.23858 3 8C3 10.7614 5.23858 13 8 13C10.7614 13 13 10.7614 13 8C13 5.23858 10.7614 3 8 3ZM2 8C2 4.68629 4.68629 2 8 2C11.3137 2 14 4.68629 14 8C14 11.3137 11.3137 14 8 14C4.68629 14 2 11.3137 2 8ZM6.5 6C6.77614 6 7 6.22386 7 6.5V7C7 7.27614 6.77614 7.5 6.5 7.5C6.22386 7.5 6 7.27614 6 7V6.5C6 6.22386 6.22386 6 6.5 6ZM9.5 6C9.77614 6 10 6.22386 10 6.5V7C10 7.27614 9.77614 7.5 9.5 7.5C9.22386 7.5 9 7.27614 9 7V6.5C9 6.22386 9.22386 6 9.5 6ZM4.74195 8.37554C4.97847 8.23302 5.28574 8.30923 5.42826 8.54575C5.95401 9.41827 6.90931 10 8 10C9.09069 10 10.046 9.41827 10.5717 8.54575C10.7143 8.30923 11.0215 8.23302 11.2581 8.37554C11.4946 8.51806 11.5708 8.82533 11.4283 9.06186C10.7291 10.2222 9.45564 11 8 11C6.54436 11 5.27089 10.2222 4.57174 9.06186C4.42922 8.82533 4.50542 8.51806 4.74195 8.37554Z" fill="white"/>
</svg>
