<svg width="24" height="24" viewBox="0 0 24 24" fill="none" xmlns="http://www.w3.org/2000/svg">
<path fill-rule="evenodd" clip-rule="evenodd" d="M12 4.17495C7.67832 4.17495 4.17495 7.67832 4.17495 12C4.17495 16.3216 7.67832 19.825 12 19.825C16.3216 19.825 19.825 16.3216 19.825 12C19.825 7.67832 16.3216 4.17495 12 4.17495ZM2.82495 12C2.82495 6.93274 6.93274 2.82495 12 2.82495C17.0672 2.82495 21.1749 6.93274 21.1749 12C21.1749 17.0672 17.0672 21.1749 12 21.1749C6.93274 21.1749 2.82495 17.0672 2.82495 12ZM9.49995 8.82495C9.87274 8.82495 10.175 9.12716 10.175 9.49995V10.5C10.175 10.8727 9.87274 11.175 9.49995 11.175C9.12716 11.175 8.82495 10.8727 8.82495 10.5V9.49995C8.82495 9.12716 9.12716 8.82495 9.49995 8.82495ZM14.5 8.82495C14.8727 8.82495 15.175 9.12716 15.175 9.49995V10.5C15.175 10.8727 14.8727 11.175 14.5 11.175C14.1272 11.175 13.825 10.8727 13.825 10.5V9.49995C13.825 9.12716 14.1272 8.82495 14.5 8.82495ZM7.02069 12.4345C7.33297 12.2309 7.75117 12.319 7.95478 12.6313C8.81682 13.9534 10.3068 14.825 11.9999 14.825C13.693 14.825 15.183 13.9534 16.045 12.6313C16.2486 12.319 16.6668 12.2309 16.9791 12.4345C17.2914 12.6381 17.3795 13.0563 17.1759 13.3686C16.0752 15.0567 14.1683 16.175 11.9999 16.175C9.83147 16.175 7.92459 15.0567 6.82393 13.3686C6.62032 13.0563 6.70841 12.6381 7.02069 12.4345Z" fill="white"/>
</svg>
