<svg width="24" height="24" viewBox="0 0 24 24" fill="none" xmlns="http://www.w3.org/2000/svg">
<path fill-rule="evenodd" clip-rule="evenodd" d="M12 21C16.9706 21 21 16.9706 21 12C21 7.02945 16.9706 3 12 3C7.02942 3 3 7.02945 3 12C3 16.9706 7.02942 21 12 21ZM10.1753 9.49994C10.1753 9.12717 9.87305 8.82495 9.50024 8.82495C9.12744 8.82495 8.82532 9.12717 8.82532 9.49994V10.4999C8.82532 10.8727 9.12744 11.175 9.50024 11.175C9.87305 11.175 10.1753 10.8727 10.1753 10.4999V9.49994ZM15.1753 9.49994C15.1753 9.12717 14.873 8.82495 14.5002 8.82495C14.1274 8.82495 13.8253 9.12717 13.8253 9.49994V10.4999C13.8253 10.8727 14.1274 11.175 14.5002 11.175C14.873 11.175 15.1753 10.8727 15.1753 10.4999V9.49994ZM7.95508 12.6313C7.75146 12.319 7.33325 12.2309 7.021 12.4345C6.70874 12.6381 6.62061 13.0563 6.82422 13.3686C7.92493 15.0567 9.83179 16.175 12.0002 16.175C14.1686 16.175 16.0756 15.0567 17.1761 13.3686C17.3798 13.0563 17.2917 12.6381 16.9794 12.4345C16.6671 12.2309 16.2489 12.319 16.0453 12.6313C15.1832 13.9534 13.6934 14.825 12.0002 14.825C10.3071 14.825 8.81714 13.9534 7.95508 12.6313Z" fill="white"/>
</svg>
