<svg width="16" height="16" viewBox="0 0 16 16" fill="none" xmlns="http://www.w3.org/2000/svg">
<path fill-rule="evenodd" clip-rule="evenodd" d="M6.1665 2C6.44265 2 6.6665 2.22386 6.6665 2.5V13.5C6.6665 13.7761 6.44265 14 6.1665 14C5.89036 14 5.6665 13.7761 5.6665 13.5V2.5C5.6665 2.22386 5.89036 2 6.1665 2ZM7.99976 4C8.2759 4 8.49976 4.22386 8.49976 4.5V11.5C8.49976 11.7761 8.2759 12 7.99976 12C7.72361 12 7.49976 11.7761 7.49976 11.5V4.5C7.49976 4.22386 7.72361 4 7.99976 4ZM4.33325 5C4.60939 5 4.83325 5.22386 4.83325 5.5V10.5C4.83325 10.7761 4.60939 11 4.33325 11C4.05711 11 3.83325 10.7761 3.83325 10.5V5.5C3.83325 5.22386 4.05711 5 4.33325 5ZM11.6663 5C11.9424 5 12.1663 5.22386 12.1663 5.5V10.5C12.1663 10.7761 11.9424 11 11.6663 11C11.3901 11 11.1663 10.7761 11.1663 10.5V5.5C11.1663 5.22386 11.3901 5 11.6663 5ZM9.83301 6C10.1091 6 10.333 6.22386 10.333 6.5V9.5C10.333 9.77614 10.1091 10 9.83301 10C9.55687 10 9.33301 9.77614 9.33301 9.5V6.5C9.33301 6.22386 9.55687 6 9.83301 6ZM2.5 7C2.77614 7 3 7.22386 3 7.5V8.5C3 8.77614 2.77614 9 2.5 9C2.22386 9 2 8.77614 2 8.5V7.5C2 7.22386 2.22386 7 2.5 7ZM13.4995 7C13.7757 7 13.9995 7.22386 13.9995 7.5V8.5C13.9995 8.77614 13.7757 9 13.4995 9C13.2234 9 12.9995 8.77614 12.9995 8.5V7.5C12.9995 7.22386 13.2234 7 13.4995 7Z" fill="white"/>
</svg>
