<svg width="24" height="24" viewBox="0 0 24 24" fill="none" xmlns="http://www.w3.org/2000/svg">
<path fill-rule="evenodd" clip-rule="evenodd" d="M9.1667 2.82495C9.53949 2.82495 9.8417 3.12716 9.8417 3.49995V20.5C9.8417 20.8727 9.53949 21.1749 9.1667 21.1749C8.79391 21.1749 8.4917 20.8727 8.4917 20.5V3.49995C8.4917 3.12716 8.79391 2.82495 9.1667 2.82495ZM12 5.82495C12.3727 5.82495 12.675 6.12716 12.675 6.49995V17.5C12.675 17.8727 12.3727 18.175 12 18.175C11.6272 18.175 11.325 17.8727 11.325 17.5V6.49995C11.325 6.12716 11.6272 5.82495 12 5.82495ZM17.6665 6.82495C18.0392 6.82495 18.3415 7.12716 18.3415 7.49995V16.5C18.3415 16.8727 18.0392 17.175 17.6665 17.175C17.2937 17.175 16.9915 16.8727 16.9915 16.5V7.49995C16.9915 7.12716 17.2937 6.82495 17.6665 6.82495ZM6.33345 7.82495C6.70624 7.82495 7.00845 8.12716 7.00845 8.49995V15.5C7.00845 15.8727 6.70624 16.175 6.33345 16.175C5.96065 16.175 5.65845 15.8727 5.65845 15.5V8.49995C5.65845 8.12716 5.96065 7.82495 6.33345 7.82495ZM14.8332 8.82495C15.206 8.82495 15.5082 9.12716 15.5082 9.49995V14.5C15.5082 14.8727 15.206 15.175 14.8332 15.175C14.4604 15.175 14.1582 14.8727 14.1582 14.5V9.49995C14.1582 9.12716 14.4604 8.82495 14.8332 8.82495ZM3.5002 10.325C3.87299 10.325 4.1752 10.6272 4.1752 11V13C4.1752 13.3727 3.87299 13.675 3.5002 13.675C3.1274 13.675 2.8252 13.3727 2.8252 13V11C2.8252 10.6272 3.1274 10.325 3.5002 10.325ZM20.4997 10.325C20.8725 10.325 21.1747 10.6272 21.1747 11V13C21.1747 13.3727 20.8725 13.675 20.4997 13.675C20.1269 13.675 19.8247 13.3727 19.8247 13V11C19.8247 10.6272 20.1269 10.325 20.4997 10.325Z" fill="white"/>
</svg>
