<svg width="24" height="24" viewBox="0 0 24 24" fill="none" xmlns="http://www.w3.org/2000/svg">
<path fill-rule="evenodd" clip-rule="evenodd" d="M12.0002 2.8252C12.2826 2.8252 12.5352 3.00105 12.6332 3.26595L14.8213 9.17909L20.7344 11.3671C20.9993 11.4652 21.1752 11.7177 21.1752 12.0002C21.1752 12.2826 20.9993 12.5352 20.7344 12.6332L14.8213 14.8213L12.6332 20.7344C12.5352 20.9993 12.2826 21.1752 12.0002 21.1752C11.7177 21.1752 11.4652 20.9993 11.3671 20.7344L9.17909 14.8213L3.26595 12.6332C3.00105 12.5352 2.8252 12.2826 2.8252 12.0002C2.8252 11.7177 3.00105 11.4652 3.26595 11.3671L9.17909 9.17909L11.3671 3.26595C11.4652 3.00105 11.7177 2.8252 12.0002 2.8252ZM12.0002 5.44524L10.3375 9.93867C10.2691 10.1234 10.1234 10.2691 9.93867 10.3375L5.44524 12.0002L9.93867 13.6629C10.1234 13.7313 10.2691 13.877 10.3375 14.0617L12.0002 18.5552L13.6629 14.0617C13.7313 13.877 13.877 13.7313 14.0617 13.6629L18.5552 12.0002L14.0617 10.3375C13.877 10.2691 13.7313 10.1234 13.6629 9.93867L12.0002 5.44524ZM6.0002 3.8252C6.37299 3.8252 6.6752 4.1274 6.6752 4.5002V5.3252H7.5002C7.87299 5.3252 8.1752 5.6274 8.1752 6.0002C8.1752 6.37299 7.87299 6.6752 7.5002 6.6752H6.6752V7.5002C6.6752 7.87299 6.37299 8.1752 6.0002 8.1752C5.6274 8.1752 5.3252 7.87299 5.3252 7.5002V6.6752H4.5002C4.1274 6.6752 3.8252 6.37299 3.8252 6.0002C3.8252 5.6274 4.1274 5.3252 4.5002 5.3252H5.3252V4.5002C5.3252 4.1274 5.6274 3.8252 6.0002 3.8252ZM18.0002 15.8252C18.373 15.8252 18.6752 16.1274 18.6752 16.5002V17.3252H19.5002C19.873 17.3252 20.1752 17.6274 20.1752 18.0002C20.1752 18.373 19.873 18.6752 19.5002 18.6752H18.6752V19.5002C18.6752 19.873 18.373 20.1752 18.0002 20.1752C17.6274 20.1752 17.3252 19.873 17.3252 19.5002V18.6752H16.5002C16.1274 18.6752 15.8252 18.373 15.8252 18.0002C15.8252 17.6274 16.1274 17.3252 16.5002 17.3252H17.3252V16.5002C17.3252 16.1274 17.6274 15.8252 18.0002 15.8252Z" fill="white"/>
</svg>
