<svg width="16" height="16" viewBox="0 0 16 16" fill="none" xmlns="http://www.w3.org/2000/svg">
<path fill-rule="evenodd" clip-rule="evenodd" d="M8 2C8.20922 2 8.39632 2.13026 8.46893 2.32648L9.87464 6.12536L13.6735 7.53107C13.8697 7.60368 14 7.79078 14 8C14 8.20922 13.8697 8.39632 13.6735 8.46893L9.87464 9.87464L8.46893 13.6735C8.39632 13.8697 8.20922 14 8 14C7.79078 14 7.60368 13.8697 7.53107 13.6735L6.12536 9.87464L2.32648 8.46893C2.13026 8.39632 2 8.20922 2 8C2 7.79078 2.13026 7.60368 2.32648 7.53107L6.12536 6.12536L7.53107 2.32648C7.60368 2.13026 7.79078 2 8 2ZM4 2.5C4.27614 2.5 4.5 2.72386 4.5 3V3.5H5C5.27614 3.5 5.5 3.72386 5.5 4C5.5 4.27614 5.27614 4.5 5 4.5H4.5V5C4.5 5.27614 4.27614 5.5 4 5.5C3.72386 5.5 3.5 5.27614 3.5 5V4.5H3C2.72386 4.5 2.5 4.27614 2.5 4C2.5 3.72386 2.72386 3.5 3 3.5H3.5V3C3.5 2.72386 3.72386 2.5 4 2.5ZM12 10.5C12.2761 10.5 12.5 10.7239 12.5 11V11.5H13C13.2761 11.5 13.5 11.7239 13.5 12C13.5 12.2761 13.2761 12.5 13 12.5H12.5V13C12.5 13.2761 12.2761 13.5 12 13.5C11.7239 13.5 11.5 13.2761 11.5 13V12.5H11C10.7239 12.5 10.5 12.2761 10.5 12C10.5 11.7239 10.7239 11.5 11 11.5H11.5V11C11.5 10.7239 11.7239 10.5 12 10.5Z" fill="white"/>
</svg>
