<svg width="24" height="24" viewBox="0 0 24 24" fill="none" xmlns="http://www.w3.org/2000/svg">
<path d="M12.621 3.43234C12.5248 3.1725 12.2771 3 12 3C11.7229 3 11.4752 3.1725 11.379 3.43234L9.2327 9.2327L3.43234 11.379C3.1725 11.4752 3 11.7229 3 12C3 12.2771 3.1725 12.5248 3.43234 12.621L9.2327 14.7673L11.379 20.5677C11.4752 20.8275 11.7229 21 12 21C12.2771 21 12.5248 20.8275 12.621 20.5677L14.7673 14.7673L20.5677 12.621C20.8275 12.5248 21 12.2771 21 12C21 11.7229 20.8275 11.4752 20.5677 11.379L14.7673 9.2327L12.621 3.43234Z" fill="white"/>
<path d="M6.67501 4.50001C6.67501 4.12722 6.3728 3.82501 6.00001 3.82501C5.62722 3.82501 5.32501 4.12722 5.32501 4.50001V5.32501H4.50001C4.12722 5.32501 3.82501 5.62722 3.82501 6.00001C3.82501 6.3728 4.12722 6.67501 4.50001 6.67501H5.32501V7.50001C5.32501 7.8728 5.62722 8.17501 6.00001 8.17501C6.3728 8.17501 6.67501 7.8728 6.67501 7.50001V6.67501H7.50001C7.8728 6.67501 8.17501 6.3728 8.17501 6.00001C8.17501 5.62722 7.8728 5.32501 7.50001 5.32501H6.67501V4.50001Z" fill="white"/>
<path d="M18.675 16.5C18.675 16.1272 18.3728 15.825 18 15.825C17.6272 15.825 17.325 16.1272 17.325 16.5V17.325H16.5C16.1272 17.325 15.825 17.6272 15.825 18C15.825 18.3728 16.1272 18.675 16.5 18.675H17.325V19.5C17.325 19.8728 17.6272 20.175 18 20.175C18.3728 20.175 18.675 19.8728 18.675 19.5V18.675H19.5C19.8728 18.675 20.175 18.3728 20.175 18C20.175 17.6272 19.8728 17.325 19.5 17.325H18.675V16.5Z" fill="white"/>
</svg>
