<svg width="24" height="24" viewBox="0 0 24 24" fill="none" xmlns="http://www.w3.org/2000/svg">
<path d="M3.5 17.0004H10L14.7197 21.7201C15.1921 22.1926 16 21.8579 16 21.1897V2.81106C16 2.1429 15.1921 1.80827 14.7197 2.28074L10 7.00041H3.5C2.67163 7.00041 2 7.67198 2 8.50041V15.5004C2 16.3288 2.67163 17.0004 3.5 17.0004Z" fill="white"/>
<path d="M21.3778 5.95954C21.2242 5.61987 20.8243 5.46903 20.4846 5.62265C20.145 5.77626 19.9941 6.17615 20.1477 6.51582C20.9038 8.18766 21.325 10.0439 21.325 12.0004C21.325 13.9569 20.9038 15.8132 20.1477 17.485C19.9941 17.8247 20.145 18.2246 20.4846 18.3782C20.8243 18.5318 21.2242 18.381 21.3778 18.0413C22.2114 16.1981 22.675 14.1525 22.675 12.0004C22.675 9.84832 22.2114 7.80271 21.3778 5.95954Z" fill="white"/>
<path d="M19.0896 8.34038C18.9729 7.98635 18.5912 7.79402 18.2372 7.91081C17.8831 8.02759 17.6908 8.40926 17.8076 8.76328C18.1432 9.7806 18.325 10.8686 18.325 12.0004C18.325 13.1322 18.1432 14.2202 17.8076 15.2375C17.6908 15.5916 17.8831 15.9732 18.2372 16.09C18.5912 16.2068 18.9729 16.0145 19.0896 15.6604C19.4697 14.5084 19.675 13.2777 19.675 12.0004C19.675 10.7231 19.4697 9.49244 19.0896 8.34038Z" fill="white"/>
</svg>
