<svg width="24" height="24" viewBox="0 0 24 24" fill="none" xmlns="http://www.w3.org/2000/svg">
<path fill-rule="evenodd" clip-rule="evenodd" d="M17.8252 4.12965L14.2704 7.68446C13.9563 7.99859 13.5302 8.17506 13.086 8.17506L6.5002 8.17505C6.3207 8.17505 6.1752 8.32056 6.1752 8.50005V15.5001C6.1752 15.6796 6.3207 15.8251 6.5002 15.8251H13.086C13.5302 15.8251 13.9563 16.0015 14.2704 16.3157L17.8252 19.8705V4.12965ZM17.5961 2.44954C18.1788 1.86682 19.1752 2.27953 19.1752 3.10361V20.8965C19.1752 21.7206 18.1788 22.1333 17.5961 21.5506L13.3158 17.2702C13.2548 17.2093 13.1722 17.1751 13.086 17.1751H6.5002C5.57512 17.1751 4.8252 16.4251 4.8252 15.5001V8.50005C4.8252 7.57498 5.57512 6.82505 6.5002 6.82505L13.086 6.82506C13.1722 6.82506 13.2548 6.79082 13.3158 6.72987L17.5961 2.44954Z" fill="white"/>
</svg>
