<svg width="16" height="16" viewBox="0 0 16 16" fill="none" xmlns="http://www.w3.org/2000/svg">
<path fill-rule="evenodd" clip-rule="evenodd" d="M9.12938 1.66406C9.45065 1.34281 10 1.5703 10 2.02469V13.9764C10 14.4308 9.45065 14.6583 9.1294 14.3371L5.79289 11.0005H1.9C1.40294 11.0005 1 10.5976 1 10.1005V5.90055C1 5.40349 1.40294 5.00055 1.9 5.00055H5.79289L9.12938 1.66406ZM9 3.20766L6.47071 5.73694C6.30193 5.90573 6.07301 6.00055 5.83431 6.00055H2V10.0005H5.83431C6.07301 10.0005 6.30193 10.0954 6.47071 10.2642L9 12.7934V3.20766Z" fill="white"/>
<path d="M13.3889 3.79744C13.2522 3.55752 12.9468 3.47387 12.7069 3.6106C12.467 3.74733 12.3834 4.05266 12.5201 4.29258C13.1431 5.38569 13.4991 6.6507 13.4991 8.00038C13.4991 9.35006 13.1431 10.6151 12.5201 11.7082C12.3834 11.9481 12.467 12.2534 12.7069 12.3902C12.9468 12.5269 13.2522 12.4432 13.3889 12.2033C14.0956 10.9633 14.4991 9.52822 14.4991 8.00038C14.4991 6.47253 14.0956 5.03743 13.3889 3.79744Z" fill="white"/>
<path d="M11.9245 5.3246C11.8107 5.07299 11.5145 4.96127 11.2628 5.07506C11.0112 5.18884 10.8995 5.48506 11.0133 5.73666C11.3252 6.42642 11.4991 7.19242 11.4991 8.00038C11.4991 8.80834 11.3252 9.57433 11.0133 10.2641C10.8995 10.5157 11.0112 10.8119 11.2628 10.9257C11.5145 11.0395 11.8107 10.9278 11.9245 10.6761C12.2938 9.85948 12.4991 8.95323 12.4991 8.00038C12.4991 7.04752 12.2938 6.14128 11.9245 5.3246Z" fill="white"/>
</svg>
