<svg width="24" height="24" viewBox="0 0 24 24" fill="none" xmlns="http://www.w3.org/2000/svg">
<path fill-rule="evenodd" clip-rule="evenodd" d="M16.1752 3.10361C16.1752 2.27953 15.1788 1.86682 14.5961 2.44954L10.3158 6.72987C10.2548 6.79082 10.1722 6.82506 10.086 6.82506L3.5002 6.82505C2.57512 6.82505 1.8252 7.57498 1.8252 8.50005V15.5001C1.8252 16.4251 2.57512 17.1751 3.5002 17.1751H10.086C10.1722 17.1751 10.2548 17.2093 10.3158 17.2702L14.5961 21.5506C15.1788 22.1333 16.1752 21.7206 16.1752 20.8965V3.10361ZM11.2704 7.68446L14.8252 4.12965V19.8705L11.2704 16.3157C10.9563 16.0015 10.5302 15.8251 10.086 15.8251H3.5002C3.3207 15.8251 3.1752 15.6796 3.1752 15.5001V8.50005C3.1752 8.32056 3.3207 8.17505 3.5002 8.17505L10.086 8.17506C10.5302 8.17506 10.9563 7.99859 11.2704 7.68446Z" fill="white"/>
<path d="M21.3788 5.95953C21.2252 5.61985 20.8253 5.46902 20.4856 5.62264C20.1459 5.77625 19.9951 6.17614 20.1487 6.51581C20.9048 8.18764 21.326 10.0439 21.326 12.0004C21.326 13.9569 20.9048 15.8132 20.1487 17.485C19.9951 17.8247 20.1459 18.2246 20.4856 18.3782C20.8253 18.5318 21.2252 18.3809 21.3788 18.0413C22.2123 16.1981 22.676 14.1525 22.676 12.0004C22.676 9.84831 22.2123 7.8027 21.3788 5.95953Z" fill="white"/>
<path d="M19.0906 8.34036C18.9738 7.98634 18.5922 7.79401 18.2381 7.91079C17.8841 8.02758 17.6918 8.40924 17.8086 8.76327C18.1442 9.78059 18.326 10.8686 18.326 12.0004C18.326 13.1322 18.1442 14.2202 17.8086 15.2375C17.6918 15.5916 17.8841 15.9732 18.2381 16.09C18.5922 16.2068 18.9738 16.0145 19.0906 15.6604C19.4707 14.5084 19.676 13.2777 19.676 12.0004C19.676 10.7231 19.4707 9.49243 19.0906 8.34036Z" fill="white"/>
</svg>
