<svg width="16" height="16" viewBox="0 0 16 16" fill="none" xmlns="http://www.w3.org/2000/svg">
<path d="M1.9 11.0002H5.27273L8.88229 14.309C9.17092 14.5735 9.63636 14.3688 9.63636 13.9772V2.02315C9.63636 1.63161 9.17092 1.42686 8.88229 1.69143L5.27273 5.0002H1.9C1.40294 5.0002 1 5.40314 1 5.9002V10.1002C1 10.5973 1.40294 11.0002 1.9 11.0002Z" fill="white"/>
<path d="M13.3898 3.79726C13.253 3.55734 12.9477 3.47369 12.7078 3.61042C12.4679 3.74715 12.3842 4.05248 12.5209 4.2924C13.1439 5.38551 13.5 6.65052 13.5 8.0002C13.5 9.34988 13.1439 10.6149 12.5209 11.708C12.3842 11.9479 12.4679 12.2532 12.7078 12.39C12.9477 12.5267 13.253 12.4431 13.3898 12.2031C14.0964 10.9631 14.5 9.52804 14.5 8.0002C14.5 6.47235 14.0964 5.03725 13.3898 3.79726Z" fill="white"/>
<path d="M11.9253 5.32442C11.8115 5.07281 11.5153 4.96109 11.2637 5.07488C11.0121 5.18866 10.9004 5.48487 11.0141 5.73648C11.3261 6.42624 11.5 7.19224 11.5 8.0002C11.5 8.80816 11.3261 9.57415 11.0141 10.2639C10.9004 10.5155 11.0121 10.8117 11.2637 10.9255C11.5153 11.0393 11.8115 10.9276 11.9253 10.676C12.2946 9.8593 12.5 8.95305 12.5 8.0002C12.5 7.04734 12.2946 6.1411 11.9253 5.32442Z" fill="white"/>
</svg>
