<svg width="16" height="16" viewBox="0 0 16 16" fill="none" xmlns="http://www.w3.org/2000/svg">
<path fill-rule="evenodd" clip-rule="evenodd" d="M8 2C4.68629 2 2 4.68629 2 8C2 11.3137 4.68629 14 8 14C11.3137 14 14 11.3137 14 8C14 4.68629 11.3137 2 8 2ZM8.27357 4.85893C8.1675 4.62287 7.83234 4.62287 7.72628 4.85893L6.97648 6.52768C6.93282 6.62483 6.84094 6.69156 6.73505 6.70299L4.91508 6.89957C4.65757 6.92738 4.55395 7.24651 4.74601 7.42029L6.10226 8.64746C6.18132 8.719 6.21647 8.82713 6.19459 8.93148L5.81941 10.7209C5.76629 10.9743 6.03748 11.1715 6.26212 11.0428L7.85083 10.1329C7.94319 10.08 8.05666 10.08 8.14902 10.1329L9.73772 11.0428C9.96236 11.1715 10.2336 10.9743 10.1804 10.7209L9.80525 8.93148C9.78337 8.82713 9.81852 8.719 9.89758 8.64746L11.2538 7.42029C11.4459 7.24651 11.3423 6.92738 11.0848 6.89957L9.2648 6.70299C9.15891 6.69156 9.06702 6.62483 9.02337 6.52768L8.27357 4.85893Z" fill="white"/>
</svg>
