<svg width="24" height="24" viewBox="0 0 24 24" fill="none" xmlns="http://www.w3.org/2000/svg">
<path fill-rule="evenodd" clip-rule="evenodd" d="M2.82501 12C2.82501 6.93274 6.9328 2.82495 12 2.82495C17.0672 2.82495 21.175 6.93274 21.175 12C21.175 17.0672 17.0672 21.1749 12 21.1749C6.9328 21.1749 2.82501 17.0672 2.82501 12ZM12 4.17495C7.67838 4.17495 4.17501 7.67832 4.17501 12C4.17501 16.3216 7.67838 19.825 12 19.825C16.3216 19.825 19.825 16.3216 19.825 12C19.825 7.67832 16.3216 4.17495 12 4.17495ZM12 6.32497C12.2657 6.32497 12.5068 6.48091 12.6157 6.72332L13.9157 9.61658L17.0725 9.95755C17.3369 9.98611 17.5599 10.1673 17.642 10.4202C17.7241 10.6731 17.6501 10.9507 17.4529 11.1292L15.1001 13.258L15.7508 16.3615C15.8053 16.6216 15.7021 16.8896 15.4871 17.0459C15.2721 17.2022 14.9854 17.2178 14.7547 17.0857L12 15.508L9.24528 17.0857C9.0146 17.2178 8.72787 17.2022 8.51286 17.0459C8.29786 16.8896 8.19462 16.6216 8.24917 16.3615L8.89985 13.258L6.54709 11.1292C6.34989 10.9507 6.27584 10.6731 6.35797 10.4202C6.44009 10.1673 6.66309 9.98611 6.92749 9.95755L10.0843 9.61658L11.3843 6.72332C11.4932 6.48091 11.7342 6.32497 12 6.32497ZM12 8.64692L11.1571 10.5228C11.0589 10.7414 10.8522 10.8915 10.6139 10.9172L8.56906 11.1381L10.0929 12.5169C10.2708 12.6778 10.3498 12.9211 10.3006 13.1559L9.87895 15.167L11.6645 14.1444C11.8723 14.0254 12.1276 14.0254 12.3354 14.1444L14.121 15.167L13.6993 13.1559C13.6501 12.9211 13.7292 12.6778 13.9071 12.5169L15.4309 11.1381L13.3861 10.9172C13.1478 10.8915 12.941 10.7414 12.8428 10.5228L12 8.64692Z" fill="white"/>
</svg>
