<svg width="16" height="16" viewBox="0 0 16 16" fill="none" xmlns="http://www.w3.org/2000/svg">
<path fill-rule="evenodd" clip-rule="evenodd" d="M2 8C2 4.68629 4.68629 2 8 2C11.3137 2 14 4.68629 14 8C14 11.3137 11.3137 14 8 14C4.68629 14 2 11.3137 2 8ZM8 3C5.23858 3 3 5.23858 3 8C3 10.7614 5.23858 13 8 13C10.7614 13 13 10.7614 13 8C13 5.23858 10.7614 3 8 3ZM8.0002 4.16663C8.19706 4.16663 8.3756 4.28214 8.45628 4.4617L9.3112 6.3644L11.3872 6.58863C11.5831 6.60979 11.7483 6.74397 11.8091 6.93134C11.8699 7.1187 11.8151 7.32433 11.669 7.4565L10.1218 8.85648L10.5497 10.8974C10.5901 11.0901 10.5136 11.2886 10.3544 11.4044C10.1951 11.5202 9.98269 11.5317 9.81182 11.4338L8.0002 10.3963L6.18859 11.4338C6.01772 11.5317 5.80532 11.5202 5.64606 11.4044C5.48679 11.2886 5.41032 11.0901 5.45073 10.8974L5.87863 8.85648L4.3314 7.4565C4.18533 7.32433 4.13047 7.1187 4.19131 6.93134C4.25214 6.74397 4.41732 6.60979 4.61318 6.58863L6.68921 6.3644L7.54413 4.4617C7.62481 4.28214 7.80335 4.16663 8.0002 4.16663ZM8.0002 5.88659L7.48391 7.03566C7.41115 7.19758 7.25801 7.30878 7.08152 7.32785L5.82915 7.46311L6.76234 8.30749C6.89411 8.42672 6.95269 8.60693 6.91623 8.78085L6.65797 10.0126L7.75171 9.38619C7.90564 9.29803 8.09476 9.29803 8.2487 9.38619L9.34243 10.0126L9.08418 8.78085C9.04771 8.60693 9.1063 8.42672 9.23807 8.30749L10.1713 7.46311L8.91888 7.32785C8.7424 7.30878 8.58925 7.19758 8.5165 7.03566L8.0002 5.88659Z" fill="white"/>
</svg>
