<svg width="24" height="24" viewBox="0 0 24 24" fill="none" xmlns="http://www.w3.org/2000/svg">
<path fill-rule="evenodd" clip-rule="evenodd" d="M12 21C7.02944 21 3 16.9706 3 12C3 7.02944 7.02944 3 12 3C16.9706 3 21 7.02944 21 12C21 16.9706 16.9706 21 12 21ZM12.4561 7.18173C12.2794 6.7883 11.7208 6.7883 11.544 7.18173L10.4159 9.69247C10.3431 9.85439 10.19 9.9656 10.0135 9.98466L7.27531 10.2804C6.84613 10.3268 6.67344 10.8586 6.99353 11.1483L9.03395 12.9945C9.16572 13.1137 9.2243 13.2939 9.18784 13.4679L8.62338 16.1601C8.53484 16.5823 8.98683 16.911 9.36124 16.6965L11.7516 15.3275C11.9055 15.2394 12.0946 15.2394 12.2486 15.3275L14.6389 16.6966C15.0133 16.911 15.4653 16.5824 15.3767 16.1601L14.8123 13.4679C14.7758 13.2939 14.8344 13.1137 14.9662 12.9945L17.0066 11.1483C17.3267 10.8586 17.154 10.3268 16.7248 10.2804L13.9866 9.98466C13.8102 9.9656 13.657 9.85439 13.5843 9.69247L12.4561 7.18173Z" fill="white"/>
</svg>
