<svg width="24" height="24" viewBox="0 0 24 24" fill="none" xmlns="http://www.w3.org/2000/svg">
<path fill-rule="evenodd" clip-rule="evenodd" d="M9.8252 5.5002C9.8252 5.1274 10.1274 4.8252 10.5002 4.8252H13.5002C13.873 4.8252 14.1752 5.1274 14.1752 5.5002C14.1752 5.87299 13.873 6.1752 13.5002 6.1752H12.6752V17.8252H13.5002C13.873 17.8252 14.1752 18.1274 14.1752 18.5002C14.1752 18.873 13.873 19.1752 13.5002 19.1752H10.5002C10.1274 19.1752 9.8252 18.873 9.8252 18.5002C9.8252 18.1274 10.1274 17.8252 10.5002 17.8252H11.3252V6.1752H10.5002C10.1274 6.1752 9.8252 5.87299 9.8252 5.5002ZM9.33277 8.41281C9.54439 8.53263 9.6752 8.75701 9.6752 9.0002V15.0002C9.6752 15.2434 9.54439 15.4678 9.33277 15.5876C9.12115 15.7074 8.86144 15.7041 8.65291 15.579L3.65291 12.579C3.4496 12.457 3.3252 12.2373 3.3252 12.0002C3.3252 11.7631 3.4496 11.5434 3.65291 11.4214L8.65291 8.42139C8.86144 8.29627 9.12115 8.29299 9.33277 8.41281Z" fill="white"/>
<path d="M14.6676 8.41281C14.8792 8.29299 15.139 8.29627 15.3475 8.42139L20.3475 11.4214C20.5508 11.5434 20.6752 11.7631 20.6752 12.0002C20.6752 12.2373 20.5508 12.457 20.3475 12.579L15.3475 15.579C15.139 15.7041 14.8792 15.7074 14.6676 15.5876C14.456 15.4678 14.3252 15.2434 14.3252 15.0002V9.0002C14.3252 8.75701 14.456 8.53263 14.6676 8.41281Z" fill="white"/>
</svg>
