<svg width="16" height="16" viewBox="0 0 16 16" fill="none" xmlns="http://www.w3.org/2000/svg">
<path fill-rule="evenodd" clip-rule="evenodd" d="M6.49998 3.5C6.49998 3.22386 6.72384 3 6.99998 3H8.99998C9.27612 3 9.49998 3.22386 9.49998 3.5C9.49998 3.77614 9.27612 4 8.99998 4H8.5V12H8.99998C9.27612 12 9.49998 12.2239 9.49998 12.5C9.49998 12.7761 9.27612 13 8.99998 13H6.99998C6.72384 13 6.49998 12.7761 6.49998 12.5C6.49998 12.2239 6.72384 12 6.99998 12H7.5V4H6.99998C6.72384 4 6.49998 3.77614 6.49998 3.5ZM6.23593 5.55916C6.39851 5.64617 6.5 5.8156 6.5 6V10C6.5 10.1844 6.39851 10.3538 6.23593 10.4408C6.07335 10.5278 5.87608 10.5183 5.72265 10.416L2.72265 8.41603C2.58355 8.32329 2.5 8.16718 2.5 8C2.5 7.83282 2.58355 7.67671 2.72265 7.58397L5.72265 5.58397C5.87608 5.48169 6.07335 5.47215 6.23593 5.55916Z" fill="white"/>
<path d="M9.76407 5.55916C9.92665 5.47215 10.1239 5.48169 10.2774 5.58398L13.2773 7.58398C13.4164 7.67671 13.5 7.83283 13.5 8C13.5 8.16718 13.4164 8.32329 13.2773 8.41602L10.2774 10.416C10.1239 10.5183 9.92665 10.5278 9.76407 10.4408C9.60149 10.3538 9.5 10.1844 9.5 10V6C9.5 5.8156 9.60149 5.64617 9.76407 5.55916Z" fill="white"/>
</svg>
