<svg width="20" height="20" viewBox="0 0 20 20" fill="none" xmlns="http://www.w3.org/2000/svg">
<path d="M3.75 1.52075C3.43934 1.52075 3.1875 1.77259 3.1875 2.08325C3.1875 2.39391 3.43934 2.64575 3.75 2.64575H6.39579V7.50016C6.39579 8.10998 6.89015 8.60433 7.49996 8.60433C8.10977 8.60433 8.60413 8.10998 8.60413 7.50016V2.64575H16.25C16.5607 2.64575 16.8125 2.39391 16.8125 2.08325C16.8125 1.77259 16.5607 1.52075 16.25 1.52075H3.75Z" fill="white"/>
<path d="M16.3953 10.9198L10.92 16.3952V17.9166C10.92 18.2272 10.6681 18.4791 10.3575 18.4791C10.0468 18.4791 9.79496 18.2272 9.79496 17.9166V16.2768L8.79372 15.2755L15.2755 8.7937L16.2767 9.79484H17.9167C18.2273 9.79484 18.4792 10.0467 18.4792 10.3573C18.4792 10.668 18.2273 10.9198 17.9167 10.9198H16.3953Z" fill="white"/>
<path d="M16.25 12.3541C15.9393 12.3541 15.6875 12.6059 15.6875 12.9166C15.6875 13.2272 15.9393 13.4791 16.25 13.4791H17.9167C18.2273 13.4791 18.4792 13.2272 18.4792 12.9166C18.4792 12.6059 18.2273 12.3541 17.9167 12.3541H16.25Z" fill="white"/>
<path d="M15.3977 14.6022C15.1781 14.3825 14.8219 14.3825 14.6023 14.6022C14.3826 14.8218 14.3826 15.178 14.6023 15.3977L15.8523 16.6477C16.0719 16.8673 16.4281 16.8673 16.6477 16.6477C16.8674 16.428 16.8674 16.0718 16.6477 15.8522L15.3977 14.6022Z" fill="white"/>
<path d="M13.4792 16.2499C13.4792 15.9393 13.2273 15.6874 12.9167 15.6874C12.606 15.6874 12.3542 15.9393 12.3542 16.2499V17.9166C12.3542 18.2272 12.606 18.4791 12.9167 18.4791C13.2273 18.4791 13.4792 18.2272 13.4792 17.9166L13.4792 16.2499Z" fill="white"/>
<path d="M5.27079 4.17326V7.50016C5.27079 8.7313 6.26882 9.72933 7.49996 9.72933C8.73109 9.72933 9.72913 8.7313 9.72913 7.50016V3.70559C10.2479 3.9287 10.7339 4.25209 11.1576 4.67576L14.48 7.9982L7.99822 14.48L4.67576 11.1576C2.88586 9.36767 2.88586 6.46566 4.67576 4.67576C4.86281 4.48871 5.062 4.32122 5.27079 4.17326Z" fill="white"/>
</svg>
