<svg width="24" height="24" viewBox="0 0 24 24" fill="none" xmlns="http://www.w3.org/2000/svg">
<path fill-rule="evenodd" clip-rule="evenodd" d="M12.5451 16.1515C11.5344 17.5805 11.1518 19.3177 11.3972 20.9801C6.7077 20.67 3 16.768 3 12C3 7.02945 7.02942 3 12 3C16.9706 3 21 7.02945 21 12C21 12.6641 20.9281 13.3115 20.7916 13.9346C19.6517 13.4102 18.3944 13.2241 17.1713 13.3764C17.1729 13.3739 17.1745 13.3714 17.1762 13.3689C17.3798 13.0566 17.2918 12.6384 16.9794 12.4348C16.6671 12.2312 16.2489 12.3192 16.0453 12.6315C15.1832 13.9536 13.6934 14.8252 12.0003 14.8252C10.3072 14.8252 8.81716 13.9536 7.9551 12.6315C7.75149 12.3192 7.33327 12.2312 7.02102 12.4348C6.70876 12.6384 6.62063 13.0566 6.82424 13.3689C7.92495 15.0569 9.83181 16.1752 12.0003 16.1752C12.1839 16.1752 12.3656 16.1672 12.5451 16.1515ZM9.50027 8.8252C9.87307 8.8252 10.1753 9.12741 10.1753 9.50018V10.5002C10.1753 10.873 9.87307 11.1752 9.50027 11.1752C9.12746 11.1752 8.82534 10.873 8.82534 10.5002V9.50018C8.82534 9.12741 9.12746 8.8252 9.50027 8.8252ZM14.5003 8.8252C14.8731 8.8252 15.1753 9.12741 15.1753 9.50018V10.5002C15.1753 10.873 14.8731 11.1752 14.5003 11.1752C14.1275 11.1752 13.8253 10.873 13.8253 10.5002V9.50018C13.8253 9.12741 14.1275 8.8252 14.5003 8.8252Z" fill="white"/>
<path d="M14.235 16.2347C15.9025 14.5671 18.401 14.2367 20.3978 15.2436L12.7635 20.9681C12.4574 19.3038 12.9479 17.5217 14.235 16.2347Z" fill="white"/>
</svg>
