<svg width="16" height="16" viewBox="0 0 16 16" fill="none" xmlns="http://www.w3.org/2000/svg">
<path fill-rule="evenodd" clip-rule="evenodd" d="M8.15301 10.9971C7.60119 11.9042 7.39921 12.9642 7.54706 13.9832C4.44492 13.7516 2 11.1613 2 8C2 4.68628 4.68628 2 8 2C11.3137 2 14 4.68628 14 8C14 8.42504 13.9558 8.83976 13.8718 9.23982C13.1233 8.89776 12.3003 8.77167 11.4969 8.86156C11.5188 8.67286 11.4316 8.47998 11.2583 8.37555C11.0217 8.23303 10.7145 8.30923 10.5719 8.54575C10.0461 9.41827 9.09094 10 8.00024 10C6.90954 10 5.95422 9.41827 5.42846 8.54575C5.28589 8.30923 4.97863 8.23303 4.74218 8.37555C4.50561 8.51807 4.42944 8.82532 4.5719 9.06186C5.27112 10.2222 6.54455 11 8.00024 11C8.0514 11 8.10232 10.999 8.15301 10.9971ZM6.50024 6C6.77636 6 7.00024 6.22385 7.00024 6.5V7C7.00024 7.27615 6.77636 7.5 6.50024 7.5C6.224 7.5 6.00024 7.27615 6.00024 7V6.5C6.00024 6.22385 6.224 6 6.50024 6ZM9.50024 6C9.77636 6 10.0002 6.22385 10.0002 6.5V7C10.0002 7.27615 9.77636 7.5 9.50024 7.5C9.224 7.5 9.00024 7.27615 9.00024 7V6.5C9.00024 6.22385 9.224 6 9.50024 6Z" fill="white"/>
<path d="M9.52532 10.8586C10.6225 9.76139 12.267 9.54497 13.5802 10.2093L8.55902 13.9743C8.35609 12.8791 8.67819 11.7058 9.52532 10.8586Z" fill="white"/>
</svg>
