<svg width="24" height="24" viewBox="0 0 24 24" fill="none" xmlns="http://www.w3.org/2000/svg">
<path d="M13.2473 15.3134C11.7181 16.8638 11.1014 18.9763 11.3972 20.9801C6.7077 20.67 3 16.768 3 12C3 7.02945 7.02942 3 12 3C16.9706 3 21 7.02945 21 12C21 12.6641 20.9281 13.3115 20.7916 13.9346C18.8018 13.0192 16.4544 13.1347 14.5549 14.2811L14.2754 12.948L16.0801 11.3151C16.3668 11.0556 16.2121 10.5791 15.8276 10.5376L13.4062 10.2761L12.4089 8.05633C12.2505 7.70388 11.7501 7.70388 11.5917 8.05633L10.5944 10.2761L8.17297 10.5376C7.78849 10.5791 7.63379 11.0556 7.92054 11.3151L9.72526 12.948L9.22608 15.3289C9.14676 15.7072 9.55167 16.0016 9.88707 15.8095L12.0003 14.5992L13.2473 15.3134Z" fill="white"/>
<path d="M14.235 16.2347C15.9025 14.5671 18.401 14.2367 20.3978 15.2436L12.7635 20.9681C12.4574 19.3038 12.9479 17.5217 14.235 16.2347Z" fill="white"/>
</svg>
