<svg width="16" height="16" viewBox="0 0 16 16" fill="none" xmlns="http://www.w3.org/2000/svg">
<path d="M8.81821 10.1515C7.77384 11.1959 7.35013 12.6259 7.54706 13.9832C4.44492 13.7516 2 11.1613 2 8C2 4.68628 4.68628 2 8 2C11.3137 2 14 4.68628 14 8C14 8.42504 13.9558 8.83976 13.8718 9.23982C12.5007 8.61322 10.8797 8.71134 9.58691 9.53419L9.38582 8.57511L10.4607 7.60256C10.6447 7.43602 10.5454 7.13019 10.2986 7.10354L8.85649 6.94777L8.26248 5.62572C8.16083 5.3995 7.83964 5.3995 7.73799 5.62572L7.14397 6.94777L5.70182 7.10354C5.45504 7.13019 5.35574 7.43602 5.53979 7.60256L6.61464 8.57511L6.31734 9.99309C6.26643 10.2359 6.52633 10.4249 6.74161 10.3016L8.00023 9.58072L8.8841 10.0869C8.86197 10.1082 8.84001 10.1297 8.81821 10.1515Z" fill="white"/>
<path d="M9.52532 10.8586C10.6225 9.76139 12.267 9.54497 13.5802 10.2093L8.55902 13.9743C8.35609 12.8791 8.67819 11.7058 9.52532 10.8586Z" fill="white"/>
</svg>
