<svg width="24" height="24" viewBox="0 0 24 24" fill="none" xmlns="http://www.w3.org/2000/svg">
<path d="M8.53679 8.85371C8.53679 9.61698 8.95062 10.0826 9.68763 10.4473C11.4044 11.2968 13.4376 11.2278 15.161 12.0742C16.4991 12.7314 17.3517 13.9407 17.3517 15.456C17.3517 18.3426 14.5315 19.6531 11.9998 19.6531C9.70736 19.6531 7.10407 18.5381 6.50405 16.1194C6.40558 15.6745 6.68639 15.2341 7.13126 15.1356C7.57345 15.0377 8.0113 15.3146 8.11325 15.7548C8.54875 17.4007 10.4966 18.0031 11.9998 18.0031C13.5932 18.0031 15.7017 17.3744 15.7017 15.456C15.7017 14.5648 15.2135 13.9383 14.4337 13.5553C12.7171 12.7122 10.6817 12.7801 8.95587 11.9261C7.9049 11.4061 6.88679 10.4805 6.88679 8.85371C6.88679 6.05883 9.48041 4.62598 11.9998 4.62598C14.1675 4.62598 16.3672 5.82777 17.0885 7.95426C17.2254 8.38886 16.9843 8.85301 16.5497 8.98986C16.1171 9.12607 15.6561 8.88753 15.5169 8.4567C15.0128 7.01137 13.449 6.27598 11.9998 6.27598C10.4029 6.27598 8.53679 7.00251 8.53679 8.85371Z" fill="white"/>
<path fill-rule="evenodd" clip-rule="evenodd" d="M3.5 12C3.5 11.7239 3.72386 11.5 4 11.5H20C20.2761 11.5 20.5 11.7239 20.5 12C20.5 12.2761 20.2761 12.5 20 12.5H4C3.72386 12.5 3.5 12.2761 3.5 12Z" fill="white"/>
</svg>
