<svg width="16" height="16" viewBox="0 0 16 16" fill="none" xmlns="http://www.w3.org/2000/svg">
<path d="M5.73149 5.90244C5.73149 6.39035 5.99273 6.6896 6.47646 6.92896C7.62134 7.49547 8.97387 7.44806 10.1253 8.01354C11.0309 8.45832 11.6081 9.27865 11.6081 10.304C11.6081 12.2513 9.71035 13.1421 8.00018 13.1421C6.48487 13.1421 4.66373 12.3893 4.29727 10.7549C4.22685 10.4367 4.42767 10.1217 4.74582 10.0513C5.06191 9.98134 5.37489 10.1791 5.44799 10.4937L5.44864 10.4962C5.73734 11.573 7.01685 11.9621 8.00018 11.9621C9.03911 11.9621 10.4281 11.5585 10.4281 10.304C10.4281 9.72498 10.1115 9.32141 9.6051 9.0727C8.45893 8.50979 7.10755 8.55779 5.95314 7.98657C5.24488 7.63611 4.55149 7.00791 4.55149 5.90244C4.55149 4.01668 6.29845 3.04395 8.00018 3.04395C9.44142 3.04395 10.9706 3.85331 11.431 5.29139C11.5289 5.6022 11.3562 5.93349 11.0454 6.03135C10.7361 6.12875 10.4065 5.95822 10.3069 5.65018C9.98356 4.70204 8.9425 4.22395 8.00018 4.22395C6.95833 4.22395 5.73149 4.69177 5.73149 5.90244Z" fill="white"/>
<path fill-rule="evenodd" clip-rule="evenodd" d="M2.2666 7.99961C2.2666 7.7787 2.44569 7.59961 2.6666 7.59961H13.3333C13.5542 7.59961 13.7333 7.7787 13.7333 7.99961C13.7333 8.22052 13.5542 8.39961 13.3333 8.39961H2.6666C2.44569 8.39961 2.2666 8.22052 2.2666 7.99961Z" fill="white"/>
</svg>
