<svg width="24" height="24" viewBox="0 0 24 24" fill="none" xmlns="http://www.w3.org/2000/svg">
<path fill-rule="evenodd" clip-rule="evenodd" d="M12 4.17495C9.2004 4.17495 6.74359 5.64465 5.35984 7.8578C5.16221 8.17389 4.74575 8.26992 4.42966 8.07229C4.11356 7.87465 4.01753 7.4582 4.21517 7.1421C5.83527 4.55094 8.71578 2.82495 12 2.82495C17.0672 2.82495 21.1749 6.93274 21.1749 12V12.3704L21.7727 11.7727C22.0363 11.5091 22.4636 11.5091 22.7272 11.7727C22.9909 12.0363 22.9909 12.4636 22.7272 12.7272L20.9772 14.4772C20.7136 14.7409 20.2863 14.7409 20.0227 14.4772L18.2727 12.7272C18.0091 12.4636 18.0091 12.0363 18.2727 11.7727C18.5363 11.5091 18.9636 11.5091 19.2272 11.7727L19.825 12.3704V12C19.825 7.67832 16.3216 4.17495 12 4.17495ZM3.02265 9.52265C3.28626 9.25905 3.71364 9.25905 3.97725 9.52265L5.72725 11.2727C5.99085 11.5363 5.99085 11.9636 5.72725 12.2272C5.46364 12.4909 5.03626 12.4909 4.77265 12.2272L4.17495 11.6295V12C4.17495 16.3216 7.67832 19.825 12 19.825C14.7995 19.825 17.2563 18.3553 18.6401 16.1421C18.8377 15.826 19.2542 15.73 19.5702 15.9276C19.8863 16.1252 19.9824 16.5417 19.7847 16.8578C18.1646 19.449 15.2841 21.1749 12 21.1749C6.93274 21.1749 2.82495 17.0672 2.82495 12V11.6295L2.22725 12.2272C1.96364 12.4909 1.53626 12.4909 1.27265 12.2272C1.00905 11.9636 1.00905 11.5363 1.27265 11.2727L3.02265 9.52265Z" fill="white"/>
</svg>
