<svg width="16" height="16" viewBox="0 0 16 16" fill="none" xmlns="http://www.w3.org/2000/svg">
<path fill-rule="evenodd" clip-rule="evenodd" d="M8 3C6.24526 3 4.70127 3.90353 3.8083 5.27309C3.65748 5.5044 3.34769 5.56966 3.11638 5.41884C2.88506 5.26801 2.81981 4.95823 2.97063 4.72691C4.04036 3.08626 5.89319 2 8 2C11.3137 2 14 4.68629 14 8V8.29289L14.3964 7.89645C14.5917 7.70118 14.9083 7.70118 15.1036 7.89645C15.2988 8.09171 15.2988 8.40829 15.1036 8.60355L13.8536 9.85355C13.6583 10.0488 13.3417 10.0488 13.1464 9.85355L11.8964 8.60355C11.7012 8.40829 11.7012 8.09171 11.8964 7.89645C12.0917 7.70118 12.4083 7.70118 12.6036 7.89645L13 8.29289V8C13 5.23858 10.7614 3 8 3ZM2.14645 6.14645C2.34171 5.95118 2.65829 5.95118 2.85355 6.14645L4.10355 7.39645C4.29882 7.59171 4.29882 7.90829 4.10355 8.10355C3.90829 8.29882 3.59171 8.29882 3.39645 8.10355L3 7.70711V8C3 10.7614 5.23858 13 8 13C9.75474 13 11.2987 12.0965 12.1917 10.7269C12.3425 10.4956 12.6523 10.4303 12.8836 10.5812C13.1149 10.732 13.1802 11.0418 13.0294 11.2731C11.9596 12.9137 10.1068 14 8 14C4.68629 14 2 11.3137 2 8V7.70711L1.60355 8.10355C1.40829 8.29882 1.09171 8.29882 0.896447 8.10355C0.701184 7.90829 0.701184 7.59171 0.896447 7.39645L2.14645 6.14645Z" fill="white"/>
</svg>
