<svg width="16" height="16" viewBox="0 0 16 16" fill="none" xmlns="http://www.w3.org/2000/svg">
<path d="M10.9997 4.66699C10.9997 6.32385 9.65655 7.66699 7.99969 7.66699C6.34284 7.66699 4.99969 6.32385 4.99969 4.66699C4.99969 3.01014 6.34284 1.66699 7.99969 1.66699C9.65655 1.66699 10.9997 3.01014 10.9997 4.66699Z" fill="white"/>
<path d="M7.33301 11.0003C7.33301 12.6572 5.98986 14.0003 4.33301 14.0003C2.67615 14.0003 1.33301 12.6572 1.33301 11.0003C1.33301 9.34345 2.67615 8.00031 4.33301 8.00031C5.98986 8.00031 7.33301 9.34345 7.33301 11.0003Z" fill="white"/>
<path d="M11.6664 14.0003C13.3232 14.0003 14.6664 12.6572 14.6664 11.0003C14.6664 9.34345 13.3232 8.00031 11.6664 8.00031C10.0095 8.00031 8.66638 9.34345 8.66638 11.0003C8.66638 12.6572 10.0095 14.0003 11.6664 14.0003Z" fill="white"/>
</svg>
