<svg width="16" height="16" viewBox="0 0 16 16" fill="none" xmlns="http://www.w3.org/2000/svg">
<path fill-rule="evenodd" clip-rule="evenodd" d="M8.00029 2.5C6.80367 2.5 5.83362 3.47005 5.83362 4.66667C5.83362 5.86328 6.80367 6.83333 8.00029 6.83333C9.1969 6.83333 10.167 5.86328 10.167 4.66667C10.167 3.47005 9.1969 2.5 8.00029 2.5ZM4.83362 4.66667C4.83362 2.91776 6.25138 1.5 8.00029 1.5C9.74919 1.5 11.167 2.91776 11.167 4.66667C11.167 6.41557 9.74919 7.83333 8.00029 7.83333C6.25138 7.83333 4.83362 6.41557 4.83362 4.66667ZM4.33366 8.83331C3.13704 8.83331 2.16699 9.80336 2.16699 11C2.16699 12.1966 3.13704 13.1666 4.33366 13.1666C5.53028 13.1666 6.50033 12.1966 6.50033 11C6.50033 9.80336 5.53028 8.83331 4.33366 8.83331ZM1.16699 11C1.16699 9.25108 2.58476 7.83331 4.33366 7.83331C6.08256 7.83331 7.50033 9.25108 7.50033 11C7.50033 12.7489 6.08256 14.1666 4.33366 14.1666C2.58476 14.1666 1.16699 12.7489 1.16699 11ZM11.667 8.83331C10.4704 8.83331 9.50031 9.80336 9.50031 11C9.50031 12.1966 10.4704 13.1666 11.667 13.1666C12.8636 13.1666 13.8336 12.1966 13.8336 11C13.8336 9.80336 12.8636 8.83331 11.667 8.83331ZM8.50031 11C8.50031 9.25108 9.91807 7.83331 11.667 7.83331C13.4159 7.83331 14.8336 9.25108 14.8336 11C14.8336 12.7489 13.4159 14.1666 11.667 14.1666C9.91807 14.1666 8.50031 12.7489 8.50031 11Z" fill="white"/>
</svg>
