<svg width="24" height="24" viewBox="0 0 24 24" fill="none" xmlns="http://www.w3.org/2000/svg">
<path fill-rule="evenodd" clip-rule="evenodd" d="M12.0002 3.67495C10.1638 3.67495 8.6752 5.1636 8.6752 6.99995C8.6752 8.8363 10.1638 10.325 12.0002 10.325C13.8365 10.325 15.3252 8.8363 15.3252 6.99995C15.3252 5.1636 13.8365 3.67495 12.0002 3.67495ZM7.3252 6.99995C7.3252 4.41802 9.41826 2.32495 12.0002 2.32495C14.5821 2.32495 16.6752 4.41802 16.6752 6.99995C16.6752 9.58188 14.5821 11.675 12.0002 11.675C9.41826 11.675 7.3252 9.58188 7.3252 6.99995ZM6.5002 13.175C4.66385 13.175 3.1752 14.6636 3.1752 16.5C3.1752 18.3363 4.66385 19.825 6.5002 19.825C8.33654 19.825 9.8252 18.3363 9.8252 16.5C9.8252 14.6636 8.33654 13.175 6.5002 13.175ZM1.8252 16.5C1.8252 13.918 3.91826 11.825 6.5002 11.825C9.08213 11.825 11.1752 13.918 11.1752 16.5C11.1752 19.0819 9.08213 21.1749 6.5002 21.1749C3.91826 21.1749 1.8252 19.0819 1.8252 16.5ZM17.5002 13.175C15.6638 13.175 14.1752 14.6636 14.1752 16.5C14.1752 18.3363 15.6638 19.825 17.5002 19.825C19.3365 19.825 20.8252 18.3363 20.8252 16.5C20.8252 14.6636 19.3365 13.175 17.5002 13.175ZM12.8252 16.5C12.8252 13.918 14.9183 11.825 17.5002 11.825C20.0821 11.825 22.1752 13.918 22.1752 16.5C22.1752 19.0819 20.0821 21.1749 17.5002 21.1749C14.9183 21.1749 12.8252 19.0819 12.8252 16.5Z" fill="white"/>
</svg>
