<svg width="24" height="24" viewBox="0 0 24 24" fill="none" xmlns="http://www.w3.org/2000/svg">
<path d="M16.5 7C16.5 9.48529 14.4853 11.5 12 11.5C9.51471 11.5 7.5 9.48529 7.5 7C7.5 4.51471 9.51471 2.5 12 2.5C14.4853 2.5 16.5 4.51471 16.5 7Z" fill="white"/>
<path d="M11 16.5C11 18.9853 8.98529 21 6.5 21C4.01471 21 2 18.9853 2 16.5C2 14.0147 4.01471 12 6.5 12C8.98529 12 11 14.0147 11 16.5Z" fill="white"/>
<path d="M17.5 21C19.9853 21 22 18.9853 22 16.5C22 14.0147 19.9853 12 17.5 12C15.0147 12 13 14.0147 13 16.5C13 18.9853 15.0147 21 17.5 21Z" fill="white"/>
</svg>
