<svg width="24" height="24" viewBox="0 0 24 24" fill="none" xmlns="http://www.w3.org/2000/svg">
<path d="M2.90963 10.9353C2.25202 11.9213 1.75654 13.5844 2.12666 14.6459C2.54943 15.8563 2.87226 16.6646 4.12501 16.3063C4.57055 16.1771 6.73291 15.5424 7.10507 15.3751C7.47767 15.2205 7.71303 14.9178 7.66545 14.3743C7.60177 13.6142 7.52705 12.8519 7.54252 12.333C7.55703 11.9273 7.83981 11.6019 8.18725 11.4718C10.6824 10.5439 13.3176 10.5439 15.8127 11.4718C16.1602 11.6019 16.443 11.9273 16.4575 12.333C16.4729 12.8519 16.3982 13.6142 16.3345 14.3743C16.287 14.9178 16.5223 15.2205 16.8949 15.3751C17.2671 15.5424 19.4295 16.1771 19.875 16.3063C21.1277 16.6646 21.4506 15.8563 21.8733 14.6459C22.2435 13.5844 21.748 11.9213 21.0904 10.9353C19.2442 8.18407 14.8334 7.5 12 7.5C9.16656 7.5 4.75585 8.18407 2.90963 10.9353Z" fill="white"/>
</svg>
