<svg width="24" height="24" viewBox="0 0 24 24" fill="none" xmlns="http://www.w3.org/2000/svg">
<path fill-rule="evenodd" clip-rule="evenodd" d="M16.8645 7.49686C13.776 6.56615 10.2243 6.56615 7.13575 7.49686C5.46302 8.00093 3.80699 8.87013 2.80596 10.3434L2.80487 10.345C2.44419 10.8792 2.13934 11.576 1.97001 12.279C1.80384 12.9688 1.74647 13.7564 1.98408 14.4294C1.99175 14.4511 1.99942 14.4728 2.00711 14.4946C2.19481 15.0266 2.3941 15.5914 2.79066 16.0052C3.29935 16.5359 4.02297 16.6038 4.70238 16.4119L4.7048 16.4112C4.91823 16.35 5.54061 16.17 6.15496 15.9852C6.39485 15.9131 7.21441 15.6424 7.5038 15.5468C7.5686 15.5254 7.60682 15.5128 7.606 15.5131C8.27361 15.2393 8.61713 14.5999 8.55479 13.8912C8.54638 13.792 8.53793 13.6944 8.52964 13.5985C8.47606 12.9789 8.42904 12.4352 8.44014 12.0574C8.44323 11.9876 8.51212 11.8964 8.61176 11.8594C10.8313 11.0445 13.1691 11.0445 15.3886 11.8594C15.4882 11.8965 15.557 11.9876 15.5601 12.0573C15.5712 12.4352 15.5242 12.9789 15.4706 13.5985C15.4623 13.6944 15.4539 13.7922 15.4455 13.8915C15.3835 14.5965 15.7232 15.2344 16.3861 15.5098C16.6211 15.6117 17.2681 15.8116 17.8453 15.9852C18.4597 16.17 19.082 16.35 19.2955 16.4112C19.9615 16.6008 20.7105 16.5259 21.2096 16.0052C21.6047 15.5929 21.8259 14.9674 22.0135 14.4369C22.2575 13.7467 22.1989 12.9792 22.0303 12.279C21.8609 11.576 21.5561 10.8792 21.1954 10.345L21.1943 10.3434C20.1933 8.87013 18.5373 8.00093 16.8645 7.49686ZM3.28247 12.5951C3.41669 12.0379 3.65933 11.4922 3.92317 11.1013C4.67614 9.99367 5.99188 9.25152 7.52526 8.78945C10.3612 7.93486 13.6391 7.93486 16.475 8.78945C18.0084 9.25154 19.3242 9.99371 20.0772 11.1014C20.341 11.4923 20.5836 12.038 20.7178 12.5951C20.8552 13.1655 20.8573 13.6564 20.7434 13.9793C20.5266 14.5925 20.3902 14.9091 20.235 15.071C20.0869 15.2255 19.8484 15.1644 19.666 15.113C19.455 15.0526 18.8399 14.8746 18.2341 14.6924C18.1367 14.6631 18.0393 14.6347 17.942 14.6063C17.5926 14.5043 17.2451 14.4029 16.9064 14.264C16.7842 14.2139 16.7788 14.1396 16.7903 14.0091L16.7905 14.0066C16.7984 13.9138 16.8066 13.8194 16.8149 13.7243C16.8678 13.1175 16.9234 12.4781 16.9094 12.0139L16.9093 12.0098C16.884 11.3107 16.3979 10.7934 15.8564 10.5931L15.855 10.5925C13.3344 9.66677 10.6659 9.66677 8.14531 10.5925L8.14385 10.5931C7.60239 10.7934 7.1163 11.3107 7.09097 12.0098L7.09084 12.0139C7.07682 12.4782 7.1325 13.1175 7.18535 13.7242C7.19364 13.8194 7.20186 13.9138 7.20973 14.0066L7.20995 14.0091C7.22311 14.1576 7.20585 14.214 7.07606 14.2716C6.94889 14.3281 6.40212 14.5012 5.76616 14.6924C5.16048 14.8746 4.54542 15.0525 4.33432 15.113C4.15196 15.1644 3.91336 15.2255 3.76529 15.071C3.61006 14.9091 3.4737 14.5925 3.25694 13.9796C3.14296 13.6567 3.14503 13.1657 3.28247 12.5951ZM8.61176 11.8594C8.61162 11.8594 8.6119 11.8593 8.61176 11.8594V11.8594ZM8.55479 13.8912C8.55475 13.8908 8.55471 13.8904 8.55468 13.8899L8.5549 13.8925C8.55486 13.892 8.55482 13.8916 8.55479 13.8912Z" fill="white"/>
</svg>
