<svg width="16" height="16" viewBox="0 0 16 16" fill="none" xmlns="http://www.w3.org/2000/svg">
<path d="M2.09126 7.13137C1.66381 7.76439 1.34175 8.83209 1.58233 9.51353C1.85944 10.2971 2.07191 10.8081 2.88126 10.5795C3.17086 10.4965 4.57639 10.0891 4.81829 9.98167C5.06048 9.88237 5.21347 9.68806 5.18254 9.33916C5.14115 8.8512 5.09258 8.36179 5.10264 8.0287C5.11207 7.76826 5.29588 7.55933 5.52171 7.4758C7.14354 6.88013 8.85646 6.88013 10.4783 7.4758C10.7041 7.55933 10.8879 7.76826 10.8974 8.0287C10.9074 8.36179 10.8589 8.8512 10.8175 9.33916C10.7865 9.68806 10.9395 9.88237 11.1817 9.98167C11.4236 10.0891 12.8291 10.4965 13.1187 10.5795C13.9281 10.8081 14.1406 10.2971 14.4177 9.51353C14.6582 8.83209 14.3362 7.76439 13.9087 7.13137C12.7087 5.36518 9.84174 4.92603 8 4.92603C6.15826 4.92603 3.2913 5.36518 2.09126 7.13137Z" fill="white"/>
</svg>
