<svg width="16" height="16" viewBox="0 0 16 16" fill="none" xmlns="http://www.w3.org/2000/svg">
<path fill-rule="evenodd" clip-rule="evenodd" d="M5.18749 6.00817C4.22393 6.29853 3.40487 6.76279 2.938 7.4495C2.77477 7.69141 2.62372 8.03072 2.54018 8.37751C2.45441 8.73359 2.45502 9.03321 2.5226 9.22488C2.587 9.40699 2.64057 9.55248 2.69608 9.67239C2.79622 9.88871 2.85224 9.92932 2.90263 9.93954C2.93363 9.94583 3.00595 9.95047 3.14551 9.91114C3.2788 9.87295 3.66696 9.76064 4.04915 9.6457C4.45259 9.52436 4.79406 9.41611 4.87089 9.382C4.92776 9.35676 4.93279 9.3235 4.92749 9.26367C4.88825 8.82111 4.84175 8.34051 4.8521 7.99789L4.85218 7.99503C4.86899 7.53111 5.19127 7.18951 5.54808 7.05753L5.5491 7.05715C7.15162 6.46858 8.84857 6.46858 10.4511 7.05715L10.4521 7.05753C10.8089 7.18951 11.1312 7.53111 11.148 7.99503L11.1481 7.99789C11.1584 8.34065 11.1093 8.83178 11.0729 9.26189C11.0679 9.31953 11.071 9.35789 11.1294 9.38182C11.2062 9.41593 11.5476 9.52436 11.951 9.6457C12.3332 9.76064 12.7214 9.87296 12.8547 9.91115C12.9942 9.95047 13.0666 9.94583 13.0976 9.93954C13.1479 9.92932 13.204 9.88871 13.3041 9.67239C13.3596 9.55248 13.4132 9.40699 13.4776 9.22488C13.5452 9.03321 13.5458 8.73359 13.46 8.37751C13.3765 8.03065 13.2254 7.69129 13.0621 7.44936C12.5952 6.76273 11.7762 6.29851 10.8127 6.00817C9.03043 5.47109 6.96977 5.47109 5.18749 6.00817ZM4.91415 5.10108C6.87369 4.51058 9.12651 4.51058 11.086 5.10108C12.1474 5.42091 13.2053 5.97433 13.8462 6.91766L13.847 6.91879C14.0782 7.26117 14.2729 7.70657 14.381 8.15565C14.487 8.59555 14.5253 9.10314 14.3709 9.54051L14.3673 9.5506C14.2501 9.88199 14.1076 10.2852 13.8509 10.5529C13.5174 10.9009 13.0423 10.9486 12.5964 10.8226L12.5947 10.8221C12.4598 10.7835 12.0665 10.6697 11.6782 10.5529C11.3159 10.444 10.9042 10.3169 10.7518 10.2509C10.3143 10.069 10.088 9.64648 10.1289 9.18089C10.1343 9.11814 10.1396 9.05642 10.1448 8.99594C10.1788 8.60308 10.2083 8.26218 10.2011 8.02647L10.2012 8.02933C10.2004 8.00733 10.1709 7.96379 10.1238 7.94622C8.73237 7.43532 7.26717 7.4354 5.87573 7.94645L5.87675 7.94608C5.83005 7.96335 5.80009 8.00651 5.79899 8.02857C5.79211 8.26419 5.8215 8.60422 5.85536 8.9959C5.86059 9.05642 5.86593 9.11817 5.87125 9.18096C5.91222 9.64652 5.68585 10.0691 5.24838 10.2509C5.09602 10.3169 4.6843 10.444 4.322 10.5529C3.93372 10.6697 3.54043 10.7835 3.4055 10.8221L3.4038 10.8226C2.95785 10.9486 2.48276 10.9009 2.14931 10.5529C1.89264 10.2852 1.75009 9.88199 1.63291 9.55061L1.62942 9.54074C1.47501 9.10338 1.51318 8.59555 1.61914 8.15565C1.72732 7.70657 1.92203 7.26117 2.15322 6.91879L2.15399 6.91765C2.79493 5.97433 3.85279 5.42091 4.91415 5.10108Z" fill="white"/>
</svg>
