<svg width="24" height="24" viewBox="0 0 24 24" fill="none" xmlns="http://www.w3.org/2000/svg">
<path fill-rule="evenodd" clip-rule="evenodd" d="M3.8252 5.0002C3.8252 4.6274 4.1274 4.3252 4.5002 4.3252H19.5002C19.873 4.3252 20.1752 4.6274 20.1752 5.0002C20.1752 5.37299 19.873 5.6752 19.5002 5.6752H4.5002C4.1274 5.6752 3.8252 5.37299 3.8252 5.0002ZM4.8252 8.5002C4.8252 8.1274 5.1274 7.8252 5.5002 7.8252H18.5002C18.873 7.8252 19.1752 8.1274 19.1752 8.5002C19.1752 8.87299 18.873 9.1752 18.5002 9.1752H5.5002C5.1274 9.1752 4.8252 8.87299 4.8252 8.5002ZM5.8252 12.0002C5.8252 11.6274 6.1274 11.3252 6.5002 11.3252H17.5002C17.873 11.3252 18.1752 11.6274 18.1752 12.0002C18.1752 12.373 17.873 12.6752 17.5002 12.6752H6.5002C6.1274 12.6752 5.8252 12.373 5.8252 12.0002ZM6.8252 15.5002C6.8252 15.1274 7.1274 14.8252 7.5002 14.8252H16.5002C16.873 14.8252 17.1752 15.1274 17.1752 15.5002C17.1752 15.873 16.873 16.1752 16.5002 16.1752H7.5002C7.1274 16.1752 6.8252 15.873 6.8252 15.5002ZM7.8252 19.0002C7.8252 18.6274 8.1274 18.3252 8.5002 18.3252H15.5002C15.873 18.3252 16.1752 18.6274 16.1752 19.0002C16.1752 19.373 15.873 19.6752 15.5002 19.6752H8.5002C8.1274 19.6752 7.8252 19.373 7.8252 19.0002Z" fill="white"/>
</svg>
