<svg width="16" height="16" viewBox="0 0 16 16" fill="none" xmlns="http://www.w3.org/2000/svg">
<path d="M6.92878 3C6.60332 3 6.33949 3.26383 6.33949 3.58929C6.33949 3.91474 6.60332 4.17857 6.92878 4.17857H7.82826C8.05793 4.17857 8.2279 4.39223 8.17625 4.61602L6.64124 11.2677C6.56645 11.5918 6.27786 11.8214 5.94525 11.8214H5.018C4.69254 11.8214 4.42871 12.0853 4.42871 12.4107C4.42871 12.7362 4.69254 13 5.018 13H9.07163C9.39709 13 9.66092 12.7362 9.66092 12.4107C9.66092 12.0853 9.39709 11.8214 9.07163 11.8214H8.17196C7.94229 11.8214 7.77232 11.6078 7.82397 11.384L9.35898 4.73224C9.43377 4.40815 9.72236 4.17857 10.055 4.17857H10.9823C11.3078 4.17857 11.5716 3.91474 11.5716 3.58929C11.5716 3.26383 11.3078 3 10.9823 3H6.92878Z" fill="white"/>
</svg>
