<svg width="16" height="16" viewBox="0 0 16 16" fill="none" xmlns="http://www.w3.org/2000/svg">
<path d="M2 3.58929C2 3.26383 2.26383 3 2.58929 3H9.73213C10.0576 3 10.3214 3.26383 10.3214 3.58929C10.3214 3.91474 10.0576 4.17857 9.73213 4.17857H7.28571C6.98984 4.17857 6.75 4.41842 6.75 4.71428V12.4107C6.75 12.7362 6.48616 13 6.16071 13C5.83526 13 5.57142 12.7362 5.57142 12.4107V4.71428C5.57142 4.41842 5.33158 4.17857 5.03571 4.17857H2.58929C2.26383 4.17857 2 3.91474 2 3.58929Z" fill="white"/>
<path d="M12.1071 4.07143C12.1071 3.74598 11.8433 3.48215 11.5179 3.48215C11.1924 3.48215 10.9286 3.74598 10.9286 4.07143V4.78573C10.9286 5.24925 10.5528 5.62501 10.0893 5.62501C9.76383 5.62501 9.5 5.88884 9.5 6.2143C9.5 6.53975 9.76383 6.80358 10.0893 6.80358H10.6786C10.8166 6.80358 10.9286 6.91551 10.9286 7.05358V10.9821C10.9286 11.4301 11.041 11.9636 11.4583 12.381C11.8757 12.7983 12.4984 13 13.3036 13C13.629 13 13.8929 12.7362 13.8929 12.4107C13.8929 12.0853 13.629 11.8214 13.3036 11.8214C12.6801 11.8214 12.4101 11.666 12.2917 11.5476C12.1733 11.4292 12.1071 11.2485 12.1071 10.9821V7.05358C12.1071 6.91551 12.2191 6.80358 12.3571 6.80358H13.3036C13.629 6.80358 13.8929 6.53975 13.8929 6.2143C13.8929 5.88884 13.629 5.62501 13.3036 5.62501H12.3571C12.2191 5.62501 12.1071 5.51308 12.1071 5.37501V4.07143Z" fill="white"/>
</svg>
