<svg width="16" height="16" viewBox="0 0 16 16" fill="none" xmlns="http://www.w3.org/2000/svg">
<path fill-rule="evenodd" clip-rule="evenodd" d="M2.5 3C2.5 2.72386 2.72386 2.5 3 2.5H13C13.2761 2.5 13.5 2.72386 13.5 3C13.5 3.27614 13.2761 3.5 13 3.5H3C2.72386 3.5 2.5 3.27614 2.5 3ZM3.125 5.5C3.125 5.22386 3.34886 5 3.625 5H12.375C12.6511 5 12.875 5.22386 12.875 5.5C12.875 5.77614 12.6511 6 12.375 6H3.625C3.34886 6 3.125 5.77614 3.125 5.5ZM3.75 8C3.75 7.72386 3.97386 7.5 4.25 7.5H11.75C12.0261 7.5 12.25 7.72386 12.25 8C12.25 8.27614 12.0261 8.5 11.75 8.5H4.25C3.97386 8.5 3.75 8.27614 3.75 8ZM4.375 10.5C4.375 10.2239 4.59886 10 4.875 10H11.125C11.4011 10 11.625 10.2239 11.625 10.5C11.625 10.7761 11.4011 11 11.125 11H4.875C4.59886 11 4.375 10.7761 4.375 10.5ZM5 13C5 12.7239 5.22386 12.5 5.5 12.5H10.5C10.7761 12.5 11 12.7239 11 13C11 13.2761 10.7761 13.5 10.5 13.5H5.5C5.22386 13.5 5 13.2761 5 13Z" fill="white"/>
</svg>
