<svg width="16" height="16" viewBox="0 0 16 16" fill="none" xmlns="http://www.w3.org/2000/svg">
<path fill-rule="evenodd" clip-rule="evenodd" d="M2.5 3C2.5 2.72386 2.72386 2.5 3 2.5H13C13.2761 2.5 13.5 2.72386 13.5 3C13.5 3.27614 13.2761 3.5 13 3.5H3C2.72386 3.5 2.5 3.27614 2.5 3ZM2.5 5.5C2.5 5.22386 2.72386 5 3 5H10C10.2761 5 10.5 5.22386 10.5 5.5C10.5 5.77614 10.2761 6 10 6H3C2.72386 6 2.5 5.77614 2.5 5.5ZM2.5 8C2.5 7.72386 2.72386 7.5 3 7.5H13C13.2761 7.5 13.5 7.72386 13.5 8C13.5 8.27614 13.2761 8.5 13 8.5H3C2.72386 8.5 2.5 8.27614 2.5 8ZM2.5 10.5C2.5 10.2239 2.72386 10 3 10H10C10.2761 10 10.5 10.2239 10.5 10.5C10.5 10.7761 10.2761 11 10 11H3C2.72386 11 2.5 10.7761 2.5 10.5ZM2.5 13C2.5 12.7239 2.72386 12.5 3 12.5H13C13.2761 12.5 13.5 12.7239 13.5 13C13.5 13.2761 13.2761 13.5 13 13.5H3C2.72386 13.5 2.5 13.2761 2.5 13Z" fill="white"/>
</svg>
