<svg width="24" height="24" viewBox="0 0 24 24" fill="none" xmlns="http://www.w3.org/2000/svg">
<rect x="2.5" y="5.5" width="19" height="13" rx="1" stroke="white"/>
<path d="M11.5 9.5V18.5H4.40039C3.9721 18.5 3.68012 18.4998 3.45508 18.4814C3.23615 18.4635 3.12405 18.4304 3.0459 18.3906C2.85793 18.2948 2.70521 18.1421 2.60938 17.9541C2.56956 17.876 2.53647 17.7639 2.51855 17.5449C2.50017 17.3199 2.5 17.0279 2.5 16.5996V9.5H11.5Z" stroke="white"/>
<path d="M14.5996 9.5C15.0279 9.5 15.3199 9.50017 15.5449 9.51855C15.7639 9.53647 15.876 9.56956 15.9541 9.60938C16.1421 9.70521 16.2948 9.85793 16.3906 10.0459C16.4304 10.124 16.4635 10.2361 16.4814 10.4551C16.4998 10.6801 16.5 10.9721 16.5 11.4004V18.5H4.40039C3.9721 18.5 3.68012 18.4998 3.45508 18.4814C3.23615 18.4635 3.12405 18.4304 3.0459 18.3906C2.85793 18.2948 2.70521 18.1421 2.60938 17.9541C2.56956 17.876 2.53647 17.7639 2.51855 17.5449C2.50017 17.3199 2.5 17.0279 2.5 16.5996V9.5H14.5996Z" stroke="white"/>
</svg>
