<svg width="24" height="24" viewBox="0 0 24 24" fill="none" xmlns="http://www.w3.org/2000/svg">
<path d="M10.5001 5C10.0445 5 9.6751 5.36937 9.6751 5.825C9.6751 6.28063 10.0445 6.65 10.5001 6.65H11.7594C12.0809 6.65 12.3189 6.94912 12.2466 7.26243L10.0975 16.5749C9.99284 17.0286 9.58881 17.35 9.12315 17.35H7.825C7.36937 17.35 7 17.7194 7 18.175C7 18.6306 7.36937 19 7.825 19H13.5001C13.9557 19 14.3251 18.6306 14.3251 18.175C14.3251 17.7194 13.9557 17.35 13.5001 17.35H12.2406C11.919 17.35 11.6811 17.0509 11.7534 16.7376L13.9024 7.42514C14.0071 6.97141 14.4111 6.65 14.8768 6.65H16.175C16.6307 6.65 17 6.28063 17 5.825C17 5.36937 16.6307 5 16.175 5H10.5001Z" fill="white"/>
</svg>
