<svg width="24" height="24" viewBox="0 0 24 24" fill="none" xmlns="http://www.w3.org/2000/svg">
<path fill-rule="evenodd" clip-rule="evenodd" d="M16.935 5.50002C16.805 5.19668 16.5067 5 16.1767 5C15.8466 5 15.5484 5.19668 15.4184 5.50002L9.84695 18.5C9.66746 18.9188 9.86146 19.4038 10.2803 19.5833C10.6991 19.7628 11.1841 19.5688 11.3635 19.15L12.6112 16.2388C12.69 16.0549 12.8708 15.9357 13.0708 15.9357H19.2826C19.4826 15.9357 19.6633 16.0549 19.7421 16.2388L20.9898 19.15C21.1693 19.5688 21.6543 19.7628 22.0731 19.5833C22.4919 19.4038 22.6859 18.9188 22.5064 18.5L16.935 5.50002ZM18.696 13.7978C18.795 14.0288 18.6256 14.2857 18.3743 14.2857H13.979C13.7277 14.2857 13.5583 14.0288 13.6573 13.7978L16.1767 7.91934L18.696 13.7978Z" fill="white"/>
<path fill-rule="evenodd" clip-rule="evenodd" d="M6.2956 11.7091C6.18923 11.461 5.94519 11.3 5.67517 11.3C5.40515 11.3 5.16112 11.461 5.05475 11.7091L2.05475 18.7091C1.9079 19.0518 2.06663 19.4486 2.40928 19.5955C2.75193 19.7423 3.14875 19.5836 3.2956 19.2409L3.8865 17.8622C3.94165 17.7335 4.06819 17.65 4.2082 17.65H7.14215C7.28216 17.65 7.4087 17.7335 7.46385 17.8622L8.05475 19.2409C8.2016 19.5836 8.59842 19.7423 8.94107 19.5955C9.28372 19.4486 9.44245 19.0518 9.2956 18.7091L6.2956 11.7091ZM5.67517 13.6886L6.70476 16.0909C6.74718 16.1899 6.67457 16.3 6.56689 16.3H4.78346C4.67577 16.3 4.60317 16.1899 4.64559 16.0909L5.67517 13.6886Z" fill="white"/>
</svg>
