<svg width="24" height="24" viewBox="0 0 24 24" fill="none" xmlns="http://www.w3.org/2000/svg">
<path fill-rule="evenodd" clip-rule="evenodd" d="M6 5.75C6 5.33579 6.33579 5 6.75 5H13.2273C15.5794 5 17.5909 6.84613 17.5909 9.25C17.5909 10.2037 17.2743 11.0697 16.7454 11.7673C17.5161 12.526 18 13.5709 18 14.75C18 17.1539 15.9885 19 13.6364 19H6.75C6.33579 19 6 18.6642 6 18.25V5.75ZM13.2273 10.5C14.0382 10.5 14.5909 9.88369 14.5909 9.25C14.5909 8.61631 14.0382 8 13.2273 8H9V10.5H13.2273ZM9 13.5H13.6364C14.4473 13.5 15 14.1163 15 14.75C15 15.3837 14.4473 16 13.6364 16H9V13.5Z" fill="white"/>
</svg>
