<svg width="24" height="24" viewBox="0 0 24 24" fill="none" xmlns="http://www.w3.org/2000/svg">
<path d="M3.6748 5.825C3.6748 5.36937 4.04417 5 4.4998 5H14.4998C14.9554 5 15.3248 5.36937 15.3248 5.825C15.3248 6.28063 14.9554 6.65 14.4998 6.65H11.0748C10.6606 6.65 10.3248 6.98579 10.3248 7.4V18.175C10.3248 18.6306 9.95544 19 9.4998 19C9.04417 19 8.6748 18.6306 8.6748 18.175V7.4C8.6748 6.98579 8.33902 6.65 7.9248 6.65H4.4998C4.04417 6.65 3.6748 6.28063 3.6748 5.825Z" fill="white"/>
<path d="M17.8248 6.5C17.8248 6.04437 17.4554 5.675 16.9998 5.675C16.5442 5.675 16.1748 6.04437 16.1748 6.5V7.50001C16.1748 8.14895 15.6487 8.67501 14.9998 8.67501C14.5442 8.67501 14.1748 9.04438 14.1748 9.50001C14.1748 9.95565 14.5442 10.325 14.9998 10.325H15.8248C16.0181 10.325 16.1748 10.4817 16.1748 10.675V16.175C16.1748 16.8022 16.3322 17.5491 16.9164 18.1334C17.5007 18.7177 18.3726 19 19.4998 19C19.9554 19 20.3248 18.6306 20.3248 18.175C20.3248 17.7194 19.9554 17.35 19.4998 17.35C18.627 17.35 18.2489 17.1324 18.0832 16.9666C17.9175 16.8009 17.8248 16.5478 17.8248 16.175V10.675C17.8248 10.4817 17.9815 10.325 18.1748 10.325H19.4998C19.9554 10.325 20.3248 9.95565 20.3248 9.50001C20.3248 9.04438 19.9554 8.67501 19.4998 8.67501H18.1748C17.9815 8.67501 17.8248 8.51831 17.8248 8.32501V6.5Z" fill="white"/>
</svg>
