<svg width="16" height="16" viewBox="0 0 16 16" fill="none" xmlns="http://www.w3.org/2000/svg">
<path fill-rule="evenodd" clip-rule="evenodd" d="M10.7246 2.71191C10.9564 2.71191 11.1658 2.85003 11.2571 3.06305L15.17 12.1924C15.296 12.4865 15.1598 12.827 14.8657 12.9531C14.5715 13.0791 14.2309 12.9429 14.1049 12.6488L13.2286 10.6044C13.1733 10.4753 13.0463 10.3916 12.9059 10.3916H8.54329C8.40282 10.3916 8.27586 10.4753 8.22053 10.6044L7.34428 12.6488C7.21823 12.9429 6.87761 13.0791 6.58349 12.9531C6.28937 12.827 6.15312 12.4865 6.27917 12.1924L10.192 3.06305C10.2833 2.85003 10.4928 2.71191 10.7246 2.71191ZM12.268 9.23284C12.4445 9.23284 12.5634 9.05242 12.4939 8.89023L10.7246 4.76203L8.95522 8.89023C8.8857 9.05242 9.00468 9.23284 9.18115 9.23284H12.268Z" fill="white"/>
<path fill-rule="evenodd" clip-rule="evenodd" d="M3.38669 7.12762C3.57798 7.12762 3.75085 7.24063 3.8262 7.41492L5.9514 12.3307C6.05543 12.5713 5.94299 12.85 5.70025 12.9531C5.45752 13.0562 5.17641 12.9448 5.07239 12.7041L4.65379 11.7359C4.61472 11.6455 4.52508 11.5869 4.4259 11.5869H2.34749C2.24831 11.5869 2.15867 11.6455 2.1196 11.7359L1.701 12.7041C1.59697 12.9448 1.31587 13.0562 1.07314 12.9531C0.830402 12.85 0.71796 12.5713 0.821988 12.3307L2.94719 7.41492C3.02254 7.24063 3.19541 7.12762 3.38669 7.12762ZM4.11605 10.4921L3.38669 8.80499L2.65734 10.4921C2.62729 10.5616 2.67872 10.6389 2.75501 10.6389H4.01838C4.09467 10.6389 4.1461 10.5616 4.11605 10.4921Z" fill="white"/>
</svg>
