<svg width="16" height="16" viewBox="0 0 16 16" fill="none" xmlns="http://www.w3.org/2000/svg">
<path fill-rule="evenodd" clip-rule="evenodd" d="M4 3.4C4 3.17909 4.17909 3 4.4 3H8.70248C10.3664 3 11.7851 4.30537 11.7851 6C11.7851 6.70158 11.542 7.33644 11.1389 7.83957C11.7169 8.37939 12.0826 9.13951 12.0826 10C12.0826 11.6946 10.6639 13 9 13H4.4C4.17909 13 4 12.8209 4 12.6V3.4ZM8.70248 7C9.33896 7 9.78512 6.51451 9.78512 6C9.78512 5.48549 9.33896 5 8.70248 5H6V7H8.70248ZM6 9H9C9.63648 9 10.0826 9.48549 10.0826 10C10.0826 10.5145 9.63648 11 9 11H6V9Z" fill="white"/>
</svg>
