<svg width="16" height="16" viewBox="0 0 16 16" fill="none" xmlns="http://www.w3.org/2000/svg">
<g clip-path="url(#clip0_41_17847)">
<path d="M8.5 1C8.5 0.723858 8.27614 0.5 8 0.5C7.72386 0.5 7.5 0.723858 7.5 1V2C7.5 2.27614 7.72386 2.5 8 2.5C8.27614 2.5 8.5 2.27614 8.5 2V1Z" fill="white"/>
<path d="M3.40381 2.6967C3.20854 2.50144 2.89196 2.50144 2.6967 2.6967C2.50144 2.89196 2.50144 3.20854 2.6967 3.40381L3.40381 4.11091C3.59907 4.30617 3.91565 4.30617 4.11091 4.11091C4.30618 3.91565 4.30618 3.59907 4.11091 3.40381L3.40381 2.6967Z" fill="white"/>
<path d="M13.3033 3.40381C13.4986 3.20854 13.4986 2.89196 13.3033 2.6967C13.108 2.50144 12.7915 2.50144 12.5962 2.6967L11.8891 3.40381C11.6938 3.59907 11.6938 3.91565 11.8891 4.11091C12.0844 4.30618 12.4009 4.30617 12.5962 4.11091L13.3033 3.40381Z" fill="white"/>
<path d="M1 7.5C0.723858 7.5 0.5 7.72386 0.5 8C0.5 8.27614 0.723858 8.5 1 8.5H2C2.27614 8.5 2.5 8.27614 2.5 8C2.5 7.72386 2.27614 7.5 2 7.5H1Z" fill="white"/>
<path d="M14 7.5C13.7239 7.5 13.5 7.72386 13.5 8C13.5 8.27614 13.7239 8.5 14 8.5H15C15.2761 8.5 15.5 8.27614 15.5 8C15.5 7.72386 15.2761 7.5 15 7.5H14Z" fill="white"/>
<path d="M4.11091 12.5962C4.30617 12.4009 4.30617 12.0843 4.11091 11.8891C3.91565 11.6938 3.59907 11.6938 3.40381 11.8891L2.6967 12.5962C2.50144 12.7915 2.50144 13.108 2.6967 13.3033C2.89196 13.4986 3.20854 13.4986 3.40381 13.3033L4.11091 12.5962Z" fill="white"/>
<path d="M12.5962 11.8891C12.4009 11.6938 12.0843 11.6938 11.8891 11.8891C11.6938 12.0843 11.6938 12.4009 11.8891 12.5962L12.5962 13.3033C12.7915 13.4986 13.108 13.4986 13.3033 13.3033C13.4986 13.108 13.4986 12.7915 13.3033 12.5962L12.5962 11.8891Z" fill="white"/>
<path d="M8.5 14C8.5 13.7239 8.27614 13.5 8 13.5C7.72386 13.5 7.5 13.7239 7.5 14V15C7.5 15.2761 7.72386 15.5 8 15.5C8.27614 15.5 8.5 15.2761 8.5 15V14Z" fill="white"/>
<path fill-rule="evenodd" clip-rule="evenodd" d="M8 13C10.7614 13 13 10.7614 13 8C13 5.23858 10.7614 3 8 3C5.23858 3 3 5.23858 3 8C3 10.7614 5.23858 13 8 13ZM8 12C10.2091 12 12 10.2091 12 8C12 5.79086 10.2091 4 8 4V12Z" fill="white"/>
</g>
<defs>
<clipPath id="clip0_41_17847">
<rect width="16" height="16" fill="white"/>
</clipPath>
</defs>
</svg>
