<svg width="24" height="24" viewBox="0 0 24 24" fill="none" xmlns="http://www.w3.org/2000/svg">
<g clip-path="url(#clip0_41_17869)">
<path d="M12.6752 1.5002C12.6752 1.1274 12.373 0.825195 12.0002 0.825195C11.6274 0.825195 11.3252 1.1274 11.3252 1.5002V3.0002C11.3252 3.37299 11.6274 3.6752 12.0002 3.6752C12.373 3.6752 12.6752 3.37299 12.6752 3.0002V1.5002Z" fill="white"/>
<path d="M5.05287 4.09828C4.78927 3.83467 4.36188 3.83467 4.09828 4.09828C3.83467 4.36188 3.83467 4.78927 4.09828 5.05287L5.15894 6.11353C5.42254 6.37714 5.84993 6.37714 6.11353 6.11353C6.37714 5.84993 6.37714 5.42254 6.11353 5.15894L5.05287 4.09828Z" fill="white"/>
<path d="M19.9021 5.05287C20.1657 4.78927 20.1657 4.36188 19.9021 4.09828C19.6385 3.83467 19.2111 3.83467 18.9475 4.09828L17.8869 5.15894C17.6233 5.42254 17.6233 5.84993 17.8869 6.11353C18.1505 6.37714 18.5779 6.37714 18.8415 6.11353L19.9021 5.05287Z" fill="white"/>
<path d="M1.5002 11.3252C1.1274 11.3252 0.825195 11.6274 0.825195 12.0002C0.825195 12.373 1.1274 12.6752 1.5002 12.6752H3.0002C3.37299 12.6752 3.6752 12.373 3.6752 12.0002C3.6752 11.6274 3.37299 11.3252 3.0002 11.3252H1.5002Z" fill="white"/>
<path d="M21.0002 11.3252C20.6274 11.3252 20.3252 11.6274 20.3252 12.0002C20.3252 12.373 20.6274 12.6752 21.0002 12.6752H22.5002C22.873 12.6752 23.1752 12.373 23.1752 12.0002C23.1752 11.6274 22.873 11.3252 22.5002 11.3252H21.0002Z" fill="white"/>
<path d="M6.11353 18.8415C6.37714 18.5778 6.37714 18.1505 6.11353 17.8869C5.84993 17.6233 5.42254 17.6233 5.15894 17.8869L4.09828 18.9475C3.83467 19.2111 3.83467 19.6385 4.09828 19.9021C4.36188 20.1657 4.78927 20.1657 5.05287 19.9021L6.11353 18.8415Z" fill="white"/>
<path d="M18.8415 17.8869C18.5778 17.6233 18.1505 17.6233 17.8869 17.8869C17.6233 18.1505 17.6233 18.5778 17.8869 18.8415L18.9475 19.9021C19.2111 20.1657 19.6385 20.1657 19.9021 19.9021C20.1657 19.6385 20.1657 19.2111 19.9021 18.9475L18.8415 17.8869Z" fill="white"/>
<path d="M12.6752 21.0002C12.6752 20.6274 12.373 20.3252 12.0002 20.3252C11.6274 20.3252 11.3252 20.6274 11.3252 21.0002V22.5002C11.3252 22.873 11.6274 23.1752 12.0002 23.1752C12.373 23.1752 12.6752 22.873 12.6752 22.5002V21.0002Z" fill="white"/>
<path fill-rule="evenodd" clip-rule="evenodd" d="M12.0002 4.8252C8.03755 4.8252 4.8252 8.03755 4.8252 12.0002C4.8252 15.9628 8.03755 19.1752 12.0002 19.1752C15.9628 19.1752 19.1752 15.9628 19.1752 12.0002C19.1752 8.03755 15.9628 4.8252 12.0002 4.8252ZM12.0002 17.8252V6.1752C15.2173 6.1752 17.8252 8.78314 17.8252 12.0002C17.8252 15.2173 15.2173 17.8252 12.0002 17.8252Z" fill="white"/>
</g>
<defs>
<clipPath id="clip0_41_17869">
<rect width="24" height="24" fill="white"/>
</clipPath>
</defs>
</svg>
