<svg width="16" height="16" viewBox="0 0 16 16" fill="none" xmlns="http://www.w3.org/2000/svg">
<path d="M6.5 4.5C6.22386 4.5 6 4.72386 6 5C6 5.27614 6.22386 5.5 6.5 5.5H9.5C9.77614 5.5 10 5.27614 10 5C10 4.72386 9.77614 4.5 9.5 4.5H6.5Z" fill="white"/>
<path d="M6.5 6.5C6.22386 6.5 6 6.72386 6 7C6 7.27614 6.22386 7.5 6.5 7.5H9.5C9.77614 7.5 10 7.27614 10 7C10 6.72386 9.77614 6.5 9.5 6.5H6.5Z" fill="white"/>
<path d="M6.28566 10.6429C6.60125 10.6429 6.85709 10.387 6.85709 10.0714C6.85709 9.75584 6.60125 9.5 6.28566 9.5C5.97007 9.5 5.71423 9.75584 5.71423 10.0714C5.71423 10.387 5.97007 10.6429 6.28566 10.6429Z" fill="white"/>
<path d="M8.57144 10.0714C8.57144 10.387 8.31561 10.6429 8.00002 10.6429C7.68443 10.6429 7.42859 10.387 7.42859 10.0714C7.42859 9.75584 7.68443 9.5 8.00002 9.5C8.31561 9.5 8.57144 9.75584 8.57144 10.0714Z" fill="white"/>
<path d="M9.71413 10.6429C10.0297 10.6429 10.2856 10.387 10.2856 10.0714C10.2856 9.75584 10.0297 9.5 9.71413 9.5C9.39854 9.5 9.1427 9.75584 9.1427 10.0714C9.1427 10.387 9.39854 10.6429 9.71413 10.6429Z" fill="white"/>
<path fill-rule="evenodd" clip-rule="evenodd" d="M4.4 1.5C3.90294 1.5 3.5 1.90294 3.5 2.4V13.6C3.5 14.0971 3.90294 14.5 4.4 14.5H6.5C6.77614 14.5 7 14.2761 7 14C7 13.4477 7.44771 13 8 13C8.55229 13 9 13.4477 9 14C9 14.2761 9.22386 14.5 9.5 14.5L11.6 14.5C12.0971 14.5 12.5 14.0971 12.5 13.6L12.5 2.4C12.5 1.90294 12.0971 1.5 11.6 1.5H4.4ZM4.5 9.50442L4.5 2.5L11.5 2.5L11.5 9.50443C11.4766 9.50151 11.4527 9.5 11.4285 9.5C11.1129 9.5 10.8571 9.75584 10.8571 10.0714C10.8571 10.387 11.1129 10.6429 11.4285 10.6429C11.4527 10.6429 11.4766 10.6413 11.5 10.6384V13.5L9.93699 13.5C9.71497 12.6374 8.93192 12 8 12C7.06808 12 6.28503 12.6374 6.06301 13.5H4.5L4.5 10.6384C4.5234 10.6413 4.54724 10.6429 4.57143 10.6429C4.88702 10.6429 5.14285 10.387 5.14285 10.0714C5.14285 9.75584 4.88702 9.5 4.57143 9.5C4.54724 9.5 4.5234 9.5015 4.5 9.50442Z" fill="white"/>
</svg>
