<svg width="24" height="24" viewBox="0 0 24 24" fill="none" xmlns="http://www.w3.org/2000/svg">
<path d="M9.0002 6.3252C8.62741 6.3252 8.3252 6.6274 8.3252 7.0002C8.3252 7.37299 8.62741 7.6752 9.0002 7.6752H15.0002C15.373 7.6752 15.6752 7.37299 15.6752 7.0002C15.6752 6.6274 15.373 6.3252 15.0002 6.3252H9.0002Z" fill="white"/>
<path d="M9.0002 9.3252C8.62741 9.3252 8.3252 9.6274 8.3252 10.0002C8.3252 10.373 8.62741 10.6752 9.0002 10.6752H15.0002C15.373 10.6752 15.6752 10.373 15.6752 10.0002C15.6752 9.6274 15.373 9.3252 15.0002 9.3252H9.0002Z" fill="white"/>
<path d="M9.00024 16.5002C9.55249 16.5002 10.0002 16.0525 10.0002 15.5002C10.0002 14.948 9.55249 14.5002 9.00024 14.5002C8.448 14.5002 8.00024 14.948 8.00024 15.5002C8.00024 16.0525 8.448 16.5002 9.00024 16.5002Z" fill="white"/>
<path d="M13.0002 15.5002C13.0002 16.0525 12.5525 16.5002 12.0002 16.5002C11.448 16.5002 11.0002 16.0525 11.0002 15.5002C11.0002 14.948 11.448 14.5002 12.0002 14.5002C12.5525 14.5002 13.0002 14.948 13.0002 15.5002Z" fill="white"/>
<path d="M15.0002 16.5002C15.5525 16.5002 16.0002 16.0525 16.0002 15.5002C16.0002 14.948 15.5525 14.5002 15.0002 14.5002C14.448 14.5002 14.0002 14.948 14.0002 15.5002C14.0002 16.0525 14.448 16.5002 15.0002 16.5002Z" fill="white"/>
<path fill-rule="evenodd" clip-rule="evenodd" d="M6.5002 1.8252C5.57512 1.8252 4.8252 2.57512 4.8252 3.5002L4.8252 20.5002C4.8252 21.4253 5.57512 22.1752 6.5002 22.1752H9.5002C9.87299 22.1752 10.1752 21.873 10.1752 21.5002C10.1752 20.4923 10.9923 19.6752 12.0002 19.6752C13.0081 19.6752 13.8252 20.4923 13.8252 21.5002C13.8252 21.873 14.1274 22.1752 14.5002 22.1752L17.5002 22.1752C18.4253 22.1752 19.1752 21.4253 19.1752 20.5002L19.1752 3.5002C19.1752 2.57512 18.4253 1.8252 17.5002 1.8252L6.5002 1.8252ZM6.1752 3.5002C6.1752 3.3207 6.3207 3.1752 6.5002 3.1752L17.5002 3.1752C17.6797 3.1752 17.8252 3.3207 17.8252 3.5002L17.8252 14.5155C17.3564 14.5983 17.0002 15.0077 17.0002 15.5002C17.0002 15.9928 17.3564 16.4022 17.8252 16.485V20.5002C17.8252 20.6797 17.6797 20.8252 17.5002 20.8252L15.1033 20.8252C14.7939 19.3959 13.5221 18.3252 12.0002 18.3252C10.4783 18.3252 9.20654 19.3959 8.8971 20.8252H6.5002C6.3207 20.8252 6.1752 20.6797 6.1752 20.5002L6.1752 16.485C6.64404 16.4023 7.00024 15.9928 7.00024 15.5002C7.00024 15.0076 6.64404 14.5982 6.1752 14.5155L6.1752 3.5002Z" fill="white"/>
</svg>
