<svg width="24" height="24" viewBox="0 0 24 24" fill="none" xmlns="http://www.w3.org/2000/svg">
<path fill-rule="evenodd" clip-rule="evenodd" d="M17.5 22C18.3284 22 19 21.3285 19 20.5V16.5C18.4478 16.5 18 16.0522 18 15.5C18 14.9478 18.4478 14.5 19 14.5V3.5C19 2.67163 18.3284 2 17.5 2H6.5C5.67163 2 5 2.67151 5 3.5V14.5C5.55225 14.5 6 14.9478 6 15.5C6 16.0522 5.55225 16.5 5 16.5V20.5C5 21.3284 5.67163 22 6.5 22H9.1C9.32091 22 9.49664 21.8197 9.53158 21.6016C9.72237 20.4102 10.7549 19.5 12 19.5C13.2451 19.5 14.2776 20.4102 14.4684 21.6016C14.5034 21.8197 14.6791 22 14.9 22H17.5ZM9 6.32495C8.6272 6.32495 8.32495 6.6272 8.32495 7C8.32495 7.3728 8.6272 7.67493 9 7.67493H15C15.3728 7.67493 15.6749 7.3728 15.6749 7C15.6749 6.6272 15.3728 6.32495 15 6.32495H9ZM9 9.32495C8.6272 9.32495 8.32495 9.6272 8.32495 10C8.32495 10.3728 8.6272 10.6749 9 10.6749H15C15.3728 10.6749 15.6749 10.3728 15.6749 10C15.6749 9.6272 15.3728 9.32495 15 9.32495H9ZM9.5 15.5C9.5 16.0522 9.05225 16.5 8.5 16.5C7.94775 16.5 7.5 16.0522 7.5 15.5C7.5 14.9478 7.94775 14.5 8.5 14.5C9.05225 14.5 9.5 14.9478 9.5 15.5ZM12 16.5C12.5522 16.5 13 16.0522 13 15.5C13 14.9478 12.5522 14.5 12 14.5C11.4478 14.5 11 14.9478 11 15.5C11 16.0522 11.4478 16.5 12 16.5ZM16.5 15.5C16.5 16.0522 16.0522 16.5 15.5 16.5C14.9478 16.5 14.5 16.0522 14.5 15.5C14.5 14.9478 14.9478 14.5 15.5 14.5C16.0522 14.5 16.5 14.9478 16.5 15.5Z" fill="white"/>
</svg>
