<svg width="16" height="16" viewBox="0 0 16 16" fill="none" xmlns="http://www.w3.org/2000/svg">
<path fill-rule="evenodd" clip-rule="evenodd" d="M11.4997 14.3997C11.9967 14.3997 12.3997 13.9967 12.3997 13.4997V10.5706C12.0973 10.5558 11.8568 10.3059 11.8568 9.99989C11.8568 9.69387 12.0973 9.44403 12.3997 9.42917L12.3997 2.4996C12.3997 2.00255 11.9967 1.59961 11.4997 1.59961L4.49963 1.59991C4.00256 1.59991 3.59961 2.00285 3.59961 2.49991L3.59961 9.42917C3.90194 9.44404 4.14249 9.69388 4.14249 9.99989C4.14249 10.3059 3.90194 10.5557 3.59961 10.5706L3.59961 13.5C3.59961 13.997 4.00256 14.4 4.49963 14.4L6.20322 14.3999C6.36755 14.3999 6.49814 14.2663 6.53216 14.1055C6.67574 13.4269 7.27822 12.9175 7.99966 12.9175C8.72106 12.9175 9.32351 13.4268 9.46714 14.1054C9.50117 14.2662 9.63178 14.3997 9.7961 14.3997L11.4997 14.3997ZM6.49963 4.49988C6.22349 4.49988 5.99963 4.72374 5.99963 4.99988C5.99963 5.27602 6.22349 5.49988 6.49963 5.49988H9.49963C9.77578 5.49988 9.99963 5.27602 9.99963 4.99988C9.99963 4.72374 9.77578 4.49988 9.49963 4.49988H6.49963ZM6.49963 6.49988C6.22349 6.49988 5.99963 6.72374 5.99963 6.99988C5.99963 7.27602 6.22349 7.49988 6.49963 7.49988H9.49963C9.77578 7.49988 9.99963 7.27602 9.99963 6.99988C9.99963 6.72374 9.77578 6.49988 9.49963 6.49988H6.49963ZM6.35678 9.99989C6.35678 10.3155 6.10095 10.5713 5.78536 10.5713C5.46976 10.5713 5.21393 10.3155 5.21393 9.99989C5.21393 9.6843 5.46976 9.42847 5.78536 9.42847C6.10095 9.42847 6.35678 9.6843 6.35678 9.99989ZM7.99965 10.5713C8.31524 10.5713 8.57108 10.3155 8.57108 9.99989C8.57108 9.6843 8.31524 9.42847 7.99965 9.42847C7.68406 9.42847 7.42822 9.6843 7.42822 9.99989C7.42822 10.3155 7.68406 10.5713 7.99965 10.5713ZM10.7854 9.99989C10.7854 10.3155 10.5295 10.5713 10.2139 10.5713C9.89835 10.5713 9.64252 10.3155 9.64252 9.99989C9.64252 9.6843 9.89835 9.42847 10.2139 9.42847C10.5295 9.42847 10.7854 9.6843 10.7854 9.99989Z" fill="white"/>
</svg>
