<svg width="24" height="24" viewBox="0 0 24 24" fill="none" xmlns="http://www.w3.org/2000/svg">
<path d="M12 2.82495C11.6272 2.82495 11.325 3.12716 11.325 3.49995V5.97915C11.325 6.35195 11.6272 6.65415 12 6.65415C12.3727 6.65415 12.675 6.35195 12.675 5.97915V4.20366C16.6806 4.5459 19.825 7.90572 19.825 12C19.825 16.3216 16.3216 19.825 12 19.825C7.67832 19.825 4.17495 16.3216 4.17495 12C4.17495 9.83409 5.054 7.87481 6.47643 6.45727C6.74048 6.19412 6.74122 5.76673 6.47807 5.50268C6.21492 5.23862 5.78753 5.23789 5.52348 5.50104C3.85728 7.16152 2.82495 9.46081 2.82495 12C2.82495 17.0672 6.93274 21.1749 12 21.1749C17.0672 21.1749 21.1749 17.0672 21.1749 12C21.1749 6.93274 17.0672 2.82495 12 2.82495Z" fill="white"/>
<path d="M13.5001 11.9999C13.5001 12.8284 12.8285 13.4999 12.0001 13.4999C11.4448 13.4999 10.9601 13.1983 10.7007 12.7499L7.35345 7.76968C7.16982 7.49647 7.49658 7.16972 7.76978 7.35335L12.7501 10.7006C13.1984 10.96 13.5001 11.4447 13.5001 11.9999Z" fill="white"/>
</svg>
