<svg width="40" height="40" viewBox="0 0 40 40" fill="none" xmlns="http://www.w3.org/2000/svg">
<path d="M20 4C19.4477 4 19 4.44772 19 5V9.37506C19 9.92735 19.4477 10.3751 20 10.3751C20.5523 10.3751 21 9.92735 21 9.37506V6.03516C28.2653 6.54791 34 12.6042 34 20C34 27.732 27.732 34 20 34C12.268 34 6 27.732 6 20C6 16.125 7.57297 12.6193 10.1177 10.0834C10.5088 9.69353 10.5099 9.06037 10.1201 8.66917C9.73023 8.27798 9.09707 8.27689 8.70587 8.66674C5.80004 11.5626 4 15.572 4 20C4 28.8366 11.1634 36 20 36C28.8366 36 36 28.8366 36 20C36 11.1634 28.8366 4 20 4Z" fill="white"/>
<path d="M22.6158 20C22.6158 21.4447 21.4447 22.6158 20 22.6158C19.0318 22.6158 18.1865 22.0898 17.7342 21.3079L11.8969 12.6229C11.5767 12.1465 12.1465 11.5767 12.623 11.8969L21.3079 17.7341C22.0898 18.1864 22.6158 19.0318 22.6158 20Z" fill="white"/>
</svg>
