<svg width="16" height="16" viewBox="0 0 16 16" fill="none" xmlns="http://www.w3.org/2000/svg">
<path d="M8 2C7.72386 2 7.5 2.22386 7.5 2.5V4C7.5 4.27614 7.72386 4.5 8 4.5C8.27614 4.5 8.5 4.27614 8.5 4V3.02469C11.0267 3.27555 13 5.40733 13 8C13 10.7614 10.7614 13 8 13C5.23858 13 3 10.7614 3 8C3 6.61915 3.5591 5.36984 4.46447 4.46447C4.65973 4.2692 4.65973 3.95262 4.46447 3.75736C4.2692 3.5621 3.95262 3.5621 3.75736 3.75736C2.67212 4.8426 2 6.34328 2 8C2 11.3137 4.68629 14 8 14C11.3137 14 14 11.3137 14 8C14 4.68629 11.3137 2 8 2Z" fill="white"/>
<path d="M7.99997 9C8.55226 9 8.99997 8.55228 8.99997 8C8.99997 7.62986 8.79887 7.30669 8.49997 7.13378L5.31105 5.03405C5.12953 4.91453 4.9145 5.12955 5.03403 5.31108L7.13375 8.5C7.30666 8.7989 7.62983 9 7.99997 9Z" fill="white"/>
</svg>
