<svg width="16" height="16" viewBox="0 0 16 16" fill="none" xmlns="http://www.w3.org/2000/svg">
<g clip-path="url(#clip0_41_17898)">
<path d="M6.49977 7.33325C6.49977 7.05711 6.72363 6.83325 6.99977 6.83325H7.99976C8.13236 6.83325 8.25954 6.88593 8.35331 6.9797C8.44708 7.07347 8.49976 7.20065 8.49976 7.33325L8.49974 10.1666H8.99976C9.2759 10.1666 9.49976 10.3904 9.49976 10.6666C9.49976 10.9427 9.2759 11.1666 8.99976 11.1666H6.99976C6.72361 11.1666 6.49976 10.9427 6.49976 10.6666C6.49976 10.3904 6.72361 10.1666 6.99976 10.1666H7.49974L7.49975 7.83325H6.99977C6.72363 7.83325 6.49977 7.60939 6.49977 7.33325Z" fill="white"/>
<path d="M7.99997 4.66668C8.36816 4.66668 8.66663 4.96516 8.66663 5.33335C8.66663 5.70154 8.36816 6.00001 7.99997 6.00001C7.63178 6.00001 7.3333 5.70154 7.3333 5.33335C7.3333 4.96516 7.63178 4.66668 7.99997 4.66668Z" fill="white"/>
<path fill-rule="evenodd" clip-rule="evenodd" d="M2 4.5C2 3.39543 2.89543 2.5 4 2.5H12C13.1046 2.5 14 3.39543 14 4.5V11.5C14 12.6046 13.1046 13.5 12 13.5H8.68102L5.82009 15.8841C5.67105 16.0083 5.46361 16.0351 5.28792 15.9528C5.11223 15.8705 5 15.694 5 15.5V13.5H4C2.89543 13.5 2 12.6046 2 11.5V4.5ZM4 3.5C3.44772 3.5 3 3.94772 3 4.5V11.5C3 12.0523 3.44772 12.5 4 12.5H5.5C5.77614 12.5 6 12.7239 6 13V14.4325L8.17991 12.6159C8.26977 12.541 8.38303 12.5 8.5 12.5H12C12.5523 12.5 13 12.0523 13 11.5V4.5C13 3.94772 12.5523 3.5 12 3.5H4Z" fill="white"/>
</g>
<defs>
<clipPath id="clip0_41_17898">
<rect width="16" height="16" fill="white"/>
</clipPath>
</defs>
</svg>
