<svg width="16" height="16" viewBox="0 0 16 16" fill="none" xmlns="http://www.w3.org/2000/svg">
<g clip-path="url(#clip0_41_17840)">
<path fill-rule="evenodd" clip-rule="evenodd" d="M4 2.5C2.89543 2.5 2 3.39543 2 4.5V11.5C2 12.6046 2.89543 13.5 4 13.5H5V15.5C5 15.694 5.11223 15.8705 5.28792 15.9528C5.46361 16.0351 5.67105 16.0083 5.82009 15.8841L8.68102 13.5H12C13.1046 13.5 14 12.6046 14 11.5V4.5C14 3.39543 13.1046 2.5 12 2.5H4ZM8.66663 5.33341C8.66663 4.96522 8.36816 4.66675 7.99997 4.66675C7.63178 4.66675 7.3333 4.96522 7.3333 5.33341C7.3333 5.7016 7.63178 6.00008 7.99997 6.00008C8.36816 6.00008 8.66663 5.7016 8.66663 5.33341ZM6.49977 7.33332C6.49977 7.05718 6.72363 6.83332 6.99977 6.83332H7.99976C8.13236 6.83332 8.25954 6.886 8.35331 6.97977C8.44708 7.07354 8.49976 7.20072 8.49976 7.33332L8.49974 10.1667H8.99976C9.2759 10.1667 9.49976 10.3905 9.49976 10.6667C9.49976 10.9428 9.2759 11.1667 8.99976 11.1667H6.99976C6.72361 11.1667 6.49976 10.9428 6.49976 10.6667C6.49976 10.3905 6.72361 10.1667 6.99976 10.1667H7.49974L7.49975 7.83332H6.99977C6.72363 7.83332 6.49977 7.60946 6.49977 7.33332Z" fill="white"/>
</g>
<defs>
<clipPath id="clip0_41_17840">
<rect width="16" height="16" fill="white"/>
</clipPath>
</defs>
</svg>
