<svg width="24" height="24" viewBox="0 0 24 24" fill="none" xmlns="http://www.w3.org/2000/svg">
<path fill-rule="evenodd" clip-rule="evenodd" d="M6.49995 3.82495C4.4703 3.82495 2.82495 5.4703 2.82495 7.49995V16.5C2.82495 18.5296 4.4703 20.175 6.49995 20.175H7.82495V23C7.82495 23.2578 7.9718 23.493 8.20339 23.6063C8.43498 23.7196 8.71086 23.691 8.91436 23.5328L13.2315 20.175H17.5C19.5296 20.175 21.1749 18.5296 21.1749 16.5V7.49995C21.1749 5.4703 19.5296 3.82495 17.5 3.82495H6.49995ZM13 8C13 7.44772 12.5523 7 12 7C11.4477 7 11 7.44772 11 8C11 8.55229 11.4477 9 12 9C12.5523 9 13 8.55229 13 8ZM9.82497 11C9.82497 10.6272 10.1272 10.325 10.5 10.325H12C12.179 10.325 12.3507 10.3961 12.4772 10.5227C12.6038 10.6493 12.675 10.821 12.675 11L12.6749 15.325H13.5C13.8727 15.325 14.175 15.6272 14.175 16C14.175 16.3728 13.8727 16.675 13.5 16.675H10.5C10.1272 16.675 9.82495 16.3728 9.82495 16C9.82495 15.6272 10.1272 15.325 10.5 15.325H11.3249L11.3249 11.675H10.5C10.1272 11.675 9.82497 11.3728 9.82497 11Z" fill="white"/>
</svg>
