<svg width="64" height="64" viewBox="0 0 64 64" fill="none" xmlns="http://www.w3.org/2000/svg">
<path d="M26.2 29.3332C26.2 28.3391 27.0059 27.5332 28 27.5332H32C32.4773 27.5332 32.9352 27.7228 33.2727 28.0604C33.6103 28.398 33.8 28.8558 33.7999 29.3332L33.7999 40.8665H36C36.9941 40.8665 37.7999 41.6724 37.7999 42.6665C37.7999 43.6606 36.9941 44.4665 36 44.4665H28C27.0058 44.4665 26.2 43.6606 26.2 42.6665C26.2 41.6724 27.0058 40.8665 28 40.8665H30.1999L30.1999 31.1332H28C27.0059 31.1332 26.2 30.3273 26.2 29.3332Z" fill="white"/>
<path d="M32.0001 18.6667C33.4729 18.6667 34.6668 19.8606 34.6668 21.3333C34.6668 22.8061 33.4729 24 32.0001 24C30.5274 24 29.3335 22.8061 29.3335 21.3333C29.3335 19.8606 30.5274 18.6667 32.0001 18.6667Z" fill="white"/>
<path fill-rule="evenodd" clip-rule="evenodd" d="M7.69995 20C7.69995 14.5876 12.0876 10.2 17.5 10.2H46.5C51.9123 10.2 56.2999 14.5876 56.2999 20V44C56.2999 49.4123 51.9123 53.7999 46.5 53.7999H35.6063L23.5891 62.933C23.0446 63.3468 22.3127 63.4164 21.7001 63.1125C21.0875 62.8086 20.7 62.1838 20.7 61.5V53.7999H17.5C12.0876 53.7999 7.69995 49.4123 7.69995 44V20ZM17.5 13.8C14.0758 13.8 11.3 16.5758 11.3 20V44C11.3 47.4241 14.0758 50.2 17.5 50.2H22.5C23.4941 50.2 24.3 51.0058 24.3 52V57.8711L33.9108 50.5669C34.224 50.3288 34.6066 50.2 35 50.2H46.5C49.9241 50.2 52.7 47.4241 52.7 44V20C52.7 16.5758 49.9241 13.8 46.5 13.8H17.5Z" fill="white"/>
</svg>
