<svg width="64" height="64" viewBox="0 0 64 64" fill="none" xmlns="http://www.w3.org/2000/svg">
<path fill-rule="evenodd" clip-rule="evenodd" d="M17.5002 10.2002C12.0878 10.2002 7.7002 14.5878 7.7002 20.0002V44.0002C7.7002 49.4126 12.0878 53.8002 17.5002 53.8002H20.7002V61.5002C20.7002 62.1841 21.0877 62.8088 21.7003 63.1127C22.313 63.4166 23.0449 63.3471 23.5893 62.9333L35.6066 53.8002H46.5002C51.9126 53.8002 56.3002 49.4126 56.3002 44.0002V20.0002C56.3002 14.5878 51.9126 10.2002 46.5002 10.2002H17.5002ZM34.667 21.3337C34.667 19.8609 33.4731 18.667 32.0004 18.667C30.5276 18.667 29.3337 19.8609 29.3337 21.3337C29.3337 22.8064 30.5276 24.0003 32.0004 24.0003C33.4731 24.0003 34.667 22.8064 34.667 21.3337ZM26.2003 29.3335C26.2003 28.3394 27.0061 27.5335 28.0003 27.5335H32.0002C32.4776 27.5335 32.9354 27.7232 33.273 28.0607C33.6106 28.3983 33.8002 28.8561 33.8002 29.3335L33.8001 40.8669H36.0002C36.9943 40.8669 37.8002 41.6727 37.8002 42.6669C37.8002 43.661 36.9943 44.4669 36.0002 44.4669H28.0002C27.0061 44.4669 26.2002 43.661 26.2002 42.6669C26.2002 41.6727 27.0061 40.8669 28.0002 40.8669H30.2001L30.2002 31.1335H28.0003C27.0061 31.1335 26.2003 30.3276 26.2003 29.3335Z" fill="white"/>
</svg>
