<svg width="20" height="20" viewBox="0 0 20 20" fill="none" xmlns="http://www.w3.org/2000/svg">
<path d="M8.18747 9.1667C8.18747 8.85604 8.43931 8.6042 8.74997 8.6042H9.99995C10.1491 8.6042 10.2922 8.66346 10.3977 8.76895C10.5032 8.87444 10.5625 9.01752 10.5625 9.1667L10.5624 12.7709H11.25C11.5606 12.7709 11.8125 13.0227 11.8125 13.3334C11.8125 13.644 11.5606 13.8959 11.25 13.8959H8.74995C8.43929 13.8959 8.18745 13.644 8.18745 13.3334C8.18745 13.0227 8.43929 12.7709 8.74995 12.7709H9.43743L9.43745 9.7292H8.74997C8.43931 9.7292 8.18747 9.47736 8.18747 9.1667Z" fill="white"/>
<path d="M10 5.8333C10.4603 5.8333 10.8334 6.2064 10.8334 6.66663C10.8334 7.12687 10.4603 7.49997 10 7.49997C9.53979 7.49997 9.1667 7.12687 9.1667 6.66663C9.1667 6.2064 9.53979 5.8333 10 5.8333Z" fill="white"/>
<path fill-rule="evenodd" clip-rule="evenodd" d="M2.44995 6.49995C2.44995 4.81548 3.81548 3.44995 5.49995 3.44995H14.5C16.1844 3.44995 17.55 4.81548 17.55 6.49995V13.5C17.55 15.1844 16.1844 16.55 14.5 16.55H11.1833L7.32995 19.44C7.16329 19.5649 6.94031 19.5851 6.75398 19.4919C6.56765 19.3987 6.44995 19.2083 6.44995 19V16.55H5.49995C3.81548 16.55 2.44995 15.1844 2.44995 13.5V6.49995ZM5.49995 4.54995C4.423 4.54995 3.54995 5.423 3.54995 6.49995V13.5C3.54995 14.5769 4.423 15.45 5.49995 15.45H6.99995C7.30371 15.45 7.54995 15.6962 7.54995 16V17.9L10.67 15.56C10.7652 15.4885 10.8809 15.45 11 15.45H14.5C15.5769 15.45 16.45 14.5769 16.45 13.5V6.49995C16.45 5.423 15.5769 4.54995 14.5 4.54995H5.49995Z" fill="white"/>
</svg>
