<svg width="24" height="24" viewBox="0 0 24 24" fill="none" xmlns="http://www.w3.org/2000/svg">
<path d="M9.82497 11C9.82497 10.6272 10.1272 10.325 10.5 10.325H12C12.179 10.325 12.3507 10.3961 12.4772 10.5227C12.6038 10.6492 12.675 10.8209 12.675 11L12.6749 15.325H13.5C13.8727 15.325 14.175 15.6272 14.175 16C14.175 16.3727 13.8727 16.675 13.5 16.675H10.5C10.1272 16.675 9.82495 16.3727 9.82495 16C9.82495 15.6272 10.1272 15.325 10.5 15.325H11.3249L11.3249 11.675H10.5C10.1272 11.675 9.82497 11.3727 9.82497 11Z" fill="white"/>
<path d="M12 6.99997C12.5523 6.99997 13 7.44768 13 7.99997C13 8.55225 12.5523 8.99997 12 8.99997C11.4477 8.99997 11 8.55225 11 7.99997C11 7.44768 11.4477 6.99997 12 6.99997Z" fill="white"/>
<path fill-rule="evenodd" clip-rule="evenodd" d="M2.82495 7.49995C2.82495 5.4703 4.4703 3.82495 6.49995 3.82495H17.5C19.5296 3.82495 21.1749 5.4703 21.1749 7.49995V16.5C21.1749 18.5296 19.5296 20.1749 17.5 20.1749H13.2315L8.91436 23.5328C8.71086 23.691 8.43498 23.7196 8.20339 23.6063C7.9718 23.493 7.82495 23.2578 7.82495 23V20.1749H6.49995C4.4703 20.1749 2.82495 18.5296 2.82495 16.5V7.49995ZM6.49995 5.17495C5.21589 5.17495 4.17495 6.21589 4.17495 7.49995V16.5C4.17495 17.784 5.21589 18.825 6.49995 18.825H8.49995C8.87274 18.825 9.17495 19.1272 9.17495 19.5V21.6198L12.5855 18.9671C12.704 18.875 12.8498 18.825 13 18.825H17.5C18.784 18.825 19.825 17.784 19.825 16.5V7.49995C19.825 6.21589 18.784 5.17495 17.5 5.17495H6.49995Z" fill="white"/>
</svg>
