<svg width="20" height="20" viewBox="0 0 20 20" fill="none" xmlns="http://www.w3.org/2000/svg">
<path fill-rule="evenodd" clip-rule="evenodd" d="M5.49995 3.44995C3.81548 3.44995 2.44995 4.81548 2.44995 6.49995V13.5C2.44995 15.1844 3.81548 16.55 5.49995 16.55H6.44995V19C6.44995 19.2083 6.56765 19.3987 6.75398 19.4919C6.94032 19.5851 7.16329 19.5649 7.32995 19.44L11.1833 16.55H14.5C16.1844 16.55 17.55 15.1844 17.55 13.5V6.49995C17.55 4.81548 16.1844 3.44995 14.5 3.44995H5.49995ZM10.8334 6.66659C10.8334 6.20635 10.4603 5.83325 10 5.83325C9.53978 5.83325 9.16669 6.20635 9.16669 6.66659C9.16669 7.12682 9.53978 7.49992 10 7.49992C10.4603 7.49992 10.8334 7.12682 10.8334 6.66659ZM8.18746 9.16665C8.18746 8.85599 8.4393 8.60415 8.74996 8.60415H9.99994C10.1491 8.60415 10.2922 8.66342 10.3977 8.76891C10.5032 8.87439 10.5624 9.01747 10.5624 9.16665L10.5624 12.7708H11.2499C11.5606 12.7708 11.8124 13.0227 11.8124 13.3333C11.8124 13.644 11.5606 13.8958 11.2499 13.8958H8.74994C8.43928 13.8958 8.18744 13.644 8.18744 13.3333C8.18744 13.0227 8.43928 12.7708 8.74994 12.7708H9.43742L9.43744 9.72915H8.74996C8.4393 9.72915 8.18746 9.47731 8.18746 9.16665Z" fill="white"/>
</svg>
