<svg width="24" height="24" viewBox="0 0 24 24" fill="none" xmlns="http://www.w3.org/2000/svg">
<path fill-rule="evenodd" clip-rule="evenodd" d="M7.32974 5.17482C7.19974 4.87148 6.90147 4.6748 6.57144 4.6748C6.24142 4.6748 5.94315 4.87148 5.81315 5.17482L0.241722 18.1748C0.0622382 18.5936 0.256238 19.0786 0.675033 19.2581C1.09383 19.4376 1.57883 19.2436 1.75831 18.8248L3.00598 15.9136C3.08477 15.7297 3.26554 15.6105 3.46555 15.6105H9.67734C9.87735 15.6105 10.0581 15.7297 10.1369 15.9136L11.3846 18.8248C11.5641 19.2436 12.0491 19.4376 12.4679 19.2581C12.8867 19.0786 13.0807 18.5936 12.9012 18.1748L7.32974 5.17482ZM9.0908 13.4726C9.18978 13.7036 9.02037 13.9605 8.7691 13.9605H4.37379C4.12252 13.9605 3.95311 13.7036 4.05209 13.4726L6.57144 7.59414L9.0908 13.4726Z" fill="white"/>
<path fill-rule="evenodd" clip-rule="evenodd" d="M17.75 8.17474C18.8348 8.17474 19.7412 8.52751 20.4507 9.10198C20.5385 9.17307 20.6749 9.11271 20.6749 8.99974C20.6749 8.54411 21.0443 8.17474 21.4999 8.17474C21.9556 8.17474 22.3249 8.54411 22.3249 8.99974V13.4596C22.3251 13.4862 22.3251 13.5129 22.3249 13.5396V18.4997C22.3249 20.7745 20.0953 22.3247 17.7499 22.3247C16.1376 22.3247 14.6588 21.6252 13.8331 20.4832C13.5661 20.1139 13.649 19.5982 14.0182 19.3312C14.3874 19.0642 14.9032 19.1471 15.1702 19.5163C15.6412 20.1677 16.5862 20.6747 17.7499 20.6747C19.5467 20.6747 20.6749 19.5387 20.6749 18.4997V17.7026C19.9364 18.3908 18.9533 18.8247 17.75 18.8247C16.2183 18.8247 15.0427 18.1214 14.2746 17.0846C13.5242 16.0715 13.175 14.7643 13.175 13.4997C13.175 12.2352 13.5242 10.928 14.2746 9.91493C15.0427 8.87806 16.2183 8.17474 17.75 8.17474ZM17.75 17.1747C16.7818 17.1747 16.0824 16.7531 15.6005 16.1024C15.1009 15.428 14.825 14.4852 14.825 13.4997C14.825 12.5143 15.1009 11.5715 15.6005 10.8971C16.0824 10.2464 16.7818 9.82474 17.75 9.82474C18.7132 9.82474 19.4099 10.242 19.8913 10.8859C20.3899 11.5527 20.6684 12.4858 20.6749 13.4647V13.5351C20.6685 14.5015 20.3965 15.4254 19.9079 16.0912C19.4255 16.7486 18.7233 17.1747 17.75 17.1747Z" fill="white"/>
</svg>
