<svg width="16" height="16" viewBox="0 0 16 16" fill="none" xmlns="http://www.w3.org/2000/svg">
<path fill-rule="evenodd" clip-rule="evenodd" d="M4.9229 3.43376C4.82993 3.21683 4.61662 3.07617 4.38061 3.07617C4.14459 3.07617 3.93128 3.21683 3.83831 3.43376L0.124028 12.1004C-0.00433022 12.3999 0.134409 12.7468 0.433911 12.8751C0.733412 13.0035 1.08026 12.8648 1.20862 12.5653L2.03867 10.6285C2.08594 10.5182 2.1944 10.4466 2.31441 10.4466H6.44681C6.56682 10.4466 6.67528 10.5182 6.72255 10.6285L7.5526 12.5653C7.68096 12.8648 8.02781 13.0035 8.32731 12.8751C8.62681 12.7468 8.76555 12.3999 8.63719 12.1004L4.9229 3.43376ZM5.98956 8.91817C6.06026 9.08314 5.93926 9.26665 5.75978 9.26665H3.00144C2.82196 9.26665 2.70095 9.08314 2.77165 8.91817L4.38061 5.16394L5.98956 8.91817Z" fill="white"/>
<path fill-rule="evenodd" clip-rule="evenodd" d="M11.8329 5.40955C12.5667 5.40955 13.1803 5.64877 13.6602 6.03798C13.6929 6.06451 13.7428 6.04167 13.7428 5.99955C13.7428 5.6737 14.007 5.40955 14.3328 5.40955C14.6587 5.40955 14.9228 5.6737 14.9228 5.99955V8.97262C14.9229 8.98312 14.9229 8.99363 14.9229 9.00415C14.9229 9.01151 14.9229 9.01887 14.9228 9.02624V12.3329C14.9228 13.8793 13.4097 14.9229 11.8328 14.9229C10.747 14.9229 9.7483 14.4518 9.18919 13.6786C8.99826 13.4145 9.05754 13.0457 9.32159 12.8548C9.58564 12.6638 9.95447 12.7231 10.1454 12.9872C10.4508 13.4095 11.0679 13.7429 11.8328 13.7429C13.0174 13.7429 13.7428 12.9955 13.7428 12.3329V11.8915C13.2517 12.3214 12.6099 12.5895 11.8329 12.5895C10.7981 12.5895 10.0028 12.1138 9.48382 11.4132C8.97744 10.7296 8.74292 9.84937 8.74292 8.99955C8.74292 8.14972 8.97744 7.26947 9.48382 6.58586C10.0028 5.88525 10.7981 5.40955 11.8329 5.40955ZM11.8329 11.4095C11.2011 11.4095 10.7464 11.1352 10.432 10.7109C10.1051 10.2695 9.92292 9.64972 9.92292 8.99955C9.92292 8.34937 10.1051 7.72962 10.432 7.28823C10.7464 6.86384 11.2011 6.58955 11.8329 6.58955C12.4615 6.58955 12.9144 6.86096 13.2284 7.28092C13.5546 7.71728 13.7385 8.33048 13.7428 8.97628V9.02305C13.7386 9.66053 13.5591 10.2677 13.2392 10.7035C12.9245 11.1323 12.468 11.4095 11.8329 11.4095Z" fill="white"/>
</svg>
