<svg width="24" height="24" viewBox="0 0 24 24" fill="none" xmlns="http://www.w3.org/2000/svg">
<path d="M10.6553 3.21967L6.34283 7.53217C6.04994 7.82506 6.04994 8.29994 6.34283 8.59283L8.65717 10.9072C8.95006 11.2001 9.42494 11.2001 9.71783 10.9072L16.7714 3.85355C17.0864 3.53857 16.8633 3 16.4179 3H11.1857C10.9867 3 10.796 3.07902 10.6553 3.21967Z" fill="white"/>
<path d="M15.4072 6.34283L13.0928 8.65717C12.7999 8.95006 12.7999 9.42494 13.0928 9.71783L20.1464 16.7714C20.4614 17.0864 21 16.8633 21 16.4179V11.1857C21 10.9867 20.921 10.796 20.7803 10.6553L16.4678 6.34283C16.1749 6.04994 15.7001 6.04994 15.4072 6.34283Z" fill="white"/>
<path d="M7.22855 20.1464L14.2822 13.0928C14.5751 12.7999 15.0499 12.7999 15.3428 13.0928L17.6572 15.4072C17.9501 15.7001 17.9501 16.1749 17.6572 16.4678L13.3447 20.7803C13.204 20.921 13.0133 21 12.8143 21H7.58211C7.13665 21 6.91357 20.4614 7.22855 20.1464Z" fill="white"/>
<path d="M3.85355 7.22855L10.9072 14.2822C11.2001 14.5751 11.2001 15.0499 10.9072 15.3428L8.59283 17.6572C8.29994 17.9501 7.82506 17.9501 7.53217 17.6572L3.21967 13.3447C3.07902 13.204 3 13.0133 3 12.8143V7.58211C3 7.13665 3.53857 6.91357 3.85355 7.22855Z" fill="white"/>
</svg>
