<svg width="24" height="24" viewBox="0 0 24 24" fill="none" xmlns="http://www.w3.org/2000/svg">
<path fill-rule="evenodd" clip-rule="evenodd" d="M11.4773 3.52265C11.7409 3.78626 11.7409 4.21364 11.4773 4.47725L6.95461 8.99995L9.00001 11.0454L16.5227 3.52265C16.7863 3.25905 17.2137 3.25905 17.4773 3.52265C17.7409 3.78626 17.7409 4.21364 17.4773 4.47725L15.9546 5.99995L20.4773 10.5227C20.7409 10.7863 20.7409 11.2136 20.4773 11.4772C20.2137 11.7409 19.7863 11.7409 19.5227 11.4772L15 6.95455L12.9546 8.99995L20.4773 16.5227C20.7409 16.7863 20.7409 17.2136 20.4773 17.4772C20.2137 17.7409 19.7863 17.7409 19.5227 17.4772L18 15.9545L13.4773 20.4772C13.2137 20.7409 12.7863 20.7409 12.5227 20.4772C12.2591 20.2136 12.2591 19.7863 12.5227 19.5227L17.0454 15L15 12.9545L7.47731 20.4772C7.21371 20.7409 6.78632 20.7409 6.52272 20.4772C6.25911 20.2136 6.25911 19.7863 6.52272 19.5227L8.04542 18L3.52272 13.4772C3.25911 13.2136 3.25911 12.7863 3.52272 12.5227C3.78632 12.2591 4.21371 12.2591 4.47731 12.5227L9.00001 17.0454L11.0454 15L3.52272 7.47725C3.25911 7.21364 3.25911 6.78626 3.52272 6.52265C3.78632 6.25905 4.21371 6.25905 4.47731 6.52265L6.00001 8.04536L10.5227 3.52265C10.7863 3.25905 11.2137 3.25905 11.4773 3.52265ZM12 14.0454L14.0454 12L12 9.95455L9.95461 12L12 14.0454Z" fill="white"/>
</svg>
