<svg width="16" height="16" viewBox="0 0 16 16" fill="none" xmlns="http://www.w3.org/2000/svg">
<path d="M7.10355 2.14645L4.22855 5.02145C4.03329 5.21671 4.03329 5.53329 4.22855 5.72855L5.77145 7.27145C5.96671 7.46671 6.28329 7.46671 6.47855 7.27145L11.181 2.56904C11.391 2.35905 11.2422 2 10.9453 2H7.45711C7.3245 2 7.19732 2.05268 7.10355 2.14645Z" fill="white"/>
<path d="M10.2714 4.22855L8.72855 5.77145C8.53329 5.96671 8.53329 6.28329 8.72855 6.47855L13.431 11.181C13.641 11.391 14 11.2422 14 10.9453V7.45711C14 7.3245 13.9473 7.19732 13.8536 7.10355L10.9786 4.22855C10.7833 4.03329 10.4667 4.03329 10.2714 4.22855Z" fill="white"/>
<path d="M4.81904 13.431L9.52145 8.72855C9.71671 8.53329 10.0333 8.53329 10.2286 8.72855L11.7714 10.2714C11.9667 10.4667 11.9667 10.7833 11.7714 10.9786L8.89645 13.8536C8.80268 13.9473 8.6755 14 8.54289 14H5.05474C4.75777 14 4.60905 13.641 4.81904 13.431Z" fill="white"/>
<path d="M2.56904 4.81904L7.27145 9.52145C7.46671 9.71671 7.46671 10.0333 7.27145 10.2286L5.72855 11.7714C5.53329 11.9667 5.21671 11.9667 5.02145 11.7714L2.14645 8.89645C2.05268 8.80268 2 8.6755 2 8.54289V5.05474C2 4.75777 2.35905 4.60905 2.56904 4.81904Z" fill="white"/>
</svg>
