<svg width="16" height="16" viewBox="0 0 16 16" fill="none" xmlns="http://www.w3.org/2000/svg">
<path fill-rule="evenodd" clip-rule="evenodd" d="M7.35356 2.64645C7.54882 2.84171 7.54881 3.15829 7.35355 3.35356L4.70711 5.99996L6 7.29285L9.64645 3.64641L10.6465 2.64644C10.8417 2.45118 11.1583 2.45119 11.3536 2.64645C11.5488 2.84172 11.5488 3.1583 11.3535 3.35356L10.7071 3.99997L13.3536 6.64645C13.5488 6.84171 13.5488 7.1583 13.3536 7.35356C13.1583 7.54882 12.8417 7.54881 12.6464 7.35355L10 4.70707L8.70711 5.99996L12.3536 9.64641L13.3536 10.6465C13.5488 10.8417 13.5488 11.1583 13.3535 11.3536C13.1583 11.5488 12.8417 11.5488 12.6464 11.3535L12 10.7071L9.35356 13.3536C9.15829 13.5488 8.84171 13.5488 8.64645 13.3536C8.45119 13.1583 8.45118 12.8417 8.64644 12.6464L11.2929 9.99996L10 8.70707L6.35356 12.3535L5.35356 13.3535C5.1583 13.5488 4.84172 13.5488 4.64645 13.3536C4.45119 13.1583 4.45118 12.8417 4.64644 12.6465L5.2929 12L2.64645 9.35356C2.45119 9.1583 2.45118 8.84171 2.64644 8.64645C2.8417 8.45119 3.15829 8.45118 3.35355 8.64644L6 11.2929L7.29289 9.99996L3.64646 6.35352L2.64645 5.35356C2.45119 5.1583 2.45118 4.84172 2.64644 4.64645C2.8417 4.45119 3.15828 4.45118 3.35355 4.64644L4 5.29286L6.64645 2.64644C6.84171 2.45118 7.15829 2.45119 7.35356 2.64645ZM8 9.29285L9.29289 7.99996L8 6.70707L6.70711 7.99996L8 9.29285Z" fill="white"/>
</svg>
