<svg width="16" height="16" viewBox="0 0 16 16" fill="none" xmlns="http://www.w3.org/2000/svg">
<path fill-rule="evenodd" clip-rule="evenodd" d="M12.4111 4.15919C13.072 3.67735 14 4.14896 14 4.96681V11.0332C14 11.8511 13.072 12.3227 12.4111 11.8408L8.25098 8.80763C8.14766 8.73225 8.06335 8.64247 7.99902 8.54298C7.93477 8.6421 7.852 8.7325 7.74902 8.80763L3.58887 11.8408L3.46289 11.9199C2.85952 12.2398 2.10847 11.8583 2.01074 11.1826L2 11.0332V4.96681C2.0001 4.14923 2.9281 3.67694 3.58887 4.15821L7.74902 7.19141C7.85198 7.26649 7.93478 7.357 7.99902 7.45606C8.06329 7.35685 8.1479 7.26759 8.25098 7.19239L12.4111 4.15919ZM3 11.0332L7.16016 8.00001L3 4.96681V11.0332Z" fill="white"/>
</svg>
