<svg width="16" height="16" viewBox="0 0 16 16" fill="none" xmlns="http://www.w3.org/2000/svg">
<path d="M12.4111 4.15871C13.0718 3.67723 13.9996 4.14886 14 4.96633V11.0337C13.9996 11.8512 13.0718 12.3228 12.4111 11.8413L8.25098 8.80812C8.14761 8.73275 8.06436 8.64201 8 8.5425C7.93564 8.64201 7.85239 8.73275 7.74902 8.80812L3.58887 11.8413C2.92818 12.3228 2.00035 11.8512 2 11.0337V4.96633C2.00036 4.14886 2.92818 3.67723 3.58887 4.15871L7.74902 7.19191C7.85215 7.26711 7.9357 7.35732 8 7.45656C8.0643 7.35732 8.14785 7.26711 8.25098 7.19191L12.4111 4.15871Z" fill="white"/>
</svg>
