<svg width="16" height="16" viewBox="0 0 16 16" fill="none" xmlns="http://www.w3.org/2000/svg">
<path d="M12.4111 4.1582C13.0719 3.67687 14.0008 4.14922 14.001 4.9668V11.0332L13.9902 11.1826C13.8926 11.8581 13.1414 12.2393 12.5381 11.9199L12.4111 11.8408L8.25195 8.80762C8.1482 8.73196 8.06447 8.64095 8 8.54102C7.9356 8.64088 7.85266 8.732 7.74902 8.80762L3.58887 11.8408C2.92803 12.3227 2 11.8511 2 11.0332V4.9668C2.00003 4.14898 2.92805 3.67737 3.58887 4.15918L7.74902 7.19238C7.85218 7.26763 7.93571 7.35772 8 7.45703C8.04298 7.39061 8.0949 7.32798 8.15527 7.27148L8.25195 7.19141L12.4111 4.1582ZM8.84082 8L13.001 11.0332V4.9668L8.84082 8Z" fill="white"/>
</svg>
