<svg width="16" height="16" viewBox="0 0 16 16" fill="none" xmlns="http://www.w3.org/2000/svg">
<path fill-rule="evenodd" clip-rule="evenodd" d="M6.99967 2.16699C6.90763 2.16699 6.83301 2.24161 6.83301 2.33366V2.50033H9.16634V2.33366C9.16634 2.24161 9.09172 2.16699 8.99967 2.16699H6.99967ZM10.1663 2.50033V2.33366C10.1663 1.68933 9.64401 1.16699 8.99967 1.16699H6.99967C6.35534 1.16699 5.83301 1.68933 5.83301 2.33366V2.50033H3.33301C3.05687 2.50033 2.83301 2.72418 2.83301 3.00033C2.83301 3.27647 3.05687 3.50033 3.33301 3.50033H3.51606L3.8118 12.3725C3.83277 13.0014 4.34862 13.5003 4.97782 13.5003H11.0215C11.6507 13.5003 12.1666 13.0014 12.1875 12.3725L12.4833 3.50033H12.6663C12.9425 3.50033 13.1663 3.27647 13.1663 3.00033C13.1663 2.72418 12.9425 2.50033 12.6663 2.50033H10.1663ZM11.4827 3.50033H4.51662L4.81125 12.3392C4.81424 12.429 4.88794 12.5003 4.97782 12.5003H11.0215C11.1114 12.5003 11.1851 12.429 11.1881 12.3392L11.4827 3.50033ZM5.98726 4.16715C6.26332 4.16025 6.4927 4.37844 6.4996 4.6545L6.66627 11.3212C6.67317 11.5972 6.45497 11.8266 6.17892 11.8335C5.90286 11.8404 5.67348 11.6222 5.66658 11.3462L5.49991 4.67949C5.49301 4.40343 5.7112 4.17405 5.98726 4.16715ZM10.0123 4.16715C10.2883 4.17405 10.5065 4.40343 10.4996 4.67949L10.3329 11.3462C10.326 11.6222 10.0966 11.8404 9.82059 11.8335C9.54454 11.8266 9.32634 11.5972 9.33325 11.3212L9.49991 4.6545C9.50681 4.37844 9.7362 4.16025 10.0123 4.16715ZM7.99976 4.16699C8.2759 4.16699 8.49976 4.39085 8.49976 4.66699V11.3337C8.49976 11.6098 8.2759 11.8337 7.99976 11.8337C7.72361 11.8337 7.49976 11.6098 7.49976 11.3337V4.66699C7.49976 4.39085 7.72361 4.16699 7.99976 4.16699Z" fill="white"/>
</svg>
