<svg width="24" height="24" viewBox="0 0 24 24" fill="none" xmlns="http://www.w3.org/2000/svg">
<path fill-rule="evenodd" clip-rule="evenodd" d="M15.1752 4.49507V4.82007H19.0002C19.373 4.82007 19.6752 5.12228 19.6752 5.49507C19.6752 5.86786 19.373 6.17007 19.0002 6.17007H18.6531L18.207 19.5509C18.1769 20.4537 17.4363 21.1701 16.533 21.1701H7.46742C6.56406 21.1701 5.82344 20.4537 5.79335 19.5509L5.34732 6.17007H5.0002C4.6274 6.17007 4.3252 5.86786 4.3252 5.49507C4.3252 5.12228 4.6274 4.82007 5.0002 4.82007H8.8252V4.49507C8.8252 3.56999 9.57512 2.82007 10.5002 2.82007H13.5002C14.4253 2.82007 15.1752 3.56999 15.1752 4.49507ZM10.1752 4.49507C10.1752 4.31558 10.3207 4.17007 10.5002 4.17007H13.5002C13.6797 4.17007 13.8252 4.31558 13.8252 4.49507V4.82007H10.1752V4.49507ZM9.42503 7.9782C9.41572 7.60553 9.10605 7.31097 8.73337 7.32028C8.3607 7.3296 8.06614 7.63927 8.07545 8.01194L8.32546 18.0119C8.33477 18.3846 8.64444 18.6792 9.01711 18.6699C9.38979 18.6605 9.68435 18.3509 9.67503 17.9782L9.42503 7.9782ZM15.925 8.01194C15.9344 7.63927 15.6398 7.3296 15.2671 7.32028C14.8944 7.31097 14.5848 7.60553 14.5755 7.9782L14.3255 17.9782C14.3161 18.3509 14.6107 18.6605 14.9834 18.6699C15.3561 18.6792 15.6657 18.3846 15.675 18.0119L15.925 8.01194ZM12.6752 7.99507C12.6752 7.62228 12.373 7.32007 12.0002 7.32007C11.6275 7.32007 11.3252 7.62228 11.3252 7.99507V17.9951C11.3252 18.3679 11.6275 18.6701 12.0002 18.6701C12.373 18.6701 12.6752 18.3679 12.6752 17.9951V7.99507Z" fill="white"/>
</svg>
