<svg width="16" height="16" viewBox="0 0 16 16" fill="none" xmlns="http://www.w3.org/2000/svg">
<path fill-rule="evenodd" clip-rule="evenodd" d="M10.1663 3.00675V3.17342H12.6663C12.9425 3.17342 13.1663 3.39728 13.1663 3.67342C13.1663 3.94956 12.9425 4.17342 12.6663 4.17342H12.4833L12.1875 13.0456C12.1666 13.6745 11.6507 14.1734 11.0215 14.1734H4.97782C4.34862 14.1734 3.83277 13.6745 3.8118 13.0456L3.51606 4.17342H3.33301C3.05687 4.17342 2.83301 3.94956 2.83301 3.67342C2.83301 3.39728 3.05687 3.17342 3.33301 3.17342H5.83301V3.00675C5.83301 2.36242 6.35534 1.84009 6.99967 1.84009H8.99967C9.64401 1.84009 10.1663 2.36242 10.1663 3.00675ZM6.83301 3.00675C6.83301 2.91471 6.90763 2.84009 6.99967 2.84009H8.99967C9.09172 2.84009 9.16634 2.91471 9.16634 3.00675V3.17342H6.83301V3.00675ZM6.33293 5.32759C6.32603 5.05154 6.09665 4.83334 5.82059 4.84024C5.54454 4.84715 5.32634 5.07653 5.33325 5.35258L5.49991 12.0192C5.50681 12.2953 5.7362 12.5135 6.01225 12.5066C6.28831 12.4997 6.5065 12.2703 6.4996 11.9943L6.33293 5.32759ZM10.6662 5.35258C10.6731 5.07653 10.4549 4.84715 10.1788 4.84024C9.90278 4.83334 9.6734 5.05154 9.6665 5.32759L9.49983 11.9943C9.49293 12.2703 9.71112 12.4997 9.98718 12.5066C10.2632 12.5135 10.4926 12.2953 10.4995 12.0192L10.6662 5.35258ZM8.49967 5.34009C8.49967 5.06395 8.27582 4.84009 7.99967 4.84009C7.72353 4.84009 7.49967 5.06395 7.49967 5.34009V12.0068C7.49967 12.2829 7.72353 12.5068 7.99967 12.5068C8.27582 12.5068 8.49967 12.2829 8.49967 12.0068V5.34009Z" fill="white"/>
</svg>
