<svg width="24" height="24" viewBox="0 0 24 24" fill="none" xmlns="http://www.w3.org/2000/svg">
<path fill-rule="evenodd" clip-rule="evenodd" d="M10.5 3.17495C10.3205 3.17495 10.175 3.32046 10.175 3.49995V3.82495H13.825V3.49995C13.825 3.32046 13.6794 3.17495 13.5 3.17495H10.5ZM15.175 3.82495V3.49995C15.175 2.57487 14.425 1.82495 13.5 1.82495H10.5C9.57487 1.82495 8.82495 2.57487 8.82495 3.49995V3.82495H4.99995C4.62716 3.82495 4.32495 4.12716 4.32495 4.49995C4.32495 4.87274 4.62716 5.17495 4.99995 5.17495H5.34708L5.7931 18.5558C5.8232 19.4586 6.56382 20.1749 7.46717 20.1749H16.5327C17.4361 20.1749 18.1767 19.4586 18.2068 18.5558L18.6528 5.17495H19C19.3727 5.17495 19.675 4.87274 19.675 4.49995C19.675 4.12716 19.3727 3.82495 19 3.82495H15.175ZM17.3021 5.17495H6.69783L7.14235 18.5108C7.14819 18.686 7.29189 18.825 7.46717 18.825H16.5327C16.708 18.825 16.8517 18.686 16.8575 18.5108L17.3021 5.17495ZM8.98308 6.32516C9.35576 6.31585 9.66542 6.61041 9.67474 6.98308L9.92474 16.9831C9.93406 17.3558 9.6395 17.6654 9.26682 17.6747C8.89415 17.6841 8.58448 17.3895 8.57516 17.0168L8.32516 7.01682C8.31585 6.64415 8.61041 6.33448 8.98308 6.32516ZM15.0168 6.32516C15.3895 6.33448 15.6841 6.64415 15.6747 7.01682L15.4247 17.0168C15.4154 17.3895 15.1058 17.6841 14.7331 17.6747C14.3604 17.6654 14.0658 17.3558 14.0752 16.9831L14.3252 6.98308C14.3345 6.61041 14.6441 6.31585 15.0168 6.32516ZM12 6.32495C12.3727 6.32495 12.675 6.62716 12.675 6.99995V17C12.675 17.3727 12.3727 17.675 12 17.675C11.6272 17.675 11.325 17.3727 11.325 17V6.99995C11.325 6.62716 11.6272 6.32495 12 6.32495Z" fill="white"/>
</svg>
