<svg width="16" height="16" viewBox="0 0 16 16" fill="none" xmlns="http://www.w3.org/2000/svg">
<path fill-rule="evenodd" clip-rule="evenodd" d="M3.90002 3C3.40295 3 3 3.40294 3 3.89999V12.1C3 12.5971 3.40295 13 3.90002 13H7.88195C7.64443 12.7346 7.5 12.3842 7.5 12C7.5 11.3469 7.9174 10.7913 8.5 10.5854V9.5H6.5C6 9.5 5.5 9 5.5 8.5H8.5V5.5C9 5.5 9.5 6 9.5 6.5V8.5H10.5854C10.7913 7.9174 11.3469 7.5 12 7.5C12.3842 7.5 12.7346 7.64443 13 7.88195V3.89999C13 3.40294 12.597 3 12.1 3H3.90002ZM5.5 4H4.5V5H5.5V4ZM6.5 5H7.5V4H6.5V5ZM8.5 5H9.5V4H8.5V5ZM10.5 4V5H11.5V4H10.5ZM5.5 11H4.5V12H5.5V11ZM6.5 12H7V11H6.5V12Z" fill="white"/>
<path d="M12.1 13H10.1181C10.3556 12.7346 10.5 12.3842 10.5 12C10.5 11.3469 10.0826 10.7913 9.5 10.5854V9.5H10.5854C10.7913 10.0826 11.3469 10.5 12 10.5C12.3842 10.5 12.7346 10.3556 13 10.1181V12.1C13 12.5971 12.597 13 12.1 13Z" fill="white"/>
<path d="M11.5 9C11.5 8.72386 11.7239 8.5 12 8.5C12.2761 8.5 12.5 8.72386 12.5 9C12.5 9.27614 12.2761 9.5 12 9.5C11.7239 9.5 11.5 9.27614 11.5 9Z" fill="white"/>
<path d="M9 11.5C8.72386 11.5 8.5 11.7239 8.5 12C8.5 12.2761 8.72386 12.5 9 12.5C9.27614 12.5 9.5 12.2761 9.5 12C9.5 11.7239 9.27614 11.5 9 11.5Z" fill="white"/>
</svg>
