<svg width="24" height="24" viewBox="0 0 24 24" fill="none" xmlns="http://www.w3.org/2000/svg">
<path fill-rule="evenodd" clip-rule="evenodd" d="M5.5 4C4.67163 4 4 4.67157 4 5.5V18.5C4 19.3284 4.67163 20 5.5 20H13.1433C12.368 19.6675 11.825 18.8972 11.825 18.0002C11.825 17.0346 12.4542 16.216 13.325 15.932V14.6752H9.67505C8.92946 14.6752 8.32495 14.0708 8.32495 13.3252H13.325V8.3252C14.0705 8.3252 14.675 8.92972 14.675 9.67531V13.3252H15.9317C16.2157 12.4544 17.0344 11.8252 18 11.8252C18.8972 11.8252 19.6676 12.3685 20 13.1441V5.5C20 4.67157 19.3284 4 18.5 4H5.5ZM7.18745 5.8252H5.82495V7.1752H7.18745V5.8252ZM8.56245 7.1752H9.93745V5.8252H8.56245V7.1752ZM11.3125 7.1752H12.6875V5.8252H11.3125V7.1752ZM14.0625 7.1752H15.4375V5.8252H14.0625V7.1752ZM16.8125 5.8252V7.1752H18.175V5.8252H16.8125ZM7.18745 16.8252H5.82495V18.1752H7.18745V16.8252ZM8.56245 16.8252V18.1752H9.92495V16.8252H8.56245Z" fill="white"/>
<path d="M18.5 20H14.8566C15.6319 19.6675 16.175 18.8972 16.175 18.0002C16.175 17.0346 15.5457 16.216 14.675 15.932V14.6752H15.9317C16.2157 15.546 17.0344 16.1752 18 16.1752C18.8972 16.1752 19.6676 15.6319 20 14.8563V18.5C20 19.3284 19.3284 20 18.5 20Z" fill="white"/>
<path d="M17.9999 13.1753C17.5443 13.1753 17.1749 13.5447 17.1749 14.0003C17.1749 14.4559 17.5443 14.8253 17.9999 14.8253C18.4556 14.8253 18.8249 14.4559 18.8249 14.0003C18.8249 13.5447 18.4556 13.1753 17.9999 13.1753Z" fill="white"/>
<path d="M13.1749 18.0003C13.1749 17.5447 13.5443 17.1753 13.9999 17.1753C14.4556 17.1753 14.8249 17.5447 14.8249 18.0003C14.8249 18.4559 14.4556 18.8253 13.9999 18.8253C13.5443 18.8253 13.1749 18.4559 13.1749 18.0003Z" fill="white"/>
</svg>
