<svg width="16" height="16" viewBox="0 0 16 16" fill="none" xmlns="http://www.w3.org/2000/svg">
<path d="M6.75 5C6.75 6.24264 5.74264 7.25 4.5 7.25C3.25736 7.25 2.25 6.24264 2.25 5C2.25 3.75736 3.25736 2.75 4.5 2.75C5.74264 2.75 6.75 3.75736 6.75 5Z" fill="white"/>
<path d="M4.49976 7.99997C2.01447 7.99997 6.0997e-08 10.0454 6.0997e-08 12.5C-0.000134884 12.7761 0.223653 13 0.499756 13H5.94685C6.18613 13 6.34998 12.7393 6.34998 12.5C6.34998 11.3976 6.69633 10.3761 7.28616 9.53845C7.42415 9.34246 7.4099 9.06938 7.21953 8.92374C6.46407 8.34581 5.5217 7.99997 4.49976 7.99997Z" fill="white"/>
<path d="M11.4998 7.99997C9.01447 7.99997 7 10.0454 7 12.5C6.99987 12.7761 7.22365 13 7.49976 13H15.4998C15.7759 13 15.9998 12.7761 15.9998 12.5C15.9998 10.0454 13.985 7.99997 11.4998 7.99997Z" fill="white"/>
<path d="M11.5 7.25C12.7426 7.25 13.75 6.24264 13.75 5C13.75 3.75736 12.7426 2.75 11.5 2.75C10.2574 2.75 9.25 3.75736 9.25 5C9.25 6.24264 10.2574 7.25 11.5 7.25Z" fill="white"/>
</svg>
