<svg width="24" height="24" viewBox="0 0 24 24" fill="none" xmlns="http://www.w3.org/2000/svg">
<path fill-rule="evenodd" clip-rule="evenodd" d="M7.50049 5.6C6.45115 5.6 5.60049 6.45066 5.60049 7.5C5.60049 8.54934 6.45115 9.4 7.50049 9.4C8.54983 9.4 9.40049 8.54934 9.40049 7.5C9.40049 6.45066 8.54983 5.6 7.50049 5.6ZM4.25049 7.5C4.25049 5.70507 5.70556 4.25 7.50049 4.25C9.29541 4.25 10.7505 5.70507 10.7505 7.5C10.7505 9.29492 9.29541 10.75 7.50049 10.75C5.70556 10.75 4.25049 9.29492 4.25049 7.5ZM16.5005 5.6C15.4511 5.6 14.6005 6.45066 14.6005 7.5C14.6005 8.54934 15.4511 9.4 16.5005 9.4C17.5498 9.4 18.4005 8.54934 18.4005 7.5C18.4005 6.45066 17.5498 5.6 16.5005 5.6ZM13.2505 7.5C13.2505 5.70507 14.7056 4.25 16.5005 4.25C18.2954 4.25 19.7505 5.70507 19.7505 7.5C19.7505 9.29492 18.2954 10.75 16.5005 10.75C14.7056 10.75 13.2505 9.29492 13.2505 7.5ZM2.18484 17.825C2.36722 15.0486 4.67701 12.8531 7.49959 12.8531C8.34259 12.8531 9.13805 13.0484 9.8449 13.3957C10.1795 13.5601 10.584 13.4221 10.7484 13.0875C10.9128 12.7529 10.7748 12.3484 10.4402 12.184C9.5522 11.7477 8.55351 11.5031 7.49959 11.5031C3.81234 11.5031 0.823242 14.4922 0.823242 18.1794L0.823248 18.1822C0.825547 18.7312 1.27123 19.175 1.82021 19.175H8.17399C8.54679 19.175 8.84899 18.8728 8.84899 18.5C8.84899 18.1272 8.54679 17.825 8.17399 17.825H2.18484ZM11.1848 17.825H21.8143C21.6319 15.0486 19.3222 12.8531 16.4996 12.8531C13.677 12.8531 11.3672 15.0486 11.1848 17.825ZM21.8259 18.1822C21.8259 18.1813 21.8259 18.1803 21.8259 18.1794L21.8259 18.1822ZM9.82324 18.1794C9.82324 14.4922 12.8123 11.5031 16.4996 11.5031C20.1868 11.5031 23.1759 14.4922 23.1759 18.1794H22.5009L23.1759 18.1766C23.1759 18.1775 23.1759 18.1785 23.1759 18.1794C23.1767 18.7288 22.7315 19.175 22.1817 19.175H10.8202C10.2712 19.175 9.82555 18.7312 9.82325 18.1822L9.82324 18.1794Z" fill="white"/>
</svg>
