<svg width="16" height="16" viewBox="0 0 16 16" fill="none" xmlns="http://www.w3.org/2000/svg">
<path fill-rule="evenodd" clip-rule="evenodd" d="M4.50001 3.75C3.80965 3.75 3.25001 4.30964 3.25001 5C3.25001 5.69036 3.80965 6.25 4.50001 6.25C5.19036 6.25 5.75001 5.69036 5.75001 5C5.75001 4.30964 5.19036 3.75 4.50001 3.75ZM2.25001 5C2.25001 3.75736 3.25736 2.75 4.50001 2.75C5.74265 2.75 6.75001 3.75736 6.75001 5C6.75001 6.24264 5.74265 7.25 4.50001 7.25C3.25736 7.25 2.25001 6.24264 2.25001 5ZM11.5 3.75C10.8096 3.75 10.25 4.30964 10.25 5C10.25 5.69036 10.8096 6.25 11.5 6.25C12.1904 6.25 12.75 5.69036 12.75 5C12.75 4.30964 12.1904 3.75 11.5 3.75ZM9.25001 5C9.25001 3.75736 10.2574 2.75 11.5 2.75C12.7426 2.75 13.75 3.75736 13.75 5C13.75 6.24264 12.7426 7.25 11.5 7.25C10.2574 7.25 9.25001 6.24264 9.25001 5ZM1.03544 11.9999C1.27798 10.3039 2.73679 8.99994 4.50002 8.99994C5.27114 8.99994 5.98268 9.24873 6.56071 9.67054C6.78378 9.83332 7.09656 9.78445 7.25934 9.56138C7.42212 9.33832 7.37325 9.02553 7.15019 8.86275C6.40676 8.32024 5.49006 7.99994 4.50002 7.99994C2.05239 7.99994 0.0612897 9.95396 0.00140779 12.3873C-0.00701292 12.7295 0.269976 12.9999 0.600024 12.9999H5.84954C6.12568 12.9999 6.34954 12.7761 6.34954 12.4999C6.34954 12.2238 6.12568 11.9999 5.84954 11.9999H1.03544ZM8.03544 11.9999H14.9646C14.7221 10.3039 13.2633 8.99994 11.5 8.99994C9.73679 8.99994 8.27798 10.3039 8.03544 11.9999ZM7.00141 12.3873C7.06129 9.95396 9.05239 7.99994 11.5 7.99994C13.9477 7.99994 15.9388 9.95396 15.9986 12.3873C16.0071 12.7295 15.7301 12.9999 15.4 12.9999H7.60002C7.26998 12.9999 6.99299 12.7295 7.00141 12.3873Z" fill="white"/>
</svg>
