<svg width="24" height="24" viewBox="0 0 24 24" fill="none" xmlns="http://www.w3.org/2000/svg">
<path d="M10.7512 7.5C10.7512 9.29492 9.29614 10.75 7.50122 10.75C5.7063 10.75 4.25122 9.29492 4.25122 7.5C4.25122 5.70508 5.7063 4.25 7.50122 4.25C9.29614 4.25 10.7512 5.70508 10.7512 7.5Z" fill="white"/>
<path d="M1.00098 18.1876C1.00098 14.5977 3.91113 11.6876 7.50098 11.6876C8.56215 11.6876 9.56384 11.9419 10.4486 12.3928C10.8654 12.6053 10.9103 13.1575 10.6196 13.5242C9.60579 14.8032 9.00037 16.4206 9.00037 18.1794C9.00037 18.5695 8.73416 19.0001 8.34404 19.0001H1.81348C1.36475 19.0001 1.00098 18.6363 1.00098 18.1876Z" fill="white"/>
<path d="M16.5012 10.75C18.2961 10.75 19.7512 9.29492 19.7512 7.5C19.7512 5.70508 18.2961 4.25 16.5012 4.25C14.7063 4.25 13.2512 5.70508 13.2512 7.5C13.2512 9.29492 14.7063 10.75 16.5012 10.75Z" fill="white"/>
<path d="M16.501 11.6876C12.9111 11.6876 10.001 14.5977 10.001 18.1876C10.001 18.6363 10.3647 19.0001 10.8135 19.0001H22.1885C22.6372 19.0001 23.001 18.6363 23.001 18.1876C23.001 14.5977 20.0908 11.6876 16.501 11.6876Z" fill="white"/>
</svg>
