<svg width="24" height="24" viewBox="0 0 24 24" fill="none" xmlns="http://www.w3.org/2000/svg">
<path fill-rule="evenodd" clip-rule="evenodd" d="M10.0019 4.74775C9.7383 4.48415 9.31092 4.48415 9.04731 4.74775L4.54731 9.24775C4.28371 9.51136 4.28371 9.93874 4.54731 10.2023L9.04731 14.7023C9.31092 14.966 9.7383 14.966 10.0019 14.7023C10.2655 14.4387 10.2655 14.0114 10.0019 13.7478L6.6542 10.4H14.5246C16.6371 10.4 18.3496 12.1126 18.3496 14.225C18.3496 16.3375 16.6371 18.05 14.5246 18.05H8.02461C7.65182 18.05 7.34961 18.3523 7.34961 18.725C7.34961 19.0978 7.65182 19.4 8.02461 19.4H14.5246C17.3827 19.4 19.6996 17.0831 19.6996 14.225C19.6996 11.367 17.3827 9.05005 14.5246 9.05005H6.6542L10.0019 5.70235C10.2655 5.43874 10.2655 5.01136 10.0019 4.74775Z" fill="white"/>
</svg>
