<svg width="20" height="20" viewBox="0 0 20 20" fill="none" xmlns="http://www.w3.org/2000/svg">
<path fill-rule="evenodd" clip-rule="evenodd" d="M8.38886 3.86104C8.17407 3.64625 7.82583 3.64625 7.61104 3.86104L4.11104 7.36104C3.89625 7.57583 3.89625 7.92407 4.11104 8.13886L7.61104 11.6389C7.82583 11.8536 8.17407 11.8536 8.38886 11.6389C8.60365 11.4241 8.60365 11.0758 8.38886 10.861L5.82777 8.29995H11.5C13.4053 8.29995 14.95 9.84457 14.95 11.75C14.95 13.6553 13.4053 15.2 11.5 15.2H6.49995C6.19619 15.2 5.94995 15.4462 5.94995 15.75C5.94995 16.0537 6.19619 16.3 6.49995 16.3H11.5C14.0128 16.3 16.05 14.2628 16.05 11.75C16.05 9.23706 14.0128 7.19995 11.5 7.19995H5.82777L8.38886 4.63886C8.60365 4.42407 8.60365 4.07583 8.38886 3.86104Z" fill="white"/>
</svg>
