<svg width="16" height="16" viewBox="0 0 16 16" fill="none" xmlns="http://www.w3.org/2000/svg">
<path fill-rule="evenodd" clip-rule="evenodd" d="M6.85355 3.14645C6.65829 2.95118 6.34171 2.95118 6.14645 3.14645L3.14645 6.14645C2.95118 6.34171 2.95118 6.65829 3.14645 6.85355L6.14645 9.85355C6.34171 10.0488 6.65829 10.0488 6.85355 9.85355C7.04882 9.65829 7.04882 9.34171 6.85355 9.14645L4.70711 7H9.5C10.8807 7 12 8.11929 12 9.5C12 10.8807 10.8807 12 9.5 12H5.5C5.22386 12 5 12.2239 5 12.5C5 12.7761 5.22386 13 5.5 13H9.5C11.433 13 13 11.433 13 9.5C13 7.567 11.433 6 9.5 6H4.70711L6.85355 3.85355C7.04882 3.65829 7.04882 3.34171 6.85355 3.14645Z" fill="white"/>
</svg>
