<svg width="24" height="24" viewBox="0 0 24 24" fill="none" xmlns="http://www.w3.org/2000/svg">
<path fill-rule="evenodd" clip-rule="evenodd" d="M20.5 4C21.3284 4 22 4.67163 22 5.5V12.65H18.6047L15.9773 10.0226C15.7136 9.75903 15.2864 9.75903 15.0227 10.0226L9 16.0453L6.47729 13.5226C6.21362 13.259 5.78638 13.259 5.52271 13.5226L3.3501 15.6954V18.5C3.3501 18.5828 3.41724 18.65 3.5 18.65H11.6499V20H3.5C2.67163 20 2 19.3284 2 18.5V5.5C2 4.67163 2.67163 4 3.5 4H20.5ZM6 9.5C6 8.11926 7.11938 7 8.5 7C9.88062 7 11 8.11926 11 9.5C11 10.8807 9.88062 12 8.5 12C7.11938 12 6 10.8807 6 9.5Z" fill="white"/>
<path fill-rule="evenodd" clip-rule="evenodd" d="M13 15.5C13 14.6716 13.6716 14 14.5 14H22.5C23.3284 14 24 14.6716 24 15.5V21.5C24 22.3284 23.3284 23 22.5 23H14.5C13.6716 23 13 22.3284 13 21.5V15.5ZM20.3325 18.1835L17.4697 16.5382C17.2573 16.4248 17 16.5773 17 16.8165V20.1835C17 20.4226 17.2573 20.5751 17.4697 20.4618L20.3325 18.7401C20.5559 18.6207 20.5559 18.3028 20.3325 18.1835Z" fill="white"/>
</svg>
