<svg width="16" height="16" viewBox="0 0 16 16" fill="none" xmlns="http://www.w3.org/2000/svg">
<path fill-rule="evenodd" clip-rule="evenodd" d="M7.64645 2.64645C7.84171 2.45118 8.15829 2.45118 8.35355 2.64645L10.8536 5.14645C11.0488 5.34171 11.0488 5.65829 10.8536 5.85355C10.6583 6.04882 10.3417 6.04882 10.1464 5.85355L8.5 4.20711V9.5C8.5 9.77614 8.27614 10 8 10C7.72386 10 7.5 9.77614 7.5 9.5V4.20711L5.85355 5.85355C5.65829 6.04882 5.34171 6.04882 5.14645 5.85355C4.95118 5.65829 4.95118 5.34171 5.14645 5.14645L7.64645 2.64645ZM3 11C3.27614 11 3.5 11.2239 3.5 11.5V12.5H12.5V11.5C12.5 11.2239 12.7239 11 13 11C13.2761 11 13.5 11.2239 13.5 11.5V12.6C13.5 13.0971 13.0971 13.5 12.6 13.5H3.4C2.90294 13.5 2.5 13.0971 2.5 12.6V11.5C2.5 11.2239 2.72386 11 3 11Z" fill="white"/>
</svg>
