<svg width="16" height="16" viewBox="0 0 16 16" fill="none" xmlns="http://www.w3.org/2000/svg">
<path d="M8.35355 2.64645C8.15829 2.45118 7.84171 2.45118 7.64645 2.64645L5.14645 5.14645C4.95118 5.34171 4.95118 5.65829 5.14645 5.85355C5.34171 6.04882 5.65829 6.04882 5.85355 5.85355L7.5 4.20711V9.5C7.5 9.77614 7.72386 10 8 10C8.27614 10 8.5 9.77614 8.5 9.5V4.20711L10.1464 5.85355C10.3417 6.04882 10.6583 6.04882 10.8536 5.85355C11.0488 5.65829 11.0488 5.34171 10.8536 5.14645L8.35355 2.64645Z" fill="white"/>
<path d="M3 11.8C3 11.3582 3.35817 11 3.8 11H12.2C12.6418 11 13 11.3582 13 11.8V12.2C13 12.6418 12.6418 13 12.2 13H3.8C3.35817 13 3 12.6418 3 12.2V11.8Z" fill="white"/>
</svg>
