<svg width="24" height="24" viewBox="0 0 24 24" fill="none" xmlns="http://www.w3.org/2000/svg">
<path fill-rule="evenodd" clip-rule="evenodd" d="M11.5227 4.02265C11.7863 3.75905 12.2136 3.75905 12.4772 4.02265L16.4772 8.02265C16.7409 8.28626 16.7409 8.71364 16.4772 8.97725C16.2136 9.24085 15.7863 9.24085 15.5227 8.97725L12.675 6.12955V15C12.675 15.3727 12.3727 15.675 12 15.675C11.6272 15.675 11.325 15.3727 11.325 15V6.12955L8.47725 8.97725C8.21364 9.24085 7.78626 9.24085 7.52265 8.97725C7.25905 8.71364 7.25905 8.28626 7.52265 8.02265L11.5227 4.02265ZM4.49995 16.825C4.87274 16.825 5.17495 17.1272 5.17495 17.5V18.5C5.17495 18.6794 5.32046 18.825 5.49995 18.825H18.5C18.6794 18.825 18.825 18.6794 18.825 18.5V17.5C18.825 17.1272 19.1272 16.825 19.5 16.825C19.8727 16.825 20.175 17.1272 20.175 17.5V18.5C20.175 19.425 19.425 20.175 18.5 20.175H5.49995C4.57487 20.175 3.82495 19.425 3.82495 18.5V17.5C3.82495 17.1272 4.12716 16.825 4.49995 16.825Z" fill="white"/>
</svg>
