<svg width="16" height="16" viewBox="0 0 16 16" fill="none" xmlns="http://www.w3.org/2000/svg">
<path fill-rule="evenodd" clip-rule="evenodd" d="M6.5 4.5C5.39543 4.5 4.5 5.39543 4.5 6.5C4.5 7.60457 5.39543 8.5 6.5 8.5C7.60457 8.5 8.5 7.60457 8.5 6.5C8.5 5.39543 7.60457 4.5 6.5 4.5ZM5.5 6.5C5.5 5.94772 5.94772 5.5 6.5 5.5C7.05229 5.5 7.5 5.94772 7.5 6.5C7.5 7.05229 7.05229 7.5 6.5 7.5C5.94772 7.5 5.5 7.05229 5.5 6.5Z" fill="white"/>
<path d="M13.7142 12.3285L11.8029 11.1818C11.6696 11.1018 11.5 11.1978 11.5 11.3533V13.6468C11.5 13.8022 11.6696 13.8983 11.8029 13.8183L13.7142 12.6715C13.8436 12.5938 13.8436 12.4062 13.7142 12.3285Z" fill="white"/>
<path fill-rule="evenodd" clip-rule="evenodd" d="M14.5 3.4V9.5H15.1C15.5971 9.5 16 9.90295 16 10.4V14.6C16 15.097 15.5971 15.5 15.1 15.5H9.9C9.40295 15.5 9 15.097 9 14.6L9 13.5H2.4C1.90294 13.5 1.5 13.0971 1.5 12.6V3.4C1.5 2.90294 1.90294 2.5 2.4 2.5H13.6C14.0971 2.5 14.5 2.90294 14.5 3.4ZM2.5 10.7929L2.5 3.5L13.5 3.5V9.5H13.2071L10.8536 7.14645C10.7598 7.05268 10.6326 7 10.5 7C10.3674 7 10.2402 7.05268 10.1464 7.14645L6.5 10.7929L4.85355 9.14645C4.75979 9.05268 4.63261 9 4.5 9C4.36739 9 4.24022 9.05268 4.14645 9.14645L2.5 10.7929ZM9 10.4L9 12.5H2.5V12.2071L4.5 10.2071L6.14645 11.8536C6.24022 11.9473 6.36739 12 6.5 12C6.63261 12 6.75979 11.9473 6.85355 11.8536L10.5 8.20711L11.7929 9.5H9.9C9.40294 9.5 9 9.90294 9 10.4ZM10 14.5V10.5H15V14.5H10Z" fill="white"/>
</svg>
