<svg width="20" height="20" viewBox="0 0 20 20" fill="none" xmlns="http://www.w3.org/2000/svg">
<path fill-rule="evenodd" clip-rule="evenodd" d="M9.99996 3.44995C10.1458 3.44995 10.2857 3.5079 10.3889 3.61104L13.8889 7.11104C14.1037 7.32583 14.1037 7.67407 13.8889 7.88886C13.6741 8.10365 13.3258 8.10365 13.1111 7.88886L10.55 5.32777V12.5C10.55 12.8037 10.3037 13.05 9.99996 13.05C9.69621 13.05 9.44996 12.8037 9.44996 12.5V5.32777L6.88887 7.88886C6.67408 8.10365 6.32584 8.10365 6.11105 7.88886C5.89627 7.67407 5.89627 7.32583 6.11105 7.11104L9.61105 3.61104C9.7142 3.5079 9.85409 3.44995 9.99996 3.44995ZM3.99995 13.95C4.30371 13.95 4.54995 14.1962 4.54995 14.5V15.2C4.54995 15.338 4.66188 15.45 4.79995 15.45H15.2C15.338 15.45 15.45 15.338 15.45 15.2V14.5C15.45 14.1962 15.6962 13.95 16 13.95C16.3037 13.95 16.55 14.1962 16.55 14.5V15.2C16.55 15.9455 15.9455 16.55 15.2 16.55H4.79995C4.05437 16.55 3.44995 15.9455 3.44995 15.2V14.5C3.44995 14.1962 3.69619 13.95 3.99995 13.95Z" fill="white"/>
</svg>
