<svg width="24" height="24" viewBox="0 0 24 24" fill="none" xmlns="http://www.w3.org/2000/svg">
<path d="M12.4773 4.02265C12.2137 3.75905 11.7863 3.75905 11.5227 4.02265L7.5227 8.02265C7.2591 8.28626 7.2591 8.71364 7.5227 8.97725C7.78631 9.24085 8.21369 9.24085 8.4773 8.97725L11.325 6.12955V15C11.325 15.3727 11.6272 15.675 12 15.675C12.3728 15.675 12.675 15.3727 12.675 15V6.12955L15.5227 8.97725C15.7863 9.24085 16.2137 9.24085 16.4773 8.97725C16.7409 8.71364 16.7409 8.28626 16.4773 8.02265L12.4773 4.02265Z" fill="white"/>
<path d="M4 18.2C4 17.5372 4.53726 17 5.2 17H18.8C19.4627 17 20 17.5372 20 18.2V18.8C20 19.4627 19.4627 20 18.8 20H5.2C4.53726 20 4 19.4627 4 18.8V18.2Z" fill="white"/>
</svg>
