<svg width="16" height="16" viewBox="0 0 16 16" fill="none" xmlns="http://www.w3.org/2000/svg">
<path fill-rule="evenodd" clip-rule="evenodd" d="M14 3.90002C14 3.40295 13.5972 3 13.1001 3H2.8999C2.40283 3 2 3.40295 2 3.90002V12.1C2 12.597 2.40283 13 2.8999 13H8V12H3V10.2928L4.14648 9.14642C4.3418 8.95117 4.6582 8.95117 4.85352 9.14642L6.5 10.7929L10.1465 7.14642C10.3418 6.95117 10.6582 6.95117 10.8535 7.14642L12.207 8.5H14V3.90002ZM6.5 5C5.67163 5 5 5.67157 5 6.5C5 7.32843 5.67163 8 6.5 8C7.32837 8 8 7.32843 8 6.5C8 5.67157 7.32837 5 6.5 5Z" fill="white"/>
<path fill-rule="evenodd" clip-rule="evenodd" d="M9.8999 9.5C9.40283 9.5 9 9.90295 9 10.4V14.6C9 15.097 9.40283 15.4999 9.8999 15.4999H15.1001C15.5972 15.4999 16 15.097 16 14.6V10.4C16 9.90295 15.5972 9.5 15.1001 9.5H9.8999ZM13.7141 12.3286L11.803 11.1818C11.6697 11.1018 11.5 11.1978 11.5 11.3533V13.6468C11.5 13.7253 11.5432 13.7888 11.6033 13.8219C11.6621 13.8544 11.7371 13.8578 11.803 13.8183L13.7141 12.6715C13.8438 12.5939 13.8438 12.4062 13.7141 12.3286Z" fill="white"/>
</svg>
