<svg width="24" height="24" viewBox="0 0 24 24" fill="none" xmlns="http://www.w3.org/2000/svg">
<g clip-path="url(#clip0_41_18685)">
<path fill-rule="evenodd" clip-rule="evenodd" d="M3.50001 5.17495C3.32052 5.17495 3.17501 5.32046 3.17501 5.49995L3.17501 15.8704L5.52272 13.5227C5.6493 13.3961 5.82099 13.325 6.00001 13.325C6.17903 13.325 6.35072 13.3961 6.47731 13.5227L9.00001 16.0454L15.0227 10.0227C15.1493 9.89607 15.321 9.82495 15.5 9.82495C15.679 9.82495 15.8507 9.89607 15.9773 10.0227L19.903 13.9483H20.825V5.49995C20.825 5.32046 20.6795 5.17495 20.5 5.17495L3.50001 5.17495ZM22.175 13.9483V5.49995C22.175 4.57488 21.4251 3.82495 20.5 3.82495L3.50001 3.82495C2.57494 3.82495 1.82501 4.57487 1.82501 5.49995L1.82501 18.5C1.82501 19.425 2.57494 20.175 3.50001 20.175H12.9793V21.4074C12.9793 22.3154 13.7154 23.0515 14.6235 23.0515H22.3767C23.2847 23.0515 24.0209 22.3154 24.0209 21.4074V15.5925C24.0209 14.6844 23.2847 13.9483 22.3767 13.9483H22.175ZM12.9793 18.825V15.5925C12.9793 14.6844 13.7154 13.9483 14.6235 13.9483H17.9938L15.5 11.4545L9.47731 17.4772C9.35072 17.6038 9.17903 17.675 9.00001 17.675C8.82099 17.675 8.6493 17.6038 8.52272 17.4772L6.00001 14.9545L3.17501 17.7795V18.5C3.17501 18.6794 3.32052 18.825 3.50001 18.825L12.9793 18.825ZM8.50001 7.67495C7.49209 7.67495 6.67501 8.49203 6.67501 9.49995C6.67501 10.5079 7.49209 11.325 8.50001 11.325C9.50793 11.325 10.325 10.5079 10.325 9.49995C10.325 8.49203 9.50793 7.67495 8.50001 7.67495ZM5.32501 9.49995C5.32501 7.74645 6.74651 6.32495 8.50001 6.32495C10.2535 6.32495 11.675 7.74645 11.675 9.49995C11.675 11.2535 10.2535 12.675 8.50001 12.675C6.74651 12.675 5.32501 11.2535 5.32501 9.49995ZM14.6235 15.2983C14.461 15.2983 14.3293 15.43 14.3293 15.5925V21.4074C14.3293 21.5698 14.461 21.7015 14.6235 21.7015H22.3767C22.5392 21.7015 22.6709 21.5698 22.6709 21.4074V15.5925C22.6709 15.43 22.5392 15.2983 22.3767 15.2983H14.6235ZM16.9138 16.1646C17.1234 16.0443 17.3814 16.0451 17.5901 16.1669L20.5901 17.9169C20.7975 18.0379 20.925 18.2599 20.925 18.5C20.925 18.74 20.7975 18.962 20.5901 19.083L17.5901 20.833C17.3814 20.9548 17.1234 20.9557 16.9138 20.8353C16.7042 20.7149 16.575 20.4916 16.575 20.25V16.75C16.575 16.5083 16.7042 16.285 16.9138 16.1646ZM17.925 17.9252V19.0748L18.9104 18.5L17.925 17.9252Z" fill="white"/>
</g>
<defs>
<clipPath id="clip0_41_18685">
<rect width="24" height="24" fill="white"/>
</clipPath>
</defs>
</svg>
