<svg width="20" height="20" viewBox="0 0 20 20" fill="none" xmlns="http://www.w3.org/2000/svg">
<path d="M10.3889 3.61104C10.2858 3.5079 10.1459 3.44995 10 3.44995C9.85413 3.44995 9.71424 3.5079 9.61109 3.61104L6.11109 7.11104C5.8963 7.32583 5.8963 7.67407 6.11109 7.88886C6.32588 8.10365 6.67412 8.10365 6.88891 7.88886L9.45 5.32777V12.5C9.45 12.8037 9.69624 13.05 10 13.05C10.3038 13.05 10.55 12.8037 10.55 12.5V5.32777L13.1111 7.88886C13.3259 8.10365 13.6741 8.10365 13.8889 7.88886C14.1037 7.67407 14.1037 7.32583 13.8889 7.11104L10.3889 3.61104Z" fill="white"/>
<path d="M4 14.84C4 14.376 4.37608 14 4.84 14H15.16C15.6239 14 16 14.376 16 14.84V15.16C16 15.6239 15.6239 16 15.16 16H4.84C4.37608 16 4 15.6239 4 15.16V14.84Z" fill="white"/>
</svg>
