<svg width="24" height="24" viewBox="0 0 24 24" fill="none" xmlns="http://www.w3.org/2000/svg">
<path fill-rule="evenodd" clip-rule="evenodd" d="M7.32974 5.17482C7.19974 4.87148 6.90147 4.6748 6.57144 4.6748C6.24142 4.6748 5.94315 4.87148 5.81315 5.17482L0.241722 18.1748C0.0622382 18.5936 0.256238 19.0786 0.675033 19.2581C1.09383 19.4376 1.57883 19.2436 1.75831 18.8248L3.00598 15.9136C3.08477 15.7297 3.26554 15.6105 3.46555 15.6105H9.67734C9.87735 15.6105 10.0581 15.7297 10.1369 15.9136L11.3846 18.8248C11.5641 19.2436 12.0491 19.4376 12.4679 19.2581C12.8867 19.0786 13.0807 18.5936 12.9012 18.1748L7.32974 5.17482ZM9.0908 13.4726C9.18978 13.7036 9.02037 13.9605 8.7691 13.9605H4.37379C4.12252 13.9605 3.95311 13.7036 4.05209 13.4726L6.57144 7.59414L9.0908 13.4726Z" fill="white"/>
<path d="M13.825 11.9998C13.825 10.4945 14.152 9.04353 14.8344 7.99669C15.4905 6.99025 16.4888 6.3248 18 6.3248C19.0509 6.3248 19.8168 6.63581 20.3893 7.1197C20.9741 7.61409 21.4119 8.33657 21.7063 9.23791C21.8478 9.67103 22.3136 9.90745 22.7467 9.76598C23.1798 9.62451 23.4163 9.15871 23.2748 8.7256C22.915 7.62395 22.3368 6.60546 21.4545 5.85962C20.5598 5.10329 19.4076 4.6748 18 4.6748C15.8933 4.6748 14.3916 5.65451 13.4522 7.09563C12.5391 8.49636 12.175 10.2953 12.175 11.9998C12.175 13.7043 12.5391 15.5032 13.4522 16.904C14.3916 18.3451 15.8933 19.3248 18 19.3248C19.9988 19.3248 21.4143 18.4411 22.3135 17.1002C23.1816 15.8056 23.5391 14.1357 23.6117 12.5372C23.6219 12.3122 23.5396 12.0927 23.384 11.9298C23.2283 11.7669 23.0128 11.6748 22.7875 11.6748H18.5C18.0444 11.6748 17.675 12.0442 17.675 12.4998C17.675 12.9554 18.0444 13.3248 18.5 13.3248H21.4954C21.7058 13.3248 21.8692 13.5092 21.835 13.7168C21.6784 14.6655 21.3876 15.5182 20.9431 16.1812C20.3406 17.0797 19.4315 17.6748 18 17.6748C16.4888 17.6748 15.4905 17.0094 14.8344 16.0029C14.152 14.9561 13.825 13.5051 13.825 11.9998Z" fill="white"/>
</svg>
