<svg width="16" height="16" viewBox="0 0 16 16" fill="none" xmlns="http://www.w3.org/2000/svg">
<path fill-rule="evenodd" clip-rule="evenodd" d="M4.9229 3.43376C4.82993 3.21683 4.61662 3.07617 4.38061 3.07617C4.14459 3.07617 3.93128 3.21683 3.83831 3.43376L0.124028 12.1004C-0.00433022 12.3999 0.134409 12.7468 0.433911 12.8751C0.733412 13.0035 1.08026 12.8648 1.20862 12.5653L2.03867 10.6285C2.08594 10.5182 2.1944 10.4466 2.31441 10.4466H6.44681C6.56682 10.4466 6.67528 10.5182 6.72255 10.6285L7.5526 12.5653C7.68096 12.8648 8.02781 13.0035 8.32731 12.8751C8.62681 12.7468 8.76555 12.3999 8.63719 12.1004L4.9229 3.43376ZM5.98956 8.91817C6.06026 9.08314 5.93926 9.26665 5.75978 9.26665H3.00144C2.82196 9.26665 2.70095 9.08314 2.77165 8.91817L4.38061 5.16394L5.98956 8.91817Z" fill="white"/>
<path d="M9.25642 7.99951C9.25642 7.00083 9.47351 6.04192 9.92285 5.3526C10.3534 4.69218 11.0067 4.25617 11.9997 4.25617C12.6916 4.25617 13.1929 4.46066 13.5667 4.77665C13.9494 5.10014 14.2379 5.57463 14.4326 6.17066C14.5338 6.48041 14.8669 6.64948 15.1766 6.54831C15.4864 6.44714 15.6554 6.11402 15.5543 5.80428C15.3128 5.06499 14.9239 4.37882 14.3285 3.8755C13.7243 3.36467 12.9468 3.07617 11.9997 3.07617C10.5808 3.07617 9.5675 3.73692 8.93434 4.70821C8.32001 5.65061 8.07642 6.85837 8.07642 7.99951C8.07642 9.14064 8.32001 10.3484 8.93434 11.2908C9.5675 12.2621 10.5808 12.9228 11.9997 12.9228C13.346 12.9228 14.302 12.3267 14.9086 11.422C15.493 10.5505 15.7322 9.42898 15.7808 8.35961C15.7881 8.19866 15.7293 8.04171 15.618 7.92522C15.5066 7.80873 15.3525 7.74284 15.1914 7.74284H12.3331C12.0072 7.74284 11.7431 8.00699 11.7431 8.33284C11.7431 8.65869 12.0072 8.92284 12.3331 8.92284H14.2638C14.4147 8.92284 14.5317 9.05571 14.5055 9.20435C14.3994 9.80579 14.2106 10.3442 13.9285 10.7649C13.5341 11.3531 12.9403 11.7428 11.9997 11.7428C11.0067 11.7428 10.3534 11.3068 9.92285 10.6464C9.47351 9.95709 9.25642 8.99818 9.25642 7.99951Z" fill="white"/>
</svg>
