<svg width="16" height="16" viewBox="0 0 16 16" fill="none" xmlns="http://www.w3.org/2000/svg">
<path fill-rule="evenodd" clip-rule="evenodd" d="M1 3.89999C1 3.40294 1.40295 3 1.90002 3H14.1C14.597 3 15 3.40294 15 3.89999V12.1C15 12.5971 14.597 13 14.1 13H1.90002C1.40295 13 1 12.5971 1 12.1V3.89999ZM6.00001 7C6.00001 5.89543 6.89544 5 8.00001 5C9.10458 5 10 5.89543 10 7C10 8.10457 9.10458 9 8.00001 9C6.89544 9 6.00001 8.10457 6.00001 7ZM8.00001 9.5C9.6787 9.5 11.1159 10.5341 11.7093 12H4.29077C4.88416 10.5341 6.32132 9.5 8.00001 9.5Z" fill="white"/>
</svg>
