<svg width="16" height="16" viewBox="0 0 16 16" fill="none" xmlns="http://www.w3.org/2000/svg">
<path fill-rule="evenodd" clip-rule="evenodd" d="M3 3.9C3 3.40294 3.40294 3 3.9 3H12.1C12.5971 3 13 3.40294 13 3.9V12.1C13 12.5971 12.5971 13 12.1 13H3.9C3.40294 13 3 12.5971 3 12.1V3.9ZM4 4V12H4.29091C4.88421 10.5344 6.32074 9.5 8 9.5C9.67926 9.5 11.1158 10.5344 11.7091 12H12V4H4ZM10.5988 12C10.0799 11.1031 9.10996 10.5 8 10.5C6.89004 10.5 5.92006 11.1031 5.40119 12H10.5988ZM8 6C7.44771 6 7 6.44772 7 7C7 7.55228 7.44771 8 8 8C8.55228 8 9 7.55228 9 7C9 6.44772 8.55228 6 8 6ZM6 7C6 5.89543 6.89543 5 8 5C9.10457 5 10 5.89543 10 7C10 8.10457 9.10457 9 8 9C6.89543 9 6 8.10457 6 7Z" fill="white"/>
</svg>
