<svg width="40" height="40" viewBox="0 0 40 40" fill="none" xmlns="http://www.w3.org/2000/svg">
<path d="M29.9814 31.1972C28.5243 27.2433 24.6056 24.4118 20 24.4118C15.3944 24.4118 11.4757 27.2433 10.0186 31.1972M29.9814 31.1972C33.0609 28.4501 35 24.4515 35 20C35 11.7157 28.2843 5 20 5C11.7157 5 5 11.7157 5 20C5 24.4515 6.93908 28.4501 10.0186 31.1972M29.9814 31.1972C27.3298 33.5625 23.8328 35 20 35C16.1672 35 12.6702 33.5625 10.0186 31.1972M24.5001 16.4706C24.5001 18.9559 22.4854 20.9706 20.0001 20.9706C17.5149 20.9706 15.5001 18.9559 15.5001 16.4706C15.5001 13.9853 17.5149 11.9706 20.0001 11.9706C22.4854 11.9706 24.5001 13.9853 24.5001 16.4706Z" stroke="white" stroke-width="2"/>
</svg>
