<svg width="16" height="16" viewBox="0 0 16 16" fill="none" xmlns="http://www.w3.org/2000/svg">
<path d="M7.99994 9C9.10451 9 9.99994 8.10457 9.99994 7C9.99994 5.89543 9.10451 5 7.99994 5C6.89537 5 5.99994 5.89543 5.99994 7C5.99994 8.10457 6.89537 9 7.99994 9Z" fill="white"/>
<path fill-rule="evenodd" clip-rule="evenodd" d="M14 8C14 11.3137 11.3137 14 8 14C4.68629 14 2 11.3137 2 8C2 4.68629 4.68629 2 8 2C11.3137 2 14 4.68629 14 8ZM4.49685 11.5676C5.17834 10.3348 6.49166 9.5 7.99997 9.5C9.5083 9.5 10.8216 10.3348 11.5031 11.5677C12.427 10.6604 13 9.39713 13 8C13 5.23858 10.7614 3 8 3C5.23858 3 3 5.23858 3 8C3 9.39711 3.57302 10.6604 4.49685 11.5676Z" fill="white"/>
</svg>
