<svg width="40" height="40" viewBox="0 0 40 40" fill="none" xmlns="http://www.w3.org/2000/svg">
<path d="M20 22C23.0376 22 25.5 19.5376 25.5 16.5C25.5 13.4624 23.0376 11 20 11C16.9624 11 14.5 13.4624 14.5 16.5C14.5 19.5376 16.9624 22 20 22Z" fill="white"/>
<path fill-rule="evenodd" clip-rule="evenodd" d="M20 4C11.1633 4 4 11.1635 4 20C4 28.8365 11.1633 36 20 36C28.8367 36 36 28.8365 36 20C36 11.1635 28.8367 4 20 4ZM6 20C6 12.268 12.2681 6 20 6C27.7319 6 34 12.268 34 20C34 23.8181 32.4717 27.2793 29.9932 29.805C28.0127 26.3373 24.2793 24 20 24C15.7207 24 11.9873 26.3373 10.0068 29.805C7.52832 27.2793 6 23.8181 6 20Z" fill="white"/>
</svg>
