<svg width="16" height="16" viewBox="0 0 16 16" fill="none" xmlns="http://www.w3.org/2000/svg">
<path fill-rule="evenodd" clip-rule="evenodd" d="M14 8C14 11.3137 11.3137 14 8 14C4.68629 14 2 11.3137 2 8C2 4.68629 4.68629 2 8 2C11.3137 2 14 4.68629 14 8ZM5.99995 7C5.99995 5.89543 6.89538 5 7.99995 5C9.10452 5 9.99995 5.89543 9.99995 7C9.99995 8.10457 9.10452 9 7.99995 9C6.89538 9 5.99995 8.10457 5.99995 7ZM7.99995 9.5C6.49163 9.5 5.1783 10.3348 4.49683 11.5676C5.39897 12.4536 6.63565 13 7.99995 13C9.36425 13 10.6009 12.4536 11.5031 11.5676C10.8216 10.3348 9.50827 9.5 7.99995 9.5Z" fill="white"/>
</svg>
