<svg width="16" height="16" viewBox="0 0 16 16" fill="none" xmlns="http://www.w3.org/2000/svg">
<path fill-rule="evenodd" clip-rule="evenodd" d="M8 3C5.23858 3 3 5.23858 3 8C3 9.39694 3.57248 10.66 4.49696 11.5678C5.17821 10.3353 6.49109 9.5 8 9.5C9.50891 9.5 10.8218 10.3353 11.503 11.5678C12.4275 10.66 13 9.39694 13 8C13 5.23858 10.7614 3 8 3ZM10.7069 12.2047C10.2232 11.1959 9.19236 10.5 8 10.5C6.80764 10.5 5.77675 11.1959 5.29312 12.2047C6.07317 12.708 7.00194 13 8 13C8.99806 13 9.92683 12.708 10.7069 12.2047ZM2 8C2 4.68629 4.68629 2 8 2C11.3137 2 14 4.68629 14 8C14 9.95397 13.0654 11.6898 11.621 12.7845C10.6147 13.5473 9.35949 14 8 14C6.64051 14 5.38533 13.5473 4.37898 12.7845C2.93456 11.6898 2 9.95397 2 8ZM8 6C7.44772 6 7 6.44771 7 7C7 7.55228 7.44772 8 8 8C8.55228 8 9 7.55228 9 7C9 6.44772 8.55228 6 8 6ZM6 7C6 5.89543 6.89543 5 8 5C9.10457 5 10 5.89543 10 7C10 8.10457 9.10457 9 8 9C6.89543 9 6 8.10457 6 7Z" fill="white"/>
</svg>
