<svg width="24" height="24" viewBox="0 0 24 24" fill="none" xmlns="http://www.w3.org/2000/svg">
<path fill-rule="evenodd" clip-rule="evenodd" d="M12 4.17495C7.67832 4.17495 4.17495 7.67832 4.17495 12C4.17495 14.0106 4.93265 15.8436 6.1795 17.2301C7.32332 15.1983 9.5006 13.8249 12 13.8249C14.4993 13.8249 16.6766 15.1983 17.8204 17.2301C19.0673 15.8436 19.825 14.0106 19.825 12C19.825 7.67832 16.3216 4.17495 12 4.17495ZM16.7962 18.1833C15.9342 16.402 14.1096 15.1749 12 15.1749C9.89026 15.1749 8.06573 16.402 7.20374 18.1833C8.52864 19.2126 10.1921 19.825 12 19.825C13.8078 19.825 15.4713 19.2126 16.7962 18.1833ZM2.82495 12C2.82495 6.93274 6.93274 2.82495 12 2.82495C17.0672 2.82495 21.1749 6.93274 21.1749 12C21.1749 14.7441 19.9694 17.2075 18.0613 18.8878C16.4453 20.311 14.3227 21.1749 12 21.1749C9.67723 21.1749 7.55465 20.311 5.93862 18.8878C4.03049 17.2075 2.82495 14.7441 2.82495 12ZM12 8.1249C10.9645 8.1249 10.125 8.96437 10.125 9.9999C10.125 11.0354 10.9645 11.8749 12 11.8749C13.0355 11.8749 13.875 11.0354 13.875 9.9999C13.875 8.96437 13.0355 8.1249 12 8.1249ZM8.77502 9.9999C8.77502 8.21878 10.2189 6.7749 12 6.7749C13.7811 6.7749 15.225 8.21878 15.225 9.9999C15.225 11.781 13.7811 13.2249 12 13.2249C10.2189 13.2249 8.77502 11.781 8.77502 9.9999Z" fill="white"/>
</svg>
