<svg width="24" height="24" viewBox="0 0 24 24" fill="none" xmlns="http://www.w3.org/2000/svg">
<path fill-rule="evenodd" clip-rule="evenodd" d="M4 5.5C4 4.67157 4.67163 4 5.5 4H18.5C19.3284 4 20 4.67157 20 5.5V18.5C20 19.3284 19.3284 20 18.5 20H5.5C4.67163 20 4 19.3284 4 18.5V5.5ZM12.0001 6.7749C10.219 6.7749 8.77505 8.21878 8.77505 9.9999C8.77505 11.781 10.219 13.2249 12.0001 13.2249C13.7811 13.2249 15.2251 11.781 15.2251 9.9999C15.2251 8.21878 13.7811 6.7749 12.0001 6.7749ZM12 14.2101C14.8299 14.2101 17.2234 16.079 18.0134 18.65H5.98657C6.77656 16.079 9.17001 14.2101 12 14.2101Z" fill="white"/>
</svg>
