<svg width="24" height="24" viewBox="0 0 24 24" fill="none" xmlns="http://www.w3.org/2000/svg">
<path d="M12.0001 13.2222C13.7796 13.2222 15.2223 11.7796 15.2223 9.99999C15.2223 8.22041 13.7796 6.77777 12.0001 6.77777C10.2205 6.77777 8.77783 8.22041 8.77783 9.99999C8.77783 11.7796 10.2205 13.2222 12.0001 13.2222Z" fill="white"/>
<path fill-rule="evenodd" clip-rule="evenodd" d="M21 12C21 16.9706 16.9706 21 12 21C7.02944 21 3 16.9706 3 12C3 7.02944 7.02944 3 12 3C16.9706 3 21 7.02944 21 12ZM6.5085 17.326C7.6613 15.4636 9.6899 14.2276 12 14.2276C14.3101 14.2276 16.3387 15.4636 17.4915 17.326C18.8275 15.9487 19.65 14.0704 19.65 12C19.65 7.77502 16.225 4.35 12 4.35C7.77502 4.35 4.35 7.77502 4.35 12C4.35 14.0704 5.17247 15.9487 6.5085 17.326Z" fill="white"/>
</svg>
