<svg width="16" height="16" viewBox="0 0 16 16" fill="none" xmlns="http://www.w3.org/2000/svg">
<path fill-rule="evenodd" clip-rule="evenodd" d="M1 3.9C1 3.40294 1.40294 3 1.9 3H14.1C14.5971 3 15 3.40294 15 3.9V12.1C15 12.5971 14.5971 13 14.1 13H1.9C1.40294 13 1 12.5971 1 12.1V3.9ZM2 4V12H4.29091C4.88421 10.5344 6.32074 9.5 8 9.5C9.67926 9.5 11.1158 10.5344 11.7091 12H14V4H2ZM10.5988 12C10.0799 11.1031 9.10996 10.5 8 10.5C6.89004 10.5 5.92006 11.1031 5.40119 12H10.5988ZM8 6C7.44772 6 7 6.44772 7 7C7 7.55228 7.44772 8 8 8C8.55228 8 9 7.55228 9 7C9 6.44772 8.55228 6 8 6ZM6 7C6 5.89543 6.89543 5 8 5C9.10457 5 10 5.89543 10 7C10 8.10457 9.10457 9 8 9C6.89543 9 6 8.10457 6 7Z" fill="white"/>
</svg>
