<svg width="24" height="24" viewBox="0 0 24 24" fill="none" xmlns="http://www.w3.org/2000/svg">
<path fill-rule="evenodd" clip-rule="evenodd" d="M0.824951 5.49995C0.824951 4.57487 1.57487 3.82495 2.49995 3.82495H21.5C22.4251 3.82495 23.175 4.57487 23.175 5.49995V18.5C23.175 19.4255 22.4241 20.175 21.4995 20.175H2.49995C1.57487 20.175 0.824951 19.425 0.824951 18.5V5.49995ZM2.49995 5.17495C2.32046 5.17495 2.17495 5.32046 2.17495 5.49995V18.5C2.17495 18.6794 2.32046 18.825 2.49995 18.825H5.53702C6.28044 15.9491 8.89155 13.825 12 13.825C15.1083 13.825 17.7195 15.9491 18.4629 18.825H21.4995C21.6794 18.825 21.825 18.679 21.825 18.5V5.49995C21.825 5.32046 21.6795 5.17495 21.5 5.17495H2.49995ZM17.0564 18.825C16.3545 16.7047 14.3553 15.175 12 15.175C9.64457 15.175 7.64543 16.7047 6.94354 18.825H17.0564ZM12 8.12495C10.9645 8.12495 10.125 8.96442 10.125 9.99995C10.125 11.0355 10.9645 11.8749 12 11.8749C13.0355 11.8749 13.875 11.0355 13.875 9.99995C13.875 8.96442 13.0355 8.12495 12 8.12495ZM8.77502 9.99995C8.77502 8.21883 10.2189 6.77495 12 6.77495C13.7811 6.77495 15.225 8.21883 15.225 9.99995C15.225 11.7811 13.7811 13.2249 12 13.2249C10.2189 13.2249 8.77502 11.7811 8.77502 9.99995Z" fill="white"/>
</svg>
