<svg width="24" height="24" viewBox="0 0 24 24" fill="none" xmlns="http://www.w3.org/2000/svg">
<path fill-rule="evenodd" clip-rule="evenodd" d="M21 12C21 16.9706 16.9706 21 12 21C7.02944 21 3 16.9706 3 12C3 7.02944 7.02944 3 12 3C16.9706 3 21 7.02944 21 12ZM12.0001 6.7749C10.219 6.7749 8.77507 8.21878 8.77507 9.9999C8.77507 11.781 10.219 13.2249 12.0001 13.2249C13.7812 13.2249 15.2251 11.781 15.2251 9.9999C15.2251 8.21878 13.7812 6.7749 12.0001 6.7749ZM12 19.65C14.1352 19.65 16.0661 18.7752 17.4539 17.3645C16.3677 15.4792 14.3321 14.2101 12 14.2101C9.66796 14.2101 7.63234 15.4792 6.54614 17.3645C7.93389 18.7752 9.86481 19.65 12 19.65Z" fill="white"/>
</svg>
