<svg width="24" height="24" viewBox="0 0 24 24" fill="none" xmlns="http://www.w3.org/2000/svg">
<path fill-rule="evenodd" clip-rule="evenodd" d="M12 4.17495C7.67832 4.17495 4.17495 7.67832 4.17495 12C4.17495 13.9892 4.91657 15.8045 6.13978 17.1856C7.27631 15.176 9.48129 13.825 12 13.825C14.5186 13.825 16.7236 15.176 17.8601 17.1856C19.0833 15.8045 19.825 13.9892 19.825 12C19.825 7.67832 16.3216 4.17495 12 4.17495ZM16.8407 18.1484C16.0022 16.4021 14.1579 15.175 12 15.175C9.84204 15.175 7.99766 16.4021 7.15924 18.1484C8.49131 19.1988 10.1718 19.825 12 19.825C13.8281 19.825 15.5086 19.1988 16.8407 18.1484ZM2.82495 12C2.82495 6.93274 6.93274 2.82495 12 2.82495C17.0672 2.82495 21.1749 6.93274 21.1749 12C21.1749 14.7229 19.988 17.1694 18.1054 18.8487C16.484 20.2951 14.3439 21.1749 12 21.1749C9.65601 21.1749 7.51594 20.2951 5.89452 18.8487C4.01194 17.1694 2.82495 14.7229 2.82495 12ZM12 8.12495C10.9645 8.12495 10.125 8.96442 10.125 9.99995C10.125 11.0355 10.9645 11.8749 12 11.8749C13.0355 11.8749 13.875 11.0355 13.875 9.99995C13.875 8.96442 13.0355 8.12495 12 8.12495ZM8.77502 9.99995C8.77502 8.21883 10.2189 6.77495 12 6.77495C13.7811 6.77495 15.225 8.21883 15.225 9.99995C15.225 11.7811 13.7811 13.2249 12 13.2249C10.2189 13.2249 8.77502 11.7811 8.77502 9.99995Z" fill="white"/>
</svg>
