<svg width="16" height="16" viewBox="0 0 16 16" fill="none" xmlns="http://www.w3.org/2000/svg">
<path fill-rule="evenodd" clip-rule="evenodd" d="M3 3.89999C3 3.40294 3.40295 3 3.90002 3H12.1C12.597 3 13 3.40294 13 3.89999V12.1C13 12.5971 12.597 13 12.1 13H3.90002C3.40295 13 3 12.5971 3 12.1V3.89999ZM6.00001 7C6.00001 5.89543 6.89544 5 8.00001 5C9.10458 5 10 5.89543 10 7C10 8.10457 9.10458 9 8.00001 9C6.89544 9 6.00001 8.10457 6.00001 7ZM8.00001 9.5C9.6787 9.5 11.1159 10.5341 11.7093 12H4.29077C4.88416 10.5341 6.32132 9.5 8.00001 9.5Z" fill="white"/>
</svg>
