<svg width="24" height="24" viewBox="0 0 24 24" fill="none" xmlns="http://www.w3.org/2000/svg">
<path fill-rule="evenodd" clip-rule="evenodd" d="M3.82495 5.49995C3.82495 4.57487 4.57487 3.82495 5.49995 3.82495H18.5C19.4251 3.82495 20.175 4.57487 20.175 5.49995V18.5C20.175 19.4255 19.4241 20.175 18.4995 20.175H5.49995C4.57487 20.175 3.82495 19.425 3.82495 18.5V5.49995ZM5.49995 5.17495C5.32046 5.17495 5.17495 5.32046 5.17495 5.49995V18.5C5.17495 18.6794 5.32046 18.825 5.49995 18.825H5.53701C6.28041 15.949 8.89154 13.8249 12 13.8249C15.1084 13.8249 17.7195 15.949 18.4629 18.825H18.4995C18.6794 18.825 18.825 18.679 18.825 18.5V5.49995C18.825 5.32046 18.6795 5.17495 18.5 5.17495H5.49995ZM17.0564 18.825C16.3545 16.7047 14.3554 15.1749 12 15.1749C9.64455 15.1749 7.6454 16.7047 6.94352 18.825H17.0564ZM12 8.1249C10.9645 8.1249 10.125 8.96437 10.125 9.9999C10.125 11.0354 10.9645 11.8749 12 11.8749C13.0355 11.8749 13.875 11.0354 13.875 9.9999C13.875 8.96437 13.0355 8.1249 12 8.1249ZM8.77502 9.9999C8.77502 8.21878 10.2189 6.7749 12 6.7749C13.7811 6.7749 15.225 8.21878 15.225 9.9999C15.225 11.781 13.7811 13.2249 12 13.2249C10.2189 13.2249 8.77502 11.781 8.77502 9.9999Z" fill="white"/>
</svg>
