<svg width="24" height="24" viewBox="0 0 24 24" fill="none" xmlns="http://www.w3.org/2000/svg">
<path fill-rule="evenodd" clip-rule="evenodd" d="M1.8252 7.5002C1.8252 6.02283 3.02283 4.8252 4.5002 4.8252H14.5002C15.9776 4.8252 17.1752 6.02283 17.1752 7.5002V8.70616L20.7743 6.54856C20.7742 6.5486 20.7744 6.54851 20.7743 6.54856C21.3908 6.17887 22.1752 6.62283 22.1752 7.34174V16.6586C22.1752 17.3775 21.3912 17.8215 20.7747 17.4521C20.7746 17.452 20.7748 17.4521 20.7747 17.4521L17.1752 15.2958V16.5002C17.1752 17.9776 15.9776 19.1752 14.5002 19.1752H4.5002C3.02283 19.1752 1.8252 17.9776 1.8252 16.5002V7.5002ZM17.1752 13.7221L20.8252 15.9086V8.09204L17.1752 10.2802V13.7221ZM4.5002 6.1752C3.76842 6.1752 3.1752 6.76842 3.1752 7.5002V16.5002C3.1752 17.232 3.76842 17.8252 4.5002 17.8252H14.5002C15.232 17.8252 15.8252 17.232 15.8252 16.5002V7.5002C15.8252 6.76842 15.232 6.1752 14.5002 6.1752H4.5002Z" fill="white"/>
</svg>
