<svg width="24" height="24" viewBox="0 0 24 24" fill="none" xmlns="http://www.w3.org/2000/svg">
<path d="M20.8641 17.3185L18.8355 16.1013C18.5343 15.9206 18.35 15.5951 18.35 15.2438V8.75619C18.35 8.40493 18.5343 8.07942 18.8355 7.8987L20.8641 6.68152C21.364 6.38159 22 6.74167 22 7.32465V16.6754C22 17.2583 21.364 17.6184 20.8641 17.3185Z" fill="white"/>
<path d="M17 17V7C17 5.89543 16.1046 5 15 5H4C2.89543 5 2 5.89543 2 7V17C2 18.1046 2.89543 19 4 19H15C16.1046 19 17 18.1046 17 17Z" fill="white"/>
</svg>
