<svg width="16" height="16" viewBox="0 0 16 16" fill="none" xmlns="http://www.w3.org/2000/svg">
<path fill-rule="evenodd" clip-rule="evenodd" d="M2 5.5C2 4.67157 2.67157 4 3.5 4H9.5C10.3284 4 11 4.67157 11 5.5V6.25448L13.233 4.95188C13.573 4.75357 14 4.99881 14 5.39241V10.6076C14 11.0012 13.573 11.2464 13.233 11.0481L11 9.74551V10.5C11 11.3284 10.3284 12 9.5 12H3.5C2.67157 12 2 11.3284 2 10.5V5.5ZM11 8.58781L13 9.75447V6.24552L11 7.41219V8.58781ZM3.5 5C3.22386 5 3 5.22386 3 5.5V10.5C3 10.7761 3.22386 11 3.5 11H9.5C9.77614 11 10 10.7761 10 10.5V5.5C10 5.22386 9.77614 5 9.5 5H3.5Z" fill="white"/>
</svg>
