<svg width="16" height="16" viewBox="0 0 16 16" fill="none" xmlns="http://www.w3.org/2000/svg">
<path d="M13.3233 11.1052L12.2977 10.507C12.1133 10.3995 12 10.2021 12 9.98871V6.01129C12 5.79789 12.1133 5.60055 12.2977 5.49302L13.3233 4.89477C13.6233 4.71977 14 4.93616 14 5.28347V10.7165C14 11.0638 13.6233 11.2802 13.3233 11.1052Z" fill="white"/>
<path d="M11 11V5C11 4.44772 10.5523 4 10 4H3C2.44772 4 2 4.44772 2 5V11C2 11.5523 2.44772 12 3 12H10C10.5523 12 11 11.5523 11 11Z" fill="white"/>
</svg>
