<svg width="16" height="16" viewBox="0 0 16 16" fill="none" xmlns="http://www.w3.org/2000/svg">
<path fill-rule="evenodd" clip-rule="evenodd" d="M1.5 2.4C1.5 1.90294 1.90294 1.5 2.4 1.5H10.6C11.0971 1.5 11.5 1.90294 11.5 2.4V4.5H13.6C14.0971 4.5 14.5 4.90294 14.5 5.4V13.6C14.5 14.0971 14.0971 14.5 13.6 14.5H5.4C4.90294 14.5 4.5 14.0971 4.5 13.6V11.5H2.4C1.90294 11.5 1.5 11.0971 1.5 10.6V2.4ZM4.5 10.5V5.4C4.5 4.90294 4.90295 4.5 5.4 4.5H10.5V2.5H2.5V10.5H4.5ZM5.5 5.5V13.5H13.5V5.5H5.5Z" fill="white"/>
</svg>
