<svg width="24" height="24" viewBox="0 0 24 24" fill="none" xmlns="http://www.w3.org/2000/svg">
<path fill-rule="evenodd" clip-rule="evenodd" d="M7 17H4.5C3.67163 17 3 16.3284 3 15.5V4.5C3 3.67157 3.67163 3 4.5 3H15.5C16.3284 3 17 3.67157 17 4.5V7H19.5C20.3284 7 21 7.67157 21 8.5V19.5C21 20.3284 20.3284 21 19.5 21H8.5C7.67163 21 7 20.3284 7 19.5V17ZM4.5 4.35001H15.5C15.5829 4.35001 15.65 4.41714 15.65 4.5V7H8.5C7.67163 7 7 7.67157 7 8.5V15.65H4.5C4.43616 15.65 4.38171 15.6102 4.35999 15.5541C4.35767 15.548 4.35571 15.5417 4.35413 15.5352C4.35132 15.524 4.34998 15.5121 4.34998 15.5V4.5C4.34998 4.44879 4.37561 4.40359 4.41479 4.37653C4.43896 4.3598 4.46838 4.35001 4.5 4.35001Z" fill="white"/>
</svg>
