<svg width="24" height="24" viewBox="0 0 24 24" fill="none" xmlns="http://www.w3.org/2000/svg">
<path fill-rule="evenodd" clip-rule="evenodd" d="M9.1373 4H6.77451L2 8.77451V11.1373L9.1373 4ZM2 13.0465V15.3799L13.3799 4H11.0465L2 13.0465ZM15.2891 4L2 17.2891V18.5C2 18.8178 2.09884 19.1125 2.26746 19.3551L17.6226 4H15.2891ZM19.5318 4L3.53177 20H5.86522L21.4911 4.37409C21.2268 4.14125 20.8799 4 20.5 4H19.5318ZM22 5.77441L7.77441 20H10.1079L14.825 15.2829V14.5C14.825 13.575 15.575 12.825 16.5 12.825H17.2828L22 8.10786V5.77441ZM22 10.017L19.192 12.825H22V10.017ZM14.825 17.1921L12.017 20H14.825V17.1921ZM2 6.86532L4.86532 4H3.5C2.67163 4 2 4.67157 2 5.5V6.86532ZM22 14.175L16.175 20V14.5C16.175 14.3205 16.3206 14.175 16.5 14.175H22Z" fill="white"/>
</svg>
