<svg width="16" height="16" viewBox="0 0 16 16" fill="none" xmlns="http://www.w3.org/2000/svg">
<path fill-rule="evenodd" clip-rule="evenodd" d="M1.5498 3.50039C1.5498 3.03095 1.93036 2.65039 2.3998 2.65039L13.5998 2.65042C13.7122 2.65042 13.8205 2.67246 13.9199 2.71288C14.2299 2.83895 14.4498 3.14347 14.4498 3.50042V9.18681L10.1862 13.4504H2.3998C1.93036 13.4504 1.5498 13.0699 1.5498 12.6004V3.50039ZM2.4498 3.55039L4.20806 3.55039L2.4498 5.30865V3.55039ZM2.4498 6.58144V8.13708L7.03648 3.5504L5.48085 3.5504L2.4498 6.58144ZM8.30927 3.5504L2.4498 9.40987V10.9655L9.8649 3.55041L8.30927 3.5504ZM11.1377 3.55041L2.4498 12.2383V12.5504H3.69332L12.6933 3.55041L11.1377 3.55041ZM13.5498 3.96672V5.52236L10.5217 8.55042H10.3998C9.93036 8.55042 9.5498 8.93097 9.5498 9.40041V9.52235L6.52174 12.5504H4.96611L13.5498 3.96672ZM7.79454 12.5504H9.5498V10.7951L7.79454 12.5504ZM10.4498 11.914V9.45042H12.9134L10.4498 11.914ZM13.5498 8.55042H11.7945L13.5498 6.79515V8.55042Z" fill="white"/>
</svg>
