<svg width="24" height="24" viewBox="0 0 24 24" fill="none" xmlns="http://www.w3.org/2000/svg">
<path fill-rule="evenodd" clip-rule="evenodd" d="M1.825 5.49995C1.825 4.57487 2.57492 3.82495 3.5 3.82495H20.5C20.6617 3.82495 20.8192 3.84806 20.9687 3.89159C21.665 4.09431 22.175 4.7367 22.175 5.49995V13.7795L15.7796 20.175H3.5C2.61653 20.175 1.89334 19.4914 1.82954 18.6238C1.82652 18.5828 1.825 18.5415 1.825 18.5V5.49995ZM3.5 5.17495C3.3205 5.17495 3.175 5.32046 3.175 5.49995V8.46219L6.46224 5.17495H3.5ZM8.37142 5.17495L3.175 10.3714V12.7048L10.7049 5.17495H8.37142ZM12.6141 5.17495L3.175 14.614V16.9475L14.9475 5.17495H12.6141ZM16.8567 5.17495L3.28659 18.7451C3.34373 18.7948 3.41841 18.825 3.5 18.825H5.54016L19.1902 5.17495H16.8567ZM20.8216 5.45272L7.44935 18.825H9.7828L20.825 7.78275V5.49995C20.825 5.48393 20.8238 5.46816 20.8216 5.45272ZM20.825 9.69194L17.692 12.825H20.825V9.69194ZM19.8704 14.175H16.5C16.3205 14.175 16.175 14.3205 16.175 14.5V17.8704L19.8704 14.175ZM14.825 18.825V15.6919L11.692 18.825H14.825Z" fill="white"/>
</svg>
