<svg width="16" height="16" viewBox="0 0 16 16" fill="none" xmlns="http://www.w3.org/2000/svg">
<path fill-rule="evenodd" clip-rule="evenodd" d="M4.02567 3H2.8999C2.40283 3 2 3.40295 2 3.90002V5.02567L4.02567 3ZM2 6.43988L5.43988 3H6.85409L2 7.85409V6.43988ZM2 9.26831V10.6825L9.68252 3H8.26831L2 9.26831ZM11.0967 3L2 12.0967V12.1C2 12.4815 2.23731 12.8076 2.5724 12.9386L12.5109 3H11.0967ZM13.6979 3.22725L3.92516 13H5.33937L9 9.33937V8.90002C9 8.40295 9.40283 8 9.8999 8H10.3394L14 4.33937V3.90002C14 3.63243 13.8833 3.39211 13.6979 3.22725ZM14 5.75359L11.7536 8H14V5.75359ZM9 10.7536L6.75359 13H9V10.7536ZM14 9L10 13V9H14Z" fill="white"/>
</svg>
