<svg width="16" height="16" viewBox="0 0 16 16" fill="none" xmlns="http://www.w3.org/2000/svg">
<path d="M7.00026 2.16699C7.00026 1.89085 6.77641 1.66699 6.50026 1.66699C6.22412 1.66699 6.00026 1.89085 6.00026 2.16699V3.00033H5.16693C4.89079 3.00033 4.66693 3.22418 4.66693 3.50033C4.66693 3.77647 4.89079 4.00033 5.16693 4.00033H6.00026V4.83366C6.00026 5.1098 6.22412 5.33366 6.50026 5.33366C6.77641 5.33366 7.00026 5.1098 7.00026 4.83366V4.00033H7.8336C8.10974 4.00033 8.3336 3.77647 8.3336 3.50033C8.3336 3.22418 8.10974 3.00033 7.8336 3.00033H7.00026V2.16699Z" fill="white"/>
<path d="M13.0002 2.50037C13.0002 2.22422 12.7763 2.00037 12.5002 2.00037C12.224 2.00037 12.0002 2.22422 12.0002 2.50037V3.00037H11.5002C11.224 3.00037 11.0002 3.22422 11.0002 3.50037C11.0002 3.77651 11.224 4.00037 11.5002 4.00037H12.0002V4.50037C12.0002 4.77651 12.224 5.00037 12.5002 5.00037C12.7763 5.00037 13.0002 4.77651 13.0002 4.50037V4.00037H13.5002C13.7763 4.00037 14.0002 3.77651 14.0002 3.50037C14.0002 3.22422 13.7763 3.00037 13.5002 3.00037H13.0002V2.50037Z" fill="white"/>
<path d="M10.4918 5.1182C10.0362 4.66259 9.29752 4.66259 8.8419 5.1182L7.66686 6.29325L9.7073 8.33368L10.8823 7.15864C11.338 6.70303 11.338 5.96433 10.8823 5.50872L10.4918 5.1182Z" fill="white"/>
<path d="M2.50856 13.8825C2.96417 14.3381 3.70288 14.3381 4.15849 13.8825L9.00019 9.04079L6.95976 7.00035L2.11807 11.8421C1.66247 12.2977 1.66246 13.0364 2.11806 13.492L2.50856 13.8825Z" fill="white"/>
<path d="M12.5002 7.33374C12.7764 7.33374 13.0002 7.5576 13.0002 7.83374V8.00041H13.1669C13.443 8.00041 13.6669 8.22426 13.6669 8.50041C13.6669 8.77655 13.443 9.00041 13.1669 9.00041H13.0002V9.16707C13.0002 9.44322 12.7764 9.66707 12.5002 9.66707C12.2241 9.66707 12.0002 9.44322 12.0002 9.16707V9.00041H11.8336C11.5574 9.00041 11.3336 8.77655 11.3336 8.50041C11.3336 8.22426 11.5574 8.00041 11.8336 8.00041H12.0002V7.83374C12.0002 7.5576 12.2241 7.33374 12.5002 7.33374Z" fill="white"/>
</svg>
