<svg width="24" height="24" viewBox="0 0 24 24" fill="none" xmlns="http://www.w3.org/2000/svg">
<path fill-rule="evenodd" clip-rule="evenodd" d="M10.5 2.82495C10.8728 2.82495 11.175 3.12716 11.175 3.49995V4.82495H12.5C12.8728 4.82495 13.175 5.12716 13.175 5.49995C13.175 5.87274 12.8728 6.17495 12.5 6.17495H11.175V7.49995C11.175 7.87274 10.8728 8.17495 10.5 8.17495C10.1273 8.17495 9.82504 7.87274 9.82504 7.49995V6.17495H8.50004C8.12725 6.17495 7.82504 5.87274 7.82504 5.49995C7.82504 5.12716 8.12725 4.82495 8.50004 4.82495H9.82504V3.49995C9.82504 3.12716 10.1273 2.82495 10.5 2.82495ZM18.5 3.32495C18.8728 3.32495 19.175 3.62716 19.175 3.99995V4.82495H20C20.3728 4.82495 20.675 5.12716 20.675 5.49995C20.675 5.87274 20.3728 6.17495 20 6.17495H19.175V6.99995C19.175 7.37274 18.8728 7.67495 18.5 7.67495C18.1273 7.67495 17.825 7.37274 17.825 6.99995V6.17495H17C16.6273 6.17495 16.325 5.87274 16.325 5.49995C16.325 5.12716 16.6273 4.82495 17 4.82495H17.825V3.99995C17.825 3.62716 18.1273 3.32495 18.5 3.32495ZM13.8156 7.22976C14.4698 6.57563 15.5303 6.57563 16.1844 7.22976L16.7702 7.81555C17.4244 8.46968 17.4244 9.53023 16.7702 10.1844L6.18445 20.7701C5.53032 21.4243 4.46977 21.4243 3.81564 20.7701L3.22985 20.1844C2.57573 19.5302 2.57573 18.4697 3.22985 17.8155L13.8156 7.22976ZM15.2299 8.18436C15.1029 8.05744 14.8972 8.05743 14.7702 8.18436L12.9546 9.99995L14 11.0454L15.8156 9.22976C15.9426 9.10284 15.9426 8.89706 15.8156 8.77014L15.2299 8.18436ZM13.0455 12L12 10.9545L4.18445 18.7701C4.05753 18.8971 4.05753 19.1028 4.18445 19.2298L4.77023 19.8155C4.89716 19.9425 5.10293 19.9425 5.22985 19.8155L13.0455 12ZM18.5 10.825C18.8728 10.825 19.175 11.1272 19.175 11.5V11.825H19.5C19.8728 11.825 20.175 12.1272 20.175 12.5C20.175 12.8727 19.8728 13.175 19.5 13.175H19.175V13.5C19.175 13.8727 18.8728 14.175 18.5 14.175C18.1273 14.175 17.825 13.8727 17.825 13.5V13.175H17.5C17.1273 13.175 16.825 12.8727 16.825 12.5C16.825 12.1272 17.1273 11.825 17.5 11.825H17.825V11.5C17.825 11.1272 18.1273 10.825 18.5 10.825Z" fill="white"/>
</svg>
