<svg width="24" height="24" viewBox="0 0 24 24" fill="none" xmlns="http://www.w3.org/2000/svg">
<path d="M11.1751 3.5002C11.1751 3.1274 10.8729 2.8252 10.5001 2.8252C10.1273 2.8252 9.82507 3.1274 9.82507 3.5002V4.8252H8.50007C8.12728 4.8252 7.82507 5.1274 7.82507 5.5002C7.82507 5.87299 8.12728 6.1752 8.50007 6.1752H9.82507V7.5002C9.82507 7.87299 10.1273 8.1752 10.5001 8.1752C10.8729 8.1752 11.1751 7.87299 11.1751 7.5002V6.1752H12.5001C12.8729 6.1752 13.1751 5.87299 13.1751 5.5002C13.1751 5.1274 12.8729 4.8252 12.5001 4.8252H11.1751V3.5002Z" fill="white"/>
<path d="M19.1751 4.0002C19.1751 3.6274 18.8729 3.3252 18.5001 3.3252C18.1273 3.3252 17.8251 3.6274 17.8251 4.0002V4.8252H17.0001C16.6273 4.8252 16.3251 5.1274 16.3251 5.5002C16.3251 5.87299 16.6273 6.1752 17.0001 6.1752H17.8251V7.0002C17.8251 7.37299 18.1273 7.6752 18.5001 7.6752C18.8729 7.6752 19.1751 7.37299 19.1751 7.0002V6.1752H20.0001C20.3729 6.1752 20.6751 5.87299 20.6751 5.5002C20.6751 5.1274 20.3729 4.8252 20.0001 4.8252H19.1751V4.0002Z" fill="white"/>
<path d="M13.8157 7.2301C14.4698 6.57597 15.5304 6.57597 16.1845 7.2301L16.7703 7.81589C17.4244 8.47001 17.4244 9.53056 16.7703 10.1847L14.9546 12.0002L12.0001 9.04574L13.8157 7.2301Z" fill="white"/>
<path d="M11.0454 10.0002L14.0001 12.9549L6.18101 20.774C5.52883 21.4261 4.47144 21.4261 3.81927 20.774L3.22643 20.1811C2.57426 19.5289 2.57426 18.4716 3.22643 17.8194L11.0454 10.0002Z" fill="white"/>
<path d="M18.5001 10.8252C18.8729 10.8252 19.1751 11.1274 19.1751 11.5002V11.8252H19.5001C19.8729 11.8252 20.1751 12.1274 20.1751 12.5002C20.1751 12.873 19.8729 13.1752 19.5001 13.1752H19.1751V13.5002C19.1751 13.873 18.8729 14.1752 18.5001 14.1752C18.1273 14.1752 17.8251 13.873 17.8251 13.5002V13.1752H17.5001C17.1273 13.1752 16.8251 12.873 16.8251 12.5002C16.8251 12.1274 17.1273 11.8252 17.5001 11.8252H17.8251V11.5002C17.8251 11.1274 18.1273 10.8252 18.5001 10.8252Z" fill="white"/>
</svg>
