<svg width="16" height="16" viewBox="0 0 16 16" fill="none" xmlns="http://www.w3.org/2000/svg">
<path fill-rule="evenodd" clip-rule="evenodd" d="M6.50023 1.66699C6.77638 1.66699 7.00023 1.89085 7.00023 2.16699V3.00033H7.83357C8.10971 3.00033 8.33357 3.22418 8.33357 3.50033C8.33357 3.77647 8.10971 4.00033 7.83357 4.00033H7.00023V4.83366C7.00023 5.1098 6.77638 5.33366 6.50023 5.33366C6.22409 5.33366 6.00023 5.1098 6.00023 4.83366V4.00033H5.1669C4.89076 4.00033 4.6669 3.77647 4.6669 3.50033C4.6669 3.22418 4.89076 3.00033 5.1669 3.00033H6.00023V2.16699C6.00023 1.89085 6.22409 1.66699 6.50023 1.66699ZM12.5002 2.00037C12.7763 2.00037 13.0002 2.22422 13.0002 2.50037V3.00037H13.5002C13.7763 3.00037 14.0002 3.22422 14.0002 3.50037C14.0002 3.77651 13.7763 4.00037 13.5002 4.00037H13.0002V4.50037C13.0002 4.77651 12.7763 5.00037 12.5002 5.00037C12.2241 5.00037 12.0002 4.77651 12.0002 4.50037V4.00037H11.5002C11.2241 4.00037 11.0002 3.77651 11.0002 3.50037C11.0002 3.22422 11.2241 3.00037 11.5002 3.00037H12.0002V2.50037C12.0002 2.22422 12.2241 2.00037 12.5002 2.00037ZM8.8419 5.11813C9.29752 4.66252 10.0362 4.66252 10.4918 5.11813L10.8823 5.50866C11.338 5.96427 11.338 6.70296 10.8823 7.15858L4.15849 13.8824C3.70288 14.338 2.96417 14.338 2.50856 13.8824L2.11806 13.4919C1.66246 13.0363 1.66247 12.2976 2.11807 11.842L8.8419 5.11813ZM7.66686 7.70739L2.82518 12.5491C2.7601 12.6142 2.7601 12.7197 2.82518 12.7848L3.21568 13.1753C3.28077 13.2404 3.3863 13.2404 3.45139 13.1753L8.29309 8.33362L7.66686 7.70739ZM9.00019 7.62651L8.37397 7.00028L9.54901 5.82524C9.6141 5.76015 9.71962 5.76015 9.78471 5.82524L10.1752 6.21577C10.2403 6.28085 10.2403 6.38638 10.1752 6.45147L9.00019 7.62651ZM12.5002 7.3337C12.7763 7.3337 13.0002 7.55756 13.0002 7.8337V8.00037H13.1669C13.443 8.00037 13.6669 8.22423 13.6669 8.50037C13.6669 8.77651 13.443 9.00037 13.1669 9.00037H13.0002V9.16704C13.0002 9.44318 12.7763 9.66704 12.5002 9.66704C12.224 9.66704 12.0002 9.44318 12.0002 9.16704V9.00037H11.8335C11.5574 9.00037 11.3335 8.77651 11.3335 8.50037C11.3335 8.22423 11.5574 8.00037 11.8335 8.00037H12.0002V7.8337C12.0002 7.55756 12.224 7.3337 12.5002 7.3337Z" fill="white"/>
</svg>
