<svg width="16" height="16" viewBox="0 0 16 16" fill="none" xmlns="http://www.w3.org/2000/svg">
<g clip-path="url(#clip0_41_17881)">
<path fill-rule="evenodd" clip-rule="evenodd" d="M4 2.5C2.89543 2.5 2 3.39543 2 4.5V11.5C2 12.6046 2.89543 13.5 4 13.5H5V15.5C5 15.694 5.11223 15.8705 5.28792 15.9528C5.46361 16.0351 5.67105 16.0083 5.82009 15.8841L8.68102 13.5H12C13.1046 13.5 14 12.6046 14 11.5V4.5C14 3.39543 13.1046 2.5 12 2.5H4ZM7.39329 5.58808C7.37394 5.23976 7.65117 4.9467 8.00002 4.9467C8.34887 4.9467 8.6261 5.23976 8.60675 5.58808L8.44932 8.42167C8.43608 8.66013 8.23885 8.84671 8.00002 8.84671C7.76119 8.84671 7.56396 8.66013 7.55071 8.42167L7.39329 5.58808ZM8.66659 10.3967C8.66659 10.7649 8.36811 11.0634 7.99992 11.0634C7.63173 11.0634 7.33325 10.7649 7.33325 10.3967C7.33325 10.0285 7.63173 9.73003 7.99992 9.73003C8.36811 9.73003 8.66659 10.0285 8.66659 10.3967Z" fill="white"/>
</g>
<defs>
<clipPath id="clip0_41_17881">
<rect width="16" height="16" fill="white"/>
</clipPath>
</defs>
</svg>
