<svg width="24" height="24" viewBox="0 0 24 24" fill="none" xmlns="http://www.w3.org/2000/svg">
<path d="M11.0898 8.28701C11.0608 7.76453 11.4766 7.32495 12 7.32495C12.5232 7.32495 12.939 7.76453 12.9099 8.28701L12.6738 12.5374C12.6541 12.8951 12.3582 13.175 12 13.175C11.6416 13.175 11.3457 12.8951 11.3259 12.5374L11.0898 8.28701Z" fill="white"/>
<path d="M13 15.4999C13 16.0522 12.5522 16.4999 12 16.4999C11.4478 16.4999 11 16.0522 11 15.4999C11 14.9477 11.4478 14.4999 12 14.4999C12.5522 14.4999 13 14.9477 13 15.4999Z" fill="white"/>
<path fill-rule="evenodd" clip-rule="evenodd" d="M6.5002 3.82495C4.47055 3.82495 2.8252 5.4703 2.8252 7.49995V16.5C2.8252 18.5296 4.47055 20.175 6.5002 20.175H7.8252V23C7.8252 23.2578 7.97204 23.493 8.20363 23.6063C8.43522 23.7196 8.71111 23.691 8.91461 23.5328L13.2318 20.175H17.5002C19.5298 20.175 21.1752 18.5296 21.1752 16.5V7.49995C21.1752 5.4703 19.5298 3.82495 17.5002 3.82495H6.5002ZM4.1752 7.49995C4.1752 6.21589 5.21613 5.17495 6.5002 5.17495H17.5002C18.7843 5.17495 19.8252 6.21589 19.8252 7.49995V16.5C19.8252 17.784 18.7843 18.825 17.5002 18.825H13.0002C12.8501 18.825 12.7043 18.875 12.5858 18.9671L9.1752 21.6198V19.5C9.1752 19.1272 8.87299 18.825 8.5002 18.825H6.5002C5.21613 18.825 4.1752 17.784 4.1752 16.5V7.49995Z" fill="white"/>
</svg>
