<svg width="16" height="16" viewBox="0 0 16 16" fill="none" xmlns="http://www.w3.org/2000/svg">
<path d="M7.39304 6.19163C7.37369 5.84332 7.65092 5.55026 7.99977 5.55026C8.34863 5.55026 8.62585 5.84332 8.6065 6.19163L8.44908 9.02522C8.43583 9.26368 8.2386 9.45026 7.99977 9.45026C7.76094 9.45026 7.56371 9.26368 7.55047 9.02522L7.39304 6.19163Z" fill="white"/>
<path d="M8.66634 11.0002C8.66634 11.3684 8.36786 11.6669 7.99967 11.6669C7.63148 11.6669 7.33301 11.3684 7.33301 11.0002C7.33301 10.6321 7.63148 10.3336 7.99967 10.3336C8.36786 10.3336 8.66634 10.6321 8.66634 11.0002Z" fill="white"/>
<path fill-rule="evenodd" clip-rule="evenodd" d="M9.24112 3.15026C8.68943 2.1947 7.31021 2.19471 6.75852 3.15026L2.02425 11.3503C1.47256 12.3058 2.16217 13.5003 3.26555 13.5003H12.7341C13.8375 13.5003 14.5271 12.3058 13.9754 11.3503L9.24112 3.15026ZM7.62454 3.65026C7.79133 3.36137 8.20831 3.36137 8.3751 3.65026L13.1094 11.8503C13.2762 12.1391 13.0677 12.5003 12.7341 12.5003H3.26555C2.93197 12.5003 2.72348 12.1391 2.89027 11.8503L7.62454 3.65026Z" fill="white"/>
</svg>
