<svg width="24" height="24" viewBox="0 0 24 24" fill="none" xmlns="http://www.w3.org/2000/svg">
<path fill-rule="evenodd" clip-rule="evenodd" d="M10.3549 4.85039C11.0862 3.58373 12.9145 3.58372 13.6458 4.85039L20.7472 17.1504C21.4785 18.4171 20.5644 20.0004 19.1017 20.0004H4.89893C3.43631 20.0004 2.52217 18.4171 3.25348 17.1504L10.3549 4.85039ZM11.0901 9.28745C11.061 8.76498 11.4769 8.32539 12.0001 8.32539C12.5234 8.32539 12.9393 8.76498 12.9102 9.28745L12.6741 13.5378C12.6542 13.8955 12.3584 14.1754 12.0001 14.1754C11.6419 14.1754 11.3461 13.8955 11.3262 13.5378L11.0901 9.28745ZM13.0002 16.5004C13.0002 17.0527 12.5525 17.5004 12.0002 17.5004C11.448 17.5004 11.0002 17.0527 11.0002 16.5004C11.0002 15.9481 11.448 15.5004 12.0002 15.5004C12.5525 15.5004 13.0002 15.9481 13.0002 16.5004Z" fill="white"/>
</svg>
