<svg width="16" height="16" viewBox="0 0 16 16" fill="none" xmlns="http://www.w3.org/2000/svg">
<g clip-path="url(#clip0_41_17878)">
<path d="M7.39304 5.58808C7.37369 5.23976 7.65092 4.9467 7.99977 4.9467C8.34863 4.9467 8.62585 5.23976 8.6065 5.58808L8.44908 8.42167C8.43583 8.66013 8.2386 8.84671 7.99977 8.84671C7.76094 8.84671 7.56371 8.66013 7.55047 8.42167L7.39304 5.58808Z" fill="white"/>
<path d="M8.66634 10.3967C8.66634 10.7649 8.36786 11.0634 7.99967 11.0634C7.63148 11.0634 7.33301 10.7649 7.33301 10.3967C7.33301 10.0285 7.63148 9.73003 7.99967 9.73003C8.36786 9.73003 8.66634 10.0285 8.66634 10.3967Z" fill="white"/>
<path fill-rule="evenodd" clip-rule="evenodd" d="M4 2.5C2.89543 2.5 2 3.39543 2 4.5V11.5C2 12.6046 2.89543 13.5 4 13.5H5V15.5C5 15.694 5.11223 15.8705 5.28792 15.9528C5.46361 16.0351 5.67105 16.0083 5.82009 15.8841L8.68102 13.5H12C13.1046 13.5 14 12.6046 14 11.5V4.5C14 3.39543 13.1046 2.5 12 2.5H4ZM3 4.5C3 3.94772 3.44772 3.5 4 3.5H12C12.5523 3.5 13 3.94772 13 4.5V11.5C13 12.0523 12.5523 12.5 12 12.5H8.5C8.38303 12.5 8.26977 12.541 8.17991 12.6159L6 14.4325V13C6 12.7239 5.77614 12.5 5.5 12.5H4C3.44772 12.5 3 12.0523 3 11.5V4.5Z" fill="white"/>
</g>
<defs>
<clipPath id="clip0_41_17878">
<rect width="16" height="16" fill="white"/>
</clipPath>
</defs>
</svg>
