<svg width="24" height="24" viewBox="0 0 24 24" fill="none" xmlns="http://www.w3.org/2000/svg">
<path fill-rule="evenodd" clip-rule="evenodd" d="M3 7.5C3 5.567 4.567 4 6.5 4H17.5C19.433 4 21 5.567 21 7.5V16.5C21 18.433 19.433 20 17.5 20H13.1716L8.80697 23.3947C8.65623 23.5119 8.45187 23.5331 8.28032 23.4492C8.10878 23.3653 8 23.191 8 23V20H6.5C4.567 20 3 18.433 3 16.5V7.5ZM11.0898 8.28706C11.0608 7.76458 11.4766 7.325 12 7.325C12.5232 7.325 12.939 7.76458 12.9099 8.28706L12.6738 12.5374C12.6541 12.8951 12.3582 13.175 12 13.175C11.6416 13.175 11.3457 12.8951 11.3259 12.5374L11.0898 8.28706ZM13 15.5C13 16.0523 12.5522 16.5 12 16.5C11.4478 16.5 11 16.0523 11 15.5C11 14.9477 11.4478 14.5 12 14.5C12.5522 14.5 13 14.9477 13 15.5Z" fill="white"/>
</svg>
