<svg width="24" height="24" viewBox="0 0 24 24" fill="none" xmlns="http://www.w3.org/2000/svg">
<path d="M11.0893 9.28666C11.0603 8.76419 11.4761 8.32461 11.9994 8.32461C12.5227 8.32461 12.9385 8.76419 12.9095 9.28666L12.6734 13.5371C12.6535 13.8947 12.3577 14.1746 11.9994 14.1746C11.6412 14.1746 11.3453 13.8947 11.3255 13.5371L11.0893 9.28666Z" fill="white"/>
<path d="M12.9995 16.4996C12.9995 17.0519 12.5518 17.4996 11.9995 17.4996C11.4472 17.4996 10.9995 17.0519 10.9995 16.4996C10.9995 15.9473 11.4472 15.4996 11.9995 15.4996C12.5518 15.4996 12.9995 15.9473 12.9995 16.4996Z" fill="white"/>
<path fill-rule="evenodd" clip-rule="evenodd" d="M13.7968 4.76211C12.9982 3.37877 11.0015 3.37878 10.2028 4.76211L3.10141 17.0621C2.30274 18.4454 3.30107 20.1746 4.89841 20.1746H19.1012C20.6986 20.1746 21.6969 18.4454 20.8982 17.0621L13.7968 4.76211ZM11.3719 5.43711C11.651 4.95378 12.3486 4.95378 12.6277 5.43711L19.7291 17.7371C20.0081 18.2204 19.6593 18.8246 19.1012 18.8246H4.89841C4.3403 18.8246 3.99149 18.2204 4.27054 17.7371L11.3719 5.43711Z" fill="white"/>
</svg>
