<svg width="16" height="16" viewBox="0 0 16 16" fill="none" xmlns="http://www.w3.org/2000/svg">
<path fill-rule="evenodd" clip-rule="evenodd" d="M13.1 3C13.5971 3 14 3.40295 14 3.90002V12.1C14 12.597 13.5971 13 13.1 13H2.89999C2.40294 13 2 12.597 2 12.1L2 3.90002C2 3.40295 2.40294 3 2.89999 3L13.1 3ZM9.81718 7.70435L7.00001 6.00005C6.78016 5.89015 6.52148 6.04998 6.52148 6.29573L6.52149 9.70437C6.52149 9.95012 6.78017 10.11 7.00002 10.0001L9.81718 8.2957C10.0609 8.17388 10.0609 7.82617 9.81718 7.70435Z" fill="white"/>
</svg>
