<svg width="24" height="24" viewBox="0 0 24 24" fill="none" xmlns="http://www.w3.org/2000/svg">
<path fill-rule="evenodd" clip-rule="evenodd" d="M20.5 4C21.3284 4 22 4.67163 22 5.5V18.5C22 19.3284 21.3284 20 20.5 20H3.5C2.67157 20 2 19.3284 2 18.5L2 5.5C2 4.67163 2.67157 4 3.5 4L20.5 4ZM14.6824 11.5598L9.73699 8.89689C9.40388 8.71752 8.99994 8.95879 8.99994 9.33712L8.99994 14.6629C8.99994 15.0412 9.40388 15.2825 9.73699 15.1031L14.6824 12.4403C15.033 12.2515 15.033 11.7486 14.6824 11.5598Z" fill="white"/>
</svg>
