<svg width="16" height="16" viewBox="0 0 16 16" fill="none" xmlns="http://www.w3.org/2000/svg">
<path fill-rule="evenodd" clip-rule="evenodd" d="M13.6 2.5C14.0971 2.5 14.5 2.90294 14.5 3.4L14.5 12.6C14.5 13.0971 14.0971 13.5 13.6 13.5L2.4 13.5C1.90294 13.5 1.5 13.0971 1.5 12.6L1.5 3.4C1.5 2.90294 1.90294 2.5 2.4 2.5L13.6 2.5ZM13.5 3.5L2.5 3.5L2.5 12.5L13.5 12.5L13.5 3.5ZM10.5 8C10.5 8.17943 10.4039 8.3451 10.2481 8.43412L6.74807 10.4341C6.59332 10.5226 6.40319 10.5219 6.24904 10.4325C6.09488 10.343 6 10.1782 6 10L6 6C6 5.82176 6.09488 5.65701 6.24904 5.56754C6.40319 5.47808 6.59332 5.47745 6.74807 5.56588L10.2481 7.56588C10.4039 7.6549 10.5 7.82057 10.5 8ZM7 6.86159L7 9.13841L8.99222 8L7 6.86159Z" fill="white"/>
</svg>
