<svg width="24" height="24" viewBox="0 0 24 24" fill="none" xmlns="http://www.w3.org/2000/svg">
<path fill-rule="evenodd" clip-rule="evenodd" d="M20.5 3.82495C21.4251 3.82495 22.175 4.57487 22.175 5.49995L22.175 18.5C22.175 19.425 21.4251 20.175 20.5 20.175L3.49999 20.175C2.57491 20.175 1.82499 19.425 1.82499 18.5L1.82499 5.49995C1.82499 4.57487 2.57491 3.82495 3.49999 3.82495L20.5 3.82495ZM20.825 5.49995C20.825 5.32046 20.6795 5.17495 20.5 5.17495L3.49999 5.17495C3.3205 5.17495 3.17499 5.32046 3.17499 5.49995L3.17499 18.5C3.17499 18.6794 3.32049 18.825 3.49999 18.825L20.5 18.825C20.6795 18.825 20.825 18.6794 20.825 18.5L20.825 5.49995ZM15.675 12C15.675 12.247 15.5401 12.4742 15.3232 12.5925L9.82321 15.5925C9.61407 15.7066 9.36028 15.702 9.15542 15.5804C8.95057 15.4588 8.82499 15.2382 8.82499 15L8.82499 8.99995C8.82499 8.76172 8.95057 8.54113 9.15542 8.41952C9.36028 8.29791 9.61407 8.29329 9.82321 8.40737L15.3232 11.4074C15.5401 11.5257 15.675 11.7529 15.675 12ZM13.5904 12L10.175 10.137L10.175 13.8629L13.5904 12Z" fill="white"/>
</svg>
