<svg width="24" height="24" viewBox="0 0 24 24" fill="none" xmlns="http://www.w3.org/2000/svg">
<path d="M10.7512 10.5002C10.7512 12.2951 9.29614 13.7502 7.50122 13.7502C5.7063 13.7502 4.25122 12.2951 4.25122 10.5002C4.25122 8.70526 5.7063 7.25018 7.50122 7.25018C9.29614 7.25018 10.7512 8.70526 10.7512 10.5002Z" fill="white"/>
<path fill-rule="evenodd" clip-rule="evenodd" d="M3.50037 3.8252C2.5752 3.8252 1.82532 4.57513 1.82532 5.50018V18.0173C1.30029 18.9551 1.00098 20.0365 1.00098 21.1877C1.00098 21.6365 1.36475 22.0002 1.81348 22.0002H13.1885C13.6372 22.0002 14.001 21.6365 14.001 21.1877C14.001 20.8433 13.9742 20.5051 13.9226 20.1752H20.5004C21.4254 20.1752 22.1753 19.4253 22.1753 18.5002V5.50018C22.1753 4.57513 21.4254 3.8252 20.5004 3.8252H3.50037ZM13.5582 18.8252H20.5004C20.6798 18.8252 20.8253 18.6797 20.8253 18.5002V5.50018C20.8253 5.32068 20.6798 5.17517 20.5004 5.17517H3.50037C3.3208 5.17517 3.17529 5.32068 3.17529 5.50018V16.336C4.32434 15.3108 5.83984 14.6877 7.50098 14.6877C10.2573 14.6877 12.6129 16.4034 13.5582 18.8252Z" fill="white"/>
</svg>
