<svg width="24" height="24" viewBox="0 0 24 24" fill="none" xmlns="http://www.w3.org/2000/svg">
<path fill-rule="evenodd" clip-rule="evenodd" d="M7.50049 7.25024C5.70556 7.25024 4.25049 8.70532 4.25049 10.5002C4.25049 12.2952 5.70556 13.7502 7.50049 13.7502C9.29541 13.7502 10.7505 12.2952 10.7505 10.5002C10.7505 8.70532 9.29541 7.25024 7.50049 7.25024ZM5.60049 10.5002C5.60049 9.4509 6.45115 8.60024 7.50049 8.60024C8.54983 8.60024 9.40049 9.4509 9.40049 10.5002C9.40049 11.5496 8.54983 12.4002 7.50049 12.4002C6.45115 12.4002 5.60049 11.5496 5.60049 10.5002Z" fill="white"/>
<path fill-rule="evenodd" clip-rule="evenodd" d="M3.49971 3.8252C2.57463 3.8252 1.82471 4.57512 1.82471 5.5002V17.6611C1.18986 18.6831 0.823242 19.8895 0.823242 21.1796L0.823248 21.1825C0.825547 21.7314 1.27123 22.1753 1.82021 22.1753H13.1817C13.7315 22.1753 14.1767 21.7291 14.1759 21.1796C14.1759 20.8385 14.1503 20.5031 14.1008 20.1752H20.4997C21.4248 20.1752 22.1747 19.4253 22.1747 18.5002V5.5002C22.1747 4.57512 21.4248 3.8252 20.4997 3.8252H3.49971ZM13.7487 18.8252H20.4997C20.6792 18.8252 20.8247 18.6797 20.8247 18.5002V5.5002C20.8247 5.3207 20.6792 5.1752 20.4997 5.1752H3.49971C3.32022 5.1752 3.17471 5.3207 3.17471 5.5002V16.0934C4.33937 15.1022 5.84946 14.5033 7.49959 14.5033C10.3588 14.5033 12.7969 16.3002 13.7487 18.8252ZM3.06155 18.2333C4.01706 16.7973 5.64823 15.8533 7.49959 15.8533C9.92286 15.8533 11.9698 17.4721 12.6146 19.6887C12.7205 20.0525 12.7886 20.4328 12.8144 20.8253H2.18482C2.24747 19.87 2.56159 18.9847 3.06155 18.2333Z" fill="white"/>
</svg>
