<svg width="16" height="16" viewBox="0 0 16 16" fill="none" xmlns="http://www.w3.org/2000/svg">
<path d="M7.75 7C7.75 8.24261 6.74268 9.25 5.5 9.25C4.25732 9.25 3.25 8.24261 3.25 7C3.25 5.75739 4.25732 4.75 5.5 4.75C6.74268 4.75 7.75 5.75739 7.75 7Z" fill="white"/>
<path fill-rule="evenodd" clip-rule="evenodd" d="M2.3999 2.5C1.90283 2.5 1.49988 2.90295 1.49988 3.40002V12.4501C1.18042 13.0675 1 13.7654 1 14.5C0.999878 14.7761 1.22363 15 1.49976 15H9.49976C9.77588 15 9.99976 14.7761 9.99976 14.5C9.99976 14.1572 9.96045 13.8224 9.88611 13.5001H13.5999C14.0969 13.5001 14.4999 13.0971 14.4999 12.6L14.5 3.40009C14.5 2.90302 14.097 2.50012 13.6 2.50012L2.3999 2.5ZM9.52527 12.5001H13.4999L13.5 3.50012L2.49988 3.5V11.1564C3.29602 10.4399 4.34729 10 5.49976 10C7.26123 10 8.78638 11.0275 9.52527 12.5001Z" fill="white"/>
</svg>
