<svg width="16" height="16" viewBox="0 0 16 16" fill="none" xmlns="http://www.w3.org/2000/svg">
<path fill-rule="evenodd" clip-rule="evenodd" d="M1.49988 3.4C1.49988 2.90294 1.90283 2.5 2.39988 2.5L13.6 2.5001C14.097 2.5001 14.5 2.90304 14.5 3.4001L14.4999 12.6001C14.4999 13.0971 14.0969 13.5001 13.5999 13.5001L9.88843 13.5001C9.95348 13.7866 9.99116 14.0834 9.99864 14.3873C10.0071 14.7295 9.73007 14.9999 9.40002 14.9999H1.60002C1.26998 14.9999 0.992987 14.7295 1.00141 14.3873C1.01866 13.6862 1.19658 13.0238 1.49991 12.4368L1.49988 3.4ZM2.4999 11.146C3.29577 10.4336 4.34709 9.99994 5.50002 9.99994C7.26765 9.99994 8.79622 11.019 9.53219 12.5001L13.4999 12.5001L13.5 3.5001L2.49988 3.5L2.4999 11.146ZM5.50001 5.75C4.80965 5.75 4.25001 6.30964 4.25001 7C4.25001 7.69036 4.80965 8.25 5.50001 8.25C6.19036 8.25 6.75001 7.69036 6.75001 7C6.75001 6.30964 6.19036 5.75 5.50001 5.75ZM3.25001 7C3.25001 5.75736 4.25736 4.75 5.50001 4.75C6.74265 4.75 7.75001 5.75736 7.75001 7C7.75001 8.24264 6.74265 9.25 5.50001 9.25C4.25736 9.25 3.25001 8.24264 3.25001 7ZM5.50002 10.9999C4.18285 10.9999 3.03488 11.7273 2.43712 12.8047C2.23547 13.1682 2.09664 13.5713 2.03541 13.9999H8.96464C8.92416 13.7166 8.84978 13.4444 8.74584 13.1876C8.22628 11.904 6.96813 10.9999 5.50002 10.9999Z" fill="white"/>
</svg>
