<svg width="16" height="16" viewBox="0 0 16 16" fill="none" xmlns="http://www.w3.org/2000/svg">
<path fill-rule="evenodd" clip-rule="evenodd" d="M4.73556 3.10932C4.57934 2.95313 4.32609 2.95314 4.16989 3.10934L3.10934 4.16989C2.95313 4.3261 2.95314 4.57937 3.10935 4.73558L6.14682 7.77289L6.60649 7.31321L4.14761 4.85472C3.95233 4.65947 3.95231 4.34289 4.14755 4.14761C4.3428 3.95233 4.65938 3.95231 4.85466 4.14755L7.07775 6.37029C7.13055 6.1176 7.15656 5.83939 7.16976 5.54353L4.73556 3.10932C4.73556 3.10932 4.73555 3.10931 4.73556 3.10932ZM7.35626 4.31581L5.44266 2.40221C4.89592 1.85551 4.00951 1.85551 3.46278 2.40223L2.40224 3.46278C1.85549 4.00952 1.85551 4.89597 2.40226 5.4427L5.43971 8.48L2.43048 11.4892C1.85618 12.0635 1.85618 12.9947 2.43048 13.569C3.00478 14.1433 3.9359 14.1433 4.5102 13.569L8.18602 9.89313L10.7133 12.4204V12.6995C10.7133 13.013 10.9042 13.2949 11.1953 13.4113L12.531 13.9456C12.8158 14.0595 13.141 13.9927 13.3579 13.7759L13.7759 13.3579C13.9927 13.141 14.0595 12.8158 13.9456 12.531L13.4113 11.1953C13.2949 10.9042 13.013 10.7133 12.6995 10.7133H12.4204L10.5336 8.82646C10.5807 8.82474 10.6281 8.8233 10.6758 8.82208C11.5188 8.80049 12.3568 8.4676 13.0005 7.82392C13.997 6.82744 14.2474 5.36876 13.7549 4.14025C13.6237 3.81298 13.1866 3.72344 12.9373 3.97277L11.3167 5.59329L10.4062 4.68275L12.0267 3.0622C12.2761 2.81288 12.1865 2.37579 11.8593 2.24457C10.6307 1.75197 9.17202 2.00245 8.17551 2.99896C7.79215 3.38231 7.51903 3.83459 7.35626 4.31581ZM9.30377 9.01088C9.15763 9.06192 9.02644 9.12533 8.91058 9.20347L11.4888 11.7817C11.6326 11.9255 11.7133 12.1205 11.7133 12.3238V12.5415L12.7596 12.96L12.96 12.7596L12.5415 11.7133H12.3238C12.1205 11.7133 11.9255 11.6326 11.7817 11.4888L9.30377 9.01088ZM10.6736 3.0011C10.0278 2.97832 9.37503 3.21365 8.88261 3.70606C8.42733 4.16135 8.19231 4.75226 8.17702 5.34924L8.17683 5.35667C8.15962 6.01711 8.10322 6.84855 7.70211 7.52612C7.60444 7.6911 7.48604 7.84788 7.34278 7.99114L3.13758 12.1963C2.95381 12.3801 2.95381 12.6781 3.13758 12.8618C3.32136 13.0456 3.61932 13.0456 3.80309 12.8618L8.00829 8.65665C8.39271 8.27223 8.8688 8.07142 9.336 7.96253C9.7795 7.85917 10.241 7.83289 10.6502 7.82241C11.2472 7.80712 11.8381 7.5721 12.2934 7.11682C12.7857 6.62443 13.0211 5.97169 12.9983 5.3259L11.8533 6.47093C11.557 6.76727 11.0765 6.76727 10.7802 6.47093L9.52855 5.21932C9.23221 4.92298 9.23221 4.44252 9.52855 4.14618L10.6736 3.0011Z" fill="white"/>
</svg>
