<svg width="16" height="16" viewBox="0 0 16 16" fill="none" xmlns="http://www.w3.org/2000/svg">
<path d="M5.44265 2.40221L6.58829 3.54777C6.32995 4.10249 6.193 4.69969 6.17768 5.29805C6.1762 5.35566 6.17437 5.4112 6.17215 5.46473L4.85474 4.14756C4.65946 3.95231 4.34288 3.95234 4.14764 4.14762C3.95239 4.3429 3.95242 4.65948 4.1477 4.85473L5.89939 6.60611L4.73259 7.77292L2.40226 5.44271C1.85551 4.89598 1.85549 4.00953 2.40224 3.46278L3.46278 2.40224C4.00951 1.85552 4.89591 1.8555 5.44265 2.40221Z" fill="white"/>
<path d="M11.6325 12.6325L9.24669 10.2467L9.42251 10.0709C9.46184 10.0315 9.55157 9.96753 9.77308 9.91435C10.001 9.85963 10.3009 9.83202 10.7014 9.82176C10.74 9.82077 10.7787 9.81927 10.8173 9.81727L12.6325 11.6325C12.6825 11.6825 12.7504 11.7106 12.8211 11.7106H13.1968C13.3058 11.7106 13.4039 11.777 13.4443 11.8783L13.9787 13.214C14.0183 13.3131 13.9951 13.4262 13.9196 13.5016L13.5016 13.9196C13.4262 13.9951 13.3131 14.0183 13.214 13.9787L11.8783 13.4443C11.777 13.4039 11.7106 13.3058 11.7106 13.1968V12.8211C11.7106 12.7504 11.6825 12.6825 11.6325 12.6325Z" fill="white"/>
<path d="M8.17551 2.99897C9.17202 2.00246 10.6307 1.75198 11.8593 2.24458C12.1865 2.3758 12.2761 2.81289 12.0267 3.06221L10.4062 4.68276L11.3167 5.5933L12.9373 3.97278C13.1866 3.72345 13.6237 3.81299 13.7549 4.14026C14.2475 5.36877 13.997 6.82745 13.0005 7.82393C12.3568 8.46761 11.5188 8.80051 10.6758 8.82209C9.83589 8.8436 9.13944 8.93973 8.7154 9.36377L4.51021 13.569C3.93591 14.1433 3.00478 14.1433 2.43048 13.569C1.85618 12.9947 1.85618 12.0635 2.43048 11.4892L6.63567 7.28405C7.05971 6.86001 7.15584 6.16356 7.17735 5.32365C7.19894 4.48065 7.53183 3.64265 8.17551 2.99897Z" fill="white"/>
</svg>
