<svg width="24" height="24" viewBox="0 0 24 24" fill="none" xmlns="http://www.w3.org/2000/svg">
<path d="M17.8632 3.35879C16.0623 2.63669 13.9246 3.00424 12.4645 4.46438C11.5211 5.40778 11.0333 6.63548 11.0016 7.8712C10.9687 9.15971 10.8261 10.3454 10.0847 11.0868L3.58579 17.5857C2.80474 18.3668 2.80474 19.6331 3.58579 20.4141C4.36683 21.1952 5.63317 21.1952 6.41421 20.4141L12.9132 13.9152C13.6545 13.1738 14.8402 13.0313 16.1287 12.9983C17.3644 12.9666 18.5921 12.4788 19.5355 11.5354C20.9956 10.0753 21.3632 7.93772 20.6412 6.13685C20.51 5.80957 20.0729 5.72004 19.8235 5.96936L16.9946 8.79823L15.2017 7.00534L18.0307 4.17643C18.28 3.92712 18.1905 3.49002 17.8632 3.35879Z" fill="white"/>
<path d="M10.3076 6.10035L7.7575 3.55021C7.03503 2.82775 5.86368 2.82774 5.14121 3.55021L3.5504 5.14103C2.82793 5.8635 2.82793 7.03485 3.5504 7.75732L7.77518 11.9821L9.37761 10.3797C9.42612 10.3312 9.47123 10.278 9.51316 10.2199L6.14669 6.85346C5.95143 6.6582 5.95143 6.34162 6.14669 6.14636C6.34195 5.95109 6.65854 5.95109 6.8538 6.14636L9.89079 9.18335C9.95412 8.81573 9.98845 8.3737 10.002 7.8456C10.0171 7.25569 10.119 6.66687 10.3076 6.10035Z" fill="white"/>
<path d="M13.6203 14.6223L13.3713 14.8713L17.4455 18.9455C17.5205 19.0205 17.5627 19.1222 17.5627 19.2283V19.7918C17.5627 19.9554 17.6623 20.1025 17.8141 20.1632L19.8178 20.9647C19.9664 21.0241 20.136 20.9893 20.2492 20.8761L20.8762 20.2491C20.9893 20.136 21.0242 19.9663 20.9647 19.8177L20.1633 17.8141C20.1025 17.6622 19.9554 17.5626 19.7919 17.5626H19.2284C19.1223 17.5626 19.0205 17.5205 18.9455 17.4455L15.5271 14.0271C14.5741 14.0952 13.9737 14.2689 13.6203 14.6223Z" fill="white"/>
</svg>
