<svg width="24" height="24" viewBox="0 0 24 24" fill="none" xmlns="http://www.w3.org/2000/svg">
<path fill-rule="evenodd" clip-rule="evenodd" d="M16.3542 4.19129C15.2603 4.09019 14.1319 4.45878 13.2953 5.2954C12.5732 6.01743 12.2005 6.9548 12.1762 7.90145C12.1752 7.94043 12.1741 7.97962 12.1729 8.019C12.1424 9.01702 12.0422 10.2283 11.4556 11.2189C11.3086 11.4672 11.1306 11.7027 10.9155 11.9178L4.41659 18.4167C4.09441 18.7389 4.09441 19.2613 4.41659 19.5835C4.73877 19.9056 5.26113 19.9056 5.58331 19.5835L12.0823 13.0845C12.6482 12.5185 13.3488 12.2154 14.0459 12.0476C14.7342 11.882 15.4551 11.8403 16.0986 11.8238C17.0452 11.7996 17.9826 11.4268 18.7046 10.7048C19.5412 9.86818 19.9098 8.73982 19.8087 7.64594L17.7547 9.69996C17.3349 10.1198 16.6542 10.1198 16.2344 9.69996L14.3001 7.76565C13.8803 7.34583 13.8803 6.66518 14.3001 6.24537L16.3542 4.19129ZM12.3407 4.3408C13.8521 2.82938 16.0647 2.44928 17.9283 3.19653C18.3701 3.37368 18.491 3.96376 18.1544 4.30035L15.4491 7.00551L16.9945 8.55091L19.6997 5.84578C20.0363 5.50919 20.6264 5.63007 20.8036 6.07189C21.5507 7.93547 21.1706 10.148 19.6592 11.6594C18.6829 12.6357 17.4119 13.1406 16.1331 13.1734C15.9693 13.1776 15.8069 13.1834 15.6466 13.1921L18.7795 16.3251H19.2291C19.6687 16.3251 20.064 16.5927 20.2272 17.0008L21.0287 19.0045C21.1884 19.4038 21.0948 19.8598 20.7907 20.1639L20.1638 20.7909C19.8597 21.095 19.4036 21.1886 19.0044 21.0288L17.0007 20.2274C16.5926 20.0641 16.325 19.6688 16.325 19.2293V18.7797L12.3106 14.7653L6.53791 20.538C5.68852 21.3874 4.31138 21.3874 3.46199 20.538C2.6126 19.6887 2.6126 18.3115 3.46199 17.4621L8.2347 12.6894L3.47725 7.93197C2.68644 7.14116 2.68644 5.859 3.47725 5.06819L5.06806 3.47738C5.85887 2.68657 7.14103 2.68657 7.93184 3.47738L11.0254 6.57091C11.2592 5.75439 11.6977 4.98373 12.3407 4.3408ZM10.8123 8.26698L6.97725 4.43197C6.71364 4.16837 6.28626 4.16837 6.02265 4.43197L4.43184 6.02278C4.16824 6.28639 4.16824 6.71377 4.43184 6.97738L9.18929 11.7348L9.96093 10.9632C9.96886 10.9553 9.97672 10.9473 9.98451 10.9392L6.02265 6.97738C5.75905 6.71377 5.75905 6.28639 6.02265 6.02278C6.28626 5.75918 6.71364 5.75918 6.97725 6.02278L10.6308 9.67629C10.7373 9.24862 10.7878 8.77251 10.8123 8.26698ZM13.283 13.8286L17.3601 17.9056C17.5617 18.1072 17.675 18.3807 17.675 18.6658V19.0431L19.3374 19.7081L19.7079 19.3375L19.043 17.6751H18.6656C18.3805 17.6751 18.1071 17.5618 17.9055 17.3602L14.0074 13.4622C13.7355 13.5549 13.4933 13.6748 13.283 13.8286Z" fill="white"/>
</svg>
