<svg width="24" height="24" viewBox="0 0 24 24" fill="none" xmlns="http://www.w3.org/2000/svg">
<path fill-rule="evenodd" clip-rule="evenodd" d="M5.02265 5.02265C5.28626 4.75905 5.71364 4.75905 5.97725 5.02265L12 11.0454L18.0227 5.02265C18.2863 4.75905 18.7136 4.75905 18.9772 5.02265C19.2409 5.28626 19.2409 5.71364 18.9772 5.97725L12.9545 12L18.9772 18.0227C19.2409 18.2863 19.2409 18.7136 18.9772 18.9772C18.7136 19.2409 18.2863 19.2409 18.0227 18.9772L12 12.9545L5.97725 18.9772C5.71364 19.2409 5.28626 19.2409 5.02265 18.9772C4.75905 18.7136 4.75905 18.2863 5.02265 18.0227L11.0454 12L5.02265 5.97725C4.75905 5.71364 4.75905 5.28626 5.02265 5.02265Z" fill="white"/>
</svg>
