<svg width="40" height="40" viewBox="0 0 40 40" fill="none" xmlns="http://www.w3.org/2000/svg">
<path fill-rule="evenodd" clip-rule="evenodd" d="M8.29289 8.29289C8.68342 7.90237 9.31658 7.90237 9.70711 8.29289L20 18.5858L30.2929 8.29289C30.6834 7.90237 31.3166 7.90237 31.7071 8.29289C32.0976 8.68342 32.0976 9.31658 31.7071 9.70711L21.4142 20L31.7071 30.2929C32.0976 30.6834 32.0976 31.3166 31.7071 31.7071C31.3166 32.0976 30.6834 32.0976 30.2929 31.7071L20 21.4142L9.70711 31.7071C9.31658 32.0976 8.68342 32.0976 8.29289 31.7071C7.90237 31.3166 7.90237 30.6834 8.29289 30.2929L18.5858 20L8.29289 9.70711C7.90237 9.31658 7.90237 8.68342 8.29289 8.29289Z" fill="white"/>
</svg>
