<svg width="24" height="24" viewBox="0 0 24 24" fill="none" xmlns="http://www.w3.org/2000/svg">
<path fill-rule="evenodd" clip-rule="evenodd" d="M5.5 4C4.67163 4 4 4.67157 4 5.5V18.5C4 19.3284 4.67163 20 5.5 20H19.0452L15.9362 16.891C15.2506 17.3845 14.4092 17.6752 13.5 17.6752C11.1942 17.6752 9.32495 15.806 9.32495 13.5002C9.32495 11.1944 11.1942 9.3252 13.5 9.3252C15.8057 9.3252 17.675 11.1944 17.675 13.5002C17.675 14.4095 17.3843 15.2508 16.8908 15.9365L20 19.0456V5.5C20 4.67157 19.3284 4 18.5 4H5.5ZM7.18745 5.8252H5.82495V7.1752H7.18745V5.8252ZM8.56245 7.1752H9.93745V5.8252H8.56245V7.1752ZM11.3125 7.1752H12.6875V5.8252H11.3125V7.1752ZM14.0625 7.1752H15.4375V5.8252H14.0625V7.1752ZM16.8125 5.8252V7.1752H18.175V5.8252H16.8125ZM7.18745 16.8252H5.82495V18.1752H7.18745V16.8252ZM8.56245 16.8252V18.1752H9.92495V16.8252H8.56245Z" fill="white"/>
<path d="M10.675 13.5002C10.675 11.94 11.9397 10.6752 13.5 10.6752C15.0602 10.6752 16.325 11.94 16.325 13.5002C16.325 15.0604 15.0602 16.3252 13.5 16.3252C11.9397 16.3252 10.675 15.0604 10.675 13.5002Z" fill="white"/>
</svg>
