<svg width="16" height="16" viewBox="0 0 16 16" fill="none" xmlns="http://www.w3.org/2000/svg">
<path fill-rule="evenodd" clip-rule="evenodd" d="M3.90002 3C3.40295 3 3 3.40294 3 3.89999V12.1C3 12.5971 3.40295 13 3.90002 13H12.2929L10.7383 11.4454C10.2479 11.7946 9.64791 12 9 12C7.34315 12 6 10.6569 6 9C6 7.34315 7.34315 6 9 6C10.6569 6 12 7.34315 12 9C12 9.64791 11.7946 10.2479 11.4454 10.7383L13 12.2929V3.89999C13 3.40294 12.597 3 12.1 3H3.90002ZM5.5 4H4.5V5H5.5V4ZM6.5 5H7.5V4H6.5V5ZM8.5 5H9.5V4H8.5V5ZM10.5 4V5H11.5V4H10.5ZM5.5 11H4.5V12H5.5V11Z" fill="white"/>
<path d="M7 9C7 7.89543 7.89543 7 9 7C10.1046 7 11 7.89543 11 9C11 10.1046 10.1046 11 9 11C7.89543 11 7 10.1046 7 9Z" fill="white"/>
</svg>
