<svg width="24" height="24" viewBox="0 0 24 24" fill="none" xmlns="http://www.w3.org/2000/svg">
<path d="M7.0002 9.8252C6.6274 9.8252 6.3252 10.1274 6.3252 10.5002C6.3252 10.873 6.6274 11.1752 7.0002 11.1752H14.0002C14.373 11.1752 14.6752 10.873 14.6752 10.5002C14.6752 10.1274 14.373 9.8252 14.0002 9.8252H7.0002Z" fill="white"/>
<path fill-rule="evenodd" clip-rule="evenodd" d="M2.8252 10.5002C2.8252 6.26141 6.26141 2.8252 10.5002 2.8252C14.739 2.8252 18.1752 6.26141 18.1752 10.5002C18.1752 12.1317 17.6656 13.6449 16.7976 14.8884L21.4548 19.5456C21.982 20.0728 21.982 20.9276 21.4548 21.4548C20.9276 21.982 20.0728 21.982 19.5456 21.4548L14.8884 16.7976C13.6449 17.6656 12.1317 18.1752 10.5002 18.1752C6.26141 18.1752 2.8252 14.739 2.8252 10.5002ZM10.5002 4.1752C7.00699 4.1752 4.1752 7.00699 4.1752 10.5002C4.1752 13.9934 7.00699 16.8252 10.5002 16.8252C12.247 16.8252 13.8273 16.118 14.9726 14.9726C16.118 13.8273 16.8252 12.247 16.8252 10.5002C16.8252 7.00699 13.9934 4.1752 10.5002 4.1752Z" fill="white"/>
</svg>
