<svg width="16" height="16" viewBox="0 0 16 16" fill="none" xmlns="http://www.w3.org/2000/svg">
<path d="M7.5 5C7.5 4.72386 7.27614 4.5 7 4.5C6.72386 4.5 6.5 4.72386 6.5 5V6.5H5C4.72386 6.5 4.5 6.72386 4.5 7C4.5 7.27614 4.72386 7.5 5 7.5H6.5V9C6.5 9.27614 6.72386 9.5 7 9.5C7.27614 9.5 7.5 9.27614 7.5 9V7.5H9C9.27614 7.5 9.5 7.27614 9.5 7C9.5 6.72386 9.27614 6.5 9 6.5H7.5V5Z" fill="white"/>
<path fill-rule="evenodd" clip-rule="evenodd" d="M2 7C2 4.23858 4.23858 2 7 2C9.76142 2 12 4.23858 12 7C12 8.01885 11.6949 8.96696 11.1716 9.7573L14.2071 12.7929C14.5977 13.1834 14.5977 13.8166 14.2071 14.2071C13.8166 14.5976 13.1835 14.5976 12.7929 14.2071L9.75737 11.1715C8.96702 11.6949 8.01888 12 7 12C4.23858 12 2 9.76142 2 7ZM7 3C4.79086 3 3 4.79086 3 7C3 9.20914 4.79086 11 7 11C8.10471 11 9.10402 10.5528 9.82843 9.82843C10.5528 9.10402 11 8.10471 11 7C11 4.79086 9.20914 3 7 3Z" fill="white"/>
</svg>
