<svg xmlns="http://www.w3.org/2000/svg" width="306" height="52" viewBox="0 0 306 52" fill="currentColor">
  <path fill-rule="evenodd" clip-rule="evenodd" d="M72.0874 50.9253L90.3717 0.0566406H103.32L121.675 50.9253H108.442L105.454 41.7476H87.6681L84.7512 50.9253H72.0874ZM94.4981 20.4041L90.5851 32.7122H102.537L98.6956 20.4041C97.8419 17.7717 96.7036 13.2185 96.7036 13.2185H96.5613C96.5613 13.2185 95.3518 17.7717 94.4981 20.4041Z"/>
  <path d="M168.942 41.3209C168.942 49.1468 173.78 51.3523 180.539 51.3523C183.67 51.3523 185.875 51.0678 186.871 50.7832V42.3169C186.703 42.3169 186.424 42.328 186.086 42.3414L186.086 42.3414L186.085 42.3414L186.084 42.3415L186.083 42.3415H186.083C185.566 42.3621 184.912 42.3881 184.31 42.3881C181.82 42.3881 180.255 41.6766 180.255 38.8308V21.756H186.871V14.4992H180.255V2.97376H168.942V14.4992H168.943V21.756H168.942V41.3209Z"/>
  <path d="M208.2 14.4992V50.9254H219.797V30.5068C219.797 26.167 221.931 23.1077 225.559 23.1077C229.046 23.1077 230.682 25.3844 230.682 29.2973V50.9254H242.278V30.5068C242.278 26.167 244.342 23.1077 248.041 23.1077C251.527 23.1077 253.164 25.3844 253.164 29.2973V50.9254H264.76V27.2341C264.76 19.0525 260.634 13.432 252.381 13.432C247.686 13.432 243.773 15.4241 240.927 19.8351H240.784C238.935 15.9221 235.306 13.432 230.54 13.432C225.275 13.432 221.789 15.9221 219.512 19.6928H219.299V14.4992H208.2Z"/>
  <path fill-rule="evenodd" clip-rule="evenodd" d="M268.399 32.6411C268.399 43.6686 275.798 51.9926 287.821 51.9926C292.446 51.9926 296.145 50.7831 299.205 48.6488C302.406 46.4433 304.54 43.3129 305.323 40.0402H294.011C293.015 42.3169 291.023 43.6686 287.964 43.6686C283.197 43.6686 280.493 40.6094 279.782 35.7004H305.963C306.034 28.3013 303.9 21.9694 299.56 17.9853C296.43 15.1395 292.303 13.432 287.11 13.432C276.011 13.432 268.399 21.756 268.399 32.6411ZM294.224 28.7993H279.853C280.636 24.4595 282.912 21.6848 287.323 21.6848C291.094 21.6848 293.798 24.4595 294.224 28.7993Z"/>
  <path d="M191.04 50.9253V14.4991H202.636V50.9253H191.04Z"/>
  <path d="M141.701 50.9251V14.4989H152.799V20.1905H153.013C155.574 15.8507 158.562 13.9298 162.973 13.9298C164.04 13.9298 164.752 14.0009 165.25 14.2143V24.1746H164.965C157.851 23.1786 153.297 26.6647 153.297 34.5618V50.9251H141.701Z"/>
  <path d="M124.54 14.4991V50.9253H136.137V14.4991H124.54Z"/>
  <path d="M124.559 2.92217V2.9198L136.092 2.9198V2.92217C136.092 6.10674 133.51 8.68834 130.325 8.68834C127.141 8.68834 124.559 6.10674 124.559 2.92217Z"/>
  <path d="M191.179 2.9198V2.92217C191.179 6.10674 193.761 8.68834 196.946 8.68834C200.13 8.68834 202.712 6.10674 202.712 2.92217V2.9198L191.179 2.9198Z"/>
  <path d="M25.4438 0.0136719C11.3916 0.0136719 0 11.4052 0 25.4575C0 39.5097 11.3916 50.9013 25.4438 50.9013V27.319C26.3815 37.2935 34.7783 45.0988 44.9981 45.0988V26.9768C45.7511 33.5035 51.2961 38.571 58.0246 38.571V12.3439C51.2961 12.3439 45.7511 17.4114 44.9981 23.9382V5.81613C34.7783 5.81613 26.3815 13.6214 25.4438 23.5959V0.0136719Z"/>
</svg>
